%TF.GenerationSoftware,KiCad,Pcbnew,10.0.3*%
%TF.CreationDate,2026-05-23T07:34:33+02:00*%
%TF.ProjectId,esp32_s3_dwm3000_uwb_anchor_with_relay_outputs,65737033-325f-4733-935f-64776d333030,rev?*%
%TF.SameCoordinates,Original*%
%TF.FileFunction,Legend,Top*%
%TF.FilePolarity,Positive*%
%FSLAX46Y46*%
G04 Gerber Fmt 4.6, Leading zero omitted, Abs format (unit mm)*
G04 Created by KiCad (PCBNEW 10.0.3) date 2026-05-23 07:34:33*
%MOMM*%
%LPD*%
G01*
G04 APERTURE LIST*
%ADD10C,0.158750*%
G04 APERTURE END LIST*
D10*
X37032380Y-17309271D02*
X37032380Y-18337366D01*
X37032380Y-18337366D02*
X37092857Y-18458318D01*
X37092857Y-18458318D02*
X37153333Y-18518795D01*
X37153333Y-18518795D02*
X37274285Y-18579271D01*
X37274285Y-18579271D02*
X37516190Y-18579271D01*
X37516190Y-18579271D02*
X37637142Y-18518795D01*
X37637142Y-18518795D02*
X37697619Y-18458318D01*
X37697619Y-18458318D02*
X37758095Y-18337366D01*
X37758095Y-18337366D02*
X37758095Y-17309271D01*
X38907142Y-17309271D02*
X38665237Y-17309271D01*
X38665237Y-17309271D02*
X38544285Y-17369747D01*
X38544285Y-17369747D02*
X38483809Y-17430223D01*
X38483809Y-17430223D02*
X38362856Y-17611652D01*
X38362856Y-17611652D02*
X38302380Y-17853556D01*
X38302380Y-17853556D02*
X38302380Y-18337366D01*
X38302380Y-18337366D02*
X38362856Y-18458318D01*
X38362856Y-18458318D02*
X38423333Y-18518795D01*
X38423333Y-18518795D02*
X38544285Y-18579271D01*
X38544285Y-18579271D02*
X38786190Y-18579271D01*
X38786190Y-18579271D02*
X38907142Y-18518795D01*
X38907142Y-18518795D02*
X38967618Y-18458318D01*
X38967618Y-18458318D02*
X39028095Y-18337366D01*
X39028095Y-18337366D02*
X39028095Y-18034985D01*
X39028095Y-18034985D02*
X38967618Y-17914033D01*
X38967618Y-17914033D02*
X38907142Y-17853556D01*
X38907142Y-17853556D02*
X38786190Y-17793080D01*
X38786190Y-17793080D02*
X38544285Y-17793080D01*
X38544285Y-17793080D02*
X38423333Y-17853556D01*
X38423333Y-17853556D02*
X38362856Y-17914033D01*
X38362856Y-17914033D02*
X38302380Y-18034985D01*
X61948095Y-65309271D02*
X62190000Y-65309271D01*
X62190000Y-65309271D02*
X62310952Y-65369747D01*
X62310952Y-65369747D02*
X62431905Y-65490699D01*
X62431905Y-65490699D02*
X62492381Y-65732604D01*
X62492381Y-65732604D02*
X62492381Y-66155937D01*
X62492381Y-66155937D02*
X62431905Y-66397842D01*
X62431905Y-66397842D02*
X62310952Y-66518795D01*
X62310952Y-66518795D02*
X62190000Y-66579271D01*
X62190000Y-66579271D02*
X61948095Y-66579271D01*
X61948095Y-66579271D02*
X61827143Y-66518795D01*
X61827143Y-66518795D02*
X61706190Y-66397842D01*
X61706190Y-66397842D02*
X61645714Y-66155937D01*
X61645714Y-66155937D02*
X61645714Y-65732604D01*
X61645714Y-65732604D02*
X61706190Y-65490699D01*
X61706190Y-65490699D02*
X61827143Y-65369747D01*
X61827143Y-65369747D02*
X61948095Y-65309271D01*
X63036666Y-66579271D02*
X63036666Y-65309271D01*
X63762381Y-66579271D02*
X63218095Y-65853556D01*
X63762381Y-65309271D02*
X63036666Y-66034985D01*
X64971905Y-66579271D02*
X64246190Y-66579271D01*
X64609047Y-66579271D02*
X64609047Y-65309271D01*
X64609047Y-65309271D02*
X64488095Y-65490699D01*
X64488095Y-65490699D02*
X64367143Y-65611652D01*
X64367143Y-65611652D02*
X64246190Y-65672128D01*
X65516190Y-66095461D02*
X66483810Y-66095461D01*
X67330476Y-65309271D02*
X67572381Y-65309271D01*
X67572381Y-65309271D02*
X67693333Y-65369747D01*
X67693333Y-65369747D02*
X67814286Y-65490699D01*
X67814286Y-65490699D02*
X67874762Y-65732604D01*
X67874762Y-65732604D02*
X67874762Y-66155937D01*
X67874762Y-66155937D02*
X67814286Y-66397842D01*
X67814286Y-66397842D02*
X67693333Y-66518795D01*
X67693333Y-66518795D02*
X67572381Y-66579271D01*
X67572381Y-66579271D02*
X67330476Y-66579271D01*
X67330476Y-66579271D02*
X67209524Y-66518795D01*
X67209524Y-66518795D02*
X67088571Y-66397842D01*
X67088571Y-66397842D02*
X67028095Y-66155937D01*
X67028095Y-66155937D02*
X67028095Y-65732604D01*
X67028095Y-65732604D02*
X67088571Y-65490699D01*
X67088571Y-65490699D02*
X67209524Y-65369747D01*
X67209524Y-65369747D02*
X67330476Y-65309271D01*
X68419047Y-66579271D02*
X68419047Y-65309271D01*
X69144762Y-66579271D02*
X68600476Y-65853556D01*
X69144762Y-65309271D02*
X68419047Y-66034985D01*
X69628571Y-65430223D02*
X69689047Y-65369747D01*
X69689047Y-65369747D02*
X69810000Y-65309271D01*
X69810000Y-65309271D02*
X70112381Y-65309271D01*
X70112381Y-65309271D02*
X70233333Y-65369747D01*
X70233333Y-65369747D02*
X70293809Y-65430223D01*
X70293809Y-65430223D02*
X70354286Y-65551175D01*
X70354286Y-65551175D02*
X70354286Y-65672128D01*
X70354286Y-65672128D02*
X70293809Y-65853556D01*
X70293809Y-65853556D02*
X69568095Y-66579271D01*
X69568095Y-66579271D02*
X70354286Y-66579271D01*
X87032380Y-23309271D02*
X87032380Y-24337366D01*
X87032380Y-24337366D02*
X87092857Y-24458318D01*
X87092857Y-24458318D02*
X87153333Y-24518795D01*
X87153333Y-24518795D02*
X87274285Y-24579271D01*
X87274285Y-24579271D02*
X87516190Y-24579271D01*
X87516190Y-24579271D02*
X87637142Y-24518795D01*
X87637142Y-24518795D02*
X87697619Y-24458318D01*
X87697619Y-24458318D02*
X87758095Y-24337366D01*
X87758095Y-24337366D02*
X87758095Y-23309271D01*
X88302380Y-23430223D02*
X88362856Y-23369747D01*
X88362856Y-23369747D02*
X88483809Y-23309271D01*
X88483809Y-23309271D02*
X88786190Y-23309271D01*
X88786190Y-23309271D02*
X88907142Y-23369747D01*
X88907142Y-23369747D02*
X88967618Y-23430223D01*
X88967618Y-23430223D02*
X89028095Y-23551175D01*
X89028095Y-23551175D02*
X89028095Y-23672128D01*
X89028095Y-23672128D02*
X88967618Y-23853556D01*
X88967618Y-23853556D02*
X88241904Y-24579271D01*
X88241904Y-24579271D02*
X89028095Y-24579271D01*
X19032380Y-19309271D02*
X19032380Y-20337366D01*
X19032380Y-20337366D02*
X19092857Y-20458318D01*
X19092857Y-20458318D02*
X19153333Y-20518795D01*
X19153333Y-20518795D02*
X19274285Y-20579271D01*
X19274285Y-20579271D02*
X19516190Y-20579271D01*
X19516190Y-20579271D02*
X19637142Y-20518795D01*
X19637142Y-20518795D02*
X19697619Y-20458318D01*
X19697619Y-20458318D02*
X19758095Y-20337366D01*
X19758095Y-20337366D02*
X19758095Y-19309271D01*
X21028095Y-20579271D02*
X20302380Y-20579271D01*
X20665237Y-20579271D02*
X20665237Y-19309271D01*
X20665237Y-19309271D02*
X20544285Y-19490699D01*
X20544285Y-19490699D02*
X20423333Y-19611652D01*
X20423333Y-19611652D02*
X20302380Y-19672128D01*
X75032380Y-35309271D02*
X75032380Y-36337366D01*
X75032380Y-36337366D02*
X75092857Y-36458318D01*
X75092857Y-36458318D02*
X75153333Y-36518795D01*
X75153333Y-36518795D02*
X75274285Y-36579271D01*
X75274285Y-36579271D02*
X75516190Y-36579271D01*
X75516190Y-36579271D02*
X75637142Y-36518795D01*
X75637142Y-36518795D02*
X75697619Y-36458318D01*
X75697619Y-36458318D02*
X75758095Y-36337366D01*
X75758095Y-36337366D02*
X75758095Y-35309271D01*
X76241904Y-35309271D02*
X77028095Y-35309271D01*
X77028095Y-35309271D02*
X76604761Y-35793080D01*
X76604761Y-35793080D02*
X76786190Y-35793080D01*
X76786190Y-35793080D02*
X76907142Y-35853556D01*
X76907142Y-35853556D02*
X76967618Y-35914033D01*
X76967618Y-35914033D02*
X77028095Y-36034985D01*
X77028095Y-36034985D02*
X77028095Y-36337366D01*
X77028095Y-36337366D02*
X76967618Y-36458318D01*
X76967618Y-36458318D02*
X76907142Y-36518795D01*
X76907142Y-36518795D02*
X76786190Y-36579271D01*
X76786190Y-36579271D02*
X76423333Y-36579271D01*
X76423333Y-36579271D02*
X76302380Y-36518795D01*
X76302380Y-36518795D02*
X76241904Y-36458318D01*
M02*
