%TF.GenerationSoftware,KiCad,Pcbnew,10.0.3*%
%TF.CreationDate,2026-05-23T07:34:33+02:00*%
%TF.ProjectId,esp32_s3_dwm3000_uwb_anchor_with_relay_outputs,65737033-325f-4733-935f-64776d333030,rev?*%
%TF.SameCoordinates,Original*%
%TF.FileFunction,AssemblyDrawing,Top*%
%FSLAX46Y46*%
G04 Gerber Fmt 4.6, Leading zero omitted, Abs format (unit mm)*
G04 Created by KiCad (PCBNEW 10.0.3) date 2026-05-23 07:34:33*
%MOMM*%
%LPD*%
G01*
G04 APERTURE LIST*
%ADD10C,0.158750*%
G04 APERTURE END LIST*
D10*
X33494523Y-17309271D02*
X32889761Y-17309271D01*
X32889761Y-17309271D02*
X32829285Y-17914033D01*
X32829285Y-17914033D02*
X32889761Y-17853556D01*
X32889761Y-17853556D02*
X33010714Y-17793080D01*
X33010714Y-17793080D02*
X33313095Y-17793080D01*
X33313095Y-17793080D02*
X33434047Y-17853556D01*
X33434047Y-17853556D02*
X33494523Y-17914033D01*
X33494523Y-17914033D02*
X33555000Y-18034985D01*
X33555000Y-18034985D02*
X33555000Y-18337366D01*
X33555000Y-18337366D02*
X33494523Y-18458318D01*
X33494523Y-18458318D02*
X33434047Y-18518795D01*
X33434047Y-18518795D02*
X33313095Y-18579271D01*
X33313095Y-18579271D02*
X33010714Y-18579271D01*
X33010714Y-18579271D02*
X32889761Y-18518795D01*
X32889761Y-18518795D02*
X32829285Y-18458318D01*
X33917857Y-17309271D02*
X34341190Y-18579271D01*
X34341190Y-18579271D02*
X34764524Y-17309271D01*
X36155475Y-18579271D02*
X36155475Y-17732604D01*
X36155475Y-17309271D02*
X36094999Y-17369747D01*
X36094999Y-17369747D02*
X36155475Y-17430223D01*
X36155475Y-17430223D02*
X36215952Y-17369747D01*
X36215952Y-17369747D02*
X36155475Y-17309271D01*
X36155475Y-17309271D02*
X36155475Y-17430223D01*
X36699761Y-18518795D02*
X36820714Y-18579271D01*
X36820714Y-18579271D02*
X37062618Y-18579271D01*
X37062618Y-18579271D02*
X37183571Y-18518795D01*
X37183571Y-18518795D02*
X37244047Y-18397842D01*
X37244047Y-18397842D02*
X37244047Y-18337366D01*
X37244047Y-18337366D02*
X37183571Y-18216414D01*
X37183571Y-18216414D02*
X37062618Y-18155937D01*
X37062618Y-18155937D02*
X36881190Y-18155937D01*
X36881190Y-18155937D02*
X36760237Y-18095461D01*
X36760237Y-18095461D02*
X36699761Y-17974509D01*
X36699761Y-17974509D02*
X36699761Y-17914033D01*
X36699761Y-17914033D02*
X36760237Y-17793080D01*
X36760237Y-17793080D02*
X36881190Y-17732604D01*
X36881190Y-17732604D02*
X37062618Y-17732604D01*
X37062618Y-17732604D02*
X37183571Y-17793080D01*
X37969761Y-18579271D02*
X37848809Y-18518795D01*
X37848809Y-18518795D02*
X37788332Y-18458318D01*
X37788332Y-18458318D02*
X37727856Y-18337366D01*
X37727856Y-18337366D02*
X37727856Y-17974509D01*
X37727856Y-17974509D02*
X37788332Y-17853556D01*
X37788332Y-17853556D02*
X37848809Y-17793080D01*
X37848809Y-17793080D02*
X37969761Y-17732604D01*
X37969761Y-17732604D02*
X38151190Y-17732604D01*
X38151190Y-17732604D02*
X38272142Y-17793080D01*
X38272142Y-17793080D02*
X38332618Y-17853556D01*
X38332618Y-17853556D02*
X38393094Y-17974509D01*
X38393094Y-17974509D02*
X38393094Y-18337366D01*
X38393094Y-18337366D02*
X38332618Y-18458318D01*
X38332618Y-18458318D02*
X38272142Y-18518795D01*
X38272142Y-18518795D02*
X38151190Y-18579271D01*
X38151190Y-18579271D02*
X37969761Y-18579271D01*
X39118809Y-18579271D02*
X38997857Y-18518795D01*
X38997857Y-18518795D02*
X38937380Y-18397842D01*
X38937380Y-18397842D02*
X38937380Y-17309271D01*
X40146904Y-18579271D02*
X40146904Y-17914033D01*
X40146904Y-17914033D02*
X40086428Y-17793080D01*
X40086428Y-17793080D02*
X39965476Y-17732604D01*
X39965476Y-17732604D02*
X39723571Y-17732604D01*
X39723571Y-17732604D02*
X39602618Y-17793080D01*
X40146904Y-18518795D02*
X40025952Y-18579271D01*
X40025952Y-18579271D02*
X39723571Y-18579271D01*
X39723571Y-18579271D02*
X39602618Y-18518795D01*
X39602618Y-18518795D02*
X39542142Y-18397842D01*
X39542142Y-18397842D02*
X39542142Y-18276890D01*
X39542142Y-18276890D02*
X39602618Y-18155937D01*
X39602618Y-18155937D02*
X39723571Y-18095461D01*
X39723571Y-18095461D02*
X40025952Y-18095461D01*
X40025952Y-18095461D02*
X40146904Y-18034985D01*
X40570238Y-17732604D02*
X41054047Y-17732604D01*
X40751666Y-17309271D02*
X40751666Y-18397842D01*
X40751666Y-18397842D02*
X40812143Y-18518795D01*
X40812143Y-18518795D02*
X40933095Y-18579271D01*
X40933095Y-18579271D02*
X41054047Y-18579271D01*
X41961190Y-18518795D02*
X41840238Y-18579271D01*
X41840238Y-18579271D02*
X41598333Y-18579271D01*
X41598333Y-18579271D02*
X41477380Y-18518795D01*
X41477380Y-18518795D02*
X41416904Y-18397842D01*
X41416904Y-18397842D02*
X41416904Y-17914033D01*
X41416904Y-17914033D02*
X41477380Y-17793080D01*
X41477380Y-17793080D02*
X41598333Y-17732604D01*
X41598333Y-17732604D02*
X41840238Y-17732604D01*
X41840238Y-17732604D02*
X41961190Y-17793080D01*
X41961190Y-17793080D02*
X42021666Y-17914033D01*
X42021666Y-17914033D02*
X42021666Y-18034985D01*
X42021666Y-18034985D02*
X41416904Y-18155937D01*
X43110237Y-18579271D02*
X43110237Y-17309271D01*
X43110237Y-18518795D02*
X42989285Y-18579271D01*
X42989285Y-18579271D02*
X42747380Y-18579271D01*
X42747380Y-18579271D02*
X42626428Y-18518795D01*
X42626428Y-18518795D02*
X42565951Y-18458318D01*
X42565951Y-18458318D02*
X42505475Y-18337366D01*
X42505475Y-18337366D02*
X42505475Y-17974509D01*
X42505475Y-17974509D02*
X42565951Y-17853556D01*
X42565951Y-17853556D02*
X42626428Y-17793080D01*
X42626428Y-17793080D02*
X42747380Y-17732604D01*
X42747380Y-17732604D02*
X42989285Y-17732604D01*
X42989285Y-17732604D02*
X43110237Y-17793080D01*
X63218094Y-66579271D02*
X63218094Y-65309271D01*
X63218094Y-65309271D02*
X63701904Y-65309271D01*
X63701904Y-65309271D02*
X63822856Y-65369747D01*
X63822856Y-65369747D02*
X63883333Y-65430223D01*
X63883333Y-65430223D02*
X63943809Y-65551175D01*
X63943809Y-65551175D02*
X63943809Y-65732604D01*
X63943809Y-65732604D02*
X63883333Y-65853556D01*
X63883333Y-65853556D02*
X63822856Y-65914033D01*
X63822856Y-65914033D02*
X63701904Y-65974509D01*
X63701904Y-65974509D02*
X63218094Y-65974509D01*
X65213809Y-66458318D02*
X65153333Y-66518795D01*
X65153333Y-66518795D02*
X64971904Y-66579271D01*
X64971904Y-66579271D02*
X64850952Y-66579271D01*
X64850952Y-66579271D02*
X64669523Y-66518795D01*
X64669523Y-66518795D02*
X64548571Y-66397842D01*
X64548571Y-66397842D02*
X64488094Y-66276890D01*
X64488094Y-66276890D02*
X64427618Y-66034985D01*
X64427618Y-66034985D02*
X64427618Y-65853556D01*
X64427618Y-65853556D02*
X64488094Y-65611652D01*
X64488094Y-65611652D02*
X64548571Y-65490699D01*
X64548571Y-65490699D02*
X64669523Y-65369747D01*
X64669523Y-65369747D02*
X64850952Y-65309271D01*
X64850952Y-65309271D02*
X64971904Y-65309271D01*
X64971904Y-65309271D02*
X65153333Y-65369747D01*
X65153333Y-65369747D02*
X65213809Y-65430223D01*
X65939523Y-65853556D02*
X65818571Y-65793080D01*
X65818571Y-65793080D02*
X65758094Y-65732604D01*
X65758094Y-65732604D02*
X65697618Y-65611652D01*
X65697618Y-65611652D02*
X65697618Y-65551175D01*
X65697618Y-65551175D02*
X65758094Y-65430223D01*
X65758094Y-65430223D02*
X65818571Y-65369747D01*
X65818571Y-65369747D02*
X65939523Y-65309271D01*
X65939523Y-65309271D02*
X66181428Y-65309271D01*
X66181428Y-65309271D02*
X66302380Y-65369747D01*
X66302380Y-65369747D02*
X66362856Y-65430223D01*
X66362856Y-65430223D02*
X66423333Y-65551175D01*
X66423333Y-65551175D02*
X66423333Y-65611652D01*
X66423333Y-65611652D02*
X66362856Y-65732604D01*
X66362856Y-65732604D02*
X66302380Y-65793080D01*
X66302380Y-65793080D02*
X66181428Y-65853556D01*
X66181428Y-65853556D02*
X65939523Y-65853556D01*
X65939523Y-65853556D02*
X65818571Y-65914033D01*
X65818571Y-65914033D02*
X65758094Y-65974509D01*
X65758094Y-65974509D02*
X65697618Y-66095461D01*
X65697618Y-66095461D02*
X65697618Y-66337366D01*
X65697618Y-66337366D02*
X65758094Y-66458318D01*
X65758094Y-66458318D02*
X65818571Y-66518795D01*
X65818571Y-66518795D02*
X65939523Y-66579271D01*
X65939523Y-66579271D02*
X66181428Y-66579271D01*
X66181428Y-66579271D02*
X66302380Y-66518795D01*
X66302380Y-66518795D02*
X66362856Y-66458318D01*
X66362856Y-66458318D02*
X66423333Y-66337366D01*
X66423333Y-66337366D02*
X66423333Y-66095461D01*
X66423333Y-66095461D02*
X66362856Y-65974509D01*
X66362856Y-65974509D02*
X66302380Y-65914033D01*
X66302380Y-65914033D02*
X66181428Y-65853556D01*
X67632857Y-66579271D02*
X66907142Y-66579271D01*
X67269999Y-66579271D02*
X67269999Y-65309271D01*
X67269999Y-65309271D02*
X67149047Y-65490699D01*
X67149047Y-65490699D02*
X67028095Y-65611652D01*
X67028095Y-65611652D02*
X66907142Y-65672128D01*
X68056190Y-65309271D02*
X68902857Y-65309271D01*
X68902857Y-65309271D02*
X68358571Y-66579271D01*
X83796903Y-24579271D02*
X83796903Y-23309271D01*
X83796903Y-23309271D02*
X84099284Y-23309271D01*
X84099284Y-23309271D02*
X84280713Y-23369747D01*
X84280713Y-23369747D02*
X84401665Y-23490699D01*
X84401665Y-23490699D02*
X84462142Y-23611652D01*
X84462142Y-23611652D02*
X84522618Y-23853556D01*
X84522618Y-23853556D02*
X84522618Y-24034985D01*
X84522618Y-24034985D02*
X84462142Y-24276890D01*
X84462142Y-24276890D02*
X84401665Y-24397842D01*
X84401665Y-24397842D02*
X84280713Y-24518795D01*
X84280713Y-24518795D02*
X84099284Y-24579271D01*
X84099284Y-24579271D02*
X83796903Y-24579271D01*
X84945951Y-23309271D02*
X85248332Y-24579271D01*
X85248332Y-24579271D02*
X85490237Y-23672128D01*
X85490237Y-23672128D02*
X85732142Y-24579271D01*
X85732142Y-24579271D02*
X86034523Y-23309271D01*
X86518332Y-24579271D02*
X86518332Y-23309271D01*
X86518332Y-23309271D02*
X86941666Y-24216414D01*
X86941666Y-24216414D02*
X87364999Y-23309271D01*
X87364999Y-23309271D02*
X87364999Y-24579271D01*
X87848809Y-23309271D02*
X88635000Y-23309271D01*
X88635000Y-23309271D02*
X88211666Y-23793080D01*
X88211666Y-23793080D02*
X88393095Y-23793080D01*
X88393095Y-23793080D02*
X88514047Y-23853556D01*
X88514047Y-23853556D02*
X88574523Y-23914033D01*
X88574523Y-23914033D02*
X88635000Y-24034985D01*
X88635000Y-24034985D02*
X88635000Y-24337366D01*
X88635000Y-24337366D02*
X88574523Y-24458318D01*
X88574523Y-24458318D02*
X88514047Y-24518795D01*
X88514047Y-24518795D02*
X88393095Y-24579271D01*
X88393095Y-24579271D02*
X88030238Y-24579271D01*
X88030238Y-24579271D02*
X87909285Y-24518795D01*
X87909285Y-24518795D02*
X87848809Y-24458318D01*
X89421190Y-23309271D02*
X89542143Y-23309271D01*
X89542143Y-23309271D02*
X89663095Y-23369747D01*
X89663095Y-23369747D02*
X89723571Y-23430223D01*
X89723571Y-23430223D02*
X89784047Y-23551175D01*
X89784047Y-23551175D02*
X89844524Y-23793080D01*
X89844524Y-23793080D02*
X89844524Y-24095461D01*
X89844524Y-24095461D02*
X89784047Y-24337366D01*
X89784047Y-24337366D02*
X89723571Y-24458318D01*
X89723571Y-24458318D02*
X89663095Y-24518795D01*
X89663095Y-24518795D02*
X89542143Y-24579271D01*
X89542143Y-24579271D02*
X89421190Y-24579271D01*
X89421190Y-24579271D02*
X89300238Y-24518795D01*
X89300238Y-24518795D02*
X89239762Y-24458318D01*
X89239762Y-24458318D02*
X89179285Y-24337366D01*
X89179285Y-24337366D02*
X89118809Y-24095461D01*
X89118809Y-24095461D02*
X89118809Y-23793080D01*
X89118809Y-23793080D02*
X89179285Y-23551175D01*
X89179285Y-23551175D02*
X89239762Y-23430223D01*
X89239762Y-23430223D02*
X89300238Y-23369747D01*
X89300238Y-23369747D02*
X89421190Y-23309271D01*
X90630714Y-23309271D02*
X90751667Y-23309271D01*
X90751667Y-23309271D02*
X90872619Y-23369747D01*
X90872619Y-23369747D02*
X90933095Y-23430223D01*
X90933095Y-23430223D02*
X90993571Y-23551175D01*
X90993571Y-23551175D02*
X91054048Y-23793080D01*
X91054048Y-23793080D02*
X91054048Y-24095461D01*
X91054048Y-24095461D02*
X90993571Y-24337366D01*
X90993571Y-24337366D02*
X90933095Y-24458318D01*
X90933095Y-24458318D02*
X90872619Y-24518795D01*
X90872619Y-24518795D02*
X90751667Y-24579271D01*
X90751667Y-24579271D02*
X90630714Y-24579271D01*
X90630714Y-24579271D02*
X90509762Y-24518795D01*
X90509762Y-24518795D02*
X90449286Y-24458318D01*
X90449286Y-24458318D02*
X90388809Y-24337366D01*
X90388809Y-24337366D02*
X90328333Y-24095461D01*
X90328333Y-24095461D02*
X90328333Y-23793080D01*
X90328333Y-23793080D02*
X90388809Y-23551175D01*
X90388809Y-23551175D02*
X90449286Y-23430223D01*
X90449286Y-23430223D02*
X90509762Y-23369747D01*
X90509762Y-23369747D02*
X90630714Y-23309271D01*
X91840238Y-23309271D02*
X91961191Y-23309271D01*
X91961191Y-23309271D02*
X92082143Y-23369747D01*
X92082143Y-23369747D02*
X92142619Y-23430223D01*
X92142619Y-23430223D02*
X92203095Y-23551175D01*
X92203095Y-23551175D02*
X92263572Y-23793080D01*
X92263572Y-23793080D02*
X92263572Y-24095461D01*
X92263572Y-24095461D02*
X92203095Y-24337366D01*
X92203095Y-24337366D02*
X92142619Y-24458318D01*
X92142619Y-24458318D02*
X92082143Y-24518795D01*
X92082143Y-24518795D02*
X91961191Y-24579271D01*
X91961191Y-24579271D02*
X91840238Y-24579271D01*
X91840238Y-24579271D02*
X91719286Y-24518795D01*
X91719286Y-24518795D02*
X91658810Y-24458318D01*
X91658810Y-24458318D02*
X91598333Y-24337366D01*
X91598333Y-24337366D02*
X91537857Y-24095461D01*
X91537857Y-24095461D02*
X91537857Y-23793080D01*
X91537857Y-23793080D02*
X91598333Y-23551175D01*
X91598333Y-23551175D02*
X91658810Y-23430223D01*
X91658810Y-23430223D02*
X91719286Y-23369747D01*
X91719286Y-23369747D02*
X91840238Y-23309271D01*
X11351903Y-19914033D02*
X11775237Y-19914033D01*
X11956665Y-20579271D02*
X11351903Y-20579271D01*
X11351903Y-20579271D02*
X11351903Y-19309271D01*
X11351903Y-19309271D02*
X11956665Y-19309271D01*
X12440475Y-20518795D02*
X12621904Y-20579271D01*
X12621904Y-20579271D02*
X12924285Y-20579271D01*
X12924285Y-20579271D02*
X13045237Y-20518795D01*
X13045237Y-20518795D02*
X13105713Y-20458318D01*
X13105713Y-20458318D02*
X13166190Y-20337366D01*
X13166190Y-20337366D02*
X13166190Y-20216414D01*
X13166190Y-20216414D02*
X13105713Y-20095461D01*
X13105713Y-20095461D02*
X13045237Y-20034985D01*
X13045237Y-20034985D02*
X12924285Y-19974509D01*
X12924285Y-19974509D02*
X12682380Y-19914033D01*
X12682380Y-19914033D02*
X12561428Y-19853556D01*
X12561428Y-19853556D02*
X12500951Y-19793080D01*
X12500951Y-19793080D02*
X12440475Y-19672128D01*
X12440475Y-19672128D02*
X12440475Y-19551175D01*
X12440475Y-19551175D02*
X12500951Y-19430223D01*
X12500951Y-19430223D02*
X12561428Y-19369747D01*
X12561428Y-19369747D02*
X12682380Y-19309271D01*
X12682380Y-19309271D02*
X12984761Y-19309271D01*
X12984761Y-19309271D02*
X13166190Y-19369747D01*
X13710475Y-20579271D02*
X13710475Y-19309271D01*
X13710475Y-19309271D02*
X14194285Y-19309271D01*
X14194285Y-19309271D02*
X14315237Y-19369747D01*
X14315237Y-19369747D02*
X14375714Y-19430223D01*
X14375714Y-19430223D02*
X14436190Y-19551175D01*
X14436190Y-19551175D02*
X14436190Y-19732604D01*
X14436190Y-19732604D02*
X14375714Y-19853556D01*
X14375714Y-19853556D02*
X14315237Y-19914033D01*
X14315237Y-19914033D02*
X14194285Y-19974509D01*
X14194285Y-19974509D02*
X13710475Y-19974509D01*
X14859523Y-19309271D02*
X15645714Y-19309271D01*
X15645714Y-19309271D02*
X15222380Y-19793080D01*
X15222380Y-19793080D02*
X15403809Y-19793080D01*
X15403809Y-19793080D02*
X15524761Y-19853556D01*
X15524761Y-19853556D02*
X15585237Y-19914033D01*
X15585237Y-19914033D02*
X15645714Y-20034985D01*
X15645714Y-20034985D02*
X15645714Y-20337366D01*
X15645714Y-20337366D02*
X15585237Y-20458318D01*
X15585237Y-20458318D02*
X15524761Y-20518795D01*
X15524761Y-20518795D02*
X15403809Y-20579271D01*
X15403809Y-20579271D02*
X15040952Y-20579271D01*
X15040952Y-20579271D02*
X14919999Y-20518795D01*
X14919999Y-20518795D02*
X14859523Y-20458318D01*
X16129523Y-19430223D02*
X16189999Y-19369747D01*
X16189999Y-19369747D02*
X16310952Y-19309271D01*
X16310952Y-19309271D02*
X16613333Y-19309271D01*
X16613333Y-19309271D02*
X16734285Y-19369747D01*
X16734285Y-19369747D02*
X16794761Y-19430223D01*
X16794761Y-19430223D02*
X16855238Y-19551175D01*
X16855238Y-19551175D02*
X16855238Y-19672128D01*
X16855238Y-19672128D02*
X16794761Y-19853556D01*
X16794761Y-19853556D02*
X16069047Y-20579271D01*
X16069047Y-20579271D02*
X16855238Y-20579271D01*
X17399523Y-20095461D02*
X18367143Y-20095461D01*
X18911428Y-20518795D02*
X19092857Y-20579271D01*
X19092857Y-20579271D02*
X19395238Y-20579271D01*
X19395238Y-20579271D02*
X19516190Y-20518795D01*
X19516190Y-20518795D02*
X19576666Y-20458318D01*
X19576666Y-20458318D02*
X19637143Y-20337366D01*
X19637143Y-20337366D02*
X19637143Y-20216414D01*
X19637143Y-20216414D02*
X19576666Y-20095461D01*
X19576666Y-20095461D02*
X19516190Y-20034985D01*
X19516190Y-20034985D02*
X19395238Y-19974509D01*
X19395238Y-19974509D02*
X19153333Y-19914033D01*
X19153333Y-19914033D02*
X19032381Y-19853556D01*
X19032381Y-19853556D02*
X18971904Y-19793080D01*
X18971904Y-19793080D02*
X18911428Y-19672128D01*
X18911428Y-19672128D02*
X18911428Y-19551175D01*
X18911428Y-19551175D02*
X18971904Y-19430223D01*
X18971904Y-19430223D02*
X19032381Y-19369747D01*
X19032381Y-19369747D02*
X19153333Y-19309271D01*
X19153333Y-19309271D02*
X19455714Y-19309271D01*
X19455714Y-19309271D02*
X19637143Y-19369747D01*
X20060476Y-19309271D02*
X20846667Y-19309271D01*
X20846667Y-19309271D02*
X20423333Y-19793080D01*
X20423333Y-19793080D02*
X20604762Y-19793080D01*
X20604762Y-19793080D02*
X20725714Y-19853556D01*
X20725714Y-19853556D02*
X20786190Y-19914033D01*
X20786190Y-19914033D02*
X20846667Y-20034985D01*
X20846667Y-20034985D02*
X20846667Y-20337366D01*
X20846667Y-20337366D02*
X20786190Y-20458318D01*
X20786190Y-20458318D02*
X20725714Y-20518795D01*
X20725714Y-20518795D02*
X20604762Y-20579271D01*
X20604762Y-20579271D02*
X20241905Y-20579271D01*
X20241905Y-20579271D02*
X20120952Y-20518795D01*
X20120952Y-20518795D02*
X20060476Y-20458318D01*
X22358571Y-20579271D02*
X22358571Y-19732604D01*
X22358571Y-19853556D02*
X22419048Y-19793080D01*
X22419048Y-19793080D02*
X22540000Y-19732604D01*
X22540000Y-19732604D02*
X22721429Y-19732604D01*
X22721429Y-19732604D02*
X22842381Y-19793080D01*
X22842381Y-19793080D02*
X22902857Y-19914033D01*
X22902857Y-19914033D02*
X22902857Y-20579271D01*
X22902857Y-19914033D02*
X22963333Y-19793080D01*
X22963333Y-19793080D02*
X23084286Y-19732604D01*
X23084286Y-19732604D02*
X23265714Y-19732604D01*
X23265714Y-19732604D02*
X23386667Y-19793080D01*
X23386667Y-19793080D02*
X23447143Y-19914033D01*
X23447143Y-19914033D02*
X23447143Y-20579271D01*
X24233333Y-20579271D02*
X24112381Y-20518795D01*
X24112381Y-20518795D02*
X24051904Y-20458318D01*
X24051904Y-20458318D02*
X23991428Y-20337366D01*
X23991428Y-20337366D02*
X23991428Y-19974509D01*
X23991428Y-19974509D02*
X24051904Y-19853556D01*
X24051904Y-19853556D02*
X24112381Y-19793080D01*
X24112381Y-19793080D02*
X24233333Y-19732604D01*
X24233333Y-19732604D02*
X24414762Y-19732604D01*
X24414762Y-19732604D02*
X24535714Y-19793080D01*
X24535714Y-19793080D02*
X24596190Y-19853556D01*
X24596190Y-19853556D02*
X24656666Y-19974509D01*
X24656666Y-19974509D02*
X24656666Y-20337366D01*
X24656666Y-20337366D02*
X24596190Y-20458318D01*
X24596190Y-20458318D02*
X24535714Y-20518795D01*
X24535714Y-20518795D02*
X24414762Y-20579271D01*
X24414762Y-20579271D02*
X24233333Y-20579271D01*
X25745238Y-20579271D02*
X25745238Y-19309271D01*
X25745238Y-20518795D02*
X25624286Y-20579271D01*
X25624286Y-20579271D02*
X25382381Y-20579271D01*
X25382381Y-20579271D02*
X25261429Y-20518795D01*
X25261429Y-20518795D02*
X25200952Y-20458318D01*
X25200952Y-20458318D02*
X25140476Y-20337366D01*
X25140476Y-20337366D02*
X25140476Y-19974509D01*
X25140476Y-19974509D02*
X25200952Y-19853556D01*
X25200952Y-19853556D02*
X25261429Y-19793080D01*
X25261429Y-19793080D02*
X25382381Y-19732604D01*
X25382381Y-19732604D02*
X25624286Y-19732604D01*
X25624286Y-19732604D02*
X25745238Y-19793080D01*
X26894286Y-19732604D02*
X26894286Y-20579271D01*
X26350000Y-19732604D02*
X26350000Y-20397842D01*
X26350000Y-20397842D02*
X26410477Y-20518795D01*
X26410477Y-20518795D02*
X26531429Y-20579271D01*
X26531429Y-20579271D02*
X26712858Y-20579271D01*
X26712858Y-20579271D02*
X26833810Y-20518795D01*
X26833810Y-20518795D02*
X26894286Y-20458318D01*
X27680477Y-20579271D02*
X27559525Y-20518795D01*
X27559525Y-20518795D02*
X27499048Y-20397842D01*
X27499048Y-20397842D02*
X27499048Y-19309271D01*
X28648096Y-20518795D02*
X28527144Y-20579271D01*
X28527144Y-20579271D02*
X28285239Y-20579271D01*
X28285239Y-20579271D02*
X28164286Y-20518795D01*
X28164286Y-20518795D02*
X28103810Y-20397842D01*
X28103810Y-20397842D02*
X28103810Y-19914033D01*
X28103810Y-19914033D02*
X28164286Y-19793080D01*
X28164286Y-19793080D02*
X28285239Y-19732604D01*
X28285239Y-19732604D02*
X28527144Y-19732604D01*
X28527144Y-19732604D02*
X28648096Y-19793080D01*
X28648096Y-19793080D02*
X28708572Y-19914033D01*
X28708572Y-19914033D02*
X28708572Y-20034985D01*
X28708572Y-20034985D02*
X28103810Y-20155937D01*
X67775237Y-35732604D02*
X67775237Y-36579271D01*
X67472856Y-35248795D02*
X67170475Y-36155937D01*
X67170475Y-36155937D02*
X67956666Y-36155937D01*
X68440475Y-36095461D02*
X69408095Y-36095461D01*
X70012856Y-36579271D02*
X70012856Y-35309271D01*
X70012856Y-35793080D02*
X70133809Y-35732604D01*
X70133809Y-35732604D02*
X70375714Y-35732604D01*
X70375714Y-35732604D02*
X70496666Y-35793080D01*
X70496666Y-35793080D02*
X70557142Y-35853556D01*
X70557142Y-35853556D02*
X70617618Y-35974509D01*
X70617618Y-35974509D02*
X70617618Y-36337366D01*
X70617618Y-36337366D02*
X70557142Y-36458318D01*
X70557142Y-36458318D02*
X70496666Y-36518795D01*
X70496666Y-36518795D02*
X70375714Y-36579271D01*
X70375714Y-36579271D02*
X70133809Y-36579271D01*
X70133809Y-36579271D02*
X70012856Y-36518795D01*
X71161904Y-36579271D02*
X71161904Y-35732604D01*
X71161904Y-35309271D02*
X71101428Y-35369747D01*
X71101428Y-35369747D02*
X71161904Y-35430223D01*
X71161904Y-35430223D02*
X71222381Y-35369747D01*
X71222381Y-35369747D02*
X71161904Y-35309271D01*
X71161904Y-35309271D02*
X71161904Y-35430223D01*
X71585238Y-35732604D02*
X72069047Y-35732604D01*
X71766666Y-35309271D02*
X71766666Y-36397842D01*
X71766666Y-36397842D02*
X71827143Y-36518795D01*
X71827143Y-36518795D02*
X71948095Y-36579271D01*
X71948095Y-36579271D02*
X72069047Y-36579271D01*
X73459999Y-36579271D02*
X73459999Y-35309271D01*
X73459999Y-35793080D02*
X73580952Y-35732604D01*
X73580952Y-35732604D02*
X73822857Y-35732604D01*
X73822857Y-35732604D02*
X73943809Y-35793080D01*
X73943809Y-35793080D02*
X74004285Y-35853556D01*
X74004285Y-35853556D02*
X74064761Y-35974509D01*
X74064761Y-35974509D02*
X74064761Y-36337366D01*
X74064761Y-36337366D02*
X74004285Y-36458318D01*
X74004285Y-36458318D02*
X73943809Y-36518795D01*
X73943809Y-36518795D02*
X73822857Y-36579271D01*
X73822857Y-36579271D02*
X73580952Y-36579271D01*
X73580952Y-36579271D02*
X73459999Y-36518795D01*
X74609047Y-36579271D02*
X74609047Y-35732604D01*
X74609047Y-35309271D02*
X74548571Y-35369747D01*
X74548571Y-35369747D02*
X74609047Y-35430223D01*
X74609047Y-35430223D02*
X74669524Y-35369747D01*
X74669524Y-35369747D02*
X74609047Y-35309271D01*
X74609047Y-35309271D02*
X74609047Y-35430223D01*
X75758095Y-36579271D02*
X75758095Y-35309271D01*
X75758095Y-36518795D02*
X75637143Y-36579271D01*
X75637143Y-36579271D02*
X75395238Y-36579271D01*
X75395238Y-36579271D02*
X75274286Y-36518795D01*
X75274286Y-36518795D02*
X75213809Y-36458318D01*
X75213809Y-36458318D02*
X75153333Y-36337366D01*
X75153333Y-36337366D02*
X75153333Y-35974509D01*
X75153333Y-35974509D02*
X75213809Y-35853556D01*
X75213809Y-35853556D02*
X75274286Y-35793080D01*
X75274286Y-35793080D02*
X75395238Y-35732604D01*
X75395238Y-35732604D02*
X75637143Y-35732604D01*
X75637143Y-35732604D02*
X75758095Y-35793080D01*
X76362857Y-36579271D02*
X76362857Y-35732604D01*
X76362857Y-35309271D02*
X76302381Y-35369747D01*
X76302381Y-35369747D02*
X76362857Y-35430223D01*
X76362857Y-35430223D02*
X76423334Y-35369747D01*
X76423334Y-35369747D02*
X76362857Y-35309271D01*
X76362857Y-35309271D02*
X76362857Y-35430223D01*
X76967619Y-36579271D02*
X76967619Y-35732604D01*
X76967619Y-35974509D02*
X77028096Y-35853556D01*
X77028096Y-35853556D02*
X77088572Y-35793080D01*
X77088572Y-35793080D02*
X77209524Y-35732604D01*
X77209524Y-35732604D02*
X77330477Y-35732604D01*
X78237619Y-36518795D02*
X78116667Y-36579271D01*
X78116667Y-36579271D02*
X77874762Y-36579271D01*
X77874762Y-36579271D02*
X77753809Y-36518795D01*
X77753809Y-36518795D02*
X77693333Y-36397842D01*
X77693333Y-36397842D02*
X77693333Y-35914033D01*
X77693333Y-35914033D02*
X77753809Y-35793080D01*
X77753809Y-35793080D02*
X77874762Y-35732604D01*
X77874762Y-35732604D02*
X78116667Y-35732604D01*
X78116667Y-35732604D02*
X78237619Y-35793080D01*
X78237619Y-35793080D02*
X78298095Y-35914033D01*
X78298095Y-35914033D02*
X78298095Y-36034985D01*
X78298095Y-36034985D02*
X77693333Y-36155937D01*
X79386666Y-36518795D02*
X79265714Y-36579271D01*
X79265714Y-36579271D02*
X79023809Y-36579271D01*
X79023809Y-36579271D02*
X78902857Y-36518795D01*
X78902857Y-36518795D02*
X78842380Y-36458318D01*
X78842380Y-36458318D02*
X78781904Y-36337366D01*
X78781904Y-36337366D02*
X78781904Y-35974509D01*
X78781904Y-35974509D02*
X78842380Y-35853556D01*
X78842380Y-35853556D02*
X78902857Y-35793080D01*
X78902857Y-35793080D02*
X79023809Y-35732604D01*
X79023809Y-35732604D02*
X79265714Y-35732604D01*
X79265714Y-35732604D02*
X79386666Y-35793080D01*
X79749523Y-35732604D02*
X80233332Y-35732604D01*
X79930951Y-35309271D02*
X79930951Y-36397842D01*
X79930951Y-36397842D02*
X79991428Y-36518795D01*
X79991428Y-36518795D02*
X80112380Y-36579271D01*
X80112380Y-36579271D02*
X80233332Y-36579271D01*
X80656665Y-36579271D02*
X80656665Y-35732604D01*
X80656665Y-35309271D02*
X80596189Y-35369747D01*
X80596189Y-35369747D02*
X80656665Y-35430223D01*
X80656665Y-35430223D02*
X80717142Y-35369747D01*
X80717142Y-35369747D02*
X80656665Y-35309271D01*
X80656665Y-35309271D02*
X80656665Y-35430223D01*
X81442856Y-36579271D02*
X81321904Y-36518795D01*
X81321904Y-36518795D02*
X81261427Y-36458318D01*
X81261427Y-36458318D02*
X81200951Y-36337366D01*
X81200951Y-36337366D02*
X81200951Y-35974509D01*
X81200951Y-35974509D02*
X81261427Y-35853556D01*
X81261427Y-35853556D02*
X81321904Y-35793080D01*
X81321904Y-35793080D02*
X81442856Y-35732604D01*
X81442856Y-35732604D02*
X81624285Y-35732604D01*
X81624285Y-35732604D02*
X81745237Y-35793080D01*
X81745237Y-35793080D02*
X81805713Y-35853556D01*
X81805713Y-35853556D02*
X81866189Y-35974509D01*
X81866189Y-35974509D02*
X81866189Y-36337366D01*
X81866189Y-36337366D02*
X81805713Y-36458318D01*
X81805713Y-36458318D02*
X81745237Y-36518795D01*
X81745237Y-36518795D02*
X81624285Y-36579271D01*
X81624285Y-36579271D02*
X81442856Y-36579271D01*
X82410475Y-35732604D02*
X82410475Y-36579271D01*
X82410475Y-35853556D02*
X82470952Y-35793080D01*
X82470952Y-35793080D02*
X82591904Y-35732604D01*
X82591904Y-35732604D02*
X82773333Y-35732604D01*
X82773333Y-35732604D02*
X82894285Y-35793080D01*
X82894285Y-35793080D02*
X82954761Y-35914033D01*
X82954761Y-35914033D02*
X82954761Y-36579271D01*
X84103809Y-36579271D02*
X84103809Y-35914033D01*
X84103809Y-35914033D02*
X84043333Y-35793080D01*
X84043333Y-35793080D02*
X83922381Y-35732604D01*
X83922381Y-35732604D02*
X83680476Y-35732604D01*
X83680476Y-35732604D02*
X83559523Y-35793080D01*
X84103809Y-36518795D02*
X83982857Y-36579271D01*
X83982857Y-36579271D02*
X83680476Y-36579271D01*
X83680476Y-36579271D02*
X83559523Y-36518795D01*
X83559523Y-36518795D02*
X83499047Y-36397842D01*
X83499047Y-36397842D02*
X83499047Y-36276890D01*
X83499047Y-36276890D02*
X83559523Y-36155937D01*
X83559523Y-36155937D02*
X83680476Y-36095461D01*
X83680476Y-36095461D02*
X83982857Y-36095461D01*
X83982857Y-36095461D02*
X84103809Y-36034985D01*
X84890000Y-36579271D02*
X84769048Y-36518795D01*
X84769048Y-36518795D02*
X84708571Y-36397842D01*
X84708571Y-36397842D02*
X84708571Y-35309271D01*
M02*
