%TF.GenerationSoftware,KiCad,Pcbnew,10.0.3*%
%TF.CreationDate,2026-05-23T07:34:33+02:00*%
%TF.ProjectId,esp32_s3_dwm3000_uwb_anchor_with_relay_outputs,65737033-325f-4733-935f-64776d333030,rev?*%
%TF.SameCoordinates,Original*%
%TF.FileFunction,Copper,L1,Top*%
%TF.FilePolarity,Positive*%
%FSLAX46Y46*%
G04 Gerber Fmt 4.6, Leading zero omitted, Abs format (unit mm)*
G04 Created by KiCad (PCBNEW 10.0.3) date 2026-05-23 07:34:33*
%MOMM*%
%LPD*%
G01*
G04 APERTURE LIST*
%TA.AperFunction,SMDPad,CuDef*%
%ADD10R,0.550000X1.200000*%
%TD*%
%TA.AperFunction,SMDPad,CuDef*%
%ADD11R,0.900000X0.800000*%
%TD*%
%TA.AperFunction,SMDPad,CuDef*%
%ADD12R,0.650000X1.400000*%
%TD*%
G04 APERTURE END LIST*
D10*
%TO.P,U6,1*%
%TO.N,N/C*%
X35800000Y-17025000D03*
%TO.P,U6,2*%
X35800000Y-17675000D03*
%TO.P,U6,3*%
X35800000Y-18325000D03*
%TO.P,U6,4*%
X35800000Y-18975000D03*
%TO.P,U6,5*%
X40200000Y-17025000D03*
%TO.P,U6,6*%
X40200000Y-17675000D03*
%TO.P,U6,7*%
X40200000Y-18325000D03*
%TO.P,U6,8*%
X40200000Y-18975000D03*
%TD*%
D11*
%TO.P,OK1-OK2,1*%
%TO.N,N/C*%
X65200000Y-66000000D03*
%TO.P,OK1-OK2,2*%
X66800000Y-66000000D03*
%TD*%
D12*
%TO.P,U2,1*%
%TO.N,N/C*%
X81000000Y-18500000D03*
%TO.P,U2,2*%
X81000000Y-19500000D03*
%TO.P,U2,3*%
X81000000Y-20500000D03*
%TO.P,U2,4*%
X81000000Y-21500000D03*
%TO.P,U2,5*%
X81000000Y-22500000D03*
%TO.P,U2,6*%
X81000000Y-23500000D03*
%TO.P,U2,7*%
X81000000Y-24500000D03*
%TO.P,U2,8*%
X81000000Y-25500000D03*
%TO.P,U2,9*%
X81000000Y-26500000D03*
%TO.P,U2,10*%
X81000000Y-27500000D03*
%TO.P,U2,11*%
X81000000Y-28500000D03*
%TO.P,U2,12*%
X81000000Y-29500000D03*
%TO.P,U2,13*%
X95000000Y-18500000D03*
%TO.P,U2,14*%
X95000000Y-19500000D03*
%TO.P,U2,15*%
X95000000Y-20500000D03*
%TO.P,U2,16*%
X95000000Y-21500000D03*
%TO.P,U2,17*%
X95000000Y-22500000D03*
%TO.P,U2,18*%
X95000000Y-23500000D03*
%TO.P,U2,19*%
X95000000Y-24500000D03*
%TO.P,U2,20*%
X95000000Y-25500000D03*
%TO.P,U2,21*%
X95000000Y-26500000D03*
%TO.P,U2,22*%
X95000000Y-27500000D03*
%TO.P,U2,23*%
%TO.N,UWB_RF_50R*%
X95000000Y-28500000D03*
%TO.P,U2,24*%
%TO.N,N/C*%
X95000000Y-29500000D03*
%TD*%
D10*
%TO.P,U1,1*%
%TO.N,N/C*%
X17800000Y-19025000D03*
%TO.P,U1,2*%
X17800000Y-19675000D03*
%TO.P,U1,3*%
X17800000Y-20325000D03*
%TO.P,U1,4*%
X17800000Y-20975000D03*
%TO.P,U1,5*%
X22200000Y-19025000D03*
%TO.P,U1,6*%
X22200000Y-19675000D03*
%TO.P,U1,7*%
X22200000Y-20325000D03*
%TO.P,U1,8*%
X22200000Y-20975000D03*
%TD*%
%TO.P,U3,1*%
%TO.N,N/C*%
X73800000Y-35025000D03*
%TO.P,U3,2*%
X73800000Y-35675000D03*
%TO.P,U3,3*%
X73800000Y-36325000D03*
%TO.P,U3,4*%
X73800000Y-36975000D03*
%TO.P,U3,5*%
X78200000Y-35025000D03*
%TO.P,U3,6*%
X78200000Y-35675000D03*
%TO.P,U3,7*%
X78200000Y-36325000D03*
%TO.P,U3,8*%
X78200000Y-36975000D03*
%TD*%
M02*
