%TF.GenerationSoftware,KiCad,Pcbnew,10.0.3*%
%TF.CreationDate,2026-05-26T20:18:00+02:00*%
%TF.ProjectId,esp32_s3_dwm3000_uwb_anchor_with_relay_outputs,65737033-325f-4733-935f-64776d333030,rev?*%
%TF.SameCoordinates,Original*%
%TF.FileFunction,Legend,Top*%
%TF.FilePolarity,Positive*%
%FSLAX46Y46*%
G04 Gerber Fmt 4.6, Leading zero omitted, Abs format (unit mm)*
G04 Created by KiCad (PCBNEW 10.0.3) date 2026-05-26 20:18:00*
%MOMM*%
%LPD*%
G01*
G04 APERTURE LIST*
%ADD10C,0.150000*%
%ADD11C,0.158750*%
%ADD12C,0.120000*%
G04 APERTURE END LIST*
D10*
X117238095Y-26904819D02*
X117238095Y-27714342D01*
X117238095Y-27714342D02*
X117285714Y-27809580D01*
X117285714Y-27809580D02*
X117333333Y-27857200D01*
X117333333Y-27857200D02*
X117428571Y-27904819D01*
X117428571Y-27904819D02*
X117619047Y-27904819D01*
X117619047Y-27904819D02*
X117714285Y-27857200D01*
X117714285Y-27857200D02*
X117761904Y-27809580D01*
X117761904Y-27809580D02*
X117809523Y-27714342D01*
X117809523Y-27714342D02*
X117809523Y-26904819D01*
X118190476Y-26904819D02*
X118809523Y-26904819D01*
X118809523Y-26904819D02*
X118476190Y-27285771D01*
X118476190Y-27285771D02*
X118619047Y-27285771D01*
X118619047Y-27285771D02*
X118714285Y-27333390D01*
X118714285Y-27333390D02*
X118761904Y-27381009D01*
X118761904Y-27381009D02*
X118809523Y-27476247D01*
X118809523Y-27476247D02*
X118809523Y-27714342D01*
X118809523Y-27714342D02*
X118761904Y-27809580D01*
X118761904Y-27809580D02*
X118714285Y-27857200D01*
X118714285Y-27857200D02*
X118619047Y-27904819D01*
X118619047Y-27904819D02*
X118333333Y-27904819D01*
X118333333Y-27904819D02*
X118238095Y-27857200D01*
X118238095Y-27857200D02*
X118190476Y-27809580D01*
X89357142Y-91024819D02*
X89023809Y-90548628D01*
X88785714Y-91024819D02*
X88785714Y-90024819D01*
X88785714Y-90024819D02*
X89166666Y-90024819D01*
X89166666Y-90024819D02*
X89261904Y-90072438D01*
X89261904Y-90072438D02*
X89309523Y-90120057D01*
X89309523Y-90120057D02*
X89357142Y-90215295D01*
X89357142Y-90215295D02*
X89357142Y-90358152D01*
X89357142Y-90358152D02*
X89309523Y-90453390D01*
X89309523Y-90453390D02*
X89261904Y-90501009D01*
X89261904Y-90501009D02*
X89166666Y-90548628D01*
X89166666Y-90548628D02*
X88785714Y-90548628D01*
X89738095Y-90120057D02*
X89785714Y-90072438D01*
X89785714Y-90072438D02*
X89880952Y-90024819D01*
X89880952Y-90024819D02*
X90119047Y-90024819D01*
X90119047Y-90024819D02*
X90214285Y-90072438D01*
X90214285Y-90072438D02*
X90261904Y-90120057D01*
X90261904Y-90120057D02*
X90309523Y-90215295D01*
X90309523Y-90215295D02*
X90309523Y-90310533D01*
X90309523Y-90310533D02*
X90261904Y-90453390D01*
X90261904Y-90453390D02*
X89690476Y-91024819D01*
X89690476Y-91024819D02*
X90309523Y-91024819D01*
X90642857Y-90024819D02*
X91309523Y-90024819D01*
X91309523Y-90024819D02*
X90880952Y-91024819D01*
X101357142Y-95024819D02*
X101023809Y-94548628D01*
X100785714Y-95024819D02*
X100785714Y-94024819D01*
X100785714Y-94024819D02*
X101166666Y-94024819D01*
X101166666Y-94024819D02*
X101261904Y-94072438D01*
X101261904Y-94072438D02*
X101309523Y-94120057D01*
X101309523Y-94120057D02*
X101357142Y-94215295D01*
X101357142Y-94215295D02*
X101357142Y-94358152D01*
X101357142Y-94358152D02*
X101309523Y-94453390D01*
X101309523Y-94453390D02*
X101261904Y-94501009D01*
X101261904Y-94501009D02*
X101166666Y-94548628D01*
X101166666Y-94548628D02*
X100785714Y-94548628D01*
X101690476Y-94024819D02*
X102309523Y-94024819D01*
X102309523Y-94024819D02*
X101976190Y-94405771D01*
X101976190Y-94405771D02*
X102119047Y-94405771D01*
X102119047Y-94405771D02*
X102214285Y-94453390D01*
X102214285Y-94453390D02*
X102261904Y-94501009D01*
X102261904Y-94501009D02*
X102309523Y-94596247D01*
X102309523Y-94596247D02*
X102309523Y-94834342D01*
X102309523Y-94834342D02*
X102261904Y-94929580D01*
X102261904Y-94929580D02*
X102214285Y-94977200D01*
X102214285Y-94977200D02*
X102119047Y-95024819D01*
X102119047Y-95024819D02*
X101833333Y-95024819D01*
X101833333Y-95024819D02*
X101738095Y-94977200D01*
X101738095Y-94977200D02*
X101690476Y-94929580D01*
X103166666Y-94358152D02*
X103166666Y-95024819D01*
X102928571Y-93977200D02*
X102690476Y-94691485D01*
X102690476Y-94691485D02*
X103309523Y-94691485D01*
X33988095Y-43704819D02*
X33988095Y-42704819D01*
X33988095Y-42704819D02*
X34321428Y-43419104D01*
X34321428Y-43419104D02*
X34654761Y-42704819D01*
X34654761Y-42704819D02*
X34654761Y-43704819D01*
X35321428Y-42704819D02*
X35511904Y-42704819D01*
X35511904Y-42704819D02*
X35607142Y-42752438D01*
X35607142Y-42752438D02*
X35702380Y-42847676D01*
X35702380Y-42847676D02*
X35749999Y-43038152D01*
X35749999Y-43038152D02*
X35749999Y-43371485D01*
X35749999Y-43371485D02*
X35702380Y-43561961D01*
X35702380Y-43561961D02*
X35607142Y-43657200D01*
X35607142Y-43657200D02*
X35511904Y-43704819D01*
X35511904Y-43704819D02*
X35321428Y-43704819D01*
X35321428Y-43704819D02*
X35226190Y-43657200D01*
X35226190Y-43657200D02*
X35130952Y-43561961D01*
X35130952Y-43561961D02*
X35083333Y-43371485D01*
X35083333Y-43371485D02*
X35083333Y-43038152D01*
X35083333Y-43038152D02*
X35130952Y-42847676D01*
X35130952Y-42847676D02*
X35226190Y-42752438D01*
X35226190Y-42752438D02*
X35321428Y-42704819D01*
X36035714Y-42704819D02*
X36369047Y-43704819D01*
X36369047Y-43704819D02*
X36702380Y-42704819D01*
X37559523Y-43704819D02*
X36988095Y-43704819D01*
X37273809Y-43704819D02*
X37273809Y-42704819D01*
X37273809Y-42704819D02*
X37178571Y-42847676D01*
X37178571Y-42847676D02*
X37083333Y-42942914D01*
X37083333Y-42942914D02*
X36988095Y-42990533D01*
X95357142Y-76654819D02*
X95023809Y-76178628D01*
X94785714Y-76654819D02*
X94785714Y-75654819D01*
X94785714Y-75654819D02*
X95166666Y-75654819D01*
X95166666Y-75654819D02*
X95261904Y-75702438D01*
X95261904Y-75702438D02*
X95309523Y-75750057D01*
X95309523Y-75750057D02*
X95357142Y-75845295D01*
X95357142Y-75845295D02*
X95357142Y-75988152D01*
X95357142Y-75988152D02*
X95309523Y-76083390D01*
X95309523Y-76083390D02*
X95261904Y-76131009D01*
X95261904Y-76131009D02*
X95166666Y-76178628D01*
X95166666Y-76178628D02*
X94785714Y-76178628D01*
X96309523Y-76654819D02*
X95738095Y-76654819D01*
X96023809Y-76654819D02*
X96023809Y-75654819D01*
X96023809Y-75654819D02*
X95928571Y-75797676D01*
X95928571Y-75797676D02*
X95833333Y-75892914D01*
X95833333Y-75892914D02*
X95738095Y-75940533D01*
X96642857Y-75654819D02*
X97261904Y-75654819D01*
X97261904Y-75654819D02*
X96928571Y-76035771D01*
X96928571Y-76035771D02*
X97071428Y-76035771D01*
X97071428Y-76035771D02*
X97166666Y-76083390D01*
X97166666Y-76083390D02*
X97214285Y-76131009D01*
X97214285Y-76131009D02*
X97261904Y-76226247D01*
X97261904Y-76226247D02*
X97261904Y-76464342D01*
X97261904Y-76464342D02*
X97214285Y-76559580D01*
X97214285Y-76559580D02*
X97166666Y-76607200D01*
X97166666Y-76607200D02*
X97071428Y-76654819D01*
X97071428Y-76654819D02*
X96785714Y-76654819D01*
X96785714Y-76654819D02*
X96690476Y-76607200D01*
X96690476Y-76607200D02*
X96642857Y-76559580D01*
X19666666Y-10101009D02*
X19333333Y-10101009D01*
X19333333Y-10624819D02*
X19333333Y-9624819D01*
X19333333Y-9624819D02*
X19809523Y-9624819D01*
X20714285Y-10624819D02*
X20142857Y-10624819D01*
X20428571Y-10624819D02*
X20428571Y-9624819D01*
X20428571Y-9624819D02*
X20333333Y-9767676D01*
X20333333Y-9767676D02*
X20238095Y-9862914D01*
X20238095Y-9862914D02*
X20142857Y-9910533D01*
X72880952Y-18929580D02*
X72833333Y-18977200D01*
X72833333Y-18977200D02*
X72690476Y-19024819D01*
X72690476Y-19024819D02*
X72595238Y-19024819D01*
X72595238Y-19024819D02*
X72452381Y-18977200D01*
X72452381Y-18977200D02*
X72357143Y-18881961D01*
X72357143Y-18881961D02*
X72309524Y-18786723D01*
X72309524Y-18786723D02*
X72261905Y-18596247D01*
X72261905Y-18596247D02*
X72261905Y-18453390D01*
X72261905Y-18453390D02*
X72309524Y-18262914D01*
X72309524Y-18262914D02*
X72357143Y-18167676D01*
X72357143Y-18167676D02*
X72452381Y-18072438D01*
X72452381Y-18072438D02*
X72595238Y-18024819D01*
X72595238Y-18024819D02*
X72690476Y-18024819D01*
X72690476Y-18024819D02*
X72833333Y-18072438D01*
X72833333Y-18072438D02*
X72880952Y-18120057D01*
X73833333Y-19024819D02*
X73261905Y-19024819D01*
X73547619Y-19024819D02*
X73547619Y-18024819D01*
X73547619Y-18024819D02*
X73452381Y-18167676D01*
X73452381Y-18167676D02*
X73357143Y-18262914D01*
X73357143Y-18262914D02*
X73261905Y-18310533D01*
X74452381Y-18024819D02*
X74547619Y-18024819D01*
X74547619Y-18024819D02*
X74642857Y-18072438D01*
X74642857Y-18072438D02*
X74690476Y-18120057D01*
X74690476Y-18120057D02*
X74738095Y-18215295D01*
X74738095Y-18215295D02*
X74785714Y-18405771D01*
X74785714Y-18405771D02*
X74785714Y-18643866D01*
X74785714Y-18643866D02*
X74738095Y-18834342D01*
X74738095Y-18834342D02*
X74690476Y-18929580D01*
X74690476Y-18929580D02*
X74642857Y-18977200D01*
X74642857Y-18977200D02*
X74547619Y-19024819D01*
X74547619Y-19024819D02*
X74452381Y-19024819D01*
X74452381Y-19024819D02*
X74357143Y-18977200D01*
X74357143Y-18977200D02*
X74309524Y-18929580D01*
X74309524Y-18929580D02*
X74261905Y-18834342D01*
X74261905Y-18834342D02*
X74214286Y-18643866D01*
X74214286Y-18643866D02*
X74214286Y-18405771D01*
X74214286Y-18405771D02*
X74261905Y-18215295D01*
X74261905Y-18215295D02*
X74309524Y-18120057D01*
X74309524Y-18120057D02*
X74357143Y-18072438D01*
X74357143Y-18072438D02*
X74452381Y-18024819D01*
X75404762Y-18024819D02*
X75500000Y-18024819D01*
X75500000Y-18024819D02*
X75595238Y-18072438D01*
X75595238Y-18072438D02*
X75642857Y-18120057D01*
X75642857Y-18120057D02*
X75690476Y-18215295D01*
X75690476Y-18215295D02*
X75738095Y-18405771D01*
X75738095Y-18405771D02*
X75738095Y-18643866D01*
X75738095Y-18643866D02*
X75690476Y-18834342D01*
X75690476Y-18834342D02*
X75642857Y-18929580D01*
X75642857Y-18929580D02*
X75595238Y-18977200D01*
X75595238Y-18977200D02*
X75500000Y-19024819D01*
X75500000Y-19024819D02*
X75404762Y-19024819D01*
X75404762Y-19024819D02*
X75309524Y-18977200D01*
X75309524Y-18977200D02*
X75261905Y-18929580D01*
X75261905Y-18929580D02*
X75214286Y-18834342D01*
X75214286Y-18834342D02*
X75166667Y-18643866D01*
X75166667Y-18643866D02*
X75166667Y-18405771D01*
X75166667Y-18405771D02*
X75214286Y-18215295D01*
X75214286Y-18215295D02*
X75261905Y-18120057D01*
X75261905Y-18120057D02*
X75309524Y-18072438D01*
X75309524Y-18072438D02*
X75404762Y-18024819D01*
X47357142Y-87024819D02*
X47023809Y-86548628D01*
X46785714Y-87024819D02*
X46785714Y-86024819D01*
X46785714Y-86024819D02*
X47166666Y-86024819D01*
X47166666Y-86024819D02*
X47261904Y-86072438D01*
X47261904Y-86072438D02*
X47309523Y-86120057D01*
X47309523Y-86120057D02*
X47357142Y-86215295D01*
X47357142Y-86215295D02*
X47357142Y-86358152D01*
X47357142Y-86358152D02*
X47309523Y-86453390D01*
X47309523Y-86453390D02*
X47261904Y-86501009D01*
X47261904Y-86501009D02*
X47166666Y-86548628D01*
X47166666Y-86548628D02*
X46785714Y-86548628D01*
X47738095Y-86120057D02*
X47785714Y-86072438D01*
X47785714Y-86072438D02*
X47880952Y-86024819D01*
X47880952Y-86024819D02*
X48119047Y-86024819D01*
X48119047Y-86024819D02*
X48214285Y-86072438D01*
X48214285Y-86072438D02*
X48261904Y-86120057D01*
X48261904Y-86120057D02*
X48309523Y-86215295D01*
X48309523Y-86215295D02*
X48309523Y-86310533D01*
X48309523Y-86310533D02*
X48261904Y-86453390D01*
X48261904Y-86453390D02*
X47690476Y-87024819D01*
X47690476Y-87024819D02*
X48309523Y-87024819D01*
X49214285Y-86024819D02*
X48738095Y-86024819D01*
X48738095Y-86024819D02*
X48690476Y-86501009D01*
X48690476Y-86501009D02*
X48738095Y-86453390D01*
X48738095Y-86453390D02*
X48833333Y-86405771D01*
X48833333Y-86405771D02*
X49071428Y-86405771D01*
X49071428Y-86405771D02*
X49166666Y-86453390D01*
X49166666Y-86453390D02*
X49214285Y-86501009D01*
X49214285Y-86501009D02*
X49261904Y-86596247D01*
X49261904Y-86596247D02*
X49261904Y-86834342D01*
X49261904Y-86834342D02*
X49214285Y-86929580D01*
X49214285Y-86929580D02*
X49166666Y-86977200D01*
X49166666Y-86977200D02*
X49071428Y-87024819D01*
X49071428Y-87024819D02*
X48833333Y-87024819D01*
X48833333Y-87024819D02*
X48738095Y-86977200D01*
X48738095Y-86977200D02*
X48690476Y-86929580D01*
X80880952Y-16929580D02*
X80833333Y-16977200D01*
X80833333Y-16977200D02*
X80690476Y-17024819D01*
X80690476Y-17024819D02*
X80595238Y-17024819D01*
X80595238Y-17024819D02*
X80452381Y-16977200D01*
X80452381Y-16977200D02*
X80357143Y-16881961D01*
X80357143Y-16881961D02*
X80309524Y-16786723D01*
X80309524Y-16786723D02*
X80261905Y-16596247D01*
X80261905Y-16596247D02*
X80261905Y-16453390D01*
X80261905Y-16453390D02*
X80309524Y-16262914D01*
X80309524Y-16262914D02*
X80357143Y-16167676D01*
X80357143Y-16167676D02*
X80452381Y-16072438D01*
X80452381Y-16072438D02*
X80595238Y-16024819D01*
X80595238Y-16024819D02*
X80690476Y-16024819D01*
X80690476Y-16024819D02*
X80833333Y-16072438D01*
X80833333Y-16072438D02*
X80880952Y-16120057D01*
X81833333Y-17024819D02*
X81261905Y-17024819D01*
X81547619Y-17024819D02*
X81547619Y-16024819D01*
X81547619Y-16024819D02*
X81452381Y-16167676D01*
X81452381Y-16167676D02*
X81357143Y-16262914D01*
X81357143Y-16262914D02*
X81261905Y-16310533D01*
X82452381Y-16024819D02*
X82547619Y-16024819D01*
X82547619Y-16024819D02*
X82642857Y-16072438D01*
X82642857Y-16072438D02*
X82690476Y-16120057D01*
X82690476Y-16120057D02*
X82738095Y-16215295D01*
X82738095Y-16215295D02*
X82785714Y-16405771D01*
X82785714Y-16405771D02*
X82785714Y-16643866D01*
X82785714Y-16643866D02*
X82738095Y-16834342D01*
X82738095Y-16834342D02*
X82690476Y-16929580D01*
X82690476Y-16929580D02*
X82642857Y-16977200D01*
X82642857Y-16977200D02*
X82547619Y-17024819D01*
X82547619Y-17024819D02*
X82452381Y-17024819D01*
X82452381Y-17024819D02*
X82357143Y-16977200D01*
X82357143Y-16977200D02*
X82309524Y-16929580D01*
X82309524Y-16929580D02*
X82261905Y-16834342D01*
X82261905Y-16834342D02*
X82214286Y-16643866D01*
X82214286Y-16643866D02*
X82214286Y-16405771D01*
X82214286Y-16405771D02*
X82261905Y-16215295D01*
X82261905Y-16215295D02*
X82309524Y-16120057D01*
X82309524Y-16120057D02*
X82357143Y-16072438D01*
X82357143Y-16072438D02*
X82452381Y-16024819D01*
X83738095Y-17024819D02*
X83166667Y-17024819D01*
X83452381Y-17024819D02*
X83452381Y-16024819D01*
X83452381Y-16024819D02*
X83357143Y-16167676D01*
X83357143Y-16167676D02*
X83261905Y-16262914D01*
X83261905Y-16262914D02*
X83166667Y-16310533D01*
X61357142Y-87024819D02*
X61023809Y-86548628D01*
X60785714Y-87024819D02*
X60785714Y-86024819D01*
X60785714Y-86024819D02*
X61166666Y-86024819D01*
X61166666Y-86024819D02*
X61261904Y-86072438D01*
X61261904Y-86072438D02*
X61309523Y-86120057D01*
X61309523Y-86120057D02*
X61357142Y-86215295D01*
X61357142Y-86215295D02*
X61357142Y-86358152D01*
X61357142Y-86358152D02*
X61309523Y-86453390D01*
X61309523Y-86453390D02*
X61261904Y-86501009D01*
X61261904Y-86501009D02*
X61166666Y-86548628D01*
X61166666Y-86548628D02*
X60785714Y-86548628D01*
X61738095Y-86120057D02*
X61785714Y-86072438D01*
X61785714Y-86072438D02*
X61880952Y-86024819D01*
X61880952Y-86024819D02*
X62119047Y-86024819D01*
X62119047Y-86024819D02*
X62214285Y-86072438D01*
X62214285Y-86072438D02*
X62261904Y-86120057D01*
X62261904Y-86120057D02*
X62309523Y-86215295D01*
X62309523Y-86215295D02*
X62309523Y-86310533D01*
X62309523Y-86310533D02*
X62261904Y-86453390D01*
X62261904Y-86453390D02*
X61690476Y-87024819D01*
X61690476Y-87024819D02*
X62309523Y-87024819D01*
X63166666Y-86024819D02*
X62976190Y-86024819D01*
X62976190Y-86024819D02*
X62880952Y-86072438D01*
X62880952Y-86072438D02*
X62833333Y-86120057D01*
X62833333Y-86120057D02*
X62738095Y-86262914D01*
X62738095Y-86262914D02*
X62690476Y-86453390D01*
X62690476Y-86453390D02*
X62690476Y-86834342D01*
X62690476Y-86834342D02*
X62738095Y-86929580D01*
X62738095Y-86929580D02*
X62785714Y-86977200D01*
X62785714Y-86977200D02*
X62880952Y-87024819D01*
X62880952Y-87024819D02*
X63071428Y-87024819D01*
X63071428Y-87024819D02*
X63166666Y-86977200D01*
X63166666Y-86977200D02*
X63214285Y-86929580D01*
X63214285Y-86929580D02*
X63261904Y-86834342D01*
X63261904Y-86834342D02*
X63261904Y-86596247D01*
X63261904Y-86596247D02*
X63214285Y-86501009D01*
X63214285Y-86501009D02*
X63166666Y-86453390D01*
X63166666Y-86453390D02*
X63071428Y-86405771D01*
X63071428Y-86405771D02*
X62880952Y-86405771D01*
X62880952Y-86405771D02*
X62785714Y-86453390D01*
X62785714Y-86453390D02*
X62738095Y-86501009D01*
X62738095Y-86501009D02*
X62690476Y-86596247D01*
X47357142Y-95024819D02*
X47023809Y-94548628D01*
X46785714Y-95024819D02*
X46785714Y-94024819D01*
X46785714Y-94024819D02*
X47166666Y-94024819D01*
X47166666Y-94024819D02*
X47261904Y-94072438D01*
X47261904Y-94072438D02*
X47309523Y-94120057D01*
X47309523Y-94120057D02*
X47357142Y-94215295D01*
X47357142Y-94215295D02*
X47357142Y-94358152D01*
X47357142Y-94358152D02*
X47309523Y-94453390D01*
X47309523Y-94453390D02*
X47261904Y-94501009D01*
X47261904Y-94501009D02*
X47166666Y-94548628D01*
X47166666Y-94548628D02*
X46785714Y-94548628D01*
X48309523Y-95024819D02*
X47738095Y-95024819D01*
X48023809Y-95024819D02*
X48023809Y-94024819D01*
X48023809Y-94024819D02*
X47928571Y-94167676D01*
X47928571Y-94167676D02*
X47833333Y-94262914D01*
X47833333Y-94262914D02*
X47738095Y-94310533D01*
X48642857Y-94024819D02*
X49309523Y-94024819D01*
X49309523Y-94024819D02*
X48880952Y-95024819D01*
X67357142Y-6929580D02*
X67309523Y-6977200D01*
X67309523Y-6977200D02*
X67166666Y-7024819D01*
X67166666Y-7024819D02*
X67071428Y-7024819D01*
X67071428Y-7024819D02*
X66928571Y-6977200D01*
X66928571Y-6977200D02*
X66833333Y-6881961D01*
X66833333Y-6881961D02*
X66785714Y-6786723D01*
X66785714Y-6786723D02*
X66738095Y-6596247D01*
X66738095Y-6596247D02*
X66738095Y-6453390D01*
X66738095Y-6453390D02*
X66785714Y-6262914D01*
X66785714Y-6262914D02*
X66833333Y-6167676D01*
X66833333Y-6167676D02*
X66928571Y-6072438D01*
X66928571Y-6072438D02*
X67071428Y-6024819D01*
X67071428Y-6024819D02*
X67166666Y-6024819D01*
X67166666Y-6024819D02*
X67309523Y-6072438D01*
X67309523Y-6072438D02*
X67357142Y-6120057D01*
X67833333Y-7024819D02*
X68023809Y-7024819D01*
X68023809Y-7024819D02*
X68119047Y-6977200D01*
X68119047Y-6977200D02*
X68166666Y-6929580D01*
X68166666Y-6929580D02*
X68261904Y-6786723D01*
X68261904Y-6786723D02*
X68309523Y-6596247D01*
X68309523Y-6596247D02*
X68309523Y-6215295D01*
X68309523Y-6215295D02*
X68261904Y-6120057D01*
X68261904Y-6120057D02*
X68214285Y-6072438D01*
X68214285Y-6072438D02*
X68119047Y-6024819D01*
X68119047Y-6024819D02*
X67928571Y-6024819D01*
X67928571Y-6024819D02*
X67833333Y-6072438D01*
X67833333Y-6072438D02*
X67785714Y-6120057D01*
X67785714Y-6120057D02*
X67738095Y-6215295D01*
X67738095Y-6215295D02*
X67738095Y-6453390D01*
X67738095Y-6453390D02*
X67785714Y-6548628D01*
X67785714Y-6548628D02*
X67833333Y-6596247D01*
X67833333Y-6596247D02*
X67928571Y-6643866D01*
X67928571Y-6643866D02*
X68119047Y-6643866D01*
X68119047Y-6643866D02*
X68214285Y-6596247D01*
X68214285Y-6596247D02*
X68261904Y-6548628D01*
X68261904Y-6548628D02*
X68309523Y-6453390D01*
X68785714Y-7024819D02*
X68976190Y-7024819D01*
X68976190Y-7024819D02*
X69071428Y-6977200D01*
X69071428Y-6977200D02*
X69119047Y-6929580D01*
X69119047Y-6929580D02*
X69214285Y-6786723D01*
X69214285Y-6786723D02*
X69261904Y-6596247D01*
X69261904Y-6596247D02*
X69261904Y-6215295D01*
X69261904Y-6215295D02*
X69214285Y-6120057D01*
X69214285Y-6120057D02*
X69166666Y-6072438D01*
X69166666Y-6072438D02*
X69071428Y-6024819D01*
X69071428Y-6024819D02*
X68880952Y-6024819D01*
X68880952Y-6024819D02*
X68785714Y-6072438D01*
X68785714Y-6072438D02*
X68738095Y-6120057D01*
X68738095Y-6120057D02*
X68690476Y-6215295D01*
X68690476Y-6215295D02*
X68690476Y-6453390D01*
X68690476Y-6453390D02*
X68738095Y-6548628D01*
X68738095Y-6548628D02*
X68785714Y-6596247D01*
X68785714Y-6596247D02*
X68880952Y-6643866D01*
X68880952Y-6643866D02*
X69071428Y-6643866D01*
X69071428Y-6643866D02*
X69166666Y-6596247D01*
X69166666Y-6596247D02*
X69214285Y-6548628D01*
X69214285Y-6548628D02*
X69261904Y-6453390D01*
X137357142Y-91024819D02*
X137023809Y-90548628D01*
X136785714Y-91024819D02*
X136785714Y-90024819D01*
X136785714Y-90024819D02*
X137166666Y-90024819D01*
X137166666Y-90024819D02*
X137261904Y-90072438D01*
X137261904Y-90072438D02*
X137309523Y-90120057D01*
X137309523Y-90120057D02*
X137357142Y-90215295D01*
X137357142Y-90215295D02*
X137357142Y-90358152D01*
X137357142Y-90358152D02*
X137309523Y-90453390D01*
X137309523Y-90453390D02*
X137261904Y-90501009D01*
X137261904Y-90501009D02*
X137166666Y-90548628D01*
X137166666Y-90548628D02*
X136785714Y-90548628D01*
X137738095Y-90120057D02*
X137785714Y-90072438D01*
X137785714Y-90072438D02*
X137880952Y-90024819D01*
X137880952Y-90024819D02*
X138119047Y-90024819D01*
X138119047Y-90024819D02*
X138214285Y-90072438D01*
X138214285Y-90072438D02*
X138261904Y-90120057D01*
X138261904Y-90120057D02*
X138309523Y-90215295D01*
X138309523Y-90215295D02*
X138309523Y-90310533D01*
X138309523Y-90310533D02*
X138261904Y-90453390D01*
X138261904Y-90453390D02*
X137690476Y-91024819D01*
X137690476Y-91024819D02*
X138309523Y-91024819D01*
X138690476Y-90120057D02*
X138738095Y-90072438D01*
X138738095Y-90072438D02*
X138833333Y-90024819D01*
X138833333Y-90024819D02*
X139071428Y-90024819D01*
X139071428Y-90024819D02*
X139166666Y-90072438D01*
X139166666Y-90072438D02*
X139214285Y-90120057D01*
X139214285Y-90120057D02*
X139261904Y-90215295D01*
X139261904Y-90215295D02*
X139261904Y-90310533D01*
X139261904Y-90310533D02*
X139214285Y-90453390D01*
X139214285Y-90453390D02*
X138642857Y-91024819D01*
X138642857Y-91024819D02*
X139261904Y-91024819D01*
X47833333Y-91024819D02*
X47500000Y-90548628D01*
X47261905Y-91024819D02*
X47261905Y-90024819D01*
X47261905Y-90024819D02*
X47642857Y-90024819D01*
X47642857Y-90024819D02*
X47738095Y-90072438D01*
X47738095Y-90072438D02*
X47785714Y-90120057D01*
X47785714Y-90120057D02*
X47833333Y-90215295D01*
X47833333Y-90215295D02*
X47833333Y-90358152D01*
X47833333Y-90358152D02*
X47785714Y-90453390D01*
X47785714Y-90453390D02*
X47738095Y-90501009D01*
X47738095Y-90501009D02*
X47642857Y-90548628D01*
X47642857Y-90548628D02*
X47261905Y-90548628D01*
X48166667Y-90024819D02*
X48833333Y-90024819D01*
X48833333Y-90024819D02*
X48404762Y-91024819D01*
X122357142Y-20929580D02*
X122309523Y-20977200D01*
X122309523Y-20977200D02*
X122166666Y-21024819D01*
X122166666Y-21024819D02*
X122071428Y-21024819D01*
X122071428Y-21024819D02*
X121928571Y-20977200D01*
X121928571Y-20977200D02*
X121833333Y-20881961D01*
X121833333Y-20881961D02*
X121785714Y-20786723D01*
X121785714Y-20786723D02*
X121738095Y-20596247D01*
X121738095Y-20596247D02*
X121738095Y-20453390D01*
X121738095Y-20453390D02*
X121785714Y-20262914D01*
X121785714Y-20262914D02*
X121833333Y-20167676D01*
X121833333Y-20167676D02*
X121928571Y-20072438D01*
X121928571Y-20072438D02*
X122071428Y-20024819D01*
X122071428Y-20024819D02*
X122166666Y-20024819D01*
X122166666Y-20024819D02*
X122309523Y-20072438D01*
X122309523Y-20072438D02*
X122357142Y-20120057D01*
X122833333Y-21024819D02*
X123023809Y-21024819D01*
X123023809Y-21024819D02*
X123119047Y-20977200D01*
X123119047Y-20977200D02*
X123166666Y-20929580D01*
X123166666Y-20929580D02*
X123261904Y-20786723D01*
X123261904Y-20786723D02*
X123309523Y-20596247D01*
X123309523Y-20596247D02*
X123309523Y-20215295D01*
X123309523Y-20215295D02*
X123261904Y-20120057D01*
X123261904Y-20120057D02*
X123214285Y-20072438D01*
X123214285Y-20072438D02*
X123119047Y-20024819D01*
X123119047Y-20024819D02*
X122928571Y-20024819D01*
X122928571Y-20024819D02*
X122833333Y-20072438D01*
X122833333Y-20072438D02*
X122785714Y-20120057D01*
X122785714Y-20120057D02*
X122738095Y-20215295D01*
X122738095Y-20215295D02*
X122738095Y-20453390D01*
X122738095Y-20453390D02*
X122785714Y-20548628D01*
X122785714Y-20548628D02*
X122833333Y-20596247D01*
X122833333Y-20596247D02*
X122928571Y-20643866D01*
X122928571Y-20643866D02*
X123119047Y-20643866D01*
X123119047Y-20643866D02*
X123214285Y-20596247D01*
X123214285Y-20596247D02*
X123261904Y-20548628D01*
X123261904Y-20548628D02*
X123309523Y-20453390D01*
X124261904Y-21024819D02*
X123690476Y-21024819D01*
X123976190Y-21024819D02*
X123976190Y-20024819D01*
X123976190Y-20024819D02*
X123880952Y-20167676D01*
X123880952Y-20167676D02*
X123785714Y-20262914D01*
X123785714Y-20262914D02*
X123690476Y-20310533D01*
X93357142Y-80929580D02*
X93309523Y-80977200D01*
X93309523Y-80977200D02*
X93166666Y-81024819D01*
X93166666Y-81024819D02*
X93071428Y-81024819D01*
X93071428Y-81024819D02*
X92928571Y-80977200D01*
X92928571Y-80977200D02*
X92833333Y-80881961D01*
X92833333Y-80881961D02*
X92785714Y-80786723D01*
X92785714Y-80786723D02*
X92738095Y-80596247D01*
X92738095Y-80596247D02*
X92738095Y-80453390D01*
X92738095Y-80453390D02*
X92785714Y-80262914D01*
X92785714Y-80262914D02*
X92833333Y-80167676D01*
X92833333Y-80167676D02*
X92928571Y-80072438D01*
X92928571Y-80072438D02*
X93071428Y-80024819D01*
X93071428Y-80024819D02*
X93166666Y-80024819D01*
X93166666Y-80024819D02*
X93309523Y-80072438D01*
X93309523Y-80072438D02*
X93357142Y-80120057D01*
X93833333Y-81024819D02*
X94023809Y-81024819D01*
X94023809Y-81024819D02*
X94119047Y-80977200D01*
X94119047Y-80977200D02*
X94166666Y-80929580D01*
X94166666Y-80929580D02*
X94261904Y-80786723D01*
X94261904Y-80786723D02*
X94309523Y-80596247D01*
X94309523Y-80596247D02*
X94309523Y-80215295D01*
X94309523Y-80215295D02*
X94261904Y-80120057D01*
X94261904Y-80120057D02*
X94214285Y-80072438D01*
X94214285Y-80072438D02*
X94119047Y-80024819D01*
X94119047Y-80024819D02*
X93928571Y-80024819D01*
X93928571Y-80024819D02*
X93833333Y-80072438D01*
X93833333Y-80072438D02*
X93785714Y-80120057D01*
X93785714Y-80120057D02*
X93738095Y-80215295D01*
X93738095Y-80215295D02*
X93738095Y-80453390D01*
X93738095Y-80453390D02*
X93785714Y-80548628D01*
X93785714Y-80548628D02*
X93833333Y-80596247D01*
X93833333Y-80596247D02*
X93928571Y-80643866D01*
X93928571Y-80643866D02*
X94119047Y-80643866D01*
X94119047Y-80643866D02*
X94214285Y-80596247D01*
X94214285Y-80596247D02*
X94261904Y-80548628D01*
X94261904Y-80548628D02*
X94309523Y-80453390D01*
X94928571Y-80024819D02*
X95023809Y-80024819D01*
X95023809Y-80024819D02*
X95119047Y-80072438D01*
X95119047Y-80072438D02*
X95166666Y-80120057D01*
X95166666Y-80120057D02*
X95214285Y-80215295D01*
X95214285Y-80215295D02*
X95261904Y-80405771D01*
X95261904Y-80405771D02*
X95261904Y-80643866D01*
X95261904Y-80643866D02*
X95214285Y-80834342D01*
X95214285Y-80834342D02*
X95166666Y-80929580D01*
X95166666Y-80929580D02*
X95119047Y-80977200D01*
X95119047Y-80977200D02*
X95023809Y-81024819D01*
X95023809Y-81024819D02*
X94928571Y-81024819D01*
X94928571Y-81024819D02*
X94833333Y-80977200D01*
X94833333Y-80977200D02*
X94785714Y-80929580D01*
X94785714Y-80929580D02*
X94738095Y-80834342D01*
X94738095Y-80834342D02*
X94690476Y-80643866D01*
X94690476Y-80643866D02*
X94690476Y-80405771D01*
X94690476Y-80405771D02*
X94738095Y-80215295D01*
X94738095Y-80215295D02*
X94785714Y-80120057D01*
X94785714Y-80120057D02*
X94833333Y-80072438D01*
X94833333Y-80072438D02*
X94928571Y-80024819D01*
X119357142Y-95024819D02*
X119023809Y-94548628D01*
X118785714Y-95024819D02*
X118785714Y-94024819D01*
X118785714Y-94024819D02*
X119166666Y-94024819D01*
X119166666Y-94024819D02*
X119261904Y-94072438D01*
X119261904Y-94072438D02*
X119309523Y-94120057D01*
X119309523Y-94120057D02*
X119357142Y-94215295D01*
X119357142Y-94215295D02*
X119357142Y-94358152D01*
X119357142Y-94358152D02*
X119309523Y-94453390D01*
X119309523Y-94453390D02*
X119261904Y-94501009D01*
X119261904Y-94501009D02*
X119166666Y-94548628D01*
X119166666Y-94548628D02*
X118785714Y-94548628D01*
X119690476Y-94024819D02*
X120309523Y-94024819D01*
X120309523Y-94024819D02*
X119976190Y-94405771D01*
X119976190Y-94405771D02*
X120119047Y-94405771D01*
X120119047Y-94405771D02*
X120214285Y-94453390D01*
X120214285Y-94453390D02*
X120261904Y-94501009D01*
X120261904Y-94501009D02*
X120309523Y-94596247D01*
X120309523Y-94596247D02*
X120309523Y-94834342D01*
X120309523Y-94834342D02*
X120261904Y-94929580D01*
X120261904Y-94929580D02*
X120214285Y-94977200D01*
X120214285Y-94977200D02*
X120119047Y-95024819D01*
X120119047Y-95024819D02*
X119833333Y-95024819D01*
X119833333Y-95024819D02*
X119738095Y-94977200D01*
X119738095Y-94977200D02*
X119690476Y-94929580D01*
X121214285Y-94024819D02*
X120738095Y-94024819D01*
X120738095Y-94024819D02*
X120690476Y-94501009D01*
X120690476Y-94501009D02*
X120738095Y-94453390D01*
X120738095Y-94453390D02*
X120833333Y-94405771D01*
X120833333Y-94405771D02*
X121071428Y-94405771D01*
X121071428Y-94405771D02*
X121166666Y-94453390D01*
X121166666Y-94453390D02*
X121214285Y-94501009D01*
X121214285Y-94501009D02*
X121261904Y-94596247D01*
X121261904Y-94596247D02*
X121261904Y-94834342D01*
X121261904Y-94834342D02*
X121214285Y-94929580D01*
X121214285Y-94929580D02*
X121166666Y-94977200D01*
X121166666Y-94977200D02*
X121071428Y-95024819D01*
X121071428Y-95024819D02*
X120833333Y-95024819D01*
X120833333Y-95024819D02*
X120738095Y-94977200D01*
X120738095Y-94977200D02*
X120690476Y-94929580D01*
X127357142Y-34929580D02*
X127309523Y-34977200D01*
X127309523Y-34977200D02*
X127166666Y-35024819D01*
X127166666Y-35024819D02*
X127071428Y-35024819D01*
X127071428Y-35024819D02*
X126928571Y-34977200D01*
X126928571Y-34977200D02*
X126833333Y-34881961D01*
X126833333Y-34881961D02*
X126785714Y-34786723D01*
X126785714Y-34786723D02*
X126738095Y-34596247D01*
X126738095Y-34596247D02*
X126738095Y-34453390D01*
X126738095Y-34453390D02*
X126785714Y-34262914D01*
X126785714Y-34262914D02*
X126833333Y-34167676D01*
X126833333Y-34167676D02*
X126928571Y-34072438D01*
X126928571Y-34072438D02*
X127071428Y-34024819D01*
X127071428Y-34024819D02*
X127166666Y-34024819D01*
X127166666Y-34024819D02*
X127309523Y-34072438D01*
X127309523Y-34072438D02*
X127357142Y-34120057D01*
X127833333Y-35024819D02*
X128023809Y-35024819D01*
X128023809Y-35024819D02*
X128119047Y-34977200D01*
X128119047Y-34977200D02*
X128166666Y-34929580D01*
X128166666Y-34929580D02*
X128261904Y-34786723D01*
X128261904Y-34786723D02*
X128309523Y-34596247D01*
X128309523Y-34596247D02*
X128309523Y-34215295D01*
X128309523Y-34215295D02*
X128261904Y-34120057D01*
X128261904Y-34120057D02*
X128214285Y-34072438D01*
X128214285Y-34072438D02*
X128119047Y-34024819D01*
X128119047Y-34024819D02*
X127928571Y-34024819D01*
X127928571Y-34024819D02*
X127833333Y-34072438D01*
X127833333Y-34072438D02*
X127785714Y-34120057D01*
X127785714Y-34120057D02*
X127738095Y-34215295D01*
X127738095Y-34215295D02*
X127738095Y-34453390D01*
X127738095Y-34453390D02*
X127785714Y-34548628D01*
X127785714Y-34548628D02*
X127833333Y-34596247D01*
X127833333Y-34596247D02*
X127928571Y-34643866D01*
X127928571Y-34643866D02*
X128119047Y-34643866D01*
X128119047Y-34643866D02*
X128214285Y-34596247D01*
X128214285Y-34596247D02*
X128261904Y-34548628D01*
X128261904Y-34548628D02*
X128309523Y-34453390D01*
X128880952Y-34453390D02*
X128785714Y-34405771D01*
X128785714Y-34405771D02*
X128738095Y-34358152D01*
X128738095Y-34358152D02*
X128690476Y-34262914D01*
X128690476Y-34262914D02*
X128690476Y-34215295D01*
X128690476Y-34215295D02*
X128738095Y-34120057D01*
X128738095Y-34120057D02*
X128785714Y-34072438D01*
X128785714Y-34072438D02*
X128880952Y-34024819D01*
X128880952Y-34024819D02*
X129071428Y-34024819D01*
X129071428Y-34024819D02*
X129166666Y-34072438D01*
X129166666Y-34072438D02*
X129214285Y-34120057D01*
X129214285Y-34120057D02*
X129261904Y-34215295D01*
X129261904Y-34215295D02*
X129261904Y-34262914D01*
X129261904Y-34262914D02*
X129214285Y-34358152D01*
X129214285Y-34358152D02*
X129166666Y-34405771D01*
X129166666Y-34405771D02*
X129071428Y-34453390D01*
X129071428Y-34453390D02*
X128880952Y-34453390D01*
X128880952Y-34453390D02*
X128785714Y-34501009D01*
X128785714Y-34501009D02*
X128738095Y-34548628D01*
X128738095Y-34548628D02*
X128690476Y-34643866D01*
X128690476Y-34643866D02*
X128690476Y-34834342D01*
X128690476Y-34834342D02*
X128738095Y-34929580D01*
X128738095Y-34929580D02*
X128785714Y-34977200D01*
X128785714Y-34977200D02*
X128880952Y-35024819D01*
X128880952Y-35024819D02*
X129071428Y-35024819D01*
X129071428Y-35024819D02*
X129166666Y-34977200D01*
X129166666Y-34977200D02*
X129214285Y-34929580D01*
X129214285Y-34929580D02*
X129261904Y-34834342D01*
X129261904Y-34834342D02*
X129261904Y-34643866D01*
X129261904Y-34643866D02*
X129214285Y-34548628D01*
X129214285Y-34548628D02*
X129166666Y-34501009D01*
X129166666Y-34501009D02*
X129071428Y-34453390D01*
X44038095Y-8754819D02*
X44038095Y-9564342D01*
X44038095Y-9564342D02*
X44085714Y-9659580D01*
X44085714Y-9659580D02*
X44133333Y-9707200D01*
X44133333Y-9707200D02*
X44228571Y-9754819D01*
X44228571Y-9754819D02*
X44419047Y-9754819D01*
X44419047Y-9754819D02*
X44514285Y-9707200D01*
X44514285Y-9707200D02*
X44561904Y-9659580D01*
X44561904Y-9659580D02*
X44609523Y-9564342D01*
X44609523Y-9564342D02*
X44609523Y-8754819D01*
X45514285Y-8754819D02*
X45323809Y-8754819D01*
X45323809Y-8754819D02*
X45228571Y-8802438D01*
X45228571Y-8802438D02*
X45180952Y-8850057D01*
X45180952Y-8850057D02*
X45085714Y-8992914D01*
X45085714Y-8992914D02*
X45038095Y-9183390D01*
X45038095Y-9183390D02*
X45038095Y-9564342D01*
X45038095Y-9564342D02*
X45085714Y-9659580D01*
X45085714Y-9659580D02*
X45133333Y-9707200D01*
X45133333Y-9707200D02*
X45228571Y-9754819D01*
X45228571Y-9754819D02*
X45419047Y-9754819D01*
X45419047Y-9754819D02*
X45514285Y-9707200D01*
X45514285Y-9707200D02*
X45561904Y-9659580D01*
X45561904Y-9659580D02*
X45609523Y-9564342D01*
X45609523Y-9564342D02*
X45609523Y-9326247D01*
X45609523Y-9326247D02*
X45561904Y-9231009D01*
X45561904Y-9231009D02*
X45514285Y-9183390D01*
X45514285Y-9183390D02*
X45419047Y-9135771D01*
X45419047Y-9135771D02*
X45228571Y-9135771D01*
X45228571Y-9135771D02*
X45133333Y-9183390D01*
X45133333Y-9183390D02*
X45085714Y-9231009D01*
X45085714Y-9231009D02*
X45038095Y-9326247D01*
X121357142Y-76114819D02*
X121023809Y-75638628D01*
X120785714Y-76114819D02*
X120785714Y-75114819D01*
X120785714Y-75114819D02*
X121166666Y-75114819D01*
X121166666Y-75114819D02*
X121261904Y-75162438D01*
X121261904Y-75162438D02*
X121309523Y-75210057D01*
X121309523Y-75210057D02*
X121357142Y-75305295D01*
X121357142Y-75305295D02*
X121357142Y-75448152D01*
X121357142Y-75448152D02*
X121309523Y-75543390D01*
X121309523Y-75543390D02*
X121261904Y-75591009D01*
X121261904Y-75591009D02*
X121166666Y-75638628D01*
X121166666Y-75638628D02*
X120785714Y-75638628D01*
X122309523Y-76114819D02*
X121738095Y-76114819D01*
X122023809Y-76114819D02*
X122023809Y-75114819D01*
X122023809Y-75114819D02*
X121928571Y-75257676D01*
X121928571Y-75257676D02*
X121833333Y-75352914D01*
X121833333Y-75352914D02*
X121738095Y-75400533D01*
X123261904Y-76114819D02*
X122690476Y-76114819D01*
X122976190Y-76114819D02*
X122976190Y-75114819D01*
X122976190Y-75114819D02*
X122880952Y-75257676D01*
X122880952Y-75257676D02*
X122785714Y-75352914D01*
X122785714Y-75352914D02*
X122690476Y-75400533D01*
X65357142Y-95024819D02*
X65023809Y-94548628D01*
X64785714Y-95024819D02*
X64785714Y-94024819D01*
X64785714Y-94024819D02*
X65166666Y-94024819D01*
X65166666Y-94024819D02*
X65261904Y-94072438D01*
X65261904Y-94072438D02*
X65309523Y-94120057D01*
X65309523Y-94120057D02*
X65357142Y-94215295D01*
X65357142Y-94215295D02*
X65357142Y-94358152D01*
X65357142Y-94358152D02*
X65309523Y-94453390D01*
X65309523Y-94453390D02*
X65261904Y-94501009D01*
X65261904Y-94501009D02*
X65166666Y-94548628D01*
X65166666Y-94548628D02*
X64785714Y-94548628D01*
X66309523Y-95024819D02*
X65738095Y-95024819D01*
X66023809Y-95024819D02*
X66023809Y-94024819D01*
X66023809Y-94024819D02*
X65928571Y-94167676D01*
X65928571Y-94167676D02*
X65833333Y-94262914D01*
X65833333Y-94262914D02*
X65738095Y-94310533D01*
X66880952Y-94453390D02*
X66785714Y-94405771D01*
X66785714Y-94405771D02*
X66738095Y-94358152D01*
X66738095Y-94358152D02*
X66690476Y-94262914D01*
X66690476Y-94262914D02*
X66690476Y-94215295D01*
X66690476Y-94215295D02*
X66738095Y-94120057D01*
X66738095Y-94120057D02*
X66785714Y-94072438D01*
X66785714Y-94072438D02*
X66880952Y-94024819D01*
X66880952Y-94024819D02*
X67071428Y-94024819D01*
X67071428Y-94024819D02*
X67166666Y-94072438D01*
X67166666Y-94072438D02*
X67214285Y-94120057D01*
X67214285Y-94120057D02*
X67261904Y-94215295D01*
X67261904Y-94215295D02*
X67261904Y-94262914D01*
X67261904Y-94262914D02*
X67214285Y-94358152D01*
X67214285Y-94358152D02*
X67166666Y-94405771D01*
X67166666Y-94405771D02*
X67071428Y-94453390D01*
X67071428Y-94453390D02*
X66880952Y-94453390D01*
X66880952Y-94453390D02*
X66785714Y-94501009D01*
X66785714Y-94501009D02*
X66738095Y-94548628D01*
X66738095Y-94548628D02*
X66690476Y-94643866D01*
X66690476Y-94643866D02*
X66690476Y-94834342D01*
X66690476Y-94834342D02*
X66738095Y-94929580D01*
X66738095Y-94929580D02*
X66785714Y-94977200D01*
X66785714Y-94977200D02*
X66880952Y-95024819D01*
X66880952Y-95024819D02*
X67071428Y-95024819D01*
X67071428Y-95024819D02*
X67166666Y-94977200D01*
X67166666Y-94977200D02*
X67214285Y-94929580D01*
X67214285Y-94929580D02*
X67261904Y-94834342D01*
X67261904Y-94834342D02*
X67261904Y-94643866D01*
X67261904Y-94643866D02*
X67214285Y-94548628D01*
X67214285Y-94548628D02*
X67166666Y-94501009D01*
X67166666Y-94501009D02*
X67071428Y-94453390D01*
X82954819Y-74161904D02*
X83764342Y-74161904D01*
X83764342Y-74161904D02*
X83859580Y-74114285D01*
X83859580Y-74114285D02*
X83907200Y-74066666D01*
X83907200Y-74066666D02*
X83954819Y-73971428D01*
X83954819Y-73971428D02*
X83954819Y-73780952D01*
X83954819Y-73780952D02*
X83907200Y-73685714D01*
X83907200Y-73685714D02*
X83859580Y-73638095D01*
X83859580Y-73638095D02*
X83764342Y-73590476D01*
X83764342Y-73590476D02*
X82954819Y-73590476D01*
X83954819Y-72590476D02*
X83954819Y-73161904D01*
X83954819Y-72876190D02*
X82954819Y-72876190D01*
X82954819Y-72876190D02*
X83097676Y-72971428D01*
X83097676Y-72971428D02*
X83192914Y-73066666D01*
X83192914Y-73066666D02*
X83240533Y-73161904D01*
X107357142Y-77384819D02*
X107023809Y-76908628D01*
X106785714Y-77384819D02*
X106785714Y-76384819D01*
X106785714Y-76384819D02*
X107166666Y-76384819D01*
X107166666Y-76384819D02*
X107261904Y-76432438D01*
X107261904Y-76432438D02*
X107309523Y-76480057D01*
X107309523Y-76480057D02*
X107357142Y-76575295D01*
X107357142Y-76575295D02*
X107357142Y-76718152D01*
X107357142Y-76718152D02*
X107309523Y-76813390D01*
X107309523Y-76813390D02*
X107261904Y-76861009D01*
X107261904Y-76861009D02*
X107166666Y-76908628D01*
X107166666Y-76908628D02*
X106785714Y-76908628D01*
X108309523Y-77384819D02*
X107738095Y-77384819D01*
X108023809Y-77384819D02*
X108023809Y-76384819D01*
X108023809Y-76384819D02*
X107928571Y-76527676D01*
X107928571Y-76527676D02*
X107833333Y-76622914D01*
X107833333Y-76622914D02*
X107738095Y-76670533D01*
X108690476Y-76480057D02*
X108738095Y-76432438D01*
X108738095Y-76432438D02*
X108833333Y-76384819D01*
X108833333Y-76384819D02*
X109071428Y-76384819D01*
X109071428Y-76384819D02*
X109166666Y-76432438D01*
X109166666Y-76432438D02*
X109214285Y-76480057D01*
X109214285Y-76480057D02*
X109261904Y-76575295D01*
X109261904Y-76575295D02*
X109261904Y-76670533D01*
X109261904Y-76670533D02*
X109214285Y-76813390D01*
X109214285Y-76813390D02*
X108642857Y-77384819D01*
X108642857Y-77384819D02*
X109261904Y-77384819D01*
X146357142Y-32929580D02*
X146309523Y-32977200D01*
X146309523Y-32977200D02*
X146166666Y-33024819D01*
X146166666Y-33024819D02*
X146071428Y-33024819D01*
X146071428Y-33024819D02*
X145928571Y-32977200D01*
X145928571Y-32977200D02*
X145833333Y-32881961D01*
X145833333Y-32881961D02*
X145785714Y-32786723D01*
X145785714Y-32786723D02*
X145738095Y-32596247D01*
X145738095Y-32596247D02*
X145738095Y-32453390D01*
X145738095Y-32453390D02*
X145785714Y-32262914D01*
X145785714Y-32262914D02*
X145833333Y-32167676D01*
X145833333Y-32167676D02*
X145928571Y-32072438D01*
X145928571Y-32072438D02*
X146071428Y-32024819D01*
X146071428Y-32024819D02*
X146166666Y-32024819D01*
X146166666Y-32024819D02*
X146309523Y-32072438D01*
X146309523Y-32072438D02*
X146357142Y-32120057D01*
X146833333Y-33024819D02*
X147023809Y-33024819D01*
X147023809Y-33024819D02*
X147119047Y-32977200D01*
X147119047Y-32977200D02*
X147166666Y-32929580D01*
X147166666Y-32929580D02*
X147261904Y-32786723D01*
X147261904Y-32786723D02*
X147309523Y-32596247D01*
X147309523Y-32596247D02*
X147309523Y-32215295D01*
X147309523Y-32215295D02*
X147261904Y-32120057D01*
X147261904Y-32120057D02*
X147214285Y-32072438D01*
X147214285Y-32072438D02*
X147119047Y-32024819D01*
X147119047Y-32024819D02*
X146928571Y-32024819D01*
X146928571Y-32024819D02*
X146833333Y-32072438D01*
X146833333Y-32072438D02*
X146785714Y-32120057D01*
X146785714Y-32120057D02*
X146738095Y-32215295D01*
X146738095Y-32215295D02*
X146738095Y-32453390D01*
X146738095Y-32453390D02*
X146785714Y-32548628D01*
X146785714Y-32548628D02*
X146833333Y-32596247D01*
X146833333Y-32596247D02*
X146928571Y-32643866D01*
X146928571Y-32643866D02*
X147119047Y-32643866D01*
X147119047Y-32643866D02*
X147214285Y-32596247D01*
X147214285Y-32596247D02*
X147261904Y-32548628D01*
X147261904Y-32548628D02*
X147309523Y-32453390D01*
X147690476Y-32120057D02*
X147738095Y-32072438D01*
X147738095Y-32072438D02*
X147833333Y-32024819D01*
X147833333Y-32024819D02*
X148071428Y-32024819D01*
X148071428Y-32024819D02*
X148166666Y-32072438D01*
X148166666Y-32072438D02*
X148214285Y-32120057D01*
X148214285Y-32120057D02*
X148261904Y-32215295D01*
X148261904Y-32215295D02*
X148261904Y-32310533D01*
X148261904Y-32310533D02*
X148214285Y-32453390D01*
X148214285Y-32453390D02*
X147642857Y-33024819D01*
X147642857Y-33024819D02*
X148261904Y-33024819D01*
X101357142Y-91024819D02*
X101023809Y-90548628D01*
X100785714Y-91024819D02*
X100785714Y-90024819D01*
X100785714Y-90024819D02*
X101166666Y-90024819D01*
X101166666Y-90024819D02*
X101261904Y-90072438D01*
X101261904Y-90072438D02*
X101309523Y-90120057D01*
X101309523Y-90120057D02*
X101357142Y-90215295D01*
X101357142Y-90215295D02*
X101357142Y-90358152D01*
X101357142Y-90358152D02*
X101309523Y-90453390D01*
X101309523Y-90453390D02*
X101261904Y-90501009D01*
X101261904Y-90501009D02*
X101166666Y-90548628D01*
X101166666Y-90548628D02*
X100785714Y-90548628D01*
X101738095Y-90120057D02*
X101785714Y-90072438D01*
X101785714Y-90072438D02*
X101880952Y-90024819D01*
X101880952Y-90024819D02*
X102119047Y-90024819D01*
X102119047Y-90024819D02*
X102214285Y-90072438D01*
X102214285Y-90072438D02*
X102261904Y-90120057D01*
X102261904Y-90120057D02*
X102309523Y-90215295D01*
X102309523Y-90215295D02*
X102309523Y-90310533D01*
X102309523Y-90310533D02*
X102261904Y-90453390D01*
X102261904Y-90453390D02*
X101690476Y-91024819D01*
X101690476Y-91024819D02*
X102309523Y-91024819D01*
X102928571Y-90024819D02*
X103023809Y-90024819D01*
X103023809Y-90024819D02*
X103119047Y-90072438D01*
X103119047Y-90072438D02*
X103166666Y-90120057D01*
X103166666Y-90120057D02*
X103214285Y-90215295D01*
X103214285Y-90215295D02*
X103261904Y-90405771D01*
X103261904Y-90405771D02*
X103261904Y-90643866D01*
X103261904Y-90643866D02*
X103214285Y-90834342D01*
X103214285Y-90834342D02*
X103166666Y-90929580D01*
X103166666Y-90929580D02*
X103119047Y-90977200D01*
X103119047Y-90977200D02*
X103023809Y-91024819D01*
X103023809Y-91024819D02*
X102928571Y-91024819D01*
X102928571Y-91024819D02*
X102833333Y-90977200D01*
X102833333Y-90977200D02*
X102785714Y-90929580D01*
X102785714Y-90929580D02*
X102738095Y-90834342D01*
X102738095Y-90834342D02*
X102690476Y-90643866D01*
X102690476Y-90643866D02*
X102690476Y-90405771D01*
X102690476Y-90405771D02*
X102738095Y-90215295D01*
X102738095Y-90215295D02*
X102785714Y-90120057D01*
X102785714Y-90120057D02*
X102833333Y-90072438D01*
X102833333Y-90072438D02*
X102928571Y-90024819D01*
X35357142Y-91024819D02*
X35023809Y-90548628D01*
X34785714Y-91024819D02*
X34785714Y-90024819D01*
X34785714Y-90024819D02*
X35166666Y-90024819D01*
X35166666Y-90024819D02*
X35261904Y-90072438D01*
X35261904Y-90072438D02*
X35309523Y-90120057D01*
X35309523Y-90120057D02*
X35357142Y-90215295D01*
X35357142Y-90215295D02*
X35357142Y-90358152D01*
X35357142Y-90358152D02*
X35309523Y-90453390D01*
X35309523Y-90453390D02*
X35261904Y-90501009D01*
X35261904Y-90501009D02*
X35166666Y-90548628D01*
X35166666Y-90548628D02*
X34785714Y-90548628D01*
X35690476Y-90024819D02*
X36309523Y-90024819D01*
X36309523Y-90024819D02*
X35976190Y-90405771D01*
X35976190Y-90405771D02*
X36119047Y-90405771D01*
X36119047Y-90405771D02*
X36214285Y-90453390D01*
X36214285Y-90453390D02*
X36261904Y-90501009D01*
X36261904Y-90501009D02*
X36309523Y-90596247D01*
X36309523Y-90596247D02*
X36309523Y-90834342D01*
X36309523Y-90834342D02*
X36261904Y-90929580D01*
X36261904Y-90929580D02*
X36214285Y-90977200D01*
X36214285Y-90977200D02*
X36119047Y-91024819D01*
X36119047Y-91024819D02*
X35833333Y-91024819D01*
X35833333Y-91024819D02*
X35738095Y-90977200D01*
X35738095Y-90977200D02*
X35690476Y-90929580D01*
X36880952Y-90453390D02*
X36785714Y-90405771D01*
X36785714Y-90405771D02*
X36738095Y-90358152D01*
X36738095Y-90358152D02*
X36690476Y-90262914D01*
X36690476Y-90262914D02*
X36690476Y-90215295D01*
X36690476Y-90215295D02*
X36738095Y-90120057D01*
X36738095Y-90120057D02*
X36785714Y-90072438D01*
X36785714Y-90072438D02*
X36880952Y-90024819D01*
X36880952Y-90024819D02*
X37071428Y-90024819D01*
X37071428Y-90024819D02*
X37166666Y-90072438D01*
X37166666Y-90072438D02*
X37214285Y-90120057D01*
X37214285Y-90120057D02*
X37261904Y-90215295D01*
X37261904Y-90215295D02*
X37261904Y-90262914D01*
X37261904Y-90262914D02*
X37214285Y-90358152D01*
X37214285Y-90358152D02*
X37166666Y-90405771D01*
X37166666Y-90405771D02*
X37071428Y-90453390D01*
X37071428Y-90453390D02*
X36880952Y-90453390D01*
X36880952Y-90453390D02*
X36785714Y-90501009D01*
X36785714Y-90501009D02*
X36738095Y-90548628D01*
X36738095Y-90548628D02*
X36690476Y-90643866D01*
X36690476Y-90643866D02*
X36690476Y-90834342D01*
X36690476Y-90834342D02*
X36738095Y-90929580D01*
X36738095Y-90929580D02*
X36785714Y-90977200D01*
X36785714Y-90977200D02*
X36880952Y-91024819D01*
X36880952Y-91024819D02*
X37071428Y-91024819D01*
X37071428Y-91024819D02*
X37166666Y-90977200D01*
X37166666Y-90977200D02*
X37214285Y-90929580D01*
X37214285Y-90929580D02*
X37261904Y-90834342D01*
X37261904Y-90834342D02*
X37261904Y-90643866D01*
X37261904Y-90643866D02*
X37214285Y-90548628D01*
X37214285Y-90548628D02*
X37166666Y-90501009D01*
X37166666Y-90501009D02*
X37071428Y-90453390D01*
X33761905Y-65954819D02*
X33761905Y-64954819D01*
X34333333Y-65954819D02*
X33904762Y-65383390D01*
X34333333Y-64954819D02*
X33761905Y-65526247D01*
X35285714Y-65954819D02*
X34714286Y-65954819D01*
X35000000Y-65954819D02*
X35000000Y-64954819D01*
X35000000Y-64954819D02*
X34904762Y-65097676D01*
X34904762Y-65097676D02*
X34809524Y-65192914D01*
X34809524Y-65192914D02*
X34714286Y-65240533D01*
X121357142Y-42929580D02*
X121309523Y-42977200D01*
X121309523Y-42977200D02*
X121166666Y-43024819D01*
X121166666Y-43024819D02*
X121071428Y-43024819D01*
X121071428Y-43024819D02*
X120928571Y-42977200D01*
X120928571Y-42977200D02*
X120833333Y-42881961D01*
X120833333Y-42881961D02*
X120785714Y-42786723D01*
X120785714Y-42786723D02*
X120738095Y-42596247D01*
X120738095Y-42596247D02*
X120738095Y-42453390D01*
X120738095Y-42453390D02*
X120785714Y-42262914D01*
X120785714Y-42262914D02*
X120833333Y-42167676D01*
X120833333Y-42167676D02*
X120928571Y-42072438D01*
X120928571Y-42072438D02*
X121071428Y-42024819D01*
X121071428Y-42024819D02*
X121166666Y-42024819D01*
X121166666Y-42024819D02*
X121309523Y-42072438D01*
X121309523Y-42072438D02*
X121357142Y-42120057D01*
X121833333Y-43024819D02*
X122023809Y-43024819D01*
X122023809Y-43024819D02*
X122119047Y-42977200D01*
X122119047Y-42977200D02*
X122166666Y-42929580D01*
X122166666Y-42929580D02*
X122261904Y-42786723D01*
X122261904Y-42786723D02*
X122309523Y-42596247D01*
X122309523Y-42596247D02*
X122309523Y-42215295D01*
X122309523Y-42215295D02*
X122261904Y-42120057D01*
X122261904Y-42120057D02*
X122214285Y-42072438D01*
X122214285Y-42072438D02*
X122119047Y-42024819D01*
X122119047Y-42024819D02*
X121928571Y-42024819D01*
X121928571Y-42024819D02*
X121833333Y-42072438D01*
X121833333Y-42072438D02*
X121785714Y-42120057D01*
X121785714Y-42120057D02*
X121738095Y-42215295D01*
X121738095Y-42215295D02*
X121738095Y-42453390D01*
X121738095Y-42453390D02*
X121785714Y-42548628D01*
X121785714Y-42548628D02*
X121833333Y-42596247D01*
X121833333Y-42596247D02*
X121928571Y-42643866D01*
X121928571Y-42643866D02*
X122119047Y-42643866D01*
X122119047Y-42643866D02*
X122214285Y-42596247D01*
X122214285Y-42596247D02*
X122261904Y-42548628D01*
X122261904Y-42548628D02*
X122309523Y-42453390D01*
X123214285Y-42024819D02*
X122738095Y-42024819D01*
X122738095Y-42024819D02*
X122690476Y-42501009D01*
X122690476Y-42501009D02*
X122738095Y-42453390D01*
X122738095Y-42453390D02*
X122833333Y-42405771D01*
X122833333Y-42405771D02*
X123071428Y-42405771D01*
X123071428Y-42405771D02*
X123166666Y-42453390D01*
X123166666Y-42453390D02*
X123214285Y-42501009D01*
X123214285Y-42501009D02*
X123261904Y-42596247D01*
X123261904Y-42596247D02*
X123261904Y-42834342D01*
X123261904Y-42834342D02*
X123214285Y-42929580D01*
X123214285Y-42929580D02*
X123166666Y-42977200D01*
X123166666Y-42977200D02*
X123071428Y-43024819D01*
X123071428Y-43024819D02*
X122833333Y-43024819D01*
X122833333Y-43024819D02*
X122738095Y-42977200D01*
X122738095Y-42977200D02*
X122690476Y-42929580D01*
X137357142Y-95024819D02*
X137023809Y-94548628D01*
X136785714Y-95024819D02*
X136785714Y-94024819D01*
X136785714Y-94024819D02*
X137166666Y-94024819D01*
X137166666Y-94024819D02*
X137261904Y-94072438D01*
X137261904Y-94072438D02*
X137309523Y-94120057D01*
X137309523Y-94120057D02*
X137357142Y-94215295D01*
X137357142Y-94215295D02*
X137357142Y-94358152D01*
X137357142Y-94358152D02*
X137309523Y-94453390D01*
X137309523Y-94453390D02*
X137261904Y-94501009D01*
X137261904Y-94501009D02*
X137166666Y-94548628D01*
X137166666Y-94548628D02*
X136785714Y-94548628D01*
X137690476Y-94024819D02*
X138309523Y-94024819D01*
X138309523Y-94024819D02*
X137976190Y-94405771D01*
X137976190Y-94405771D02*
X138119047Y-94405771D01*
X138119047Y-94405771D02*
X138214285Y-94453390D01*
X138214285Y-94453390D02*
X138261904Y-94501009D01*
X138261904Y-94501009D02*
X138309523Y-94596247D01*
X138309523Y-94596247D02*
X138309523Y-94834342D01*
X138309523Y-94834342D02*
X138261904Y-94929580D01*
X138261904Y-94929580D02*
X138214285Y-94977200D01*
X138214285Y-94977200D02*
X138119047Y-95024819D01*
X138119047Y-95024819D02*
X137833333Y-95024819D01*
X137833333Y-95024819D02*
X137738095Y-94977200D01*
X137738095Y-94977200D02*
X137690476Y-94929580D01*
X139166666Y-94024819D02*
X138976190Y-94024819D01*
X138976190Y-94024819D02*
X138880952Y-94072438D01*
X138880952Y-94072438D02*
X138833333Y-94120057D01*
X138833333Y-94120057D02*
X138738095Y-94262914D01*
X138738095Y-94262914D02*
X138690476Y-94453390D01*
X138690476Y-94453390D02*
X138690476Y-94834342D01*
X138690476Y-94834342D02*
X138738095Y-94929580D01*
X138738095Y-94929580D02*
X138785714Y-94977200D01*
X138785714Y-94977200D02*
X138880952Y-95024819D01*
X138880952Y-95024819D02*
X139071428Y-95024819D01*
X139071428Y-95024819D02*
X139166666Y-94977200D01*
X139166666Y-94977200D02*
X139214285Y-94929580D01*
X139214285Y-94929580D02*
X139261904Y-94834342D01*
X139261904Y-94834342D02*
X139261904Y-94596247D01*
X139261904Y-94596247D02*
X139214285Y-94501009D01*
X139214285Y-94501009D02*
X139166666Y-94453390D01*
X139166666Y-94453390D02*
X139071428Y-94405771D01*
X139071428Y-94405771D02*
X138880952Y-94405771D01*
X138880952Y-94405771D02*
X138785714Y-94453390D01*
X138785714Y-94453390D02*
X138738095Y-94501009D01*
X138738095Y-94501009D02*
X138690476Y-94596247D01*
X125357142Y-46929580D02*
X125309523Y-46977200D01*
X125309523Y-46977200D02*
X125166666Y-47024819D01*
X125166666Y-47024819D02*
X125071428Y-47024819D01*
X125071428Y-47024819D02*
X124928571Y-46977200D01*
X124928571Y-46977200D02*
X124833333Y-46881961D01*
X124833333Y-46881961D02*
X124785714Y-46786723D01*
X124785714Y-46786723D02*
X124738095Y-46596247D01*
X124738095Y-46596247D02*
X124738095Y-46453390D01*
X124738095Y-46453390D02*
X124785714Y-46262914D01*
X124785714Y-46262914D02*
X124833333Y-46167676D01*
X124833333Y-46167676D02*
X124928571Y-46072438D01*
X124928571Y-46072438D02*
X125071428Y-46024819D01*
X125071428Y-46024819D02*
X125166666Y-46024819D01*
X125166666Y-46024819D02*
X125309523Y-46072438D01*
X125309523Y-46072438D02*
X125357142Y-46120057D01*
X125833333Y-47024819D02*
X126023809Y-47024819D01*
X126023809Y-47024819D02*
X126119047Y-46977200D01*
X126119047Y-46977200D02*
X126166666Y-46929580D01*
X126166666Y-46929580D02*
X126261904Y-46786723D01*
X126261904Y-46786723D02*
X126309523Y-46596247D01*
X126309523Y-46596247D02*
X126309523Y-46215295D01*
X126309523Y-46215295D02*
X126261904Y-46120057D01*
X126261904Y-46120057D02*
X126214285Y-46072438D01*
X126214285Y-46072438D02*
X126119047Y-46024819D01*
X126119047Y-46024819D02*
X125928571Y-46024819D01*
X125928571Y-46024819D02*
X125833333Y-46072438D01*
X125833333Y-46072438D02*
X125785714Y-46120057D01*
X125785714Y-46120057D02*
X125738095Y-46215295D01*
X125738095Y-46215295D02*
X125738095Y-46453390D01*
X125738095Y-46453390D02*
X125785714Y-46548628D01*
X125785714Y-46548628D02*
X125833333Y-46596247D01*
X125833333Y-46596247D02*
X125928571Y-46643866D01*
X125928571Y-46643866D02*
X126119047Y-46643866D01*
X126119047Y-46643866D02*
X126214285Y-46596247D01*
X126214285Y-46596247D02*
X126261904Y-46548628D01*
X126261904Y-46548628D02*
X126309523Y-46453390D01*
X127166666Y-46024819D02*
X126976190Y-46024819D01*
X126976190Y-46024819D02*
X126880952Y-46072438D01*
X126880952Y-46072438D02*
X126833333Y-46120057D01*
X126833333Y-46120057D02*
X126738095Y-46262914D01*
X126738095Y-46262914D02*
X126690476Y-46453390D01*
X126690476Y-46453390D02*
X126690476Y-46834342D01*
X126690476Y-46834342D02*
X126738095Y-46929580D01*
X126738095Y-46929580D02*
X126785714Y-46977200D01*
X126785714Y-46977200D02*
X126880952Y-47024819D01*
X126880952Y-47024819D02*
X127071428Y-47024819D01*
X127071428Y-47024819D02*
X127166666Y-46977200D01*
X127166666Y-46977200D02*
X127214285Y-46929580D01*
X127214285Y-46929580D02*
X127261904Y-46834342D01*
X127261904Y-46834342D02*
X127261904Y-46596247D01*
X127261904Y-46596247D02*
X127214285Y-46501009D01*
X127214285Y-46501009D02*
X127166666Y-46453390D01*
X127166666Y-46453390D02*
X127071428Y-46405771D01*
X127071428Y-46405771D02*
X126880952Y-46405771D01*
X126880952Y-46405771D02*
X126785714Y-46453390D01*
X126785714Y-46453390D02*
X126738095Y-46501009D01*
X126738095Y-46501009D02*
X126690476Y-46596247D01*
X29357142Y-87024819D02*
X29023809Y-86548628D01*
X28785714Y-87024819D02*
X28785714Y-86024819D01*
X28785714Y-86024819D02*
X29166666Y-86024819D01*
X29166666Y-86024819D02*
X29261904Y-86072438D01*
X29261904Y-86072438D02*
X29309523Y-86120057D01*
X29309523Y-86120057D02*
X29357142Y-86215295D01*
X29357142Y-86215295D02*
X29357142Y-86358152D01*
X29357142Y-86358152D02*
X29309523Y-86453390D01*
X29309523Y-86453390D02*
X29261904Y-86501009D01*
X29261904Y-86501009D02*
X29166666Y-86548628D01*
X29166666Y-86548628D02*
X28785714Y-86548628D01*
X29738095Y-86120057D02*
X29785714Y-86072438D01*
X29785714Y-86072438D02*
X29880952Y-86024819D01*
X29880952Y-86024819D02*
X30119047Y-86024819D01*
X30119047Y-86024819D02*
X30214285Y-86072438D01*
X30214285Y-86072438D02*
X30261904Y-86120057D01*
X30261904Y-86120057D02*
X30309523Y-86215295D01*
X30309523Y-86215295D02*
X30309523Y-86310533D01*
X30309523Y-86310533D02*
X30261904Y-86453390D01*
X30261904Y-86453390D02*
X29690476Y-87024819D01*
X29690476Y-87024819D02*
X30309523Y-87024819D01*
X31166666Y-86358152D02*
X31166666Y-87024819D01*
X30928571Y-85977200D02*
X30690476Y-86691485D01*
X30690476Y-86691485D02*
X31309523Y-86691485D01*
X29357142Y-95024819D02*
X29023809Y-94548628D01*
X28785714Y-95024819D02*
X28785714Y-94024819D01*
X28785714Y-94024819D02*
X29166666Y-94024819D01*
X29166666Y-94024819D02*
X29261904Y-94072438D01*
X29261904Y-94072438D02*
X29309523Y-94120057D01*
X29309523Y-94120057D02*
X29357142Y-94215295D01*
X29357142Y-94215295D02*
X29357142Y-94358152D01*
X29357142Y-94358152D02*
X29309523Y-94453390D01*
X29309523Y-94453390D02*
X29261904Y-94501009D01*
X29261904Y-94501009D02*
X29166666Y-94548628D01*
X29166666Y-94548628D02*
X28785714Y-94548628D01*
X30309523Y-95024819D02*
X29738095Y-95024819D01*
X30023809Y-95024819D02*
X30023809Y-94024819D01*
X30023809Y-94024819D02*
X29928571Y-94167676D01*
X29928571Y-94167676D02*
X29833333Y-94262914D01*
X29833333Y-94262914D02*
X29738095Y-94310533D01*
X31166666Y-94024819D02*
X30976190Y-94024819D01*
X30976190Y-94024819D02*
X30880952Y-94072438D01*
X30880952Y-94072438D02*
X30833333Y-94120057D01*
X30833333Y-94120057D02*
X30738095Y-94262914D01*
X30738095Y-94262914D02*
X30690476Y-94453390D01*
X30690476Y-94453390D02*
X30690476Y-94834342D01*
X30690476Y-94834342D02*
X30738095Y-94929580D01*
X30738095Y-94929580D02*
X30785714Y-94977200D01*
X30785714Y-94977200D02*
X30880952Y-95024819D01*
X30880952Y-95024819D02*
X31071428Y-95024819D01*
X31071428Y-95024819D02*
X31166666Y-94977200D01*
X31166666Y-94977200D02*
X31214285Y-94929580D01*
X31214285Y-94929580D02*
X31261904Y-94834342D01*
X31261904Y-94834342D02*
X31261904Y-94596247D01*
X31261904Y-94596247D02*
X31214285Y-94501009D01*
X31214285Y-94501009D02*
X31166666Y-94453390D01*
X31166666Y-94453390D02*
X31071428Y-94405771D01*
X31071428Y-94405771D02*
X30880952Y-94405771D01*
X30880952Y-94405771D02*
X30785714Y-94453390D01*
X30785714Y-94453390D02*
X30738095Y-94501009D01*
X30738095Y-94501009D02*
X30690476Y-94596247D01*
X81238095Y-11054819D02*
X81238095Y-11864342D01*
X81238095Y-11864342D02*
X81285714Y-11959580D01*
X81285714Y-11959580D02*
X81333333Y-12007200D01*
X81333333Y-12007200D02*
X81428571Y-12054819D01*
X81428571Y-12054819D02*
X81619047Y-12054819D01*
X81619047Y-12054819D02*
X81714285Y-12007200D01*
X81714285Y-12007200D02*
X81761904Y-11959580D01*
X81761904Y-11959580D02*
X81809523Y-11864342D01*
X81809523Y-11864342D02*
X81809523Y-11054819D01*
X82428571Y-11483390D02*
X82333333Y-11435771D01*
X82333333Y-11435771D02*
X82285714Y-11388152D01*
X82285714Y-11388152D02*
X82238095Y-11292914D01*
X82238095Y-11292914D02*
X82238095Y-11245295D01*
X82238095Y-11245295D02*
X82285714Y-11150057D01*
X82285714Y-11150057D02*
X82333333Y-11102438D01*
X82333333Y-11102438D02*
X82428571Y-11054819D01*
X82428571Y-11054819D02*
X82619047Y-11054819D01*
X82619047Y-11054819D02*
X82714285Y-11102438D01*
X82714285Y-11102438D02*
X82761904Y-11150057D01*
X82761904Y-11150057D02*
X82809523Y-11245295D01*
X82809523Y-11245295D02*
X82809523Y-11292914D01*
X82809523Y-11292914D02*
X82761904Y-11388152D01*
X82761904Y-11388152D02*
X82714285Y-11435771D01*
X82714285Y-11435771D02*
X82619047Y-11483390D01*
X82619047Y-11483390D02*
X82428571Y-11483390D01*
X82428571Y-11483390D02*
X82333333Y-11531009D01*
X82333333Y-11531009D02*
X82285714Y-11578628D01*
X82285714Y-11578628D02*
X82238095Y-11673866D01*
X82238095Y-11673866D02*
X82238095Y-11864342D01*
X82238095Y-11864342D02*
X82285714Y-11959580D01*
X82285714Y-11959580D02*
X82333333Y-12007200D01*
X82333333Y-12007200D02*
X82428571Y-12054819D01*
X82428571Y-12054819D02*
X82619047Y-12054819D01*
X82619047Y-12054819D02*
X82714285Y-12007200D01*
X82714285Y-12007200D02*
X82761904Y-11959580D01*
X82761904Y-11959580D02*
X82809523Y-11864342D01*
X82809523Y-11864342D02*
X82809523Y-11673866D01*
X82809523Y-11673866D02*
X82761904Y-11578628D01*
X82761904Y-11578628D02*
X82714285Y-11531009D01*
X82714285Y-11531009D02*
X82619047Y-11483390D01*
X127238095Y-37654819D02*
X127238095Y-38464342D01*
X127238095Y-38464342D02*
X127285714Y-38559580D01*
X127285714Y-38559580D02*
X127333333Y-38607200D01*
X127333333Y-38607200D02*
X127428571Y-38654819D01*
X127428571Y-38654819D02*
X127619047Y-38654819D01*
X127619047Y-38654819D02*
X127714285Y-38607200D01*
X127714285Y-38607200D02*
X127761904Y-38559580D01*
X127761904Y-38559580D02*
X127809523Y-38464342D01*
X127809523Y-38464342D02*
X127809523Y-37654819D01*
X128761904Y-37654819D02*
X128285714Y-37654819D01*
X128285714Y-37654819D02*
X128238095Y-38131009D01*
X128238095Y-38131009D02*
X128285714Y-38083390D01*
X128285714Y-38083390D02*
X128380952Y-38035771D01*
X128380952Y-38035771D02*
X128619047Y-38035771D01*
X128619047Y-38035771D02*
X128714285Y-38083390D01*
X128714285Y-38083390D02*
X128761904Y-38131009D01*
X128761904Y-38131009D02*
X128809523Y-38226247D01*
X128809523Y-38226247D02*
X128809523Y-38464342D01*
X128809523Y-38464342D02*
X128761904Y-38559580D01*
X128761904Y-38559580D02*
X128714285Y-38607200D01*
X128714285Y-38607200D02*
X128619047Y-38654819D01*
X128619047Y-38654819D02*
X128380952Y-38654819D01*
X128380952Y-38654819D02*
X128285714Y-38607200D01*
X128285714Y-38607200D02*
X128238095Y-38559580D01*
X53357142Y-91024819D02*
X53023809Y-90548628D01*
X52785714Y-91024819D02*
X52785714Y-90024819D01*
X52785714Y-90024819D02*
X53166666Y-90024819D01*
X53166666Y-90024819D02*
X53261904Y-90072438D01*
X53261904Y-90072438D02*
X53309523Y-90120057D01*
X53309523Y-90120057D02*
X53357142Y-90215295D01*
X53357142Y-90215295D02*
X53357142Y-90358152D01*
X53357142Y-90358152D02*
X53309523Y-90453390D01*
X53309523Y-90453390D02*
X53261904Y-90501009D01*
X53261904Y-90501009D02*
X53166666Y-90548628D01*
X53166666Y-90548628D02*
X52785714Y-90548628D01*
X53690476Y-90024819D02*
X54309523Y-90024819D01*
X54309523Y-90024819D02*
X53976190Y-90405771D01*
X53976190Y-90405771D02*
X54119047Y-90405771D01*
X54119047Y-90405771D02*
X54214285Y-90453390D01*
X54214285Y-90453390D02*
X54261904Y-90501009D01*
X54261904Y-90501009D02*
X54309523Y-90596247D01*
X54309523Y-90596247D02*
X54309523Y-90834342D01*
X54309523Y-90834342D02*
X54261904Y-90929580D01*
X54261904Y-90929580D02*
X54214285Y-90977200D01*
X54214285Y-90977200D02*
X54119047Y-91024819D01*
X54119047Y-91024819D02*
X53833333Y-91024819D01*
X53833333Y-91024819D02*
X53738095Y-90977200D01*
X53738095Y-90977200D02*
X53690476Y-90929580D01*
X54785714Y-91024819D02*
X54976190Y-91024819D01*
X54976190Y-91024819D02*
X55071428Y-90977200D01*
X55071428Y-90977200D02*
X55119047Y-90929580D01*
X55119047Y-90929580D02*
X55214285Y-90786723D01*
X55214285Y-90786723D02*
X55261904Y-90596247D01*
X55261904Y-90596247D02*
X55261904Y-90215295D01*
X55261904Y-90215295D02*
X55214285Y-90120057D01*
X55214285Y-90120057D02*
X55166666Y-90072438D01*
X55166666Y-90072438D02*
X55071428Y-90024819D01*
X55071428Y-90024819D02*
X54880952Y-90024819D01*
X54880952Y-90024819D02*
X54785714Y-90072438D01*
X54785714Y-90072438D02*
X54738095Y-90120057D01*
X54738095Y-90120057D02*
X54690476Y-90215295D01*
X54690476Y-90215295D02*
X54690476Y-90453390D01*
X54690476Y-90453390D02*
X54738095Y-90548628D01*
X54738095Y-90548628D02*
X54785714Y-90596247D01*
X54785714Y-90596247D02*
X54880952Y-90643866D01*
X54880952Y-90643866D02*
X55071428Y-90643866D01*
X55071428Y-90643866D02*
X55166666Y-90596247D01*
X55166666Y-90596247D02*
X55214285Y-90548628D01*
X55214285Y-90548628D02*
X55261904Y-90453390D01*
X11416666Y-20234819D02*
X11416666Y-20949104D01*
X11416666Y-20949104D02*
X11369047Y-21091961D01*
X11369047Y-21091961D02*
X11273809Y-21187200D01*
X11273809Y-21187200D02*
X11130952Y-21234819D01*
X11130952Y-21234819D02*
X11035714Y-21234819D01*
X12416666Y-21234819D02*
X11845238Y-21234819D01*
X12130952Y-21234819D02*
X12130952Y-20234819D01*
X12130952Y-20234819D02*
X12035714Y-20377676D01*
X12035714Y-20377676D02*
X11940476Y-20472914D01*
X11940476Y-20472914D02*
X11845238Y-20520533D01*
D11*
X134032380Y-21309271D02*
X134032380Y-22337366D01*
X134032380Y-22337366D02*
X134092857Y-22458318D01*
X134092857Y-22458318D02*
X134153333Y-22518795D01*
X134153333Y-22518795D02*
X134274285Y-22579271D01*
X134274285Y-22579271D02*
X134516190Y-22579271D01*
X134516190Y-22579271D02*
X134637142Y-22518795D01*
X134637142Y-22518795D02*
X134697619Y-22458318D01*
X134697619Y-22458318D02*
X134758095Y-22337366D01*
X134758095Y-22337366D02*
X134758095Y-21309271D01*
X135302380Y-21430223D02*
X135362856Y-21369747D01*
X135362856Y-21369747D02*
X135483809Y-21309271D01*
X135483809Y-21309271D02*
X135786190Y-21309271D01*
X135786190Y-21309271D02*
X135907142Y-21369747D01*
X135907142Y-21369747D02*
X135967618Y-21430223D01*
X135967618Y-21430223D02*
X136028095Y-21551175D01*
X136028095Y-21551175D02*
X136028095Y-21672128D01*
X136028095Y-21672128D02*
X135967618Y-21853556D01*
X135967618Y-21853556D02*
X135241904Y-22579271D01*
X135241904Y-22579271D02*
X136028095Y-22579271D01*
D10*
X121357142Y-32929580D02*
X121309523Y-32977200D01*
X121309523Y-32977200D02*
X121166666Y-33024819D01*
X121166666Y-33024819D02*
X121071428Y-33024819D01*
X121071428Y-33024819D02*
X120928571Y-32977200D01*
X120928571Y-32977200D02*
X120833333Y-32881961D01*
X120833333Y-32881961D02*
X120785714Y-32786723D01*
X120785714Y-32786723D02*
X120738095Y-32596247D01*
X120738095Y-32596247D02*
X120738095Y-32453390D01*
X120738095Y-32453390D02*
X120785714Y-32262914D01*
X120785714Y-32262914D02*
X120833333Y-32167676D01*
X120833333Y-32167676D02*
X120928571Y-32072438D01*
X120928571Y-32072438D02*
X121071428Y-32024819D01*
X121071428Y-32024819D02*
X121166666Y-32024819D01*
X121166666Y-32024819D02*
X121309523Y-32072438D01*
X121309523Y-32072438D02*
X121357142Y-32120057D01*
X121833333Y-33024819D02*
X122023809Y-33024819D01*
X122023809Y-33024819D02*
X122119047Y-32977200D01*
X122119047Y-32977200D02*
X122166666Y-32929580D01*
X122166666Y-32929580D02*
X122261904Y-32786723D01*
X122261904Y-32786723D02*
X122309523Y-32596247D01*
X122309523Y-32596247D02*
X122309523Y-32215295D01*
X122309523Y-32215295D02*
X122261904Y-32120057D01*
X122261904Y-32120057D02*
X122214285Y-32072438D01*
X122214285Y-32072438D02*
X122119047Y-32024819D01*
X122119047Y-32024819D02*
X121928571Y-32024819D01*
X121928571Y-32024819D02*
X121833333Y-32072438D01*
X121833333Y-32072438D02*
X121785714Y-32120057D01*
X121785714Y-32120057D02*
X121738095Y-32215295D01*
X121738095Y-32215295D02*
X121738095Y-32453390D01*
X121738095Y-32453390D02*
X121785714Y-32548628D01*
X121785714Y-32548628D02*
X121833333Y-32596247D01*
X121833333Y-32596247D02*
X121928571Y-32643866D01*
X121928571Y-32643866D02*
X122119047Y-32643866D01*
X122119047Y-32643866D02*
X122214285Y-32596247D01*
X122214285Y-32596247D02*
X122261904Y-32548628D01*
X122261904Y-32548628D02*
X122309523Y-32453390D01*
X123166666Y-32358152D02*
X123166666Y-33024819D01*
X122928571Y-31977200D02*
X122690476Y-32691485D01*
X122690476Y-32691485D02*
X123309523Y-32691485D01*
X151666666Y-10704819D02*
X151666666Y-11419104D01*
X151666666Y-11419104D02*
X151619047Y-11561961D01*
X151619047Y-11561961D02*
X151523809Y-11657200D01*
X151523809Y-11657200D02*
X151380952Y-11704819D01*
X151380952Y-11704819D02*
X151285714Y-11704819D01*
X152095238Y-10800057D02*
X152142857Y-10752438D01*
X152142857Y-10752438D02*
X152238095Y-10704819D01*
X152238095Y-10704819D02*
X152476190Y-10704819D01*
X152476190Y-10704819D02*
X152571428Y-10752438D01*
X152571428Y-10752438D02*
X152619047Y-10800057D01*
X152619047Y-10800057D02*
X152666666Y-10895295D01*
X152666666Y-10895295D02*
X152666666Y-10990533D01*
X152666666Y-10990533D02*
X152619047Y-11133390D01*
X152619047Y-11133390D02*
X152047619Y-11704819D01*
X152047619Y-11704819D02*
X152666666Y-11704819D01*
X121238095Y-37654819D02*
X121238095Y-38464342D01*
X121238095Y-38464342D02*
X121285714Y-38559580D01*
X121285714Y-38559580D02*
X121333333Y-38607200D01*
X121333333Y-38607200D02*
X121428571Y-38654819D01*
X121428571Y-38654819D02*
X121619047Y-38654819D01*
X121619047Y-38654819D02*
X121714285Y-38607200D01*
X121714285Y-38607200D02*
X121761904Y-38559580D01*
X121761904Y-38559580D02*
X121809523Y-38464342D01*
X121809523Y-38464342D02*
X121809523Y-37654819D01*
X122714285Y-37988152D02*
X122714285Y-38654819D01*
X122476190Y-37607200D02*
X122238095Y-38321485D01*
X122238095Y-38321485D02*
X122857142Y-38321485D01*
X29833333Y-91024819D02*
X29500000Y-90548628D01*
X29261905Y-91024819D02*
X29261905Y-90024819D01*
X29261905Y-90024819D02*
X29642857Y-90024819D01*
X29642857Y-90024819D02*
X29738095Y-90072438D01*
X29738095Y-90072438D02*
X29785714Y-90120057D01*
X29785714Y-90120057D02*
X29833333Y-90215295D01*
X29833333Y-90215295D02*
X29833333Y-90358152D01*
X29833333Y-90358152D02*
X29785714Y-90453390D01*
X29785714Y-90453390D02*
X29738095Y-90501009D01*
X29738095Y-90501009D02*
X29642857Y-90548628D01*
X29642857Y-90548628D02*
X29261905Y-90548628D01*
X30690476Y-90024819D02*
X30500000Y-90024819D01*
X30500000Y-90024819D02*
X30404762Y-90072438D01*
X30404762Y-90072438D02*
X30357143Y-90120057D01*
X30357143Y-90120057D02*
X30261905Y-90262914D01*
X30261905Y-90262914D02*
X30214286Y-90453390D01*
X30214286Y-90453390D02*
X30214286Y-90834342D01*
X30214286Y-90834342D02*
X30261905Y-90929580D01*
X30261905Y-90929580D02*
X30309524Y-90977200D01*
X30309524Y-90977200D02*
X30404762Y-91024819D01*
X30404762Y-91024819D02*
X30595238Y-91024819D01*
X30595238Y-91024819D02*
X30690476Y-90977200D01*
X30690476Y-90977200D02*
X30738095Y-90929580D01*
X30738095Y-90929580D02*
X30785714Y-90834342D01*
X30785714Y-90834342D02*
X30785714Y-90596247D01*
X30785714Y-90596247D02*
X30738095Y-90501009D01*
X30738095Y-90501009D02*
X30690476Y-90453390D01*
X30690476Y-90453390D02*
X30595238Y-90405771D01*
X30595238Y-90405771D02*
X30404762Y-90405771D01*
X30404762Y-90405771D02*
X30309524Y-90453390D01*
X30309524Y-90453390D02*
X30261905Y-90501009D01*
X30261905Y-90501009D02*
X30214286Y-90596247D01*
X80880952Y-8929580D02*
X80833333Y-8977200D01*
X80833333Y-8977200D02*
X80690476Y-9024819D01*
X80690476Y-9024819D02*
X80595238Y-9024819D01*
X80595238Y-9024819D02*
X80452381Y-8977200D01*
X80452381Y-8977200D02*
X80357143Y-8881961D01*
X80357143Y-8881961D02*
X80309524Y-8786723D01*
X80309524Y-8786723D02*
X80261905Y-8596247D01*
X80261905Y-8596247D02*
X80261905Y-8453390D01*
X80261905Y-8453390D02*
X80309524Y-8262914D01*
X80309524Y-8262914D02*
X80357143Y-8167676D01*
X80357143Y-8167676D02*
X80452381Y-8072438D01*
X80452381Y-8072438D02*
X80595238Y-8024819D01*
X80595238Y-8024819D02*
X80690476Y-8024819D01*
X80690476Y-8024819D02*
X80833333Y-8072438D01*
X80833333Y-8072438D02*
X80880952Y-8120057D01*
X81833333Y-9024819D02*
X81261905Y-9024819D01*
X81547619Y-9024819D02*
X81547619Y-8024819D01*
X81547619Y-8024819D02*
X81452381Y-8167676D01*
X81452381Y-8167676D02*
X81357143Y-8262914D01*
X81357143Y-8262914D02*
X81261905Y-8310533D01*
X82452381Y-8024819D02*
X82547619Y-8024819D01*
X82547619Y-8024819D02*
X82642857Y-8072438D01*
X82642857Y-8072438D02*
X82690476Y-8120057D01*
X82690476Y-8120057D02*
X82738095Y-8215295D01*
X82738095Y-8215295D02*
X82785714Y-8405771D01*
X82785714Y-8405771D02*
X82785714Y-8643866D01*
X82785714Y-8643866D02*
X82738095Y-8834342D01*
X82738095Y-8834342D02*
X82690476Y-8929580D01*
X82690476Y-8929580D02*
X82642857Y-8977200D01*
X82642857Y-8977200D02*
X82547619Y-9024819D01*
X82547619Y-9024819D02*
X82452381Y-9024819D01*
X82452381Y-9024819D02*
X82357143Y-8977200D01*
X82357143Y-8977200D02*
X82309524Y-8929580D01*
X82309524Y-8929580D02*
X82261905Y-8834342D01*
X82261905Y-8834342D02*
X82214286Y-8643866D01*
X82214286Y-8643866D02*
X82214286Y-8405771D01*
X82214286Y-8405771D02*
X82261905Y-8215295D01*
X82261905Y-8215295D02*
X82309524Y-8120057D01*
X82309524Y-8120057D02*
X82357143Y-8072438D01*
X82357143Y-8072438D02*
X82452381Y-8024819D01*
X83166667Y-8120057D02*
X83214286Y-8072438D01*
X83214286Y-8072438D02*
X83309524Y-8024819D01*
X83309524Y-8024819D02*
X83547619Y-8024819D01*
X83547619Y-8024819D02*
X83642857Y-8072438D01*
X83642857Y-8072438D02*
X83690476Y-8120057D01*
X83690476Y-8120057D02*
X83738095Y-8215295D01*
X83738095Y-8215295D02*
X83738095Y-8310533D01*
X83738095Y-8310533D02*
X83690476Y-8453390D01*
X83690476Y-8453390D02*
X83119048Y-9024819D01*
X83119048Y-9024819D02*
X83738095Y-9024819D01*
X11357142Y-87024819D02*
X11023809Y-86548628D01*
X10785714Y-87024819D02*
X10785714Y-86024819D01*
X10785714Y-86024819D02*
X11166666Y-86024819D01*
X11166666Y-86024819D02*
X11261904Y-86072438D01*
X11261904Y-86072438D02*
X11309523Y-86120057D01*
X11309523Y-86120057D02*
X11357142Y-86215295D01*
X11357142Y-86215295D02*
X11357142Y-86358152D01*
X11357142Y-86358152D02*
X11309523Y-86453390D01*
X11309523Y-86453390D02*
X11261904Y-86501009D01*
X11261904Y-86501009D02*
X11166666Y-86548628D01*
X11166666Y-86548628D02*
X10785714Y-86548628D01*
X11690476Y-86024819D02*
X12309523Y-86024819D01*
X12309523Y-86024819D02*
X11976190Y-86405771D01*
X11976190Y-86405771D02*
X12119047Y-86405771D01*
X12119047Y-86405771D02*
X12214285Y-86453390D01*
X12214285Y-86453390D02*
X12261904Y-86501009D01*
X12261904Y-86501009D02*
X12309523Y-86596247D01*
X12309523Y-86596247D02*
X12309523Y-86834342D01*
X12309523Y-86834342D02*
X12261904Y-86929580D01*
X12261904Y-86929580D02*
X12214285Y-86977200D01*
X12214285Y-86977200D02*
X12119047Y-87024819D01*
X12119047Y-87024819D02*
X11833333Y-87024819D01*
X11833333Y-87024819D02*
X11738095Y-86977200D01*
X11738095Y-86977200D02*
X11690476Y-86929580D01*
X12642857Y-86024819D02*
X13309523Y-86024819D01*
X13309523Y-86024819D02*
X12880952Y-87024819D01*
X117357142Y-24929580D02*
X117309523Y-24977200D01*
X117309523Y-24977200D02*
X117166666Y-25024819D01*
X117166666Y-25024819D02*
X117071428Y-25024819D01*
X117071428Y-25024819D02*
X116928571Y-24977200D01*
X116928571Y-24977200D02*
X116833333Y-24881961D01*
X116833333Y-24881961D02*
X116785714Y-24786723D01*
X116785714Y-24786723D02*
X116738095Y-24596247D01*
X116738095Y-24596247D02*
X116738095Y-24453390D01*
X116738095Y-24453390D02*
X116785714Y-24262914D01*
X116785714Y-24262914D02*
X116833333Y-24167676D01*
X116833333Y-24167676D02*
X116928571Y-24072438D01*
X116928571Y-24072438D02*
X117071428Y-24024819D01*
X117071428Y-24024819D02*
X117166666Y-24024819D01*
X117166666Y-24024819D02*
X117309523Y-24072438D01*
X117309523Y-24072438D02*
X117357142Y-24120057D01*
X117833333Y-25024819D02*
X118023809Y-25024819D01*
X118023809Y-25024819D02*
X118119047Y-24977200D01*
X118119047Y-24977200D02*
X118166666Y-24929580D01*
X118166666Y-24929580D02*
X118261904Y-24786723D01*
X118261904Y-24786723D02*
X118309523Y-24596247D01*
X118309523Y-24596247D02*
X118309523Y-24215295D01*
X118309523Y-24215295D02*
X118261904Y-24120057D01*
X118261904Y-24120057D02*
X118214285Y-24072438D01*
X118214285Y-24072438D02*
X118119047Y-24024819D01*
X118119047Y-24024819D02*
X117928571Y-24024819D01*
X117928571Y-24024819D02*
X117833333Y-24072438D01*
X117833333Y-24072438D02*
X117785714Y-24120057D01*
X117785714Y-24120057D02*
X117738095Y-24215295D01*
X117738095Y-24215295D02*
X117738095Y-24453390D01*
X117738095Y-24453390D02*
X117785714Y-24548628D01*
X117785714Y-24548628D02*
X117833333Y-24596247D01*
X117833333Y-24596247D02*
X117928571Y-24643866D01*
X117928571Y-24643866D02*
X118119047Y-24643866D01*
X118119047Y-24643866D02*
X118214285Y-24596247D01*
X118214285Y-24596247D02*
X118261904Y-24548628D01*
X118261904Y-24548628D02*
X118309523Y-24453390D01*
X118642857Y-24024819D02*
X119261904Y-24024819D01*
X119261904Y-24024819D02*
X118928571Y-24405771D01*
X118928571Y-24405771D02*
X119071428Y-24405771D01*
X119071428Y-24405771D02*
X119166666Y-24453390D01*
X119166666Y-24453390D02*
X119214285Y-24501009D01*
X119214285Y-24501009D02*
X119261904Y-24596247D01*
X119261904Y-24596247D02*
X119261904Y-24834342D01*
X119261904Y-24834342D02*
X119214285Y-24929580D01*
X119214285Y-24929580D02*
X119166666Y-24977200D01*
X119166666Y-24977200D02*
X119071428Y-25024819D01*
X119071428Y-25024819D02*
X118785714Y-25024819D01*
X118785714Y-25024819D02*
X118690476Y-24977200D01*
X118690476Y-24977200D02*
X118642857Y-24929580D01*
X127357142Y-42929580D02*
X127309523Y-42977200D01*
X127309523Y-42977200D02*
X127166666Y-43024819D01*
X127166666Y-43024819D02*
X127071428Y-43024819D01*
X127071428Y-43024819D02*
X126928571Y-42977200D01*
X126928571Y-42977200D02*
X126833333Y-42881961D01*
X126833333Y-42881961D02*
X126785714Y-42786723D01*
X126785714Y-42786723D02*
X126738095Y-42596247D01*
X126738095Y-42596247D02*
X126738095Y-42453390D01*
X126738095Y-42453390D02*
X126785714Y-42262914D01*
X126785714Y-42262914D02*
X126833333Y-42167676D01*
X126833333Y-42167676D02*
X126928571Y-42072438D01*
X126928571Y-42072438D02*
X127071428Y-42024819D01*
X127071428Y-42024819D02*
X127166666Y-42024819D01*
X127166666Y-42024819D02*
X127309523Y-42072438D01*
X127309523Y-42072438D02*
X127357142Y-42120057D01*
X127833333Y-43024819D02*
X128023809Y-43024819D01*
X128023809Y-43024819D02*
X128119047Y-42977200D01*
X128119047Y-42977200D02*
X128166666Y-42929580D01*
X128166666Y-42929580D02*
X128261904Y-42786723D01*
X128261904Y-42786723D02*
X128309523Y-42596247D01*
X128309523Y-42596247D02*
X128309523Y-42215295D01*
X128309523Y-42215295D02*
X128261904Y-42120057D01*
X128261904Y-42120057D02*
X128214285Y-42072438D01*
X128214285Y-42072438D02*
X128119047Y-42024819D01*
X128119047Y-42024819D02*
X127928571Y-42024819D01*
X127928571Y-42024819D02*
X127833333Y-42072438D01*
X127833333Y-42072438D02*
X127785714Y-42120057D01*
X127785714Y-42120057D02*
X127738095Y-42215295D01*
X127738095Y-42215295D02*
X127738095Y-42453390D01*
X127738095Y-42453390D02*
X127785714Y-42548628D01*
X127785714Y-42548628D02*
X127833333Y-42596247D01*
X127833333Y-42596247D02*
X127928571Y-42643866D01*
X127928571Y-42643866D02*
X128119047Y-42643866D01*
X128119047Y-42643866D02*
X128214285Y-42596247D01*
X128214285Y-42596247D02*
X128261904Y-42548628D01*
X128261904Y-42548628D02*
X128309523Y-42453390D01*
X128642857Y-42024819D02*
X129309523Y-42024819D01*
X129309523Y-42024819D02*
X128880952Y-43024819D01*
X11833333Y-91024819D02*
X11500000Y-90548628D01*
X11261905Y-91024819D02*
X11261905Y-90024819D01*
X11261905Y-90024819D02*
X11642857Y-90024819D01*
X11642857Y-90024819D02*
X11738095Y-90072438D01*
X11738095Y-90072438D02*
X11785714Y-90120057D01*
X11785714Y-90120057D02*
X11833333Y-90215295D01*
X11833333Y-90215295D02*
X11833333Y-90358152D01*
X11833333Y-90358152D02*
X11785714Y-90453390D01*
X11785714Y-90453390D02*
X11738095Y-90501009D01*
X11738095Y-90501009D02*
X11642857Y-90548628D01*
X11642857Y-90548628D02*
X11261905Y-90548628D01*
X12738095Y-90024819D02*
X12261905Y-90024819D01*
X12261905Y-90024819D02*
X12214286Y-90501009D01*
X12214286Y-90501009D02*
X12261905Y-90453390D01*
X12261905Y-90453390D02*
X12357143Y-90405771D01*
X12357143Y-90405771D02*
X12595238Y-90405771D01*
X12595238Y-90405771D02*
X12690476Y-90453390D01*
X12690476Y-90453390D02*
X12738095Y-90501009D01*
X12738095Y-90501009D02*
X12785714Y-90596247D01*
X12785714Y-90596247D02*
X12785714Y-90834342D01*
X12785714Y-90834342D02*
X12738095Y-90929580D01*
X12738095Y-90929580D02*
X12690476Y-90977200D01*
X12690476Y-90977200D02*
X12595238Y-91024819D01*
X12595238Y-91024819D02*
X12357143Y-91024819D01*
X12357143Y-91024819D02*
X12261905Y-90977200D01*
X12261905Y-90977200D02*
X12214286Y-90929580D01*
X101833333Y-86024819D02*
X101500000Y-85548628D01*
X101261905Y-86024819D02*
X101261905Y-85024819D01*
X101261905Y-85024819D02*
X101642857Y-85024819D01*
X101642857Y-85024819D02*
X101738095Y-85072438D01*
X101738095Y-85072438D02*
X101785714Y-85120057D01*
X101785714Y-85120057D02*
X101833333Y-85215295D01*
X101833333Y-85215295D02*
X101833333Y-85358152D01*
X101833333Y-85358152D02*
X101785714Y-85453390D01*
X101785714Y-85453390D02*
X101738095Y-85501009D01*
X101738095Y-85501009D02*
X101642857Y-85548628D01*
X101642857Y-85548628D02*
X101261905Y-85548628D01*
X102214286Y-85120057D02*
X102261905Y-85072438D01*
X102261905Y-85072438D02*
X102357143Y-85024819D01*
X102357143Y-85024819D02*
X102595238Y-85024819D01*
X102595238Y-85024819D02*
X102690476Y-85072438D01*
X102690476Y-85072438D02*
X102738095Y-85120057D01*
X102738095Y-85120057D02*
X102785714Y-85215295D01*
X102785714Y-85215295D02*
X102785714Y-85310533D01*
X102785714Y-85310533D02*
X102738095Y-85453390D01*
X102738095Y-85453390D02*
X102166667Y-86024819D01*
X102166667Y-86024819D02*
X102785714Y-86024819D01*
X119833333Y-86024819D02*
X119500000Y-85548628D01*
X119261905Y-86024819D02*
X119261905Y-85024819D01*
X119261905Y-85024819D02*
X119642857Y-85024819D01*
X119642857Y-85024819D02*
X119738095Y-85072438D01*
X119738095Y-85072438D02*
X119785714Y-85120057D01*
X119785714Y-85120057D02*
X119833333Y-85215295D01*
X119833333Y-85215295D02*
X119833333Y-85358152D01*
X119833333Y-85358152D02*
X119785714Y-85453390D01*
X119785714Y-85453390D02*
X119738095Y-85501009D01*
X119738095Y-85501009D02*
X119642857Y-85548628D01*
X119642857Y-85548628D02*
X119261905Y-85548628D01*
X120166667Y-85024819D02*
X120785714Y-85024819D01*
X120785714Y-85024819D02*
X120452381Y-85405771D01*
X120452381Y-85405771D02*
X120595238Y-85405771D01*
X120595238Y-85405771D02*
X120690476Y-85453390D01*
X120690476Y-85453390D02*
X120738095Y-85501009D01*
X120738095Y-85501009D02*
X120785714Y-85596247D01*
X120785714Y-85596247D02*
X120785714Y-85834342D01*
X120785714Y-85834342D02*
X120738095Y-85929580D01*
X120738095Y-85929580D02*
X120690476Y-85977200D01*
X120690476Y-85977200D02*
X120595238Y-86024819D01*
X120595238Y-86024819D02*
X120309524Y-86024819D01*
X120309524Y-86024819D02*
X120214286Y-85977200D01*
X120214286Y-85977200D02*
X120166667Y-85929580D01*
X83833333Y-91024819D02*
X83500000Y-90548628D01*
X83261905Y-91024819D02*
X83261905Y-90024819D01*
X83261905Y-90024819D02*
X83642857Y-90024819D01*
X83642857Y-90024819D02*
X83738095Y-90072438D01*
X83738095Y-90072438D02*
X83785714Y-90120057D01*
X83785714Y-90120057D02*
X83833333Y-90215295D01*
X83833333Y-90215295D02*
X83833333Y-90358152D01*
X83833333Y-90358152D02*
X83785714Y-90453390D01*
X83785714Y-90453390D02*
X83738095Y-90501009D01*
X83738095Y-90501009D02*
X83642857Y-90548628D01*
X83642857Y-90548628D02*
X83261905Y-90548628D01*
X84309524Y-91024819D02*
X84500000Y-91024819D01*
X84500000Y-91024819D02*
X84595238Y-90977200D01*
X84595238Y-90977200D02*
X84642857Y-90929580D01*
X84642857Y-90929580D02*
X84738095Y-90786723D01*
X84738095Y-90786723D02*
X84785714Y-90596247D01*
X84785714Y-90596247D02*
X84785714Y-90215295D01*
X84785714Y-90215295D02*
X84738095Y-90120057D01*
X84738095Y-90120057D02*
X84690476Y-90072438D01*
X84690476Y-90072438D02*
X84595238Y-90024819D01*
X84595238Y-90024819D02*
X84404762Y-90024819D01*
X84404762Y-90024819D02*
X84309524Y-90072438D01*
X84309524Y-90072438D02*
X84261905Y-90120057D01*
X84261905Y-90120057D02*
X84214286Y-90215295D01*
X84214286Y-90215295D02*
X84214286Y-90453390D01*
X84214286Y-90453390D02*
X84261905Y-90548628D01*
X84261905Y-90548628D02*
X84309524Y-90596247D01*
X84309524Y-90596247D02*
X84404762Y-90643866D01*
X84404762Y-90643866D02*
X84595238Y-90643866D01*
X84595238Y-90643866D02*
X84690476Y-90596247D01*
X84690476Y-90596247D02*
X84738095Y-90548628D01*
X84738095Y-90548628D02*
X84785714Y-90453390D01*
X71238095Y-10054819D02*
X71238095Y-10864342D01*
X71238095Y-10864342D02*
X71285714Y-10959580D01*
X71285714Y-10959580D02*
X71333333Y-11007200D01*
X71333333Y-11007200D02*
X71428571Y-11054819D01*
X71428571Y-11054819D02*
X71619047Y-11054819D01*
X71619047Y-11054819D02*
X71714285Y-11007200D01*
X71714285Y-11007200D02*
X71761904Y-10959580D01*
X71761904Y-10959580D02*
X71809523Y-10864342D01*
X71809523Y-10864342D02*
X71809523Y-10054819D01*
X72190476Y-10054819D02*
X72857142Y-10054819D01*
X72857142Y-10054819D02*
X72428571Y-11054819D01*
X119357142Y-91024819D02*
X119023809Y-90548628D01*
X118785714Y-91024819D02*
X118785714Y-90024819D01*
X118785714Y-90024819D02*
X119166666Y-90024819D01*
X119166666Y-90024819D02*
X119261904Y-90072438D01*
X119261904Y-90072438D02*
X119309523Y-90120057D01*
X119309523Y-90120057D02*
X119357142Y-90215295D01*
X119357142Y-90215295D02*
X119357142Y-90358152D01*
X119357142Y-90358152D02*
X119309523Y-90453390D01*
X119309523Y-90453390D02*
X119261904Y-90501009D01*
X119261904Y-90501009D02*
X119166666Y-90548628D01*
X119166666Y-90548628D02*
X118785714Y-90548628D01*
X119738095Y-90120057D02*
X119785714Y-90072438D01*
X119785714Y-90072438D02*
X119880952Y-90024819D01*
X119880952Y-90024819D02*
X120119047Y-90024819D01*
X120119047Y-90024819D02*
X120214285Y-90072438D01*
X120214285Y-90072438D02*
X120261904Y-90120057D01*
X120261904Y-90120057D02*
X120309523Y-90215295D01*
X120309523Y-90215295D02*
X120309523Y-90310533D01*
X120309523Y-90310533D02*
X120261904Y-90453390D01*
X120261904Y-90453390D02*
X119690476Y-91024819D01*
X119690476Y-91024819D02*
X120309523Y-91024819D01*
X121261904Y-91024819D02*
X120690476Y-91024819D01*
X120976190Y-91024819D02*
X120976190Y-90024819D01*
X120976190Y-90024819D02*
X120880952Y-90167676D01*
X120880952Y-90167676D02*
X120785714Y-90262914D01*
X120785714Y-90262914D02*
X120690476Y-90310533D01*
X65833333Y-91024819D02*
X65500000Y-90548628D01*
X65261905Y-91024819D02*
X65261905Y-90024819D01*
X65261905Y-90024819D02*
X65642857Y-90024819D01*
X65642857Y-90024819D02*
X65738095Y-90072438D01*
X65738095Y-90072438D02*
X65785714Y-90120057D01*
X65785714Y-90120057D02*
X65833333Y-90215295D01*
X65833333Y-90215295D02*
X65833333Y-90358152D01*
X65833333Y-90358152D02*
X65785714Y-90453390D01*
X65785714Y-90453390D02*
X65738095Y-90501009D01*
X65738095Y-90501009D02*
X65642857Y-90548628D01*
X65642857Y-90548628D02*
X65261905Y-90548628D01*
X66404762Y-90453390D02*
X66309524Y-90405771D01*
X66309524Y-90405771D02*
X66261905Y-90358152D01*
X66261905Y-90358152D02*
X66214286Y-90262914D01*
X66214286Y-90262914D02*
X66214286Y-90215295D01*
X66214286Y-90215295D02*
X66261905Y-90120057D01*
X66261905Y-90120057D02*
X66309524Y-90072438D01*
X66309524Y-90072438D02*
X66404762Y-90024819D01*
X66404762Y-90024819D02*
X66595238Y-90024819D01*
X66595238Y-90024819D02*
X66690476Y-90072438D01*
X66690476Y-90072438D02*
X66738095Y-90120057D01*
X66738095Y-90120057D02*
X66785714Y-90215295D01*
X66785714Y-90215295D02*
X66785714Y-90262914D01*
X66785714Y-90262914D02*
X66738095Y-90358152D01*
X66738095Y-90358152D02*
X66690476Y-90405771D01*
X66690476Y-90405771D02*
X66595238Y-90453390D01*
X66595238Y-90453390D02*
X66404762Y-90453390D01*
X66404762Y-90453390D02*
X66309524Y-90501009D01*
X66309524Y-90501009D02*
X66261905Y-90548628D01*
X66261905Y-90548628D02*
X66214286Y-90643866D01*
X66214286Y-90643866D02*
X66214286Y-90834342D01*
X66214286Y-90834342D02*
X66261905Y-90929580D01*
X66261905Y-90929580D02*
X66309524Y-90977200D01*
X66309524Y-90977200D02*
X66404762Y-91024819D01*
X66404762Y-91024819D02*
X66595238Y-91024819D01*
X66595238Y-91024819D02*
X66690476Y-90977200D01*
X66690476Y-90977200D02*
X66738095Y-90929580D01*
X66738095Y-90929580D02*
X66785714Y-90834342D01*
X66785714Y-90834342D02*
X66785714Y-90643866D01*
X66785714Y-90643866D02*
X66738095Y-90548628D01*
X66738095Y-90548628D02*
X66690476Y-90501009D01*
X66690476Y-90501009D02*
X66595238Y-90453390D01*
X75761905Y-77954819D02*
X75761905Y-76954819D01*
X76333333Y-77954819D02*
X75904762Y-77383390D01*
X76333333Y-76954819D02*
X75761905Y-77526247D01*
X76714286Y-77050057D02*
X76761905Y-77002438D01*
X76761905Y-77002438D02*
X76857143Y-76954819D01*
X76857143Y-76954819D02*
X77095238Y-76954819D01*
X77095238Y-76954819D02*
X77190476Y-77002438D01*
X77190476Y-77002438D02*
X77238095Y-77050057D01*
X77238095Y-77050057D02*
X77285714Y-77145295D01*
X77285714Y-77145295D02*
X77285714Y-77240533D01*
X77285714Y-77240533D02*
X77238095Y-77383390D01*
X77238095Y-77383390D02*
X76666667Y-77954819D01*
X76666667Y-77954819D02*
X77285714Y-77954819D01*
X121357142Y-60844819D02*
X121023809Y-60368628D01*
X120785714Y-60844819D02*
X120785714Y-59844819D01*
X120785714Y-59844819D02*
X121166666Y-59844819D01*
X121166666Y-59844819D02*
X121261904Y-59892438D01*
X121261904Y-59892438D02*
X121309523Y-59940057D01*
X121309523Y-59940057D02*
X121357142Y-60035295D01*
X121357142Y-60035295D02*
X121357142Y-60178152D01*
X121357142Y-60178152D02*
X121309523Y-60273390D01*
X121309523Y-60273390D02*
X121261904Y-60321009D01*
X121261904Y-60321009D02*
X121166666Y-60368628D01*
X121166666Y-60368628D02*
X120785714Y-60368628D01*
X122309523Y-60844819D02*
X121738095Y-60844819D01*
X122023809Y-60844819D02*
X122023809Y-59844819D01*
X122023809Y-59844819D02*
X121928571Y-59987676D01*
X121928571Y-59987676D02*
X121833333Y-60082914D01*
X121833333Y-60082914D02*
X121738095Y-60130533D01*
X122928571Y-59844819D02*
X123023809Y-59844819D01*
X123023809Y-59844819D02*
X123119047Y-59892438D01*
X123119047Y-59892438D02*
X123166666Y-59940057D01*
X123166666Y-59940057D02*
X123214285Y-60035295D01*
X123214285Y-60035295D02*
X123261904Y-60225771D01*
X123261904Y-60225771D02*
X123261904Y-60463866D01*
X123261904Y-60463866D02*
X123214285Y-60654342D01*
X123214285Y-60654342D02*
X123166666Y-60749580D01*
X123166666Y-60749580D02*
X123119047Y-60797200D01*
X123119047Y-60797200D02*
X123023809Y-60844819D01*
X123023809Y-60844819D02*
X122928571Y-60844819D01*
X122928571Y-60844819D02*
X122833333Y-60797200D01*
X122833333Y-60797200D02*
X122785714Y-60749580D01*
X122785714Y-60749580D02*
X122738095Y-60654342D01*
X122738095Y-60654342D02*
X122690476Y-60463866D01*
X122690476Y-60463866D02*
X122690476Y-60225771D01*
X122690476Y-60225771D02*
X122738095Y-60035295D01*
X122738095Y-60035295D02*
X122785714Y-59940057D01*
X122785714Y-59940057D02*
X122833333Y-59892438D01*
X122833333Y-59892438D02*
X122928571Y-59844819D01*
X83357142Y-95024819D02*
X83023809Y-94548628D01*
X82785714Y-95024819D02*
X82785714Y-94024819D01*
X82785714Y-94024819D02*
X83166666Y-94024819D01*
X83166666Y-94024819D02*
X83261904Y-94072438D01*
X83261904Y-94072438D02*
X83309523Y-94120057D01*
X83309523Y-94120057D02*
X83357142Y-94215295D01*
X83357142Y-94215295D02*
X83357142Y-94358152D01*
X83357142Y-94358152D02*
X83309523Y-94453390D01*
X83309523Y-94453390D02*
X83261904Y-94501009D01*
X83261904Y-94501009D02*
X83166666Y-94548628D01*
X83166666Y-94548628D02*
X82785714Y-94548628D01*
X84309523Y-95024819D02*
X83738095Y-95024819D01*
X84023809Y-95024819D02*
X84023809Y-94024819D01*
X84023809Y-94024819D02*
X83928571Y-94167676D01*
X83928571Y-94167676D02*
X83833333Y-94262914D01*
X83833333Y-94262914D02*
X83738095Y-94310533D01*
X84785714Y-95024819D02*
X84976190Y-95024819D01*
X84976190Y-95024819D02*
X85071428Y-94977200D01*
X85071428Y-94977200D02*
X85119047Y-94929580D01*
X85119047Y-94929580D02*
X85214285Y-94786723D01*
X85214285Y-94786723D02*
X85261904Y-94596247D01*
X85261904Y-94596247D02*
X85261904Y-94215295D01*
X85261904Y-94215295D02*
X85214285Y-94120057D01*
X85214285Y-94120057D02*
X85166666Y-94072438D01*
X85166666Y-94072438D02*
X85071428Y-94024819D01*
X85071428Y-94024819D02*
X84880952Y-94024819D01*
X84880952Y-94024819D02*
X84785714Y-94072438D01*
X84785714Y-94072438D02*
X84738095Y-94120057D01*
X84738095Y-94120057D02*
X84690476Y-94215295D01*
X84690476Y-94215295D02*
X84690476Y-94453390D01*
X84690476Y-94453390D02*
X84738095Y-94548628D01*
X84738095Y-94548628D02*
X84785714Y-94596247D01*
X84785714Y-94596247D02*
X84880952Y-94643866D01*
X84880952Y-94643866D02*
X85071428Y-94643866D01*
X85071428Y-94643866D02*
X85166666Y-94596247D01*
X85166666Y-94596247D02*
X85214285Y-94548628D01*
X85214285Y-94548628D02*
X85261904Y-94453390D01*
X89833333Y-86024819D02*
X89500000Y-85548628D01*
X89261905Y-86024819D02*
X89261905Y-85024819D01*
X89261905Y-85024819D02*
X89642857Y-85024819D01*
X89642857Y-85024819D02*
X89738095Y-85072438D01*
X89738095Y-85072438D02*
X89785714Y-85120057D01*
X89785714Y-85120057D02*
X89833333Y-85215295D01*
X89833333Y-85215295D02*
X89833333Y-85358152D01*
X89833333Y-85358152D02*
X89785714Y-85453390D01*
X89785714Y-85453390D02*
X89738095Y-85501009D01*
X89738095Y-85501009D02*
X89642857Y-85548628D01*
X89642857Y-85548628D02*
X89261905Y-85548628D01*
X90785714Y-86024819D02*
X90214286Y-86024819D01*
X90500000Y-86024819D02*
X90500000Y-85024819D01*
X90500000Y-85024819D02*
X90404762Y-85167676D01*
X90404762Y-85167676D02*
X90309524Y-85262914D01*
X90309524Y-85262914D02*
X90214286Y-85310533D01*
X137833333Y-86024819D02*
X137500000Y-85548628D01*
X137261905Y-86024819D02*
X137261905Y-85024819D01*
X137261905Y-85024819D02*
X137642857Y-85024819D01*
X137642857Y-85024819D02*
X137738095Y-85072438D01*
X137738095Y-85072438D02*
X137785714Y-85120057D01*
X137785714Y-85120057D02*
X137833333Y-85215295D01*
X137833333Y-85215295D02*
X137833333Y-85358152D01*
X137833333Y-85358152D02*
X137785714Y-85453390D01*
X137785714Y-85453390D02*
X137738095Y-85501009D01*
X137738095Y-85501009D02*
X137642857Y-85548628D01*
X137642857Y-85548628D02*
X137261905Y-85548628D01*
X138690476Y-85358152D02*
X138690476Y-86024819D01*
X138452381Y-84977200D02*
X138214286Y-85691485D01*
X138214286Y-85691485D02*
X138833333Y-85691485D01*
X71357142Y-91024819D02*
X71023809Y-90548628D01*
X70785714Y-91024819D02*
X70785714Y-90024819D01*
X70785714Y-90024819D02*
X71166666Y-90024819D01*
X71166666Y-90024819D02*
X71261904Y-90072438D01*
X71261904Y-90072438D02*
X71309523Y-90120057D01*
X71309523Y-90120057D02*
X71357142Y-90215295D01*
X71357142Y-90215295D02*
X71357142Y-90358152D01*
X71357142Y-90358152D02*
X71309523Y-90453390D01*
X71309523Y-90453390D02*
X71261904Y-90501009D01*
X71261904Y-90501009D02*
X71166666Y-90548628D01*
X71166666Y-90548628D02*
X70785714Y-90548628D01*
X72214285Y-90358152D02*
X72214285Y-91024819D01*
X71976190Y-89977200D02*
X71738095Y-90691485D01*
X71738095Y-90691485D02*
X72357142Y-90691485D01*
X72928571Y-90024819D02*
X73023809Y-90024819D01*
X73023809Y-90024819D02*
X73119047Y-90072438D01*
X73119047Y-90072438D02*
X73166666Y-90120057D01*
X73166666Y-90120057D02*
X73214285Y-90215295D01*
X73214285Y-90215295D02*
X73261904Y-90405771D01*
X73261904Y-90405771D02*
X73261904Y-90643866D01*
X73261904Y-90643866D02*
X73214285Y-90834342D01*
X73214285Y-90834342D02*
X73166666Y-90929580D01*
X73166666Y-90929580D02*
X73119047Y-90977200D01*
X73119047Y-90977200D02*
X73023809Y-91024819D01*
X73023809Y-91024819D02*
X72928571Y-91024819D01*
X72928571Y-91024819D02*
X72833333Y-90977200D01*
X72833333Y-90977200D02*
X72785714Y-90929580D01*
X72785714Y-90929580D02*
X72738095Y-90834342D01*
X72738095Y-90834342D02*
X72690476Y-90643866D01*
X72690476Y-90643866D02*
X72690476Y-90405771D01*
X72690476Y-90405771D02*
X72738095Y-90215295D01*
X72738095Y-90215295D02*
X72785714Y-90120057D01*
X72785714Y-90120057D02*
X72833333Y-90072438D01*
X72833333Y-90072438D02*
X72928571Y-90024819D01*
X11357142Y-95024819D02*
X11023809Y-94548628D01*
X10785714Y-95024819D02*
X10785714Y-94024819D01*
X10785714Y-94024819D02*
X11166666Y-94024819D01*
X11166666Y-94024819D02*
X11261904Y-94072438D01*
X11261904Y-94072438D02*
X11309523Y-94120057D01*
X11309523Y-94120057D02*
X11357142Y-94215295D01*
X11357142Y-94215295D02*
X11357142Y-94358152D01*
X11357142Y-94358152D02*
X11309523Y-94453390D01*
X11309523Y-94453390D02*
X11261904Y-94501009D01*
X11261904Y-94501009D02*
X11166666Y-94548628D01*
X11166666Y-94548628D02*
X10785714Y-94548628D01*
X11738095Y-94120057D02*
X11785714Y-94072438D01*
X11785714Y-94072438D02*
X11880952Y-94024819D01*
X11880952Y-94024819D02*
X12119047Y-94024819D01*
X12119047Y-94024819D02*
X12214285Y-94072438D01*
X12214285Y-94072438D02*
X12261904Y-94120057D01*
X12261904Y-94120057D02*
X12309523Y-94215295D01*
X12309523Y-94215295D02*
X12309523Y-94310533D01*
X12309523Y-94310533D02*
X12261904Y-94453390D01*
X12261904Y-94453390D02*
X11690476Y-95024819D01*
X11690476Y-95024819D02*
X12309523Y-95024819D01*
X12642857Y-94024819D02*
X13261904Y-94024819D01*
X13261904Y-94024819D02*
X12928571Y-94405771D01*
X12928571Y-94405771D02*
X13071428Y-94405771D01*
X13071428Y-94405771D02*
X13166666Y-94453390D01*
X13166666Y-94453390D02*
X13214285Y-94501009D01*
X13214285Y-94501009D02*
X13261904Y-94596247D01*
X13261904Y-94596247D02*
X13261904Y-94834342D01*
X13261904Y-94834342D02*
X13214285Y-94929580D01*
X13214285Y-94929580D02*
X13166666Y-94977200D01*
X13166666Y-94977200D02*
X13071428Y-95024819D01*
X13071428Y-95024819D02*
X12785714Y-95024819D01*
X12785714Y-95024819D02*
X12690476Y-94977200D01*
X12690476Y-94977200D02*
X12642857Y-94929580D01*
%TO.C,U3*%
D12*
X116640000Y-28640000D02*
X116865000Y-28640000D01*
X116640000Y-29115000D02*
X116640000Y-28640000D01*
X116640000Y-31360000D02*
X116640000Y-30885000D01*
X116865000Y-31360000D02*
X116640000Y-31360000D01*
X119135000Y-28640000D02*
X119360000Y-28640000D01*
X119360000Y-28640000D02*
X119360000Y-29115000D01*
X119360000Y-30885000D02*
X119360000Y-31360000D01*
X119360000Y-31360000D02*
X119135000Y-31360000D01*
X116140000Y-29500000D02*
X115810000Y-29740000D01*
X115810000Y-29260000D01*
X116140000Y-29500000D01*
G36*
X116140000Y-29500000D02*
G01*
X115810000Y-29740000D01*
X115810000Y-29260000D01*
X116140000Y-29500000D01*
G37*
%TO.C,R27*%
X89762742Y-91477500D02*
X90237258Y-91477500D01*
X89762742Y-92522500D02*
X90237258Y-92522500D01*
%TO.C,R34*%
X101762742Y-95477500D02*
X102237258Y-95477500D01*
X101762742Y-96522500D02*
X102237258Y-96522500D01*
%TO.C,MOV1*%
D10*
X28000000Y-37750000D02*
X28000000Y-42250000D01*
X28000000Y-37750000D02*
X43500000Y-37750000D01*
X28000000Y-42250000D02*
X43500000Y-42250000D01*
X43500000Y-37750000D02*
X43500000Y-42250000D01*
%TO.C,R13*%
D12*
X95762742Y-77107500D02*
X96237258Y-77107500D01*
X95762742Y-78152500D02*
X96237258Y-78152500D01*
%TO.C,F1*%
X19397936Y-11090000D02*
X20602064Y-11090000D01*
X19397936Y-12910000D02*
X20602064Y-12910000D01*
%TO.C,C100*%
X73859420Y-19490000D02*
X74140580Y-19490000D01*
X73859420Y-20510000D02*
X74140580Y-20510000D01*
%TO.C,R25*%
X47762742Y-87477500D02*
X48237258Y-87477500D01*
X47762742Y-88522500D02*
X48237258Y-88522500D01*
%TO.C,C101*%
X81859420Y-17490000D02*
X82140580Y-17490000D01*
X81859420Y-18510000D02*
X82140580Y-18510000D01*
%TO.C,R26*%
X61762742Y-87477500D02*
X62237258Y-87477500D01*
X61762742Y-88522500D02*
X62237258Y-88522500D01*
%TO.C,R17*%
X47762742Y-95477500D02*
X48237258Y-95477500D01*
X47762742Y-96522500D02*
X48237258Y-96522500D01*
%TO.C,C99*%
X67859420Y-7490000D02*
X68140580Y-7490000D01*
X67859420Y-8510000D02*
X68140580Y-8510000D01*
%TO.C,R22*%
X137762742Y-91477500D02*
X138237258Y-91477500D01*
X137762742Y-92522500D02*
X138237258Y-92522500D01*
%TO.C,R7*%
X47762742Y-91477500D02*
X48237258Y-91477500D01*
X47762742Y-92522500D02*
X48237258Y-92522500D01*
%TO.C,C91*%
X122859420Y-21490000D02*
X123140580Y-21490000D01*
X122859420Y-22510000D02*
X123140580Y-22510000D01*
%TO.C,C90*%
X93859420Y-81490000D02*
X94140580Y-81490000D01*
X93859420Y-82510000D02*
X94140580Y-82510000D01*
%TO.C,R35*%
X119762742Y-95477500D02*
X120237258Y-95477500D01*
X119762742Y-96522500D02*
X120237258Y-96522500D01*
%TO.C,C98*%
X127859420Y-35490000D02*
X128140580Y-35490000D01*
X127859420Y-36510000D02*
X128140580Y-36510000D01*
%TO.C,U6*%
X24190000Y-10140000D02*
X65410000Y-10140000D01*
X24190000Y-19704000D02*
X24190000Y-10140000D01*
X24190000Y-35860000D02*
X24190000Y-20296000D01*
X65410000Y-10140000D02*
X65410000Y-35860000D01*
X65410000Y-35860000D02*
X24190000Y-35860000D01*
X24190000Y-20000000D02*
X23580000Y-20440000D01*
X23580000Y-19560000D01*
X24190000Y-20000000D01*
G36*
X24190000Y-20000000D02*
G01*
X23580000Y-20440000D01*
X23580000Y-19560000D01*
X24190000Y-20000000D01*
G37*
%TO.C,R11*%
X121762742Y-76567500D02*
X122237258Y-76567500D01*
X121762742Y-77612500D02*
X122237258Y-77612500D01*
%TO.C,R18*%
X65762742Y-95477500D02*
X66237258Y-95477500D01*
X65762742Y-96522500D02*
X66237258Y-96522500D01*
%TO.C,U1*%
X84800000Y-49100000D02*
X84800000Y-55300000D01*
X84800000Y-49100000D02*
X103200000Y-49100000D01*
X84800000Y-73950000D02*
X84800000Y-74950000D01*
X84800000Y-74950000D02*
X86300000Y-74950000D01*
X103200000Y-49100000D02*
X103200000Y-55300000D01*
X103200000Y-74950000D02*
X101700000Y-74950000D01*
X103200000Y-74950000D02*
X103200000Y-73950000D01*
X84800000Y-55975000D02*
X84300000Y-55975000D01*
X84800000Y-55475000D01*
X84800000Y-55975000D01*
G36*
X84800000Y-55975000D02*
G01*
X84300000Y-55975000D01*
X84800000Y-55475000D01*
X84800000Y-55975000D01*
G37*
%TO.C,R12*%
X107762742Y-77837500D02*
X108237258Y-77837500D01*
X107762742Y-78882500D02*
X108237258Y-78882500D01*
%TO.C,C92*%
X146859420Y-33490000D02*
X147140580Y-33490000D01*
X146859420Y-34510000D02*
X147140580Y-34510000D01*
%TO.C,R20*%
X101762742Y-91477500D02*
X102237258Y-91477500D01*
X101762742Y-92522500D02*
X102237258Y-92522500D01*
%TO.C,R38*%
X35762742Y-91477500D02*
X36237258Y-91477500D01*
X35762742Y-92522500D02*
X36237258Y-92522500D01*
%TO.C,K1*%
X23320000Y-66690000D02*
X44460000Y-66690000D01*
X23320000Y-77690000D02*
X23320000Y-66690000D01*
X23320000Y-77690000D02*
X44460000Y-77690000D01*
X26270000Y-76000000D02*
X27540000Y-76000000D01*
X27030000Y-71170000D02*
X27540000Y-71170000D01*
X27030000Y-72950000D02*
X28050000Y-71940000D01*
X27030000Y-73710000D02*
X27030000Y-71170000D01*
X27540000Y-68380000D02*
X26270000Y-68380000D01*
X27540000Y-71170000D02*
X27540000Y-68380000D01*
X27540000Y-71170000D02*
X28050000Y-71170000D01*
X27540000Y-73710000D02*
X27030000Y-73710000D01*
X27540000Y-76000000D02*
X27540000Y-73710000D01*
X28050000Y-71170000D02*
X28050000Y-73710000D01*
X28050000Y-73710000D02*
X27540000Y-73710000D01*
X35160000Y-72190000D02*
X38335000Y-72190000D01*
X35160000Y-74730000D02*
X35160000Y-72190000D01*
X38335000Y-72190000D02*
X42145000Y-69650000D01*
X40240000Y-69650000D02*
X40240000Y-70920000D01*
X42780000Y-74730000D02*
X42780000Y-72190000D01*
X44460000Y-77690000D02*
X44460000Y-66690000D01*
X38462000Y-72190000D02*
G75*
G02*
X38208000Y-72190000I-127000J0D01*
G01*
X38208000Y-72190000D02*
G75*
G02*
X38462000Y-72190000I127000J0D01*
G01*
%TO.C,C95*%
X121859420Y-43490000D02*
X122140580Y-43490000D01*
X121859420Y-44510000D02*
X122140580Y-44510000D01*
%TO.C,R36*%
X137762742Y-95477500D02*
X138237258Y-95477500D01*
X137762742Y-96522500D02*
X138237258Y-96522500D01*
%TO.C,C96*%
X125859420Y-47490000D02*
X126140580Y-47490000D01*
X125859420Y-48510000D02*
X126140580Y-48510000D01*
%TO.C,R24*%
X29762742Y-87477500D02*
X30237258Y-87477500D01*
X29762742Y-88522500D02*
X30237258Y-88522500D01*
%TO.C,R16*%
X29762742Y-95477500D02*
X30237258Y-95477500D01*
X29762742Y-96522500D02*
X30237258Y-96522500D01*
%TO.C,U8*%
X81090000Y-12440000D02*
X82910000Y-12440000D01*
X81090000Y-12490000D02*
X81090000Y-12440000D01*
X81090000Y-15560000D02*
X81090000Y-15510000D01*
X82910000Y-12440000D02*
X82910000Y-12490000D01*
X82910000Y-13610000D02*
X82910000Y-14390000D01*
X82910000Y-15510000D02*
X82910000Y-15560000D01*
X82910000Y-15560000D02*
X81090000Y-15560000D01*
X80550000Y-12490000D02*
X80310000Y-12160000D01*
X80790000Y-12160000D01*
X80550000Y-12490000D01*
G36*
X80550000Y-12490000D02*
G01*
X80310000Y-12160000D01*
X80790000Y-12160000D01*
X80550000Y-12490000D01*
G37*
%TO.C,U5*%
X127265000Y-38890000D02*
X128735000Y-38890000D01*
X127265000Y-38915000D02*
X127265000Y-38890000D01*
X127265000Y-41110000D02*
X127265000Y-41085000D01*
X128735000Y-38890000D02*
X128735000Y-38915000D01*
X128735000Y-41085000D02*
X128735000Y-41110000D01*
X128735000Y-41110000D02*
X127265000Y-41110000D01*
X126820000Y-38910000D02*
X126680000Y-38720000D01*
X126960000Y-38720000D01*
X126820000Y-38910000D01*
G36*
X126820000Y-38910000D02*
G01*
X126680000Y-38720000D01*
X126960000Y-38720000D01*
X126820000Y-38910000D01*
G37*
%TO.C,R39*%
X53762742Y-91477500D02*
X54237258Y-91477500D01*
X53762742Y-92522500D02*
X54237258Y-92522500D01*
%TO.C,J1*%
X8130000Y-21780000D02*
X15370000Y-21780000D01*
X8130000Y-28000000D02*
X15370000Y-28000000D01*
X8130000Y-29100000D02*
X15370000Y-29100000D01*
X8130000Y-29620000D02*
X8130000Y-21780000D01*
X9700000Y-29620000D02*
X8130000Y-29620000D01*
X15370000Y-21780000D02*
X15370000Y-29620000D01*
X15370000Y-29620000D02*
X10300000Y-29620000D01*
X10000000Y-29620000D02*
X10440000Y-30230000D01*
X9560000Y-30230000D01*
X10000000Y-29620000D01*
G36*
X10440000Y-30230000D02*
G01*
X9560000Y-30230000D01*
X10000000Y-29620000D01*
X10440000Y-30230000D01*
G37*
%TO.C,C94*%
X121859420Y-33490000D02*
X122140580Y-33490000D01*
X121859420Y-34510000D02*
X122140580Y-34510000D01*
%TO.C,J2*%
X148645000Y-14550000D02*
X148645000Y-17450000D01*
X150550000Y-12645000D02*
X153450000Y-12645000D01*
X150550000Y-19355000D02*
X153450000Y-19355000D01*
X155355000Y-14550000D02*
X155355000Y-17450000D01*
%TO.C,U4*%
X121265000Y-38890000D02*
X122735000Y-38890000D01*
X121265000Y-38915000D02*
X121265000Y-38890000D01*
X121265000Y-41110000D02*
X121265000Y-41085000D01*
X122735000Y-38890000D02*
X122735000Y-38915000D01*
X122735000Y-41085000D02*
X122735000Y-41110000D01*
X122735000Y-41110000D02*
X121265000Y-41110000D01*
X120820000Y-38910000D02*
X120680000Y-38720000D01*
X120960000Y-38720000D01*
X120820000Y-38910000D01*
G36*
X120820000Y-38910000D02*
G01*
X120680000Y-38720000D01*
X120960000Y-38720000D01*
X120820000Y-38910000D01*
G37*
%TO.C,R6*%
X29762742Y-91477500D02*
X30237258Y-91477500D01*
X29762742Y-92522500D02*
X30237258Y-92522500D01*
%TO.C,C102*%
X81859420Y-9490000D02*
X82140580Y-9490000D01*
X81859420Y-10510000D02*
X82140580Y-10510000D01*
%TO.C,R37*%
X11762742Y-87477500D02*
X12237258Y-87477500D01*
X11762742Y-88522500D02*
X12237258Y-88522500D01*
%TO.C,C93*%
X117859420Y-25490000D02*
X118140580Y-25490000D01*
X117859420Y-26510000D02*
X118140580Y-26510000D01*
%TO.C,C97*%
X127859420Y-43490000D02*
X128140580Y-43490000D01*
X127859420Y-44510000D02*
X128140580Y-44510000D01*
%TO.C,R5*%
X11762742Y-91477500D02*
X12237258Y-91477500D01*
X11762742Y-92522500D02*
X12237258Y-92522500D01*
%TO.C,R2*%
X101762742Y-86477500D02*
X102237258Y-86477500D01*
X101762742Y-87522500D02*
X102237258Y-87522500D01*
%TO.C,R3*%
X119762742Y-86477500D02*
X120237258Y-86477500D01*
X119762742Y-87522500D02*
X120237258Y-87522500D01*
%TO.C,R9*%
X83762742Y-91477500D02*
X84237258Y-91477500D01*
X83762742Y-92522500D02*
X84237258Y-92522500D01*
%TO.C,U7*%
X69940000Y-11440000D02*
X74060000Y-11440000D01*
X69940000Y-11535000D02*
X69940000Y-11440000D01*
X69940000Y-16560000D02*
X69940000Y-16465000D01*
X74060000Y-11440000D02*
X74060000Y-11535000D01*
X74060000Y-16465000D02*
X74060000Y-16560000D01*
X74060000Y-16560000D02*
X69940000Y-16560000D01*
X69400000Y-11530000D02*
X69160000Y-11200000D01*
X69640000Y-11200000D01*
X69400000Y-11530000D01*
G36*
X69400000Y-11530000D02*
G01*
X69160000Y-11200000D01*
X69640000Y-11200000D01*
X69400000Y-11530000D01*
G37*
%TO.C,R21*%
X119762742Y-91477500D02*
X120237258Y-91477500D01*
X119762742Y-92522500D02*
X120237258Y-92522500D01*
%TO.C,R8*%
X65762742Y-91477500D02*
X66237258Y-91477500D01*
X65762742Y-92522500D02*
X66237258Y-92522500D01*
%TO.C,K2*%
X65320000Y-78690000D02*
X86460000Y-78690000D01*
X65320000Y-89690000D02*
X65320000Y-78690000D01*
X65320000Y-89690000D02*
X86460000Y-89690000D01*
X68270000Y-88000000D02*
X69540000Y-88000000D01*
X69030000Y-83170000D02*
X69540000Y-83170000D01*
X69030000Y-84950000D02*
X70050000Y-83940000D01*
X69030000Y-85710000D02*
X69030000Y-83170000D01*
X69540000Y-80380000D02*
X68270000Y-80380000D01*
X69540000Y-83170000D02*
X69540000Y-80380000D01*
X69540000Y-83170000D02*
X70050000Y-83170000D01*
X69540000Y-85710000D02*
X69030000Y-85710000D01*
X69540000Y-88000000D02*
X69540000Y-85710000D01*
X70050000Y-83170000D02*
X70050000Y-85710000D01*
X70050000Y-85710000D02*
X69540000Y-85710000D01*
X77160000Y-84190000D02*
X80335000Y-84190000D01*
X77160000Y-86730000D02*
X77160000Y-84190000D01*
X80335000Y-84190000D02*
X84145000Y-81650000D01*
X82240000Y-81650000D02*
X82240000Y-82920000D01*
X84780000Y-86730000D02*
X84780000Y-84190000D01*
X86460000Y-89690000D02*
X86460000Y-78690000D01*
X80462000Y-84190000D02*
G75*
G02*
X80208000Y-84190000I-127000J0D01*
G01*
X80208000Y-84190000D02*
G75*
G02*
X80462000Y-84190000I127000J0D01*
G01*
%TO.C,R10*%
X121762742Y-61297500D02*
X122237258Y-61297500D01*
X121762742Y-62342500D02*
X122237258Y-62342500D01*
%TO.C,R19*%
X83762742Y-95477500D02*
X84237258Y-95477500D01*
X83762742Y-96522500D02*
X84237258Y-96522500D01*
%TO.C,R1*%
X89762742Y-86477500D02*
X90237258Y-86477500D01*
X89762742Y-87522500D02*
X90237258Y-87522500D01*
%TO.C,R4*%
X137762742Y-86477500D02*
X138237258Y-86477500D01*
X137762742Y-87522500D02*
X138237258Y-87522500D01*
%TO.C,R40*%
X71762742Y-91477500D02*
X72237258Y-91477500D01*
X71762742Y-92522500D02*
X72237258Y-92522500D01*
%TO.C,R23*%
X11762742Y-95477500D02*
X12237258Y-95477500D01*
X11762742Y-96522500D02*
X12237258Y-96522500D01*
%TD*%
M02*
