%TF.GenerationSoftware,KiCad,Pcbnew,10.0.3*%
%TF.CreationDate,2026-05-26T20:18:00+02:00*%
%TF.ProjectId,esp32_s3_dwm3000_uwb_anchor_with_relay_outputs,65737033-325f-4733-935f-64776d333030,rev?*%
%TF.SameCoordinates,Original*%
%TF.FileFunction,Copper,L2,Inr*%
%TF.FilePolarity,Positive*%
%FSLAX46Y46*%
G04 Gerber Fmt 4.6, Leading zero omitted, Abs format (unit mm)*
G04 Created by KiCad (PCBNEW 10.0.3) date 2026-05-26 20:18:00*
%MOMM*%
%LPD*%
G01*
G04 APERTURE LIST*
G04 Aperture macros list*
%AMRoundRect*
0 Rectangle with rounded corners*
0 $1 Rounding radius*
0 $2 $3 $4 $5 $6 $7 $8 $9 X,Y pos of 4 corners*
0 Add a 4 corners polygon primitive as box body*
4,1,4,$2,$3,$4,$5,$6,$7,$8,$9,$2,$3,0*
0 Add four circle primitives for the rounded corners*
1,1,$1+$1,$2,$3*
1,1,$1+$1,$4,$5*
1,1,$1+$1,$6,$7*
1,1,$1+$1,$8,$9*
0 Add four rect primitives between the rounded corners*
20,1,$1+$1,$2,$3,$4,$5,0*
20,1,$1+$1,$4,$5,$6,$7,0*
20,1,$1+$1,$6,$7,$8,$9,0*
20,1,$1+$1,$8,$9,$2,$3,0*%
G04 Aperture macros list end*
%TA.AperFunction,ComponentPad*%
%ADD10C,1.800000*%
%TD*%
%TA.AperFunction,ComponentPad*%
%ADD11RoundRect,0.250000X-0.600000X-0.750000X0.600000X-0.750000X0.600000X0.750000X-0.600000X0.750000X0*%
%TD*%
%TA.AperFunction,ComponentPad*%
%ADD12O,1.700000X2.000000*%
%TD*%
%TA.AperFunction,HeatsinkPad*%
%ADD13C,0.600000*%
%TD*%
%TA.AperFunction,ComponentPad*%
%ADD14R,2.300000X2.300000*%
%TD*%
%TA.AperFunction,ComponentPad*%
%ADD15C,2.300000*%
%TD*%
%TA.AperFunction,ComponentPad*%
%ADD16RoundRect,0.250001X-0.949999X-0.949999X0.949999X-0.949999X0.949999X0.949999X-0.949999X0.949999X0*%
%TD*%
%TA.AperFunction,ComponentPad*%
%ADD17C,2.400000*%
%TD*%
%TA.AperFunction,ComponentPad*%
%ADD18C,2.050000*%
%TD*%
%TA.AperFunction,ComponentPad*%
%ADD19C,2.250000*%
%TD*%
%TA.AperFunction,ViaPad*%
%ADD20C,0.450000*%
%TD*%
G04 APERTURE END LIST*
D10*
%TO.N,AC_L_PROTECTED*%
%TO.C,MOV1*%
X32000000Y-39000000D03*
%TO.N,NC_MOV1_2_87*%
X39500000Y-41000000D03*
%TD*%
D11*
%TO.N,AC_L_PROTECTED*%
%TO.C,U6*%
X28000000Y-20000000D03*
D12*
%TO.N,NC_U6_2_86*%
X28000000Y-26000000D03*
%TO.N,+5V_ISO*%
X61600000Y-14000000D03*
%TO.N,GND*%
X61600000Y-32000000D03*
%TD*%
D13*
%TO.N,GND*%
%TO.C,U1*%
X91100000Y-63760000D03*
X91100000Y-65160000D03*
X91800000Y-63060000D03*
X91800000Y-64460000D03*
X91800000Y-65860000D03*
X92500000Y-63760000D03*
X92500000Y-65160000D03*
X93200000Y-63060000D03*
X93200000Y-64460000D03*
X93200000Y-65860000D03*
X93900000Y-63760000D03*
X93900000Y-65160000D03*
%TD*%
D14*
%TO.N,+5V_ISO*%
%TO.C,K1*%
X25000000Y-76000000D03*
D15*
%TO.N,NC_K1_2_65*%
X35160000Y-76000000D03*
%TO.N,NC_K1_3_66*%
X42780000Y-76000000D03*
%TO.N,NC_K1_4_67*%
X40240000Y-68380000D03*
%TO.N,NC_K1_5_68*%
X25000000Y-68380000D03*
%TD*%
D16*
%TO.N,AC_L_PROTECTED*%
%TO.C,J1*%
X10000000Y-25000000D03*
D17*
%TO.N,NC_J1_2_1*%
X13500000Y-25000000D03*
%TD*%
D18*
%TO.N,UWB_RF_50R*%
%TO.C,J2*%
X152000000Y-16000000D03*
D19*
%TO.N,GND*%
X149460000Y-13460000D03*
X149460000Y-18540000D03*
X154540000Y-13460000D03*
X154540000Y-18540000D03*
%TD*%
D14*
%TO.N,+5V_ISO*%
%TO.C,K2*%
X67000000Y-88000000D03*
D15*
%TO.N,NC_K2_2_61*%
X77160000Y-88000000D03*
%TO.N,NC_K2_3_62*%
X84780000Y-88000000D03*
%TO.N,NC_K2_4_63*%
X82240000Y-80380000D03*
%TO.N,NC_K2_5_64*%
X67000000Y-80380000D03*
%TD*%
D20*
%TO.N,+3V3*%
X85250000Y-59280000D03*
X121200000Y-38800000D03*
X82600000Y-12400000D03*
X124000000Y-38400000D03*
X121200000Y-43200000D03*
X117225000Y-26000000D03*
X81400000Y-12400000D03*
X93225000Y-82000000D03*
X81225000Y-18000000D03*
X80862500Y-13050000D03*
X85250000Y-58010000D03*
X127225000Y-44000000D03*
X124600000Y-42800000D03*
X121225000Y-44000000D03*
%TO.N,SPI_CS_3V3*%
X122000000Y-42000000D03*
X119800000Y-33200000D03*
%TO.N,GND*%
X125400000Y-30800000D03*
X144600000Y-27600000D03*
X80862500Y-14000000D03*
X74475000Y-13365000D03*
X122775000Y-44000000D03*
X144000000Y-32400000D03*
X144000000Y-26000000D03*
X120462500Y-40000000D03*
X122775000Y-34000000D03*
X92500000Y-64460000D03*
X144000000Y-13200000D03*
X144600000Y-21200001D03*
X74775000Y-20000000D03*
X125400000Y-11600000D03*
X147775000Y-34000000D03*
X126000000Y-19600000D03*
X82775000Y-10000000D03*
X85250000Y-56740000D03*
X128775000Y-36000000D03*
X144000000Y-22800000D03*
X126000000Y-32400000D03*
X126775000Y-48000000D03*
X118775000Y-26000000D03*
X144600000Y-14800000D03*
X118750000Y-32462500D03*
X68775000Y-8000000D03*
X125400000Y-27600000D03*
X144600000Y-18000000D03*
X144000000Y-19600000D03*
X130037500Y-40000000D03*
X144600000Y-11600000D03*
X144600000Y-30800000D03*
X144000000Y-16400000D03*
X126462500Y-40000000D03*
X124037500Y-40000000D03*
X82775000Y-18000000D03*
X102750000Y-58010000D03*
X125400000Y-18000000D03*
X125400000Y-24400000D03*
X126000000Y-29200000D03*
X118000000Y-30000000D03*
X123775000Y-22000000D03*
X94775000Y-82000000D03*
X144000000Y-29200000D03*
X102750000Y-56740000D03*
X128775000Y-44000000D03*
X126000000Y-26000000D03*
X126000000Y-16400000D03*
%TO.N,SPI_CS_1V8*%
X117750000Y-27537500D03*
X125400000Y-14800000D03*
%TO.N,+1V8*%
X128600000Y-38800000D03*
X127225000Y-36000000D03*
X146225000Y-34000000D03*
X125000000Y-39200000D03*
X121225000Y-34000000D03*
X117250000Y-28037500D03*
X145400000Y-34000000D03*
X121400000Y-32600000D03*
X126000000Y-13200000D03*
X116800000Y-28600000D03*
X124600000Y-20200000D03*
X126800000Y-35200000D03*
X125200000Y-47200000D03*
%TO.N,SPI_MISO_3V3_MCU*%
X95600000Y-75800000D03*
X101400000Y-66000000D03*
%TO.N,+5V_ISO*%
X69525000Y-14635000D03*
X67225000Y-8000000D03*
X69525000Y-13365000D03*
%TO.N,SPI_MOSI_3V3_MCU*%
X101600000Y-63400000D03*
X104600000Y-63400000D03*
%TO.N,DWM_IRQ_3V3*%
X119200000Y-40800000D03*
X119200000Y-42000000D03*
%TO.N,SPI_CLK_3V3_MCU*%
X104600000Y-64600000D03*
X101600000Y-64600000D03*
%TO.N,SPI_CS_3V3_MCU*%
X101600000Y-61800000D03*
X104600000Y-61800000D03*
%TD*%
%TA.AperFunction,Conductor*%
%TO.N,GND*%
G36*
X156305831Y-1019685D02*
G01*
X156351586Y-1072489D01*
X156361530Y-1141647D01*
X156332505Y-1205203D01*
X156286244Y-1238561D01*
X156157638Y-1291830D01*
X156157623Y-1291837D01*
X155941873Y-1416400D01*
X155744225Y-1568060D01*
X155744218Y-1568066D01*
X155568066Y-1744218D01*
X155568060Y-1744225D01*
X155416400Y-1941873D01*
X155291837Y-2157623D01*
X155291830Y-2157638D01*
X155196498Y-2387792D01*
X155132017Y-2628438D01*
X155099501Y-2875424D01*
X155099500Y-2875441D01*
X155099500Y-3124558D01*
X155099501Y-3124575D01*
X155132017Y-3371561D01*
X155196498Y-3612207D01*
X155291830Y-3842361D01*
X155291837Y-3842376D01*
X155416400Y-4058126D01*
X155568060Y-4255774D01*
X155568066Y-4255781D01*
X155744218Y-4431933D01*
X155744225Y-4431939D01*
X155941873Y-4583599D01*
X156157623Y-4708162D01*
X156157638Y-4708169D01*
X156256825Y-4749253D01*
X156387793Y-4803502D01*
X156628435Y-4867982D01*
X156875435Y-4900500D01*
X156875442Y-4900500D01*
X157124558Y-4900500D01*
X157124565Y-4900500D01*
X157371565Y-4867982D01*
X157612207Y-4803502D01*
X157842373Y-4708164D01*
X158058127Y-4583599D01*
X158255776Y-4431938D01*
X158431938Y-4255776D01*
X158583599Y-4058127D01*
X158708164Y-3842373D01*
X158761439Y-3713756D01*
X158805280Y-3659352D01*
X158871574Y-3637287D01*
X158939273Y-3654566D01*
X158986884Y-3705703D01*
X159000000Y-3761208D01*
X159000000Y-96238791D01*
X158980315Y-96305830D01*
X158927511Y-96351585D01*
X158858353Y-96361529D01*
X158794797Y-96332504D01*
X158761439Y-96286244D01*
X158741783Y-96238791D01*
X158708164Y-96157627D01*
X158583599Y-95941873D01*
X158545326Y-95891994D01*
X158431939Y-95744225D01*
X158431933Y-95744218D01*
X158255781Y-95568066D01*
X158255774Y-95568060D01*
X158058126Y-95416400D01*
X157842376Y-95291837D01*
X157842361Y-95291830D01*
X157612207Y-95196498D01*
X157371561Y-95132017D01*
X157124575Y-95099501D01*
X157124570Y-95099500D01*
X157124565Y-95099500D01*
X156875435Y-95099500D01*
X156875429Y-95099500D01*
X156875424Y-95099501D01*
X156628438Y-95132017D01*
X156387792Y-95196498D01*
X156157638Y-95291830D01*
X156157623Y-95291837D01*
X155941873Y-95416400D01*
X155744225Y-95568060D01*
X155744218Y-95568066D01*
X155568066Y-95744218D01*
X155568060Y-95744225D01*
X155416400Y-95941873D01*
X155291837Y-96157623D01*
X155291830Y-96157638D01*
X155196498Y-96387792D01*
X155132017Y-96628438D01*
X155099501Y-96875424D01*
X155099500Y-96875441D01*
X155099500Y-97124558D01*
X155099501Y-97124575D01*
X155132017Y-97371561D01*
X155196498Y-97612207D01*
X155291830Y-97842361D01*
X155291837Y-97842376D01*
X155416400Y-98058126D01*
X155568060Y-98255774D01*
X155568066Y-98255781D01*
X155744218Y-98431933D01*
X155744225Y-98431939D01*
X155941873Y-98583599D01*
X156157623Y-98708162D01*
X156157638Y-98708169D01*
X156286244Y-98761439D01*
X156340648Y-98805280D01*
X156362713Y-98871574D01*
X156345434Y-98939273D01*
X156294297Y-98986884D01*
X156238792Y-99000000D01*
X3761208Y-99000000D01*
X3694169Y-98980315D01*
X3648414Y-98927511D01*
X3638470Y-98858353D01*
X3667495Y-98794797D01*
X3713756Y-98761439D01*
X3842361Y-98708169D01*
X3842361Y-98708168D01*
X3842373Y-98708164D01*
X4058127Y-98583599D01*
X4255776Y-98431938D01*
X4431938Y-98255776D01*
X4583599Y-98058127D01*
X4708164Y-97842373D01*
X4803502Y-97612207D01*
X4867982Y-97371565D01*
X4900500Y-97124565D01*
X4900500Y-96875435D01*
X4867982Y-96628435D01*
X4803502Y-96387793D01*
X4708166Y-96157633D01*
X4708162Y-96157623D01*
X4583599Y-95941873D01*
X4431939Y-95744225D01*
X4431933Y-95744218D01*
X4255781Y-95568066D01*
X4255774Y-95568060D01*
X4058126Y-95416400D01*
X3842376Y-95291837D01*
X3842361Y-95291830D01*
X3612207Y-95196498D01*
X3371561Y-95132017D01*
X3124575Y-95099501D01*
X3124570Y-95099500D01*
X3124565Y-95099500D01*
X2875435Y-95099500D01*
X2875429Y-95099500D01*
X2875424Y-95099501D01*
X2628438Y-95132017D01*
X2387792Y-95196498D01*
X2157638Y-95291830D01*
X2157623Y-95291837D01*
X1941873Y-95416400D01*
X1744225Y-95568060D01*
X1744218Y-95568066D01*
X1568066Y-95744218D01*
X1568060Y-95744225D01*
X1416400Y-95941873D01*
X1291837Y-96157623D01*
X1291833Y-96157633D01*
X1238561Y-96286244D01*
X1194720Y-96340647D01*
X1128426Y-96362712D01*
X1060727Y-96345433D01*
X1013116Y-96294296D01*
X1000000Y-96238791D01*
X1000000Y-86830247D01*
X65649500Y-86830247D01*
X65649500Y-89169752D01*
X65661131Y-89228229D01*
X65661132Y-89228230D01*
X65705447Y-89294552D01*
X65771769Y-89338867D01*
X65771770Y-89338868D01*
X65830247Y-89350499D01*
X65830250Y-89350500D01*
X65830252Y-89350500D01*
X68169750Y-89350500D01*
X68169751Y-89350499D01*
X68184568Y-89347552D01*
X68228229Y-89338868D01*
X68228229Y-89338867D01*
X68228231Y-89338867D01*
X68294552Y-89294552D01*
X68338867Y-89228231D01*
X68338867Y-89228229D01*
X68338868Y-89228229D01*
X68350499Y-89169752D01*
X68350500Y-89169750D01*
X68350500Y-87893713D01*
X75809500Y-87893713D01*
X75809500Y-88106286D01*
X75842753Y-88316239D01*
X75908444Y-88518414D01*
X76004951Y-88707820D01*
X76129890Y-88879786D01*
X76280213Y-89030109D01*
X76452179Y-89155048D01*
X76452181Y-89155049D01*
X76452184Y-89155051D01*
X76641588Y-89251557D01*
X76843757Y-89317246D01*
X77053713Y-89350500D01*
X77053714Y-89350500D01*
X77266286Y-89350500D01*
X77266287Y-89350500D01*
X77476243Y-89317246D01*
X77678412Y-89251557D01*
X77867816Y-89155051D01*
X77889789Y-89139086D01*
X78039786Y-89030109D01*
X78039788Y-89030106D01*
X78039792Y-89030104D01*
X78190104Y-88879792D01*
X78190106Y-88879788D01*
X78190109Y-88879786D01*
X78315048Y-88707820D01*
X78315047Y-88707820D01*
X78315051Y-88707816D01*
X78411557Y-88518412D01*
X78477246Y-88316243D01*
X78510500Y-88106287D01*
X78510500Y-87893713D01*
X83429500Y-87893713D01*
X83429500Y-88106286D01*
X83462753Y-88316239D01*
X83528444Y-88518414D01*
X83624951Y-88707820D01*
X83749890Y-88879786D01*
X83900213Y-89030109D01*
X84072179Y-89155048D01*
X84072181Y-89155049D01*
X84072184Y-89155051D01*
X84261588Y-89251557D01*
X84463757Y-89317246D01*
X84673713Y-89350500D01*
X84673714Y-89350500D01*
X84886286Y-89350500D01*
X84886287Y-89350500D01*
X85096243Y-89317246D01*
X85298412Y-89251557D01*
X85487816Y-89155051D01*
X85509789Y-89139086D01*
X85659786Y-89030109D01*
X85659788Y-89030106D01*
X85659792Y-89030104D01*
X85810104Y-88879792D01*
X85810106Y-88879788D01*
X85810109Y-88879786D01*
X85935048Y-88707820D01*
X85935047Y-88707820D01*
X85935051Y-88707816D01*
X86031557Y-88518412D01*
X86097246Y-88316243D01*
X86130500Y-88106287D01*
X86130500Y-87893713D01*
X86097246Y-87683757D01*
X86031557Y-87481588D01*
X85935051Y-87292184D01*
X85935049Y-87292181D01*
X85935048Y-87292179D01*
X85810109Y-87120213D01*
X85659786Y-86969890D01*
X85487820Y-86844951D01*
X85298414Y-86748444D01*
X85298413Y-86748443D01*
X85298412Y-86748443D01*
X85096243Y-86682754D01*
X85096241Y-86682753D01*
X85096240Y-86682753D01*
X84934957Y-86657208D01*
X84886287Y-86649500D01*
X84673713Y-86649500D01*
X84625042Y-86657208D01*
X84463760Y-86682753D01*
X84261585Y-86748444D01*
X84072179Y-86844951D01*
X83900213Y-86969890D01*
X83749890Y-87120213D01*
X83624951Y-87292179D01*
X83528444Y-87481585D01*
X83462753Y-87683760D01*
X83429500Y-87893713D01*
X78510500Y-87893713D01*
X78477246Y-87683757D01*
X78411557Y-87481588D01*
X78315051Y-87292184D01*
X78315049Y-87292181D01*
X78315048Y-87292179D01*
X78190109Y-87120213D01*
X78039786Y-86969890D01*
X77867820Y-86844951D01*
X77678414Y-86748444D01*
X77678413Y-86748443D01*
X77678412Y-86748443D01*
X77476243Y-86682754D01*
X77476241Y-86682753D01*
X77476240Y-86682753D01*
X77314957Y-86657208D01*
X77266287Y-86649500D01*
X77053713Y-86649500D01*
X77005042Y-86657208D01*
X76843760Y-86682753D01*
X76641585Y-86748444D01*
X76452179Y-86844951D01*
X76280213Y-86969890D01*
X76129890Y-87120213D01*
X76004951Y-87292179D01*
X75908444Y-87481585D01*
X75842753Y-87683760D01*
X75809500Y-87893713D01*
X68350500Y-87893713D01*
X68350500Y-86830249D01*
X68350499Y-86830247D01*
X68338868Y-86771770D01*
X68338867Y-86771769D01*
X68294552Y-86705447D01*
X68228230Y-86661132D01*
X68228229Y-86661131D01*
X68169752Y-86649500D01*
X68169748Y-86649500D01*
X65830252Y-86649500D01*
X65830247Y-86649500D01*
X65771770Y-86661131D01*
X65771769Y-86661132D01*
X65705447Y-86705447D01*
X65661132Y-86771769D01*
X65661131Y-86771770D01*
X65649500Y-86830247D01*
X1000000Y-86830247D01*
X1000000Y-81943982D01*
X92799500Y-81943982D01*
X92799500Y-82056018D01*
X92828497Y-82164237D01*
X92884515Y-82261263D01*
X92963737Y-82340485D01*
X93060763Y-82396503D01*
X93168982Y-82425500D01*
X93168984Y-82425500D01*
X93281016Y-82425500D01*
X93281018Y-82425500D01*
X93389237Y-82396503D01*
X93486263Y-82340485D01*
X93565485Y-82261263D01*
X93621503Y-82164237D01*
X93650500Y-82056018D01*
X93650500Y-81943982D01*
X93621503Y-81835763D01*
X93565485Y-81738737D01*
X93486263Y-81659515D01*
X93389237Y-81603497D01*
X93281018Y-81574500D01*
X93168982Y-81574500D01*
X93060763Y-81603497D01*
X93060760Y-81603498D01*
X92963740Y-81659513D01*
X92963734Y-81659517D01*
X92884517Y-81738734D01*
X92884513Y-81738740D01*
X92828498Y-81835760D01*
X92828497Y-81835763D01*
X92799500Y-81943982D01*
X1000000Y-81943982D01*
X1000000Y-80273713D01*
X65649500Y-80273713D01*
X65649500Y-80486286D01*
X65682753Y-80696239D01*
X65748444Y-80898414D01*
X65844951Y-81087820D01*
X65969890Y-81259786D01*
X66120213Y-81410109D01*
X66292179Y-81535048D01*
X66292181Y-81535049D01*
X66292184Y-81535051D01*
X66481588Y-81631557D01*
X66683757Y-81697246D01*
X66893713Y-81730500D01*
X66893714Y-81730500D01*
X67106286Y-81730500D01*
X67106287Y-81730500D01*
X67316243Y-81697246D01*
X67518412Y-81631557D01*
X67707816Y-81535051D01*
X67729789Y-81519086D01*
X67879786Y-81410109D01*
X67879788Y-81410106D01*
X67879792Y-81410104D01*
X68030104Y-81259792D01*
X68030106Y-81259788D01*
X68030109Y-81259786D01*
X68155048Y-81087820D01*
X68155047Y-81087820D01*
X68155051Y-81087816D01*
X68251557Y-80898412D01*
X68317246Y-80696243D01*
X68350500Y-80486287D01*
X68350500Y-80273713D01*
X80889500Y-80273713D01*
X80889500Y-80486286D01*
X80922753Y-80696239D01*
X80988444Y-80898414D01*
X81084951Y-81087820D01*
X81209890Y-81259786D01*
X81360213Y-81410109D01*
X81532179Y-81535048D01*
X81532181Y-81535049D01*
X81532184Y-81535051D01*
X81721588Y-81631557D01*
X81923757Y-81697246D01*
X82133713Y-81730500D01*
X82133714Y-81730500D01*
X82346286Y-81730500D01*
X82346287Y-81730500D01*
X82556243Y-81697246D01*
X82758412Y-81631557D01*
X82947816Y-81535051D01*
X82969789Y-81519086D01*
X83119786Y-81410109D01*
X83119788Y-81410106D01*
X83119792Y-81410104D01*
X83270104Y-81259792D01*
X83270106Y-81259788D01*
X83270109Y-81259786D01*
X83395048Y-81087820D01*
X83395047Y-81087820D01*
X83395051Y-81087816D01*
X83491557Y-80898412D01*
X83557246Y-80696243D01*
X83590500Y-80486287D01*
X83590500Y-80273713D01*
X83557246Y-80063757D01*
X83491557Y-79861588D01*
X83395051Y-79672184D01*
X83395049Y-79672181D01*
X83395048Y-79672179D01*
X83270109Y-79500213D01*
X83119786Y-79349890D01*
X82947820Y-79224951D01*
X82758414Y-79128444D01*
X82758413Y-79128443D01*
X82758412Y-79128443D01*
X82556243Y-79062754D01*
X82556241Y-79062753D01*
X82556240Y-79062753D01*
X82394957Y-79037208D01*
X82346287Y-79029500D01*
X82133713Y-79029500D01*
X82085042Y-79037208D01*
X81923760Y-79062753D01*
X81721585Y-79128444D01*
X81532179Y-79224951D01*
X81360213Y-79349890D01*
X81209890Y-79500213D01*
X81084951Y-79672179D01*
X80988444Y-79861585D01*
X80922753Y-80063760D01*
X80889500Y-80273713D01*
X68350500Y-80273713D01*
X68317246Y-80063757D01*
X68251557Y-79861588D01*
X68155051Y-79672184D01*
X68155049Y-79672181D01*
X68155048Y-79672179D01*
X68030109Y-79500213D01*
X67879786Y-79349890D01*
X67707820Y-79224951D01*
X67518414Y-79128444D01*
X67518413Y-79128443D01*
X67518412Y-79128443D01*
X67316243Y-79062754D01*
X67316241Y-79062753D01*
X67316240Y-79062753D01*
X67154957Y-79037208D01*
X67106287Y-79029500D01*
X66893713Y-79029500D01*
X66845042Y-79037208D01*
X66683760Y-79062753D01*
X66481585Y-79128444D01*
X66292179Y-79224951D01*
X66120213Y-79349890D01*
X65969890Y-79500213D01*
X65844951Y-79672179D01*
X65748444Y-79861585D01*
X65682753Y-80063760D01*
X65649500Y-80273713D01*
X1000000Y-80273713D01*
X1000000Y-74830247D01*
X23649500Y-74830247D01*
X23649500Y-77169752D01*
X23661131Y-77228229D01*
X23661132Y-77228230D01*
X23705447Y-77294552D01*
X23771769Y-77338867D01*
X23771770Y-77338868D01*
X23830247Y-77350499D01*
X23830250Y-77350500D01*
X23830252Y-77350500D01*
X26169750Y-77350500D01*
X26169751Y-77350499D01*
X26184568Y-77347552D01*
X26228229Y-77338868D01*
X26228229Y-77338867D01*
X26228231Y-77338867D01*
X26294552Y-77294552D01*
X26338867Y-77228231D01*
X26338867Y-77228229D01*
X26338868Y-77228229D01*
X26350499Y-77169752D01*
X26350500Y-77169750D01*
X26350500Y-75893713D01*
X33809500Y-75893713D01*
X33809500Y-76106287D01*
X33814917Y-76140486D01*
X33842753Y-76316239D01*
X33908444Y-76518414D01*
X34004951Y-76707820D01*
X34129890Y-76879786D01*
X34280213Y-77030109D01*
X34452179Y-77155048D01*
X34452181Y-77155049D01*
X34452184Y-77155051D01*
X34641588Y-77251557D01*
X34843757Y-77317246D01*
X35053713Y-77350500D01*
X35053714Y-77350500D01*
X35266286Y-77350500D01*
X35266287Y-77350500D01*
X35476243Y-77317246D01*
X35678412Y-77251557D01*
X35867816Y-77155051D01*
X35889789Y-77139086D01*
X36039786Y-77030109D01*
X36039788Y-77030106D01*
X36039792Y-77030104D01*
X36190104Y-76879792D01*
X36190106Y-76879788D01*
X36190109Y-76879786D01*
X36315048Y-76707820D01*
X36315047Y-76707820D01*
X36315051Y-76707816D01*
X36411557Y-76518412D01*
X36477246Y-76316243D01*
X36510500Y-76106287D01*
X36510500Y-75893713D01*
X41429500Y-75893713D01*
X41429500Y-76106287D01*
X41434917Y-76140486D01*
X41462753Y-76316239D01*
X41528444Y-76518414D01*
X41624951Y-76707820D01*
X41749890Y-76879786D01*
X41900213Y-77030109D01*
X42072179Y-77155048D01*
X42072181Y-77155049D01*
X42072184Y-77155051D01*
X42261588Y-77251557D01*
X42463757Y-77317246D01*
X42673713Y-77350500D01*
X42673714Y-77350500D01*
X42886286Y-77350500D01*
X42886287Y-77350500D01*
X43096243Y-77317246D01*
X43298412Y-77251557D01*
X43487816Y-77155051D01*
X43509789Y-77139086D01*
X43659786Y-77030109D01*
X43659788Y-77030106D01*
X43659792Y-77030104D01*
X43810104Y-76879792D01*
X43810106Y-76879788D01*
X43810109Y-76879786D01*
X43935048Y-76707820D01*
X43935047Y-76707820D01*
X43935051Y-76707816D01*
X44031557Y-76518412D01*
X44097246Y-76316243D01*
X44130500Y-76106287D01*
X44130500Y-75893713D01*
X44124530Y-75856018D01*
X44108570Y-75755253D01*
X44106785Y-75743982D01*
X95174500Y-75743982D01*
X95174500Y-75856018D01*
X95203497Y-75964237D01*
X95259515Y-76061263D01*
X95338737Y-76140485D01*
X95435763Y-76196503D01*
X95543982Y-76225500D01*
X95543984Y-76225500D01*
X95656016Y-76225500D01*
X95656018Y-76225500D01*
X95764237Y-76196503D01*
X95861263Y-76140485D01*
X95940485Y-76061263D01*
X95996503Y-75964237D01*
X96025500Y-75856018D01*
X96025500Y-75743982D01*
X95996503Y-75635763D01*
X95940485Y-75538737D01*
X95861263Y-75459515D01*
X95764237Y-75403497D01*
X95656018Y-75374500D01*
X95543982Y-75374500D01*
X95435763Y-75403497D01*
X95435760Y-75403498D01*
X95338740Y-75459513D01*
X95338734Y-75459517D01*
X95259517Y-75538734D01*
X95259513Y-75538740D01*
X95203498Y-75635760D01*
X95203497Y-75635763D01*
X95174500Y-75743982D01*
X44106785Y-75743982D01*
X44097246Y-75683760D01*
X44097246Y-75683757D01*
X44031557Y-75481588D01*
X43935051Y-75292184D01*
X43935049Y-75292181D01*
X43935048Y-75292179D01*
X43810109Y-75120213D01*
X43659786Y-74969890D01*
X43487820Y-74844951D01*
X43298414Y-74748444D01*
X43298413Y-74748443D01*
X43298412Y-74748443D01*
X43096243Y-74682754D01*
X43096241Y-74682753D01*
X43096240Y-74682753D01*
X42934957Y-74657208D01*
X42886287Y-74649500D01*
X42673713Y-74649500D01*
X42625042Y-74657208D01*
X42463760Y-74682753D01*
X42261585Y-74748444D01*
X42072179Y-74844951D01*
X41900213Y-74969890D01*
X41749890Y-75120213D01*
X41624951Y-75292179D01*
X41528444Y-75481585D01*
X41462753Y-75683760D01*
X41435470Y-75856018D01*
X41429500Y-75893713D01*
X36510500Y-75893713D01*
X36477246Y-75683757D01*
X36411557Y-75481588D01*
X36315051Y-75292184D01*
X36315049Y-75292181D01*
X36315048Y-75292179D01*
X36190109Y-75120213D01*
X36039786Y-74969890D01*
X35867820Y-74844951D01*
X35678414Y-74748444D01*
X35678413Y-74748443D01*
X35678412Y-74748443D01*
X35476243Y-74682754D01*
X35476241Y-74682753D01*
X35476240Y-74682753D01*
X35314957Y-74657208D01*
X35266287Y-74649500D01*
X35053713Y-74649500D01*
X35005042Y-74657208D01*
X34843760Y-74682753D01*
X34641585Y-74748444D01*
X34452179Y-74844951D01*
X34280213Y-74969890D01*
X34129890Y-75120213D01*
X34004951Y-75292179D01*
X33908444Y-75481585D01*
X33842753Y-75683760D01*
X33815470Y-75856018D01*
X33809500Y-75893713D01*
X26350500Y-75893713D01*
X26350500Y-74830249D01*
X26350499Y-74830247D01*
X26338868Y-74771770D01*
X26338867Y-74771769D01*
X26294552Y-74705447D01*
X26228230Y-74661132D01*
X26228229Y-74661131D01*
X26169752Y-74649500D01*
X26169748Y-74649500D01*
X23830252Y-74649500D01*
X23830247Y-74649500D01*
X23771770Y-74661131D01*
X23771769Y-74661132D01*
X23705447Y-74705447D01*
X23661132Y-74771769D01*
X23661131Y-74771770D01*
X23649500Y-74830247D01*
X1000000Y-74830247D01*
X1000000Y-68273713D01*
X23649500Y-68273713D01*
X23649500Y-68486286D01*
X23682753Y-68696239D01*
X23748444Y-68898414D01*
X23844951Y-69087820D01*
X23969890Y-69259786D01*
X24120213Y-69410109D01*
X24292179Y-69535048D01*
X24292181Y-69535049D01*
X24292184Y-69535051D01*
X24481588Y-69631557D01*
X24683757Y-69697246D01*
X24893713Y-69730500D01*
X24893714Y-69730500D01*
X25106286Y-69730500D01*
X25106287Y-69730500D01*
X25316243Y-69697246D01*
X25518412Y-69631557D01*
X25707816Y-69535051D01*
X25729789Y-69519086D01*
X25879786Y-69410109D01*
X25879788Y-69410106D01*
X25879792Y-69410104D01*
X26030104Y-69259792D01*
X26030106Y-69259788D01*
X26030109Y-69259786D01*
X26155048Y-69087820D01*
X26155047Y-69087820D01*
X26155051Y-69087816D01*
X26251557Y-68898412D01*
X26317246Y-68696243D01*
X26350500Y-68486287D01*
X26350500Y-68273713D01*
X38889500Y-68273713D01*
X38889500Y-68486286D01*
X38922753Y-68696239D01*
X38988444Y-68898414D01*
X39084951Y-69087820D01*
X39209890Y-69259786D01*
X39360213Y-69410109D01*
X39532179Y-69535048D01*
X39532181Y-69535049D01*
X39532184Y-69535051D01*
X39721588Y-69631557D01*
X39923757Y-69697246D01*
X40133713Y-69730500D01*
X40133714Y-69730500D01*
X40346286Y-69730500D01*
X40346287Y-69730500D01*
X40556243Y-69697246D01*
X40758412Y-69631557D01*
X40947816Y-69535051D01*
X40969789Y-69519086D01*
X41119786Y-69410109D01*
X41119788Y-69410106D01*
X41119792Y-69410104D01*
X41270104Y-69259792D01*
X41270106Y-69259788D01*
X41270109Y-69259786D01*
X41395048Y-69087820D01*
X41395047Y-69087820D01*
X41395051Y-69087816D01*
X41491557Y-68898412D01*
X41557246Y-68696243D01*
X41590500Y-68486287D01*
X41590500Y-68273713D01*
X41557246Y-68063757D01*
X41491557Y-67861588D01*
X41395051Y-67672184D01*
X41395049Y-67672181D01*
X41395048Y-67672179D01*
X41270109Y-67500213D01*
X41119786Y-67349890D01*
X40947820Y-67224951D01*
X40758414Y-67128444D01*
X40758413Y-67128443D01*
X40758412Y-67128443D01*
X40556243Y-67062754D01*
X40556241Y-67062753D01*
X40556240Y-67062753D01*
X40394957Y-67037208D01*
X40346287Y-67029500D01*
X40133713Y-67029500D01*
X40085042Y-67037208D01*
X39923760Y-67062753D01*
X39721585Y-67128444D01*
X39532179Y-67224951D01*
X39360213Y-67349890D01*
X39209890Y-67500213D01*
X39084951Y-67672179D01*
X38988444Y-67861585D01*
X38922753Y-68063760D01*
X38889500Y-68273713D01*
X26350500Y-68273713D01*
X26317246Y-68063757D01*
X26251557Y-67861588D01*
X26155051Y-67672184D01*
X26155049Y-67672181D01*
X26155048Y-67672179D01*
X26030109Y-67500213D01*
X25879786Y-67349890D01*
X25707820Y-67224951D01*
X25518414Y-67128444D01*
X25518413Y-67128443D01*
X25518412Y-67128443D01*
X25316243Y-67062754D01*
X25316241Y-67062753D01*
X25316240Y-67062753D01*
X25154957Y-67037208D01*
X25106287Y-67029500D01*
X24893713Y-67029500D01*
X24845042Y-67037208D01*
X24683760Y-67062753D01*
X24481585Y-67128444D01*
X24292179Y-67224951D01*
X24120213Y-67349890D01*
X23969890Y-67500213D01*
X23844951Y-67672179D01*
X23748444Y-67861585D01*
X23682753Y-68063760D01*
X23649500Y-68273713D01*
X1000000Y-68273713D01*
X1000000Y-65943982D01*
X100974500Y-65943982D01*
X100974500Y-66056018D01*
X101003497Y-66164237D01*
X101059515Y-66261263D01*
X101138737Y-66340485D01*
X101235763Y-66396503D01*
X101343982Y-66425500D01*
X101343984Y-66425500D01*
X101456016Y-66425500D01*
X101456018Y-66425500D01*
X101564237Y-66396503D01*
X101661263Y-66340485D01*
X101740485Y-66261263D01*
X101796503Y-66164237D01*
X101825500Y-66056018D01*
X101825500Y-65943982D01*
X101796503Y-65835763D01*
X101740485Y-65738737D01*
X101661263Y-65659515D01*
X101564237Y-65603497D01*
X101456018Y-65574500D01*
X101343982Y-65574500D01*
X101235763Y-65603497D01*
X101235760Y-65603498D01*
X101138740Y-65659513D01*
X101138734Y-65659517D01*
X101059517Y-65738734D01*
X101059513Y-65738740D01*
X101003498Y-65835760D01*
X101003497Y-65835763D01*
X100974500Y-65943982D01*
X1000000Y-65943982D01*
X1000000Y-64543982D01*
X101174500Y-64543982D01*
X101174500Y-64656018D01*
X101203497Y-64764237D01*
X101259515Y-64861263D01*
X101338737Y-64940485D01*
X101435763Y-64996503D01*
X101543982Y-65025500D01*
X101543984Y-65025500D01*
X101656016Y-65025500D01*
X101656018Y-65025500D01*
X101764237Y-64996503D01*
X101861263Y-64940485D01*
X101940485Y-64861263D01*
X101996503Y-64764237D01*
X102025500Y-64656018D01*
X102025500Y-64543982D01*
X104174500Y-64543982D01*
X104174500Y-64656018D01*
X104203497Y-64764237D01*
X104259515Y-64861263D01*
X104338737Y-64940485D01*
X104435763Y-64996503D01*
X104543982Y-65025500D01*
X104543984Y-65025500D01*
X104656016Y-65025500D01*
X104656018Y-65025500D01*
X104764237Y-64996503D01*
X104861263Y-64940485D01*
X104940485Y-64861263D01*
X104996503Y-64764237D01*
X105025500Y-64656018D01*
X105025500Y-64543982D01*
X104996503Y-64435763D01*
X104940485Y-64338737D01*
X104861263Y-64259515D01*
X104764237Y-64203497D01*
X104656018Y-64174500D01*
X104543982Y-64174500D01*
X104435763Y-64203497D01*
X104435760Y-64203498D01*
X104338740Y-64259513D01*
X104338734Y-64259517D01*
X104259517Y-64338734D01*
X104259513Y-64338740D01*
X104203498Y-64435760D01*
X104203497Y-64435763D01*
X104174500Y-64543982D01*
X102025500Y-64543982D01*
X101996503Y-64435763D01*
X101940485Y-64338737D01*
X101861263Y-64259515D01*
X101764237Y-64203497D01*
X101656018Y-64174500D01*
X101543982Y-64174500D01*
X101435763Y-64203497D01*
X101435760Y-64203498D01*
X101338740Y-64259513D01*
X101338734Y-64259517D01*
X101259517Y-64338734D01*
X101259513Y-64338740D01*
X101203498Y-64435760D01*
X101203497Y-64435763D01*
X101174500Y-64543982D01*
X1000000Y-64543982D01*
X1000000Y-63343982D01*
X101174500Y-63343982D01*
X101174500Y-63456018D01*
X101203497Y-63564237D01*
X101259515Y-63661263D01*
X101338737Y-63740485D01*
X101435763Y-63796503D01*
X101543982Y-63825500D01*
X101543984Y-63825500D01*
X101656016Y-63825500D01*
X101656018Y-63825500D01*
X101764237Y-63796503D01*
X101861263Y-63740485D01*
X101940485Y-63661263D01*
X101996503Y-63564237D01*
X102025500Y-63456018D01*
X102025500Y-63343982D01*
X104174500Y-63343982D01*
X104174500Y-63456018D01*
X104203497Y-63564237D01*
X104259515Y-63661263D01*
X104338737Y-63740485D01*
X104435763Y-63796503D01*
X104543982Y-63825500D01*
X104543984Y-63825500D01*
X104656016Y-63825500D01*
X104656018Y-63825500D01*
X104764237Y-63796503D01*
X104861263Y-63740485D01*
X104940485Y-63661263D01*
X104996503Y-63564237D01*
X105025500Y-63456018D01*
X105025500Y-63343982D01*
X104996503Y-63235763D01*
X104940485Y-63138737D01*
X104861263Y-63059515D01*
X104764237Y-63003497D01*
X104656018Y-62974500D01*
X104543982Y-62974500D01*
X104435763Y-63003497D01*
X104435760Y-63003498D01*
X104338740Y-63059513D01*
X104338734Y-63059517D01*
X104259517Y-63138734D01*
X104259513Y-63138740D01*
X104203498Y-63235760D01*
X104203497Y-63235763D01*
X104174500Y-63343982D01*
X102025500Y-63343982D01*
X101996503Y-63235763D01*
X101940485Y-63138737D01*
X101861263Y-63059515D01*
X101764237Y-63003497D01*
X101656018Y-62974500D01*
X101543982Y-62974500D01*
X101435763Y-63003497D01*
X101435760Y-63003498D01*
X101338740Y-63059513D01*
X101338734Y-63059517D01*
X101259517Y-63138734D01*
X101259513Y-63138740D01*
X101203498Y-63235760D01*
X101203497Y-63235763D01*
X101174500Y-63343982D01*
X1000000Y-63343982D01*
X1000000Y-61743982D01*
X101174500Y-61743982D01*
X101174500Y-61856018D01*
X101203497Y-61964237D01*
X101259515Y-62061263D01*
X101338737Y-62140485D01*
X101435763Y-62196503D01*
X101543982Y-62225500D01*
X101543984Y-62225500D01*
X101656016Y-62225500D01*
X101656018Y-62225500D01*
X101764237Y-62196503D01*
X101861263Y-62140485D01*
X101940485Y-62061263D01*
X101996503Y-61964237D01*
X102025500Y-61856018D01*
X102025500Y-61743982D01*
X104174500Y-61743982D01*
X104174500Y-61856018D01*
X104203497Y-61964237D01*
X104259515Y-62061263D01*
X104338737Y-62140485D01*
X104435763Y-62196503D01*
X104543982Y-62225500D01*
X104543984Y-62225500D01*
X104656016Y-62225500D01*
X104656018Y-62225500D01*
X104764237Y-62196503D01*
X104861263Y-62140485D01*
X104940485Y-62061263D01*
X104996503Y-61964237D01*
X105025500Y-61856018D01*
X105025500Y-61743982D01*
X104996503Y-61635763D01*
X104940485Y-61538737D01*
X104861263Y-61459515D01*
X104764237Y-61403497D01*
X104656018Y-61374500D01*
X104543982Y-61374500D01*
X104435763Y-61403497D01*
X104435760Y-61403498D01*
X104338740Y-61459513D01*
X104338734Y-61459517D01*
X104259517Y-61538734D01*
X104259513Y-61538740D01*
X104203498Y-61635760D01*
X104203497Y-61635763D01*
X104174500Y-61743982D01*
X102025500Y-61743982D01*
X101996503Y-61635763D01*
X101940485Y-61538737D01*
X101861263Y-61459515D01*
X101764237Y-61403497D01*
X101656018Y-61374500D01*
X101543982Y-61374500D01*
X101435763Y-61403497D01*
X101435760Y-61403498D01*
X101338740Y-61459513D01*
X101338734Y-61459517D01*
X101259517Y-61538734D01*
X101259513Y-61538740D01*
X101203498Y-61635760D01*
X101203497Y-61635763D01*
X101174500Y-61743982D01*
X1000000Y-61743982D01*
X1000000Y-59223982D01*
X84824500Y-59223982D01*
X84824500Y-59336018D01*
X84853497Y-59444237D01*
X84909515Y-59541263D01*
X84988737Y-59620485D01*
X85085763Y-59676503D01*
X85193982Y-59705500D01*
X85193984Y-59705500D01*
X85306016Y-59705500D01*
X85306018Y-59705500D01*
X85414237Y-59676503D01*
X85511263Y-59620485D01*
X85590485Y-59541263D01*
X85646503Y-59444237D01*
X85675500Y-59336018D01*
X85675500Y-59223982D01*
X85646503Y-59115763D01*
X85590485Y-59018737D01*
X85511263Y-58939515D01*
X85414237Y-58883497D01*
X85306018Y-58854500D01*
X85193982Y-58854500D01*
X85085763Y-58883497D01*
X85085760Y-58883498D01*
X84988740Y-58939513D01*
X84988734Y-58939517D01*
X84909517Y-59018734D01*
X84909513Y-59018740D01*
X84853498Y-59115760D01*
X84853497Y-59115763D01*
X84824500Y-59223982D01*
X1000000Y-59223982D01*
X1000000Y-57953982D01*
X84824500Y-57953982D01*
X84824500Y-58066018D01*
X84853497Y-58174237D01*
X84909515Y-58271263D01*
X84988737Y-58350485D01*
X85085763Y-58406503D01*
X85193982Y-58435500D01*
X85193984Y-58435500D01*
X85306016Y-58435500D01*
X85306018Y-58435500D01*
X85414237Y-58406503D01*
X85511263Y-58350485D01*
X85590485Y-58271263D01*
X85646503Y-58174237D01*
X85675500Y-58066018D01*
X85675500Y-57953982D01*
X85646503Y-57845763D01*
X85590485Y-57748737D01*
X85511263Y-57669515D01*
X85414237Y-57613497D01*
X85306018Y-57584500D01*
X85193982Y-57584500D01*
X85085763Y-57613497D01*
X85085760Y-57613498D01*
X84988740Y-57669513D01*
X84988734Y-57669517D01*
X84909517Y-57748734D01*
X84909513Y-57748740D01*
X84853498Y-57845760D01*
X84853497Y-57845763D01*
X84824500Y-57953982D01*
X1000000Y-57953982D01*
X1000000Y-55250000D01*
X70000000Y-55250000D01*
X118000000Y-55250000D01*
X118000000Y-47143982D01*
X124774500Y-47143982D01*
X124774500Y-47256018D01*
X124803497Y-47364237D01*
X124859515Y-47461263D01*
X124859517Y-47461265D01*
X124923071Y-47524819D01*
X124956556Y-47586142D01*
X124951572Y-47655834D01*
X124923071Y-47700181D01*
X124884517Y-47738734D01*
X124884513Y-47738740D01*
X124828498Y-47835760D01*
X124828497Y-47835763D01*
X124799500Y-47943982D01*
X124799500Y-48056018D01*
X124828497Y-48164237D01*
X124884515Y-48261263D01*
X124963737Y-48340485D01*
X125060763Y-48396503D01*
X125168982Y-48425500D01*
X125168984Y-48425500D01*
X125281016Y-48425500D01*
X125281018Y-48425500D01*
X125389237Y-48396503D01*
X125486263Y-48340485D01*
X125565485Y-48261263D01*
X125621503Y-48164237D01*
X125650500Y-48056018D01*
X125650500Y-47943982D01*
X125621503Y-47835763D01*
X125565485Y-47738737D01*
X125501929Y-47675181D01*
X125468444Y-47613858D01*
X125473428Y-47544166D01*
X125501929Y-47499819D01*
X125540485Y-47461263D01*
X125596503Y-47364237D01*
X125625500Y-47256018D01*
X125625500Y-47143982D01*
X125596503Y-47035763D01*
X125540485Y-46938737D01*
X125461263Y-46859515D01*
X125364237Y-46803497D01*
X125256018Y-46774500D01*
X125143982Y-46774500D01*
X125035763Y-46803497D01*
X125035760Y-46803498D01*
X124938740Y-46859513D01*
X124938734Y-46859517D01*
X124859517Y-46938734D01*
X124859513Y-46938740D01*
X124803498Y-47035760D01*
X124803497Y-47035763D01*
X124774500Y-47143982D01*
X118000000Y-47143982D01*
X118000000Y-43143982D01*
X120774500Y-43143982D01*
X120774500Y-43256018D01*
X120803497Y-43364237D01*
X120859515Y-43461263D01*
X120859517Y-43461265D01*
X120923071Y-43524819D01*
X120956556Y-43586142D01*
X120951572Y-43655834D01*
X120923071Y-43700181D01*
X120884517Y-43738734D01*
X120884513Y-43738740D01*
X120828498Y-43835760D01*
X120828497Y-43835763D01*
X120799500Y-43943982D01*
X120799500Y-44056018D01*
X120828497Y-44164237D01*
X120884515Y-44261263D01*
X120963737Y-44340485D01*
X121060763Y-44396503D01*
X121168982Y-44425500D01*
X121168984Y-44425500D01*
X121281016Y-44425500D01*
X121281018Y-44425500D01*
X121389237Y-44396503D01*
X121486263Y-44340485D01*
X121565485Y-44261263D01*
X121621503Y-44164237D01*
X121650500Y-44056018D01*
X121650500Y-43943982D01*
X126799500Y-43943982D01*
X126799500Y-44056018D01*
X126828497Y-44164237D01*
X126884515Y-44261263D01*
X126963737Y-44340485D01*
X127060763Y-44396503D01*
X127168982Y-44425500D01*
X127168984Y-44425500D01*
X127281016Y-44425500D01*
X127281018Y-44425500D01*
X127389237Y-44396503D01*
X127486263Y-44340485D01*
X127565485Y-44261263D01*
X127621503Y-44164237D01*
X127650500Y-44056018D01*
X127650500Y-43943982D01*
X127621503Y-43835763D01*
X127565485Y-43738737D01*
X127486263Y-43659515D01*
X127389237Y-43603497D01*
X127281018Y-43574500D01*
X127168982Y-43574500D01*
X127060763Y-43603497D01*
X127060760Y-43603498D01*
X126963740Y-43659513D01*
X126963734Y-43659517D01*
X126884517Y-43738734D01*
X126884513Y-43738740D01*
X126828498Y-43835760D01*
X126828497Y-43835763D01*
X126799500Y-43943982D01*
X121650500Y-43943982D01*
X121621503Y-43835763D01*
X121565485Y-43738737D01*
X121501929Y-43675181D01*
X121468444Y-43613858D01*
X121473428Y-43544166D01*
X121501929Y-43499819D01*
X121540485Y-43461263D01*
X121596503Y-43364237D01*
X121625500Y-43256018D01*
X121625500Y-43143982D01*
X121596503Y-43035763D01*
X121540485Y-42938737D01*
X121461263Y-42859515D01*
X121364237Y-42803497D01*
X121256018Y-42774500D01*
X121143982Y-42774500D01*
X121035763Y-42803497D01*
X121035760Y-42803498D01*
X120938740Y-42859513D01*
X120938734Y-42859517D01*
X120859517Y-42938734D01*
X120859513Y-42938740D01*
X120803498Y-43035760D01*
X120803497Y-43035763D01*
X120774500Y-43143982D01*
X118000000Y-43143982D01*
X118000000Y-42743982D01*
X124174500Y-42743982D01*
X124174500Y-42856018D01*
X124203497Y-42964237D01*
X124259515Y-43061263D01*
X124338737Y-43140485D01*
X124435763Y-43196503D01*
X124543982Y-43225500D01*
X124543984Y-43225500D01*
X124656016Y-43225500D01*
X124656018Y-43225500D01*
X124764237Y-43196503D01*
X124861263Y-43140485D01*
X124940485Y-43061263D01*
X124996503Y-42964237D01*
X125025500Y-42856018D01*
X125025500Y-42743982D01*
X124996503Y-42635763D01*
X124940485Y-42538737D01*
X124861263Y-42459515D01*
X124764237Y-42403497D01*
X124656018Y-42374500D01*
X124543982Y-42374500D01*
X124435763Y-42403497D01*
X124435760Y-42403498D01*
X124338740Y-42459513D01*
X124338734Y-42459517D01*
X124259517Y-42538734D01*
X124259513Y-42538740D01*
X124203498Y-42635760D01*
X124203497Y-42635763D01*
X124174500Y-42743982D01*
X118000000Y-42743982D01*
X118000000Y-41943982D01*
X118774500Y-41943982D01*
X118774500Y-42056018D01*
X118803497Y-42164237D01*
X118859515Y-42261263D01*
X118938737Y-42340485D01*
X119035763Y-42396503D01*
X119143982Y-42425500D01*
X119143984Y-42425500D01*
X119256016Y-42425500D01*
X119256018Y-42425500D01*
X119364237Y-42396503D01*
X119461263Y-42340485D01*
X119540485Y-42261263D01*
X119596503Y-42164237D01*
X119625500Y-42056018D01*
X119625500Y-41943982D01*
X121574500Y-41943982D01*
X121574500Y-42056018D01*
X121603497Y-42164237D01*
X121659515Y-42261263D01*
X121738737Y-42340485D01*
X121835763Y-42396503D01*
X121943982Y-42425500D01*
X121943984Y-42425500D01*
X122056016Y-42425500D01*
X122056018Y-42425500D01*
X122164237Y-42396503D01*
X122261263Y-42340485D01*
X122340485Y-42261263D01*
X122396503Y-42164237D01*
X122425500Y-42056018D01*
X122425500Y-41943982D01*
X122396503Y-41835763D01*
X122340485Y-41738737D01*
X122261263Y-41659515D01*
X122164237Y-41603497D01*
X122056018Y-41574500D01*
X121943982Y-41574500D01*
X121835763Y-41603497D01*
X121835760Y-41603498D01*
X121738740Y-41659513D01*
X121738734Y-41659517D01*
X121659517Y-41738734D01*
X121659513Y-41738740D01*
X121603498Y-41835760D01*
X121603497Y-41835763D01*
X121574500Y-41943982D01*
X119625500Y-41943982D01*
X119596503Y-41835763D01*
X119540485Y-41738737D01*
X119461263Y-41659515D01*
X119364237Y-41603497D01*
X119256018Y-41574500D01*
X119143982Y-41574500D01*
X119035763Y-41603497D01*
X119035760Y-41603498D01*
X118938740Y-41659513D01*
X118938734Y-41659517D01*
X118859517Y-41738734D01*
X118859513Y-41738740D01*
X118803498Y-41835760D01*
X118803497Y-41835763D01*
X118774500Y-41943982D01*
X118000000Y-41943982D01*
X118000000Y-40743982D01*
X118774500Y-40743982D01*
X118774500Y-40856018D01*
X118803497Y-40964237D01*
X118859515Y-41061263D01*
X118938737Y-41140485D01*
X119035763Y-41196503D01*
X119143982Y-41225500D01*
X119143984Y-41225500D01*
X119256016Y-41225500D01*
X119256018Y-41225500D01*
X119364237Y-41196503D01*
X119461263Y-41140485D01*
X119540485Y-41061263D01*
X119549320Y-41045959D01*
X119599882Y-40997745D01*
X119668489Y-40984519D01*
X119718705Y-41000570D01*
X119798263Y-41046503D01*
X119906482Y-41075500D01*
X119906484Y-41075500D01*
X120018516Y-41075500D01*
X120018518Y-41075500D01*
X120126737Y-41046503D01*
X120223763Y-40990485D01*
X120302985Y-40911263D01*
X120359003Y-40814237D01*
X120388000Y-40706018D01*
X120388000Y-40593982D01*
X123112000Y-40593982D01*
X123112000Y-40706018D01*
X123140997Y-40814237D01*
X123197015Y-40911263D01*
X123276237Y-40990485D01*
X123373263Y-41046503D01*
X123481482Y-41075500D01*
X123481484Y-41075500D01*
X123593516Y-41075500D01*
X123593518Y-41075500D01*
X123701737Y-41046503D01*
X123798763Y-40990485D01*
X123877985Y-40911263D01*
X123934003Y-40814237D01*
X123963000Y-40706018D01*
X123963000Y-40593982D01*
X125537000Y-40593982D01*
X125537000Y-40706018D01*
X125565997Y-40814237D01*
X125622015Y-40911263D01*
X125701237Y-40990485D01*
X125798263Y-41046503D01*
X125906482Y-41075500D01*
X125906484Y-41075500D01*
X126018516Y-41075500D01*
X126018518Y-41075500D01*
X126126737Y-41046503D01*
X126223763Y-40990485D01*
X126302985Y-40911263D01*
X126359003Y-40814237D01*
X126388000Y-40706018D01*
X126388000Y-40593982D01*
X129112000Y-40593982D01*
X129112000Y-40706018D01*
X129140997Y-40814237D01*
X129197015Y-40911263D01*
X129276237Y-40990485D01*
X129373263Y-41046503D01*
X129481482Y-41075500D01*
X129481484Y-41075500D01*
X129593516Y-41075500D01*
X129593518Y-41075500D01*
X129701737Y-41046503D01*
X129798763Y-40990485D01*
X129877985Y-40911263D01*
X129934003Y-40814237D01*
X129963000Y-40706018D01*
X129963000Y-40593982D01*
X129934003Y-40485763D01*
X129877985Y-40388737D01*
X129798763Y-40309515D01*
X129701737Y-40253497D01*
X129593518Y-40224500D01*
X129481482Y-40224500D01*
X129373263Y-40253497D01*
X129373260Y-40253498D01*
X129276240Y-40309513D01*
X129276234Y-40309517D01*
X129197017Y-40388734D01*
X129197013Y-40388740D01*
X129140998Y-40485760D01*
X129140997Y-40485763D01*
X129112000Y-40593982D01*
X126388000Y-40593982D01*
X126359003Y-40485763D01*
X126302985Y-40388737D01*
X126223763Y-40309515D01*
X126126737Y-40253497D01*
X126018518Y-40224500D01*
X125906482Y-40224500D01*
X125798263Y-40253497D01*
X125798260Y-40253498D01*
X125701240Y-40309513D01*
X125701234Y-40309517D01*
X125622017Y-40388734D01*
X125622013Y-40388740D01*
X125565998Y-40485760D01*
X125565997Y-40485763D01*
X125537000Y-40593982D01*
X123963000Y-40593982D01*
X123934003Y-40485763D01*
X123877985Y-40388737D01*
X123798763Y-40309515D01*
X123701737Y-40253497D01*
X123593518Y-40224500D01*
X123481482Y-40224500D01*
X123373263Y-40253497D01*
X123373260Y-40253498D01*
X123276240Y-40309513D01*
X123276234Y-40309517D01*
X123197017Y-40388734D01*
X123197013Y-40388740D01*
X123140998Y-40485760D01*
X123140997Y-40485763D01*
X123112000Y-40593982D01*
X120388000Y-40593982D01*
X120359003Y-40485763D01*
X120302985Y-40388737D01*
X120223763Y-40309515D01*
X120126737Y-40253497D01*
X120018518Y-40224500D01*
X119906482Y-40224500D01*
X119798263Y-40253497D01*
X119798260Y-40253498D01*
X119701240Y-40309513D01*
X119701234Y-40309517D01*
X119622017Y-40388734D01*
X119622015Y-40388737D01*
X119613494Y-40403497D01*
X119613179Y-40404042D01*
X119562611Y-40452257D01*
X119494004Y-40465479D01*
X119443792Y-40449428D01*
X119364239Y-40403498D01*
X119364238Y-40403497D01*
X119364237Y-40403497D01*
X119256018Y-40374500D01*
X119143982Y-40374500D01*
X119035763Y-40403497D01*
X119035760Y-40403498D01*
X118938740Y-40459513D01*
X118938734Y-40459517D01*
X118859517Y-40538734D01*
X118859513Y-40538740D01*
X118803498Y-40635760D01*
X118803497Y-40635763D01*
X118774500Y-40743982D01*
X118000000Y-40743982D01*
X118000000Y-39293982D01*
X119537000Y-39293982D01*
X119537000Y-39406018D01*
X119565997Y-39514237D01*
X119622015Y-39611263D01*
X119701237Y-39690485D01*
X119798263Y-39746503D01*
X119906482Y-39775500D01*
X119906484Y-39775500D01*
X120018516Y-39775500D01*
X120018518Y-39775500D01*
X120126737Y-39746503D01*
X120223763Y-39690485D01*
X120302985Y-39611263D01*
X120359003Y-39514237D01*
X120388000Y-39406018D01*
X120388000Y-39293982D01*
X123112000Y-39293982D01*
X123112000Y-39406018D01*
X123140997Y-39514237D01*
X123197015Y-39611263D01*
X123276237Y-39690485D01*
X123373263Y-39746503D01*
X123481482Y-39775500D01*
X123481484Y-39775500D01*
X123593516Y-39775500D01*
X123593518Y-39775500D01*
X123701737Y-39746503D01*
X123798763Y-39690485D01*
X123877985Y-39611263D01*
X123934003Y-39514237D01*
X123963000Y-39406018D01*
X123963000Y-39293982D01*
X123934003Y-39185763D01*
X123909881Y-39143982D01*
X124574500Y-39143982D01*
X124574500Y-39256018D01*
X124603497Y-39364237D01*
X124659515Y-39461263D01*
X124738737Y-39540485D01*
X124835763Y-39596503D01*
X124943982Y-39625500D01*
X124943984Y-39625500D01*
X125056016Y-39625500D01*
X125056018Y-39625500D01*
X125164237Y-39596503D01*
X125261263Y-39540485D01*
X125340485Y-39461263D01*
X125340489Y-39461255D01*
X125344037Y-39456633D01*
X125400465Y-39415429D01*
X125470211Y-39411274D01*
X125531131Y-39445485D01*
X125562188Y-39500023D01*
X125565995Y-39514232D01*
X125565996Y-39514236D01*
X125565997Y-39514237D01*
X125622015Y-39611263D01*
X125701237Y-39690485D01*
X125798263Y-39746503D01*
X125906482Y-39775500D01*
X125906484Y-39775500D01*
X126018516Y-39775500D01*
X126018518Y-39775500D01*
X126126737Y-39746503D01*
X126223763Y-39690485D01*
X126302985Y-39611263D01*
X126359003Y-39514237D01*
X126388000Y-39406018D01*
X126388000Y-39293982D01*
X129112000Y-39293982D01*
X129112000Y-39406018D01*
X129140997Y-39514237D01*
X129197015Y-39611263D01*
X129276237Y-39690485D01*
X129373263Y-39746503D01*
X129481482Y-39775500D01*
X129481484Y-39775500D01*
X129593516Y-39775500D01*
X129593518Y-39775500D01*
X129701737Y-39746503D01*
X129798763Y-39690485D01*
X129877985Y-39611263D01*
X129934003Y-39514237D01*
X129963000Y-39406018D01*
X129963000Y-39293982D01*
X129934003Y-39185763D01*
X129877985Y-39088737D01*
X129798763Y-39009515D01*
X129720339Y-38964237D01*
X129701739Y-38953498D01*
X129701738Y-38953497D01*
X129701737Y-38953497D01*
X129593518Y-38924500D01*
X129481482Y-38924500D01*
X129373263Y-38953497D01*
X129373260Y-38953498D01*
X129276240Y-39009513D01*
X129276238Y-39009514D01*
X129215836Y-39069915D01*
X129215834Y-39069917D01*
X129197015Y-39088737D01*
X129140997Y-39185763D01*
X129135786Y-39205208D01*
X129135785Y-39205211D01*
X129122172Y-39256018D01*
X129112000Y-39293982D01*
X126388000Y-39293982D01*
X126359003Y-39185763D01*
X126302985Y-39088737D01*
X126223763Y-39009515D01*
X126145339Y-38964237D01*
X126126739Y-38953498D01*
X126126738Y-38953497D01*
X126126737Y-38953497D01*
X126018518Y-38924500D01*
X125906482Y-38924500D01*
X125798263Y-38953497D01*
X125798260Y-38953498D01*
X125701240Y-39009513D01*
X125701234Y-39009517D01*
X125622011Y-39088740D01*
X125618454Y-39093376D01*
X125562023Y-39134574D01*
X125492276Y-39138723D01*
X125431359Y-39104505D01*
X125400310Y-39049972D01*
X125396503Y-39035763D01*
X125340485Y-38938737D01*
X125261263Y-38859515D01*
X125164237Y-38803497D01*
X125056018Y-38774500D01*
X124943982Y-38774500D01*
X124835763Y-38803497D01*
X124835760Y-38803498D01*
X124738740Y-38859513D01*
X124738734Y-38859517D01*
X124659517Y-38938734D01*
X124659513Y-38938740D01*
X124603498Y-39035760D01*
X124603497Y-39035763D01*
X124574500Y-39143982D01*
X123909881Y-39143982D01*
X123877985Y-39088737D01*
X123814477Y-39025229D01*
X123808682Y-39017218D01*
X123800179Y-38993232D01*
X123787984Y-38970898D01*
X123788702Y-38960854D01*
X123785338Y-38951364D01*
X123791152Y-38926589D01*
X123792968Y-38901206D01*
X123799002Y-38893145D01*
X123801303Y-38883343D01*
X123819590Y-38865643D01*
X123834840Y-38845273D01*
X123844272Y-38841754D01*
X123851509Y-38834751D01*
X123876462Y-38829748D01*
X123900304Y-38820856D01*
X123914199Y-38822183D01*
X123920016Y-38821017D01*
X123925829Y-38823293D01*
X123941243Y-38824766D01*
X123943982Y-38825500D01*
X123943986Y-38825500D01*
X124056016Y-38825500D01*
X124056018Y-38825500D01*
X124164237Y-38796503D01*
X124255206Y-38743982D01*
X128174500Y-38743982D01*
X128174500Y-38856018D01*
X128203497Y-38964237D01*
X128259515Y-39061263D01*
X128338737Y-39140485D01*
X128435763Y-39196503D01*
X128543982Y-39225500D01*
X128543984Y-39225500D01*
X128656016Y-39225500D01*
X128656018Y-39225500D01*
X128764237Y-39196503D01*
X128861263Y-39140485D01*
X128940485Y-39061263D01*
X128996503Y-38964237D01*
X129025500Y-38856018D01*
X129025500Y-38743982D01*
X128996503Y-38635763D01*
X128940485Y-38538737D01*
X128861263Y-38459515D01*
X128764237Y-38403497D01*
X128656018Y-38374500D01*
X128543982Y-38374500D01*
X128435763Y-38403497D01*
X128435760Y-38403498D01*
X128338740Y-38459513D01*
X128338734Y-38459517D01*
X128259517Y-38538734D01*
X128259513Y-38538740D01*
X128203498Y-38635760D01*
X128203497Y-38635763D01*
X128174500Y-38743982D01*
X124255206Y-38743982D01*
X124261263Y-38740485D01*
X124340485Y-38661263D01*
X124396503Y-38564237D01*
X124425500Y-38456018D01*
X124425500Y-38343982D01*
X124396503Y-38235763D01*
X124340485Y-38138737D01*
X124261263Y-38059515D01*
X124164237Y-38003497D01*
X124056018Y-37974500D01*
X123943982Y-37974500D01*
X123835763Y-38003497D01*
X123835760Y-38003498D01*
X123738740Y-38059513D01*
X123738734Y-38059517D01*
X123659517Y-38138734D01*
X123659513Y-38138740D01*
X123603498Y-38235760D01*
X123603497Y-38235763D01*
X123574500Y-38343982D01*
X123574500Y-38456018D01*
X123603497Y-38564237D01*
X123659515Y-38661263D01*
X123659517Y-38661265D01*
X123716030Y-38717778D01*
X123749515Y-38779101D01*
X123744531Y-38848793D01*
X123702659Y-38904726D01*
X123637195Y-38929143D01*
X123596258Y-38925234D01*
X123593518Y-38924500D01*
X123481482Y-38924500D01*
X123373263Y-38953497D01*
X123373260Y-38953498D01*
X123276240Y-39009513D01*
X123276234Y-39009517D01*
X123197017Y-39088734D01*
X123197013Y-39088740D01*
X123140998Y-39185760D01*
X123140997Y-39185763D01*
X123112000Y-39293982D01*
X120388000Y-39293982D01*
X120359003Y-39185763D01*
X120302985Y-39088737D01*
X120223763Y-39009515D01*
X120145339Y-38964237D01*
X120126739Y-38953498D01*
X120126738Y-38953497D01*
X120126737Y-38953497D01*
X120018518Y-38924500D01*
X119906482Y-38924500D01*
X119798263Y-38953497D01*
X119798260Y-38953498D01*
X119701240Y-39009513D01*
X119701234Y-39009517D01*
X119622017Y-39088734D01*
X119622013Y-39088740D01*
X119565998Y-39185760D01*
X119565997Y-39185763D01*
X119537000Y-39293982D01*
X118000000Y-39293982D01*
X118000000Y-38743982D01*
X120774500Y-38743982D01*
X120774500Y-38856018D01*
X120803497Y-38964237D01*
X120859515Y-39061263D01*
X120938737Y-39140485D01*
X121035763Y-39196503D01*
X121143982Y-39225500D01*
X121143984Y-39225500D01*
X121256016Y-39225500D01*
X121256018Y-39225500D01*
X121364237Y-39196503D01*
X121461263Y-39140485D01*
X121540485Y-39061263D01*
X121596503Y-38964237D01*
X121625500Y-38856018D01*
X121625500Y-38743982D01*
X121596503Y-38635763D01*
X121540485Y-38538737D01*
X121461263Y-38459515D01*
X121364237Y-38403497D01*
X121256018Y-38374500D01*
X121143982Y-38374500D01*
X121035763Y-38403497D01*
X121035760Y-38403498D01*
X120938740Y-38459513D01*
X120938734Y-38459517D01*
X120859517Y-38538734D01*
X120859513Y-38538740D01*
X120803498Y-38635760D01*
X120803497Y-38635763D01*
X120774500Y-38743982D01*
X118000000Y-38743982D01*
X118000000Y-35143982D01*
X126374500Y-35143982D01*
X126374500Y-35256018D01*
X126403497Y-35364237D01*
X126459515Y-35461263D01*
X126538737Y-35540485D01*
X126635763Y-35596503D01*
X126743982Y-35625500D01*
X126743993Y-35625500D01*
X126751351Y-35626469D01*
X126815249Y-35654734D01*
X126853722Y-35713057D01*
X126854556Y-35782922D01*
X126842558Y-35811407D01*
X126828499Y-35835758D01*
X126828497Y-35835763D01*
X126799500Y-35943982D01*
X126799500Y-36056018D01*
X126828497Y-36164237D01*
X126884515Y-36261263D01*
X126963737Y-36340485D01*
X127060763Y-36396503D01*
X127168982Y-36425500D01*
X127168984Y-36425500D01*
X127281016Y-36425500D01*
X127281018Y-36425500D01*
X127389237Y-36396503D01*
X127486263Y-36340485D01*
X127565485Y-36261263D01*
X127621503Y-36164237D01*
X127650500Y-36056018D01*
X127650500Y-35943982D01*
X127621503Y-35835763D01*
X127565485Y-35738737D01*
X127486263Y-35659515D01*
X127389237Y-35603497D01*
X127281018Y-35574500D01*
X127281017Y-35574500D01*
X127273641Y-35573529D01*
X127209745Y-35545261D01*
X127171275Y-35486936D01*
X127170445Y-35417071D01*
X127182440Y-35388594D01*
X127196503Y-35364237D01*
X127225500Y-35256018D01*
X127225500Y-35143982D01*
X127196503Y-35035763D01*
X127140485Y-34938737D01*
X127061263Y-34859515D01*
X126964237Y-34803497D01*
X126856018Y-34774500D01*
X126743982Y-34774500D01*
X126635763Y-34803497D01*
X126635760Y-34803498D01*
X126538740Y-34859513D01*
X126538734Y-34859517D01*
X126459517Y-34938734D01*
X126459513Y-34938740D01*
X126403498Y-35035760D01*
X126403497Y-35035763D01*
X126374500Y-35143982D01*
X118000000Y-35143982D01*
X118000000Y-34250000D01*
X70000000Y-34250000D01*
X70000000Y-55250000D01*
X1000000Y-55250000D01*
X1000000Y-48124000D01*
X1019685Y-48056961D01*
X1072489Y-48011206D01*
X1124000Y-48000000D01*
X58000000Y-48000000D01*
X58000000Y-33943982D01*
X120799500Y-33943982D01*
X120799500Y-34056018D01*
X120828497Y-34164237D01*
X120884515Y-34261263D01*
X120963737Y-34340485D01*
X121060763Y-34396503D01*
X121168982Y-34425500D01*
X121168984Y-34425500D01*
X121281016Y-34425500D01*
X121281018Y-34425500D01*
X121389237Y-34396503D01*
X121486263Y-34340485D01*
X121565485Y-34261263D01*
X121621503Y-34164237D01*
X121650500Y-34056018D01*
X121650500Y-33943982D01*
X144974500Y-33943982D01*
X144974500Y-34056018D01*
X145003497Y-34164237D01*
X145059515Y-34261263D01*
X145138737Y-34340485D01*
X145235763Y-34396503D01*
X145343982Y-34425500D01*
X145343984Y-34425500D01*
X145456016Y-34425500D01*
X145456018Y-34425500D01*
X145564237Y-34396503D01*
X145661263Y-34340485D01*
X145724819Y-34276929D01*
X145786142Y-34243444D01*
X145855834Y-34248428D01*
X145900181Y-34276929D01*
X145963737Y-34340485D01*
X146060763Y-34396503D01*
X146168982Y-34425500D01*
X146168984Y-34425500D01*
X146281016Y-34425500D01*
X146281018Y-34425500D01*
X146389237Y-34396503D01*
X146486263Y-34340485D01*
X146565485Y-34261263D01*
X146621503Y-34164237D01*
X146650500Y-34056018D01*
X146650500Y-33943982D01*
X146621503Y-33835763D01*
X146565485Y-33738737D01*
X146486263Y-33659515D01*
X146389237Y-33603497D01*
X146281018Y-33574500D01*
X146168982Y-33574500D01*
X146060763Y-33603497D01*
X146060760Y-33603498D01*
X145963740Y-33659513D01*
X145963734Y-33659517D01*
X145900181Y-33723071D01*
X145838858Y-33756556D01*
X145769166Y-33751572D01*
X145724819Y-33723071D01*
X145661265Y-33659517D01*
X145661263Y-33659515D01*
X145564237Y-33603497D01*
X145456018Y-33574500D01*
X145343982Y-33574500D01*
X145235763Y-33603497D01*
X145235760Y-33603498D01*
X145138740Y-33659513D01*
X145138734Y-33659517D01*
X145059517Y-33738734D01*
X145059513Y-33738740D01*
X145003498Y-33835760D01*
X145003497Y-33835763D01*
X144974500Y-33943982D01*
X121650500Y-33943982D01*
X121621503Y-33835763D01*
X121565485Y-33738737D01*
X121486263Y-33659515D01*
X121389237Y-33603497D01*
X121281018Y-33574500D01*
X121168982Y-33574500D01*
X121060763Y-33603497D01*
X121060760Y-33603498D01*
X120963740Y-33659513D01*
X120963734Y-33659517D01*
X120884517Y-33738734D01*
X120884513Y-33738740D01*
X120828498Y-33835760D01*
X120828497Y-33835763D01*
X120799500Y-33943982D01*
X58000000Y-33943982D01*
X58000000Y-33143982D01*
X119374500Y-33143982D01*
X119374500Y-33256018D01*
X119403497Y-33364237D01*
X119459515Y-33461263D01*
X119538737Y-33540485D01*
X119635763Y-33596503D01*
X119743982Y-33625500D01*
X119743984Y-33625500D01*
X119856016Y-33625500D01*
X119856018Y-33625500D01*
X119964237Y-33596503D01*
X120061263Y-33540485D01*
X120140485Y-33461263D01*
X120196503Y-33364237D01*
X120225500Y-33256018D01*
X120225500Y-33143982D01*
X120196503Y-33035763D01*
X120140485Y-32938737D01*
X120061263Y-32859515D01*
X119964237Y-32803497D01*
X119856018Y-32774500D01*
X119743982Y-32774500D01*
X119635763Y-32803497D01*
X119635760Y-32803498D01*
X119538740Y-32859513D01*
X119538734Y-32859517D01*
X119459517Y-32938734D01*
X119459513Y-32938740D01*
X119403498Y-33035760D01*
X119403497Y-33035763D01*
X119374500Y-33143982D01*
X58000000Y-33143982D01*
X58000000Y-32543982D01*
X120974500Y-32543982D01*
X120974500Y-32656018D01*
X121003497Y-32764237D01*
X121059515Y-32861263D01*
X121138737Y-32940485D01*
X121235763Y-32996503D01*
X121343982Y-33025500D01*
X121343984Y-33025500D01*
X121456016Y-33025500D01*
X121456018Y-33025500D01*
X121564237Y-32996503D01*
X121661263Y-32940485D01*
X121740485Y-32861263D01*
X121796503Y-32764237D01*
X121825500Y-32656018D01*
X121825500Y-32543982D01*
X121796503Y-32435763D01*
X121740485Y-32338737D01*
X121661263Y-32259515D01*
X121564237Y-32203497D01*
X121456018Y-32174500D01*
X121343982Y-32174500D01*
X121235763Y-32203497D01*
X121235760Y-32203498D01*
X121138740Y-32259513D01*
X121138734Y-32259517D01*
X121059517Y-32338734D01*
X121059513Y-32338740D01*
X121003498Y-32435760D01*
X121003497Y-32435763D01*
X120974500Y-32543982D01*
X58000000Y-32543982D01*
X58000000Y-30443982D01*
X119537000Y-30443982D01*
X119537000Y-30556018D01*
X119565997Y-30664237D01*
X119622015Y-30761263D01*
X119701237Y-30840485D01*
X119798263Y-30896503D01*
X119906482Y-30925500D01*
X119906484Y-30925500D01*
X120018516Y-30925500D01*
X120018518Y-30925500D01*
X120126737Y-30896503D01*
X120223763Y-30840485D01*
X120302985Y-30761263D01*
X120359003Y-30664237D01*
X120388000Y-30556018D01*
X120388000Y-30443982D01*
X120359003Y-30335763D01*
X120302985Y-30238737D01*
X120223763Y-30159515D01*
X120126737Y-30103497D01*
X120018518Y-30074500D01*
X119906482Y-30074500D01*
X119798263Y-30103497D01*
X119798260Y-30103498D01*
X119701240Y-30159513D01*
X119701234Y-30159517D01*
X119622017Y-30238734D01*
X119622013Y-30238740D01*
X119565998Y-30335760D01*
X119565997Y-30335763D01*
X119537000Y-30443982D01*
X58000000Y-30443982D01*
X58000000Y-29443982D01*
X115112000Y-29443982D01*
X115112000Y-29556018D01*
X115140997Y-29664237D01*
X115197015Y-29761263D01*
X115276237Y-29840485D01*
X115373263Y-29896503D01*
X115481482Y-29925500D01*
X115481484Y-29925500D01*
X115488000Y-29925500D01*
X115555039Y-29945185D01*
X115600794Y-29997989D01*
X115612000Y-30049500D01*
X115612000Y-30056018D01*
X115640997Y-30164237D01*
X115697015Y-30261263D01*
X115776237Y-30340485D01*
X115873263Y-30396503D01*
X115981482Y-30425500D01*
X115981484Y-30425500D01*
X116093516Y-30425500D01*
X116093518Y-30425500D01*
X116201737Y-30396503D01*
X116298763Y-30340485D01*
X116377985Y-30261263D01*
X116434003Y-30164237D01*
X116463000Y-30056018D01*
X116463000Y-29943982D01*
X116434003Y-29835763D01*
X116377985Y-29738737D01*
X116298763Y-29659515D01*
X116201737Y-29603497D01*
X116093518Y-29574500D01*
X116087000Y-29574500D01*
X116019961Y-29554815D01*
X115974206Y-29502011D01*
X115963000Y-29450500D01*
X115963000Y-29443984D01*
X115963000Y-29443982D01*
X115934003Y-29335763D01*
X115877985Y-29238737D01*
X115798763Y-29159515D01*
X115701737Y-29103497D01*
X115593518Y-29074500D01*
X115481482Y-29074500D01*
X115373263Y-29103497D01*
X115373260Y-29103498D01*
X115276240Y-29159513D01*
X115276234Y-29159517D01*
X115197017Y-29238734D01*
X115197013Y-29238740D01*
X115140998Y-29335760D01*
X115140997Y-29335763D01*
X115112000Y-29443982D01*
X58000000Y-29443982D01*
X58000000Y-28543982D01*
X116374500Y-28543982D01*
X116374500Y-28656018D01*
X116403497Y-28764237D01*
X116459515Y-28861263D01*
X116538737Y-28940485D01*
X116635763Y-28996503D01*
X116743982Y-29025500D01*
X116743984Y-29025500D01*
X116856016Y-29025500D01*
X116856018Y-29025500D01*
X116964237Y-28996503D01*
X117061263Y-28940485D01*
X117140485Y-28861263D01*
X117196503Y-28764237D01*
X117225500Y-28656018D01*
X117225500Y-28579722D01*
X117245185Y-28512683D01*
X117297989Y-28466928D01*
X117317396Y-28459951D01*
X117414237Y-28434003D01*
X117511263Y-28377985D01*
X117590485Y-28298763D01*
X117646503Y-28201737D01*
X117675500Y-28093518D01*
X117675500Y-28087000D01*
X117695185Y-28019961D01*
X117747989Y-27974206D01*
X117799500Y-27963000D01*
X117806016Y-27963000D01*
X117806018Y-27963000D01*
X117914237Y-27934003D01*
X118011263Y-27877985D01*
X118090485Y-27798763D01*
X118146503Y-27701737D01*
X118175500Y-27593518D01*
X118175500Y-27481482D01*
X118146503Y-27373263D01*
X118090485Y-27276237D01*
X118011263Y-27197015D01*
X117914237Y-27140997D01*
X117806018Y-27112000D01*
X117693982Y-27112000D01*
X117585763Y-27140997D01*
X117585760Y-27140998D01*
X117488740Y-27197013D01*
X117488734Y-27197017D01*
X117409517Y-27276234D01*
X117409513Y-27276240D01*
X117353498Y-27373260D01*
X117353497Y-27373263D01*
X117324500Y-27481482D01*
X117324500Y-27488000D01*
X117304815Y-27555039D01*
X117252011Y-27600794D01*
X117200500Y-27612000D01*
X117193982Y-27612000D01*
X117085763Y-27640997D01*
X117085760Y-27640998D01*
X116988740Y-27697013D01*
X116988734Y-27697017D01*
X116909517Y-27776234D01*
X116909513Y-27776240D01*
X116853498Y-27873260D01*
X116853497Y-27873263D01*
X116824500Y-27981482D01*
X116824500Y-28057777D01*
X116804815Y-28124816D01*
X116752011Y-28170571D01*
X116732596Y-28177550D01*
X116642324Y-28201739D01*
X116635763Y-28203497D01*
X116635760Y-28203498D01*
X116538740Y-28259513D01*
X116538734Y-28259517D01*
X116459517Y-28338734D01*
X116459513Y-28338740D01*
X116403498Y-28435760D01*
X116403497Y-28435763D01*
X116374500Y-28543982D01*
X58000000Y-28543982D01*
X58000000Y-25943982D01*
X116799500Y-25943982D01*
X116799500Y-26056018D01*
X116828497Y-26164237D01*
X116884515Y-26261263D01*
X116963737Y-26340485D01*
X117060763Y-26396503D01*
X117168982Y-26425500D01*
X117168984Y-26425500D01*
X117281016Y-26425500D01*
X117281018Y-26425500D01*
X117389237Y-26396503D01*
X117486263Y-26340485D01*
X117565485Y-26261263D01*
X117621503Y-26164237D01*
X117650500Y-26056018D01*
X117650500Y-25943982D01*
X117621503Y-25835763D01*
X117565485Y-25738737D01*
X117486263Y-25659515D01*
X117389237Y-25603497D01*
X117281018Y-25574500D01*
X117168982Y-25574500D01*
X117060763Y-25603497D01*
X117060760Y-25603498D01*
X116963740Y-25659513D01*
X116963734Y-25659517D01*
X116884517Y-25738734D01*
X116884513Y-25738740D01*
X116828498Y-25835760D01*
X116828497Y-25835763D01*
X116799500Y-25943982D01*
X58000000Y-25943982D01*
X58000000Y-22743982D01*
X125574500Y-22743982D01*
X125574500Y-22856018D01*
X125603497Y-22964237D01*
X125659515Y-23061263D01*
X125738737Y-23140485D01*
X125835763Y-23196503D01*
X125943982Y-23225500D01*
X125943984Y-23225500D01*
X126056016Y-23225500D01*
X126056018Y-23225500D01*
X126164237Y-23196503D01*
X126261263Y-23140485D01*
X126340485Y-23061263D01*
X126396503Y-22964237D01*
X126425500Y-22856018D01*
X126425500Y-22743982D01*
X126396503Y-22635763D01*
X126340485Y-22538737D01*
X126261263Y-22459515D01*
X126164237Y-22403497D01*
X126056018Y-22374500D01*
X125943982Y-22374500D01*
X125835763Y-22403497D01*
X125835760Y-22403498D01*
X125738740Y-22459513D01*
X125738734Y-22459517D01*
X125659517Y-22538734D01*
X125659513Y-22538740D01*
X125603498Y-22635760D01*
X125603497Y-22635763D01*
X125574500Y-22743982D01*
X58000000Y-22743982D01*
X58000000Y-21943982D01*
X121799500Y-21943982D01*
X121799500Y-22056018D01*
X121828497Y-22164237D01*
X121884515Y-22261263D01*
X121963737Y-22340485D01*
X122060763Y-22396503D01*
X122168982Y-22425500D01*
X122168984Y-22425500D01*
X122281016Y-22425500D01*
X122281018Y-22425500D01*
X122389237Y-22396503D01*
X122486263Y-22340485D01*
X122565485Y-22261263D01*
X122621503Y-22164237D01*
X122650500Y-22056018D01*
X122650500Y-21943982D01*
X122621503Y-21835763D01*
X122565485Y-21738737D01*
X122486263Y-21659515D01*
X122389237Y-21603497D01*
X122281018Y-21574500D01*
X122168982Y-21574500D01*
X122060763Y-21603497D01*
X122060760Y-21603498D01*
X121963740Y-21659513D01*
X121963734Y-21659517D01*
X121884517Y-21738734D01*
X121884513Y-21738740D01*
X121828498Y-21835760D01*
X121828497Y-21835763D01*
X121799500Y-21943982D01*
X58000000Y-21943982D01*
X58000000Y-21143983D01*
X124974500Y-21143983D01*
X124974500Y-21256019D01*
X125003497Y-21364238D01*
X125059515Y-21461264D01*
X125138737Y-21540486D01*
X125235763Y-21596504D01*
X125343982Y-21625501D01*
X125343984Y-21625501D01*
X125456016Y-21625501D01*
X125456018Y-21625501D01*
X125564237Y-21596504D01*
X125661263Y-21540486D01*
X125740485Y-21461264D01*
X125796503Y-21364238D01*
X125825500Y-21256019D01*
X125825500Y-21143983D01*
X125796503Y-21035764D01*
X125740485Y-20938738D01*
X125661263Y-20859516D01*
X125564237Y-20803498D01*
X125456018Y-20774501D01*
X125343982Y-20774501D01*
X125235763Y-20803498D01*
X125235760Y-20803499D01*
X125138740Y-20859514D01*
X125138734Y-20859518D01*
X125059517Y-20938735D01*
X125059513Y-20938741D01*
X125003498Y-21035761D01*
X125003497Y-21035764D01*
X124974500Y-21143983D01*
X58000000Y-21143983D01*
X58000000Y-19943982D01*
X72799500Y-19943982D01*
X72799500Y-20056018D01*
X72828497Y-20164237D01*
X72884515Y-20261263D01*
X72963737Y-20340485D01*
X73060763Y-20396503D01*
X73168982Y-20425500D01*
X73168984Y-20425500D01*
X73281016Y-20425500D01*
X73281018Y-20425500D01*
X73389237Y-20396503D01*
X73486263Y-20340485D01*
X73565485Y-20261263D01*
X73621503Y-20164237D01*
X73626930Y-20143982D01*
X124174500Y-20143982D01*
X124174500Y-20256018D01*
X124203497Y-20364237D01*
X124259515Y-20461263D01*
X124338737Y-20540485D01*
X124435763Y-20596503D01*
X124543982Y-20625500D01*
X124543984Y-20625500D01*
X124656016Y-20625500D01*
X124656018Y-20625500D01*
X124764237Y-20596503D01*
X124861263Y-20540485D01*
X124940485Y-20461263D01*
X124996503Y-20364237D01*
X125025500Y-20256018D01*
X125025500Y-20143982D01*
X124996503Y-20035763D01*
X124940485Y-19938737D01*
X124861263Y-19859515D01*
X124764237Y-19803497D01*
X124656018Y-19774500D01*
X124543982Y-19774500D01*
X124435763Y-19803497D01*
X124435760Y-19803498D01*
X124338740Y-19859513D01*
X124338734Y-19859517D01*
X124259517Y-19938734D01*
X124259513Y-19938740D01*
X124203498Y-20035760D01*
X124203497Y-20035763D01*
X124174500Y-20143982D01*
X73626930Y-20143982D01*
X73650500Y-20056018D01*
X73650500Y-19943982D01*
X73621503Y-19835763D01*
X73565485Y-19738737D01*
X73486263Y-19659515D01*
X73389237Y-19603497D01*
X73281018Y-19574500D01*
X73168982Y-19574500D01*
X73060763Y-19603497D01*
X73060760Y-19603498D01*
X72963740Y-19659513D01*
X72963734Y-19659517D01*
X72884517Y-19738734D01*
X72884513Y-19738740D01*
X72828498Y-19835760D01*
X72828497Y-19835763D01*
X72799500Y-19943982D01*
X58000000Y-19943982D01*
X58000000Y-17943982D01*
X80799500Y-17943982D01*
X80799500Y-18056018D01*
X80828497Y-18164237D01*
X80884515Y-18261263D01*
X80963737Y-18340485D01*
X81060763Y-18396503D01*
X81168982Y-18425500D01*
X81168984Y-18425500D01*
X81281016Y-18425500D01*
X81281018Y-18425500D01*
X81389237Y-18396503D01*
X81486263Y-18340485D01*
X81565485Y-18261263D01*
X81621503Y-18164237D01*
X81650500Y-18056018D01*
X81650500Y-17943982D01*
X81621503Y-17835763D01*
X81565485Y-17738737D01*
X81486263Y-17659515D01*
X81389237Y-17603497D01*
X81281018Y-17574500D01*
X81168982Y-17574500D01*
X81060763Y-17603497D01*
X81060760Y-17603498D01*
X80963740Y-17659513D01*
X80963734Y-17659517D01*
X80884517Y-17738734D01*
X80884513Y-17738740D01*
X80828498Y-17835760D01*
X80828497Y-17835763D01*
X80799500Y-17943982D01*
X58000000Y-17943982D01*
X58000000Y-15848982D01*
X74049500Y-15848982D01*
X74049500Y-15961018D01*
X74078497Y-16069237D01*
X74134515Y-16166263D01*
X74213737Y-16245485D01*
X74310763Y-16301503D01*
X74418982Y-16330500D01*
X74418984Y-16330500D01*
X74531016Y-16330500D01*
X74531018Y-16330500D01*
X74639237Y-16301503D01*
X74736263Y-16245485D01*
X74815485Y-16166263D01*
X74871503Y-16069237D01*
X74900500Y-15961018D01*
X74900500Y-15903551D01*
X150774500Y-15903551D01*
X150774500Y-16096448D01*
X150804675Y-16286969D01*
X150804676Y-16286972D01*
X150864285Y-16470429D01*
X150951859Y-16642302D01*
X151065241Y-16798359D01*
X151201641Y-16934759D01*
X151357698Y-17048141D01*
X151529571Y-17135715D01*
X151713028Y-17195324D01*
X151903551Y-17225500D01*
X151903552Y-17225500D01*
X152096448Y-17225500D01*
X152096449Y-17225500D01*
X152286972Y-17195324D01*
X152470429Y-17135715D01*
X152642302Y-17048141D01*
X152798359Y-16934759D01*
X152934759Y-16798359D01*
X153048141Y-16642302D01*
X153135715Y-16470429D01*
X153195324Y-16286972D01*
X153225500Y-16096449D01*
X153225500Y-15903551D01*
X153195324Y-15713028D01*
X153135715Y-15529571D01*
X153048141Y-15357698D01*
X152934759Y-15201641D01*
X152798359Y-15065241D01*
X152642302Y-14951859D01*
X152470429Y-14864285D01*
X152286972Y-14804676D01*
X152286970Y-14804675D01*
X152286969Y-14804675D01*
X152140614Y-14781495D01*
X152096449Y-14774500D01*
X151903551Y-14774500D01*
X151867697Y-14780178D01*
X151713030Y-14804675D01*
X151529568Y-14864286D01*
X151357697Y-14951859D01*
X151268661Y-15016547D01*
X151201641Y-15065241D01*
X151201639Y-15065243D01*
X151201638Y-15065243D01*
X151065243Y-15201638D01*
X151065243Y-15201639D01*
X151065241Y-15201641D01*
X151016547Y-15268661D01*
X150951859Y-15357697D01*
X150864286Y-15529568D01*
X150804675Y-15713030D01*
X150774500Y-15903551D01*
X74900500Y-15903551D01*
X74900500Y-15848982D01*
X74871503Y-15740763D01*
X74815485Y-15643737D01*
X74736263Y-15564515D01*
X74639237Y-15508497D01*
X74531018Y-15479500D01*
X74418982Y-15479500D01*
X74310763Y-15508497D01*
X74310760Y-15508498D01*
X74213740Y-15564513D01*
X74213734Y-15564517D01*
X74134517Y-15643734D01*
X74134513Y-15643740D01*
X74078498Y-15740760D01*
X74078497Y-15740763D01*
X74049500Y-15848982D01*
X58000000Y-15848982D01*
X58000000Y-13746530D01*
X60549500Y-13746530D01*
X60549500Y-14253469D01*
X60589868Y-14456412D01*
X60589870Y-14456420D01*
X60664155Y-14635760D01*
X60669059Y-14647598D01*
X60698071Y-14691018D01*
X60784024Y-14819657D01*
X60930342Y-14965975D01*
X60930345Y-14965977D01*
X61102402Y-15080941D01*
X61293580Y-15160130D01*
X61476431Y-15196501D01*
X61496530Y-15200499D01*
X61496534Y-15200500D01*
X61496535Y-15200500D01*
X61703466Y-15200500D01*
X61703467Y-15200499D01*
X61906420Y-15160130D01*
X62097598Y-15080941D01*
X62269655Y-14965977D01*
X62415977Y-14819655D01*
X62530941Y-14647598D01*
X62535845Y-14635760D01*
X62559363Y-14578982D01*
X69099500Y-14578982D01*
X69099500Y-14691018D01*
X69128497Y-14799237D01*
X69184515Y-14896263D01*
X69263737Y-14975485D01*
X69360763Y-15031503D01*
X69468982Y-15060500D01*
X69468984Y-15060500D01*
X69581016Y-15060500D01*
X69581018Y-15060500D01*
X69689237Y-15031503D01*
X69786263Y-14975485D01*
X69865485Y-14896263D01*
X69866802Y-14893982D01*
X80437000Y-14893982D01*
X80437000Y-15006018D01*
X80465997Y-15114237D01*
X80522015Y-15211263D01*
X80601237Y-15290485D01*
X80698263Y-15346503D01*
X80806482Y-15375500D01*
X80806484Y-15375500D01*
X80918516Y-15375500D01*
X80918518Y-15375500D01*
X81026737Y-15346503D01*
X81123763Y-15290485D01*
X81202985Y-15211263D01*
X81259003Y-15114237D01*
X81288000Y-15006018D01*
X81288000Y-14893982D01*
X81259003Y-14785763D01*
X81234881Y-14743982D01*
X124974500Y-14743982D01*
X124974500Y-14856018D01*
X125000181Y-14951859D01*
X125003497Y-14964236D01*
X125003498Y-14964239D01*
X125009989Y-14975482D01*
X125059515Y-15061263D01*
X125138737Y-15140485D01*
X125235763Y-15196503D01*
X125343982Y-15225500D01*
X125343984Y-15225500D01*
X125456016Y-15225500D01*
X125456018Y-15225500D01*
X125564237Y-15196503D01*
X125661263Y-15140485D01*
X125740485Y-15061263D01*
X125796503Y-14964237D01*
X125825500Y-14856018D01*
X125825500Y-14743982D01*
X125796503Y-14635763D01*
X125740485Y-14538737D01*
X125661263Y-14459515D01*
X125564237Y-14403497D01*
X125456018Y-14374500D01*
X125343982Y-14374500D01*
X125235763Y-14403497D01*
X125235760Y-14403498D01*
X125138740Y-14459513D01*
X125138734Y-14459517D01*
X125059517Y-14538734D01*
X125059513Y-14538740D01*
X125003498Y-14635760D01*
X125003497Y-14635763D01*
X124974500Y-14743982D01*
X81234881Y-14743982D01*
X81202985Y-14688737D01*
X81123763Y-14609515D01*
X81026737Y-14553497D01*
X80918518Y-14524500D01*
X80806482Y-14524500D01*
X80698263Y-14553497D01*
X80698260Y-14553498D01*
X80601240Y-14609513D01*
X80601234Y-14609517D01*
X80522017Y-14688734D01*
X80522013Y-14688740D01*
X80465998Y-14785760D01*
X80465997Y-14785763D01*
X80437000Y-14893982D01*
X69866802Y-14893982D01*
X69921503Y-14799237D01*
X69950500Y-14691018D01*
X69950500Y-14578982D01*
X69921503Y-14470763D01*
X69865485Y-14373737D01*
X69786263Y-14294515D01*
X69689237Y-14238497D01*
X69581018Y-14209500D01*
X69468982Y-14209500D01*
X69360763Y-14238497D01*
X69360760Y-14238498D01*
X69263740Y-14294513D01*
X69263734Y-14294517D01*
X69184517Y-14373734D01*
X69184513Y-14373740D01*
X69128498Y-14470760D01*
X69128497Y-14470763D01*
X69099500Y-14578982D01*
X62559363Y-14578982D01*
X62582385Y-14523402D01*
X62582951Y-14522033D01*
X62610130Y-14456420D01*
X62650500Y-14253465D01*
X62650500Y-13746535D01*
X62610130Y-13543580D01*
X62530941Y-13352402D01*
X62501929Y-13308982D01*
X69099500Y-13308982D01*
X69099500Y-13421018D01*
X69128497Y-13529237D01*
X69184515Y-13626263D01*
X69263737Y-13705485D01*
X69360763Y-13761503D01*
X69468982Y-13790500D01*
X69468984Y-13790500D01*
X69581016Y-13790500D01*
X69581018Y-13790500D01*
X69689237Y-13761503D01*
X69786263Y-13705485D01*
X69865485Y-13626263D01*
X69921503Y-13529237D01*
X69950500Y-13421018D01*
X69950500Y-13308982D01*
X69921503Y-13200763D01*
X69865485Y-13103737D01*
X69786263Y-13024515D01*
X69733378Y-12993982D01*
X80437000Y-12993982D01*
X80437000Y-13106018D01*
X80465997Y-13214237D01*
X80522015Y-13311263D01*
X80601237Y-13390485D01*
X80698263Y-13446503D01*
X80806482Y-13475500D01*
X80806484Y-13475500D01*
X80918516Y-13475500D01*
X80918518Y-13475500D01*
X81026737Y-13446503D01*
X81123763Y-13390485D01*
X81202985Y-13311263D01*
X81259003Y-13214237D01*
X81288000Y-13106018D01*
X81288000Y-12993982D01*
X81284680Y-12981591D01*
X81286343Y-12911744D01*
X81325506Y-12853881D01*
X81389734Y-12826377D01*
X81404455Y-12825500D01*
X81456016Y-12825500D01*
X81456018Y-12825500D01*
X81564237Y-12796503D01*
X81661263Y-12740485D01*
X81740485Y-12661263D01*
X81796503Y-12564237D01*
X81825500Y-12456018D01*
X81825500Y-12343982D01*
X82174500Y-12343982D01*
X82174500Y-12456018D01*
X82203497Y-12564237D01*
X82259515Y-12661263D01*
X82338737Y-12740485D01*
X82435763Y-12796503D01*
X82543982Y-12825500D01*
X82543984Y-12825500D01*
X82595545Y-12825500D01*
X82662584Y-12845185D01*
X82708339Y-12897989D01*
X82718283Y-12967147D01*
X82715321Y-12981586D01*
X82712000Y-12993982D01*
X82712000Y-13106018D01*
X82740997Y-13214237D01*
X82797015Y-13311263D01*
X82876237Y-13390485D01*
X82973263Y-13446503D01*
X83081482Y-13475500D01*
X83081484Y-13475500D01*
X83193516Y-13475500D01*
X83193518Y-13475500D01*
X83301737Y-13446503D01*
X83398763Y-13390485D01*
X83477985Y-13311263D01*
X83534003Y-13214237D01*
X83552828Y-13143982D01*
X125574500Y-13143982D01*
X125574500Y-13256018D01*
X125603497Y-13364237D01*
X125659515Y-13461263D01*
X125738737Y-13540485D01*
X125835763Y-13596503D01*
X125943982Y-13625500D01*
X125943984Y-13625500D01*
X126056016Y-13625500D01*
X126056018Y-13625500D01*
X126164237Y-13596503D01*
X126261263Y-13540485D01*
X126340485Y-13461263D01*
X126396503Y-13364237D01*
X126425500Y-13256018D01*
X126425500Y-13143982D01*
X126396503Y-13035763D01*
X126340485Y-12938737D01*
X126261263Y-12859515D01*
X126164237Y-12803497D01*
X126056018Y-12774500D01*
X125943982Y-12774500D01*
X125835763Y-12803497D01*
X125835760Y-12803498D01*
X125738740Y-12859513D01*
X125738734Y-12859517D01*
X125659517Y-12938734D01*
X125659513Y-12938740D01*
X125603498Y-13035760D01*
X125603497Y-13035763D01*
X125574500Y-13143982D01*
X83552828Y-13143982D01*
X83563000Y-13106018D01*
X83563000Y-12993982D01*
X83534003Y-12885763D01*
X83477985Y-12788737D01*
X83398763Y-12709515D01*
X83301737Y-12653497D01*
X83193518Y-12624500D01*
X83141955Y-12624500D01*
X83074916Y-12604815D01*
X83029161Y-12552011D01*
X83019217Y-12482853D01*
X83022180Y-12468407D01*
X83025500Y-12456018D01*
X83025500Y-12343982D01*
X82996503Y-12235763D01*
X82940485Y-12138737D01*
X82861263Y-12059515D01*
X82764237Y-12003497D01*
X82656018Y-11974500D01*
X82543982Y-11974500D01*
X82435763Y-12003497D01*
X82435760Y-12003498D01*
X82338740Y-12059513D01*
X82338734Y-12059517D01*
X82259517Y-12138734D01*
X82259513Y-12138740D01*
X82203498Y-12235760D01*
X82203497Y-12235763D01*
X82174500Y-12343982D01*
X81825500Y-12343982D01*
X81796503Y-12235763D01*
X81740485Y-12138737D01*
X81661263Y-12059515D01*
X81564237Y-12003497D01*
X81456018Y-11974500D01*
X81343982Y-11974500D01*
X81235763Y-12003497D01*
X81235760Y-12003498D01*
X81138740Y-12059513D01*
X81138734Y-12059517D01*
X81059517Y-12138734D01*
X81059513Y-12138740D01*
X81003498Y-12235760D01*
X81003497Y-12235763D01*
X80974500Y-12343982D01*
X80974500Y-12456017D01*
X80977820Y-12468407D01*
X80976157Y-12538256D01*
X80936994Y-12596119D01*
X80872766Y-12623623D01*
X80858045Y-12624500D01*
X80806482Y-12624500D01*
X80698263Y-12653497D01*
X80698260Y-12653498D01*
X80601240Y-12709513D01*
X80601234Y-12709517D01*
X80522017Y-12788734D01*
X80522013Y-12788740D01*
X80465998Y-12885760D01*
X80465997Y-12885763D01*
X80437000Y-12993982D01*
X69733378Y-12993982D01*
X69689237Y-12968497D01*
X69581018Y-12939500D01*
X69468982Y-12939500D01*
X69360763Y-12968497D01*
X69360760Y-12968498D01*
X69263740Y-13024513D01*
X69263734Y-13024517D01*
X69184517Y-13103734D01*
X69184513Y-13103740D01*
X69128498Y-13200760D01*
X69128497Y-13200763D01*
X69099500Y-13308982D01*
X62501929Y-13308982D01*
X62415977Y-13180345D01*
X62415975Y-13180342D01*
X62269657Y-13034024D01*
X62127044Y-12938734D01*
X62097598Y-12919059D01*
X62079938Y-12911744D01*
X61906420Y-12839870D01*
X61906412Y-12839868D01*
X61703469Y-12799500D01*
X61703465Y-12799500D01*
X61496535Y-12799500D01*
X61496530Y-12799500D01*
X61293587Y-12839868D01*
X61293579Y-12839870D01*
X61102403Y-12919058D01*
X60930342Y-13034024D01*
X60784024Y-13180342D01*
X60669058Y-13352403D01*
X60589870Y-13543579D01*
X60589868Y-13543587D01*
X60549500Y-13746530D01*
X58000000Y-13746530D01*
X58000000Y-9943982D01*
X80799500Y-9943982D01*
X80799500Y-10056018D01*
X80828497Y-10164237D01*
X80884515Y-10261263D01*
X80963737Y-10340485D01*
X81060763Y-10396503D01*
X81168982Y-10425500D01*
X81168984Y-10425500D01*
X81281016Y-10425500D01*
X81281018Y-10425500D01*
X81389237Y-10396503D01*
X81486263Y-10340485D01*
X81565485Y-10261263D01*
X81621503Y-10164237D01*
X81650500Y-10056018D01*
X81650500Y-9943982D01*
X81621503Y-9835763D01*
X81565485Y-9738737D01*
X81486263Y-9659515D01*
X81389237Y-9603497D01*
X81281018Y-9574500D01*
X81168982Y-9574500D01*
X81060763Y-9603497D01*
X81060760Y-9603498D01*
X80963740Y-9659513D01*
X80963734Y-9659517D01*
X80884517Y-9738734D01*
X80884513Y-9738740D01*
X80828498Y-9835760D01*
X80828497Y-9835763D01*
X80799500Y-9943982D01*
X58000000Y-9943982D01*
X58000000Y-7943982D01*
X66799500Y-7943982D01*
X66799500Y-8056018D01*
X66828497Y-8164237D01*
X66884515Y-8261263D01*
X66963737Y-8340485D01*
X67060763Y-8396503D01*
X67168982Y-8425500D01*
X67168984Y-8425500D01*
X67281016Y-8425500D01*
X67281018Y-8425500D01*
X67389237Y-8396503D01*
X67486263Y-8340485D01*
X67565485Y-8261263D01*
X67621503Y-8164237D01*
X67650500Y-8056018D01*
X67650500Y-7943982D01*
X67621503Y-7835763D01*
X67565485Y-7738737D01*
X67486263Y-7659515D01*
X67389237Y-7603497D01*
X67281018Y-7574500D01*
X67168982Y-7574500D01*
X67060763Y-7603497D01*
X67060760Y-7603498D01*
X66963740Y-7659513D01*
X66963734Y-7659517D01*
X66884517Y-7738734D01*
X66884513Y-7738740D01*
X66828498Y-7835760D01*
X66828497Y-7835763D01*
X66799500Y-7943982D01*
X58000000Y-7943982D01*
X58000000Y-1124000D01*
X58019685Y-1056961D01*
X58072489Y-1011206D01*
X58124000Y-1000000D01*
X156238792Y-1000000D01*
X156305831Y-1019685D01*
G37*
%TD.AperFunction*%
%TD*%
M02*
