%TF.GenerationSoftware,KiCad,Pcbnew,10.0.3*%
%TF.CreationDate,2026-05-27T05:07:24+02:00*%
%TF.ProjectId,esp32_s3_dwm3000_uwb_anchor_with_relay_outputs,65737033-325f-4733-935f-64776d333030,rev?*%
%TF.SameCoordinates,Original*%
%TF.FileFunction,Other,Comment*%
%FSLAX46Y46*%
G04 Gerber Fmt 4.6, Leading zero omitted, Abs format (unit mm)*
G04 Created by KiCad (PCBNEW 10.0.3) date 2026-05-27 05:07:24*
%MOMM*%
%LPD*%
G01*
G04 APERTURE LIST*
%ADD10C,0.150000*%
G04 APERTURE END LIST*
D10*
X91188095Y-52729104D02*
X91664285Y-52729104D01*
X91092857Y-53014819D02*
X91426190Y-52014819D01*
X91426190Y-52014819D02*
X91759523Y-53014819D01*
X92092857Y-52348152D02*
X92092857Y-53014819D01*
X92092857Y-52443390D02*
X92140476Y-52395771D01*
X92140476Y-52395771D02*
X92235714Y-52348152D01*
X92235714Y-52348152D02*
X92378571Y-52348152D01*
X92378571Y-52348152D02*
X92473809Y-52395771D01*
X92473809Y-52395771D02*
X92521428Y-52491009D01*
X92521428Y-52491009D02*
X92521428Y-53014819D01*
X92854762Y-52348152D02*
X93235714Y-52348152D01*
X92997619Y-52014819D02*
X92997619Y-52871961D01*
X92997619Y-52871961D02*
X93045238Y-52967200D01*
X93045238Y-52967200D02*
X93140476Y-53014819D01*
X93140476Y-53014819D02*
X93235714Y-53014819D01*
X93950000Y-52967200D02*
X93854762Y-53014819D01*
X93854762Y-53014819D02*
X93664286Y-53014819D01*
X93664286Y-53014819D02*
X93569048Y-52967200D01*
X93569048Y-52967200D02*
X93521429Y-52871961D01*
X93521429Y-52871961D02*
X93521429Y-52491009D01*
X93521429Y-52491009D02*
X93569048Y-52395771D01*
X93569048Y-52395771D02*
X93664286Y-52348152D01*
X93664286Y-52348152D02*
X93854762Y-52348152D01*
X93854762Y-52348152D02*
X93950000Y-52395771D01*
X93950000Y-52395771D02*
X93997619Y-52491009D01*
X93997619Y-52491009D02*
X93997619Y-52586247D01*
X93997619Y-52586247D02*
X93521429Y-52681485D01*
X94426191Y-52348152D02*
X94426191Y-53014819D01*
X94426191Y-52443390D02*
X94473810Y-52395771D01*
X94473810Y-52395771D02*
X94569048Y-52348152D01*
X94569048Y-52348152D02*
X94711905Y-52348152D01*
X94711905Y-52348152D02*
X94807143Y-52395771D01*
X94807143Y-52395771D02*
X94854762Y-52491009D01*
X94854762Y-52491009D02*
X94854762Y-53014819D01*
X95330953Y-52348152D02*
X95330953Y-53014819D01*
X95330953Y-52443390D02*
X95378572Y-52395771D01*
X95378572Y-52395771D02*
X95473810Y-52348152D01*
X95473810Y-52348152D02*
X95616667Y-52348152D01*
X95616667Y-52348152D02*
X95711905Y-52395771D01*
X95711905Y-52395771D02*
X95759524Y-52491009D01*
X95759524Y-52491009D02*
X95759524Y-53014819D01*
X96664286Y-53014819D02*
X96664286Y-52491009D01*
X96664286Y-52491009D02*
X96616667Y-52395771D01*
X96616667Y-52395771D02*
X96521429Y-52348152D01*
X96521429Y-52348152D02*
X96330953Y-52348152D01*
X96330953Y-52348152D02*
X96235715Y-52395771D01*
X96664286Y-52967200D02*
X96569048Y-53014819D01*
X96569048Y-53014819D02*
X96330953Y-53014819D01*
X96330953Y-53014819D02*
X96235715Y-52967200D01*
X96235715Y-52967200D02*
X96188096Y-52871961D01*
X96188096Y-52871961D02*
X96188096Y-52776723D01*
X96188096Y-52776723D02*
X96235715Y-52681485D01*
X96235715Y-52681485D02*
X96330953Y-52633866D01*
X96330953Y-52633866D02*
X96569048Y-52633866D01*
X96569048Y-52633866D02*
X96664286Y-52586247D01*
X81857142Y-43997438D02*
X81857142Y-41997438D01*
X82999999Y-43997438D02*
X82142856Y-42854580D01*
X82999999Y-41997438D02*
X81857142Y-43140295D01*
X83857142Y-42949819D02*
X84523809Y-42949819D01*
X84809523Y-43997438D02*
X83857142Y-43997438D01*
X83857142Y-43997438D02*
X83857142Y-41997438D01*
X83857142Y-41997438D02*
X84809523Y-41997438D01*
X85666666Y-42949819D02*
X86333333Y-42949819D01*
X86619047Y-43997438D02*
X85666666Y-43997438D01*
X85666666Y-43997438D02*
X85666666Y-41997438D01*
X85666666Y-41997438D02*
X86619047Y-41997438D01*
X87476190Y-43997438D02*
X87476190Y-41997438D01*
X87476190Y-41997438D02*
X88238095Y-41997438D01*
X88238095Y-41997438D02*
X88428571Y-42092676D01*
X88428571Y-42092676D02*
X88523809Y-42187914D01*
X88523809Y-42187914D02*
X88619047Y-42378390D01*
X88619047Y-42378390D02*
X88619047Y-42664104D01*
X88619047Y-42664104D02*
X88523809Y-42854580D01*
X88523809Y-42854580D02*
X88428571Y-42949819D01*
X88428571Y-42949819D02*
X88238095Y-43045057D01*
X88238095Y-43045057D02*
X87476190Y-43045057D01*
X89476190Y-43235533D02*
X91000000Y-43235533D01*
X92333332Y-41997438D02*
X92714285Y-41997438D01*
X92714285Y-41997438D02*
X92904761Y-42092676D01*
X92904761Y-42092676D02*
X93095237Y-42283152D01*
X93095237Y-42283152D02*
X93190475Y-42664104D01*
X93190475Y-42664104D02*
X93190475Y-43330771D01*
X93190475Y-43330771D02*
X93095237Y-43711723D01*
X93095237Y-43711723D02*
X92904761Y-43902200D01*
X92904761Y-43902200D02*
X92714285Y-43997438D01*
X92714285Y-43997438D02*
X92333332Y-43997438D01*
X92333332Y-43997438D02*
X92142856Y-43902200D01*
X92142856Y-43902200D02*
X91952380Y-43711723D01*
X91952380Y-43711723D02*
X91857142Y-43330771D01*
X91857142Y-43330771D02*
X91857142Y-42664104D01*
X91857142Y-42664104D02*
X91952380Y-42283152D01*
X91952380Y-42283152D02*
X92142856Y-42092676D01*
X92142856Y-42092676D02*
X92333332Y-41997438D01*
X94047618Y-41997438D02*
X94047618Y-43616485D01*
X94047618Y-43616485D02*
X94142856Y-43806961D01*
X94142856Y-43806961D02*
X94238094Y-43902200D01*
X94238094Y-43902200D02*
X94428570Y-43997438D01*
X94428570Y-43997438D02*
X94809523Y-43997438D01*
X94809523Y-43997438D02*
X94999999Y-43902200D01*
X94999999Y-43902200D02*
X95095237Y-43806961D01*
X95095237Y-43806961D02*
X95190475Y-43616485D01*
X95190475Y-43616485D02*
X95190475Y-41997438D01*
X95857142Y-41997438D02*
X96999999Y-41997438D01*
X96428570Y-43997438D02*
X96428570Y-41997438D01*
X99000000Y-41997438D02*
X100333333Y-41997438D01*
X100333333Y-41997438D02*
X99000000Y-43997438D01*
X99000000Y-43997438D02*
X100333333Y-43997438D01*
X101476190Y-41997438D02*
X101857143Y-41997438D01*
X101857143Y-41997438D02*
X102047619Y-42092676D01*
X102047619Y-42092676D02*
X102238095Y-42283152D01*
X102238095Y-42283152D02*
X102333333Y-42664104D01*
X102333333Y-42664104D02*
X102333333Y-43330771D01*
X102333333Y-43330771D02*
X102238095Y-43711723D01*
X102238095Y-43711723D02*
X102047619Y-43902200D01*
X102047619Y-43902200D02*
X101857143Y-43997438D01*
X101857143Y-43997438D02*
X101476190Y-43997438D01*
X101476190Y-43997438D02*
X101285714Y-43902200D01*
X101285714Y-43902200D02*
X101095238Y-43711723D01*
X101095238Y-43711723D02*
X101000000Y-43330771D01*
X101000000Y-43330771D02*
X101000000Y-42664104D01*
X101000000Y-42664104D02*
X101095238Y-42283152D01*
X101095238Y-42283152D02*
X101285714Y-42092676D01*
X101285714Y-42092676D02*
X101476190Y-41997438D01*
X103190476Y-43997438D02*
X103190476Y-41997438D01*
X103190476Y-41997438D02*
X104333333Y-43997438D01*
X104333333Y-43997438D02*
X104333333Y-41997438D01*
X105285714Y-42949819D02*
X105952381Y-42949819D01*
X106238095Y-43997438D02*
X105285714Y-43997438D01*
X105285714Y-43997438D02*
X105285714Y-41997438D01*
X105285714Y-41997438D02*
X106238095Y-41997438D01*
M02*
