%TF.GenerationSoftware,KiCad,Pcbnew,10.0.3*%
%TF.CreationDate,2026-05-24T09:21:46+02:00*%
%TF.ProjectId,esp32_s3_dwm3000_uwb_anchor_with_relay_outputs,65737033-325f-4733-935f-64776d333030,rev?*%
%TF.SameCoordinates,Original*%
%TF.FileFunction,AssemblyDrawing,Top*%
%FSLAX46Y46*%
G04 Gerber Fmt 4.6, Leading zero omitted, Abs format (unit mm)*
G04 Created by KiCad (PCBNEW 10.0.3) date 2026-05-24 09:21:46*
%MOMM*%
%LPD*%
G01*
G04 APERTURE LIST*
%ADD10C,0.158750*%
G04 APERTURE END LIST*
D10*
X55351903Y-19914033D02*
X55775237Y-19914033D01*
X55956665Y-20579271D02*
X55351903Y-20579271D01*
X55351903Y-20579271D02*
X55351903Y-19309271D01*
X55351903Y-19309271D02*
X55956665Y-19309271D01*
X56440475Y-20518795D02*
X56621904Y-20579271D01*
X56621904Y-20579271D02*
X56924285Y-20579271D01*
X56924285Y-20579271D02*
X57045237Y-20518795D01*
X57045237Y-20518795D02*
X57105713Y-20458318D01*
X57105713Y-20458318D02*
X57166190Y-20337366D01*
X57166190Y-20337366D02*
X57166190Y-20216414D01*
X57166190Y-20216414D02*
X57105713Y-20095461D01*
X57105713Y-20095461D02*
X57045237Y-20034985D01*
X57045237Y-20034985D02*
X56924285Y-19974509D01*
X56924285Y-19974509D02*
X56682380Y-19914033D01*
X56682380Y-19914033D02*
X56561428Y-19853556D01*
X56561428Y-19853556D02*
X56500951Y-19793080D01*
X56500951Y-19793080D02*
X56440475Y-19672128D01*
X56440475Y-19672128D02*
X56440475Y-19551175D01*
X56440475Y-19551175D02*
X56500951Y-19430223D01*
X56500951Y-19430223D02*
X56561428Y-19369747D01*
X56561428Y-19369747D02*
X56682380Y-19309271D01*
X56682380Y-19309271D02*
X56984761Y-19309271D01*
X56984761Y-19309271D02*
X57166190Y-19369747D01*
X57710475Y-20579271D02*
X57710475Y-19309271D01*
X57710475Y-19309271D02*
X58194285Y-19309271D01*
X58194285Y-19309271D02*
X58315237Y-19369747D01*
X58315237Y-19369747D02*
X58375714Y-19430223D01*
X58375714Y-19430223D02*
X58436190Y-19551175D01*
X58436190Y-19551175D02*
X58436190Y-19732604D01*
X58436190Y-19732604D02*
X58375714Y-19853556D01*
X58375714Y-19853556D02*
X58315237Y-19914033D01*
X58315237Y-19914033D02*
X58194285Y-19974509D01*
X58194285Y-19974509D02*
X57710475Y-19974509D01*
X58859523Y-19309271D02*
X59645714Y-19309271D01*
X59645714Y-19309271D02*
X59222380Y-19793080D01*
X59222380Y-19793080D02*
X59403809Y-19793080D01*
X59403809Y-19793080D02*
X59524761Y-19853556D01*
X59524761Y-19853556D02*
X59585237Y-19914033D01*
X59585237Y-19914033D02*
X59645714Y-20034985D01*
X59645714Y-20034985D02*
X59645714Y-20337366D01*
X59645714Y-20337366D02*
X59585237Y-20458318D01*
X59585237Y-20458318D02*
X59524761Y-20518795D01*
X59524761Y-20518795D02*
X59403809Y-20579271D01*
X59403809Y-20579271D02*
X59040952Y-20579271D01*
X59040952Y-20579271D02*
X58919999Y-20518795D01*
X58919999Y-20518795D02*
X58859523Y-20458318D01*
X60129523Y-19430223D02*
X60189999Y-19369747D01*
X60189999Y-19369747D02*
X60310952Y-19309271D01*
X60310952Y-19309271D02*
X60613333Y-19309271D01*
X60613333Y-19309271D02*
X60734285Y-19369747D01*
X60734285Y-19369747D02*
X60794761Y-19430223D01*
X60794761Y-19430223D02*
X60855238Y-19551175D01*
X60855238Y-19551175D02*
X60855238Y-19672128D01*
X60855238Y-19672128D02*
X60794761Y-19853556D01*
X60794761Y-19853556D02*
X60069047Y-20579271D01*
X60069047Y-20579271D02*
X60855238Y-20579271D01*
X61399523Y-20095461D02*
X62367143Y-20095461D01*
X62911428Y-20518795D02*
X63092857Y-20579271D01*
X63092857Y-20579271D02*
X63395238Y-20579271D01*
X63395238Y-20579271D02*
X63516190Y-20518795D01*
X63516190Y-20518795D02*
X63576666Y-20458318D01*
X63576666Y-20458318D02*
X63637143Y-20337366D01*
X63637143Y-20337366D02*
X63637143Y-20216414D01*
X63637143Y-20216414D02*
X63576666Y-20095461D01*
X63576666Y-20095461D02*
X63516190Y-20034985D01*
X63516190Y-20034985D02*
X63395238Y-19974509D01*
X63395238Y-19974509D02*
X63153333Y-19914033D01*
X63153333Y-19914033D02*
X63032381Y-19853556D01*
X63032381Y-19853556D02*
X62971904Y-19793080D01*
X62971904Y-19793080D02*
X62911428Y-19672128D01*
X62911428Y-19672128D02*
X62911428Y-19551175D01*
X62911428Y-19551175D02*
X62971904Y-19430223D01*
X62971904Y-19430223D02*
X63032381Y-19369747D01*
X63032381Y-19369747D02*
X63153333Y-19309271D01*
X63153333Y-19309271D02*
X63455714Y-19309271D01*
X63455714Y-19309271D02*
X63637143Y-19369747D01*
X64060476Y-19309271D02*
X64846667Y-19309271D01*
X64846667Y-19309271D02*
X64423333Y-19793080D01*
X64423333Y-19793080D02*
X64604762Y-19793080D01*
X64604762Y-19793080D02*
X64725714Y-19853556D01*
X64725714Y-19853556D02*
X64786190Y-19914033D01*
X64786190Y-19914033D02*
X64846667Y-20034985D01*
X64846667Y-20034985D02*
X64846667Y-20337366D01*
X64846667Y-20337366D02*
X64786190Y-20458318D01*
X64786190Y-20458318D02*
X64725714Y-20518795D01*
X64725714Y-20518795D02*
X64604762Y-20579271D01*
X64604762Y-20579271D02*
X64241905Y-20579271D01*
X64241905Y-20579271D02*
X64120952Y-20518795D01*
X64120952Y-20518795D02*
X64060476Y-20458318D01*
X66358571Y-20579271D02*
X66358571Y-19732604D01*
X66358571Y-19853556D02*
X66419048Y-19793080D01*
X66419048Y-19793080D02*
X66540000Y-19732604D01*
X66540000Y-19732604D02*
X66721429Y-19732604D01*
X66721429Y-19732604D02*
X66842381Y-19793080D01*
X66842381Y-19793080D02*
X66902857Y-19914033D01*
X66902857Y-19914033D02*
X66902857Y-20579271D01*
X66902857Y-19914033D02*
X66963333Y-19793080D01*
X66963333Y-19793080D02*
X67084286Y-19732604D01*
X67084286Y-19732604D02*
X67265714Y-19732604D01*
X67265714Y-19732604D02*
X67386667Y-19793080D01*
X67386667Y-19793080D02*
X67447143Y-19914033D01*
X67447143Y-19914033D02*
X67447143Y-20579271D01*
X68233333Y-20579271D02*
X68112381Y-20518795D01*
X68112381Y-20518795D02*
X68051904Y-20458318D01*
X68051904Y-20458318D02*
X67991428Y-20337366D01*
X67991428Y-20337366D02*
X67991428Y-19974509D01*
X67991428Y-19974509D02*
X68051904Y-19853556D01*
X68051904Y-19853556D02*
X68112381Y-19793080D01*
X68112381Y-19793080D02*
X68233333Y-19732604D01*
X68233333Y-19732604D02*
X68414762Y-19732604D01*
X68414762Y-19732604D02*
X68535714Y-19793080D01*
X68535714Y-19793080D02*
X68596190Y-19853556D01*
X68596190Y-19853556D02*
X68656666Y-19974509D01*
X68656666Y-19974509D02*
X68656666Y-20337366D01*
X68656666Y-20337366D02*
X68596190Y-20458318D01*
X68596190Y-20458318D02*
X68535714Y-20518795D01*
X68535714Y-20518795D02*
X68414762Y-20579271D01*
X68414762Y-20579271D02*
X68233333Y-20579271D01*
X69745238Y-20579271D02*
X69745238Y-19309271D01*
X69745238Y-20518795D02*
X69624286Y-20579271D01*
X69624286Y-20579271D02*
X69382381Y-20579271D01*
X69382381Y-20579271D02*
X69261429Y-20518795D01*
X69261429Y-20518795D02*
X69200952Y-20458318D01*
X69200952Y-20458318D02*
X69140476Y-20337366D01*
X69140476Y-20337366D02*
X69140476Y-19974509D01*
X69140476Y-19974509D02*
X69200952Y-19853556D01*
X69200952Y-19853556D02*
X69261429Y-19793080D01*
X69261429Y-19793080D02*
X69382381Y-19732604D01*
X69382381Y-19732604D02*
X69624286Y-19732604D01*
X69624286Y-19732604D02*
X69745238Y-19793080D01*
X70894286Y-19732604D02*
X70894286Y-20579271D01*
X70350000Y-19732604D02*
X70350000Y-20397842D01*
X70350000Y-20397842D02*
X70410477Y-20518795D01*
X70410477Y-20518795D02*
X70531429Y-20579271D01*
X70531429Y-20579271D02*
X70712858Y-20579271D01*
X70712858Y-20579271D02*
X70833810Y-20518795D01*
X70833810Y-20518795D02*
X70894286Y-20458318D01*
X71680477Y-20579271D02*
X71559525Y-20518795D01*
X71559525Y-20518795D02*
X71499048Y-20397842D01*
X71499048Y-20397842D02*
X71499048Y-19309271D01*
X72648096Y-20518795D02*
X72527144Y-20579271D01*
X72527144Y-20579271D02*
X72285239Y-20579271D01*
X72285239Y-20579271D02*
X72164286Y-20518795D01*
X72164286Y-20518795D02*
X72103810Y-20397842D01*
X72103810Y-20397842D02*
X72103810Y-19914033D01*
X72103810Y-19914033D02*
X72164286Y-19793080D01*
X72164286Y-19793080D02*
X72285239Y-19732604D01*
X72285239Y-19732604D02*
X72527144Y-19732604D01*
X72527144Y-19732604D02*
X72648096Y-19793080D01*
X72648096Y-19793080D02*
X72708572Y-19914033D01*
X72708572Y-19914033D02*
X72708572Y-20034985D01*
X72708572Y-20034985D02*
X72103810Y-20155937D01*
M02*
