M48
; DRILL file KiCad 10.0.3 date 2026-05-26T20:18:00
; FORMAT={-:-/ absolute / metric / decimal}
; #@! TF.CreationDate,2026-05-26T20:18:00+02:00
; #@! TF.GenerationSoftware,Kicad,Pcbnew,10.0.3
; #@! TF.FileFunction,MixedPlating,1,4
FMAT,2
METRIC
; #@! TA.AperFunction,Plated,PTH,ViaDrill
T1C0.200
; #@! TA.AperFunction,Plated,PTH,ComponentDrill
T2C0.200
; #@! TA.AperFunction,Plated,PTH,ComponentDrill
T3C0.800
; #@! TA.AperFunction,Plated,PTH,ComponentDrill
T4C1.000
; #@! TA.AperFunction,Plated,PTH,ComponentDrill
T5C1.200
; #@! TA.AperFunction,Plated,PTH,ComponentDrill
T6C1.300
; #@! TA.AperFunction,Plated,PTH,ComponentDrill
T7C1.500
; #@! TA.AperFunction,Plated,PTH,ComponentDrill
T8C1.700
%
G90
G05
T1
X67.225Y-8.0
X68.775Y-8.0
X69.525Y-13.365
X69.525Y-14.635
X74.475Y-13.365
X74.775Y-20.0
X80.862Y-13.05
X80.862Y-14.0
X81.225Y-18.0
X81.4Y-12.4
X82.6Y-12.4
X82.775Y-10.0
X82.775Y-18.0
X85.25Y-56.74
X85.25Y-58.01
X85.25Y-59.28
X92.5Y-64.46
X93.225Y-82.0
X94.775Y-82.0
X95.6Y-75.8
X101.4Y-66.0
X101.6Y-61.8
X101.6Y-63.4
X101.6Y-64.6
X102.75Y-56.74
X102.75Y-58.01
X104.6Y-61.8
X104.6Y-63.4
X104.6Y-64.6
X116.8Y-28.6
X117.225Y-26.0
X117.25Y-28.037
X117.75Y-27.537
X118.0Y-30.0
X118.75Y-32.462
X118.775Y-26.0
X119.2Y-40.8
X119.2Y-42.0
X119.8Y-33.2
X120.462Y-40.0
X121.2Y-38.8
X121.2Y-43.2
X121.225Y-34.0
X121.225Y-44.0
X121.4Y-32.6
X122.0Y-42.0
X122.775Y-34.0
X122.775Y-44.0
X123.775Y-22.0
X124.0Y-38.4
X124.037Y-40.0
X124.6Y-20.2
X124.6Y-42.8
X125.0Y-39.2
X125.2Y-47.2
X125.4Y-11.6
X125.4Y-14.8
X125.4Y-18.0
X125.4Y-24.4
X125.4Y-27.6
X125.4Y-30.8
X126.0Y-13.2
X126.0Y-16.4
X126.0Y-19.6
X126.0Y-26.0
X126.0Y-29.2
X126.0Y-32.4
X126.462Y-40.0
X126.775Y-48.0
X126.8Y-35.2
X127.225Y-36.0
X127.225Y-44.0
X128.6Y-38.8
X128.775Y-36.0
X128.775Y-44.0
X130.037Y-40.0
X144.0Y-13.2
X144.0Y-16.4
X144.0Y-19.6
X144.0Y-22.8
X144.0Y-26.0
X144.0Y-29.2
X144.0Y-32.4
X144.6Y-11.6
X144.6Y-14.8
X144.6Y-18.0
X144.6Y-21.2
X144.6Y-27.6
X144.6Y-30.8
X145.4Y-34.0
X146.225Y-34.0
X147.775Y-34.0
T2
X91.1Y-63.76
X91.1Y-65.16
X91.8Y-63.06
X91.8Y-64.46
X91.8Y-65.86
X92.5Y-63.76
X92.5Y-65.16
X93.2Y-63.06
X93.2Y-64.46
X93.2Y-65.86
X93.9Y-63.76
X93.9Y-65.16
T3
X32.0Y-39.0
X39.5Y-41.0
T4
X28.0Y-20.0
X28.0Y-26.0
X61.6Y-14.0
X61.6Y-32.0
T5
X10.0Y-25.0
X13.5Y-25.0
T6
X25.0Y-68.38
X25.0Y-76.0
X35.16Y-76.0
X40.24Y-68.38
X42.78Y-76.0
X67.0Y-80.38
X67.0Y-88.0
X77.16Y-88.0
X82.24Y-80.38
X84.78Y-88.0
T7
X152.0Y-16.0
T8
X149.46Y-13.46
X149.46Y-18.54
X154.54Y-13.46
X154.54Y-18.54
M30
