%TF.GenerationSoftware,KiCad,Pcbnew,10.0.3*%
%TF.CreationDate,2026-06-03T05:27:32+02:00*%
%TF.ProjectId,quantum_mind_uwb_rtls_anchor_v3_0,7175616e-7475-46d5-9f6d-696e645f7577,rev?*%
%TF.SameCoordinates,Original*%
%TF.FileFunction,Legend,Top*%
%TF.FilePolarity,Positive*%
%FSLAX46Y46*%
G04 Gerber Fmt 4.6, Leading zero omitted, Abs format (unit mm)*
G04 Created by KiCad (PCBNEW 10.0.3) date 2026-06-03 05:27:32*
%MOMM*%
%LPD*%
G01*
G04 APERTURE LIST*
%ADD10C,0.120000*%
%ADD11C,0.150000*%
G04 APERTURE END LIST*
%TO.C,SW2*%
D10*
X196770000Y-120770000D02*
X203230000Y-120770000D01*
X196770000Y-120800000D02*
X196770000Y-120770000D01*
X196770000Y-122700000D02*
X196770000Y-125300000D01*
X196770000Y-127230000D02*
X196770000Y-127200000D01*
X196770000Y-127230000D02*
X203230000Y-127230000D01*
X203230000Y-120770000D02*
X203230000Y-120800000D01*
X203230000Y-122700000D02*
X203230000Y-125300000D01*
X203230000Y-127230000D02*
X203230000Y-127200000D01*
%TO.C,C11*%
X73738748Y-97265000D02*
X74261252Y-97265000D01*
X73738748Y-98735000D02*
X74261252Y-98735000D01*
%TO.C,C_X1A*%
X77859420Y-85490000D02*
X78140580Y-85490000D01*
X77859420Y-86510000D02*
X78140580Y-86510000D01*
%TO.C,C21*%
X11288748Y-87090000D02*
X12711252Y-87090000D01*
X11288748Y-88910000D02*
X12711252Y-88910000D01*
%TO.C,SW1*%
X57770000Y-117770000D02*
X64230000Y-117770000D01*
X57770000Y-117800000D02*
X57770000Y-117770000D01*
X57770000Y-119700000D02*
X57770000Y-122300000D01*
X57770000Y-124230000D02*
X57770000Y-124200000D01*
X57770000Y-124230000D02*
X64230000Y-124230000D01*
X64230000Y-117770000D02*
X64230000Y-117800000D01*
X64230000Y-119700000D02*
X64230000Y-122300000D01*
X64230000Y-124230000D02*
X64230000Y-124200000D01*
%TO.C,R34*%
X195772936Y-95265000D02*
X196227064Y-95265000D01*
X195772936Y-96735000D02*
X196227064Y-96735000D01*
%TO.C,C24*%
X101738748Y-93265000D02*
X102261252Y-93265000D01*
X101738748Y-94735000D02*
X102261252Y-94735000D01*
%TO.C,C25*%
X36738748Y-96265000D02*
X37261252Y-96265000D01*
X36738748Y-97735000D02*
X37261252Y-97735000D01*
%TO.C,R39*%
X11762742Y-79477500D02*
X12237258Y-79477500D01*
X11762742Y-80522500D02*
X12237258Y-80522500D01*
%TO.C,C14*%
X124738748Y-94265000D02*
X125261252Y-94265000D01*
X124738748Y-95735000D02*
X125261252Y-95735000D01*
%TO.C,R1*%
X106772936Y-88265000D02*
X107227064Y-88265000D01*
X106772936Y-89735000D02*
X107227064Y-89735000D01*
%TO.C,C35*%
X94859420Y-92490000D02*
X95140580Y-92490000D01*
X94859420Y-93510000D02*
X95140580Y-93510000D01*
%TO.C,C96*%
X67859420Y-7490000D02*
X68140580Y-7490000D01*
X67859420Y-8510000D02*
X68140580Y-8510000D01*
%TO.C,C29*%
X193859420Y-81490000D02*
X194140580Y-81490000D01*
X193859420Y-82510000D02*
X194140580Y-82510000D01*
%TO.C,F2*%
X195397936Y-111090000D02*
X196602064Y-111090000D01*
X195397936Y-112910000D02*
X196602064Y-112910000D01*
%TO.C,TP8*%
X10100000Y-92900000D02*
X13900000Y-92900000D01*
X13900000Y-95100000D01*
X10100000Y-95100000D01*
X10100000Y-92900000D01*
%TO.C,C7*%
X177738748Y-125265000D02*
X178261252Y-125265000D01*
X177738748Y-126735000D02*
X178261252Y-126735000D01*
%TO.C,C40*%
X123859420Y-134490000D02*
X124140580Y-134490000D01*
X123859420Y-135510000D02*
X124140580Y-135510000D01*
%TO.C,R15*%
X75772936Y-93265000D02*
X76227064Y-93265000D01*
X75772936Y-94735000D02*
X76227064Y-94735000D01*
%TO.C,C17*%
X148859420Y-127490000D02*
X149140580Y-127490000D01*
X148859420Y-128510000D02*
X149140580Y-128510000D01*
%TO.C,R43*%
X75846359Y-79620000D02*
X76153641Y-79620000D01*
X75846359Y-80380000D02*
X76153641Y-80380000D01*
%TO.C,TP13*%
X180100000Y-116900000D02*
X183900000Y-116900000D01*
X183900000Y-119100000D01*
X180100000Y-119100000D01*
X180100000Y-116900000D01*
%TO.C,D4*%
X164390000Y-61150000D02*
X164390000Y-62850000D01*
X164390000Y-61150000D02*
X167050000Y-61150000D01*
X164390000Y-62850000D02*
X167050000Y-62850000D01*
%TO.C,R33*%
X185772936Y-89265000D02*
X186227064Y-89265000D01*
X185772936Y-90735000D02*
X186227064Y-90735000D01*
%TO.C,R42*%
X155772936Y-79265000D02*
X156227064Y-79265000D01*
X155772936Y-80735000D02*
X156227064Y-80735000D01*
%TO.C,C6*%
X152738748Y-119265000D02*
X153261252Y-119265000D01*
X152738748Y-120735000D02*
X153261252Y-120735000D01*
%TO.C,R23*%
X65772936Y-113265000D02*
X66227064Y-113265000D01*
X65772936Y-114735000D02*
X66227064Y-114735000D01*
%TO.C,D6*%
X207490000Y-60350000D02*
X207490000Y-63650000D01*
X207490000Y-60350000D02*
X213000000Y-60350000D01*
X207490000Y-63650000D02*
X213000000Y-63650000D01*
%TO.C,TP3*%
X53100000Y-129900000D02*
X56900000Y-129900000D01*
X56900000Y-132100000D01*
X53100000Y-132100000D01*
X53100000Y-129900000D01*
%TO.C,FB1*%
X199837221Y-99490000D02*
X200162779Y-99490000D01*
X199837221Y-100510000D02*
X200162779Y-100510000D01*
%TO.C,C19*%
X207859420Y-91490000D02*
X208140580Y-91490000D01*
X207859420Y-92510000D02*
X208140580Y-92510000D01*
%TO.C,C91*%
X134859420Y-12490000D02*
X135140580Y-12490000D01*
X134859420Y-13510000D02*
X135140580Y-13510000D01*
%TO.C,U14*%
X161090000Y-100440000D02*
X162910000Y-100440000D01*
X161090000Y-100490000D02*
X161090000Y-100440000D01*
X161090000Y-103560000D02*
X161090000Y-103510000D01*
X162910000Y-100440000D02*
X162910000Y-100490000D01*
X162910000Y-103510000D02*
X162910000Y-103560000D01*
X162910000Y-103560000D02*
X161090000Y-103560000D01*
X160550000Y-100490000D02*
X160310000Y-100160000D01*
X160790000Y-100160000D01*
X160550000Y-100490000D01*
G36*
X160550000Y-100490000D02*
G01*
X160310000Y-100160000D01*
X160790000Y-100160000D01*
X160550000Y-100490000D01*
G37*
%TO.C,J10*%
X138620000Y-91620000D02*
X140000000Y-91620000D01*
X138620000Y-93000000D02*
X138620000Y-91620000D01*
X138620000Y-94270000D02*
X138620000Y-107080000D01*
X138620000Y-94270000D02*
X141380000Y-94270000D01*
X138620000Y-107080000D02*
X141380000Y-107080000D01*
X141380000Y-94270000D02*
X141380000Y-107080000D01*
%TO.C,C42*%
X146859420Y-134490000D02*
X147140580Y-134490000D01*
X146859420Y-135510000D02*
X147140580Y-135510000D01*
%TO.C,R20*%
X203772936Y-111265000D02*
X204227064Y-111265000D01*
X203772936Y-112735000D02*
X204227064Y-112735000D01*
%TO.C,X1*%
X57940000Y-109290000D02*
X57940000Y-112710000D01*
X57940000Y-112710000D02*
X62060000Y-112710000D01*
%TO.C,R6*%
X177772936Y-97265000D02*
X178227064Y-97265000D01*
X177772936Y-98735000D02*
X178227064Y-98735000D01*
%TO.C,J1_AC*%
X153380000Y-125880000D02*
X168620000Y-125880000D01*
X153380000Y-133500000D02*
X168620000Y-133500000D01*
X153380000Y-134600000D02*
X168620000Y-134600000D01*
X153380000Y-135120000D02*
X153380000Y-125880000D01*
X155700000Y-135120000D02*
X153380000Y-135120000D01*
X168620000Y-125880000D02*
X168620000Y-135120000D01*
X168620000Y-135120000D02*
X156300000Y-135120000D01*
X156000000Y-135120000D02*
X156440000Y-135730000D01*
X155560000Y-135730000D01*
X156000000Y-135120000D01*
G36*
X156440000Y-135730000D02*
G01*
X155560000Y-135730000D01*
X156000000Y-135120000D01*
X156440000Y-135730000D01*
G37*
%TO.C,R40*%
X123762742Y-79477500D02*
X124237258Y-79477500D01*
X123762742Y-80522500D02*
X124237258Y-80522500D01*
%TO.C,J18*%
X72080000Y-115100000D02*
X72080000Y-116900000D01*
X72310000Y-111850000D02*
X72310000Y-117650000D01*
X72310000Y-111850000D02*
X88570000Y-111850000D01*
X72310000Y-120930000D02*
X72310000Y-127950000D01*
X88570000Y-111850000D02*
X88570000Y-117650000D01*
X88570000Y-120930000D02*
X88570000Y-127950000D01*
%TO.C,TP1*%
X24100000Y-132900000D02*
X27900000Y-132900000D01*
X27900000Y-135100000D01*
X24100000Y-135100000D01*
X24100000Y-132900000D01*
%TO.C,TP17*%
X31100000Y-83900000D02*
X34900000Y-83900000D01*
X34900000Y-86100000D01*
X31100000Y-86100000D01*
X31100000Y-83900000D01*
%TO.C,R13*%
X107772936Y-70895000D02*
X108227064Y-70895000D01*
X107772936Y-72365000D02*
X108227064Y-72365000D01*
%TO.C,TP11*%
X145100000Y-119900000D02*
X148900000Y-119900000D01*
X148900000Y-122100000D01*
X145100000Y-122100000D01*
X145100000Y-119900000D01*
%TO.C,D7*%
X195490000Y-60350000D02*
X195490000Y-63650000D01*
X195490000Y-60350000D02*
X201000000Y-60350000D01*
X195490000Y-63650000D02*
X201000000Y-63650000D01*
%TO.C,J8*%
X31620000Y-115620000D02*
X33000000Y-115620000D01*
X31620000Y-117000000D02*
X31620000Y-115620000D01*
X31620000Y-118270000D02*
X31620000Y-131080000D01*
X31620000Y-118270000D02*
X34380000Y-118270000D01*
X31620000Y-131080000D02*
X34380000Y-131080000D01*
X34380000Y-118270000D02*
X34380000Y-131080000D01*
%TO.C,R7*%
X181772936Y-109265000D02*
X182227064Y-109265000D01*
X181772936Y-110735000D02*
X182227064Y-110735000D01*
%TO.C,C15*%
X107738748Y-94265000D02*
X108261252Y-94265000D01*
X107738748Y-95735000D02*
X108261252Y-95735000D01*
%TO.C,SK1*%
X66670000Y-55270000D02*
X66670000Y-108670000D01*
X66670000Y-55270000D02*
X69330000Y-55270000D01*
X66670000Y-108670000D02*
X69330000Y-108670000D01*
X68000000Y-52670000D02*
X69330000Y-52670000D01*
X69330000Y-52670000D02*
X69330000Y-54000000D01*
X69330000Y-55270000D02*
X69330000Y-108670000D01*
%TO.C,Q4*%
X157240000Y-60440000D02*
X158760000Y-60440000D01*
X157240000Y-60490000D02*
X157240000Y-60440000D01*
X157240000Y-62390000D02*
X157240000Y-61610000D01*
X157240000Y-63560000D02*
X157240000Y-63510000D01*
X158760000Y-60440000D02*
X158760000Y-61440000D01*
X158760000Y-62560000D02*
X158760000Y-63560000D01*
X158760000Y-63560000D02*
X157240000Y-63560000D01*
X156700000Y-61620000D02*
X156940000Y-61950000D01*
X156460000Y-61950000D01*
X156700000Y-61620000D01*
G36*
X156940000Y-61950000D02*
G01*
X156460000Y-61950000D01*
X156700000Y-61620000D01*
X156940000Y-61950000D01*
G37*
%TO.C,R19*%
X193772936Y-105265000D02*
X194227064Y-105265000D01*
X193772936Y-106735000D02*
X194227064Y-106735000D01*
%TO.C,C93*%
X108859420Y-38490000D02*
X109140580Y-38490000D01*
X108859420Y-39510000D02*
X109140580Y-39510000D01*
%TO.C,TP2*%
X172100000Y-132900000D02*
X175900000Y-132900000D01*
X175900000Y-135100000D01*
X172100000Y-135100000D01*
X172100000Y-132900000D01*
%TO.C,C102*%
X81859420Y-7490000D02*
X82140580Y-7490000D01*
X81859420Y-8510000D02*
X82140580Y-8510000D01*
%TO.C,U6*%
X26640000Y-18640000D02*
X26865000Y-18640000D01*
X26640000Y-19115000D02*
X26640000Y-18640000D01*
X26640000Y-21360000D02*
X26640000Y-20885000D01*
X26865000Y-21360000D02*
X26640000Y-21360000D01*
X29135000Y-18640000D02*
X29360000Y-18640000D01*
X29360000Y-18640000D02*
X29360000Y-19115000D01*
X29360000Y-20885000D02*
X29360000Y-21360000D01*
X29360000Y-21360000D02*
X29135000Y-21360000D01*
X26140000Y-19500000D02*
X25810000Y-19740000D01*
X25810000Y-19260000D01*
X26140000Y-19500000D01*
G36*
X26140000Y-19500000D02*
G01*
X25810000Y-19740000D01*
X25810000Y-19260000D01*
X26140000Y-19500000D01*
G37*
%TO.C,R_LED5*%
X107772936Y-82265000D02*
X108227064Y-82265000D01*
X107772936Y-83735000D02*
X108227064Y-83735000D01*
%TO.C,U15*%
X24390000Y-100390000D02*
X24840000Y-100390000D01*
X24390000Y-100840000D02*
X24390000Y-100390000D01*
X24390000Y-107610000D02*
X24390000Y-107160000D01*
X24840000Y-107610000D02*
X24390000Y-107610000D01*
X31160000Y-100390000D02*
X31610000Y-100390000D01*
X31610000Y-100390000D02*
X31610000Y-100840000D01*
X31610000Y-107160000D02*
X31610000Y-107610000D01*
X31610000Y-107610000D02*
X31160000Y-107610000D01*
X23750000Y-100840000D02*
X23410000Y-100370000D01*
X24090000Y-100370000D01*
X23750000Y-100840000D01*
G36*
X23750000Y-100840000D02*
G01*
X23410000Y-100370000D01*
X24090000Y-100370000D01*
X23750000Y-100840000D01*
G37*
%TO.C,C95*%
X67859420Y-19490000D02*
X68140580Y-19490000D01*
X67859420Y-20510000D02*
X68140580Y-20510000D01*
%TO.C,LED4*%
X4315000Y-129040000D02*
X4315000Y-130960000D01*
X4315000Y-130960000D02*
X7000000Y-130960000D01*
X7000000Y-129040000D02*
X4315000Y-129040000D01*
%TO.C,SK2*%
X86990000Y-55270000D02*
X86990000Y-108670000D01*
X86990000Y-55270000D02*
X89650000Y-55270000D01*
X86990000Y-108670000D02*
X89650000Y-108670000D01*
X88320000Y-52670000D02*
X89650000Y-52670000D01*
X89650000Y-52670000D02*
X89650000Y-54000000D01*
X89650000Y-55270000D02*
X89650000Y-108670000D01*
%TO.C,C32*%
X187859420Y-81490000D02*
X188140580Y-81490000D01*
X187859420Y-82510000D02*
X188140580Y-82510000D01*
%TO.C,Q3*%
X115240000Y-60440000D02*
X116760000Y-60440000D01*
X115240000Y-60490000D02*
X115240000Y-60440000D01*
X115240000Y-62390000D02*
X115240000Y-61610000D01*
X115240000Y-63560000D02*
X115240000Y-63510000D01*
X116760000Y-60440000D02*
X116760000Y-61440000D01*
X116760000Y-62560000D02*
X116760000Y-63560000D01*
X116760000Y-63560000D02*
X115240000Y-63560000D01*
X114700000Y-61620000D02*
X114940000Y-61950000D01*
X114460000Y-61950000D01*
X114700000Y-61620000D01*
G36*
X114940000Y-61950000D02*
G01*
X114460000Y-61950000D01*
X114700000Y-61620000D01*
X114940000Y-61950000D01*
G37*
%TO.C,LED2*%
X131315000Y-78040000D02*
X131315000Y-79960000D01*
X131315000Y-79960000D02*
X134000000Y-79960000D01*
X134000000Y-78040000D02*
X131315000Y-78040000D01*
%TO.C,LED6*%
X24400000Y-119150000D02*
X24400000Y-117150000D01*
X24400000Y-119150000D02*
X27600000Y-119150000D01*
X24700000Y-116850000D02*
X24400000Y-117150000D01*
X24700000Y-116850000D02*
X27600000Y-116850000D01*
X27600000Y-116850000D02*
X27600000Y-119150000D01*
%TO.C,J13*%
X186620000Y-106620000D02*
X188000000Y-106620000D01*
X186620000Y-108000000D02*
X186620000Y-106620000D01*
X186620000Y-109270000D02*
X186620000Y-122080000D01*
X186620000Y-109270000D02*
X189380000Y-109270000D01*
X186620000Y-122080000D02*
X189380000Y-122080000D01*
X189380000Y-109270000D02*
X189380000Y-122080000D01*
%TO.C,J1_USB*%
X167300000Y-116100000D02*
X167300000Y-118100000D01*
X167300000Y-120000000D02*
X167300000Y-121900000D01*
X167300000Y-121900000D02*
X176700000Y-121900000D01*
X176700000Y-116100000D02*
X176700000Y-118100000D01*
X176700000Y-120000000D02*
X176700000Y-121900000D01*
%TO.C,U12*%
X76160000Y-102670000D02*
X76160000Y-107870000D01*
X76160000Y-107870000D02*
X81460000Y-107870000D01*
X77810000Y-102670000D02*
X76160000Y-102670000D01*
X81460000Y-102670000D02*
X79810000Y-102670000D01*
X81460000Y-107870000D02*
X81460000Y-102670000D01*
X79810000Y-102670000D02*
G75*
G02*
X77810000Y-102670000I-1000000J0D01*
G01*
%TO.C,R29*%
X136772936Y-74265000D02*
X137227064Y-74265000D01*
X136772936Y-75735000D02*
X137227064Y-75735000D01*
%TO.C,D1*%
X36490000Y-60350000D02*
X36490000Y-63650000D01*
X36490000Y-60350000D02*
X42000000Y-60350000D01*
X36490000Y-63650000D02*
X42000000Y-63650000D01*
%TO.C,R47*%
X139772936Y-82265000D02*
X140227064Y-82265000D01*
X139772936Y-83735000D02*
X140227064Y-83735000D01*
%TO.C,C27*%
X107859420Y-78490000D02*
X108140580Y-78490000D01*
X107859420Y-79510000D02*
X108140580Y-79510000D01*
%TO.C,U8*%
X84090000Y-12440000D02*
X85910000Y-12440000D01*
X84090000Y-12490000D02*
X84090000Y-12440000D01*
X84090000Y-15560000D02*
X84090000Y-15510000D01*
X85910000Y-12440000D02*
X85910000Y-12490000D01*
X85910000Y-15510000D02*
X85910000Y-15560000D01*
X85910000Y-15560000D02*
X84090000Y-15560000D01*
X83550000Y-12490000D02*
X83310000Y-12160000D01*
X83790000Y-12160000D01*
X83550000Y-12490000D01*
G36*
X83550000Y-12490000D02*
G01*
X83310000Y-12160000D01*
X83790000Y-12160000D01*
X83550000Y-12490000D01*
G37*
%TO.C,RV1*%
D11*
X139000000Y-110750000D02*
X139000000Y-115250000D01*
X139000000Y-110750000D02*
X154500000Y-110750000D01*
X139000000Y-115250000D02*
X154500000Y-115250000D01*
X154500000Y-110750000D02*
X154500000Y-115250000D01*
%TO.C,R_RST2*%
D10*
X213762742Y-133477500D02*
X214237258Y-133477500D01*
X213762742Y-134522500D02*
X214237258Y-134522500D01*
%TO.C,C20*%
X208859420Y-127490000D02*
X209140580Y-127490000D01*
X208859420Y-128510000D02*
X209140580Y-128510000D01*
%TO.C,C44*%
X208738748Y-122265000D02*
X209261252Y-122265000D01*
X208738748Y-123735000D02*
X209261252Y-123735000D01*
%TO.C,C39*%
X149859420Y-101490000D02*
X150140580Y-101490000D01*
X149859420Y-102510000D02*
X150140580Y-102510000D01*
%TO.C,K1*%
X23320000Y-66690000D02*
X44460000Y-66690000D01*
X23320000Y-77690000D02*
X23320000Y-66690000D01*
X23320000Y-77690000D02*
X44460000Y-77690000D01*
X26270000Y-76000000D02*
X27540000Y-76000000D01*
X27030000Y-71170000D02*
X27540000Y-71170000D01*
X27030000Y-72950000D02*
X28050000Y-71940000D01*
X27030000Y-73710000D02*
X27030000Y-71170000D01*
X27540000Y-68380000D02*
X26270000Y-68380000D01*
X27540000Y-71170000D02*
X27540000Y-68380000D01*
X27540000Y-71170000D02*
X28050000Y-71170000D01*
X27540000Y-73710000D02*
X27030000Y-73710000D01*
X27540000Y-76000000D02*
X27540000Y-73710000D01*
X28050000Y-71170000D02*
X28050000Y-73710000D01*
X28050000Y-73710000D02*
X27540000Y-73710000D01*
X35160000Y-72190000D02*
X38335000Y-72190000D01*
X35160000Y-74730000D02*
X35160000Y-72190000D01*
X38335000Y-72190000D02*
X42145000Y-69650000D01*
X40240000Y-69650000D02*
X40240000Y-70920000D01*
X42780000Y-74730000D02*
X42780000Y-72190000D01*
X44460000Y-77690000D02*
X44460000Y-66690000D01*
X38462000Y-72190000D02*
G75*
G02*
X38208000Y-72190000I-127000J0D01*
G01*
X38208000Y-72190000D02*
G75*
G02*
X38462000Y-72190000I127000J0D01*
G01*
%TO.C,U10*%
X9940000Y-98440000D02*
X14060000Y-98440000D01*
X9940000Y-98535000D02*
X9940000Y-98440000D01*
X9940000Y-103560000D02*
X9940000Y-103465000D01*
X14060000Y-98440000D02*
X14060000Y-98535000D01*
X14060000Y-103465000D02*
X14060000Y-103560000D01*
X14060000Y-103560000D02*
X9940000Y-103560000D01*
X9400000Y-98530000D02*
X9160000Y-98200000D01*
X9640000Y-98200000D01*
X9400000Y-98530000D01*
G36*
X9400000Y-98530000D02*
G01*
X9160000Y-98200000D01*
X9640000Y-98200000D01*
X9400000Y-98530000D01*
G37*
%TO.C,Q2*%
X73240000Y-66440000D02*
X74760000Y-66440000D01*
X73240000Y-66490000D02*
X73240000Y-66440000D01*
X73240000Y-68390000D02*
X73240000Y-67610000D01*
X73240000Y-69560000D02*
X73240000Y-69510000D01*
X74760000Y-66440000D02*
X74760000Y-67440000D01*
X74760000Y-68560000D02*
X74760000Y-69560000D01*
X74760000Y-69560000D02*
X73240000Y-69560000D01*
X72700000Y-67620000D02*
X72940000Y-67950000D01*
X72460000Y-67950000D01*
X72700000Y-67620000D01*
G36*
X72940000Y-67950000D02*
G01*
X72460000Y-67950000D01*
X72700000Y-67620000D01*
X72940000Y-67950000D01*
G37*
%TO.C,R21*%
X99772936Y-87265000D02*
X100227064Y-87265000D01*
X99772936Y-88735000D02*
X100227064Y-88735000D01*
%TO.C,L1*%
X38700000Y-114700000D02*
X49300000Y-114700000D01*
X38700000Y-117900000D02*
X38700000Y-114700000D01*
X38700000Y-125300000D02*
X38700000Y-122100000D01*
X49300000Y-114700000D02*
X49300000Y-117900000D01*
X49300000Y-122100000D02*
X49300000Y-125300000D01*
X49300000Y-125300000D02*
X38700000Y-125300000D01*
%TO.C,C5*%
X133738748Y-119265000D02*
X134261252Y-119265000D01*
X133738748Y-120735000D02*
X134261252Y-120735000D01*
%TO.C,C36*%
X101859420Y-101490000D02*
X102140580Y-101490000D01*
X101859420Y-102510000D02*
X102140580Y-102510000D01*
%TO.C,C9*%
X17738748Y-121265000D02*
X18261252Y-121265000D01*
X17738748Y-122735000D02*
X18261252Y-122735000D01*
%TO.C,J9*%
X209620000Y-103620000D02*
X211000000Y-103620000D01*
X209620000Y-105000000D02*
X209620000Y-103620000D01*
X209620000Y-106270000D02*
X209620000Y-119080000D01*
X209620000Y-106270000D02*
X212380000Y-106270000D01*
X209620000Y-119080000D02*
X212380000Y-119080000D01*
X212380000Y-106270000D02*
X212380000Y-119080000D01*
%TO.C,ANT1*%
X184320000Y-128200000D02*
X184320000Y-131800000D01*
X186200000Y-126320000D02*
X189800000Y-126320000D01*
X186200000Y-133680000D02*
X189800000Y-133680000D01*
X191680000Y-128200000D02*
X191680000Y-131800000D01*
%TO.C,U3*%
X114390000Y-18540000D02*
X164110000Y-18540000D01*
X114390000Y-29704000D02*
X114390000Y-18540000D01*
X114390000Y-49260000D02*
X114390000Y-30296000D01*
X164110000Y-18540000D02*
X164110000Y-49260000D01*
X164110000Y-49260000D02*
X114390000Y-49260000D01*
X114390000Y-30000000D02*
X113780000Y-30440000D01*
X113780000Y-29560000D01*
X114390000Y-30000000D01*
G36*
X114390000Y-30000000D02*
G01*
X113780000Y-30440000D01*
X113780000Y-29560000D01*
X114390000Y-30000000D01*
G37*
%TO.C,U7*%
X76090000Y-12440000D02*
X77910000Y-12440000D01*
X76090000Y-12490000D02*
X76090000Y-12440000D01*
X76090000Y-15560000D02*
X76090000Y-15510000D01*
X77910000Y-12440000D02*
X77910000Y-12490000D01*
X77910000Y-15510000D02*
X77910000Y-15560000D01*
X77910000Y-15560000D02*
X76090000Y-15560000D01*
X75550000Y-12490000D02*
X75310000Y-12160000D01*
X75790000Y-12160000D01*
X75550000Y-12490000D01*
G36*
X75550000Y-12490000D02*
G01*
X75310000Y-12160000D01*
X75790000Y-12160000D01*
X75550000Y-12490000D01*
G37*
%TO.C,D2*%
X75490000Y-60350000D02*
X75490000Y-63650000D01*
X75490000Y-60350000D02*
X81000000Y-60350000D01*
X75490000Y-63650000D02*
X81000000Y-63650000D01*
%TO.C,C16*%
X123738748Y-121265000D02*
X124261252Y-121265000D01*
X123738748Y-122735000D02*
X124261252Y-122735000D01*
%TO.C,J7*%
X6620000Y-106620000D02*
X8000000Y-106620000D01*
X6620000Y-108000000D02*
X6620000Y-106620000D01*
X6620000Y-109270000D02*
X6620000Y-122080000D01*
X6620000Y-109270000D02*
X9380000Y-109270000D01*
X6620000Y-122080000D02*
X9380000Y-122080000D01*
X9380000Y-109270000D02*
X9380000Y-122080000D01*
%TO.C,C31*%
X213859420Y-93490000D02*
X214140580Y-93490000D01*
X213859420Y-94510000D02*
X214140580Y-94510000D01*
%TO.C,TP9*%
X26100000Y-92900000D02*
X29900000Y-92900000D01*
X29900000Y-95100000D01*
X26100000Y-95100000D01*
X26100000Y-92900000D01*
%TO.C,R_RST1*%
X53762742Y-73477500D02*
X54237258Y-73477500D01*
X53762742Y-74522500D02*
X54237258Y-74522500D01*
%TO.C,C_X1B*%
X81859420Y-97490000D02*
X82140580Y-97490000D01*
X81859420Y-98510000D02*
X82140580Y-98510000D01*
%TO.C,R18*%
X195772936Y-87265000D02*
X196227064Y-87265000D01*
X195772936Y-88735000D02*
X196227064Y-88735000D01*
%TO.C,LED5*%
X152315000Y-105040000D02*
X152315000Y-106960000D01*
X152315000Y-106960000D02*
X155000000Y-106960000D01*
X155000000Y-105040000D02*
X152315000Y-105040000D01*
%TO.C,C99*%
X73859420Y-19490000D02*
X74140580Y-19490000D01*
X73859420Y-20510000D02*
X74140580Y-20510000D01*
%TO.C,FB2*%
X5837221Y-125490000D02*
X6162779Y-125490000D01*
X5837221Y-126510000D02*
X6162779Y-126510000D01*
%TO.C,J5*%
X123130000Y-107780000D02*
X133870000Y-107780000D01*
X123130000Y-114000000D02*
X133870000Y-114000000D01*
X123130000Y-115100000D02*
X133870000Y-115100000D01*
X123130000Y-115620000D02*
X123130000Y-107780000D01*
X124700000Y-115620000D02*
X123130000Y-115620000D01*
X133870000Y-107780000D02*
X133870000Y-115620000D01*
X133870000Y-115620000D02*
X125300000Y-115620000D01*
X125000000Y-115620000D02*
X125440000Y-116230000D01*
X124560000Y-116230000D01*
X125000000Y-115620000D01*
G36*
X125440000Y-116230000D02*
G01*
X124560000Y-116230000D01*
X125000000Y-115620000D01*
X125440000Y-116230000D01*
G37*
%TO.C,C23*%
X16738748Y-108265000D02*
X17261252Y-108265000D01*
X16738748Y-109735000D02*
X17261252Y-109735000D01*
%TO.C,D8*%
X183490000Y-60350000D02*
X183490000Y-63650000D01*
X183490000Y-60350000D02*
X189000000Y-60350000D01*
X183490000Y-63650000D02*
X189000000Y-63650000D01*
%TO.C,TP14*%
X25100000Y-125900000D02*
X28900000Y-125900000D01*
X28900000Y-128100000D01*
X25100000Y-128100000D01*
X25100000Y-125900000D01*
%TO.C,R41*%
X133772936Y-85265000D02*
X134227064Y-85265000D01*
X133772936Y-86735000D02*
X134227064Y-86735000D01*
%TO.C,J4*%
X107130000Y-107780000D02*
X117870000Y-107780000D01*
X107130000Y-114000000D02*
X117870000Y-114000000D01*
X107130000Y-115100000D02*
X117870000Y-115100000D01*
X107130000Y-115620000D02*
X107130000Y-107780000D01*
X108700000Y-115620000D02*
X107130000Y-115620000D01*
X117870000Y-107780000D02*
X117870000Y-115620000D01*
X117870000Y-115620000D02*
X109300000Y-115620000D01*
X109000000Y-115620000D02*
X109440000Y-116230000D01*
X108560000Y-116230000D01*
X109000000Y-115620000D01*
G36*
X109440000Y-116230000D02*
G01*
X108560000Y-116230000D01*
X109000000Y-115620000D01*
X109440000Y-116230000D01*
G37*
%TO.C,R_LED4*%
X25772936Y-85265000D02*
X26227064Y-85265000D01*
X25772936Y-86735000D02*
X26227064Y-86735000D01*
%TO.C,C43*%
X198738748Y-116265000D02*
X199261252Y-116265000D01*
X198738748Y-117735000D02*
X199261252Y-117735000D01*
%TO.C,C18*%
X116859420Y-88490000D02*
X117140580Y-88490000D01*
X116859420Y-89510000D02*
X117140580Y-89510000D01*
%TO.C,Q1*%
X31240000Y-60440000D02*
X32760000Y-60440000D01*
X31240000Y-60490000D02*
X31240000Y-60440000D01*
X31240000Y-62390000D02*
X31240000Y-61610000D01*
X31240000Y-63560000D02*
X31240000Y-63510000D01*
X32760000Y-60440000D02*
X32760000Y-61440000D01*
X32760000Y-62560000D02*
X32760000Y-63560000D01*
X32760000Y-63560000D02*
X31240000Y-63560000D01*
X30700000Y-61620000D02*
X30940000Y-61950000D01*
X30460000Y-61950000D01*
X30700000Y-61620000D01*
G36*
X30940000Y-61950000D02*
G01*
X30460000Y-61950000D01*
X30700000Y-61620000D01*
X30940000Y-61950000D01*
G37*
%TO.C,J2*%
X168200000Y-11400000D02*
X182900000Y-11400000D01*
X168200000Y-20600000D02*
X168200000Y-11400000D01*
X177000000Y-20600000D02*
X168200000Y-20600000D01*
X182050000Y-11200000D02*
X183100000Y-11200000D01*
X182900000Y-11400000D02*
X182900000Y-14000000D01*
X182900000Y-17900000D02*
X182900000Y-20600000D01*
X182900000Y-20600000D02*
X181000000Y-20600000D01*
X183100000Y-12250000D02*
X183100000Y-11200000D01*
%TO.C,R44*%
X43846359Y-127620000D02*
X44153641Y-127620000D01*
X43846359Y-128380000D02*
X44153641Y-128380000D01*
%TO.C,TP10*%
X42100000Y-131900000D02*
X45900000Y-131900000D01*
X45900000Y-134100000D01*
X42100000Y-134100000D01*
X42100000Y-131900000D01*
%TO.C,C3*%
X106195225Y-100525000D02*
X106695225Y-100525000D01*
X106445225Y-100275000D02*
X106445225Y-100775000D01*
X109000000Y-99420000D02*
X109000000Y-100960000D01*
X109000000Y-103040000D02*
X109000000Y-104580000D01*
X109040000Y-99420000D02*
X109040000Y-100960000D01*
X109040000Y-103040000D02*
X109040000Y-104580000D01*
X109080000Y-99421000D02*
X109080000Y-100960000D01*
X109080000Y-103040000D02*
X109080000Y-104579000D01*
X109120000Y-99423000D02*
X109120000Y-100960000D01*
X109120000Y-103040000D02*
X109120000Y-104577000D01*
X109160000Y-99425000D02*
X109160000Y-100960000D01*
X109160000Y-103040000D02*
X109160000Y-104575000D01*
X109200000Y-99428000D02*
X109200000Y-100960000D01*
X109200000Y-103040000D02*
X109200000Y-104572000D01*
X109240000Y-99431000D02*
X109240000Y-100960000D01*
X109240000Y-103040000D02*
X109240000Y-104569000D01*
X109280000Y-99435000D02*
X109280000Y-100960000D01*
X109280000Y-103040000D02*
X109280000Y-104565000D01*
X109320000Y-99440000D02*
X109320000Y-100960000D01*
X109320000Y-103040000D02*
X109320000Y-104560000D01*
X109360000Y-99445000D02*
X109360000Y-100960000D01*
X109360000Y-103040000D02*
X109360000Y-104555000D01*
X109400000Y-99451000D02*
X109400000Y-100960000D01*
X109400000Y-103040000D02*
X109400000Y-104549000D01*
X109440000Y-99457000D02*
X109440000Y-100960000D01*
X109440000Y-103040000D02*
X109440000Y-104543000D01*
X109480000Y-99464000D02*
X109480000Y-100960000D01*
X109480000Y-103040000D02*
X109480000Y-104536000D01*
X109520000Y-99472000D02*
X109520000Y-100960000D01*
X109520000Y-103040000D02*
X109520000Y-104528000D01*
X109560000Y-99481000D02*
X109560000Y-100960000D01*
X109560000Y-103040000D02*
X109560000Y-104519000D01*
X109600000Y-99490000D02*
X109600000Y-100960000D01*
X109600000Y-103040000D02*
X109600000Y-104510000D01*
X109640000Y-99499000D02*
X109640000Y-100960000D01*
X109640000Y-103040000D02*
X109640000Y-104501000D01*
X109680000Y-99510000D02*
X109680000Y-100960000D01*
X109680000Y-103040000D02*
X109680000Y-104490000D01*
X109720000Y-99521000D02*
X109720000Y-100960000D01*
X109720000Y-103040000D02*
X109720000Y-104479000D01*
X109760000Y-99533000D02*
X109760000Y-100960000D01*
X109760000Y-103040000D02*
X109760000Y-104467000D01*
X109800000Y-99545000D02*
X109800000Y-100960000D01*
X109800000Y-103040000D02*
X109800000Y-104455000D01*
X109840000Y-99558000D02*
X109840000Y-100960000D01*
X109840000Y-103040000D02*
X109840000Y-104442000D01*
X109880000Y-99572000D02*
X109880000Y-100960000D01*
X109880000Y-103040000D02*
X109880000Y-104428000D01*
X109920000Y-99587000D02*
X109920000Y-100960000D01*
X109920000Y-103040000D02*
X109920000Y-104413000D01*
X109960000Y-99602000D02*
X109960000Y-100960000D01*
X109960000Y-103040000D02*
X109960000Y-104398000D01*
X110000000Y-99618000D02*
X110000000Y-100960000D01*
X110000000Y-103040000D02*
X110000000Y-104382000D01*
X110040000Y-99635000D02*
X110040000Y-100960000D01*
X110040000Y-103040000D02*
X110040000Y-104365000D01*
X110080000Y-99653000D02*
X110080000Y-100960000D01*
X110080000Y-103040000D02*
X110080000Y-104347000D01*
X110120000Y-99671000D02*
X110120000Y-100960000D01*
X110120000Y-103040000D02*
X110120000Y-104329000D01*
X110160000Y-99691000D02*
X110160000Y-100960000D01*
X110160000Y-103040000D02*
X110160000Y-104309000D01*
X110200000Y-99711000D02*
X110200000Y-100960000D01*
X110200000Y-103040000D02*
X110200000Y-104289000D01*
X110240000Y-99732000D02*
X110240000Y-100960000D01*
X110240000Y-103040000D02*
X110240000Y-104268000D01*
X110280000Y-99754000D02*
X110280000Y-100960000D01*
X110280000Y-103040000D02*
X110280000Y-104246000D01*
X110320000Y-99777000D02*
X110320000Y-100960000D01*
X110320000Y-103040000D02*
X110320000Y-104223000D01*
X110360000Y-99801000D02*
X110360000Y-100960000D01*
X110360000Y-103040000D02*
X110360000Y-104199000D01*
X110400000Y-99825000D02*
X110400000Y-100960000D01*
X110400000Y-103040000D02*
X110400000Y-104175000D01*
X110440000Y-99851000D02*
X110440000Y-100960000D01*
X110440000Y-103040000D02*
X110440000Y-104149000D01*
X110480000Y-99878000D02*
X110480000Y-100960000D01*
X110480000Y-103040000D02*
X110480000Y-104122000D01*
X110520000Y-99906000D02*
X110520000Y-100960000D01*
X110520000Y-103040000D02*
X110520000Y-104094000D01*
X110560000Y-99935000D02*
X110560000Y-100960000D01*
X110560000Y-103040000D02*
X110560000Y-104065000D01*
X110600000Y-99965000D02*
X110600000Y-100960000D01*
X110600000Y-103040000D02*
X110600000Y-104035000D01*
X110640000Y-99997000D02*
X110640000Y-100960000D01*
X110640000Y-103040000D02*
X110640000Y-104003000D01*
X110680000Y-100030000D02*
X110680000Y-100960000D01*
X110680000Y-103040000D02*
X110680000Y-103970000D01*
X110720000Y-100064000D02*
X110720000Y-100960000D01*
X110720000Y-103040000D02*
X110720000Y-103936000D01*
X110760000Y-100099000D02*
X110760000Y-100960000D01*
X110760000Y-103040000D02*
X110760000Y-103901000D01*
X110800000Y-100136000D02*
X110800000Y-100960000D01*
X110800000Y-103040000D02*
X110800000Y-103864000D01*
X110840000Y-100175000D02*
X110840000Y-100960000D01*
X110840000Y-103040000D02*
X110840000Y-103825000D01*
X110880000Y-100215000D02*
X110880000Y-100960000D01*
X110880000Y-103040000D02*
X110880000Y-103785000D01*
X110920000Y-100257000D02*
X110920000Y-100960000D01*
X110920000Y-103040000D02*
X110920000Y-103743000D01*
X110960000Y-100301000D02*
X110960000Y-100960000D01*
X110960000Y-103040000D02*
X110960000Y-103699000D01*
X111000000Y-100348000D02*
X111000000Y-100960000D01*
X111000000Y-103040000D02*
X111000000Y-103652000D01*
X111040000Y-100396000D02*
X111040000Y-103604000D01*
X111080000Y-100447000D02*
X111080000Y-103553000D01*
X111120000Y-100501000D02*
X111120000Y-103499000D01*
X111160000Y-100557000D02*
X111160000Y-103443000D01*
X111200000Y-100617000D02*
X111200000Y-103383000D01*
X111240000Y-100681000D02*
X111240000Y-103319000D01*
X111280000Y-100749000D02*
X111280000Y-103251000D01*
X111320000Y-100823000D02*
X111320000Y-103177000D01*
X111360000Y-100902000D02*
X111360000Y-103098000D01*
X111400000Y-100989000D02*
X111400000Y-103011000D01*
X111440000Y-101086000D02*
X111440000Y-102914000D01*
X111480000Y-101195000D02*
X111480000Y-102805000D01*
X111520000Y-101323000D02*
X111520000Y-102677000D01*
X111560000Y-101483000D02*
X111560000Y-102517000D01*
X111600000Y-101717000D02*
X111600000Y-102283000D01*
X111620000Y-102000000D02*
G75*
G02*
X106380000Y-102000000I-2620000J0D01*
G01*
X106380000Y-102000000D02*
G75*
G02*
X111620000Y-102000000I2620000J0D01*
G01*
%TO.C,U13*%
X145090000Y-94440000D02*
X146910000Y-94440000D01*
X145090000Y-94490000D02*
X145090000Y-94440000D01*
X145090000Y-97560000D02*
X145090000Y-97510000D01*
X146910000Y-94440000D02*
X146910000Y-94490000D01*
X146910000Y-97510000D02*
X146910000Y-97560000D01*
X146910000Y-97560000D02*
X145090000Y-97560000D01*
X144550000Y-94490000D02*
X144310000Y-94160000D01*
X144790000Y-94160000D01*
X144550000Y-94490000D01*
G36*
X144550000Y-94490000D02*
G01*
X144310000Y-94160000D01*
X144790000Y-94160000D01*
X144550000Y-94490000D01*
G37*
%TO.C,R38*%
X100762742Y-80477500D02*
X101237258Y-80477500D01*
X100762742Y-81522500D02*
X101237258Y-81522500D01*
%TO.C,R28*%
X114772936Y-80265000D02*
X115227064Y-80265000D01*
X114772936Y-81735000D02*
X115227064Y-81735000D01*
%TO.C,U4*%
X65940000Y-11440000D02*
X70060000Y-11440000D01*
X65940000Y-11535000D02*
X65940000Y-11440000D01*
X65940000Y-16560000D02*
X65940000Y-16465000D01*
X70060000Y-11440000D02*
X70060000Y-11535000D01*
X70060000Y-16465000D02*
X70060000Y-16560000D01*
X70060000Y-16560000D02*
X65940000Y-16560000D01*
X65400000Y-11530000D02*
X65160000Y-11200000D01*
X65640000Y-11200000D01*
X65400000Y-11530000D01*
G36*
X65400000Y-11530000D02*
G01*
X65160000Y-11200000D01*
X65640000Y-11200000D01*
X65400000Y-11530000D01*
G37*
%TO.C,C97*%
X142859420Y-54490000D02*
X143140580Y-54490000D01*
X142859420Y-55510000D02*
X143140580Y-55510000D01*
%TO.C,C1*%
X62195225Y-130525000D02*
X62695225Y-130525000D01*
X62445225Y-130275000D02*
X62445225Y-130775000D01*
X65000000Y-129420000D02*
X65000000Y-130960000D01*
X65000000Y-133040000D02*
X65000000Y-134580000D01*
X65040000Y-129420000D02*
X65040000Y-130960000D01*
X65040000Y-133040000D02*
X65040000Y-134580000D01*
X65080000Y-129421000D02*
X65080000Y-130960000D01*
X65080000Y-133040000D02*
X65080000Y-134579000D01*
X65120000Y-129423000D02*
X65120000Y-130960000D01*
X65120000Y-133040000D02*
X65120000Y-134577000D01*
X65160000Y-129425000D02*
X65160000Y-130960000D01*
X65160000Y-133040000D02*
X65160000Y-134575000D01*
X65200000Y-129428000D02*
X65200000Y-130960000D01*
X65200000Y-133040000D02*
X65200000Y-134572000D01*
X65240000Y-129431000D02*
X65240000Y-130960000D01*
X65240000Y-133040000D02*
X65240000Y-134569000D01*
X65280000Y-129435000D02*
X65280000Y-130960000D01*
X65280000Y-133040000D02*
X65280000Y-134565000D01*
X65320000Y-129440000D02*
X65320000Y-130960000D01*
X65320000Y-133040000D02*
X65320000Y-134560000D01*
X65360000Y-129445000D02*
X65360000Y-130960000D01*
X65360000Y-133040000D02*
X65360000Y-134555000D01*
X65400000Y-129451000D02*
X65400000Y-130960000D01*
X65400000Y-133040000D02*
X65400000Y-134549000D01*
X65440000Y-129457000D02*
X65440000Y-130960000D01*
X65440000Y-133040000D02*
X65440000Y-134543000D01*
X65480000Y-129464000D02*
X65480000Y-130960000D01*
X65480000Y-133040000D02*
X65480000Y-134536000D01*
X65520000Y-129472000D02*
X65520000Y-130960000D01*
X65520000Y-133040000D02*
X65520000Y-134528000D01*
X65560000Y-129481000D02*
X65560000Y-130960000D01*
X65560000Y-133040000D02*
X65560000Y-134519000D01*
X65600000Y-129490000D02*
X65600000Y-130960000D01*
X65600000Y-133040000D02*
X65600000Y-134510000D01*
X65640000Y-129499000D02*
X65640000Y-130960000D01*
X65640000Y-133040000D02*
X65640000Y-134501000D01*
X65680000Y-129510000D02*
X65680000Y-130960000D01*
X65680000Y-133040000D02*
X65680000Y-134490000D01*
X65720000Y-129521000D02*
X65720000Y-130960000D01*
X65720000Y-133040000D02*
X65720000Y-134479000D01*
X65760000Y-129533000D02*
X65760000Y-130960000D01*
X65760000Y-133040000D02*
X65760000Y-134467000D01*
X65800000Y-129545000D02*
X65800000Y-130960000D01*
X65800000Y-133040000D02*
X65800000Y-134455000D01*
X65840000Y-129558000D02*
X65840000Y-130960000D01*
X65840000Y-133040000D02*
X65840000Y-134442000D01*
X65880000Y-129572000D02*
X65880000Y-130960000D01*
X65880000Y-133040000D02*
X65880000Y-134428000D01*
X65920000Y-129587000D02*
X65920000Y-130960000D01*
X65920000Y-133040000D02*
X65920000Y-134413000D01*
X65960000Y-129602000D02*
X65960000Y-130960000D01*
X65960000Y-133040000D02*
X65960000Y-134398000D01*
X66000000Y-129618000D02*
X66000000Y-130960000D01*
X66000000Y-133040000D02*
X66000000Y-134382000D01*
X66040000Y-129635000D02*
X66040000Y-130960000D01*
X66040000Y-133040000D02*
X66040000Y-134365000D01*
X66080000Y-129653000D02*
X66080000Y-130960000D01*
X66080000Y-133040000D02*
X66080000Y-134347000D01*
X66120000Y-129671000D02*
X66120000Y-130960000D01*
X66120000Y-133040000D02*
X66120000Y-134329000D01*
X66160000Y-129691000D02*
X66160000Y-130960000D01*
X66160000Y-133040000D02*
X66160000Y-134309000D01*
X66200000Y-129711000D02*
X66200000Y-130960000D01*
X66200000Y-133040000D02*
X66200000Y-134289000D01*
X66240000Y-129732000D02*
X66240000Y-130960000D01*
X66240000Y-133040000D02*
X66240000Y-134268000D01*
X66280000Y-129754000D02*
X66280000Y-130960000D01*
X66280000Y-133040000D02*
X66280000Y-134246000D01*
X66320000Y-129777000D02*
X66320000Y-130960000D01*
X66320000Y-133040000D02*
X66320000Y-134223000D01*
X66360000Y-129801000D02*
X66360000Y-130960000D01*
X66360000Y-133040000D02*
X66360000Y-134199000D01*
X66400000Y-129825000D02*
X66400000Y-130960000D01*
X66400000Y-133040000D02*
X66400000Y-134175000D01*
X66440000Y-129851000D02*
X66440000Y-130960000D01*
X66440000Y-133040000D02*
X66440000Y-134149000D01*
X66480000Y-129878000D02*
X66480000Y-130960000D01*
X66480000Y-133040000D02*
X66480000Y-134122000D01*
X66520000Y-129906000D02*
X66520000Y-130960000D01*
X66520000Y-133040000D02*
X66520000Y-134094000D01*
X66560000Y-129935000D02*
X66560000Y-130960000D01*
X66560000Y-133040000D02*
X66560000Y-134065000D01*
X66600000Y-129965000D02*
X66600000Y-130960000D01*
X66600000Y-133040000D02*
X66600000Y-134035000D01*
X66640000Y-129997000D02*
X66640000Y-130960000D01*
X66640000Y-133040000D02*
X66640000Y-134003000D01*
X66680000Y-130030000D02*
X66680000Y-130960000D01*
X66680000Y-133040000D02*
X66680000Y-133970000D01*
X66720000Y-130064000D02*
X66720000Y-130960000D01*
X66720000Y-133040000D02*
X66720000Y-133936000D01*
X66760000Y-130099000D02*
X66760000Y-130960000D01*
X66760000Y-133040000D02*
X66760000Y-133901000D01*
X66800000Y-130136000D02*
X66800000Y-130960000D01*
X66800000Y-133040000D02*
X66800000Y-133864000D01*
X66840000Y-130175000D02*
X66840000Y-130960000D01*
X66840000Y-133040000D02*
X66840000Y-133825000D01*
X66880000Y-130215000D02*
X66880000Y-130960000D01*
X66880000Y-133040000D02*
X66880000Y-133785000D01*
X66920000Y-130257000D02*
X66920000Y-130960000D01*
X66920000Y-133040000D02*
X66920000Y-133743000D01*
X66960000Y-130301000D02*
X66960000Y-130960000D01*
X66960000Y-133040000D02*
X66960000Y-133699000D01*
X67000000Y-130348000D02*
X67000000Y-130960000D01*
X67000000Y-133040000D02*
X67000000Y-133652000D01*
X67040000Y-130396000D02*
X67040000Y-133604000D01*
X67080000Y-130447000D02*
X67080000Y-133553000D01*
X67120000Y-130501000D02*
X67120000Y-133499000D01*
X67160000Y-130557000D02*
X67160000Y-133443000D01*
X67200000Y-130617000D02*
X67200000Y-133383000D01*
X67240000Y-130681000D02*
X67240000Y-133319000D01*
X67280000Y-130749000D02*
X67280000Y-133251000D01*
X67320000Y-130823000D02*
X67320000Y-133177000D01*
X67360000Y-130902000D02*
X67360000Y-133098000D01*
X67400000Y-130989000D02*
X67400000Y-133011000D01*
X67440000Y-131086000D02*
X67440000Y-132914000D01*
X67480000Y-131195000D02*
X67480000Y-132805000D01*
X67520000Y-131323000D02*
X67520000Y-132677000D01*
X67560000Y-131483000D02*
X67560000Y-132517000D01*
X67600000Y-131717000D02*
X67600000Y-132283000D01*
X67620000Y-132000000D02*
G75*
G02*
X62380000Y-132000000I-2620000J0D01*
G01*
X62380000Y-132000000D02*
G75*
G02*
X67620000Y-132000000I2620000J0D01*
G01*
%TO.C,C2*%
X123195225Y-85525000D02*
X123695225Y-85525000D01*
X123445225Y-85275000D02*
X123445225Y-85775000D01*
X126000000Y-84420000D02*
X126000000Y-85960000D01*
X126000000Y-88040000D02*
X126000000Y-89580000D01*
X126040000Y-84420000D02*
X126040000Y-85960000D01*
X126040000Y-88040000D02*
X126040000Y-89580000D01*
X126080000Y-84421000D02*
X126080000Y-85960000D01*
X126080000Y-88040000D02*
X126080000Y-89579000D01*
X126120000Y-84423000D02*
X126120000Y-85960000D01*
X126120000Y-88040000D02*
X126120000Y-89577000D01*
X126160000Y-84425000D02*
X126160000Y-85960000D01*
X126160000Y-88040000D02*
X126160000Y-89575000D01*
X126200000Y-84428000D02*
X126200000Y-85960000D01*
X126200000Y-88040000D02*
X126200000Y-89572000D01*
X126240000Y-84431000D02*
X126240000Y-85960000D01*
X126240000Y-88040000D02*
X126240000Y-89569000D01*
X126280000Y-84435000D02*
X126280000Y-85960000D01*
X126280000Y-88040000D02*
X126280000Y-89565000D01*
X126320000Y-84440000D02*
X126320000Y-85960000D01*
X126320000Y-88040000D02*
X126320000Y-89560000D01*
X126360000Y-84445000D02*
X126360000Y-85960000D01*
X126360000Y-88040000D02*
X126360000Y-89555000D01*
X126400000Y-84451000D02*
X126400000Y-85960000D01*
X126400000Y-88040000D02*
X126400000Y-89549000D01*
X126440000Y-84457000D02*
X126440000Y-85960000D01*
X126440000Y-88040000D02*
X126440000Y-89543000D01*
X126480000Y-84464000D02*
X126480000Y-85960000D01*
X126480000Y-88040000D02*
X126480000Y-89536000D01*
X126520000Y-84472000D02*
X126520000Y-85960000D01*
X126520000Y-88040000D02*
X126520000Y-89528000D01*
X126560000Y-84481000D02*
X126560000Y-85960000D01*
X126560000Y-88040000D02*
X126560000Y-89519000D01*
X126600000Y-84490000D02*
X126600000Y-85960000D01*
X126600000Y-88040000D02*
X126600000Y-89510000D01*
X126640000Y-84499000D02*
X126640000Y-85960000D01*
X126640000Y-88040000D02*
X126640000Y-89501000D01*
X126680000Y-84510000D02*
X126680000Y-85960000D01*
X126680000Y-88040000D02*
X126680000Y-89490000D01*
X126720000Y-84521000D02*
X126720000Y-85960000D01*
X126720000Y-88040000D02*
X126720000Y-89479000D01*
X126760000Y-84533000D02*
X126760000Y-85960000D01*
X126760000Y-88040000D02*
X126760000Y-89467000D01*
X126800000Y-84545000D02*
X126800000Y-85960000D01*
X126800000Y-88040000D02*
X126800000Y-89455000D01*
X126840000Y-84558000D02*
X126840000Y-85960000D01*
X126840000Y-88040000D02*
X126840000Y-89442000D01*
X126880000Y-84572000D02*
X126880000Y-85960000D01*
X126880000Y-88040000D02*
X126880000Y-89428000D01*
X126920000Y-84587000D02*
X126920000Y-85960000D01*
X126920000Y-88040000D02*
X126920000Y-89413000D01*
X126960000Y-84602000D02*
X126960000Y-85960000D01*
X126960000Y-88040000D02*
X126960000Y-89398000D01*
X127000000Y-84618000D02*
X127000000Y-85960000D01*
X127000000Y-88040000D02*
X127000000Y-89382000D01*
X127040000Y-84635000D02*
X127040000Y-85960000D01*
X127040000Y-88040000D02*
X127040000Y-89365000D01*
X127080000Y-84653000D02*
X127080000Y-85960000D01*
X127080000Y-88040000D02*
X127080000Y-89347000D01*
X127120000Y-84671000D02*
X127120000Y-85960000D01*
X127120000Y-88040000D02*
X127120000Y-89329000D01*
X127160000Y-84691000D02*
X127160000Y-85960000D01*
X127160000Y-88040000D02*
X127160000Y-89309000D01*
X127200000Y-84711000D02*
X127200000Y-85960000D01*
X127200000Y-88040000D02*
X127200000Y-89289000D01*
X127240000Y-84732000D02*
X127240000Y-85960000D01*
X127240000Y-88040000D02*
X127240000Y-89268000D01*
X127280000Y-84754000D02*
X127280000Y-85960000D01*
X127280000Y-88040000D02*
X127280000Y-89246000D01*
X127320000Y-84777000D02*
X127320000Y-85960000D01*
X127320000Y-88040000D02*
X127320000Y-89223000D01*
X127360000Y-84801000D02*
X127360000Y-85960000D01*
X127360000Y-88040000D02*
X127360000Y-89199000D01*
X127400000Y-84825000D02*
X127400000Y-85960000D01*
X127400000Y-88040000D02*
X127400000Y-89175000D01*
X127440000Y-84851000D02*
X127440000Y-85960000D01*
X127440000Y-88040000D02*
X127440000Y-89149000D01*
X127480000Y-84878000D02*
X127480000Y-85960000D01*
X127480000Y-88040000D02*
X127480000Y-89122000D01*
X127520000Y-84906000D02*
X127520000Y-85960000D01*
X127520000Y-88040000D02*
X127520000Y-89094000D01*
X127560000Y-84935000D02*
X127560000Y-85960000D01*
X127560000Y-88040000D02*
X127560000Y-89065000D01*
X127600000Y-84965000D02*
X127600000Y-85960000D01*
X127600000Y-88040000D02*
X127600000Y-89035000D01*
X127640000Y-84997000D02*
X127640000Y-85960000D01*
X127640000Y-88040000D02*
X127640000Y-89003000D01*
X127680000Y-85030000D02*
X127680000Y-85960000D01*
X127680000Y-88040000D02*
X127680000Y-88970000D01*
X127720000Y-85064000D02*
X127720000Y-85960000D01*
X127720000Y-88040000D02*
X127720000Y-88936000D01*
X127760000Y-85099000D02*
X127760000Y-85960000D01*
X127760000Y-88040000D02*
X127760000Y-88901000D01*
X127800000Y-85136000D02*
X127800000Y-85960000D01*
X127800000Y-88040000D02*
X127800000Y-88864000D01*
X127840000Y-85175000D02*
X127840000Y-85960000D01*
X127840000Y-88040000D02*
X127840000Y-88825000D01*
X127880000Y-85215000D02*
X127880000Y-85960000D01*
X127880000Y-88040000D02*
X127880000Y-88785000D01*
X127920000Y-85257000D02*
X127920000Y-85960000D01*
X127920000Y-88040000D02*
X127920000Y-88743000D01*
X127960000Y-85301000D02*
X127960000Y-85960000D01*
X127960000Y-88040000D02*
X127960000Y-88699000D01*
X128000000Y-85348000D02*
X128000000Y-85960000D01*
X128000000Y-88040000D02*
X128000000Y-88652000D01*
X128040000Y-85396000D02*
X128040000Y-88604000D01*
X128080000Y-85447000D02*
X128080000Y-88553000D01*
X128120000Y-85501000D02*
X128120000Y-88499000D01*
X128160000Y-85557000D02*
X128160000Y-88443000D01*
X128200000Y-85617000D02*
X128200000Y-88383000D01*
X128240000Y-85681000D02*
X128240000Y-88319000D01*
X128280000Y-85749000D02*
X128280000Y-88251000D01*
X128320000Y-85823000D02*
X128320000Y-88177000D01*
X128360000Y-85902000D02*
X128360000Y-88098000D01*
X128400000Y-85989000D02*
X128400000Y-88011000D01*
X128440000Y-86086000D02*
X128440000Y-87914000D01*
X128480000Y-86195000D02*
X128480000Y-87805000D01*
X128520000Y-86323000D02*
X128520000Y-87677000D01*
X128560000Y-86483000D02*
X128560000Y-87517000D01*
X128600000Y-86717000D02*
X128600000Y-87283000D01*
X128620000Y-87000000D02*
G75*
G02*
X123380000Y-87000000I-2620000J0D01*
G01*
X123380000Y-87000000D02*
G75*
G02*
X128620000Y-87000000I2620000J0D01*
G01*
%TO.C,R22*%
X187772936Y-102265000D02*
X188227064Y-102265000D01*
X187772936Y-103735000D02*
X188227064Y-103735000D01*
%TO.C,J6*%
X158620000Y-106620000D02*
X160000000Y-106620000D01*
X158620000Y-108000000D02*
X158620000Y-106620000D01*
X158620000Y-109270000D02*
X158620000Y-122080000D01*
X158620000Y-109270000D02*
X161380000Y-109270000D01*
X158620000Y-122080000D02*
X161380000Y-122080000D01*
X161380000Y-109270000D02*
X161380000Y-122080000D01*
%TO.C,TP16*%
X138100000Y-119900000D02*
X141900000Y-119900000D01*
X141900000Y-122100000D01*
X138100000Y-122100000D01*
X138100000Y-119900000D01*
%TO.C,C98*%
X112859420Y-54490000D02*
X113140580Y-54490000D01*
X112859420Y-55510000D02*
X113140580Y-55510000D01*
%TO.C,C90*%
X93859420Y-61490000D02*
X94140580Y-61490000D01*
X93859420Y-62510000D02*
X94140580Y-62510000D01*
%TO.C,C41*%
X139859420Y-134490000D02*
X140140580Y-134490000D01*
X139859420Y-135510000D02*
X140140580Y-135510000D01*
%TO.C,TP18*%
X47100000Y-83900000D02*
X50900000Y-83900000D01*
X50900000Y-86100000D01*
X47100000Y-86100000D01*
X47100000Y-83900000D01*
%TO.C,TP4*%
X204100000Y-132900000D02*
X207900000Y-132900000D01*
X207900000Y-135100000D01*
X204100000Y-135100000D01*
X204100000Y-132900000D01*
%TO.C,D5*%
X206390000Y-67150000D02*
X206390000Y-68850000D01*
X206390000Y-67150000D02*
X209050000Y-67150000D01*
X206390000Y-68850000D02*
X209050000Y-68850000D01*
%TO.C,C101*%
X81859420Y-19490000D02*
X82140580Y-19490000D01*
X81859420Y-20510000D02*
X82140580Y-20510000D01*
%TO.C,R2*%
X59772936Y-85265000D02*
X60227064Y-85265000D01*
X59772936Y-86735000D02*
X60227064Y-86735000D01*
%TO.C,LED3*%
X138315000Y-87040000D02*
X138315000Y-88960000D01*
X138315000Y-88960000D02*
X141000000Y-88960000D01*
X141000000Y-87040000D02*
X138315000Y-87040000D01*
%TO.C,C8*%
X202738748Y-104265000D02*
X203261252Y-104265000D01*
X202738748Y-105735000D02*
X203261252Y-105735000D01*
%TO.C,J_FUSE*%
X121250000Y-125950000D02*
X145250000Y-125950000D01*
X121250000Y-132050000D02*
X121250000Y-125950000D01*
X145250000Y-125950000D02*
X145250000Y-132050000D01*
X145250000Y-132050000D02*
X121250000Y-132050000D01*
%TO.C,R1-R3R_LED4R_LED5*%
X168772936Y-74265000D02*
X169227064Y-74265000D01*
X168772936Y-75735000D02*
X169227064Y-75735000D01*
%TO.C,R8*%
X209772936Y-97265000D02*
X210227064Y-97265000D01*
X209772936Y-98735000D02*
X210227064Y-98735000D01*
%TO.C,D10*%
X145090000Y-87440000D02*
X146910000Y-87440000D01*
X145090000Y-87490000D02*
X145090000Y-87440000D01*
X145090000Y-90560000D02*
X145090000Y-90510000D01*
X146910000Y-87440000D02*
X146910000Y-87490000D01*
X146910000Y-90510000D02*
X146910000Y-90560000D01*
X146910000Y-90560000D02*
X145090000Y-90560000D01*
X144550000Y-87490000D02*
X144310000Y-87160000D01*
X144790000Y-87160000D01*
X144550000Y-87490000D01*
G36*
X144550000Y-87490000D02*
G01*
X144310000Y-87160000D01*
X144790000Y-87160000D01*
X144550000Y-87490000D01*
G37*
%TO.C,R10*%
X107772936Y-61085000D02*
X108227064Y-61085000D01*
X107772936Y-62555000D02*
X108227064Y-62555000D01*
%TO.C,D3*%
X120490000Y-60350000D02*
X120490000Y-63650000D01*
X120490000Y-60350000D02*
X126000000Y-60350000D01*
X120490000Y-63650000D02*
X126000000Y-63650000D01*
%TO.C,J15*%
X131620000Y-93620000D02*
X133000000Y-93620000D01*
X131620000Y-95000000D02*
X131620000Y-93620000D01*
X131620000Y-96270000D02*
X131620000Y-104000000D01*
X131620000Y-96270000D02*
X134380000Y-96270000D01*
X131620000Y-104000000D02*
X134380000Y-104000000D01*
X134380000Y-96270000D02*
X134380000Y-104000000D01*
%TO.C,TP5*%
X40100000Y-84900000D02*
X43900000Y-84900000D01*
X43900000Y-87100000D01*
X40100000Y-87100000D01*
X40100000Y-84900000D01*
%TO.C,C94*%
X117859420Y-14490000D02*
X118140580Y-14490000D01*
X117859420Y-15510000D02*
X118140580Y-15510000D01*
%TO.C,J12*%
X92620000Y-112620000D02*
X94000000Y-112620000D01*
X92620000Y-114000000D02*
X92620000Y-112620000D01*
X92620000Y-115270000D02*
X92620000Y-128080000D01*
X92620000Y-115270000D02*
X95380000Y-115270000D01*
X92620000Y-128080000D02*
X95380000Y-128080000D01*
X95380000Y-115270000D02*
X95380000Y-128080000D01*
%TO.C,R37*%
X81762742Y-77477500D02*
X82237258Y-77477500D01*
X81762742Y-78522500D02*
X82237258Y-78522500D01*
%TO.C,R9*%
X171772936Y-82265000D02*
X172227064Y-82265000D01*
X171772936Y-83735000D02*
X172227064Y-83735000D01*
%TO.C,C10*%
X15738748Y-115265000D02*
X16261252Y-115265000D01*
X15738748Y-116735000D02*
X16261252Y-116735000D01*
%TO.C,C33*%
X11859420Y-83490000D02*
X12140580Y-83490000D01*
X11859420Y-84510000D02*
X12140580Y-84510000D01*
%TO.C,R_WDG*%
X187772936Y-85265000D02*
X188227064Y-85265000D01*
X187772936Y-86735000D02*
X188227064Y-86735000D01*
%TO.C,C38*%
X160859420Y-74490000D02*
X161140580Y-74490000D01*
X160859420Y-75510000D02*
X161140580Y-75510000D01*
%TO.C,U9*%
X185940000Y-93440000D02*
X190060000Y-93440000D01*
X185940000Y-93535000D02*
X185940000Y-93440000D01*
X185940000Y-98560000D02*
X185940000Y-98465000D01*
X190060000Y-93440000D02*
X190060000Y-93535000D01*
X190060000Y-98465000D02*
X190060000Y-98560000D01*
X190060000Y-98560000D02*
X185940000Y-98560000D01*
X185400000Y-93530000D02*
X185160000Y-93200000D01*
X185640000Y-93200000D01*
X185400000Y-93530000D01*
G36*
X185400000Y-93530000D02*
G01*
X185160000Y-93200000D01*
X185640000Y-93200000D01*
X185400000Y-93530000D01*
G37*
%TO.C,R16*%
X145772936Y-105265000D02*
X146227064Y-105265000D01*
X145772936Y-106735000D02*
X146227064Y-106735000D01*
%TO.C,U11*%
X45160000Y-105670000D02*
X45160000Y-110870000D01*
X45160000Y-110870000D02*
X50460000Y-110870000D01*
X46810000Y-105670000D02*
X45160000Y-105670000D01*
X50460000Y-105670000D02*
X48810000Y-105670000D01*
X50460000Y-110870000D02*
X50460000Y-105670000D01*
X48810000Y-105670000D02*
G75*
G02*
X46810000Y-105670000I-1000000J0D01*
G01*
%TO.C,C28*%
X81859420Y-93490000D02*
X82140580Y-93490000D01*
X81859420Y-94510000D02*
X82140580Y-94510000D01*
%TO.C,R35*%
X49762742Y-77477500D02*
X50237258Y-77477500D01*
X49762742Y-78522500D02*
X50237258Y-78522500D01*
%TO.C,J16*%
X162620000Y-78620000D02*
X164000000Y-78620000D01*
X162620000Y-80000000D02*
X162620000Y-78620000D01*
X162620000Y-81270000D02*
X162620000Y-94080000D01*
X162620000Y-81270000D02*
X165380000Y-81270000D01*
X162620000Y-94080000D02*
X165380000Y-94080000D01*
X165380000Y-81270000D02*
X165380000Y-94080000D01*
%TO.C,D9*%
X171490000Y-60350000D02*
X171490000Y-63650000D01*
X171490000Y-60350000D02*
X177000000Y-60350000D01*
X171490000Y-63650000D02*
X177000000Y-63650000D01*
%TO.C,BAT1*%
X101450000Y-124250000D02*
X103100000Y-122600000D01*
X101450000Y-129850000D02*
X102600000Y-131200000D01*
X103100000Y-122600000D02*
X105000000Y-122600000D01*
X112900000Y-122600000D02*
X111000000Y-122600000D01*
X112900000Y-122600000D02*
X114550000Y-124250000D01*
X114550000Y-129850000D02*
X113400000Y-131200000D01*
X105495902Y-131697607D02*
G75*
G02*
X102600000Y-131200000I-1095902J2297607D01*
G01*
X113400000Y-131200000D02*
G75*
G02*
X110501694Y-131696459I-1800000J1800000D01*
G01*
%TO.C,J11*%
X154620000Y-85620000D02*
X156000000Y-85620000D01*
X154620000Y-87000000D02*
X154620000Y-85620000D01*
X154620000Y-88270000D02*
X154620000Y-101080000D01*
X154620000Y-88270000D02*
X157380000Y-88270000D01*
X154620000Y-101080000D02*
X157380000Y-101080000D01*
X157380000Y-88270000D02*
X157380000Y-101080000D01*
%TO.C,R36*%
X59762742Y-71477500D02*
X60237258Y-71477500D01*
X59762742Y-72522500D02*
X60237258Y-72522500D01*
%TO.C,J14*%
X115620000Y-93620000D02*
X117000000Y-93620000D01*
X115620000Y-95000000D02*
X115620000Y-93620000D01*
X115620000Y-96270000D02*
X115620000Y-104000000D01*
X115620000Y-96270000D02*
X118380000Y-96270000D01*
X115620000Y-104000000D02*
X118380000Y-104000000D01*
X118380000Y-96270000D02*
X118380000Y-104000000D01*
%TO.C,F1*%
X20250000Y-8950000D02*
X44250000Y-8950000D01*
X20250000Y-15050000D02*
X20250000Y-8950000D01*
X44250000Y-8950000D02*
X44250000Y-15050000D01*
X44250000Y-15050000D02*
X20250000Y-15050000D01*
%TO.C,C37*%
X21859420Y-89490000D02*
X22140580Y-89490000D01*
X21859420Y-90510000D02*
X22140580Y-90510000D01*
%TO.C,C100*%
X61859420Y-19490000D02*
X62140580Y-19490000D01*
X61859420Y-20510000D02*
X62140580Y-20510000D01*
%TO.C,TP6*%
X170100000Y-105900000D02*
X173900000Y-105900000D01*
X173900000Y-108100000D01*
X170100000Y-108100000D01*
X170100000Y-105900000D01*
%TO.C,C12*%
X38738748Y-106265000D02*
X39261252Y-106265000D01*
X38738748Y-107735000D02*
X39261252Y-107735000D01*
%TO.C,R11*%
X107772936Y-65355000D02*
X108227064Y-65355000D01*
X107772936Y-66825000D02*
X108227064Y-66825000D01*
%TO.C,TP15*%
X197100000Y-131900000D02*
X200900000Y-131900000D01*
X200900000Y-134100000D01*
X197100000Y-134100000D01*
X197100000Y-131900000D01*
%TO.C,R3*%
X93772936Y-133265000D02*
X94227064Y-133265000D01*
X93772936Y-134735000D02*
X94227064Y-134735000D01*
%TO.C,TP12*%
X179100000Y-101900000D02*
X182900000Y-101900000D01*
X182900000Y-104100000D01*
X179100000Y-104100000D01*
X179100000Y-101900000D01*
%TO.C,TP7*%
X99100000Y-111900000D02*
X102900000Y-111900000D01*
X102900000Y-114100000D01*
X99100000Y-114100000D01*
X99100000Y-111900000D01*
%TO.C,J3*%
X10130000Y-125780000D02*
X20870000Y-125780000D01*
X10130000Y-132000000D02*
X20870000Y-132000000D01*
X10130000Y-133100000D02*
X20870000Y-133100000D01*
X10130000Y-133620000D02*
X10130000Y-125780000D01*
X11700000Y-133620000D02*
X10130000Y-133620000D01*
X20870000Y-125780000D02*
X20870000Y-133620000D01*
X20870000Y-133620000D02*
X12300000Y-133620000D01*
X12000000Y-133620000D02*
X12440000Y-134230000D01*
X11560000Y-134230000D01*
X12000000Y-133620000D01*
G36*
X12440000Y-134230000D02*
G01*
X11560000Y-134230000D01*
X12000000Y-133620000D01*
X12440000Y-134230000D01*
G37*
%TO.C,LED1*%
X94315000Y-99040000D02*
X94315000Y-100960000D01*
X94315000Y-100960000D02*
X97000000Y-100960000D01*
X97000000Y-99040000D02*
X94315000Y-99040000D01*
%TO.C,C_X1A-C_X1B*%
X149859420Y-77490000D02*
X150140580Y-77490000D01*
X149859420Y-78510000D02*
X150140580Y-78510000D01*
%TO.C,C30*%
X203859420Y-87490000D02*
X204140580Y-87490000D01*
X203859420Y-88510000D02*
X204140580Y-88510000D01*
%TO.C,C13*%
X96738748Y-106265000D02*
X97261252Y-106265000D01*
X96738748Y-107735000D02*
X97261252Y-107735000D01*
%TO.C,R12*%
X101772936Y-63625000D02*
X102227064Y-63625000D01*
X101772936Y-65095000D02*
X102227064Y-65095000D01*
%TO.C,R31*%
X75772936Y-89265000D02*
X76227064Y-89265000D01*
X75772936Y-90735000D02*
X76227064Y-90735000D01*
%TO.C,C22*%
X57288748Y-105090000D02*
X58711252Y-105090000D01*
X57288748Y-106910000D02*
X58711252Y-106910000D01*
%TO.C,C4*%
X122195225Y-100525000D02*
X122695225Y-100525000D01*
X122445225Y-100275000D02*
X122445225Y-100775000D01*
X125000000Y-99420000D02*
X125000000Y-100960000D01*
X125000000Y-103040000D02*
X125000000Y-104580000D01*
X125040000Y-99420000D02*
X125040000Y-100960000D01*
X125040000Y-103040000D02*
X125040000Y-104580000D01*
X125080000Y-99421000D02*
X125080000Y-100960000D01*
X125080000Y-103040000D02*
X125080000Y-104579000D01*
X125120000Y-99423000D02*
X125120000Y-100960000D01*
X125120000Y-103040000D02*
X125120000Y-104577000D01*
X125160000Y-99425000D02*
X125160000Y-100960000D01*
X125160000Y-103040000D02*
X125160000Y-104575000D01*
X125200000Y-99428000D02*
X125200000Y-100960000D01*
X125200000Y-103040000D02*
X125200000Y-104572000D01*
X125240000Y-99431000D02*
X125240000Y-100960000D01*
X125240000Y-103040000D02*
X125240000Y-104569000D01*
X125280000Y-99435000D02*
X125280000Y-100960000D01*
X125280000Y-103040000D02*
X125280000Y-104565000D01*
X125320000Y-99440000D02*
X125320000Y-100960000D01*
X125320000Y-103040000D02*
X125320000Y-104560000D01*
X125360000Y-99445000D02*
X125360000Y-100960000D01*
X125360000Y-103040000D02*
X125360000Y-104555000D01*
X125400000Y-99451000D02*
X125400000Y-100960000D01*
X125400000Y-103040000D02*
X125400000Y-104549000D01*
X125440000Y-99457000D02*
X125440000Y-100960000D01*
X125440000Y-103040000D02*
X125440000Y-104543000D01*
X125480000Y-99464000D02*
X125480000Y-100960000D01*
X125480000Y-103040000D02*
X125480000Y-104536000D01*
X125520000Y-99472000D02*
X125520000Y-100960000D01*
X125520000Y-103040000D02*
X125520000Y-104528000D01*
X125560000Y-99481000D02*
X125560000Y-100960000D01*
X125560000Y-103040000D02*
X125560000Y-104519000D01*
X125600000Y-99490000D02*
X125600000Y-100960000D01*
X125600000Y-103040000D02*
X125600000Y-104510000D01*
X125640000Y-99499000D02*
X125640000Y-100960000D01*
X125640000Y-103040000D02*
X125640000Y-104501000D01*
X125680000Y-99510000D02*
X125680000Y-100960000D01*
X125680000Y-103040000D02*
X125680000Y-104490000D01*
X125720000Y-99521000D02*
X125720000Y-100960000D01*
X125720000Y-103040000D02*
X125720000Y-104479000D01*
X125760000Y-99533000D02*
X125760000Y-100960000D01*
X125760000Y-103040000D02*
X125760000Y-104467000D01*
X125800000Y-99545000D02*
X125800000Y-100960000D01*
X125800000Y-103040000D02*
X125800000Y-104455000D01*
X125840000Y-99558000D02*
X125840000Y-100960000D01*
X125840000Y-103040000D02*
X125840000Y-104442000D01*
X125880000Y-99572000D02*
X125880000Y-100960000D01*
X125880000Y-103040000D02*
X125880000Y-104428000D01*
X125920000Y-99587000D02*
X125920000Y-100960000D01*
X125920000Y-103040000D02*
X125920000Y-104413000D01*
X125960000Y-99602000D02*
X125960000Y-100960000D01*
X125960000Y-103040000D02*
X125960000Y-104398000D01*
X126000000Y-99618000D02*
X126000000Y-100960000D01*
X126000000Y-103040000D02*
X126000000Y-104382000D01*
X126040000Y-99635000D02*
X126040000Y-100960000D01*
X126040000Y-103040000D02*
X126040000Y-104365000D01*
X126080000Y-99653000D02*
X126080000Y-100960000D01*
X126080000Y-103040000D02*
X126080000Y-104347000D01*
X126120000Y-99671000D02*
X126120000Y-100960000D01*
X126120000Y-103040000D02*
X126120000Y-104329000D01*
X126160000Y-99691000D02*
X126160000Y-100960000D01*
X126160000Y-103040000D02*
X126160000Y-104309000D01*
X126200000Y-99711000D02*
X126200000Y-100960000D01*
X126200000Y-103040000D02*
X126200000Y-104289000D01*
X126240000Y-99732000D02*
X126240000Y-100960000D01*
X126240000Y-103040000D02*
X126240000Y-104268000D01*
X126280000Y-99754000D02*
X126280000Y-100960000D01*
X126280000Y-103040000D02*
X126280000Y-104246000D01*
X126320000Y-99777000D02*
X126320000Y-100960000D01*
X126320000Y-103040000D02*
X126320000Y-104223000D01*
X126360000Y-99801000D02*
X126360000Y-100960000D01*
X126360000Y-103040000D02*
X126360000Y-104199000D01*
X126400000Y-99825000D02*
X126400000Y-100960000D01*
X126400000Y-103040000D02*
X126400000Y-104175000D01*
X126440000Y-99851000D02*
X126440000Y-100960000D01*
X126440000Y-103040000D02*
X126440000Y-104149000D01*
X126480000Y-99878000D02*
X126480000Y-100960000D01*
X126480000Y-103040000D02*
X126480000Y-104122000D01*
X126520000Y-99906000D02*
X126520000Y-100960000D01*
X126520000Y-103040000D02*
X126520000Y-104094000D01*
X126560000Y-99935000D02*
X126560000Y-100960000D01*
X126560000Y-103040000D02*
X126560000Y-104065000D01*
X126600000Y-99965000D02*
X126600000Y-100960000D01*
X126600000Y-103040000D02*
X126600000Y-104035000D01*
X126640000Y-99997000D02*
X126640000Y-100960000D01*
X126640000Y-103040000D02*
X126640000Y-104003000D01*
X126680000Y-100030000D02*
X126680000Y-100960000D01*
X126680000Y-103040000D02*
X126680000Y-103970000D01*
X126720000Y-100064000D02*
X126720000Y-100960000D01*
X126720000Y-103040000D02*
X126720000Y-103936000D01*
X126760000Y-100099000D02*
X126760000Y-100960000D01*
X126760000Y-103040000D02*
X126760000Y-103901000D01*
X126800000Y-100136000D02*
X126800000Y-100960000D01*
X126800000Y-103040000D02*
X126800000Y-103864000D01*
X126840000Y-100175000D02*
X126840000Y-100960000D01*
X126840000Y-103040000D02*
X126840000Y-103825000D01*
X126880000Y-100215000D02*
X126880000Y-100960000D01*
X126880000Y-103040000D02*
X126880000Y-103785000D01*
X126920000Y-100257000D02*
X126920000Y-100960000D01*
X126920000Y-103040000D02*
X126920000Y-103743000D01*
X126960000Y-100301000D02*
X126960000Y-100960000D01*
X126960000Y-103040000D02*
X126960000Y-103699000D01*
X127000000Y-100348000D02*
X127000000Y-100960000D01*
X127000000Y-103040000D02*
X127000000Y-103652000D01*
X127040000Y-100396000D02*
X127040000Y-103604000D01*
X127080000Y-100447000D02*
X127080000Y-103553000D01*
X127120000Y-100501000D02*
X127120000Y-103499000D01*
X127160000Y-100557000D02*
X127160000Y-103443000D01*
X127200000Y-100617000D02*
X127200000Y-103383000D01*
X127240000Y-100681000D02*
X127240000Y-103319000D01*
X127280000Y-100749000D02*
X127280000Y-103251000D01*
X127320000Y-100823000D02*
X127320000Y-103177000D01*
X127360000Y-100902000D02*
X127360000Y-103098000D01*
X127400000Y-100989000D02*
X127400000Y-103011000D01*
X127440000Y-101086000D02*
X127440000Y-102914000D01*
X127480000Y-101195000D02*
X127480000Y-102805000D01*
X127520000Y-101323000D02*
X127520000Y-102677000D01*
X127560000Y-101483000D02*
X127560000Y-102517000D01*
X127600000Y-101717000D02*
X127600000Y-102283000D01*
X127620000Y-102000000D02*
G75*
G02*
X122380000Y-102000000I-2620000J0D01*
G01*
X122380000Y-102000000D02*
G75*
G02*
X127620000Y-102000000I2620000J0D01*
G01*
%TO.C,R17*%
X176772936Y-90265000D02*
X177227064Y-90265000D01*
X176772936Y-91735000D02*
X177227064Y-91735000D01*
%TO.C,J17*%
X169620000Y-87620000D02*
X171000000Y-87620000D01*
X169620000Y-89000000D02*
X169620000Y-87620000D01*
X169620000Y-90270000D02*
X169620000Y-103080000D01*
X169620000Y-90270000D02*
X172380000Y-90270000D01*
X169620000Y-103080000D02*
X172380000Y-103080000D01*
X172380000Y-90270000D02*
X172380000Y-103080000D01*
%TO.C,FB3*%
X36837221Y-110490000D02*
X37162779Y-110490000D01*
X36837221Y-111510000D02*
X37162779Y-111510000D01*
%TO.C,R32*%
X178772936Y-80265000D02*
X179227064Y-80265000D01*
X178772936Y-81735000D02*
X179227064Y-81735000D01*
%TO.C,R14*%
X59772936Y-81265000D02*
X60227064Y-81265000D01*
X59772936Y-82735000D02*
X60227064Y-82735000D01*
%TO.C,C26*%
X145738748Y-81265000D02*
X146261252Y-81265000D01*
X145738748Y-82735000D02*
X146261252Y-82735000D01*
%TO.C,K2*%
X41320000Y-90690000D02*
X62460000Y-90690000D01*
X41320000Y-101690000D02*
X41320000Y-90690000D01*
X41320000Y-101690000D02*
X62460000Y-101690000D01*
X44270000Y-100000000D02*
X45540000Y-100000000D01*
X45030000Y-95170000D02*
X45540000Y-95170000D01*
X45030000Y-96950000D02*
X46050000Y-95940000D01*
X45030000Y-97710000D02*
X45030000Y-95170000D01*
X45540000Y-92380000D02*
X44270000Y-92380000D01*
X45540000Y-95170000D02*
X45540000Y-92380000D01*
X45540000Y-95170000D02*
X46050000Y-95170000D01*
X45540000Y-97710000D02*
X45030000Y-97710000D01*
X45540000Y-100000000D02*
X45540000Y-97710000D01*
X46050000Y-95170000D02*
X46050000Y-97710000D01*
X46050000Y-97710000D02*
X45540000Y-97710000D01*
X53160000Y-96190000D02*
X56335000Y-96190000D01*
X53160000Y-98730000D02*
X53160000Y-96190000D01*
X56335000Y-96190000D02*
X60145000Y-93650000D01*
X58240000Y-93650000D02*
X58240000Y-94920000D01*
X60780000Y-98730000D02*
X60780000Y-96190000D01*
X62460000Y-101690000D02*
X62460000Y-90690000D01*
X56462000Y-96190000D02*
G75*
G02*
X56208000Y-96190000I-127000J0D01*
G01*
X56208000Y-96190000D02*
G75*
G02*
X56462000Y-96190000I127000J0D01*
G01*
%TO.C,C34*%
X36859420Y-134490000D02*
X37140580Y-134490000D01*
X36859420Y-135510000D02*
X37140580Y-135510000D01*
%TO.C,R45*%
X17846359Y-85620000D02*
X18153641Y-85620000D01*
X17846359Y-86380000D02*
X18153641Y-86380000D01*
%TO.C,R46*%
X171846359Y-127620000D02*
X172153641Y-127620000D01*
X171846359Y-128380000D02*
X172153641Y-128380000D01*
%TO.C,R30*%
X59772936Y-77265000D02*
X60227064Y-77265000D01*
X59772936Y-78735000D02*
X60227064Y-78735000D01*
%TO.C,U5*%
X127090000Y-53440000D02*
X128910000Y-53440000D01*
X127090000Y-53490000D02*
X127090000Y-53440000D01*
X127090000Y-56560000D02*
X127090000Y-56510000D01*
X128910000Y-53440000D02*
X128910000Y-53490000D01*
X128910000Y-54610000D02*
X128910000Y-55390000D01*
X128910000Y-56510000D02*
X128910000Y-56560000D01*
X128910000Y-56560000D02*
X127090000Y-56560000D01*
X126550000Y-53490000D02*
X126310000Y-53160000D01*
X126790000Y-53160000D01*
X126550000Y-53490000D01*
G36*
X126550000Y-53490000D02*
G01*
X126310000Y-53160000D01*
X126790000Y-53160000D01*
X126550000Y-53490000D01*
G37*
%TO.C,C92*%
X143859420Y-12490000D02*
X144140580Y-12490000D01*
X143859420Y-13510000D02*
X144140580Y-13510000D01*
%TD*%
M02*
