%TF.GenerationSoftware,KiCad,Pcbnew,10.0.3*%
%TF.CreationDate,2026-06-03T05:27:32+02:00*%
%TF.ProjectId,quantum_mind_uwb_rtls_anchor_v3_0,7175616e-7475-46d5-9f6d-696e645f7577,rev?*%
%TF.SameCoordinates,Original*%
%TF.FileFunction,Copper,L2,Inr*%
%TF.FilePolarity,Positive*%
%FSLAX46Y46*%
G04 Gerber Fmt 4.6, Leading zero omitted, Abs format (unit mm)*
G04 Created by KiCad (PCBNEW 10.0.3) date 2026-06-03 05:27:32*
%MOMM*%
%LPD*%
G01*
G04 APERTURE LIST*
G04 Aperture macros list*
%AMRoundRect*
0 Rectangle with rounded corners*
0 $1 Rounding radius*
0 $2 $3 $4 $5 $6 $7 $8 $9 X,Y pos of 4 corners*
0 Add a 4 corners polygon primitive as box body*
4,1,4,$2,$3,$4,$5,$6,$7,$8,$9,$2,$3,0*
0 Add four circle primitives for the rounded corners*
1,1,$1+$1,$2,$3*
1,1,$1+$1,$4,$5*
1,1,$1+$1,$6,$7*
1,1,$1+$1,$8,$9*
0 Add four rect primitives between the rounded corners*
20,1,$1+$1,$2,$3,$4,$5,0*
20,1,$1+$1,$4,$5,$6,$7,0*
20,1,$1+$1,$6,$7,$8,$9,0*
20,1,$1+$1,$8,$9,$2,$3,0*%
G04 Aperture macros list end*
%TA.AperFunction,ComponentPad*%
%ADD10R,1.700000X1.700000*%
%TD*%
%TA.AperFunction,ComponentPad*%
%ADD11C,1.700000*%
%TD*%
%TA.AperFunction,ComponentPad*%
%ADD12RoundRect,0.250000X-1.050000X-1.050000X1.050000X-1.050000X1.050000X1.050000X-1.050000X1.050000X0*%
%TD*%
%TA.AperFunction,ComponentPad*%
%ADD13C,2.600000*%
%TD*%
%TA.AperFunction,ComponentPad*%
%ADD14RoundRect,0.250500X-0.499500X-0.499500X0.499500X-0.499500X0.499500X0.499500X-0.499500X0.499500X0*%
%TD*%
%TA.AperFunction,ComponentPad*%
%ADD15C,1.500000*%
%TD*%
%TA.AperFunction,ComponentPad*%
%ADD16C,2.500000*%
%TD*%
%TA.AperFunction,ComponentPad*%
%ADD17O,1.000000X2.100000*%
%TD*%
%TA.AperFunction,ComponentPad*%
%ADD18O,1.000000X1.600000*%
%TD*%
%TA.AperFunction,ComponentPad*%
%ADD19RoundRect,0.250000X-0.550000X-0.550000X0.550000X-0.550000X0.550000X0.550000X-0.550000X0.550000X0*%
%TD*%
%TA.AperFunction,ComponentPad*%
%ADD20C,1.600000*%
%TD*%
%TA.AperFunction,ComponentPad*%
%ADD21C,1.800000*%
%TD*%
%TA.AperFunction,ComponentPad*%
%ADD22R,2.300000X2.300000*%
%TD*%
%TA.AperFunction,ComponentPad*%
%ADD23C,2.300000*%
%TD*%
%TA.AperFunction,ComponentPad*%
%ADD24C,2.050000*%
%TD*%
%TA.AperFunction,ComponentPad*%
%ADD25C,2.250000*%
%TD*%
%TA.AperFunction,ComponentPad*%
%ADD26RoundRect,0.250000X-0.750000X-0.900000X0.750000X-0.900000X0.750000X0.900000X-0.750000X0.900000X0*%
%TD*%
%TA.AperFunction,ComponentPad*%
%ADD27O,2.000000X2.300000*%
%TD*%
%TA.AperFunction,ComponentPad*%
%ADD28RoundRect,0.250001X-0.949999X-0.949999X0.949999X-0.949999X0.949999X0.949999X-0.949999X0.949999X0*%
%TD*%
%TA.AperFunction,ComponentPad*%
%ADD29C,2.400000*%
%TD*%
%TA.AperFunction,ComponentPad*%
%ADD30R,3.500000X3.500000*%
%TD*%
%TA.AperFunction,ComponentPad*%
%ADD31RoundRect,0.750000X-0.750000X-1.000000X0.750000X-1.000000X0.750000X1.000000X-0.750000X1.000000X0*%
%TD*%
%TA.AperFunction,ComponentPad*%
%ADD32RoundRect,0.875000X-0.875000X-0.875000X0.875000X-0.875000X0.875000X0.875000X-0.875000X0.875000X0*%
%TD*%
%TA.AperFunction,ViaPad*%
%ADD33C,0.450000*%
%TD*%
%TA.AperFunction,Conductor*%
%ADD34C,0.200000*%
%TD*%
G04 APERTURE END LIST*
D10*
%TO.N,NC_J10_1_75*%
%TO.C,J10*%
X140000000Y-93000000D03*
D11*
%TO.N,NC_J10_2_76*%
X140000000Y-95540000D03*
%TO.N,NC_J10_3_77*%
X140000000Y-98080000D03*
%TO.N,NC_J10_4_78*%
X140000000Y-100620000D03*
%TO.N,NC_J10_5_79*%
X140000000Y-103160000D03*
%TO.N,NC_J10_6_80*%
X140000000Y-105700000D03*
%TD*%
D12*
%TO.N,AC_L*%
%TO.C,J1_AC*%
X156000000Y-130000000D03*
D13*
%TO.N,AC_N*%
X161000000Y-130000000D03*
%TO.N,NC_J1_AC_3_128*%
X166000000Y-130000000D03*
%TD*%
D14*
%TO.N,NET_W5500_TX_P*%
%TO.C,J18*%
X76000000Y-116000000D03*
D15*
%TO.N,NET_W5500_TX_N*%
X77260000Y-113460000D03*
%TO.N,NET_W5500_RX_P*%
X78540000Y-116000000D03*
%TO.N,NC_J18_4_28*%
X79800000Y-113460000D03*
%TO.N,NC_J18_5_29*%
X81080000Y-116000000D03*
%TO.N,NET_W5500_RX_N*%
X82340000Y-113460000D03*
%TO.N,NC_J18_7_30*%
X83620000Y-116000000D03*
%TO.N,NC_J18_8_31*%
X84880000Y-113460000D03*
%TO.N,NC_J18_9_32*%
X73815000Y-127260000D03*
%TO.N,NC_J18_10_33*%
X76355000Y-127260000D03*
%TO.N,NC_J18_11_34*%
X84525000Y-127260000D03*
%TO.N,NC_J18_12_35*%
X87065000Y-127260000D03*
D16*
%TO.N,GND*%
X72695000Y-119310000D03*
%TO.N,NC_J18_SH_36*%
X88185000Y-119310000D03*
%TD*%
D10*
%TO.N,NC_J8_1_87*%
%TO.C,J8*%
X33000000Y-117000000D03*
D11*
%TO.N,NC_J8_2_88*%
X33000000Y-119540000D03*
%TO.N,NC_J8_3_89*%
X33000000Y-122080000D03*
%TO.N,NC_J8_4_90*%
X33000000Y-124620000D03*
%TO.N,NC_J8_5_91*%
X33000000Y-127160000D03*
%TO.N,NC_J8_6_92*%
X33000000Y-129700000D03*
%TD*%
D10*
%TO.N,5V_USB_FILTERED*%
%TO.C,SK1*%
X68000000Y-54000000D03*
D11*
%TO.N,GND*%
X68000000Y-56540000D03*
%TO.N,NET_ESP32_EN*%
X68000000Y-59080000D03*
%TO.N,NET_ESP32_GPIO4*%
X68000000Y-61620000D03*
%TO.N,NET_ESP32_GPIO5*%
X68000000Y-64160000D03*
%TO.N,NET_ESP32_GPIO6*%
X68000000Y-66700000D03*
%TO.N,NET_ESP32_GPIO7*%
X68000000Y-69240000D03*
%TO.N,NET_ESP32_EXT_TX*%
X68000000Y-71780000D03*
%TO.N,NET_ESP32_EXT_RX*%
X68000000Y-74320000D03*
%TO.N,GND*%
X68000000Y-76860000D03*
X68000000Y-79400000D03*
%TO.N,NET_ESP32_GPIO8*%
X68000000Y-81940000D03*
%TO.N,GND*%
X68000000Y-84480000D03*
X68000000Y-87020000D03*
%TO.N,NET_UART_RX*%
X68000000Y-89560000D03*
%TO.N,NET_UART_TX*%
X68000000Y-92100000D03*
%TO.N,NET_ESP32_GPIO1*%
X68000000Y-94640000D03*
%TO.N,NET_ESP32_GPIO2*%
X68000000Y-97180000D03*
%TO.N,NET_W5500_SPI2_CS*%
X68000000Y-99720000D03*
%TO.N,NET_W5500_SPI2_MISO*%
X68000000Y-102260000D03*
%TO.N,NET_W5500_SPI2_MOSI*%
X68000000Y-104800000D03*
%TO.N,NET_W5500_SPI2_CLK*%
X68000000Y-107340000D03*
%TD*%
D10*
%TO.N,5V_USB_FILTERED*%
%TO.C,SK2*%
X88320000Y-54000000D03*
D11*
%TO.N,GND*%
X88320000Y-56540000D03*
X88320000Y-59080000D03*
X88320000Y-61620000D03*
%TO.N,NET_ESP32_GPIO0*%
X88320000Y-64160000D03*
%TO.N,NET_ESP32_GPIO45*%
X88320000Y-66700000D03*
%TO.N,NET_W5500_INT*%
X88320000Y-69240000D03*
%TO.N,NET_W5500_RST*%
X88320000Y-71780000D03*
%TO.N,NET_I2C_SDA*%
X88320000Y-74320000D03*
%TO.N,NET_ESP32_IRQ*%
X88320000Y-76860000D03*
%TO.N,NET_ESP32_SPI_CS*%
X88320000Y-79400000D03*
%TO.N,NET_ESP32_SPI_MISO*%
X88320000Y-81940000D03*
%TO.N,NET_ESP32_SPI_MOSI*%
X88320000Y-84480000D03*
%TO.N,NET_ESP32_SPI_CLK*%
X88320000Y-87020000D03*
%TO.N,NET_ESP32_GPIO9*%
X88320000Y-89560000D03*
%TO.N,GND*%
X88320000Y-92100000D03*
X88320000Y-94640000D03*
X88320000Y-97180000D03*
X88320000Y-99720000D03*
X88320000Y-102260000D03*
X88320000Y-104800000D03*
X88320000Y-107340000D03*
%TD*%
D10*
%TO.N,NC_J13_1_57*%
%TO.C,J13*%
X188000000Y-108000000D03*
D11*
%TO.N,NC_J13_2_58*%
X188000000Y-110540000D03*
%TO.N,NC_J13_3_59*%
X188000000Y-113080000D03*
%TO.N,NC_J13_4_60*%
X188000000Y-115620000D03*
%TO.N,NC_J13_5_61*%
X188000000Y-118160000D03*
%TO.N,NC_J13_6_62*%
X188000000Y-120700000D03*
%TD*%
D17*
%TO.N,GND*%
%TO.C,J1_USB*%
X167680000Y-114870000D03*
D18*
%TO.N,NC_J1_USB_SH_125*%
X167680000Y-119050000D03*
D17*
%TO.N,NC_J1_USB_SH_126*%
X176320000Y-114870000D03*
D18*
%TO.N,NC_J1_USB_SH_127*%
X176320000Y-119050000D03*
%TD*%
D19*
%TO.N,NC_U12_1_207*%
%TO.C,U12*%
X75000000Y-104000000D03*
D20*
%TO.N,NC_U12_2_208*%
X75000000Y-106540000D03*
%TO.N,NC_U12_3_209*%
X82620000Y-106540000D03*
%TO.N,NC_U12_4_210*%
X82620000Y-104000000D03*
%TD*%
D21*
%TO.N,AC_L*%
%TO.C,RV1*%
X143000000Y-112000000D03*
%TO.N,AC_N*%
X150500000Y-114000000D03*
%TD*%
D22*
%TO.N,+5V_ISO*%
%TO.C,K1*%
X25000000Y-76000000D03*
D23*
%TO.N,NC_K1_2_206*%
X35160000Y-76000000D03*
%TO.N,NET_K1_NC*%
X42780000Y-76000000D03*
%TO.N,NET_K1_COM*%
X40240000Y-68380000D03*
%TO.N,NET_K1_NO*%
X25000000Y-68380000D03*
%TD*%
D10*
%TO.N,NC_J9_1_81*%
%TO.C,J9*%
X211000000Y-105000000D03*
D11*
%TO.N,NC_J9_2_82*%
X211000000Y-107540000D03*
%TO.N,NC_J9_3_83*%
X211000000Y-110080000D03*
%TO.N,NC_J9_4_84*%
X211000000Y-112620000D03*
%TO.N,NC_J9_5_85*%
X211000000Y-115160000D03*
%TO.N,NC_J9_6_86*%
X211000000Y-117700000D03*
%TD*%
D24*
%TO.N,NET_RF_UWB*%
%TO.C,ANT1*%
X188000000Y-130000000D03*
D25*
%TO.N,GND*%
X185460000Y-127460000D03*
%TO.N,NC_ANT1_2_5*%
X185460000Y-132540000D03*
%TO.N,NC_ANT1_2_6*%
X190540000Y-127460000D03*
%TO.N,NC_ANT1_2_7*%
X190540000Y-132540000D03*
%TD*%
D26*
%TO.N,AC_L*%
%TO.C,U3*%
X118000000Y-30000000D03*
D27*
%TO.N,AC_N*%
X118000000Y-37800000D03*
%TO.N,NC_U3_3_270*%
X160500000Y-22600000D03*
%TO.N,GND*%
X160500000Y-45200000D03*
%TD*%
D10*
%TO.N,NC_J7_1_93*%
%TO.C,J7*%
X8000000Y-108000000D03*
D11*
%TO.N,NC_J7_2_94*%
X8000000Y-110540000D03*
%TO.N,NC_J7_3_95*%
X8000000Y-113080000D03*
%TO.N,NC_J7_4_96*%
X8000000Y-115620000D03*
%TO.N,NC_J7_5_97*%
X8000000Y-118160000D03*
%TO.N,NC_J7_6_98*%
X8000000Y-120700000D03*
%TD*%
D28*
%TO.N,NC_J5_1_109*%
%TO.C,J5*%
X125000000Y-111000000D03*
D29*
%TO.N,NC_J5_2_110*%
X128500000Y-111000000D03*
%TO.N,NC_J5_3_111*%
X132000000Y-111000000D03*
%TD*%
D28*
%TO.N,NC_J4_1_112*%
%TO.C,J4*%
X109000000Y-111000000D03*
D29*
%TO.N,NC_J4_2_113*%
X112500000Y-111000000D03*
%TO.N,NC_J4_3_114*%
X116000000Y-111000000D03*
%TD*%
D30*
%TO.N,NC_J2_1_118*%
%TO.C,J2*%
X182000000Y-16000000D03*
D31*
%TO.N,GND*%
X176000000Y-16000000D03*
D32*
X179000000Y-20700000D03*
%TD*%
D19*
%TO.N,3V3_MAIN*%
%TO.C,C3*%
X108000000Y-102000000D03*
D20*
%TO.N,GND*%
X110000000Y-102000000D03*
%TD*%
D19*
%TO.N,5V_MAIN*%
%TO.C,C1*%
X64000000Y-132000000D03*
D20*
%TO.N,GND*%
X66000000Y-132000000D03*
%TD*%
D19*
%TO.N,5V_MAIN*%
%TO.C,C2*%
X125000000Y-87000000D03*
D20*
%TO.N,GND*%
X127000000Y-87000000D03*
%TD*%
D10*
%TO.N,NC_J6_1_99*%
%TO.C,J6*%
X160000000Y-108000000D03*
D11*
%TO.N,NC_J6_2_100*%
X160000000Y-110540000D03*
%TO.N,NC_J6_3_101*%
X160000000Y-113080000D03*
%TO.N,NC_J6_4_102*%
X160000000Y-115620000D03*
%TO.N,NC_J6_5_103*%
X160000000Y-118160000D03*
%TO.N,NC_J6_6_104*%
X160000000Y-120700000D03*
%TD*%
D23*
%TO.N,NC_J_FUSE_1_105*%
%TO.C,J_FUSE*%
X123000000Y-129000000D03*
%TO.N,NC_J_FUSE_1_106*%
X127600000Y-129000000D03*
%TO.N,NC_J_FUSE_2_107*%
X138900000Y-129000000D03*
%TO.N,NC_J_FUSE_2_108*%
X143500000Y-129000000D03*
%TD*%
D10*
%TO.N,NC_J15_1_49*%
%TO.C,J15*%
X133000000Y-95000000D03*
D11*
%TO.N,NC_J15_2_50*%
X133000000Y-97540000D03*
%TO.N,NC_J15_3_51*%
X133000000Y-100080000D03*
%TO.N,NC_J15_4_52*%
X133000000Y-102620000D03*
%TD*%
D10*
%TO.N,NC_J12_1_63*%
%TO.C,J12*%
X94000000Y-114000000D03*
D11*
%TO.N,NC_J12_2_64*%
X94000000Y-116540000D03*
%TO.N,NC_J12_3_65*%
X94000000Y-119080000D03*
%TO.N,NC_J12_4_66*%
X94000000Y-121620000D03*
%TO.N,NC_J12_5_67*%
X94000000Y-124160000D03*
%TO.N,NC_J12_6_68*%
X94000000Y-126700000D03*
%TD*%
D19*
%TO.N,NC_U11_1_211*%
%TO.C,U11*%
X44000000Y-107000000D03*
D20*
%TO.N,NC_U11_2_212*%
X44000000Y-109540000D03*
%TO.N,NC_U11_3_213*%
X51620000Y-109540000D03*
%TO.N,NC_U11_4_214*%
X51620000Y-107000000D03*
%TD*%
D10*
%TO.N,NC_J16_1_43*%
%TO.C,J16*%
X164000000Y-80000000D03*
D11*
%TO.N,NC_J16_2_44*%
X164000000Y-82540000D03*
%TO.N,NC_J16_3_45*%
X164000000Y-85080000D03*
%TO.N,NC_J16_4_46*%
X164000000Y-87620000D03*
%TO.N,NC_J16_5_47*%
X164000000Y-90160000D03*
%TO.N,NC_J16_6_48*%
X164000000Y-92700000D03*
%TD*%
D10*
%TO.N,NC_J11_1_69*%
%TO.C,J11*%
X156000000Y-87000000D03*
D11*
%TO.N,NC_J11_2_70*%
X156000000Y-89540000D03*
%TO.N,NC_J11_3_71*%
X156000000Y-92080000D03*
%TO.N,NC_J11_4_72*%
X156000000Y-94620000D03*
%TO.N,NC_J11_5_73*%
X156000000Y-97160000D03*
%TO.N,NC_J11_6_74*%
X156000000Y-99700000D03*
%TD*%
D10*
%TO.N,NC_J14_1_53*%
%TO.C,J14*%
X117000000Y-95000000D03*
D11*
%TO.N,NC_J14_2_54*%
X117000000Y-97540000D03*
%TO.N,NC_J14_3_55*%
X117000000Y-100080000D03*
%TO.N,NC_J14_4_56*%
X117000000Y-102620000D03*
%TD*%
D23*
%TO.N,FUSE_OUT_L*%
%TO.C,F1*%
X22000000Y-12000000D03*
%TO.N,NC_F1_1_197*%
X26600000Y-12000000D03*
%TO.N,NC_F1_2_198*%
X37900000Y-12000000D03*
%TO.N,NC_F1_2_199*%
X42500000Y-12000000D03*
%TD*%
D28*
%TO.N,NC_J3_1_115*%
%TO.C,J3*%
X12000000Y-129000000D03*
D29*
%TO.N,NC_J3_2_116*%
X15500000Y-129000000D03*
%TO.N,NC_J3_3_117*%
X19000000Y-129000000D03*
%TD*%
D19*
%TO.N,3V3_MAIN*%
%TO.C,C4*%
X124000000Y-102000000D03*
D20*
%TO.N,GND*%
X126000000Y-102000000D03*
%TD*%
D10*
%TO.N,NC_J17_1_37*%
%TO.C,J17*%
X171000000Y-89000000D03*
D11*
%TO.N,NC_J17_2_38*%
X171000000Y-91540000D03*
%TO.N,NC_J17_3_39*%
X171000000Y-94080000D03*
%TO.N,NC_J17_4_40*%
X171000000Y-96620000D03*
%TO.N,NC_J17_5_41*%
X171000000Y-99160000D03*
%TO.N,NC_J17_6_42*%
X171000000Y-101700000D03*
%TD*%
D22*
%TO.N,+5V_ISO*%
%TO.C,K2*%
X43000000Y-100000000D03*
D23*
%TO.N,NC_K2_2_205*%
X53160000Y-100000000D03*
%TO.N,NET_K2_NC*%
X60780000Y-100000000D03*
%TO.N,NET_K2_COM*%
X58240000Y-92380000D03*
%TO.N,NET_K2_NO*%
X43000000Y-92380000D03*
%TD*%
D33*
%TO.N,NET_ESP32_GPIO0*%
X160560500Y-68478600D03*
X196512500Y-120711300D03*
X129476700Y-67265900D03*
%TO.N,GND*%
X60273800Y-107078100D03*
X58174200Y-123409500D03*
X158156600Y-63368500D03*
X30381100Y-60367500D03*
X144536200Y-54421100D03*
X162633300Y-74991700D03*
X113775000Y-58098400D03*
X110607300Y-38844300D03*
X159527700Y-102000000D03*
X40840000Y-106369800D03*
X126842900Y-94479300D03*
%TO.N,NET_ESP32_GPIO8*%
X72240200Y-97190200D03*
%TO.N,NET_W5500_XTAL_IN*%
X71796200Y-86485300D03*
X59984900Y-111850000D03*
%TO.N,NET_ESP32_EN*%
X86137500Y-15647400D03*
X89421700Y-75010000D03*
X65291200Y-69115300D03*
X115000000Y-80788600D03*
X139889500Y-82198000D03*
X55854200Y-118958700D03*
X33598400Y-61306900D03*
X209551800Y-68501800D03*
X84160900Y-70798600D03*
%TO.N,3V3_MAIN*%
X101946600Y-94096100D03*
X193858000Y-96000000D03*
X30632800Y-90375800D03*
X117293400Y-75001600D03*
X113373500Y-82139800D03*
X193225000Y-82880700D03*
X135145400Y-75003200D03*
X104552700Y-54654100D03*
X87181300Y-14000000D03*
X152050000Y-118871200D03*
X129984100Y-54658400D03*
X70810400Y-95304100D03*
X176148400Y-126000000D03*
X60334500Y-79357600D03*
X153954200Y-101050000D03*
%TO.N,NET_U5_EN*%
X149560100Y-85548400D03*
X129137500Y-53350300D03*
X196912500Y-94902100D03*
%TO.N,NET_DWM3000_EXT_TX_1V8_SERIES*%
X143716700Y-96232500D03*
X11963800Y-80245000D03*
X63038100Y-72339400D03*
X71311600Y-94303700D03*
%TO.N,1V8_DWM*%
X146620500Y-57093100D03*
X126163400Y-56647500D03*
X208283600Y-127106400D03*
X149695000Y-123050800D03*
X81954400Y-78151700D03*
X106387800Y-78901500D03*
X207411800Y-92858900D03*
X159418700Y-74450700D03*
X161700300Y-94332300D03*
X76902900Y-13130400D03*
X149231600Y-94485600D03*
X83476100Y-93005300D03*
%TO.N,+1V8*%
X114992500Y-12767500D03*
X80879800Y-8878400D03*
X112225000Y-53446800D03*
%TO.N,NET_W5500_TX_P*%
X25576800Y-104791700D03*
X73575700Y-81091500D03*
%TO.N,+5V_ISO*%
X165746500Y-61874800D03*
X72393400Y-20000000D03*
X123630600Y-62069500D03*
X63888000Y-62017300D03*
X36372100Y-62556000D03*
%TO.N,NET_W5500_INT*%
X154286600Y-79199100D03*
%TO.N,NET_W5500_INTn*%
X150646100Y-106811000D03*
X156000000Y-80284000D03*
X30181000Y-100976600D03*
%TO.N,NET_ESP32_SPI_CS*%
X64186800Y-113342500D03*
X72735000Y-76777000D03*
%TO.N,NET_DWM3000_SPI_CS_3V3_SERIES*%
X58378400Y-25514300D03*
X55360400Y-112851800D03*
X66000000Y-113641700D03*
%TO.N,+3V3*%
X133390900Y-12799100D03*
X107395800Y-38844300D03*
X93897000Y-62672000D03*
X87691000Y-21126900D03*
X141375000Y-55000000D03*
X106632500Y-53931700D03*
%TO.N,NET_DWM3000_EXT_RX_1V8*%
X162807500Y-103649300D03*
X54791100Y-103380900D03*
X51473000Y-78648000D03*
%TO.N,NET_ESP32_SPI_CLK*%
X202161900Y-112282500D03*
%TO.N,NET_DWM3000_SPI_CLK_3V3_SERIES*%
X204022100Y-111605600D03*
X163248100Y-37048600D03*
X58400900Y-36618900D03*
%TO.N,NET_W5500_TX_N*%
X25813800Y-102435600D03*
X44999000Y-128581900D03*
X59542300Y-113988200D03*
%TO.N,NET_W5500_RX_P*%
X22690800Y-103250000D03*
X16866600Y-85577700D03*
%TO.N,NET_W5500_RX_N*%
X170822400Y-127860300D03*
X25152700Y-103441500D03*
%TO.N,NET_I2C_SCL*%
X108824800Y-72721400D03*
X86603700Y-89597200D03*
X15857800Y-100583600D03*
X171824100Y-85401300D03*
%TO.N,NET_ESP32_GPIO4*%
X144195000Y-106082600D03*
X134924600Y-70384700D03*
%TO.N,NET_ESP32_GPIO5*%
X175270800Y-90183300D03*
%TO.N,NET_ESP32_GPIO6*%
X60000000Y-85707200D03*
%TO.N,NET_ESP32_GPIO7*%
X92190600Y-134536500D03*
%TO.N,NET_ESP32_EXT_TX*%
X77454400Y-71780000D03*
X146078700Y-96223400D03*
X90783000Y-90186700D03*
%TO.N,NET_ESP32_EXT_RX*%
X99375000Y-80927100D03*
%TO.N,NET_ESP32_GPIO1*%
X26000000Y-86068300D03*
%TO.N,NET_ESP32_GPIO2*%
X106196600Y-82842700D03*
%TO.N,NET_W5500_SPI2_CS*%
X33282400Y-101250000D03*
%TO.N,NET_W5500_SPI2_MISO*%
X33298600Y-102250000D03*
%TO.N,NET_W5500_SPI2_MOSI*%
X34380300Y-103321300D03*
%TO.N,NET_W5500_SPI2_CLK*%
X33885400Y-102522000D03*
%TO.N,NET_U12_COLLECTOR*%
X192187900Y-105606300D03*
X165183700Y-61342100D03*
%TO.N,NET_DWM3000_SPI_MOSI_3V3_SERIES*%
X58411500Y-32836900D03*
X82483700Y-32836900D03*
X100000000Y-87803100D03*
%TO.N,NET_DWM3000_SPI_MISO_3V3_SERIES*%
X188000000Y-102911000D03*
X58400900Y-32168100D03*
X134105500Y-32168100D03*
%TO.N,NET_W5500_nRESET*%
X128764200Y-96366400D03*
X133995200Y-86073100D03*
X31291300Y-99837500D03*
%TO.N,NET_W5500_REGD*%
X207142800Y-122937800D03*
X26750000Y-100958000D03*
%TO.N,NET_ESP32_GPIO45*%
X84901600Y-17299800D03*
X65213700Y-77638100D03*
%TO.N,NET_W5500_RST*%
X132173400Y-85576100D03*
X107823400Y-85577700D03*
%TO.N,NET_I2C_SDA*%
X191832200Y-96635000D03*
X15846200Y-102671500D03*
X29492000Y-76944400D03*
X183686000Y-64121300D03*
X102000000Y-64121300D03*
%TO.N,NET_ESP32_IRQ*%
X79209000Y-15163100D03*
%TO.N,NET_ESP32_SPI_MISO*%
X186159800Y-102534400D03*
%TO.N,NET_ESP32_GPIO9*%
X53198100Y-74857800D03*
%TO.N,NET_U4_COMP*%
X187150500Y-81130500D03*
X173333400Y-26985000D03*
X71850000Y-14788800D03*
%TO.N,NET_U11_COLLECTOR*%
X181262700Y-60847300D03*
X194180700Y-87803100D03*
X116205900Y-60847300D03*
%TO.N,NET_USB_D_P*%
X172684400Y-115068200D03*
X150999900Y-88101700D03*
%TO.N,NET_USB_D_N*%
X151011300Y-90716900D03*
X171116400Y-115070200D03*
%TO.N,NET_U4_SW*%
X69113900Y-12095000D03*
X41600900Y-120000000D03*
X40335700Y-62482400D03*
%TO.N,NET_U8_DELAY*%
X187119000Y-84913500D03*
X173970900Y-27494800D03*
X81915500Y-15132000D03*
%TO.N,NET_DWM3000_RSTN_1V65*%
X55563500Y-106790700D03*
X54818200Y-74869300D03*
X212411400Y-134536500D03*
%TO.N,NET_USB_RTS*%
X165565700Y-67970000D03*
X177190000Y-81126900D03*
X74201200Y-67050000D03*
%TO.N,NET_USB_DTR*%
X32180200Y-61048900D03*
X43965600Y-88409500D03*
X73601500Y-89585100D03*
%TD*%
%TO.N,NET_ESP32_GPIO0*%
D34*
X189395000Y-102298100D02*
X163981400Y-76884500D01*
X189395000Y-113593800D02*
X189395000Y-102298100D01*
X196512500Y-120711300D02*
X189395000Y-113593800D01*
X163981400Y-76884500D02*
X163981400Y-71899500D01*
X163981400Y-71899500D02*
X160560500Y-68478600D01*
%TO.N,GND*%
X179000000Y-20700000D02*
X178922700Y-20700000D01*
X88320000Y-102260000D02*
X88320000Y-99720000D01*
X88320000Y-59080000D02*
X88320000Y-56540000D01*
X149209200Y-54421100D02*
X144536200Y-54421100D01*
X159248300Y-62276800D02*
X158156600Y-63368500D01*
X88320000Y-61620000D02*
X88320000Y-59080000D01*
X66000000Y-126005000D02*
X60769700Y-126005000D01*
X60462500Y-121121200D02*
X60462500Y-107266800D01*
X68455100Y-67846100D02*
X67783900Y-67846100D01*
X158156600Y-70515000D02*
X162633300Y-74991700D01*
X60462500Y-107266800D02*
X60273800Y-107078100D01*
X69130900Y-67170300D02*
X68455100Y-67846100D01*
X161751700Y-37871000D02*
X161751700Y-45200000D01*
X68000000Y-79400000D02*
X68000000Y-76860000D01*
X66000000Y-132000000D02*
X66000000Y-126005000D01*
X167680000Y-116171700D02*
X178968300Y-127460000D01*
X126842900Y-87157100D02*
X127000000Y-87000000D01*
X160500000Y-45200000D02*
X159248300Y-45200000D01*
X110607300Y-38844300D02*
X110607300Y-54930700D01*
X88320000Y-94640000D02*
X88320000Y-92100000D01*
X167680000Y-110152300D02*
X159527700Y-102000000D01*
X69130900Y-57670900D02*
X69130900Y-67170300D01*
X126000000Y-102000000D02*
X126000000Y-95322200D01*
X66830200Y-83310200D02*
X66830200Y-80569800D01*
X158156600Y-63368500D02*
X149209200Y-54421100D01*
X126842900Y-94479300D02*
X126842900Y-87157100D01*
X167680000Y-114870000D02*
X167680000Y-116171700D01*
X167680000Y-114870000D02*
X167680000Y-110152300D01*
X178922700Y-20700000D02*
X161751700Y-37871000D01*
X158156600Y-63368500D02*
X158156600Y-70515000D01*
X66866100Y-75726100D02*
X68000000Y-76860000D01*
X66000000Y-126005000D02*
X72695000Y-119310000D01*
X88320000Y-97180000D02*
X88320000Y-94640000D01*
X60769700Y-126005000D02*
X58174200Y-123409500D01*
X160500000Y-45200000D02*
X161751700Y-45200000D01*
X88320000Y-99720000D02*
X88320000Y-97180000D01*
X178968300Y-127460000D02*
X185460000Y-127460000D01*
X68000000Y-84480000D02*
X66830200Y-83310200D01*
X67783900Y-67846100D02*
X66866100Y-68763900D01*
X88320000Y-107340000D02*
X88320000Y-104800000D01*
X126000000Y-95322200D02*
X126842900Y-94479300D01*
X66830200Y-80569800D02*
X68000000Y-79400000D01*
X66866100Y-68763900D02*
X66866100Y-75726100D01*
X179000000Y-20700000D02*
X176000000Y-17700000D01*
X176000000Y-17700000D02*
X176000000Y-16000000D01*
X110607300Y-54930700D02*
X113775000Y-58098400D01*
X159248300Y-45200000D02*
X159248300Y-62276800D01*
X68000000Y-56540000D02*
X69130900Y-57670900D01*
X88320000Y-104800000D02*
X88320000Y-102260000D01*
X58174200Y-123409500D02*
X60462500Y-121121200D01*
X68000000Y-87020000D02*
X68000000Y-84480000D01*
%TO.N,NET_ESP32_GPIO8*%
X72273000Y-86213000D02*
X72273000Y-97157400D01*
X68000000Y-81940000D02*
X72273000Y-86213000D01*
X72273000Y-97157400D02*
X72240200Y-97190200D01*
%TO.N,NET_W5500_XTAL_IN*%
X59797100Y-111662200D02*
X59984900Y-111850000D01*
X67703100Y-98450000D02*
X59797100Y-106356000D01*
X71796200Y-86485300D02*
X71796200Y-95014600D01*
X71796200Y-95014600D02*
X68360800Y-98450000D01*
X68360800Y-98450000D02*
X67703100Y-98450000D01*
X59797100Y-106356000D02*
X59797100Y-111662200D01*
%TO.N,NET_ESP32_EN*%
X55854200Y-108231900D02*
X56205900Y-107880200D01*
X65187500Y-61892500D02*
X68000000Y-59080000D01*
X65187500Y-69011600D02*
X65187500Y-61892500D01*
X84160900Y-17366500D02*
X84160900Y-70798600D01*
X65291200Y-69115300D02*
X65187600Y-69011600D01*
X55854200Y-118958700D02*
X55854200Y-108231900D01*
X85880000Y-15647400D02*
X84160900Y-17366500D01*
X56205900Y-77993300D02*
X65187600Y-69011600D01*
X56205900Y-107880200D02*
X56205900Y-77993300D01*
X86137500Y-15647400D02*
X85880000Y-15647400D01*
X65187600Y-69011600D02*
X65187500Y-69011600D01*
%TO.N,3V3_MAIN*%
X159178800Y-126000000D02*
X176148400Y-126000000D01*
X67707000Y-93370000D02*
X68876300Y-93370000D01*
X153954200Y-101050000D02*
X152050000Y-102954200D01*
X129984100Y-69841900D02*
X129984100Y-54658400D01*
X152050000Y-118871200D02*
X159178800Y-126000000D01*
X62687900Y-81711000D02*
X62687900Y-88350900D01*
X193225000Y-95367000D02*
X193225000Y-82880700D01*
X113373500Y-78921500D02*
X117293400Y-75001600D01*
X60334500Y-79357600D02*
X62687900Y-81711000D01*
X87181300Y-14000000D02*
X87181300Y-37282700D01*
X62687900Y-88350900D02*
X67707000Y-93370000D01*
X193858000Y-96000000D02*
X193225000Y-95367000D01*
X108000000Y-87513300D02*
X113373500Y-82139800D01*
X108000000Y-94096100D02*
X108000000Y-87513300D01*
X108000000Y-94096100D02*
X101946600Y-94096100D01*
X135145400Y-75003200D02*
X129984100Y-69841900D01*
X113373500Y-82139800D02*
X113373500Y-78921500D01*
X87181300Y-37282700D02*
X104552700Y-54654100D01*
X152050000Y-102954200D02*
X152050000Y-118871200D01*
X68876300Y-93370000D02*
X70810400Y-95304100D01*
X108000000Y-94096100D02*
X108000000Y-102000000D01*
%TO.N,NET_U5_EN*%
X129137500Y-53350300D02*
X129354400Y-53350300D01*
X129354400Y-53350300D02*
X149560100Y-73556000D01*
X149560100Y-73556000D02*
X149560100Y-85548400D01*
%TO.N,NET_DWM3000_EXT_TX_1V8_SERIES*%
X63038100Y-72339400D02*
X63039600Y-72340900D01*
X63039600Y-86214100D02*
X67655500Y-90830000D01*
X67655500Y-90830000D02*
X68290000Y-90830000D01*
X71311600Y-93851600D02*
X71311600Y-94303700D01*
X63039600Y-72340900D02*
X63039600Y-86214100D01*
X68290000Y-90830000D02*
X71311600Y-93851600D01*
%TO.N,1V8_DWM*%
X146620500Y-61652500D02*
X146620500Y-57093100D01*
X159418700Y-74450700D02*
X146620500Y-61652500D01*
X76902900Y-73100200D02*
X76902900Y-13130400D01*
X106387800Y-76423100D02*
X126163400Y-56647500D01*
X149695000Y-123050800D02*
X149231600Y-122587400D01*
X106387800Y-78901500D02*
X106387800Y-76423100D01*
X149231600Y-122587400D02*
X149231600Y-94485600D01*
X161700300Y-76732300D02*
X159418700Y-74450700D01*
X207411800Y-92858900D02*
X208283600Y-93730700D01*
X81954400Y-91483600D02*
X81954400Y-78151700D01*
X208283600Y-93730700D02*
X208283600Y-127106400D01*
X83476100Y-93005300D02*
X81954400Y-91483600D01*
X161700300Y-94332300D02*
X161700300Y-76732300D01*
X81954400Y-78151700D02*
X76902900Y-73100200D01*
%TO.N,+1V8*%
X114992500Y-12767500D02*
X112225000Y-15535000D01*
X112225000Y-15535000D02*
X112225000Y-53446800D01*
%TO.N,NET_W5500_TX_P*%
X73152200Y-89810200D02*
X73067200Y-89725200D01*
X73152200Y-113152200D02*
X73152200Y-89810200D01*
X73067200Y-81600000D02*
X73575700Y-81091500D01*
X73067200Y-89725200D02*
X73067200Y-81600000D01*
X76000000Y-116000000D02*
X73152200Y-113152200D01*
%TO.N,+5V_ISO*%
X63888000Y-62017300D02*
X63888000Y-59022600D01*
X63888000Y-59022600D02*
X67764500Y-55146100D01*
X72393400Y-51662600D02*
X72393400Y-20000000D01*
X67764500Y-55146100D02*
X68909900Y-55146100D01*
X29973000Y-85571300D02*
X43000000Y-98598300D01*
X29973000Y-76000000D02*
X29973000Y-85571300D01*
X29973000Y-76000000D02*
X26401700Y-76000000D01*
X25000000Y-76000000D02*
X26401700Y-76000000D01*
X43000000Y-100000000D02*
X43000000Y-98598300D01*
X29973000Y-68955100D02*
X29973000Y-76000000D01*
X68909900Y-55146100D02*
X72393400Y-51662600D01*
X36372100Y-62556000D02*
X29973000Y-68955100D01*
%TO.N,NET_W5500_INTn*%
X156000000Y-80284000D02*
X150500000Y-85784000D01*
X150500000Y-106664900D02*
X150646100Y-106811000D01*
X150500000Y-85784000D02*
X150500000Y-106664900D01*
%TO.N,NET_ESP32_SPI_CS*%
X72800500Y-104728800D02*
X64186800Y-113342500D01*
X72715500Y-89870800D02*
X72800500Y-89955800D01*
X72735000Y-76777000D02*
X72715500Y-76796500D01*
X72800500Y-89955800D02*
X72800500Y-104728800D01*
X72715500Y-76796500D02*
X72715500Y-89870800D01*
%TO.N,NET_DWM3000_SPI_CS_3V3_SERIES*%
X54325700Y-29567000D02*
X54325700Y-81500600D01*
X55046000Y-104745000D02*
X55046000Y-112537400D01*
X58378400Y-25514300D02*
X54325700Y-29567000D01*
X55300900Y-82475800D02*
X55300900Y-104490100D01*
X55300900Y-104490100D02*
X55046000Y-104745000D01*
X55046000Y-112537400D02*
X55360400Y-112851800D01*
X54325700Y-81500600D02*
X55300900Y-82475800D01*
%TO.N,+3V3*%
X106632500Y-53931700D02*
X106300200Y-53599400D01*
X107395800Y-38844300D02*
X89678400Y-21126900D01*
X141375000Y-55000000D02*
X133390900Y-47015900D01*
X97227600Y-62672000D02*
X93897000Y-62672000D01*
X107395800Y-52503800D02*
X106300200Y-53599400D01*
X107395800Y-38844300D02*
X107395800Y-52503800D01*
X89678400Y-21126900D02*
X87691000Y-21126900D01*
X133390900Y-47015900D02*
X133390900Y-12799100D01*
X106300200Y-53599400D02*
X97227600Y-62672000D01*
%TO.N,NET_DWM3000_EXT_RX_1V8*%
X51473000Y-79876400D02*
X54791100Y-83194500D01*
X54791100Y-83194500D02*
X54791100Y-103380900D01*
X51473000Y-78648000D02*
X51473000Y-79876400D01*
%TO.N,NET_DWM3000_SPI_CLK_3V3_SERIES*%
X186518400Y-94101900D02*
X204022100Y-111605600D01*
X163248100Y-37048600D02*
X163248100Y-57900100D01*
X186518400Y-81170400D02*
X186518400Y-94101900D01*
X163248100Y-57900100D02*
X186518400Y-81170400D01*
%TO.N,AC_L*%
X143000000Y-112000000D02*
X143000000Y-117029800D01*
X116748300Y-31251700D02*
X116748300Y-42091400D01*
X116748300Y-42091400D02*
X126640200Y-51983300D01*
X155970200Y-130000000D02*
X156000000Y-130000000D01*
X118000000Y-30000000D02*
X116748300Y-31251700D01*
X143000000Y-117029800D02*
X155970200Y-130000000D01*
X143000000Y-93944000D02*
X143000000Y-112000000D01*
X126640200Y-77584200D02*
X143000000Y-93944000D01*
X126640200Y-51983300D02*
X126640200Y-77584200D01*
%TO.N,AC_N*%
X161000000Y-130000000D02*
X150500000Y-119500000D01*
X150148300Y-113648300D02*
X150500000Y-114000000D01*
X118000000Y-37800000D02*
X119251700Y-37800000D01*
X119251700Y-37800000D02*
X150148300Y-68696600D01*
X150148300Y-68696600D02*
X150148300Y-113648300D01*
X150500000Y-119500000D02*
X150500000Y-114000000D01*
%TO.N,NET_W5500_TX_N*%
X46961300Y-128581900D02*
X44999000Y-128581900D01*
X59542300Y-113988200D02*
X59542300Y-116000900D01*
X59542300Y-116000900D02*
X46961300Y-128581900D01*
%TO.N,NET_W5500_RX_P*%
X15750700Y-103250000D02*
X22690800Y-103250000D01*
X16866600Y-85577700D02*
X15317100Y-87127200D01*
X15317100Y-102816400D02*
X15750700Y-103250000D01*
X15317100Y-87127200D02*
X15317100Y-102816400D01*
%TO.N,NET_I2C_SCL*%
X87682400Y-90675900D02*
X103406500Y-90675900D01*
X86603700Y-89597200D02*
X87682400Y-90675900D01*
X108347100Y-85735300D02*
X108347100Y-83077800D01*
X105866700Y-75679500D02*
X108824800Y-72721400D01*
X105866700Y-80597400D02*
X105866700Y-75679500D01*
X103406500Y-90675900D02*
X108347100Y-85735300D01*
X108347100Y-83077800D02*
X105866700Y-80597400D01*
%TO.N,NET_ESP32_GPIO4*%
X144195000Y-79655100D02*
X144195000Y-106082600D01*
X134924600Y-70384700D02*
X144195000Y-79655100D01*
%TO.N,NET_ESP32_GPIO6*%
X59857800Y-85565000D02*
X60000000Y-85707200D01*
X59857800Y-74842200D02*
X59857800Y-85565000D01*
X68000000Y-67080600D02*
X65488600Y-69592000D01*
X65488600Y-69592000D02*
X65108000Y-69592000D01*
X65108000Y-69592000D02*
X59857800Y-74842200D01*
X68000000Y-66700000D02*
X68000000Y-67080600D01*
%TO.N,NET_ESP32_GPIO7*%
X82141300Y-134536500D02*
X75334200Y-127729400D01*
X74078200Y-89782500D02*
X74078200Y-75318200D01*
X75334200Y-127729400D02*
X75334200Y-126842200D01*
X73922100Y-89938600D02*
X74078200Y-89782500D01*
X74078200Y-75318200D02*
X68000000Y-69240000D01*
X92190600Y-134536500D02*
X82141300Y-134536500D01*
X75334200Y-126842200D02*
X77021000Y-125155400D01*
X77021000Y-115178200D02*
X73922100Y-112079300D01*
X73922100Y-112079300D02*
X73922100Y-89938600D01*
X77021000Y-125155400D02*
X77021000Y-115178200D01*
%TO.N,NET_ESP32_EXT_TX*%
X86567200Y-80892800D02*
X77454400Y-71780000D01*
X88886300Y-88290000D02*
X87976300Y-88290000D01*
X90783000Y-90186700D02*
X88886300Y-88290000D01*
X87976300Y-88290000D02*
X86567200Y-86880900D01*
X86567200Y-86880900D02*
X86567200Y-80892800D01*
%TO.N,NET_U12_COLLECTOR*%
X165089000Y-61436800D02*
X165183700Y-61342100D01*
X192187900Y-104593700D02*
X165089000Y-77494800D01*
X165089000Y-77494800D02*
X165089000Y-61436800D01*
X192187900Y-105606300D02*
X192187900Y-104593700D01*
%TO.N,NET_DWM3000_SPI_MOSI_3V3_SERIES*%
X88018600Y-78130000D02*
X90326900Y-78130000D01*
X82483700Y-32836900D02*
X82483700Y-72595100D01*
X90326900Y-78130000D02*
X100000000Y-87803100D01*
X82483700Y-72595100D02*
X88018600Y-78130000D01*
%TO.N,NET_DWM3000_SPI_MISO_3V3_SERIES*%
X147097300Y-61010700D02*
X171347400Y-85260800D01*
X171711200Y-85878000D02*
X188000000Y-102166800D01*
X171347400Y-85260800D02*
X171347400Y-85598600D01*
X147097300Y-56864700D02*
X147097300Y-61010700D01*
X146015500Y-55782900D02*
X147097300Y-56864700D01*
X134105500Y-44714400D02*
X145174000Y-55782900D01*
X145174000Y-55782900D02*
X146015500Y-55782900D01*
X134105500Y-32168100D02*
X134105500Y-44714400D01*
X171626800Y-85878000D02*
X171711200Y-85878000D01*
X188000000Y-102166800D02*
X188000000Y-102911000D01*
X171347400Y-85598600D02*
X171626800Y-85878000D01*
%TO.N,NET_W5500_nRESET*%
X133995200Y-86073100D02*
X133995200Y-91135400D01*
X133995200Y-91135400D02*
X128764200Y-96366400D01*
%TO.N,NET_ESP32_GPIO45*%
X84901600Y-17299800D02*
X84901600Y-63281600D01*
X84901600Y-63281600D02*
X88320000Y-66700000D01*
%TO.N,NET_W5500_RST*%
X88320000Y-71780000D02*
X87185200Y-72914800D01*
X97865700Y-75620000D02*
X107823400Y-85577700D01*
X87185200Y-72914800D02*
X87185200Y-74845900D01*
X87959300Y-75620000D02*
X97865700Y-75620000D01*
X87185200Y-74845900D02*
X87959300Y-75620000D01*
%TO.N,NET_I2C_SDA*%
X98518700Y-64121300D02*
X102000000Y-64121300D01*
X88320000Y-74320000D02*
X98518700Y-64121300D01*
X191832200Y-72267500D02*
X183686000Y-64121300D01*
X29492000Y-89025700D02*
X15846200Y-102671500D01*
X191832200Y-96635000D02*
X191832200Y-72267500D01*
X29492000Y-76944400D02*
X29492000Y-89025700D01*
%TO.N,NET_ESP32_IRQ*%
X88320000Y-76860000D02*
X83571700Y-72111700D01*
X83571700Y-19525800D02*
X79209000Y-15163100D01*
X83571700Y-72111700D02*
X83571700Y-19525800D01*
%TO.N,NET_U4_COMP*%
X187150500Y-81130500D02*
X173333400Y-67313400D01*
X173333400Y-67313400D02*
X173333400Y-26985000D01*
%TO.N,NET_U11_COLLECTOR*%
X194180700Y-73765300D02*
X181262700Y-60847300D01*
X194180700Y-87803100D02*
X194180700Y-73765300D01*
%TO.N,NET_USB_D_P*%
X172683200Y-115067000D02*
X172684400Y-115068200D01*
X157175400Y-89144600D02*
X157175400Y-90485600D01*
X172683100Y-105993300D02*
X172683100Y-115067000D01*
X156132500Y-88101700D02*
X157175400Y-89144600D01*
X150999900Y-88101700D02*
X156132500Y-88101700D01*
X172683100Y-115067000D02*
X172683200Y-115067000D01*
X157175400Y-90485600D02*
X172683100Y-105993300D01*
%TO.N,NET_USB_D_N*%
X171116400Y-115070200D02*
X171116400Y-105625900D01*
X156207400Y-90716900D02*
X151011300Y-90716900D01*
X171116400Y-105625900D02*
X156207400Y-90716900D01*
%TO.N,NET_U4_SW*%
X41641700Y-74688300D02*
X41641700Y-63788400D01*
X40335700Y-40873200D02*
X69113900Y-12095000D01*
X41600900Y-104250300D02*
X44442300Y-101408900D01*
X40335700Y-62482400D02*
X40335700Y-40873200D01*
X44442300Y-101408900D02*
X44442300Y-79661600D01*
X41372500Y-76591800D02*
X41372500Y-74957500D01*
X41372500Y-74957500D02*
X41641700Y-74688300D01*
X44442300Y-79661600D02*
X41372500Y-76591800D01*
X41600900Y-120000000D02*
X41600900Y-104250300D01*
X41641700Y-63788400D02*
X40335700Y-62482400D01*
%TO.N,NET_U8_DELAY*%
X173970900Y-60827200D02*
X173970900Y-27494800D01*
X187119000Y-84913500D02*
X187693300Y-84339200D01*
X187693300Y-74549600D02*
X173970900Y-60827200D01*
X187693300Y-84339200D02*
X187693300Y-74549600D01*
%TO.N,NET_DWM3000_RSTN_1V65*%
X55563500Y-106790700D02*
X55709000Y-106645200D01*
X55709000Y-106645200D02*
X55709000Y-75760100D01*
X55709000Y-75760100D02*
X54818200Y-74869300D01*
%TO.N,NET_USB_RTS*%
X177190000Y-79594300D02*
X165565700Y-67970000D01*
X177190000Y-81126900D02*
X177190000Y-79594300D01*
%TO.N,NET_USB_DTR*%
X36884300Y-62368600D02*
X36884300Y-81328200D01*
X36884300Y-81328200D02*
X43965600Y-88409500D01*
X36299400Y-61783700D02*
X36884300Y-62368600D01*
X32915000Y-61783700D02*
X36299400Y-61783700D01*
X32180200Y-61048900D02*
X32915000Y-61783700D01*
%TO.N,5V_MAIN*%
X97461700Y-118013200D02*
X97461700Y-129970300D01*
X92375300Y-135056700D02*
X67056700Y-135056700D01*
X117454500Y-98645400D02*
X116829500Y-98645400D01*
X67056700Y-135056700D02*
X64000000Y-132000000D01*
X125000000Y-87000000D02*
X125000000Y-91099900D01*
X116829500Y-98645400D02*
X97461700Y-118013200D01*
X125000000Y-91099900D02*
X117454500Y-98645400D01*
X97461700Y-129970300D02*
X92375300Y-135056700D01*
%TD*%
%TA.AperFunction,Conductor*%
%TO.N,GND*%
G36*
X39978239Y-48019685D02*
G01*
X40023994Y-48072489D01*
X40035200Y-48124000D01*
X40035200Y-62129790D01*
X40015515Y-62196829D01*
X39998881Y-62217471D01*
X39995217Y-62221134D01*
X39995213Y-62221140D01*
X39939198Y-62318160D01*
X39939197Y-62318163D01*
X39910200Y-62426382D01*
X39910200Y-62538418D01*
X39939197Y-62646637D01*
X39995215Y-62743663D01*
X40074437Y-62822885D01*
X40171463Y-62878903D01*
X40279682Y-62907900D01*
X40284867Y-62907900D01*
X40351906Y-62927585D01*
X40372548Y-62944219D01*
X41304881Y-63876552D01*
X41338366Y-63937875D01*
X41341200Y-63964233D01*
X41341200Y-67271942D01*
X41321515Y-67338981D01*
X41268711Y-67384736D01*
X41199553Y-67394680D01*
X41135997Y-67365655D01*
X41129519Y-67359623D01*
X41119786Y-67349890D01*
X40947820Y-67224951D01*
X40758414Y-67128444D01*
X40758413Y-67128443D01*
X40758412Y-67128443D01*
X40556243Y-67062754D01*
X40556241Y-67062753D01*
X40556240Y-67062753D01*
X40394957Y-67037208D01*
X40346287Y-67029500D01*
X40133713Y-67029500D01*
X40085042Y-67037208D01*
X39923760Y-67062753D01*
X39721585Y-67128444D01*
X39532179Y-67224951D01*
X39360213Y-67349890D01*
X39209890Y-67500213D01*
X39084951Y-67672179D01*
X38988444Y-67861585D01*
X38922753Y-68063760D01*
X38889500Y-68273713D01*
X38889500Y-68486286D01*
X38917964Y-68666005D01*
X38922754Y-68696243D01*
X38984809Y-68887229D01*
X38988444Y-68898414D01*
X39084951Y-69087820D01*
X39209890Y-69259786D01*
X39360213Y-69410109D01*
X39532179Y-69535048D01*
X39532181Y-69535049D01*
X39532184Y-69535051D01*
X39721588Y-69631557D01*
X39923757Y-69697246D01*
X40133713Y-69730500D01*
X40133714Y-69730500D01*
X40346286Y-69730500D01*
X40346287Y-69730500D01*
X40556243Y-69697246D01*
X40758412Y-69631557D01*
X40947816Y-69535051D01*
X41012497Y-69488058D01*
X41119786Y-69410109D01*
X41119788Y-69410106D01*
X41119792Y-69410104D01*
X41129519Y-69400377D01*
X41190842Y-69366892D01*
X41260534Y-69371876D01*
X41316467Y-69413748D01*
X41340884Y-69479212D01*
X41341200Y-69488058D01*
X41341200Y-74512467D01*
X41321515Y-74579506D01*
X41304881Y-74600148D01*
X41132041Y-74772987D01*
X41132035Y-74772995D01*
X41092482Y-74841504D01*
X41092479Y-74841509D01*
X41086422Y-74864114D01*
X41072000Y-74917938D01*
X41072000Y-76631362D01*
X41077056Y-76650229D01*
X41092479Y-76707790D01*
X41092480Y-76707791D01*
X41092495Y-76707817D01*
X41120855Y-76756938D01*
X41132040Y-76776311D01*
X41132042Y-76776313D01*
X44105481Y-79749752D01*
X44138966Y-79811075D01*
X44141800Y-79837433D01*
X44141800Y-87860000D01*
X44139249Y-87868685D01*
X44140538Y-87877647D01*
X44129559Y-87901687D01*
X44122115Y-87927039D01*
X44115274Y-87932966D01*
X44111513Y-87941203D01*
X44089278Y-87955492D01*
X44069311Y-87972794D01*
X44058796Y-87975081D01*
X44052735Y-87978977D01*
X44017800Y-87984000D01*
X44016433Y-87984000D01*
X43949394Y-87964315D01*
X43928752Y-87947681D01*
X37221119Y-81240048D01*
X37187634Y-81178725D01*
X37184800Y-81152367D01*
X37184800Y-62329040D01*
X37184799Y-62329033D01*
X37179688Y-62309959D01*
X37179688Y-62309960D01*
X37164322Y-62252612D01*
X37124760Y-62184089D01*
X36483911Y-61543240D01*
X36483910Y-61543239D01*
X36457564Y-61528029D01*
X36437656Y-61516535D01*
X36437654Y-61516533D01*
X36415392Y-61503680D01*
X36415391Y-61503679D01*
X36377175Y-61493439D01*
X36338962Y-61483200D01*
X36338960Y-61483200D01*
X34147900Y-61483200D01*
X34080861Y-61463515D01*
X34035106Y-61410711D01*
X34023900Y-61359200D01*
X34023900Y-61250884D01*
X34023900Y-61250882D01*
X33994903Y-61142663D01*
X33938885Y-61045637D01*
X33859663Y-60966415D01*
X33762637Y-60910397D01*
X33654418Y-60881400D01*
X33542382Y-60881400D01*
X33434163Y-60910397D01*
X33434160Y-60910398D01*
X33337140Y-60966413D01*
X33337134Y-60966417D01*
X33257917Y-61045634D01*
X33257913Y-61045640D01*
X33201898Y-61142660D01*
X33201897Y-61142663D01*
X33172900Y-61250882D01*
X33172900Y-61317267D01*
X33153215Y-61384306D01*
X33100411Y-61430061D01*
X33031253Y-61440005D01*
X32967697Y-61410980D01*
X32961219Y-61404948D01*
X32642019Y-61085748D01*
X32608534Y-61024425D01*
X32605700Y-60998067D01*
X32605700Y-60992884D01*
X32605700Y-60992882D01*
X32576703Y-60884663D01*
X32520685Y-60787637D01*
X32441463Y-60708415D01*
X32344437Y-60652397D01*
X32236218Y-60623400D01*
X32124182Y-60623400D01*
X32015963Y-60652397D01*
X32015960Y-60652398D01*
X31918940Y-60708413D01*
X31918934Y-60708417D01*
X31839717Y-60787634D01*
X31839713Y-60787640D01*
X31783698Y-60884660D01*
X31783697Y-60884663D01*
X31754700Y-60992882D01*
X31754700Y-61104918D01*
X31783697Y-61213137D01*
X31839715Y-61310163D01*
X31918937Y-61389385D01*
X32015963Y-61445403D01*
X32124182Y-61474400D01*
X32129367Y-61474400D01*
X32196406Y-61494085D01*
X32217048Y-61510719D01*
X32674540Y-61968211D01*
X32730489Y-62024160D01*
X32730491Y-62024161D01*
X32730495Y-62024164D01*
X32799004Y-62063717D01*
X32799011Y-62063721D01*
X32875438Y-62084200D01*
X32954562Y-62084200D01*
X35942790Y-62084200D01*
X36009829Y-62103885D01*
X36055584Y-62156689D01*
X36065528Y-62225847D01*
X36036503Y-62289403D01*
X36031987Y-62294252D01*
X36031613Y-62294740D01*
X35975598Y-62391760D01*
X35975597Y-62391763D01*
X35946600Y-62499982D01*
X35946600Y-62505167D01*
X35926915Y-62572206D01*
X35910281Y-62592848D01*
X29732541Y-68770587D01*
X29732535Y-68770595D01*
X29692982Y-68839104D01*
X29692979Y-68839109D01*
X29687701Y-68858807D01*
X29677089Y-68898414D01*
X29672500Y-68915539D01*
X29672500Y-75575500D01*
X29652815Y-75642539D01*
X29600011Y-75688294D01*
X29548500Y-75699500D01*
X26474500Y-75699500D01*
X26407461Y-75679815D01*
X26361706Y-75627011D01*
X26350500Y-75575500D01*
X26350500Y-74830249D01*
X26350499Y-74830247D01*
X26338868Y-74771770D01*
X26338867Y-74771769D01*
X26294552Y-74705447D01*
X26228230Y-74661132D01*
X26228229Y-74661131D01*
X26169752Y-74649500D01*
X26169748Y-74649500D01*
X23830252Y-74649500D01*
X23830247Y-74649500D01*
X23771770Y-74661131D01*
X23771769Y-74661132D01*
X23705447Y-74705447D01*
X23661132Y-74771769D01*
X23661131Y-74771770D01*
X23649500Y-74830247D01*
X23649500Y-77169752D01*
X23661131Y-77228229D01*
X23661132Y-77228230D01*
X23705447Y-77294552D01*
X23771769Y-77338867D01*
X23771770Y-77338868D01*
X23830247Y-77350499D01*
X23830250Y-77350500D01*
X23830252Y-77350500D01*
X26169750Y-77350500D01*
X26169751Y-77350499D01*
X26184568Y-77347552D01*
X26228229Y-77338868D01*
X26228229Y-77338867D01*
X26228231Y-77338867D01*
X26294552Y-77294552D01*
X26338867Y-77228231D01*
X26338867Y-77228229D01*
X26338868Y-77228229D01*
X26350499Y-77169752D01*
X26350500Y-77169750D01*
X26350500Y-76424500D01*
X26370185Y-76357461D01*
X26422989Y-76311706D01*
X26474500Y-76300500D01*
X29309189Y-76300500D01*
X29376228Y-76320185D01*
X29421983Y-76372989D01*
X29431927Y-76442147D01*
X29402902Y-76505703D01*
X29344124Y-76543477D01*
X29341311Y-76544266D01*
X29328980Y-76547571D01*
X29327763Y-76547897D01*
X29327760Y-76547898D01*
X29230740Y-76603913D01*
X29230734Y-76603917D01*
X29151517Y-76683134D01*
X29151513Y-76683140D01*
X29095498Y-76780160D01*
X29095497Y-76780163D01*
X29066500Y-76888382D01*
X29066500Y-77000418D01*
X29095497Y-77108637D01*
X29151515Y-77205663D01*
X29151517Y-77205665D01*
X29155181Y-77209329D01*
X29188666Y-77270652D01*
X29191500Y-77297010D01*
X29191500Y-88849867D01*
X29171815Y-88916906D01*
X29155181Y-88937548D01*
X19129048Y-98963681D01*
X19067725Y-98997166D01*
X19041367Y-99000000D01*
X15741600Y-99000000D01*
X15674561Y-98980315D01*
X15628806Y-98927511D01*
X15617600Y-98876000D01*
X15617600Y-87303033D01*
X15637285Y-87235994D01*
X15653919Y-87215352D01*
X16829752Y-86039519D01*
X16879633Y-86012282D01*
X25574500Y-86012282D01*
X25574500Y-86124318D01*
X25603497Y-86232537D01*
X25659515Y-86329563D01*
X25738737Y-86408785D01*
X25835763Y-86464803D01*
X25943982Y-86493800D01*
X25943984Y-86493800D01*
X26056016Y-86493800D01*
X26056018Y-86493800D01*
X26164237Y-86464803D01*
X26261263Y-86408785D01*
X26340485Y-86329563D01*
X26396503Y-86232537D01*
X26425500Y-86124318D01*
X26425500Y-86012282D01*
X26396503Y-85904063D01*
X26340485Y-85807037D01*
X26261263Y-85727815D01*
X26164237Y-85671797D01*
X26056018Y-85642800D01*
X25943982Y-85642800D01*
X25835763Y-85671797D01*
X25835760Y-85671798D01*
X25738740Y-85727813D01*
X25738734Y-85727817D01*
X25659517Y-85807034D01*
X25659513Y-85807040D01*
X25603498Y-85904060D01*
X25603497Y-85904063D01*
X25574500Y-86012282D01*
X16879633Y-86012282D01*
X16891075Y-86006034D01*
X16917433Y-86003200D01*
X16922616Y-86003200D01*
X16922618Y-86003200D01*
X17030837Y-85974203D01*
X17127863Y-85918185D01*
X17207085Y-85838963D01*
X17263103Y-85741937D01*
X17292100Y-85633718D01*
X17292100Y-85521682D01*
X17263103Y-85413463D01*
X17207085Y-85316437D01*
X17127863Y-85237215D01*
X17030837Y-85181197D01*
X16922618Y-85152200D01*
X16810582Y-85152200D01*
X16702363Y-85181197D01*
X16702360Y-85181198D01*
X16605340Y-85237213D01*
X16605334Y-85237217D01*
X16526117Y-85316434D01*
X16526113Y-85316440D01*
X16470098Y-85413460D01*
X16470097Y-85413463D01*
X16441100Y-85521682D01*
X16441100Y-85526867D01*
X16421415Y-85593906D01*
X16404781Y-85614548D01*
X15076641Y-86942687D01*
X15076635Y-86942695D01*
X15037082Y-87011204D01*
X15037079Y-87011209D01*
X15016600Y-87087639D01*
X15016600Y-98876000D01*
X14996915Y-98943039D01*
X14944111Y-98988794D01*
X14892600Y-99000000D01*
X1124000Y-99000000D01*
X1056961Y-98980315D01*
X1011206Y-98927511D01*
X1000000Y-98876000D01*
X1000000Y-80188982D01*
X11538300Y-80188982D01*
X11538300Y-80301018D01*
X11562705Y-80392097D01*
X11567297Y-80409236D01*
X11567298Y-80409239D01*
X11567813Y-80410131D01*
X11623315Y-80506263D01*
X11702537Y-80585485D01*
X11799563Y-80641503D01*
X11907782Y-80670500D01*
X11907784Y-80670500D01*
X12019816Y-80670500D01*
X12019818Y-80670500D01*
X12128037Y-80641503D01*
X12225063Y-80585485D01*
X12304285Y-80506263D01*
X12360303Y-80409237D01*
X12389300Y-80301018D01*
X12389300Y-80188982D01*
X12360303Y-80080763D01*
X12304285Y-79983737D01*
X12225063Y-79904515D01*
X12128037Y-79848497D01*
X12019818Y-79819500D01*
X11907782Y-79819500D01*
X11799563Y-79848497D01*
X11799560Y-79848498D01*
X11702540Y-79904513D01*
X11702534Y-79904517D01*
X11623317Y-79983734D01*
X11623313Y-79983740D01*
X11567298Y-80080760D01*
X11567297Y-80080763D01*
X11538300Y-80188982D01*
X1000000Y-80188982D01*
X1000000Y-68273713D01*
X23649500Y-68273713D01*
X23649500Y-68486286D01*
X23677964Y-68666005D01*
X23682754Y-68696243D01*
X23744809Y-68887229D01*
X23748444Y-68898414D01*
X23844951Y-69087820D01*
X23969890Y-69259786D01*
X24120213Y-69410109D01*
X24292179Y-69535048D01*
X24292181Y-69535049D01*
X24292184Y-69535051D01*
X24481588Y-69631557D01*
X24683757Y-69697246D01*
X24893713Y-69730500D01*
X24893714Y-69730500D01*
X25106286Y-69730500D01*
X25106287Y-69730500D01*
X25316243Y-69697246D01*
X25518412Y-69631557D01*
X25707816Y-69535051D01*
X25772497Y-69488058D01*
X25879786Y-69410109D01*
X25879788Y-69410106D01*
X25879792Y-69410104D01*
X26030104Y-69259792D01*
X26030106Y-69259788D01*
X26030109Y-69259786D01*
X26155048Y-69087820D01*
X26155047Y-69087820D01*
X26155051Y-69087816D01*
X26251557Y-68898412D01*
X26317246Y-68696243D01*
X26350500Y-68486287D01*
X26350500Y-68273713D01*
X26317246Y-68063757D01*
X26251557Y-67861588D01*
X26155051Y-67672184D01*
X26155049Y-67672181D01*
X26155048Y-67672179D01*
X26030109Y-67500213D01*
X25879786Y-67349890D01*
X25707820Y-67224951D01*
X25518414Y-67128444D01*
X25518413Y-67128443D01*
X25518412Y-67128443D01*
X25316243Y-67062754D01*
X25316241Y-67062753D01*
X25316240Y-67062753D01*
X25154957Y-67037208D01*
X25106287Y-67029500D01*
X24893713Y-67029500D01*
X24845042Y-67037208D01*
X24683760Y-67062753D01*
X24481585Y-67128444D01*
X24292179Y-67224951D01*
X24120213Y-67349890D01*
X23969890Y-67500213D01*
X23844951Y-67672179D01*
X23748444Y-67861585D01*
X23682753Y-68063760D01*
X23649500Y-68273713D01*
X1000000Y-68273713D01*
X1000000Y-48124000D01*
X1019685Y-48056961D01*
X1072489Y-48011206D01*
X1124000Y-48000000D01*
X2000000Y-48000000D01*
X39911200Y-48000000D01*
X39978239Y-48019685D01*
G37*
%TD.AperFunction*%
%TA.AperFunction,Conductor*%
G36*
X158943039Y-1019685D02*
G01*
X158988794Y-1072489D01*
X159000000Y-1124000D01*
X159000000Y-72189067D01*
X158980315Y-72256106D01*
X158927511Y-72301861D01*
X158858353Y-72311805D01*
X158794797Y-72282780D01*
X158788319Y-72276748D01*
X147434119Y-60922548D01*
X147400634Y-60861225D01*
X147397800Y-60834867D01*
X147397800Y-56825139D01*
X147377320Y-56748709D01*
X147377317Y-56748704D01*
X147337764Y-56680195D01*
X147337758Y-56680187D01*
X146200012Y-55542441D01*
X146200004Y-55542435D01*
X146131495Y-55502882D01*
X146131490Y-55502879D01*
X146106013Y-55496052D01*
X146055062Y-55482400D01*
X146055060Y-55482400D01*
X145349833Y-55482400D01*
X145282794Y-55462715D01*
X145262152Y-55446081D01*
X134442319Y-44626248D01*
X134408834Y-44564925D01*
X134406000Y-44538567D01*
X134406000Y-32520710D01*
X134425685Y-32453671D01*
X134442319Y-32433029D01*
X134445985Y-32429363D01*
X134502003Y-32332337D01*
X134531000Y-32224118D01*
X134531000Y-32112082D01*
X134502003Y-32003863D01*
X134445985Y-31906837D01*
X134366763Y-31827615D01*
X134269737Y-31771597D01*
X134161518Y-31742600D01*
X134049482Y-31742600D01*
X133941263Y-31771597D01*
X133941260Y-31771598D01*
X133877400Y-31808468D01*
X133809499Y-31824941D01*
X133743473Y-31802088D01*
X133700282Y-31747167D01*
X133691400Y-31701081D01*
X133691400Y-13151710D01*
X133711085Y-13084671D01*
X133727719Y-13064029D01*
X133731385Y-13060363D01*
X133787403Y-12963337D01*
X133816400Y-12855118D01*
X133816400Y-12743082D01*
X133787403Y-12634863D01*
X133731385Y-12537837D01*
X133652163Y-12458615D01*
X133555137Y-12402597D01*
X133446918Y-12373600D01*
X133334882Y-12373600D01*
X133226663Y-12402597D01*
X133226660Y-12402598D01*
X133129640Y-12458613D01*
X133129634Y-12458617D01*
X133050417Y-12537834D01*
X133050413Y-12537840D01*
X132994398Y-12634860D01*
X132994397Y-12634863D01*
X132965400Y-12743082D01*
X132965400Y-12855118D01*
X132985931Y-12931739D01*
X132994397Y-12963336D01*
X132994398Y-12963339D01*
X133013069Y-12995679D01*
X133050415Y-13060363D01*
X133050417Y-13060365D01*
X133054081Y-13064029D01*
X133087566Y-13125352D01*
X133090400Y-13151710D01*
X133090400Y-47055462D01*
X133104052Y-47106413D01*
X133110879Y-47131890D01*
X133110882Y-47131895D01*
X133150435Y-47200404D01*
X133150441Y-47200412D01*
X140913181Y-54963152D01*
X140946666Y-55024475D01*
X140949500Y-55050833D01*
X140949500Y-55056018D01*
X140978497Y-55164237D01*
X141034515Y-55261263D01*
X141113737Y-55340485D01*
X141210763Y-55396503D01*
X141318982Y-55425500D01*
X141318984Y-55425500D01*
X141431016Y-55425500D01*
X141431018Y-55425500D01*
X141539237Y-55396503D01*
X141636263Y-55340485D01*
X141715485Y-55261263D01*
X141771503Y-55164237D01*
X141800500Y-55056018D01*
X141800500Y-54943982D01*
X141771503Y-54835763D01*
X141715485Y-54738737D01*
X141636263Y-54659515D01*
X141539237Y-54603497D01*
X141431018Y-54574500D01*
X141431017Y-54574500D01*
X141425833Y-54574500D01*
X141358794Y-54554815D01*
X141338152Y-54538181D01*
X133727719Y-46927748D01*
X133694234Y-46866425D01*
X133691400Y-46840067D01*
X133691400Y-45024633D01*
X133711085Y-44957594D01*
X133763889Y-44911839D01*
X133833047Y-44901895D01*
X133896603Y-44930920D01*
X133903081Y-44936952D01*
X144933540Y-55967411D01*
X144989489Y-56023360D01*
X144989491Y-56023361D01*
X144989495Y-56023364D01*
X145058004Y-56062917D01*
X145058011Y-56062921D01*
X145134438Y-56083400D01*
X145839667Y-56083400D01*
X145906706Y-56103085D01*
X145927348Y-56119719D01*
X146372990Y-56565361D01*
X146406475Y-56626684D01*
X146401491Y-56696376D01*
X146364512Y-56746396D01*
X146364984Y-56746868D01*
X146361841Y-56750010D01*
X146360809Y-56751407D01*
X146359243Y-56752608D01*
X146280017Y-56831834D01*
X146280013Y-56831840D01*
X146223998Y-56928860D01*
X146223997Y-56928863D01*
X146195000Y-57037082D01*
X146195000Y-57149118D01*
X146223997Y-57257337D01*
X146280015Y-57354363D01*
X146280017Y-57354365D01*
X146283681Y-57358029D01*
X146317166Y-57419352D01*
X146320000Y-57445710D01*
X146320000Y-61692062D01*
X146328415Y-61723465D01*
X146340479Y-61768490D01*
X146340480Y-61768491D01*
X146372102Y-61823262D01*
X146380040Y-61837011D01*
X146380042Y-61837013D01*
X158956881Y-74413852D01*
X158990366Y-74475175D01*
X158991916Y-74483736D01*
X158993200Y-74492589D01*
X158993200Y-74506718D01*
X158997666Y-74523388D01*
X158998716Y-74530623D01*
X158998165Y-74534485D01*
X159000000Y-74548420D01*
X159000000Y-91585867D01*
X158980315Y-91652906D01*
X158927511Y-91698661D01*
X158858353Y-91708605D01*
X158794797Y-91679580D01*
X158788319Y-91673548D01*
X157512219Y-90397448D01*
X157478734Y-90336125D01*
X157475900Y-90309767D01*
X157475900Y-89105039D01*
X157475257Y-89102639D01*
X157455421Y-89028611D01*
X157455417Y-89028604D01*
X157415864Y-88960095D01*
X157415858Y-88960087D01*
X156717952Y-88262181D01*
X156684467Y-88200858D01*
X156689451Y-88131166D01*
X156731323Y-88075233D01*
X156796787Y-88050816D01*
X156805633Y-88050500D01*
X156869750Y-88050500D01*
X156869751Y-88050499D01*
X156884568Y-88047552D01*
X156928229Y-88038868D01*
X156928229Y-88038867D01*
X156928231Y-88038867D01*
X156994552Y-87994552D01*
X157038867Y-87928231D01*
X157038867Y-87928229D01*
X157038868Y-87928229D01*
X157050499Y-87869752D01*
X157050500Y-87869750D01*
X157050500Y-86130249D01*
X157050499Y-86130247D01*
X157038868Y-86071770D01*
X157038867Y-86071769D01*
X156994552Y-86005447D01*
X156928230Y-85961132D01*
X156928229Y-85961131D01*
X156869752Y-85949500D01*
X156869748Y-85949500D01*
X155130252Y-85949500D01*
X155130247Y-85949500D01*
X155071770Y-85961131D01*
X155071769Y-85961132D01*
X155005447Y-86005447D01*
X154961132Y-86071769D01*
X154961131Y-86071770D01*
X154949500Y-86130247D01*
X154949500Y-87677200D01*
X154929815Y-87744239D01*
X154877011Y-87789994D01*
X154825500Y-87801200D01*
X151352510Y-87801200D01*
X151285471Y-87781515D01*
X151264829Y-87764881D01*
X151261165Y-87761217D01*
X151261163Y-87761215D01*
X151164137Y-87705197D01*
X151055918Y-87676200D01*
X150943882Y-87676200D01*
X150943876Y-87676200D01*
X150940677Y-87676621D01*
X150937978Y-87676200D01*
X150935755Y-87676200D01*
X150935755Y-87675853D01*
X150871643Y-87665851D01*
X150819390Y-87619468D01*
X150800500Y-87553681D01*
X150800500Y-85959833D01*
X150820185Y-85892794D01*
X150836819Y-85872152D01*
X155963152Y-80745819D01*
X156024475Y-80712334D01*
X156050833Y-80709500D01*
X156056016Y-80709500D01*
X156056018Y-80709500D01*
X156164237Y-80680503D01*
X156261263Y-80624485D01*
X156340485Y-80545263D01*
X156396503Y-80448237D01*
X156425500Y-80340018D01*
X156425500Y-80227982D01*
X156396503Y-80119763D01*
X156340485Y-80022737D01*
X156261263Y-79943515D01*
X156196579Y-79906169D01*
X156164239Y-79887498D01*
X156164238Y-79887497D01*
X156164237Y-79887497D01*
X156056018Y-79858500D01*
X155943982Y-79858500D01*
X155835763Y-79887497D01*
X155835760Y-79887498D01*
X155738740Y-79943513D01*
X155738734Y-79943517D01*
X155659517Y-80022734D01*
X155659513Y-80022740D01*
X155603498Y-80119760D01*
X155603497Y-80119763D01*
X155574500Y-80227982D01*
X155574500Y-80233167D01*
X155554815Y-80300206D01*
X155538181Y-80320848D01*
X150660481Y-85198548D01*
X150599158Y-85232033D01*
X150529466Y-85227049D01*
X150473533Y-85185177D01*
X150449116Y-85119713D01*
X150448800Y-85110867D01*
X150448800Y-79143082D01*
X153861100Y-79143082D01*
X153861100Y-79255118D01*
X153890097Y-79363337D01*
X153946115Y-79460363D01*
X154025337Y-79539585D01*
X154122363Y-79595603D01*
X154230582Y-79624600D01*
X154230584Y-79624600D01*
X154342616Y-79624600D01*
X154342618Y-79624600D01*
X154450837Y-79595603D01*
X154547863Y-79539585D01*
X154627085Y-79460363D01*
X154683103Y-79363337D01*
X154712100Y-79255118D01*
X154712100Y-79143082D01*
X154683103Y-79034863D01*
X154627085Y-78937837D01*
X154547863Y-78858615D01*
X154483179Y-78821269D01*
X154450839Y-78802598D01*
X154450838Y-78802597D01*
X154450837Y-78802597D01*
X154342618Y-78773600D01*
X154230582Y-78773600D01*
X154122363Y-78802597D01*
X154122360Y-78802598D01*
X154025340Y-78858613D01*
X154025334Y-78858617D01*
X153946117Y-78937834D01*
X153946113Y-78937840D01*
X153890098Y-79034860D01*
X153890097Y-79034863D01*
X153861100Y-79143082D01*
X150448800Y-79143082D01*
X150448800Y-68657040D01*
X150448799Y-68657036D01*
X150438668Y-68619223D01*
X150428323Y-68580614D01*
X150428322Y-68580613D01*
X150428322Y-68580612D01*
X150388760Y-68512089D01*
X119436211Y-37559540D01*
X119436209Y-37559539D01*
X119436204Y-37559535D01*
X119432204Y-37557225D01*
X119432196Y-37557222D01*
X119423009Y-37551918D01*
X119367689Y-37519979D01*
X119291262Y-37499500D01*
X119275432Y-37499500D01*
X119254688Y-37491862D01*
X119243664Y-37483682D01*
X119230495Y-37479815D01*
X119216161Y-37463273D01*
X119198579Y-37450226D01*
X119193727Y-37437383D01*
X119184740Y-37427011D01*
X119175061Y-37394899D01*
X119170940Y-37368884D01*
X119170940Y-37368882D01*
X119112547Y-37189168D01*
X119026760Y-37020801D01*
X118915690Y-36867927D01*
X118782073Y-36734310D01*
X118629199Y-36623240D01*
X118610719Y-36613824D01*
X118460836Y-36537454D01*
X118281118Y-36479059D01*
X118094486Y-36449500D01*
X118094481Y-36449500D01*
X117905519Y-36449500D01*
X117905514Y-36449500D01*
X117718881Y-36479059D01*
X117539163Y-36537454D01*
X117370800Y-36623240D01*
X117245686Y-36714142D01*
X117179879Y-36737622D01*
X117111825Y-36721797D01*
X117063130Y-36671691D01*
X117048800Y-36613824D01*
X117048800Y-31472893D01*
X117068485Y-31405854D01*
X117121289Y-31360099D01*
X117184379Y-31349435D01*
X117195734Y-31350500D01*
X118804270Y-31350500D01*
X118834699Y-31347646D01*
X118834701Y-31347646D01*
X118899872Y-31324841D01*
X118962882Y-31302793D01*
X119072150Y-31222150D01*
X119152793Y-31112882D01*
X119188359Y-31011240D01*
X119197646Y-30984701D01*
X119197646Y-30984699D01*
X119200500Y-30954269D01*
X119200500Y-29045730D01*
X119197646Y-29015300D01*
X119197646Y-29015298D01*
X119152793Y-28887119D01*
X119152792Y-28887117D01*
X119072150Y-28777850D01*
X118962882Y-28697207D01*
X118962880Y-28697206D01*
X118834700Y-28652353D01*
X118804270Y-28649500D01*
X118804266Y-28649500D01*
X117195734Y-28649500D01*
X117195730Y-28649500D01*
X117165300Y-28652353D01*
X117165298Y-28652353D01*
X117037119Y-28697206D01*
X117037117Y-28697207D01*
X116927850Y-28777850D01*
X116847207Y-28887117D01*
X116847206Y-28887119D01*
X116802353Y-29015298D01*
X116802353Y-29015300D01*
X116799500Y-29045730D01*
X116799500Y-30724167D01*
X116779815Y-30791206D01*
X116763181Y-30811848D01*
X116507841Y-31067187D01*
X116507835Y-31067195D01*
X116468282Y-31135704D01*
X116468279Y-31135709D01*
X116454626Y-31186662D01*
X116447800Y-31212138D01*
X116447800Y-42130962D01*
X116461452Y-42181913D01*
X116468279Y-42207390D01*
X116468282Y-42207395D01*
X116507835Y-42275904D01*
X116507841Y-42275912D01*
X126303381Y-52071452D01*
X126336866Y-52132775D01*
X126339700Y-52159133D01*
X126339700Y-56098000D01*
X126320015Y-56165039D01*
X126267211Y-56210794D01*
X126215700Y-56222000D01*
X126107382Y-56222000D01*
X125999163Y-56250997D01*
X125999160Y-56250998D01*
X125902140Y-56307013D01*
X125902134Y-56307017D01*
X125822917Y-56386234D01*
X125822913Y-56386240D01*
X125766898Y-56483260D01*
X125766897Y-56483263D01*
X125737900Y-56591482D01*
X125737900Y-56596667D01*
X125718215Y-56663706D01*
X125701581Y-56684348D01*
X109446415Y-72939513D01*
X109385092Y-72972998D01*
X109315400Y-72968014D01*
X109259467Y-72926142D01*
X109235050Y-72860678D01*
X109238959Y-72819741D01*
X109250300Y-72777418D01*
X109250300Y-72665382D01*
X109221303Y-72557163D01*
X109165285Y-72460137D01*
X109086063Y-72380915D01*
X108989037Y-72324897D01*
X108880818Y-72295900D01*
X108768782Y-72295900D01*
X108660563Y-72324897D01*
X108660560Y-72324898D01*
X108563540Y-72380913D01*
X108563534Y-72380917D01*
X108484317Y-72460134D01*
X108484313Y-72460140D01*
X108428298Y-72557160D01*
X108428297Y-72557163D01*
X108399300Y-72665382D01*
X108399300Y-72670567D01*
X108379615Y-72737606D01*
X108362981Y-72758248D01*
X105626241Y-75494987D01*
X105626235Y-75494995D01*
X105586682Y-75563504D01*
X105586679Y-75563509D01*
X105583441Y-75575595D01*
X105566200Y-75639938D01*
X105566200Y-80636962D01*
X105586679Y-80713389D01*
X105615243Y-80762863D01*
X105615243Y-80762864D01*
X105626236Y-80781905D01*
X105626242Y-80781913D01*
X108010281Y-83165952D01*
X108043766Y-83227275D01*
X108046600Y-83253633D01*
X108046600Y-85035396D01*
X108041493Y-85052785D01*
X108041405Y-85070913D01*
X108031853Y-85085616D01*
X108026915Y-85102435D01*
X108013218Y-85114303D01*
X108003343Y-85129505D01*
X107987359Y-85136710D01*
X107974111Y-85148190D01*
X107956171Y-85150769D01*
X107939646Y-85158219D01*
X107914993Y-85156690D01*
X107904953Y-85158134D01*
X107904352Y-85158046D01*
X107897345Y-85157003D01*
X107879418Y-85152200D01*
X107865059Y-85152200D01*
X107855985Y-85150850D01*
X107832265Y-85139876D01*
X107807194Y-85132515D01*
X107794850Y-85122567D01*
X107792572Y-85121514D01*
X107791552Y-85119910D01*
X107786552Y-85115881D01*
X106150552Y-83479881D01*
X106117067Y-83418558D01*
X106122051Y-83348866D01*
X106163923Y-83292933D01*
X106229387Y-83268516D01*
X106238233Y-83268200D01*
X106252616Y-83268200D01*
X106252618Y-83268200D01*
X106360837Y-83239203D01*
X106457863Y-83183185D01*
X106537085Y-83103963D01*
X106593103Y-83006937D01*
X106622100Y-82898718D01*
X106622100Y-82786682D01*
X106593103Y-82678463D01*
X106537085Y-82581437D01*
X106457863Y-82502215D01*
X106393179Y-82464869D01*
X106360839Y-82446198D01*
X106360838Y-82446197D01*
X106360837Y-82446197D01*
X106252618Y-82417200D01*
X106140582Y-82417200D01*
X106032363Y-82446197D01*
X106032360Y-82446198D01*
X105935340Y-82502213D01*
X105935334Y-82502217D01*
X105856117Y-82581434D01*
X105856113Y-82581440D01*
X105800098Y-82678460D01*
X105800097Y-82678463D01*
X105771100Y-82786682D01*
X105771100Y-82801067D01*
X105751415Y-82868106D01*
X105698611Y-82913861D01*
X105629453Y-82923805D01*
X105565897Y-82894780D01*
X105559419Y-82888748D01*
X98050210Y-75379539D01*
X98027162Y-75366233D01*
X98012490Y-75357762D01*
X98012489Y-75357761D01*
X97981694Y-75339981D01*
X97981691Y-75339979D01*
X97943475Y-75329739D01*
X97905262Y-75319500D01*
X97905260Y-75319500D01*
X89940880Y-75319500D01*
X89873841Y-75299815D01*
X89828086Y-75247011D01*
X89818142Y-75177853D01*
X89821105Y-75163407D01*
X89823525Y-75154374D01*
X89847200Y-75066018D01*
X89847200Y-74953982D01*
X89818203Y-74845763D01*
X89762185Y-74748737D01*
X89682963Y-74669515D01*
X89608320Y-74626420D01*
X89585939Y-74613498D01*
X89585938Y-74613497D01*
X89585937Y-74613497D01*
X89477718Y-74584500D01*
X89477717Y-74584500D01*
X89473280Y-74583916D01*
X89409384Y-74555649D01*
X89370914Y-74497324D01*
X89367851Y-74436780D01*
X89368743Y-74432300D01*
X89370500Y-74423465D01*
X89370500Y-74216535D01*
X89330130Y-74013580D01*
X89280194Y-73893026D01*
X89272726Y-73823559D01*
X89304001Y-73761080D01*
X89307047Y-73757922D01*
X98606852Y-64458119D01*
X98668175Y-64424634D01*
X98694533Y-64421800D01*
X101647390Y-64421800D01*
X101714429Y-64441485D01*
X101735071Y-64458119D01*
X101738737Y-64461785D01*
X101835763Y-64517803D01*
X101943982Y-64546800D01*
X101943984Y-64546800D01*
X102056016Y-64546800D01*
X102056018Y-64546800D01*
X102164237Y-64517803D01*
X102261263Y-64461785D01*
X102340485Y-64382563D01*
X102396503Y-64285537D01*
X102425500Y-64177318D01*
X102425500Y-64065282D01*
X102396503Y-63957063D01*
X102340485Y-63860037D01*
X102261263Y-63780815D01*
X102164237Y-63724797D01*
X102056018Y-63695800D01*
X101943982Y-63695800D01*
X101835763Y-63724797D01*
X101835760Y-63724798D01*
X101738740Y-63780813D01*
X101738734Y-63780817D01*
X101735071Y-63784481D01*
X101673748Y-63817966D01*
X101647390Y-63820800D01*
X98479138Y-63820800D01*
X98440924Y-63831039D01*
X98402709Y-63841279D01*
X98402704Y-63841282D01*
X98334195Y-63880835D01*
X98334187Y-63880841D01*
X88882104Y-73332923D01*
X88820781Y-73366408D01*
X88751089Y-73361424D01*
X88746971Y-73359803D01*
X88626424Y-73309871D01*
X88626412Y-73309868D01*
X88423469Y-73269500D01*
X88423465Y-73269500D01*
X88216535Y-73269500D01*
X88216530Y-73269500D01*
X88013587Y-73309868D01*
X88013579Y-73309870D01*
X87822403Y-73389058D01*
X87678590Y-73485150D01*
X87611912Y-73506027D01*
X87544532Y-73487542D01*
X87497843Y-73435563D01*
X87485700Y-73382047D01*
X87485700Y-73090632D01*
X87505385Y-73023593D01*
X87522015Y-73002955D01*
X87757896Y-72767073D01*
X87819217Y-72733590D01*
X87888908Y-72738574D01*
X87893007Y-72740186D01*
X88013580Y-72790130D01*
X88216530Y-72830499D01*
X88216534Y-72830500D01*
X88216535Y-72830500D01*
X88423466Y-72830500D01*
X88423467Y-72830499D01*
X88626420Y-72790130D01*
X88817598Y-72710941D01*
X88989655Y-72595977D01*
X89135977Y-72449655D01*
X89250941Y-72277598D01*
X89330130Y-72086420D01*
X89370500Y-71883465D01*
X89370500Y-71676535D01*
X89330130Y-71473580D01*
X89250941Y-71282402D01*
X89135977Y-71110345D01*
X89135975Y-71110342D01*
X88989657Y-70964024D01*
X88903626Y-70906541D01*
X88817598Y-70849059D01*
X88626420Y-70769870D01*
X88626412Y-70769868D01*
X88423469Y-70729500D01*
X88423465Y-70729500D01*
X88216535Y-70729500D01*
X88216530Y-70729500D01*
X88013587Y-70769868D01*
X88013579Y-70769870D01*
X87822403Y-70849058D01*
X87650342Y-70964024D01*
X87504024Y-71110342D01*
X87389058Y-71282403D01*
X87309870Y-71473579D01*
X87309868Y-71473587D01*
X87269500Y-71676530D01*
X87269500Y-71883469D01*
X87309868Y-72086412D01*
X87309871Y-72086424D01*
X87359803Y-72206971D01*
X87367272Y-72276440D01*
X87335997Y-72338919D01*
X87332924Y-72342104D01*
X87000689Y-72674340D01*
X86944741Y-72730287D01*
X86944735Y-72730295D01*
X86905182Y-72798804D01*
X86905179Y-72798809D01*
X86896688Y-72830499D01*
X86888602Y-72860678D01*
X86884700Y-72875239D01*
X86884700Y-74700367D01*
X86865015Y-74767406D01*
X86812211Y-74813161D01*
X86743053Y-74823105D01*
X86679497Y-74794080D01*
X86673019Y-74788048D01*
X83908519Y-72023548D01*
X83875034Y-71962225D01*
X83872200Y-71935867D01*
X83872200Y-71323352D01*
X83891885Y-71256313D01*
X83944689Y-71210558D01*
X84013847Y-71200614D01*
X84028271Y-71203572D01*
X84104882Y-71224100D01*
X84104885Y-71224100D01*
X84216916Y-71224100D01*
X84216918Y-71224100D01*
X84325137Y-71195103D01*
X84422163Y-71139085D01*
X84501385Y-71059863D01*
X84557403Y-70962837D01*
X84586400Y-70854618D01*
X84586400Y-70742582D01*
X84557403Y-70634363D01*
X84501385Y-70537337D01*
X84497719Y-70533671D01*
X84464234Y-70472348D01*
X84461400Y-70445990D01*
X84461400Y-69136530D01*
X87269500Y-69136530D01*
X87269500Y-69343469D01*
X87309868Y-69546412D01*
X87309870Y-69546420D01*
X87389058Y-69737596D01*
X87504024Y-69909657D01*
X87650342Y-70055975D01*
X87650345Y-70055977D01*
X87822402Y-70170941D01*
X88013580Y-70250130D01*
X88216530Y-70290499D01*
X88216534Y-70290500D01*
X88216535Y-70290500D01*
X88423466Y-70290500D01*
X88423467Y-70290499D01*
X88626420Y-70250130D01*
X88817598Y-70170941D01*
X88989655Y-70055977D01*
X89135977Y-69909655D01*
X89250941Y-69737598D01*
X89330130Y-69546420D01*
X89370500Y-69343465D01*
X89370500Y-69136535D01*
X89330130Y-68933580D01*
X89250941Y-68742402D01*
X89135977Y-68570345D01*
X89135975Y-68570342D01*
X88989657Y-68424024D01*
X88903626Y-68366541D01*
X88817598Y-68309059D01*
X88763848Y-68286795D01*
X88626420Y-68229870D01*
X88626412Y-68229868D01*
X88423469Y-68189500D01*
X88423465Y-68189500D01*
X88216535Y-68189500D01*
X88216530Y-68189500D01*
X88013587Y-68229868D01*
X88013579Y-68229870D01*
X87822403Y-68309058D01*
X87650342Y-68424024D01*
X87504024Y-68570342D01*
X87389058Y-68742403D01*
X87309870Y-68933579D01*
X87309868Y-68933587D01*
X87269500Y-69136530D01*
X84461400Y-69136530D01*
X84461400Y-63565733D01*
X84481085Y-63498694D01*
X84533889Y-63452939D01*
X84603047Y-63442995D01*
X84666603Y-63472020D01*
X84673081Y-63478052D01*
X87332923Y-66137895D01*
X87366408Y-66199218D01*
X87361424Y-66268910D01*
X87359803Y-66273028D01*
X87309871Y-66393575D01*
X87309868Y-66393587D01*
X87269500Y-66596530D01*
X87269500Y-66803469D01*
X87309868Y-67006412D01*
X87309870Y-67006420D01*
X87389058Y-67197596D01*
X87504024Y-67369657D01*
X87650342Y-67515975D01*
X87650345Y-67515977D01*
X87822402Y-67630941D01*
X88013580Y-67710130D01*
X88163547Y-67739960D01*
X88216530Y-67750499D01*
X88216534Y-67750500D01*
X88216535Y-67750500D01*
X88423466Y-67750500D01*
X88423467Y-67750499D01*
X88626420Y-67710130D01*
X88817598Y-67630941D01*
X88989655Y-67515977D01*
X89135977Y-67369655D01*
X89250941Y-67197598D01*
X89330130Y-67006420D01*
X89370500Y-66803465D01*
X89370500Y-66596535D01*
X89330130Y-66393580D01*
X89250941Y-66202402D01*
X89135977Y-66030345D01*
X89135975Y-66030342D01*
X88989657Y-65884024D01*
X88822616Y-65772412D01*
X88817598Y-65769059D01*
X88765002Y-65747273D01*
X88626420Y-65689870D01*
X88626412Y-65689868D01*
X88423469Y-65649500D01*
X88423465Y-65649500D01*
X88216535Y-65649500D01*
X88216530Y-65649500D01*
X88013587Y-65689868D01*
X88013579Y-65689870D01*
X87893029Y-65739804D01*
X87823559Y-65747273D01*
X87761080Y-65715998D01*
X87757895Y-65712924D01*
X86101501Y-64056530D01*
X87269500Y-64056530D01*
X87269500Y-64263469D01*
X87309868Y-64466412D01*
X87309870Y-64466420D01*
X87389058Y-64657596D01*
X87504024Y-64829657D01*
X87650342Y-64975975D01*
X87650345Y-64975977D01*
X87822402Y-65090941D01*
X88013580Y-65170130D01*
X88216530Y-65210499D01*
X88216534Y-65210500D01*
X88216535Y-65210500D01*
X88423466Y-65210500D01*
X88423467Y-65210499D01*
X88626420Y-65170130D01*
X88817598Y-65090941D01*
X88989655Y-64975977D01*
X89135977Y-64829655D01*
X89250941Y-64657598D01*
X89330130Y-64466420D01*
X89370500Y-64263465D01*
X89370500Y-64056535D01*
X89330130Y-63853580D01*
X89250941Y-63662402D01*
X89135977Y-63490345D01*
X89135975Y-63490342D01*
X88989657Y-63344024D01*
X88903626Y-63286541D01*
X88817598Y-63229059D01*
X88626420Y-63149870D01*
X88626412Y-63149868D01*
X88423469Y-63109500D01*
X88423465Y-63109500D01*
X88216535Y-63109500D01*
X88216530Y-63109500D01*
X88013587Y-63149868D01*
X88013579Y-63149870D01*
X87822403Y-63229058D01*
X87650342Y-63344024D01*
X87504024Y-63490342D01*
X87389058Y-63662403D01*
X87309870Y-63853579D01*
X87309868Y-63853587D01*
X87269500Y-64056530D01*
X86101501Y-64056530D01*
X85238419Y-63193448D01*
X85204934Y-63132125D01*
X85202100Y-63105767D01*
X85202100Y-53130247D01*
X87269500Y-53130247D01*
X87269500Y-54869752D01*
X87281131Y-54928229D01*
X87281132Y-54928230D01*
X87325447Y-54994552D01*
X87391769Y-55038867D01*
X87391770Y-55038868D01*
X87450247Y-55050499D01*
X87450250Y-55050500D01*
X87450252Y-55050500D01*
X89189750Y-55050500D01*
X89189751Y-55050499D01*
X89208470Y-55046776D01*
X89248229Y-55038868D01*
X89248229Y-55038867D01*
X89248231Y-55038867D01*
X89314552Y-54994552D01*
X89358867Y-54928231D01*
X89358867Y-54928229D01*
X89358868Y-54928229D01*
X89370499Y-54869752D01*
X89370500Y-54869750D01*
X89370500Y-53130249D01*
X89370499Y-53130247D01*
X89358868Y-53071770D01*
X89358867Y-53071769D01*
X89314552Y-53005447D01*
X89248230Y-52961132D01*
X89248229Y-52961131D01*
X89189752Y-52949500D01*
X89189748Y-52949500D01*
X87450252Y-52949500D01*
X87450247Y-52949500D01*
X87391770Y-52961131D01*
X87391769Y-52961132D01*
X87325447Y-53005447D01*
X87281132Y-53071769D01*
X87281131Y-53071770D01*
X87269500Y-53130247D01*
X85202100Y-53130247D01*
X85202100Y-17652410D01*
X85221785Y-17585371D01*
X85238419Y-17564729D01*
X85242085Y-17561063D01*
X85298103Y-17464037D01*
X85327100Y-17355818D01*
X85327100Y-17243782D01*
X85298103Y-17135563D01*
X85242085Y-17038537D01*
X85165640Y-16962092D01*
X85132155Y-16900769D01*
X85137139Y-16831077D01*
X85165640Y-16786730D01*
X85871539Y-16080830D01*
X85932860Y-16047347D01*
X85991307Y-16048737D01*
X86081482Y-16072900D01*
X86081485Y-16072900D01*
X86193516Y-16072900D01*
X86193518Y-16072900D01*
X86301737Y-16043903D01*
X86398763Y-15987885D01*
X86477985Y-15908663D01*
X86534003Y-15811637D01*
X86563000Y-15703418D01*
X86563000Y-15591382D01*
X86534003Y-15483163D01*
X86477985Y-15386137D01*
X86398763Y-15306915D01*
X86301737Y-15250897D01*
X86193518Y-15221900D01*
X86081482Y-15221900D01*
X85973263Y-15250897D01*
X85973260Y-15250898D01*
X85876241Y-15306912D01*
X85876234Y-15306917D01*
X85858212Y-15324939D01*
X85802628Y-15357030D01*
X85764013Y-15367377D01*
X85764012Y-15367377D01*
X85695489Y-15406940D01*
X85695486Y-15406942D01*
X83920441Y-17181987D01*
X83920435Y-17181995D01*
X83880882Y-17250504D01*
X83880879Y-17250509D01*
X83860400Y-17326939D01*
X83860400Y-19090167D01*
X83840715Y-19157206D01*
X83787911Y-19202961D01*
X83718753Y-19212905D01*
X83655197Y-19183880D01*
X83648719Y-19177848D01*
X79670819Y-15199948D01*
X79660049Y-15180224D01*
X79645425Y-15163159D01*
X79641987Y-15147147D01*
X79637334Y-15138625D01*
X79635667Y-15129240D01*
X79634500Y-15120796D01*
X79634500Y-15107082D01*
X79626167Y-15075982D01*
X81490000Y-15075982D01*
X81490000Y-15188018D01*
X81518997Y-15296237D01*
X81575015Y-15393263D01*
X81654237Y-15472485D01*
X81751263Y-15528503D01*
X81859482Y-15557500D01*
X81859484Y-15557500D01*
X81971516Y-15557500D01*
X81971518Y-15557500D01*
X82079737Y-15528503D01*
X82176763Y-15472485D01*
X82255985Y-15393263D01*
X82312003Y-15296237D01*
X82341000Y-15188018D01*
X82341000Y-15075982D01*
X82312003Y-14967763D01*
X82255985Y-14870737D01*
X82176763Y-14791515D01*
X82079737Y-14735497D01*
X81971518Y-14706500D01*
X81859482Y-14706500D01*
X81751263Y-14735497D01*
X81751260Y-14735498D01*
X81654240Y-14791513D01*
X81654234Y-14791517D01*
X81575017Y-14870734D01*
X81575013Y-14870740D01*
X81518998Y-14967760D01*
X81518997Y-14967763D01*
X81490000Y-15075982D01*
X79626167Y-15075982D01*
X79605503Y-14998863D01*
X79549485Y-14901837D01*
X79470263Y-14822615D01*
X79373237Y-14766597D01*
X79265018Y-14737600D01*
X79152982Y-14737600D01*
X79044763Y-14766597D01*
X79044760Y-14766598D01*
X78947740Y-14822613D01*
X78947734Y-14822617D01*
X78868517Y-14901834D01*
X78868513Y-14901840D01*
X78812498Y-14998860D01*
X78812497Y-14998863D01*
X78783500Y-15107082D01*
X78783500Y-15219118D01*
X78812497Y-15327337D01*
X78868515Y-15424363D01*
X78947737Y-15503585D01*
X79044763Y-15559603D01*
X79152982Y-15588600D01*
X79158167Y-15588600D01*
X79225206Y-15608285D01*
X79245848Y-15624919D01*
X83234881Y-19613952D01*
X83268366Y-19675275D01*
X83271200Y-19701633D01*
X83271200Y-72151262D01*
X83291679Y-72227689D01*
X83320493Y-72277596D01*
X83320494Y-72277600D01*
X83331235Y-72296204D01*
X83331241Y-72296212D01*
X87332924Y-76297895D01*
X87366409Y-76359218D01*
X87361425Y-76428910D01*
X87359804Y-76433029D01*
X87309870Y-76553579D01*
X87309868Y-76553587D01*
X87281676Y-76695317D01*
X87249291Y-76757228D01*
X87188575Y-76791802D01*
X87118806Y-76788063D01*
X87072378Y-76758807D01*
X82820519Y-72506948D01*
X82787034Y-72445625D01*
X82784200Y-72419267D01*
X82784200Y-33189510D01*
X82803885Y-33122471D01*
X82820519Y-33101829D01*
X82824185Y-33098163D01*
X82880203Y-33001137D01*
X82909200Y-32892918D01*
X82909200Y-32780882D01*
X82880203Y-32672663D01*
X82824185Y-32575637D01*
X82744963Y-32496415D01*
X82647937Y-32440397D01*
X82539718Y-32411400D01*
X82427682Y-32411400D01*
X82319463Y-32440397D01*
X82319460Y-32440398D01*
X82222440Y-32496413D01*
X82222434Y-32496417D01*
X82143217Y-32575634D01*
X82143213Y-32575640D01*
X82087198Y-32672660D01*
X82087197Y-32672663D01*
X82058200Y-32780882D01*
X82058200Y-32892918D01*
X82087197Y-33001137D01*
X82143215Y-33098163D01*
X82143217Y-33098165D01*
X82146881Y-33101829D01*
X82180366Y-33163152D01*
X82183200Y-33189510D01*
X82183200Y-72634662D01*
X82185206Y-72642148D01*
X82203679Y-72711090D01*
X82203680Y-72711091D01*
X82216670Y-72733590D01*
X82232473Y-72760962D01*
X82243240Y-72779611D01*
X82243242Y-72779613D01*
X87781673Y-78318044D01*
X87815158Y-78379367D01*
X87810174Y-78449059D01*
X87768302Y-78504992D01*
X87762883Y-78508827D01*
X87650345Y-78584022D01*
X87650341Y-78584025D01*
X87504024Y-78730342D01*
X87389058Y-78902403D01*
X87309870Y-79093579D01*
X87309868Y-79093587D01*
X87269500Y-79296530D01*
X87269500Y-79503469D01*
X87309868Y-79706412D01*
X87309870Y-79706420D01*
X87368720Y-79848497D01*
X87389059Y-79897598D01*
X87419738Y-79943513D01*
X87504024Y-80069657D01*
X87650342Y-80215975D01*
X87650345Y-80215977D01*
X87822402Y-80330941D01*
X88013580Y-80410130D01*
X88203590Y-80447925D01*
X88216530Y-80450499D01*
X88216534Y-80450500D01*
X88216535Y-80450500D01*
X88423466Y-80450500D01*
X88423467Y-80450499D01*
X88626420Y-80410130D01*
X88817598Y-80330941D01*
X88989655Y-80215977D01*
X89135977Y-80069655D01*
X89250941Y-79897598D01*
X89330130Y-79706420D01*
X89370500Y-79503465D01*
X89370500Y-79296535D01*
X89330130Y-79093580D01*
X89250941Y-78902402D01*
X89135977Y-78730345D01*
X89135975Y-78730342D01*
X89047814Y-78642181D01*
X89014329Y-78580858D01*
X89019313Y-78511166D01*
X89061185Y-78455233D01*
X89126649Y-78430816D01*
X89135495Y-78430500D01*
X90151067Y-78430500D01*
X90218106Y-78450185D01*
X90238748Y-78466819D01*
X99538181Y-87766252D01*
X99571666Y-87827575D01*
X99574500Y-87853933D01*
X99574500Y-87859118D01*
X99602688Y-87964315D01*
X99603497Y-87967336D01*
X99603498Y-87967339D01*
X99607968Y-87975081D01*
X99659515Y-88064363D01*
X99738737Y-88143585D01*
X99835763Y-88199603D01*
X99943982Y-88228600D01*
X99943984Y-88228600D01*
X100056016Y-88228600D01*
X100056018Y-88228600D01*
X100164237Y-88199603D01*
X100261263Y-88143585D01*
X100340485Y-88064363D01*
X100396503Y-87967337D01*
X100425500Y-87859118D01*
X100425500Y-87747082D01*
X100396503Y-87638863D01*
X100340485Y-87541837D01*
X100261263Y-87462615D01*
X100164237Y-87406597D01*
X100056018Y-87377600D01*
X100056017Y-87377600D01*
X100050833Y-87377600D01*
X99983794Y-87357915D01*
X99963152Y-87341281D01*
X93492953Y-80871082D01*
X98949500Y-80871082D01*
X98949500Y-80983117D01*
X98978497Y-81091336D01*
X98978498Y-81091339D01*
X98986331Y-81104906D01*
X99034515Y-81188363D01*
X99113737Y-81267585D01*
X99210763Y-81323603D01*
X99318982Y-81352600D01*
X99318984Y-81352600D01*
X99431016Y-81352600D01*
X99431018Y-81352600D01*
X99539237Y-81323603D01*
X99636263Y-81267585D01*
X99715485Y-81188363D01*
X99771503Y-81091337D01*
X99800500Y-80983118D01*
X99800500Y-80871082D01*
X99771503Y-80762863D01*
X99715485Y-80665837D01*
X99636263Y-80586615D01*
X99539237Y-80530597D01*
X99431018Y-80501600D01*
X99318982Y-80501600D01*
X99210763Y-80530597D01*
X99210760Y-80530598D01*
X99113740Y-80586613D01*
X99113734Y-80586617D01*
X99034517Y-80665834D01*
X99034513Y-80665840D01*
X98978498Y-80762860D01*
X98978498Y-80762861D01*
X98978497Y-80762863D01*
X98956591Y-80844617D01*
X98949500Y-80871082D01*
X93492953Y-80871082D01*
X90511412Y-77889541D01*
X90511411Y-77889540D01*
X90490231Y-77877312D01*
X90490231Y-77877310D01*
X90490228Y-77877310D01*
X90442894Y-77849981D01*
X90442891Y-77849979D01*
X90404675Y-77839739D01*
X90366462Y-77829500D01*
X90366460Y-77829500D01*
X89135495Y-77829500D01*
X89068456Y-77809815D01*
X89022701Y-77757011D01*
X89012757Y-77687853D01*
X89041782Y-77624297D01*
X89047814Y-77617819D01*
X89135974Y-77529658D01*
X89135975Y-77529657D01*
X89135977Y-77529655D01*
X89250941Y-77357598D01*
X89330130Y-77166420D01*
X89370500Y-76963465D01*
X89370500Y-76756535D01*
X89330130Y-76553580D01*
X89250941Y-76362402D01*
X89135977Y-76190345D01*
X89135975Y-76190342D01*
X89077814Y-76132181D01*
X89044329Y-76070858D01*
X89049313Y-76001166D01*
X89091185Y-75945233D01*
X89156649Y-75920816D01*
X89165495Y-75920500D01*
X97689867Y-75920500D01*
X97756906Y-75940185D01*
X97777548Y-75956819D01*
X107361581Y-85540852D01*
X107395066Y-85602175D01*
X107397900Y-85628533D01*
X107397900Y-85633718D01*
X107426897Y-85741937D01*
X107482915Y-85838963D01*
X107482917Y-85838965D01*
X107563009Y-85919057D01*
X107596494Y-85980380D01*
X107591510Y-86050072D01*
X107563009Y-86094419D01*
X103318348Y-90339081D01*
X103257025Y-90372566D01*
X103230667Y-90375400D01*
X91332427Y-90375400D01*
X91265388Y-90355715D01*
X91219633Y-90302911D01*
X91211827Y-90250845D01*
X91208500Y-90250845D01*
X91208500Y-90130684D01*
X91208500Y-90130682D01*
X91179503Y-90022463D01*
X91123485Y-89925437D01*
X91044263Y-89846215D01*
X90947237Y-89790197D01*
X90839018Y-89761200D01*
X90839017Y-89761200D01*
X90833833Y-89761200D01*
X90766794Y-89741515D01*
X90746152Y-89724881D01*
X89070811Y-88049540D01*
X89060453Y-88043560D01*
X89023914Y-88022464D01*
X88975700Y-87971897D01*
X88962478Y-87903290D01*
X88988446Y-87838425D01*
X88998227Y-87827404D01*
X89135977Y-87689655D01*
X89250941Y-87517598D01*
X89330130Y-87326420D01*
X89370500Y-87123465D01*
X89370500Y-86916535D01*
X89330130Y-86713580D01*
X89250941Y-86522402D01*
X89135977Y-86350345D01*
X89135975Y-86350342D01*
X88989657Y-86204024D01*
X88879248Y-86130252D01*
X88817598Y-86089059D01*
X88817535Y-86089033D01*
X88626420Y-86009870D01*
X88626412Y-86009868D01*
X88423469Y-85969500D01*
X88423465Y-85969500D01*
X88216535Y-85969500D01*
X88216530Y-85969500D01*
X88013587Y-86009868D01*
X88013579Y-86009870D01*
X87822403Y-86089058D01*
X87650342Y-86204024D01*
X87504024Y-86350342D01*
X87389058Y-86522403D01*
X87309870Y-86713579D01*
X87309868Y-86713587D01*
X87274658Y-86890599D01*
X87269948Y-86899603D01*
X87269223Y-86909742D01*
X87254024Y-86930043D01*
X87242273Y-86952510D01*
X87233441Y-86957538D01*
X87227351Y-86965675D01*
X87203590Y-86974537D01*
X87181557Y-86987084D01*
X87171409Y-86986540D01*
X87161887Y-86990092D01*
X87137109Y-86984702D01*
X87111788Y-86983345D01*
X87101726Y-86977004D01*
X87093614Y-86975240D01*
X87065360Y-86954089D01*
X86904019Y-86792748D01*
X86870534Y-86731425D01*
X86867700Y-86705067D01*
X86867700Y-84376530D01*
X87269500Y-84376530D01*
X87269500Y-84583469D01*
X87309868Y-84786412D01*
X87309870Y-84786420D01*
X87389058Y-84977596D01*
X87504024Y-85149657D01*
X87650342Y-85295975D01*
X87650345Y-85295977D01*
X87822402Y-85410941D01*
X88013580Y-85490130D01*
X88164160Y-85520082D01*
X88216530Y-85530499D01*
X88216534Y-85530500D01*
X88216535Y-85530500D01*
X88423466Y-85530500D01*
X88423467Y-85530499D01*
X88626420Y-85490130D01*
X88817598Y-85410941D01*
X88989655Y-85295977D01*
X89135977Y-85149655D01*
X89250941Y-84977598D01*
X89330130Y-84786420D01*
X89370500Y-84583465D01*
X89370500Y-84376535D01*
X89330130Y-84173580D01*
X89250941Y-83982402D01*
X89135977Y-83810345D01*
X89135975Y-83810342D01*
X88989657Y-83664024D01*
X88903626Y-83606541D01*
X88817598Y-83549059D01*
X88626420Y-83469870D01*
X88626412Y-83469868D01*
X88423469Y-83429500D01*
X88423465Y-83429500D01*
X88216535Y-83429500D01*
X88216530Y-83429500D01*
X88013587Y-83469868D01*
X88013579Y-83469870D01*
X87822403Y-83549058D01*
X87650342Y-83664024D01*
X87504024Y-83810342D01*
X87389058Y-83982403D01*
X87309870Y-84173579D01*
X87309868Y-84173587D01*
X87269500Y-84376530D01*
X86867700Y-84376530D01*
X86867700Y-81836530D01*
X87269500Y-81836530D01*
X87269500Y-82043469D01*
X87309868Y-82246412D01*
X87309870Y-82246420D01*
X87373925Y-82401063D01*
X87389059Y-82437598D01*
X87417582Y-82480286D01*
X87504024Y-82609657D01*
X87650342Y-82755975D01*
X87650345Y-82755977D01*
X87822402Y-82870941D01*
X88013580Y-82950130D01*
X88157861Y-82978829D01*
X88216530Y-82990499D01*
X88216534Y-82990500D01*
X88216535Y-82990500D01*
X88423466Y-82990500D01*
X88423467Y-82990499D01*
X88626420Y-82950130D01*
X88817598Y-82870941D01*
X88989655Y-82755977D01*
X89135977Y-82609655D01*
X89250941Y-82437598D01*
X89330130Y-82246420D01*
X89370500Y-82043465D01*
X89370500Y-81836535D01*
X89330130Y-81633580D01*
X89250941Y-81442402D01*
X89135977Y-81270345D01*
X89135975Y-81270342D01*
X88989657Y-81124024D01*
X88878660Y-81049859D01*
X88817598Y-81009059D01*
X88754971Y-80983118D01*
X88626420Y-80929870D01*
X88626412Y-80929868D01*
X88423469Y-80889500D01*
X88423465Y-80889500D01*
X88216535Y-80889500D01*
X88216530Y-80889500D01*
X88013587Y-80929868D01*
X88013579Y-80929870D01*
X87822403Y-81009058D01*
X87650342Y-81124024D01*
X87504024Y-81270342D01*
X87389058Y-81442403D01*
X87309870Y-81633579D01*
X87309868Y-81633587D01*
X87269500Y-81836530D01*
X86867700Y-81836530D01*
X86867700Y-80853239D01*
X86865390Y-80844617D01*
X86847221Y-80776811D01*
X86839168Y-80762862D01*
X86807664Y-80708295D01*
X86807658Y-80708287D01*
X77916219Y-71816848D01*
X77882734Y-71755525D01*
X77879900Y-71729167D01*
X77879900Y-71723984D01*
X77879900Y-71723982D01*
X77850903Y-71615763D01*
X77794885Y-71518737D01*
X77715663Y-71439515D01*
X77618637Y-71383497D01*
X77510418Y-71354500D01*
X77398382Y-71354500D01*
X77398380Y-71354500D01*
X77359492Y-71364920D01*
X77289642Y-71363257D01*
X77231780Y-71324093D01*
X77204277Y-71259864D01*
X77203400Y-71245145D01*
X77203400Y-13943982D01*
X86755800Y-13943982D01*
X86755800Y-14056018D01*
X86784797Y-14164237D01*
X86840815Y-14261263D01*
X86840817Y-14261265D01*
X86844481Y-14264929D01*
X86877966Y-14326252D01*
X86880800Y-14352610D01*
X86880800Y-37322262D01*
X86893292Y-37368882D01*
X86901279Y-37398690D01*
X86901282Y-37398695D01*
X86940835Y-37467204D01*
X86940841Y-37467212D01*
X104090881Y-54617252D01*
X104124366Y-54678575D01*
X104127200Y-54704933D01*
X104127200Y-54710118D01*
X104134869Y-54738737D01*
X104156197Y-54818336D01*
X104156198Y-54818339D01*
X104158681Y-54822639D01*
X104212215Y-54915363D01*
X104212217Y-54915365D01*
X104297184Y-55000332D01*
X104294895Y-55002620D01*
X104327165Y-55046776D01*
X104331349Y-55116520D01*
X104298174Y-55176453D01*
X97139448Y-62335181D01*
X97078125Y-62368666D01*
X97051767Y-62371500D01*
X94249610Y-62371500D01*
X94182571Y-62351815D01*
X94161929Y-62335181D01*
X94158265Y-62331517D01*
X94158263Y-62331515D01*
X94066551Y-62278565D01*
X94061239Y-62275498D01*
X94061238Y-62275497D01*
X94061237Y-62275497D01*
X93953018Y-62246500D01*
X93840982Y-62246500D01*
X93732763Y-62275497D01*
X93732760Y-62275498D01*
X93635740Y-62331513D01*
X93635734Y-62331517D01*
X93556517Y-62410734D01*
X93556513Y-62410740D01*
X93500498Y-62507760D01*
X93500497Y-62507763D01*
X93471500Y-62615982D01*
X93471500Y-62728018D01*
X93500497Y-62836237D01*
X93556515Y-62933263D01*
X93635737Y-63012485D01*
X93732763Y-63068503D01*
X93840982Y-63097500D01*
X93840984Y-63097500D01*
X93953016Y-63097500D01*
X93953018Y-63097500D01*
X94061237Y-63068503D01*
X94158263Y-63012485D01*
X94161929Y-63008819D01*
X94223252Y-62975334D01*
X94249610Y-62972500D01*
X97267160Y-62972500D01*
X97267162Y-62972500D01*
X97343589Y-62952021D01*
X97412111Y-62912460D01*
X97468060Y-62856511D01*
X99533289Y-60791282D01*
X115780400Y-60791282D01*
X115780400Y-60903318D01*
X115809397Y-61011537D01*
X115865415Y-61108563D01*
X115944637Y-61187785D01*
X116041663Y-61243803D01*
X116149882Y-61272800D01*
X116149884Y-61272800D01*
X116261916Y-61272800D01*
X116261918Y-61272800D01*
X116370137Y-61243803D01*
X116467163Y-61187785D01*
X116546385Y-61108563D01*
X116602403Y-61011537D01*
X116631400Y-60903318D01*
X116631400Y-60791282D01*
X116602403Y-60683063D01*
X116546385Y-60586037D01*
X116467163Y-60506815D01*
X116370137Y-60450797D01*
X116261918Y-60421800D01*
X116149882Y-60421800D01*
X116041663Y-60450797D01*
X116041660Y-60450798D01*
X115944640Y-60506813D01*
X115944634Y-60506817D01*
X115865417Y-60586034D01*
X115865413Y-60586040D01*
X115809398Y-60683060D01*
X115809397Y-60683063D01*
X115780400Y-60791282D01*
X99533289Y-60791282D01*
X101914226Y-58410345D01*
X106124130Y-54200440D01*
X106185453Y-54166955D01*
X106255145Y-54171939D01*
X106299492Y-54200440D01*
X106371237Y-54272185D01*
X106468263Y-54328203D01*
X106576482Y-54357200D01*
X106576484Y-54357200D01*
X106688516Y-54357200D01*
X106688518Y-54357200D01*
X106796737Y-54328203D01*
X106893763Y-54272185D01*
X106972985Y-54192963D01*
X107029003Y-54095937D01*
X107058000Y-53987718D01*
X107058000Y-53875682D01*
X107029003Y-53767463D01*
X106972985Y-53670437D01*
X106901240Y-53598692D01*
X106896901Y-53590746D01*
X106889654Y-53585321D01*
X106880419Y-53560561D01*
X106867755Y-53537369D01*
X106868400Y-53528339D01*
X106865237Y-53519857D01*
X106870853Y-53494036D01*
X106872739Y-53467677D01*
X106878557Y-53458623D01*
X106880089Y-53451584D01*
X106901240Y-53423330D01*
X106933788Y-53390782D01*
X111799500Y-53390782D01*
X111799500Y-53502818D01*
X111828497Y-53611037D01*
X111884515Y-53708063D01*
X111963737Y-53787285D01*
X112060763Y-53843303D01*
X112168982Y-53872300D01*
X112168984Y-53872300D01*
X112281016Y-53872300D01*
X112281018Y-53872300D01*
X112389237Y-53843303D01*
X112486263Y-53787285D01*
X112565485Y-53708063D01*
X112621503Y-53611037D01*
X112650500Y-53502818D01*
X112650500Y-53390782D01*
X112621503Y-53282563D01*
X112565485Y-53185537D01*
X112561819Y-53181871D01*
X112528334Y-53120548D01*
X112525500Y-53094190D01*
X112525500Y-15710833D01*
X112545185Y-15643794D01*
X112561819Y-15623152D01*
X114955652Y-13229319D01*
X115016975Y-13195834D01*
X115043333Y-13193000D01*
X115048516Y-13193000D01*
X115048518Y-13193000D01*
X115156737Y-13164003D01*
X115253763Y-13107985D01*
X115332985Y-13028763D01*
X115389003Y-12931737D01*
X115418000Y-12823518D01*
X115418000Y-12711482D01*
X115389003Y-12603263D01*
X115332985Y-12506237D01*
X115253763Y-12427015D01*
X115156737Y-12370997D01*
X115048518Y-12342000D01*
X114936482Y-12342000D01*
X114828263Y-12370997D01*
X114828260Y-12370998D01*
X114731240Y-12427013D01*
X114731234Y-12427017D01*
X114652017Y-12506234D01*
X114652013Y-12506240D01*
X114595998Y-12603260D01*
X114595997Y-12603263D01*
X114567000Y-12711482D01*
X114567000Y-12716667D01*
X114547315Y-12783706D01*
X114530681Y-12804348D01*
X111984541Y-15350487D01*
X111984535Y-15350495D01*
X111944982Y-15419004D01*
X111944979Y-15419009D01*
X111924500Y-15495439D01*
X111924500Y-53094190D01*
X111904815Y-53161229D01*
X111888181Y-53181871D01*
X111884517Y-53185534D01*
X111884513Y-53185540D01*
X111828498Y-53282560D01*
X111828497Y-53282563D01*
X111799500Y-53390782D01*
X106933788Y-53390782D01*
X107204022Y-53120548D01*
X107636260Y-52688311D01*
X107675821Y-52619789D01*
X107696300Y-52543362D01*
X107696300Y-39196910D01*
X107715985Y-39129871D01*
X107732619Y-39109229D01*
X107736285Y-39105563D01*
X107792303Y-39008537D01*
X107821300Y-38900318D01*
X107821300Y-38788282D01*
X107792303Y-38680063D01*
X107736285Y-38583037D01*
X107657063Y-38503815D01*
X107560037Y-38447797D01*
X107451818Y-38418800D01*
X107451817Y-38418800D01*
X107446633Y-38418800D01*
X107379594Y-38399115D01*
X107358952Y-38382481D01*
X89862912Y-20886441D01*
X89862904Y-20886435D01*
X89794395Y-20846882D01*
X89794390Y-20846879D01*
X89768913Y-20840052D01*
X89717962Y-20826400D01*
X89717960Y-20826400D01*
X88043610Y-20826400D01*
X87976571Y-20806715D01*
X87955929Y-20790081D01*
X87952265Y-20786417D01*
X87952263Y-20786415D01*
X87855237Y-20730397D01*
X87747018Y-20701400D01*
X87634982Y-20701400D01*
X87634980Y-20701400D01*
X87626926Y-20702461D01*
X87626648Y-20700353D01*
X87568035Y-20698954D01*
X87510175Y-20659787D01*
X87482676Y-20595557D01*
X87481800Y-20580845D01*
X87481800Y-14352610D01*
X87501485Y-14285571D01*
X87518119Y-14264929D01*
X87521785Y-14261263D01*
X87577803Y-14164237D01*
X87606800Y-14056018D01*
X87606800Y-13943982D01*
X87577803Y-13835763D01*
X87521785Y-13738737D01*
X87442563Y-13659515D01*
X87345537Y-13603497D01*
X87237318Y-13574500D01*
X87125282Y-13574500D01*
X87017063Y-13603497D01*
X87017060Y-13603498D01*
X86920040Y-13659513D01*
X86920034Y-13659517D01*
X86840817Y-13738734D01*
X86840813Y-13738740D01*
X86784798Y-13835760D01*
X86784797Y-13835763D01*
X86755800Y-13943982D01*
X77203400Y-13943982D01*
X77203400Y-13483010D01*
X77223085Y-13415971D01*
X77239719Y-13395329D01*
X77243385Y-13391663D01*
X77299403Y-13294637D01*
X77328400Y-13186418D01*
X77328400Y-13074382D01*
X77299403Y-12966163D01*
X77243385Y-12869137D01*
X77164163Y-12789915D01*
X77067137Y-12733897D01*
X76958918Y-12704900D01*
X76846882Y-12704900D01*
X76738663Y-12733897D01*
X76738660Y-12733898D01*
X76641640Y-12789913D01*
X76641634Y-12789917D01*
X76562417Y-12869134D01*
X76562413Y-12869140D01*
X76506398Y-12966160D01*
X76506397Y-12966163D01*
X76477400Y-13074382D01*
X76477400Y-13186418D01*
X76506397Y-13294637D01*
X76562415Y-13391663D01*
X76562417Y-13391665D01*
X76566081Y-13395329D01*
X76599566Y-13456652D01*
X76602400Y-13483010D01*
X76602400Y-73139762D01*
X76616052Y-73190713D01*
X76622879Y-73216190D01*
X76622880Y-73216191D01*
X76645575Y-73255500D01*
X76662440Y-73284711D01*
X76662442Y-73284713D01*
X81492581Y-78114852D01*
X81526066Y-78176175D01*
X81528900Y-78202533D01*
X81528900Y-78207718D01*
X81557897Y-78315937D01*
X81613915Y-78412963D01*
X81613917Y-78412965D01*
X81617581Y-78416629D01*
X81651066Y-78477952D01*
X81653900Y-78504310D01*
X81653900Y-91523162D01*
X81667552Y-91574113D01*
X81674379Y-91599590D01*
X81689797Y-91626293D01*
X81689798Y-91626296D01*
X81713937Y-91668107D01*
X81713941Y-91668112D01*
X83014281Y-92968452D01*
X83047766Y-93029775D01*
X83050600Y-93056133D01*
X83050600Y-93061318D01*
X83079597Y-93169537D01*
X83135615Y-93266563D01*
X83214837Y-93345785D01*
X83311863Y-93401803D01*
X83420082Y-93430800D01*
X83420084Y-93430800D01*
X83532116Y-93430800D01*
X83532118Y-93430800D01*
X83640337Y-93401803D01*
X83737363Y-93345785D01*
X83816585Y-93266563D01*
X83872603Y-93169537D01*
X83901600Y-93061318D01*
X83901600Y-92949282D01*
X83872603Y-92841063D01*
X83816585Y-92744037D01*
X83737363Y-92664815D01*
X83640337Y-92608797D01*
X83532118Y-92579800D01*
X83532117Y-92579800D01*
X83526933Y-92579800D01*
X83459894Y-92560115D01*
X83439252Y-92543481D01*
X82291219Y-91395448D01*
X82257734Y-91334125D01*
X82254900Y-91307767D01*
X82254900Y-78504310D01*
X82274585Y-78437271D01*
X82291219Y-78416629D01*
X82294885Y-78412963D01*
X82350903Y-78315937D01*
X82379900Y-78207718D01*
X82379900Y-78095682D01*
X82350903Y-77987463D01*
X82294885Y-77890437D01*
X82215663Y-77811215D01*
X82118637Y-77755197D01*
X82010418Y-77726200D01*
X82010417Y-77726200D01*
X82005233Y-77726200D01*
X81938194Y-77706515D01*
X81917552Y-77689881D01*
X77239719Y-73012048D01*
X77206234Y-72950725D01*
X77203400Y-72924367D01*
X77203400Y-72314854D01*
X77209226Y-72295010D01*
X77210202Y-72274348D01*
X77218872Y-72262160D01*
X77223085Y-72247815D01*
X77238712Y-72234273D01*
X77250706Y-72217416D01*
X77264589Y-72211851D01*
X77275889Y-72202060D01*
X77296361Y-72199116D01*
X77315560Y-72191421D01*
X77337294Y-72193230D01*
X77345047Y-72192116D01*
X77350815Y-72193085D01*
X77355182Y-72193924D01*
X77398382Y-72205500D01*
X77415380Y-72205500D01*
X77426982Y-72207731D01*
X77447964Y-72218536D01*
X77470606Y-72225185D01*
X77487838Y-72239071D01*
X77489098Y-72239720D01*
X77489494Y-72240405D01*
X77491248Y-72241819D01*
X86230381Y-80980952D01*
X86263866Y-81042275D01*
X86266700Y-81068633D01*
X86266700Y-86920462D01*
X86275711Y-86954089D01*
X86287179Y-86996890D01*
X86287182Y-86996895D01*
X86326735Y-87065404D01*
X86326741Y-87065412D01*
X87756316Y-88494987D01*
X87789801Y-88556310D01*
X87784817Y-88626002D01*
X87742945Y-88681935D01*
X87737526Y-88685770D01*
X87650345Y-88744022D01*
X87650341Y-88744025D01*
X87504024Y-88890342D01*
X87389058Y-89062403D01*
X87309870Y-89253579D01*
X87309868Y-89253587D01*
X87269500Y-89456530D01*
X87269500Y-89496121D01*
X87249815Y-89563160D01*
X87197011Y-89608915D01*
X87127853Y-89618859D01*
X87064297Y-89589834D01*
X87026523Y-89531056D01*
X87025725Y-89528214D01*
X87016337Y-89493178D01*
X87000203Y-89432963D01*
X86944185Y-89335937D01*
X86864963Y-89256715D01*
X86800279Y-89219369D01*
X86767939Y-89200698D01*
X86767938Y-89200697D01*
X86767937Y-89200697D01*
X86659718Y-89171700D01*
X86547682Y-89171700D01*
X86439463Y-89200697D01*
X86439460Y-89200698D01*
X86342440Y-89256713D01*
X86342434Y-89256717D01*
X86263217Y-89335934D01*
X86263213Y-89335940D01*
X86207198Y-89432960D01*
X86207197Y-89432963D01*
X86178200Y-89541182D01*
X86178200Y-89653218D01*
X86207197Y-89761437D01*
X86263215Y-89858463D01*
X86342437Y-89937685D01*
X86439463Y-89993703D01*
X86547682Y-90022700D01*
X86552867Y-90022700D01*
X86619906Y-90042385D01*
X86640548Y-90059019D01*
X87441940Y-90860411D01*
X87497889Y-90916360D01*
X87497891Y-90916361D01*
X87497895Y-90916364D01*
X87566404Y-90955917D01*
X87566411Y-90955921D01*
X87642838Y-90976400D01*
X87642840Y-90976400D01*
X103446060Y-90976400D01*
X103446062Y-90976400D01*
X103522489Y-90955921D01*
X103591011Y-90916360D01*
X103646960Y-90860411D01*
X108587560Y-85919811D01*
X108627122Y-85851288D01*
X108647600Y-85774862D01*
X108647600Y-85695738D01*
X108647600Y-83038238D01*
X108627121Y-82961811D01*
X108627117Y-82961804D01*
X108587564Y-82893295D01*
X108587558Y-82893287D01*
X106203519Y-80509248D01*
X106170034Y-80447925D01*
X106167200Y-80421567D01*
X106167200Y-79444500D01*
X106186885Y-79377461D01*
X106239689Y-79331706D01*
X106308847Y-79321762D01*
X106323286Y-79324723D01*
X106331782Y-79327000D01*
X106331784Y-79327000D01*
X106443816Y-79327000D01*
X106443818Y-79327000D01*
X106552037Y-79298003D01*
X106649063Y-79241985D01*
X106728285Y-79162763D01*
X106784303Y-79065737D01*
X106813300Y-78957518D01*
X106813300Y-78845482D01*
X106784303Y-78737263D01*
X106728285Y-78640237D01*
X106724619Y-78636571D01*
X106691134Y-78575248D01*
X106688300Y-78548890D01*
X106688300Y-76598933D01*
X106707985Y-76531894D01*
X106724619Y-76511252D01*
X121222389Y-62013482D01*
X123205100Y-62013482D01*
X123205100Y-62125518D01*
X123234097Y-62233737D01*
X123290115Y-62330763D01*
X123369337Y-62409985D01*
X123466363Y-62466003D01*
X123574582Y-62495000D01*
X123574584Y-62495000D01*
X123686616Y-62495000D01*
X123686618Y-62495000D01*
X123794837Y-62466003D01*
X123891863Y-62409985D01*
X123971085Y-62330763D01*
X124027103Y-62233737D01*
X124056100Y-62125518D01*
X124056100Y-62013482D01*
X124027103Y-61905263D01*
X123971085Y-61808237D01*
X123891863Y-61729015D01*
X123794837Y-61672997D01*
X123686618Y-61644000D01*
X123574582Y-61644000D01*
X123466363Y-61672997D01*
X123466360Y-61672998D01*
X123369340Y-61729013D01*
X123369334Y-61729017D01*
X123290117Y-61808234D01*
X123290113Y-61808240D01*
X123234098Y-61905260D01*
X123234097Y-61905263D01*
X123205100Y-62013482D01*
X121222389Y-62013482D01*
X126126552Y-57109319D01*
X126153479Y-57094615D01*
X126179298Y-57078023D01*
X126185498Y-57077131D01*
X126187875Y-57075834D01*
X126214233Y-57073000D01*
X126215700Y-57073000D01*
X126282739Y-57092685D01*
X126328494Y-57145489D01*
X126339700Y-57197000D01*
X126339700Y-77623762D01*
X126353352Y-77674713D01*
X126360179Y-77700190D01*
X126363831Y-77706515D01*
X126390576Y-77752838D01*
X126390576Y-77752840D01*
X126399737Y-77768707D01*
X126399741Y-77768712D01*
X134066948Y-85435919D01*
X134100433Y-85497242D01*
X134095449Y-85566934D01*
X134053577Y-85622867D01*
X133988113Y-85647284D01*
X133979267Y-85647600D01*
X133939182Y-85647600D01*
X133830963Y-85676597D01*
X133830960Y-85676598D01*
X133733940Y-85732613D01*
X133733934Y-85732617D01*
X133654717Y-85811834D01*
X133654713Y-85811840D01*
X133598698Y-85908860D01*
X133598697Y-85908863D01*
X133569700Y-86017082D01*
X133569700Y-86129118D01*
X133598697Y-86237337D01*
X133654715Y-86334363D01*
X133654717Y-86334365D01*
X133658381Y-86338029D01*
X133691866Y-86399352D01*
X133694700Y-86425710D01*
X133694700Y-90959567D01*
X133675015Y-91026606D01*
X133658381Y-91047248D01*
X128801048Y-95904581D01*
X128739725Y-95938066D01*
X128713367Y-95940900D01*
X128708182Y-95940900D01*
X128599963Y-95969897D01*
X128599960Y-95969898D01*
X128502940Y-96025913D01*
X128502934Y-96025917D01*
X128423717Y-96105134D01*
X128423713Y-96105140D01*
X128367698Y-96202160D01*
X128367697Y-96202163D01*
X128338700Y-96310382D01*
X128338700Y-96422418D01*
X128367697Y-96530637D01*
X128423715Y-96627663D01*
X128502937Y-96706885D01*
X128599963Y-96762903D01*
X128708182Y-96791900D01*
X128708184Y-96791900D01*
X128820216Y-96791900D01*
X128820218Y-96791900D01*
X128928437Y-96762903D01*
X129025463Y-96706885D01*
X129104685Y-96627663D01*
X129160703Y-96530637D01*
X129189700Y-96422418D01*
X129189700Y-96417233D01*
X129209385Y-96350194D01*
X129226019Y-96329552D01*
X131425324Y-94130247D01*
X131949500Y-94130247D01*
X131949500Y-95869752D01*
X131961131Y-95928229D01*
X131961132Y-95928230D01*
X132005447Y-95994552D01*
X132071769Y-96038867D01*
X132071770Y-96038868D01*
X132130247Y-96050499D01*
X132130250Y-96050500D01*
X132130252Y-96050500D01*
X133869750Y-96050500D01*
X133869751Y-96050499D01*
X133884568Y-96047552D01*
X133928229Y-96038868D01*
X133928229Y-96038867D01*
X133928231Y-96038867D01*
X133994552Y-95994552D01*
X134038867Y-95928231D01*
X134038867Y-95928229D01*
X134038868Y-95928229D01*
X134047552Y-95884568D01*
X134050500Y-95869748D01*
X134050500Y-95436530D01*
X138949500Y-95436530D01*
X138949500Y-95643469D01*
X138989868Y-95846412D01*
X138989870Y-95846420D01*
X139069058Y-96037596D01*
X139184024Y-96209657D01*
X139330342Y-96355975D01*
X139330345Y-96355977D01*
X139502402Y-96470941D01*
X139693580Y-96550130D01*
X139896530Y-96590499D01*
X139896534Y-96590500D01*
X139896535Y-96590500D01*
X140103466Y-96590500D01*
X140103467Y-96590499D01*
X140306420Y-96550130D01*
X140497598Y-96470941D01*
X140669655Y-96355977D01*
X140815977Y-96209655D01*
X140930941Y-96037598D01*
X141010130Y-95846420D01*
X141050500Y-95643465D01*
X141050500Y-95436535D01*
X141010130Y-95233580D01*
X140930941Y-95042402D01*
X140815977Y-94870345D01*
X140815975Y-94870342D01*
X140669657Y-94724024D01*
X140558627Y-94649837D01*
X140497598Y-94609059D01*
X140391141Y-94564963D01*
X140306420Y-94529870D01*
X140306412Y-94529868D01*
X140103469Y-94489500D01*
X140103465Y-94489500D01*
X139896535Y-94489500D01*
X139896530Y-94489500D01*
X139693587Y-94529868D01*
X139693579Y-94529870D01*
X139502403Y-94609058D01*
X139330342Y-94724024D01*
X139184024Y-94870342D01*
X139069058Y-95042403D01*
X138989870Y-95233579D01*
X138989868Y-95233587D01*
X138949500Y-95436530D01*
X134050500Y-95436530D01*
X134050500Y-94130252D01*
X134050500Y-94130249D01*
X134050499Y-94130247D01*
X134038868Y-94071770D01*
X134038867Y-94071769D01*
X133994552Y-94005447D01*
X133928230Y-93961132D01*
X133928229Y-93961131D01*
X133869752Y-93949500D01*
X133869748Y-93949500D01*
X132130252Y-93949500D01*
X132130247Y-93949500D01*
X132071770Y-93961131D01*
X132071769Y-93961132D01*
X132005447Y-94005447D01*
X131961132Y-94071769D01*
X131961131Y-94071770D01*
X131949500Y-94130247D01*
X131425324Y-94130247D01*
X131519092Y-94036479D01*
X132859332Y-92696239D01*
X134235660Y-91319911D01*
X134275221Y-91251389D01*
X134295700Y-91174962D01*
X134295700Y-86425710D01*
X134315385Y-86358671D01*
X134332019Y-86338029D01*
X134335685Y-86334363D01*
X134391703Y-86237337D01*
X134420700Y-86129118D01*
X134420700Y-86089033D01*
X134440385Y-86021994D01*
X134493189Y-85976239D01*
X134562347Y-85966295D01*
X134625903Y-85995320D01*
X134632381Y-86001352D01*
X140368848Y-91737819D01*
X140402333Y-91799142D01*
X140397349Y-91868834D01*
X140355477Y-91924767D01*
X140290013Y-91949184D01*
X140281167Y-91949500D01*
X139130247Y-91949500D01*
X139071770Y-91961131D01*
X139071769Y-91961132D01*
X139005447Y-92005447D01*
X138961132Y-92071769D01*
X138961131Y-92071770D01*
X138949500Y-92130247D01*
X138949500Y-93869752D01*
X138961131Y-93928229D01*
X138961132Y-93928230D01*
X139005447Y-93994552D01*
X139071769Y-94038867D01*
X139071770Y-94038868D01*
X139130247Y-94050499D01*
X139130250Y-94050500D01*
X139130252Y-94050500D01*
X140869750Y-94050500D01*
X140869751Y-94050499D01*
X140884568Y-94047552D01*
X140928229Y-94038868D01*
X140928229Y-94038867D01*
X140928231Y-94038867D01*
X140994552Y-93994552D01*
X141038867Y-93928231D01*
X141038867Y-93928229D01*
X141038868Y-93928229D01*
X141050499Y-93869752D01*
X141050500Y-93869750D01*
X141050500Y-92718833D01*
X141070185Y-92651794D01*
X141122989Y-92606039D01*
X141192147Y-92596095D01*
X141255703Y-92625120D01*
X141262181Y-92631152D01*
X142663181Y-94032152D01*
X142696666Y-94093475D01*
X142699500Y-94119833D01*
X142699500Y-98876000D01*
X142679815Y-98943039D01*
X142627011Y-98988794D01*
X142575500Y-99000000D01*
X140864995Y-99000000D01*
X140797956Y-98980315D01*
X140752201Y-98927511D01*
X140742257Y-98858353D01*
X140771282Y-98794797D01*
X140777314Y-98788319D01*
X140815974Y-98749658D01*
X140815975Y-98749657D01*
X140815977Y-98749655D01*
X140930941Y-98577598D01*
X141010130Y-98386420D01*
X141050500Y-98183465D01*
X141050500Y-97976535D01*
X141010130Y-97773580D01*
X140930941Y-97582402D01*
X140815977Y-97410345D01*
X140815975Y-97410342D01*
X140669657Y-97264024D01*
X140509261Y-97156852D01*
X140497598Y-97149059D01*
X140306420Y-97069870D01*
X140306412Y-97069868D01*
X140103469Y-97029500D01*
X140103465Y-97029500D01*
X139896535Y-97029500D01*
X139896530Y-97029500D01*
X139693587Y-97069868D01*
X139693579Y-97069870D01*
X139502403Y-97149058D01*
X139330342Y-97264024D01*
X139184024Y-97410342D01*
X139069058Y-97582403D01*
X138989870Y-97773579D01*
X138989868Y-97773587D01*
X138949500Y-97976530D01*
X138949500Y-98183469D01*
X138989868Y-98386412D01*
X138989870Y-98386420D01*
X139053737Y-98540609D01*
X139069059Y-98577598D01*
X139116891Y-98649184D01*
X139184024Y-98749657D01*
X139222686Y-98788319D01*
X139256171Y-98849642D01*
X139251187Y-98919334D01*
X139209315Y-98975267D01*
X139143851Y-98999684D01*
X139135005Y-99000000D01*
X117824233Y-99000000D01*
X117757194Y-98980315D01*
X117711439Y-98927511D01*
X117701495Y-98858353D01*
X117730520Y-98794797D01*
X117736552Y-98788319D01*
X119088341Y-97436530D01*
X131949500Y-97436530D01*
X131949500Y-97643469D01*
X131989868Y-97846412D01*
X131989870Y-97846420D01*
X132043534Y-97975977D01*
X132069059Y-98037598D01*
X132118065Y-98110941D01*
X132184024Y-98209657D01*
X132330342Y-98355975D01*
X132330345Y-98355977D01*
X132502402Y-98470941D01*
X132693580Y-98550130D01*
X132828721Y-98577011D01*
X132896530Y-98590499D01*
X132896534Y-98590500D01*
X132896535Y-98590500D01*
X133103466Y-98590500D01*
X133103467Y-98590499D01*
X133306420Y-98550130D01*
X133497598Y-98470941D01*
X133669655Y-98355977D01*
X133815977Y-98209655D01*
X133930941Y-98037598D01*
X134010130Y-97846420D01*
X134050500Y-97643465D01*
X134050500Y-97436535D01*
X134010130Y-97233580D01*
X133930941Y-97042402D01*
X133815977Y-96870345D01*
X133815975Y-96870342D01*
X133669657Y-96724024D01*
X133583626Y-96666541D01*
X133497598Y-96609059D01*
X133453804Y-96590919D01*
X133306420Y-96529870D01*
X133306412Y-96529868D01*
X133103469Y-96489500D01*
X133103465Y-96489500D01*
X132896535Y-96489500D01*
X132896530Y-96489500D01*
X132693587Y-96529868D01*
X132693579Y-96529870D01*
X132502403Y-96609058D01*
X132330342Y-96724024D01*
X132184024Y-96870342D01*
X132069058Y-97042403D01*
X131989870Y-97233579D01*
X131989868Y-97233587D01*
X131949500Y-97436530D01*
X119088341Y-97436530D01*
X119182109Y-97342762D01*
X122203511Y-94321360D01*
X125240460Y-91284411D01*
X125259525Y-91251389D01*
X125280021Y-91215889D01*
X125300500Y-91139462D01*
X125300500Y-88124500D01*
X125320185Y-88057461D01*
X125372989Y-88011706D01*
X125424500Y-88000500D01*
X125604270Y-88000500D01*
X125634699Y-87997646D01*
X125634701Y-87997646D01*
X125705722Y-87972794D01*
X125762882Y-87952793D01*
X125872150Y-87872150D01*
X125952793Y-87762882D01*
X125978599Y-87689133D01*
X125997646Y-87634701D01*
X125997646Y-87634699D01*
X126000500Y-87604269D01*
X126000500Y-86395730D01*
X125997646Y-86365300D01*
X125997646Y-86365298D01*
X125952870Y-86237339D01*
X125952793Y-86237118D01*
X125872150Y-86127850D01*
X125762882Y-86047207D01*
X125762880Y-86047206D01*
X125634700Y-86002353D01*
X125604270Y-85999500D01*
X125604266Y-85999500D01*
X124395734Y-85999500D01*
X124395730Y-85999500D01*
X124365300Y-86002353D01*
X124365298Y-86002353D01*
X124237119Y-86047206D01*
X124237117Y-86047207D01*
X124127850Y-86127850D01*
X124047207Y-86237117D01*
X124047206Y-86237119D01*
X124002353Y-86365298D01*
X124002353Y-86365300D01*
X123999500Y-86395730D01*
X123999500Y-87604269D01*
X124002353Y-87634699D01*
X124002353Y-87634701D01*
X124046624Y-87761217D01*
X124047207Y-87762882D01*
X124127850Y-87872150D01*
X124237118Y-87952793D01*
X124270046Y-87964315D01*
X124365299Y-87997646D01*
X124395730Y-88000500D01*
X124395734Y-88000500D01*
X124575500Y-88000500D01*
X124642539Y-88020185D01*
X124688294Y-88072989D01*
X124699500Y-88124500D01*
X124699500Y-90924067D01*
X124679815Y-90991106D01*
X124663181Y-91011748D01*
X118245713Y-97429215D01*
X118184390Y-97462700D01*
X118114698Y-97457716D01*
X118058765Y-97415844D01*
X118036415Y-97365729D01*
X118010130Y-97233580D01*
X117930941Y-97042402D01*
X117815977Y-96870345D01*
X117815975Y-96870342D01*
X117669657Y-96724024D01*
X117583626Y-96666541D01*
X117497598Y-96609059D01*
X117453804Y-96590919D01*
X117306420Y-96529870D01*
X117306412Y-96529868D01*
X117103469Y-96489500D01*
X117103465Y-96489500D01*
X116896535Y-96489500D01*
X116896530Y-96489500D01*
X116693587Y-96529868D01*
X116693579Y-96529870D01*
X116502403Y-96609058D01*
X116330342Y-96724024D01*
X116184024Y-96870342D01*
X116069058Y-97042403D01*
X115989870Y-97233579D01*
X115989868Y-97233587D01*
X115949500Y-97436530D01*
X115949500Y-97643469D01*
X115989868Y-97846412D01*
X115989870Y-97846420D01*
X116043534Y-97975977D01*
X116069059Y-98037598D01*
X116118065Y-98110941D01*
X116184024Y-98209657D01*
X116330342Y-98355975D01*
X116330345Y-98355977D01*
X116422681Y-98417673D01*
X116467485Y-98471284D01*
X116476194Y-98540609D01*
X116446039Y-98603637D01*
X116441471Y-98608456D01*
X116086247Y-98963681D01*
X116024924Y-98997166D01*
X115998566Y-99000000D01*
X108424500Y-99000000D01*
X108357461Y-98980315D01*
X108311706Y-98927511D01*
X108300500Y-98876000D01*
X108300500Y-94130247D01*
X115949500Y-94130247D01*
X115949500Y-95869752D01*
X115961131Y-95928229D01*
X115961132Y-95928230D01*
X116005447Y-95994552D01*
X116071769Y-96038867D01*
X116071770Y-96038868D01*
X116130247Y-96050499D01*
X116130250Y-96050500D01*
X116130252Y-96050500D01*
X117869750Y-96050500D01*
X117869751Y-96050499D01*
X117884568Y-96047552D01*
X117928229Y-96038868D01*
X117928229Y-96038867D01*
X117928231Y-96038867D01*
X117994552Y-95994552D01*
X118038867Y-95928231D01*
X118038867Y-95928229D01*
X118038868Y-95928229D01*
X118047552Y-95884568D01*
X118050500Y-95869748D01*
X118050500Y-94130252D01*
X118050500Y-94130249D01*
X118050499Y-94130247D01*
X118038868Y-94071770D01*
X118038867Y-94071769D01*
X117994552Y-94005447D01*
X117928230Y-93961132D01*
X117928229Y-93961131D01*
X117869752Y-93949500D01*
X117869748Y-93949500D01*
X116130252Y-93949500D01*
X116130247Y-93949500D01*
X116071770Y-93961131D01*
X116071769Y-93961132D01*
X116005447Y-94005447D01*
X115961132Y-94071769D01*
X115961131Y-94071770D01*
X115949500Y-94130247D01*
X108300500Y-94130247D01*
X108300500Y-87689133D01*
X108320185Y-87622094D01*
X108336819Y-87601452D01*
X110418189Y-85520082D01*
X131747900Y-85520082D01*
X131747900Y-85632118D01*
X131776897Y-85740337D01*
X131832915Y-85837363D01*
X131912137Y-85916585D01*
X132009163Y-85972603D01*
X132117382Y-86001600D01*
X132117384Y-86001600D01*
X132229416Y-86001600D01*
X132229418Y-86001600D01*
X132337637Y-85972603D01*
X132434663Y-85916585D01*
X132513885Y-85837363D01*
X132569903Y-85740337D01*
X132598900Y-85632118D01*
X132598900Y-85520082D01*
X132569903Y-85411863D01*
X132513885Y-85314837D01*
X132434663Y-85235615D01*
X132340410Y-85181198D01*
X132337639Y-85179598D01*
X132337638Y-85179597D01*
X132337637Y-85179597D01*
X132229418Y-85150600D01*
X132117382Y-85150600D01*
X132009163Y-85179597D01*
X132009160Y-85179598D01*
X131912140Y-85235613D01*
X131912134Y-85235617D01*
X131832917Y-85314834D01*
X131832913Y-85314840D01*
X131776898Y-85411860D01*
X131776897Y-85411863D01*
X131747900Y-85520082D01*
X110418189Y-85520082D01*
X113336652Y-82601619D01*
X113397975Y-82568134D01*
X113424333Y-82565300D01*
X113429516Y-82565300D01*
X113429518Y-82565300D01*
X113537737Y-82536303D01*
X113634763Y-82480285D01*
X113713985Y-82401063D01*
X113770003Y-82304037D01*
X113799000Y-82195818D01*
X113799000Y-82083782D01*
X113770003Y-81975563D01*
X113713985Y-81878537D01*
X113710319Y-81874871D01*
X113676834Y-81813548D01*
X113674000Y-81787190D01*
X113674000Y-80732582D01*
X114574500Y-80732582D01*
X114574500Y-80844618D01*
X114603497Y-80952837D01*
X114659515Y-81049863D01*
X114738737Y-81129085D01*
X114835763Y-81185103D01*
X114943982Y-81214100D01*
X114943984Y-81214100D01*
X115056016Y-81214100D01*
X115056018Y-81214100D01*
X115164237Y-81185103D01*
X115261263Y-81129085D01*
X115340485Y-81049863D01*
X115396503Y-80952837D01*
X115425500Y-80844618D01*
X115425500Y-80732582D01*
X115396503Y-80624363D01*
X115340485Y-80527337D01*
X115261263Y-80448115D01*
X115164237Y-80392097D01*
X115056018Y-80363100D01*
X114943982Y-80363100D01*
X114835763Y-80392097D01*
X114835760Y-80392098D01*
X114738740Y-80448113D01*
X114738734Y-80448117D01*
X114659517Y-80527334D01*
X114659513Y-80527340D01*
X114603498Y-80624360D01*
X114603497Y-80624363D01*
X114574500Y-80732582D01*
X113674000Y-80732582D01*
X113674000Y-79097333D01*
X113693685Y-79030294D01*
X113710319Y-79009652D01*
X117256552Y-75463419D01*
X117317875Y-75429934D01*
X117344233Y-75427100D01*
X117349416Y-75427100D01*
X117349418Y-75427100D01*
X117457637Y-75398103D01*
X117554663Y-75342085D01*
X117633885Y-75262863D01*
X117689903Y-75165837D01*
X117718900Y-75057618D01*
X117718900Y-74945582D01*
X117689903Y-74837363D01*
X117633885Y-74740337D01*
X117554663Y-74661115D01*
X117489979Y-74623769D01*
X117457639Y-74605098D01*
X117457638Y-74605097D01*
X117457637Y-74605097D01*
X117349418Y-74576100D01*
X117237382Y-74576100D01*
X117129163Y-74605097D01*
X117129160Y-74605098D01*
X117032140Y-74661113D01*
X117032134Y-74661117D01*
X116952917Y-74740334D01*
X116952913Y-74740340D01*
X116896898Y-74837360D01*
X116896897Y-74837363D01*
X116867900Y-74945582D01*
X116867900Y-74950767D01*
X116848215Y-75017806D01*
X116831581Y-75038448D01*
X113133041Y-78736987D01*
X113133035Y-78736995D01*
X113093482Y-78805504D01*
X113093479Y-78805509D01*
X113073000Y-78881939D01*
X113073000Y-81787190D01*
X113053315Y-81854229D01*
X113036681Y-81874871D01*
X113033017Y-81878534D01*
X113033013Y-81878540D01*
X112976998Y-81975560D01*
X112976997Y-81975563D01*
X112948000Y-82083782D01*
X112948000Y-82088967D01*
X112928315Y-82156006D01*
X112911681Y-82176648D01*
X107759541Y-87328787D01*
X107759535Y-87328795D01*
X107719982Y-87397304D01*
X107719979Y-87397309D01*
X107706326Y-87448262D01*
X107702481Y-87462615D01*
X107699500Y-87473739D01*
X107699500Y-93671600D01*
X107679815Y-93738639D01*
X107627011Y-93784394D01*
X107575500Y-93795600D01*
X102299210Y-93795600D01*
X102232171Y-93775915D01*
X102211529Y-93759281D01*
X102207865Y-93755617D01*
X102207863Y-93755615D01*
X102127226Y-93709059D01*
X102110839Y-93699598D01*
X102110838Y-93699597D01*
X102110837Y-93699597D01*
X102002618Y-93670600D01*
X101890582Y-93670600D01*
X101782363Y-93699597D01*
X101782360Y-93699598D01*
X101685340Y-93755613D01*
X101685334Y-93755617D01*
X101606117Y-93834834D01*
X101606113Y-93834840D01*
X101550098Y-93931860D01*
X101550097Y-93931863D01*
X101521100Y-94040082D01*
X101521100Y-94152118D01*
X101550097Y-94260337D01*
X101606115Y-94357363D01*
X101685337Y-94436585D01*
X101782363Y-94492603D01*
X101890582Y-94521600D01*
X101890584Y-94521600D01*
X102002616Y-94521600D01*
X102002618Y-94521600D01*
X102110837Y-94492603D01*
X102207863Y-94436585D01*
X102211529Y-94432919D01*
X102272852Y-94399434D01*
X102299210Y-94396600D01*
X107575500Y-94396600D01*
X107642539Y-94416285D01*
X107688294Y-94469089D01*
X107699500Y-94520600D01*
X107699500Y-98876000D01*
X107679815Y-98943039D01*
X107627011Y-98988794D01*
X107575500Y-99000000D01*
X74346600Y-99000000D01*
X74279561Y-98980315D01*
X74233806Y-98927511D01*
X74222600Y-98876000D01*
X74222600Y-90114433D01*
X74242285Y-90047394D01*
X74258919Y-90026752D01*
X74275071Y-90010600D01*
X74318660Y-89967011D01*
X74358222Y-89898488D01*
X74378700Y-89822062D01*
X74378700Y-89742938D01*
X74378700Y-75278638D01*
X74358221Y-75202211D01*
X74344158Y-75177853D01*
X74318664Y-75133695D01*
X74318658Y-75133687D01*
X68987075Y-69802104D01*
X68953590Y-69740781D01*
X68958574Y-69671089D01*
X68960163Y-69667049D01*
X69010130Y-69546420D01*
X69050500Y-69343465D01*
X69050500Y-69136535D01*
X69010130Y-68933580D01*
X68930941Y-68742402D01*
X68815977Y-68570345D01*
X68815975Y-68570342D01*
X68669657Y-68424024D01*
X68583626Y-68366541D01*
X68497598Y-68309059D01*
X68443848Y-68286795D01*
X68306420Y-68229870D01*
X68306412Y-68229868D01*
X68103469Y-68189500D01*
X68103465Y-68189500D01*
X67896535Y-68189500D01*
X67896530Y-68189500D01*
X67693587Y-68229868D01*
X67693575Y-68229871D01*
X67556149Y-68286795D01*
X67486680Y-68294264D01*
X67424201Y-68262989D01*
X67388549Y-68202900D01*
X67391043Y-68133074D01*
X67421014Y-68084556D01*
X67731675Y-67773894D01*
X67792996Y-67740411D01*
X67843546Y-67739960D01*
X67896532Y-67750500D01*
X67896535Y-67750500D01*
X68103466Y-67750500D01*
X68103467Y-67750499D01*
X68306420Y-67710130D01*
X68497598Y-67630941D01*
X68669655Y-67515977D01*
X68815977Y-67369655D01*
X68930941Y-67197598D01*
X69010130Y-67006420D01*
X69012604Y-66993982D01*
X73775700Y-66993982D01*
X73775700Y-67106017D01*
X73804697Y-67214236D01*
X73804698Y-67214239D01*
X73810883Y-67224951D01*
X73860715Y-67311263D01*
X73939937Y-67390485D01*
X74036963Y-67446503D01*
X74145182Y-67475500D01*
X74145184Y-67475500D01*
X74257216Y-67475500D01*
X74257218Y-67475500D01*
X74365437Y-67446503D01*
X74462463Y-67390485D01*
X74541685Y-67311263D01*
X74597703Y-67214237D01*
X74626700Y-67106018D01*
X74626700Y-66993982D01*
X74597703Y-66885763D01*
X74541685Y-66788737D01*
X74462463Y-66709515D01*
X74365437Y-66653497D01*
X74257218Y-66624500D01*
X74145182Y-66624500D01*
X74036963Y-66653497D01*
X74036960Y-66653498D01*
X73939940Y-66709513D01*
X73939934Y-66709517D01*
X73860717Y-66788734D01*
X73860713Y-66788740D01*
X73804698Y-66885760D01*
X73804697Y-66885763D01*
X73775700Y-66993982D01*
X69012604Y-66993982D01*
X69014803Y-66982926D01*
X69019033Y-66961664D01*
X69050499Y-66803469D01*
X69050500Y-66803466D01*
X69050500Y-66596534D01*
X69050499Y-66596530D01*
X69010131Y-66393587D01*
X69010130Y-66393580D01*
X68930941Y-66202402D01*
X68815977Y-66030345D01*
X68815975Y-66030342D01*
X68669657Y-65884024D01*
X68502616Y-65772412D01*
X68497598Y-65769059D01*
X68445002Y-65747273D01*
X68306420Y-65689870D01*
X68306412Y-65689868D01*
X68103469Y-65649500D01*
X68103465Y-65649500D01*
X67896535Y-65649500D01*
X67896530Y-65649500D01*
X67693587Y-65689868D01*
X67693579Y-65689870D01*
X67502403Y-65769058D01*
X67330342Y-65884024D01*
X67184024Y-66030342D01*
X67069058Y-66202403D01*
X66989870Y-66393579D01*
X66989868Y-66393587D01*
X66949500Y-66596530D01*
X66949500Y-66803469D01*
X66989868Y-67006412D01*
X66989870Y-67006420D01*
X67069059Y-67197599D01*
X67168321Y-67346156D01*
X67189199Y-67412833D01*
X67170714Y-67480213D01*
X67152900Y-67502727D01*
X65804319Y-68851309D01*
X65798278Y-68854607D01*
X65794345Y-68860260D01*
X65768002Y-68871139D01*
X65742996Y-68884794D01*
X65736129Y-68884302D01*
X65729766Y-68886931D01*
X65701727Y-68881842D01*
X65673304Y-68879810D01*
X65666151Y-68875386D01*
X65661019Y-68874455D01*
X65639344Y-68858807D01*
X65632049Y-68854296D01*
X65630482Y-68852834D01*
X65552463Y-68774815D01*
X65537754Y-68766322D01*
X65527411Y-68756673D01*
X65516525Y-68738283D01*
X65501780Y-68722816D01*
X65497899Y-68706817D01*
X65491820Y-68696547D01*
X65492292Y-68683700D01*
X65488000Y-68666005D01*
X65488000Y-64056530D01*
X66949500Y-64056530D01*
X66949500Y-64263469D01*
X66989868Y-64466412D01*
X66989870Y-64466420D01*
X67069058Y-64657596D01*
X67184024Y-64829657D01*
X67330342Y-64975975D01*
X67330345Y-64975977D01*
X67502402Y-65090941D01*
X67693580Y-65170130D01*
X67896530Y-65210499D01*
X67896534Y-65210500D01*
X67896535Y-65210500D01*
X68103466Y-65210500D01*
X68103467Y-65210499D01*
X68306420Y-65170130D01*
X68497598Y-65090941D01*
X68669655Y-64975977D01*
X68815977Y-64829655D01*
X68930941Y-64657598D01*
X69010130Y-64466420D01*
X69050500Y-64263465D01*
X69050500Y-64056535D01*
X69010130Y-63853580D01*
X68930941Y-63662402D01*
X68815977Y-63490345D01*
X68815975Y-63490342D01*
X68669657Y-63344024D01*
X68583626Y-63286541D01*
X68497598Y-63229059D01*
X68306420Y-63149870D01*
X68306412Y-63149868D01*
X68103469Y-63109500D01*
X68103465Y-63109500D01*
X67896535Y-63109500D01*
X67896530Y-63109500D01*
X67693587Y-63149868D01*
X67693579Y-63149870D01*
X67502403Y-63229058D01*
X67330342Y-63344024D01*
X67184024Y-63490342D01*
X67069058Y-63662403D01*
X66989870Y-63853579D01*
X66989868Y-63853587D01*
X66949500Y-64056530D01*
X65488000Y-64056530D01*
X65488000Y-62068332D01*
X65507685Y-62001293D01*
X65524314Y-61980656D01*
X65988440Y-61516530D01*
X66949500Y-61516530D01*
X66949500Y-61723469D01*
X66989868Y-61926412D01*
X66989870Y-61926420D01*
X67050717Y-62073318D01*
X67069059Y-62117598D01*
X67091073Y-62150544D01*
X67184024Y-62289657D01*
X67330342Y-62435975D01*
X67330345Y-62435977D01*
X67502402Y-62550941D01*
X67693580Y-62630130D01*
X67896530Y-62670499D01*
X67896534Y-62670500D01*
X67896535Y-62670500D01*
X68103466Y-62670500D01*
X68103467Y-62670499D01*
X68306420Y-62630130D01*
X68497598Y-62550941D01*
X68669655Y-62435977D01*
X68815977Y-62289655D01*
X68930941Y-62117598D01*
X69010130Y-61926420D01*
X69050500Y-61723465D01*
X69050500Y-61516535D01*
X69010130Y-61313580D01*
X68930941Y-61122402D01*
X68815977Y-60950345D01*
X68815975Y-60950342D01*
X68669657Y-60804024D01*
X68526569Y-60708417D01*
X68497598Y-60689059D01*
X68483122Y-60683063D01*
X68306420Y-60609870D01*
X68306412Y-60609868D01*
X68103469Y-60569500D01*
X68103465Y-60569500D01*
X67896535Y-60569500D01*
X67896530Y-60569500D01*
X67693587Y-60609868D01*
X67693579Y-60609870D01*
X67502403Y-60689058D01*
X67330342Y-60804024D01*
X67184024Y-60950342D01*
X67069058Y-61122403D01*
X66989870Y-61313579D01*
X66989868Y-61313587D01*
X66949500Y-61516530D01*
X65988440Y-61516530D01*
X67437896Y-60067073D01*
X67499217Y-60033590D01*
X67568909Y-60038574D01*
X67573007Y-60040186D01*
X67693580Y-60090130D01*
X67896530Y-60130499D01*
X67896534Y-60130500D01*
X67896535Y-60130500D01*
X68103466Y-60130500D01*
X68103467Y-60130499D01*
X68306420Y-60090130D01*
X68497598Y-60010941D01*
X68669655Y-59895977D01*
X68815977Y-59749655D01*
X68930941Y-59577598D01*
X69010130Y-59386420D01*
X69050500Y-59183465D01*
X69050500Y-58976535D01*
X69010130Y-58773580D01*
X68930941Y-58582402D01*
X68815977Y-58410345D01*
X68815975Y-58410342D01*
X68669657Y-58264024D01*
X68583626Y-58206541D01*
X68497598Y-58149059D01*
X68306420Y-58069870D01*
X68306412Y-58069868D01*
X68103469Y-58029500D01*
X68103465Y-58029500D01*
X67896535Y-58029500D01*
X67896530Y-58029500D01*
X67693587Y-58069868D01*
X67693579Y-58069870D01*
X67502403Y-58149058D01*
X67330342Y-58264024D01*
X67184024Y-58410342D01*
X67069058Y-58582403D01*
X66989870Y-58773579D01*
X66989868Y-58773587D01*
X66949500Y-58976530D01*
X66949500Y-59183469D01*
X66989868Y-59386412D01*
X66989871Y-59386424D01*
X67039803Y-59506971D01*
X67047272Y-59576440D01*
X67015997Y-59638919D01*
X67012923Y-59642104D01*
X65002989Y-61652040D01*
X64947041Y-61707987D01*
X64947035Y-61707995D01*
X64907482Y-61776504D01*
X64907479Y-61776509D01*
X64887000Y-61852939D01*
X64887000Y-68835867D01*
X64867315Y-68902906D01*
X64850681Y-68923548D01*
X56221181Y-77553048D01*
X56159858Y-77586533D01*
X56090166Y-77581549D01*
X56034233Y-77539677D01*
X56009816Y-77474213D01*
X56009500Y-77465367D01*
X56009500Y-75720539D01*
X56009500Y-75720538D01*
X55989021Y-75644111D01*
X55986612Y-75639938D01*
X55949464Y-75575595D01*
X55949458Y-75575587D01*
X55280019Y-74906148D01*
X55246534Y-74844825D01*
X55243700Y-74818467D01*
X55243700Y-74813284D01*
X55243700Y-74813282D01*
X55214703Y-74705063D01*
X55158685Y-74608037D01*
X55079463Y-74528815D01*
X54982437Y-74472797D01*
X54874218Y-74443800D01*
X54762182Y-74443800D01*
X54754055Y-74443800D01*
X54754055Y-74441325D01*
X54697335Y-74432473D01*
X54645085Y-74386086D01*
X54626200Y-74320307D01*
X54626200Y-61961282D01*
X63462500Y-61961282D01*
X63462500Y-62073318D01*
X63491497Y-62181537D01*
X63547515Y-62278563D01*
X63626737Y-62357785D01*
X63723763Y-62413803D01*
X63831982Y-62442800D01*
X63831984Y-62442800D01*
X63944016Y-62442800D01*
X63944018Y-62442800D01*
X64052237Y-62413803D01*
X64149263Y-62357785D01*
X64228485Y-62278563D01*
X64284503Y-62181537D01*
X64313500Y-62073318D01*
X64313500Y-61961282D01*
X64284503Y-61853063D01*
X64228485Y-61756037D01*
X64224819Y-61752371D01*
X64191334Y-61691048D01*
X64188500Y-61664690D01*
X64188500Y-59198433D01*
X64208185Y-59131394D01*
X64224819Y-59110752D01*
X67852652Y-55482919D01*
X67913975Y-55449434D01*
X67940333Y-55446600D01*
X68949460Y-55446600D01*
X68949462Y-55446600D01*
X69025889Y-55426121D01*
X69094411Y-55386560D01*
X69150360Y-55330611D01*
X72633860Y-51847111D01*
X72673421Y-51778589D01*
X72693900Y-51702162D01*
X72693900Y-20352610D01*
X72713585Y-20285571D01*
X72730219Y-20264929D01*
X72733885Y-20261263D01*
X72789903Y-20164237D01*
X72818900Y-20056018D01*
X72818900Y-19943982D01*
X72789903Y-19835763D01*
X72733885Y-19738737D01*
X72654663Y-19659515D01*
X72557637Y-19603497D01*
X72449418Y-19574500D01*
X72337382Y-19574500D01*
X72229163Y-19603497D01*
X72229160Y-19603498D01*
X72132140Y-19659513D01*
X72132134Y-19659517D01*
X72052917Y-19738734D01*
X72052913Y-19738740D01*
X71996898Y-19835760D01*
X71996897Y-19835763D01*
X71967900Y-19943982D01*
X71967900Y-20056018D01*
X71996897Y-20164237D01*
X72052915Y-20261263D01*
X72052917Y-20261265D01*
X72056581Y-20264929D01*
X72090066Y-20326252D01*
X72092900Y-20352610D01*
X72092900Y-51486767D01*
X72073215Y-51553806D01*
X72056581Y-51574448D01*
X69262181Y-54368848D01*
X69200858Y-54402333D01*
X69131166Y-54397349D01*
X69075233Y-54355477D01*
X69050816Y-54290013D01*
X69050500Y-54281167D01*
X69050500Y-53130249D01*
X69050499Y-53130247D01*
X69038868Y-53071770D01*
X69038867Y-53071769D01*
X68994552Y-53005447D01*
X68928230Y-52961132D01*
X68928229Y-52961131D01*
X68869752Y-52949500D01*
X68869748Y-52949500D01*
X67130252Y-52949500D01*
X67130247Y-52949500D01*
X67071770Y-52961131D01*
X67071769Y-52961132D01*
X67005447Y-53005447D01*
X66961132Y-53071769D01*
X66961131Y-53071770D01*
X66949500Y-53130247D01*
X66949500Y-54869752D01*
X66961131Y-54928229D01*
X66961132Y-54928230D01*
X67005447Y-54994552D01*
X67071769Y-55038867D01*
X67071770Y-55038868D01*
X67130247Y-55050499D01*
X67130250Y-55050500D01*
X67130252Y-55050500D01*
X67135767Y-55050500D01*
X67202806Y-55070185D01*
X67248561Y-55122989D01*
X67258505Y-55192147D01*
X67229480Y-55255703D01*
X67223448Y-55262181D01*
X63647541Y-58838087D01*
X63647535Y-58838095D01*
X63607982Y-58906604D01*
X63607979Y-58906609D01*
X63587500Y-58983039D01*
X63587500Y-61664690D01*
X63567815Y-61731729D01*
X63551181Y-61752371D01*
X63547517Y-61756034D01*
X63547513Y-61756040D01*
X63491498Y-61853060D01*
X63491497Y-61853063D01*
X63462500Y-61961282D01*
X54626200Y-61961282D01*
X54626200Y-48124000D01*
X54645885Y-48056961D01*
X54698689Y-48011206D01*
X54750200Y-48000000D01*
X58000000Y-48000000D01*
X58000000Y-37093539D01*
X58019685Y-37026500D01*
X58072489Y-36980745D01*
X58141647Y-36970801D01*
X58185995Y-36986150D01*
X58236663Y-37015403D01*
X58344882Y-37044400D01*
X58344884Y-37044400D01*
X58456916Y-37044400D01*
X58456918Y-37044400D01*
X58565137Y-37015403D01*
X58662163Y-36959385D01*
X58741385Y-36880163D01*
X58797403Y-36783137D01*
X58826400Y-36674918D01*
X58826400Y-36562882D01*
X58797403Y-36454663D01*
X58741385Y-36357637D01*
X58662163Y-36278415D01*
X58565137Y-36222397D01*
X58456918Y-36193400D01*
X58344882Y-36193400D01*
X58236663Y-36222397D01*
X58236660Y-36222398D01*
X58186000Y-36251647D01*
X58118099Y-36268120D01*
X58052073Y-36245267D01*
X58008882Y-36190346D01*
X58000000Y-36144260D01*
X58000000Y-33305419D01*
X58019685Y-33238380D01*
X58072489Y-33192625D01*
X58141647Y-33182681D01*
X58185995Y-33198029D01*
X58247263Y-33233403D01*
X58355482Y-33262400D01*
X58355484Y-33262400D01*
X58467516Y-33262400D01*
X58467518Y-33262400D01*
X58575737Y-33233403D01*
X58672763Y-33177385D01*
X58751985Y-33098163D01*
X58808003Y-33001137D01*
X58837000Y-32892918D01*
X58837000Y-32780882D01*
X58808003Y-32672663D01*
X58751985Y-32575637D01*
X58751981Y-32575633D01*
X58748186Y-32570688D01*
X58722988Y-32505520D01*
X58737023Y-32437074D01*
X58739171Y-32433195D01*
X58741381Y-32429366D01*
X58741385Y-32429363D01*
X58797403Y-32332337D01*
X58826400Y-32224118D01*
X58826400Y-32112082D01*
X58797403Y-32003863D01*
X58741385Y-31906837D01*
X58662163Y-31827615D01*
X58565137Y-31771597D01*
X58456918Y-31742600D01*
X58344882Y-31742600D01*
X58236663Y-31771597D01*
X58236660Y-31771598D01*
X58186000Y-31800847D01*
X58118099Y-31817320D01*
X58052073Y-31794467D01*
X58008882Y-31739546D01*
X58000000Y-31693460D01*
X58000000Y-26369033D01*
X58019685Y-26301994D01*
X58036319Y-26281352D01*
X58341552Y-25976119D01*
X58402875Y-25942634D01*
X58429233Y-25939800D01*
X58434416Y-25939800D01*
X58434418Y-25939800D01*
X58542637Y-25910803D01*
X58639663Y-25854785D01*
X58718885Y-25775563D01*
X58774903Y-25678537D01*
X58803900Y-25570318D01*
X58803900Y-25458282D01*
X58774903Y-25350063D01*
X58718885Y-25253037D01*
X58639663Y-25173815D01*
X58559746Y-25127675D01*
X58542639Y-25117798D01*
X58542638Y-25117797D01*
X58542637Y-25117797D01*
X58434418Y-25088800D01*
X58322382Y-25088800D01*
X58214163Y-25117797D01*
X58214158Y-25117799D01*
X58185998Y-25134057D01*
X58118098Y-25150528D01*
X58052071Y-25127675D01*
X58008882Y-25072753D01*
X58000000Y-25026669D01*
X58000000Y-23685233D01*
X58019685Y-23618194D01*
X58036319Y-23597552D01*
X66901089Y-14732782D01*
X71424500Y-14732782D01*
X71424500Y-14844818D01*
X71453497Y-14953037D01*
X71509515Y-15050063D01*
X71588737Y-15129285D01*
X71685763Y-15185303D01*
X71793982Y-15214300D01*
X71793984Y-15214300D01*
X71906016Y-15214300D01*
X71906018Y-15214300D01*
X72014237Y-15185303D01*
X72111263Y-15129285D01*
X72190485Y-15050063D01*
X72246503Y-14953037D01*
X72275500Y-14844818D01*
X72275500Y-14732782D01*
X72246503Y-14624563D01*
X72190485Y-14527537D01*
X72111263Y-14448315D01*
X72014237Y-14392297D01*
X71906018Y-14363300D01*
X71793982Y-14363300D01*
X71685763Y-14392297D01*
X71685760Y-14392298D01*
X71588740Y-14448313D01*
X71588734Y-14448317D01*
X71509517Y-14527534D01*
X71509513Y-14527540D01*
X71453498Y-14624560D01*
X71453497Y-14624563D01*
X71424500Y-14732782D01*
X66901089Y-14732782D01*
X69077052Y-12556819D01*
X69138375Y-12523334D01*
X69164733Y-12520500D01*
X69169916Y-12520500D01*
X69169918Y-12520500D01*
X69278137Y-12491503D01*
X69375163Y-12435485D01*
X69454385Y-12356263D01*
X69510403Y-12259237D01*
X69539400Y-12151018D01*
X69539400Y-12038982D01*
X69510403Y-11930763D01*
X69454385Y-11833737D01*
X69375163Y-11754515D01*
X69278137Y-11698497D01*
X69169918Y-11669500D01*
X69057882Y-11669500D01*
X68949663Y-11698497D01*
X68949660Y-11698498D01*
X68852640Y-11754513D01*
X68852634Y-11754517D01*
X68773417Y-11833734D01*
X68773413Y-11833740D01*
X68717398Y-11930760D01*
X68717397Y-11930763D01*
X68688400Y-12038982D01*
X68688400Y-12044167D01*
X68668715Y-12111206D01*
X68652081Y-12131848D01*
X58211681Y-22572248D01*
X58150358Y-22605733D01*
X58080666Y-22600749D01*
X58024733Y-22558877D01*
X58000316Y-22493413D01*
X58000000Y-22484567D01*
X58000000Y-8822382D01*
X80454300Y-8822382D01*
X80454300Y-8934418D01*
X80483297Y-9042637D01*
X80539315Y-9139663D01*
X80618537Y-9218885D01*
X80715563Y-9274903D01*
X80823782Y-9303900D01*
X80823784Y-9303900D01*
X80935816Y-9303900D01*
X80935818Y-9303900D01*
X81044037Y-9274903D01*
X81141063Y-9218885D01*
X81220285Y-9139663D01*
X81276303Y-9042637D01*
X81305300Y-8934418D01*
X81305300Y-8822382D01*
X81276303Y-8714163D01*
X81220285Y-8617137D01*
X81141063Y-8537915D01*
X81044037Y-8481897D01*
X80935818Y-8452900D01*
X80823782Y-8452900D01*
X80715563Y-8481897D01*
X80715560Y-8481898D01*
X80618540Y-8537913D01*
X80618534Y-8537917D01*
X80539317Y-8617134D01*
X80539313Y-8617140D01*
X80483298Y-8714160D01*
X80483297Y-8714163D01*
X80454300Y-8822382D01*
X58000000Y-8822382D01*
X58000000Y-1124000D01*
X58019685Y-1056961D01*
X58072489Y-1011206D01*
X58124000Y-1000000D01*
X158876000Y-1000000D01*
X158943039Y-1019685D01*
G37*
%TD.AperFunction*%
%TA.AperFunction,Conductor*%
G36*
X66975568Y-68632516D02*
G01*
X67031501Y-68674388D01*
X67055918Y-68739852D01*
X67046795Y-68796151D01*
X66989870Y-68933579D01*
X66989868Y-68933587D01*
X66949500Y-69136530D01*
X66949500Y-69343469D01*
X66989868Y-69546412D01*
X66989870Y-69546420D01*
X67069058Y-69737596D01*
X67184024Y-69909657D01*
X67330342Y-70055975D01*
X67330345Y-70055977D01*
X67502402Y-70170941D01*
X67693580Y-70250130D01*
X67896530Y-70290499D01*
X67896534Y-70290500D01*
X67896535Y-70290500D01*
X68103466Y-70290500D01*
X68103467Y-70290499D01*
X68306420Y-70250130D01*
X68426974Y-70200194D01*
X68496438Y-70192726D01*
X68558918Y-70224000D01*
X68562104Y-70227075D01*
X73741381Y-75406352D01*
X73774866Y-75467675D01*
X73777700Y-75494033D01*
X73777700Y-80543824D01*
X73758015Y-80610863D01*
X73705211Y-80656618D01*
X73637515Y-80666763D01*
X73631719Y-80666000D01*
X73631718Y-80666000D01*
X73519682Y-80666000D01*
X73411463Y-80694997D01*
X73411460Y-80694998D01*
X73314440Y-80751013D01*
X73314434Y-80751017D01*
X73229468Y-80835984D01*
X73227527Y-80834043D01*
X73181927Y-80867328D01*
X73112180Y-80871470D01*
X73051266Y-80837247D01*
X73018524Y-80775524D01*
X73016000Y-80750631D01*
X73016000Y-77149110D01*
X73035685Y-77082071D01*
X73052319Y-77061429D01*
X73055000Y-77058748D01*
X73075485Y-77038263D01*
X73131503Y-76941237D01*
X73160500Y-76833018D01*
X73160500Y-76720982D01*
X73131503Y-76612763D01*
X73075485Y-76515737D01*
X72996263Y-76436515D01*
X72899237Y-76380497D01*
X72791018Y-76351500D01*
X72678982Y-76351500D01*
X72570763Y-76380497D01*
X72570760Y-76380498D01*
X72473740Y-76436513D01*
X72473734Y-76436517D01*
X72394517Y-76515734D01*
X72394513Y-76515740D01*
X72338498Y-76612760D01*
X72338497Y-76612763D01*
X72309500Y-76720982D01*
X72309500Y-76833018D01*
X72338497Y-76941237D01*
X72389807Y-77030109D01*
X72398387Y-77044969D01*
X72415000Y-77106969D01*
X72415000Y-85630667D01*
X72395315Y-85697706D01*
X72342511Y-85743461D01*
X72273353Y-85753405D01*
X72209797Y-85724380D01*
X72203319Y-85718348D01*
X68987075Y-82502104D01*
X68953590Y-82440781D01*
X68958574Y-82371089D01*
X68960163Y-82367049D01*
X69010130Y-82246420D01*
X69050500Y-82043465D01*
X69050500Y-81836535D01*
X69010130Y-81633580D01*
X68930941Y-81442402D01*
X68815977Y-81270345D01*
X68815975Y-81270342D01*
X68669657Y-81124024D01*
X68558660Y-81049859D01*
X68497598Y-81009059D01*
X68434971Y-80983118D01*
X68306420Y-80929870D01*
X68306412Y-80929868D01*
X68103469Y-80889500D01*
X68103465Y-80889500D01*
X67896535Y-80889500D01*
X67896530Y-80889500D01*
X67693587Y-80929868D01*
X67693579Y-80929870D01*
X67502403Y-81009058D01*
X67330342Y-81124024D01*
X67184024Y-81270342D01*
X67069058Y-81442403D01*
X66989870Y-81633579D01*
X66989868Y-81633587D01*
X66949500Y-81836530D01*
X66949500Y-82043469D01*
X66989868Y-82246412D01*
X66989870Y-82246420D01*
X67053925Y-82401063D01*
X67069059Y-82437598D01*
X67097582Y-82480286D01*
X67184024Y-82609657D01*
X67330342Y-82755975D01*
X67330345Y-82755977D01*
X67502402Y-82870941D01*
X67693580Y-82950130D01*
X67837861Y-82978829D01*
X67896530Y-82990499D01*
X67896534Y-82990500D01*
X67896535Y-82990500D01*
X68103466Y-82990500D01*
X68103467Y-82990499D01*
X68306420Y-82950130D01*
X68426974Y-82900194D01*
X68496438Y-82892726D01*
X68558918Y-82924000D01*
X68562104Y-82927075D01*
X71575933Y-85940904D01*
X71609418Y-86002227D01*
X71604434Y-86071919D01*
X71562562Y-86127852D01*
X71550255Y-86135970D01*
X71534943Y-86144810D01*
X71534934Y-86144817D01*
X71455717Y-86224034D01*
X71455713Y-86224040D01*
X71399698Y-86321060D01*
X71399697Y-86321063D01*
X71370700Y-86429282D01*
X71370700Y-86541318D01*
X71399697Y-86649537D01*
X71455715Y-86746563D01*
X71455717Y-86746565D01*
X71459381Y-86750229D01*
X71492866Y-86811552D01*
X71495700Y-86837910D01*
X71495700Y-93311367D01*
X71476015Y-93378406D01*
X71423211Y-93424161D01*
X71354053Y-93434105D01*
X71290497Y-93405080D01*
X71284019Y-93399048D01*
X68531492Y-90646521D01*
X68498007Y-90585198D01*
X68502991Y-90515506D01*
X68544863Y-90459573D01*
X68550251Y-90455759D01*
X68669655Y-90375977D01*
X68815977Y-90229655D01*
X68930941Y-90057598D01*
X69010130Y-89866420D01*
X69050500Y-89663465D01*
X69050500Y-89456535D01*
X69010130Y-89253580D01*
X68930941Y-89062402D01*
X68815977Y-88890345D01*
X68815975Y-88890342D01*
X68669657Y-88744024D01*
X68560007Y-88670759D01*
X68497598Y-88629059D01*
X68468217Y-88616889D01*
X68306420Y-88549870D01*
X68306412Y-88549868D01*
X68103469Y-88509500D01*
X68103465Y-88509500D01*
X67896535Y-88509500D01*
X67896530Y-88509500D01*
X67693587Y-88549868D01*
X67693579Y-88549870D01*
X67502403Y-88629058D01*
X67330342Y-88744024D01*
X67184024Y-88890342D01*
X67069058Y-89062403D01*
X66989870Y-89253579D01*
X66989868Y-89253585D01*
X66954525Y-89431267D01*
X66922140Y-89493178D01*
X66861424Y-89527752D01*
X66791655Y-89524012D01*
X66745227Y-89494756D01*
X63376419Y-86125948D01*
X63342934Y-86064625D01*
X63340100Y-86038267D01*
X63340100Y-77582082D01*
X64788200Y-77582082D01*
X64788200Y-77694118D01*
X64814144Y-77790941D01*
X64817197Y-77802336D01*
X64817198Y-77802339D01*
X64822323Y-77811215D01*
X64873215Y-77899363D01*
X64952437Y-77978585D01*
X65049463Y-78034603D01*
X65157682Y-78063600D01*
X65157684Y-78063600D01*
X65269716Y-78063600D01*
X65269718Y-78063600D01*
X65377937Y-78034603D01*
X65474963Y-77978585D01*
X65554185Y-77899363D01*
X65610203Y-77802337D01*
X65639200Y-77694118D01*
X65639200Y-77582082D01*
X65610203Y-77473863D01*
X65554185Y-77376837D01*
X65474963Y-77297615D01*
X65377937Y-77241597D01*
X65269718Y-77212600D01*
X65157682Y-77212600D01*
X65049463Y-77241597D01*
X65049460Y-77241598D01*
X64952440Y-77297613D01*
X64952434Y-77297617D01*
X64873217Y-77376834D01*
X64873213Y-77376840D01*
X64817198Y-77473860D01*
X64817197Y-77473863D01*
X64788200Y-77582082D01*
X63340100Y-77582082D01*
X63340100Y-74216530D01*
X66949500Y-74216530D01*
X66949500Y-74423469D01*
X66989868Y-74626412D01*
X66989870Y-74626420D01*
X67064227Y-74805934D01*
X67069059Y-74817598D01*
X67105951Y-74872811D01*
X67184024Y-74989657D01*
X67330342Y-75135975D01*
X67330345Y-75135977D01*
X67502402Y-75250941D01*
X67693580Y-75330130D01*
X67875083Y-75366233D01*
X67896530Y-75370499D01*
X67896534Y-75370500D01*
X67896535Y-75370500D01*
X68103466Y-75370500D01*
X68103467Y-75370499D01*
X68306420Y-75330130D01*
X68497598Y-75250941D01*
X68669655Y-75135977D01*
X68815977Y-74989655D01*
X68930941Y-74817598D01*
X69010130Y-74626420D01*
X69050500Y-74423465D01*
X69050500Y-74216535D01*
X69010130Y-74013580D01*
X68930941Y-73822402D01*
X68815977Y-73650345D01*
X68815975Y-73650342D01*
X68669657Y-73504024D01*
X68502616Y-73392412D01*
X68497598Y-73389059D01*
X68306420Y-73309870D01*
X68306412Y-73309868D01*
X68103469Y-73269500D01*
X68103465Y-73269500D01*
X67896535Y-73269500D01*
X67896530Y-73269500D01*
X67693587Y-73309868D01*
X67693579Y-73309870D01*
X67502403Y-73389058D01*
X67330342Y-73504024D01*
X67184024Y-73650342D01*
X67069058Y-73822403D01*
X66989870Y-74013579D01*
X66989868Y-74013587D01*
X66949500Y-74216530D01*
X63340100Y-74216530D01*
X63340100Y-72690510D01*
X63359785Y-72623471D01*
X63376419Y-72602829D01*
X63378585Y-72600663D01*
X63434603Y-72503637D01*
X63463600Y-72395418D01*
X63463600Y-72283382D01*
X63434603Y-72175163D01*
X63378585Y-72078137D01*
X63300390Y-71999942D01*
X63266905Y-71938619D01*
X63271889Y-71868927D01*
X63300390Y-71824580D01*
X63448440Y-71676530D01*
X66949500Y-71676530D01*
X66949500Y-71883469D01*
X66989868Y-72086412D01*
X66989870Y-72086420D01*
X67044594Y-72218536D01*
X67069059Y-72277598D01*
X67100663Y-72324897D01*
X67184024Y-72449657D01*
X67330342Y-72595975D01*
X67330345Y-72595977D01*
X67502402Y-72710941D01*
X67693580Y-72790130D01*
X67896530Y-72830499D01*
X67896534Y-72830500D01*
X67896535Y-72830500D01*
X68103466Y-72830500D01*
X68103467Y-72830499D01*
X68306420Y-72790130D01*
X68497598Y-72710941D01*
X68669655Y-72595977D01*
X68815977Y-72449655D01*
X68930941Y-72277598D01*
X69010130Y-72086420D01*
X69050500Y-71883465D01*
X69050500Y-71676535D01*
X69010130Y-71473580D01*
X68930941Y-71282402D01*
X68815977Y-71110345D01*
X68815975Y-71110342D01*
X68669657Y-70964024D01*
X68583626Y-70906541D01*
X68497598Y-70849059D01*
X68306420Y-70769870D01*
X68306412Y-70769868D01*
X68103469Y-70729500D01*
X68103465Y-70729500D01*
X67896535Y-70729500D01*
X67896530Y-70729500D01*
X67693587Y-70769868D01*
X67693579Y-70769870D01*
X67502403Y-70849058D01*
X67330342Y-70964024D01*
X67184024Y-71110342D01*
X67069058Y-71282403D01*
X66989870Y-71473579D01*
X66989868Y-71473587D01*
X66949500Y-71676530D01*
X63448440Y-71676530D01*
X63542208Y-71582762D01*
X64270353Y-70854618D01*
X65196152Y-69928819D01*
X65257475Y-69895334D01*
X65283833Y-69892500D01*
X65528160Y-69892500D01*
X65528162Y-69892500D01*
X65604589Y-69872021D01*
X65673111Y-69832460D01*
X65729060Y-69776511D01*
X66844554Y-68661016D01*
X66905876Y-68627532D01*
X66975568Y-68632516D01*
G37*
%TD.AperFunction*%
%TD*%
M02*
