%TF.GenerationSoftware,KiCad,Pcbnew,10.0.3*%
%TF.CreationDate,2026-06-03T05:27:32+02:00*%
%TF.ProjectId,quantum_mind_uwb_rtls_anchor_v3_0,7175616e-7475-46d5-9f6d-696e645f7577,rev?*%
%TF.SameCoordinates,Original*%
%TF.FileFunction,Other,User*%
%FSLAX46Y46*%
G04 Gerber Fmt 4.6, Leading zero omitted, Abs format (unit mm)*
G04 Created by KiCad (PCBNEW 10.0.3) date 2026-06-03 05:27:32*
%MOMM*%
%LPD*%
G01*
G04 APERTURE LIST*
%ADD10C,0.050000*%
G04 APERTURE END LIST*
%TO.C,SW2*%
D10*
X194950000Y-120600000D02*
X194950000Y-127400000D01*
X194950000Y-120600000D02*
X205050000Y-120600000D01*
X194950000Y-127400000D02*
X205050000Y-127400000D01*
X205050000Y-127400000D02*
X205050000Y-120600000D01*
%TO.C,C11*%
X72300000Y-97020000D02*
X75700000Y-97020000D01*
X75700000Y-98980000D01*
X72300000Y-98980000D01*
X72300000Y-97020000D01*
%TO.C,C_X1A*%
X76520000Y-85270000D02*
X79480000Y-85270000D01*
X79480000Y-86730000D01*
X76520000Y-86730000D01*
X76520000Y-85270000D01*
%TO.C,C21*%
X9700000Y-86850000D02*
X14300000Y-86850000D01*
X14300000Y-89150000D01*
X9700000Y-89150000D01*
X9700000Y-86850000D01*
%TO.C,SW1*%
X55950000Y-117600000D02*
X55950000Y-124400000D01*
X55950000Y-117600000D02*
X66050000Y-117600000D01*
X55950000Y-124400000D02*
X66050000Y-124400000D01*
X66050000Y-124400000D02*
X66050000Y-117600000D01*
%TO.C,R34*%
X194320000Y-95050000D02*
X197680000Y-95050000D01*
X197680000Y-96950000D01*
X194320000Y-96950000D01*
X194320000Y-95050000D01*
%TO.C,C24*%
X100300000Y-93020000D02*
X103700000Y-93020000D01*
X103700000Y-94980000D01*
X100300000Y-94980000D01*
X100300000Y-93020000D01*
%TO.C,C25*%
X35300000Y-96020000D02*
X38700000Y-96020000D01*
X38700000Y-97980000D01*
X35300000Y-97980000D01*
X35300000Y-96020000D01*
%TO.C,R39*%
X10520000Y-79270000D02*
X13480000Y-79270000D01*
X13480000Y-80730000D01*
X10520000Y-80730000D01*
X10520000Y-79270000D01*
%TO.C,C14*%
X123300000Y-94020000D02*
X126700000Y-94020000D01*
X126700000Y-95980000D01*
X123300000Y-95980000D01*
X123300000Y-94020000D01*
%TO.C,R1*%
X105320000Y-88050000D02*
X108680000Y-88050000D01*
X108680000Y-89950000D01*
X105320000Y-89950000D01*
X105320000Y-88050000D01*
%TO.C,C35*%
X93520000Y-92270000D02*
X96480000Y-92270000D01*
X96480000Y-93730000D01*
X93520000Y-93730000D01*
X93520000Y-92270000D01*
%TO.C,C96*%
X66520000Y-7270000D02*
X69480000Y-7270000D01*
X69480000Y-8730000D01*
X66520000Y-8730000D01*
X66520000Y-7270000D01*
%TO.C,C29*%
X192520000Y-81270000D02*
X195480000Y-81270000D01*
X195480000Y-82730000D01*
X192520000Y-82730000D01*
X192520000Y-81270000D01*
%TO.C,F2*%
X193720000Y-110870000D02*
X198280000Y-110870000D01*
X198280000Y-113130000D01*
X193720000Y-113130000D01*
X193720000Y-110870000D01*
%TO.C,TP8*%
X9850000Y-92650000D02*
X14150000Y-92650000D01*
X9850000Y-95350000D02*
X9850000Y-92650000D01*
X14150000Y-92650000D02*
X14150000Y-95350000D01*
X14150000Y-95350000D02*
X9850000Y-95350000D01*
%TO.C,C7*%
X176300000Y-125020000D02*
X179700000Y-125020000D01*
X179700000Y-126980000D01*
X176300000Y-126980000D01*
X176300000Y-125020000D01*
%TO.C,C40*%
X122520000Y-134270000D02*
X125480000Y-134270000D01*
X125480000Y-135730000D01*
X122520000Y-135730000D01*
X122520000Y-134270000D01*
%TO.C,R15*%
X74320000Y-93050000D02*
X77680000Y-93050000D01*
X77680000Y-94950000D01*
X74320000Y-94950000D01*
X74320000Y-93050000D01*
%TO.C,C17*%
X147520000Y-127270000D02*
X150480000Y-127270000D01*
X150480000Y-128730000D01*
X147520000Y-128730000D01*
X147520000Y-127270000D01*
%TO.C,R43*%
X75070000Y-79530000D02*
X76930000Y-79530000D01*
X76930000Y-80470000D01*
X75070000Y-80470000D01*
X75070000Y-79530000D01*
%TO.C,TP13*%
X179850000Y-116650000D02*
X184150000Y-116650000D01*
X179850000Y-119350000D02*
X179850000Y-116650000D01*
X184150000Y-116650000D02*
X184150000Y-119350000D01*
X184150000Y-119350000D02*
X179850000Y-119350000D01*
%TO.C,D4*%
X164400000Y-61050000D02*
X164400000Y-62950000D01*
X164400000Y-61050000D02*
X167600000Y-61050000D01*
X164400000Y-62950000D02*
X167600000Y-62950000D01*
X167600000Y-61050000D02*
X167600000Y-62950000D01*
%TO.C,R33*%
X184320000Y-89050000D02*
X187680000Y-89050000D01*
X187680000Y-90950000D01*
X184320000Y-90950000D01*
X184320000Y-89050000D01*
%TO.C,R42*%
X154320000Y-79050000D02*
X157680000Y-79050000D01*
X157680000Y-80950000D01*
X154320000Y-80950000D01*
X154320000Y-79050000D01*
%TO.C,C6*%
X151300000Y-119020000D02*
X154700000Y-119020000D01*
X154700000Y-120980000D01*
X151300000Y-120980000D01*
X151300000Y-119020000D01*
%TO.C,R23*%
X64320000Y-113050000D02*
X67680000Y-113050000D01*
X67680000Y-114950000D01*
X64320000Y-114950000D01*
X64320000Y-113050000D01*
%TO.C,D6*%
X207500000Y-60250000D02*
X214500000Y-60250000D01*
X207500000Y-63750000D02*
X207500000Y-60250000D01*
X214500000Y-60250000D02*
X214500000Y-63750000D01*
X214500000Y-63750000D02*
X207500000Y-63750000D01*
%TO.C,TP3*%
X52850000Y-129650000D02*
X57150000Y-129650000D01*
X52850000Y-132350000D02*
X52850000Y-129650000D01*
X57150000Y-129650000D02*
X57150000Y-132350000D01*
X57150000Y-132350000D02*
X52850000Y-132350000D01*
%TO.C,FB1*%
X198520000Y-99270000D02*
X201480000Y-99270000D01*
X201480000Y-100730000D01*
X198520000Y-100730000D01*
X198520000Y-99270000D01*
%TO.C,C19*%
X206520000Y-91270000D02*
X209480000Y-91270000D01*
X209480000Y-92730000D01*
X206520000Y-92730000D01*
X206520000Y-91270000D01*
%TO.C,C91*%
X133520000Y-12270000D02*
X136480000Y-12270000D01*
X136480000Y-13730000D01*
X133520000Y-13730000D01*
X133520000Y-12270000D01*
%TO.C,U14*%
X159950000Y-100500000D02*
X160950000Y-100500000D01*
X159950000Y-103500000D02*
X159950000Y-100500000D01*
X160950000Y-100300000D02*
X163050000Y-100300000D01*
X160950000Y-100500000D02*
X160950000Y-100300000D01*
X160950000Y-103500000D02*
X159950000Y-103500000D01*
X160950000Y-103700000D02*
X160950000Y-103500000D01*
X163050000Y-100300000D02*
X163050000Y-100500000D01*
X163050000Y-100500000D02*
X164050000Y-100500000D01*
X163050000Y-103500000D02*
X163050000Y-103700000D01*
X163050000Y-103700000D02*
X160950000Y-103700000D01*
X164050000Y-100500000D02*
X164050000Y-103500000D01*
X164050000Y-103500000D02*
X163050000Y-103500000D01*
%TO.C,J10*%
X138230000Y-91230000D02*
X141770000Y-91230000D01*
X141770000Y-107470000D01*
X138230000Y-107470000D01*
X138230000Y-91230000D01*
%TO.C,C42*%
X145520000Y-134270000D02*
X148480000Y-134270000D01*
X148480000Y-135730000D01*
X145520000Y-135730000D01*
X145520000Y-134270000D01*
%TO.C,R20*%
X202320000Y-111050000D02*
X205680000Y-111050000D01*
X205680000Y-112950000D01*
X202320000Y-112950000D01*
X202320000Y-111050000D01*
%TO.C,X1*%
X57900000Y-109250000D02*
X62100000Y-109250000D01*
X62100000Y-112750000D01*
X57900000Y-112750000D01*
X57900000Y-109250000D01*
%TO.C,R6*%
X176320000Y-97050000D02*
X179680000Y-97050000D01*
X179680000Y-98950000D01*
X176320000Y-98950000D01*
X176320000Y-97050000D01*
%TO.C,J1_AC*%
X153000000Y-125500000D02*
X169000000Y-125500000D01*
X169000000Y-135500000D01*
X153000000Y-135500000D01*
X153000000Y-125500000D01*
%TO.C,R40*%
X122520000Y-79270000D02*
X125480000Y-79270000D01*
X125480000Y-80730000D01*
X122520000Y-80730000D01*
X122520000Y-79270000D01*
%TO.C,J18*%
X70940000Y-118570000D02*
X70940000Y-120050000D01*
X70940000Y-118570000D02*
X71920000Y-117590000D01*
X70940000Y-120050000D02*
X71920000Y-121030000D01*
X71920000Y-111460000D02*
X71920000Y-117590000D01*
X71920000Y-111460000D02*
X88960000Y-111460000D01*
X71920000Y-121030000D02*
X71920000Y-133760000D01*
X71920000Y-133760000D02*
X88960000Y-133760000D01*
X88960000Y-111460000D02*
X88960000Y-117590000D01*
X88960000Y-121030000D02*
X88960000Y-133760000D01*
X89940000Y-118570000D02*
X88960000Y-117590000D01*
X89940000Y-120050000D02*
X88960000Y-121030000D01*
X89940000Y-120050000D02*
X89940000Y-118570000D01*
%TO.C,TP1*%
X23850000Y-132650000D02*
X28150000Y-132650000D01*
X23850000Y-135350000D02*
X23850000Y-132650000D01*
X28150000Y-132650000D02*
X28150000Y-135350000D01*
X28150000Y-135350000D02*
X23850000Y-135350000D01*
%TO.C,TP17*%
X30850000Y-83650000D02*
X35150000Y-83650000D01*
X30850000Y-86350000D02*
X30850000Y-83650000D01*
X35150000Y-83650000D02*
X35150000Y-86350000D01*
X35150000Y-86350000D02*
X30850000Y-86350000D01*
%TO.C,R13*%
X106320000Y-70680000D02*
X109680000Y-70680000D01*
X109680000Y-72580000D01*
X106320000Y-72580000D01*
X106320000Y-70680000D01*
%TO.C,TP11*%
X144850000Y-119650000D02*
X149150000Y-119650000D01*
X144850000Y-122350000D02*
X144850000Y-119650000D01*
X149150000Y-119650000D02*
X149150000Y-122350000D01*
X149150000Y-122350000D02*
X144850000Y-122350000D01*
%TO.C,D7*%
X195500000Y-60250000D02*
X202500000Y-60250000D01*
X195500000Y-63750000D02*
X195500000Y-60250000D01*
X202500000Y-60250000D02*
X202500000Y-63750000D01*
X202500000Y-63750000D02*
X195500000Y-63750000D01*
%TO.C,J8*%
X31230000Y-115230000D02*
X34770000Y-115230000D01*
X34770000Y-131470000D01*
X31230000Y-131470000D01*
X31230000Y-115230000D01*
%TO.C,R7*%
X180320000Y-109050000D02*
X183680000Y-109050000D01*
X183680000Y-110950000D01*
X180320000Y-110950000D01*
X180320000Y-109050000D01*
%TO.C,C15*%
X106300000Y-94020000D02*
X109700000Y-94020000D01*
X109700000Y-95980000D01*
X106300000Y-95980000D01*
X106300000Y-94020000D01*
%TO.C,SK1*%
X66230000Y-52230000D02*
X69770000Y-52230000D01*
X66230000Y-109110000D02*
X66230000Y-52230000D01*
X69770000Y-52230000D02*
X69770000Y-109110000D01*
X69770000Y-109110000D02*
X66230000Y-109110000D01*
%TO.C,Q4*%
X156070000Y-60500000D02*
X157100000Y-60500000D01*
X156070000Y-61610000D02*
X156070000Y-60500000D01*
X156070000Y-62390000D02*
X157100000Y-62390000D01*
X156070000Y-63500000D02*
X156070000Y-62390000D01*
X157100000Y-60300000D02*
X158900000Y-60300000D01*
X157100000Y-60500000D02*
X157100000Y-60300000D01*
X157100000Y-61610000D02*
X156070000Y-61610000D01*
X157100000Y-62390000D02*
X157100000Y-61610000D01*
X157100000Y-63500000D02*
X156070000Y-63500000D01*
X157100000Y-63700000D02*
X157100000Y-63500000D01*
X158900000Y-60300000D02*
X158900000Y-61450000D01*
X158900000Y-61450000D02*
X159930000Y-61450000D01*
X158900000Y-62550000D02*
X158900000Y-63700000D01*
X158900000Y-63700000D02*
X157100000Y-63700000D01*
X159930000Y-61450000D02*
X159930000Y-62550000D01*
X159930000Y-62550000D02*
X158900000Y-62550000D01*
%TO.C,R19*%
X192320000Y-105050000D02*
X195680000Y-105050000D01*
X195680000Y-106950000D01*
X192320000Y-106950000D01*
X192320000Y-105050000D01*
%TO.C,C93*%
X107520000Y-38270000D02*
X110480000Y-38270000D01*
X110480000Y-39730000D01*
X107520000Y-39730000D01*
X107520000Y-38270000D01*
%TO.C,TP2*%
X171850000Y-132650000D02*
X176150000Y-132650000D01*
X171850000Y-135350000D02*
X171850000Y-132650000D01*
X176150000Y-132650000D02*
X176150000Y-135350000D01*
X176150000Y-135350000D02*
X171850000Y-135350000D01*
%TO.C,C102*%
X80520000Y-7270000D02*
X83480000Y-7270000D01*
X83480000Y-8730000D01*
X80520000Y-8730000D01*
X80520000Y-7270000D01*
%TO.C,U6*%
X26150000Y-19120000D02*
X26500000Y-19120000D01*
X26150000Y-20880000D02*
X26150000Y-19120000D01*
X26500000Y-18500000D02*
X26870000Y-18500000D01*
X26500000Y-19120000D02*
X26500000Y-18500000D01*
X26500000Y-20880000D02*
X26150000Y-20880000D01*
X26500000Y-21500000D02*
X26500000Y-20880000D01*
X26870000Y-18150000D02*
X29130000Y-18150000D01*
X26870000Y-18500000D02*
X26870000Y-18150000D01*
X26870000Y-21500000D02*
X26500000Y-21500000D01*
X26870000Y-21850000D02*
X26870000Y-21500000D01*
X29130000Y-18150000D02*
X29130000Y-18500000D01*
X29130000Y-18500000D02*
X29500000Y-18500000D01*
X29130000Y-21500000D02*
X29130000Y-21850000D01*
X29130000Y-21850000D02*
X26870000Y-21850000D01*
X29500000Y-18500000D02*
X29500000Y-19120000D01*
X29500000Y-19120000D02*
X29850000Y-19120000D01*
X29500000Y-20880000D02*
X29500000Y-21500000D01*
X29500000Y-21500000D02*
X29130000Y-21500000D01*
X29850000Y-19120000D02*
X29850000Y-20880000D01*
X29850000Y-20880000D02*
X29500000Y-20880000D01*
%TO.C,R_LED5*%
X106320000Y-82050000D02*
X109680000Y-82050000D01*
X109680000Y-83950000D01*
X106320000Y-83950000D01*
X106320000Y-82050000D01*
%TO.C,U15*%
X22850000Y-100850000D02*
X24250000Y-100850000D01*
X22850000Y-107150000D02*
X22850000Y-100850000D01*
X24250000Y-100250000D02*
X24850000Y-100250000D01*
X24250000Y-100850000D02*
X24250000Y-100250000D01*
X24250000Y-107150000D02*
X22850000Y-107150000D01*
X24250000Y-107750000D02*
X24250000Y-107150000D01*
X24850000Y-98850000D02*
X31150000Y-98850000D01*
X24850000Y-100250000D02*
X24850000Y-98850000D01*
X24850000Y-107750000D02*
X24250000Y-107750000D01*
X24850000Y-109150000D02*
X24850000Y-107750000D01*
X31150000Y-98850000D02*
X31150000Y-100250000D01*
X31150000Y-100250000D02*
X31750000Y-100250000D01*
X31150000Y-107750000D02*
X31150000Y-109150000D01*
X31150000Y-109150000D02*
X24850000Y-109150000D01*
X31750000Y-100250000D02*
X31750000Y-100850000D01*
X31750000Y-100850000D02*
X33150000Y-100850000D01*
X31750000Y-107150000D02*
X31750000Y-107750000D01*
X31750000Y-107750000D02*
X31150000Y-107750000D01*
X33150000Y-100850000D02*
X33150000Y-107150000D01*
X33150000Y-107150000D02*
X31750000Y-107150000D01*
%TO.C,C95*%
X66520000Y-19270000D02*
X69480000Y-19270000D01*
X69480000Y-20730000D01*
X66520000Y-20730000D01*
X66520000Y-19270000D01*
%TO.C,LED4*%
X4320000Y-129050000D02*
X7680000Y-129050000D01*
X7680000Y-130950000D01*
X4320000Y-130950000D01*
X4320000Y-129050000D01*
%TO.C,SK2*%
X86550000Y-52230000D02*
X90090000Y-52230000D01*
X86550000Y-109110000D02*
X86550000Y-52230000D01*
X90090000Y-52230000D02*
X90090000Y-109110000D01*
X90090000Y-109110000D02*
X86550000Y-109110000D01*
%TO.C,C32*%
X186520000Y-81270000D02*
X189480000Y-81270000D01*
X189480000Y-82730000D01*
X186520000Y-82730000D01*
X186520000Y-81270000D01*
%TO.C,Q3*%
X114070000Y-60500000D02*
X115100000Y-60500000D01*
X114070000Y-61610000D02*
X114070000Y-60500000D01*
X114070000Y-62390000D02*
X115100000Y-62390000D01*
X114070000Y-63500000D02*
X114070000Y-62390000D01*
X115100000Y-60300000D02*
X116900000Y-60300000D01*
X115100000Y-60500000D02*
X115100000Y-60300000D01*
X115100000Y-61610000D02*
X114070000Y-61610000D01*
X115100000Y-62390000D02*
X115100000Y-61610000D01*
X115100000Y-63500000D02*
X114070000Y-63500000D01*
X115100000Y-63700000D02*
X115100000Y-63500000D01*
X116900000Y-60300000D02*
X116900000Y-61450000D01*
X116900000Y-61450000D02*
X117930000Y-61450000D01*
X116900000Y-62550000D02*
X116900000Y-63700000D01*
X116900000Y-63700000D02*
X115100000Y-63700000D01*
X117930000Y-61450000D02*
X117930000Y-62550000D01*
X117930000Y-62550000D02*
X116900000Y-62550000D01*
%TO.C,LED2*%
X131320000Y-78050000D02*
X134680000Y-78050000D01*
X134680000Y-79950000D01*
X131320000Y-79950000D01*
X131320000Y-78050000D01*
%TO.C,LED6*%
X24480000Y-116750000D02*
X24480000Y-119250000D01*
X24480000Y-119250000D02*
X27520000Y-119250000D01*
X27520000Y-116750000D02*
X24480000Y-116750000D01*
X27520000Y-119250000D02*
X27520000Y-116750000D01*
%TO.C,J13*%
X186230000Y-106230000D02*
X189770000Y-106230000D01*
X189770000Y-122470000D01*
X186230000Y-122470000D01*
X186230000Y-106230000D01*
%TO.C,J1_USB*%
X166680000Y-112730000D02*
X166680000Y-122150000D01*
X166680000Y-112730000D02*
X177320000Y-112730000D01*
X166680000Y-122150000D02*
X177320000Y-122150000D01*
X177320000Y-112730000D02*
X177320000Y-122150000D01*
%TO.C,U12*%
X73940000Y-102480000D02*
X83670000Y-102480000D01*
X83670000Y-108070000D01*
X73940000Y-108070000D01*
X73940000Y-102480000D01*
%TO.C,R29*%
X135320000Y-74050000D02*
X138680000Y-74050000D01*
X138680000Y-75950000D01*
X135320000Y-75950000D01*
X135320000Y-74050000D01*
%TO.C,D1*%
X36500000Y-60250000D02*
X43500000Y-60250000D01*
X36500000Y-63750000D02*
X36500000Y-60250000D01*
X43500000Y-60250000D02*
X43500000Y-63750000D01*
X43500000Y-63750000D02*
X36500000Y-63750000D01*
%TO.C,R47*%
X138320000Y-82050000D02*
X141680000Y-82050000D01*
X141680000Y-83950000D01*
X138320000Y-83950000D01*
X138320000Y-82050000D01*
%TO.C,C27*%
X106520000Y-78270000D02*
X109480000Y-78270000D01*
X109480000Y-79730000D01*
X106520000Y-79730000D01*
X106520000Y-78270000D01*
%TO.C,U8*%
X82950000Y-12500000D02*
X83950000Y-12500000D01*
X82950000Y-15500000D02*
X82950000Y-12500000D01*
X83950000Y-12300000D02*
X86050000Y-12300000D01*
X83950000Y-12500000D02*
X83950000Y-12300000D01*
X83950000Y-15500000D02*
X82950000Y-15500000D01*
X83950000Y-15700000D02*
X83950000Y-15500000D01*
X86050000Y-12300000D02*
X86050000Y-12500000D01*
X86050000Y-12500000D02*
X87050000Y-12500000D01*
X86050000Y-15500000D02*
X86050000Y-15700000D01*
X86050000Y-15700000D02*
X83950000Y-15700000D01*
X87050000Y-12500000D02*
X87050000Y-15500000D01*
X87050000Y-15500000D02*
X86050000Y-15500000D01*
%TO.C,RV1*%
X138750000Y-110500000D02*
X138750000Y-115500000D01*
X138750000Y-110500000D02*
X154750000Y-110500000D01*
X138750000Y-115500000D02*
X154750000Y-115500000D01*
X154750000Y-110500000D02*
X154750000Y-115500000D01*
%TO.C,R_RST2*%
X212520000Y-133270000D02*
X215480000Y-133270000D01*
X215480000Y-134730000D01*
X212520000Y-134730000D01*
X212520000Y-133270000D01*
%TO.C,C20*%
X207520000Y-127270000D02*
X210480000Y-127270000D01*
X210480000Y-128730000D01*
X207520000Y-128730000D01*
X207520000Y-127270000D01*
%TO.C,C44*%
X207300000Y-122020000D02*
X210700000Y-122020000D01*
X210700000Y-123980000D01*
X207300000Y-123980000D01*
X207300000Y-122020000D01*
%TO.C,C39*%
X148520000Y-101270000D02*
X151480000Y-101270000D01*
X151480000Y-102730000D01*
X148520000Y-102730000D01*
X148520000Y-101270000D01*
%TO.C,K1*%
X23050000Y-66450000D02*
X44700000Y-66450000D01*
X23050000Y-77950000D02*
X23050000Y-66450000D01*
X44700000Y-66450000D02*
X44700000Y-77950000D01*
X44700000Y-77950000D02*
X23050000Y-77950000D01*
%TO.C,U10*%
X8300000Y-98540000D02*
X9800000Y-98540000D01*
X8300000Y-103460000D02*
X8300000Y-98540000D01*
X9800000Y-98300000D02*
X14200000Y-98300000D01*
X9800000Y-98540000D02*
X9800000Y-98300000D01*
X9800000Y-103460000D02*
X8300000Y-103460000D01*
X9800000Y-103700000D02*
X9800000Y-103460000D01*
X14200000Y-98300000D02*
X14200000Y-98540000D01*
X14200000Y-98540000D02*
X15700000Y-98540000D01*
X14200000Y-103460000D02*
X14200000Y-103700000D01*
X14200000Y-103700000D02*
X9800000Y-103700000D01*
X15700000Y-98540000D02*
X15700000Y-103460000D01*
X15700000Y-103460000D02*
X14200000Y-103460000D01*
%TO.C,Q2*%
X72070000Y-66500000D02*
X73100000Y-66500000D01*
X72070000Y-67610000D02*
X72070000Y-66500000D01*
X72070000Y-68390000D02*
X73100000Y-68390000D01*
X72070000Y-69500000D02*
X72070000Y-68390000D01*
X73100000Y-66300000D02*
X74900000Y-66300000D01*
X73100000Y-66500000D02*
X73100000Y-66300000D01*
X73100000Y-67610000D02*
X72070000Y-67610000D01*
X73100000Y-68390000D02*
X73100000Y-67610000D01*
X73100000Y-69500000D02*
X72070000Y-69500000D01*
X73100000Y-69700000D02*
X73100000Y-69500000D01*
X74900000Y-66300000D02*
X74900000Y-67450000D01*
X74900000Y-67450000D02*
X75930000Y-67450000D01*
X74900000Y-68550000D02*
X74900000Y-69700000D01*
X74900000Y-69700000D02*
X73100000Y-69700000D01*
X75930000Y-67450000D02*
X75930000Y-68550000D01*
X75930000Y-68550000D02*
X74900000Y-68550000D01*
%TO.C,R21*%
X98320000Y-87050000D02*
X101680000Y-87050000D01*
X101680000Y-88950000D01*
X98320000Y-88950000D01*
X98320000Y-87050000D01*
%TO.C,L1*%
X38250000Y-114550000D02*
X38250000Y-125450000D01*
X38250000Y-125450000D02*
X49750000Y-125450000D01*
X49750000Y-114550000D02*
X38250000Y-114550000D01*
X49750000Y-125450000D02*
X49750000Y-114550000D01*
%TO.C,C5*%
X132300000Y-119020000D02*
X135700000Y-119020000D01*
X135700000Y-120980000D01*
X132300000Y-120980000D01*
X132300000Y-119020000D01*
%TO.C,C36*%
X100520000Y-101270000D02*
X103480000Y-101270000D01*
X103480000Y-102730000D01*
X100520000Y-102730000D01*
X100520000Y-101270000D01*
%TO.C,C9*%
X16300000Y-121020000D02*
X19700000Y-121020000D01*
X19700000Y-122980000D01*
X16300000Y-122980000D01*
X16300000Y-121020000D01*
%TO.C,J9*%
X209230000Y-103230000D02*
X212770000Y-103230000D01*
X212770000Y-119470000D01*
X209230000Y-119470000D01*
X209230000Y-103230000D01*
%TO.C,ANT1*%
X183830000Y-125830000D02*
X183830000Y-134170000D01*
X183830000Y-125830000D02*
X192170000Y-125830000D01*
X192170000Y-134170000D02*
X183830000Y-134170000D01*
X192170000Y-134170000D02*
X192170000Y-125830000D01*
%TO.C,U3*%
X114250000Y-18400000D02*
X164250000Y-18400000D01*
X164250000Y-49400000D01*
X114250000Y-49400000D01*
X114250000Y-18400000D01*
%TO.C,U7*%
X74950000Y-12500000D02*
X75950000Y-12500000D01*
X74950000Y-15500000D02*
X74950000Y-12500000D01*
X75950000Y-12300000D02*
X78050000Y-12300000D01*
X75950000Y-12500000D02*
X75950000Y-12300000D01*
X75950000Y-15500000D02*
X74950000Y-15500000D01*
X75950000Y-15700000D02*
X75950000Y-15500000D01*
X78050000Y-12300000D02*
X78050000Y-12500000D01*
X78050000Y-12500000D02*
X79050000Y-12500000D01*
X78050000Y-15500000D02*
X78050000Y-15700000D01*
X78050000Y-15700000D02*
X75950000Y-15700000D01*
X79050000Y-12500000D02*
X79050000Y-15500000D01*
X79050000Y-15500000D02*
X78050000Y-15500000D01*
%TO.C,D2*%
X75500000Y-60250000D02*
X82500000Y-60250000D01*
X75500000Y-63750000D02*
X75500000Y-60250000D01*
X82500000Y-60250000D02*
X82500000Y-63750000D01*
X82500000Y-63750000D02*
X75500000Y-63750000D01*
%TO.C,C16*%
X122300000Y-121020000D02*
X125700000Y-121020000D01*
X125700000Y-122980000D01*
X122300000Y-122980000D01*
X122300000Y-121020000D01*
%TO.C,J7*%
X6230000Y-106230000D02*
X9770000Y-106230000D01*
X9770000Y-122470000D01*
X6230000Y-122470000D01*
X6230000Y-106230000D01*
%TO.C,C31*%
X212520000Y-93270000D02*
X215480000Y-93270000D01*
X215480000Y-94730000D01*
X212520000Y-94730000D01*
X212520000Y-93270000D01*
%TO.C,TP9*%
X25850000Y-92650000D02*
X30150000Y-92650000D01*
X25850000Y-95350000D02*
X25850000Y-92650000D01*
X30150000Y-92650000D02*
X30150000Y-95350000D01*
X30150000Y-95350000D02*
X25850000Y-95350000D01*
%TO.C,R_RST1*%
X52520000Y-73270000D02*
X55480000Y-73270000D01*
X55480000Y-74730000D01*
X52520000Y-74730000D01*
X52520000Y-73270000D01*
%TO.C,C_X1B*%
X80520000Y-97270000D02*
X83480000Y-97270000D01*
X83480000Y-98730000D01*
X80520000Y-98730000D01*
X80520000Y-97270000D01*
%TO.C,R18*%
X194320000Y-87050000D02*
X197680000Y-87050000D01*
X197680000Y-88950000D01*
X194320000Y-88950000D01*
X194320000Y-87050000D01*
%TO.C,LED5*%
X152320000Y-105050000D02*
X155680000Y-105050000D01*
X155680000Y-106950000D01*
X152320000Y-106950000D01*
X152320000Y-105050000D01*
%TO.C,C99*%
X72520000Y-19270000D02*
X75480000Y-19270000D01*
X75480000Y-20730000D01*
X72520000Y-20730000D01*
X72520000Y-19270000D01*
%TO.C,FB2*%
X4520000Y-125270000D02*
X7480000Y-125270000D01*
X7480000Y-126730000D01*
X4520000Y-126730000D01*
X4520000Y-125270000D01*
%TO.C,J5*%
X122750000Y-107400000D02*
X134250000Y-107400000D01*
X134250000Y-116000000D01*
X122750000Y-116000000D01*
X122750000Y-107400000D01*
%TO.C,C23*%
X15300000Y-108020000D02*
X18700000Y-108020000D01*
X18700000Y-109980000D01*
X15300000Y-109980000D01*
X15300000Y-108020000D01*
%TO.C,D8*%
X183500000Y-60250000D02*
X190500000Y-60250000D01*
X183500000Y-63750000D02*
X183500000Y-60250000D01*
X190500000Y-60250000D02*
X190500000Y-63750000D01*
X190500000Y-63750000D02*
X183500000Y-63750000D01*
%TO.C,TP14*%
X24850000Y-125650000D02*
X29150000Y-125650000D01*
X24850000Y-128350000D02*
X24850000Y-125650000D01*
X29150000Y-125650000D02*
X29150000Y-128350000D01*
X29150000Y-128350000D02*
X24850000Y-128350000D01*
%TO.C,R41*%
X132320000Y-85050000D02*
X135680000Y-85050000D01*
X135680000Y-86950000D01*
X132320000Y-86950000D01*
X132320000Y-85050000D01*
%TO.C,J4*%
X106750000Y-107400000D02*
X118250000Y-107400000D01*
X118250000Y-116000000D01*
X106750000Y-116000000D01*
X106750000Y-107400000D01*
%TO.C,R_LED4*%
X24320000Y-85050000D02*
X27680000Y-85050000D01*
X27680000Y-86950000D01*
X24320000Y-86950000D01*
X24320000Y-85050000D01*
%TO.C,C43*%
X197300000Y-116020000D02*
X200700000Y-116020000D01*
X200700000Y-117980000D01*
X197300000Y-117980000D01*
X197300000Y-116020000D01*
%TO.C,C18*%
X115520000Y-88270000D02*
X118480000Y-88270000D01*
X118480000Y-89730000D01*
X115520000Y-89730000D01*
X115520000Y-88270000D01*
%TO.C,Q1*%
X30070000Y-60500000D02*
X31100000Y-60500000D01*
X30070000Y-61610000D02*
X30070000Y-60500000D01*
X30070000Y-62390000D02*
X31100000Y-62390000D01*
X30070000Y-63500000D02*
X30070000Y-62390000D01*
X31100000Y-60300000D02*
X32900000Y-60300000D01*
X31100000Y-60500000D02*
X31100000Y-60300000D01*
X31100000Y-61610000D02*
X30070000Y-61610000D01*
X31100000Y-62390000D02*
X31100000Y-61610000D01*
X31100000Y-63500000D02*
X30070000Y-63500000D01*
X31100000Y-63700000D02*
X31100000Y-63500000D01*
X32900000Y-60300000D02*
X32900000Y-61450000D01*
X32900000Y-61450000D02*
X33930000Y-61450000D01*
X32900000Y-62550000D02*
X32900000Y-63700000D01*
X32900000Y-63700000D02*
X31100000Y-63700000D01*
X33930000Y-61450000D02*
X33930000Y-62550000D01*
X33930000Y-62550000D02*
X32900000Y-62550000D01*
%TO.C,J2*%
X168000000Y-20750000D02*
X168000000Y-11250000D01*
X177000000Y-20750000D02*
X168000000Y-20750000D01*
X177000000Y-22750000D02*
X177000000Y-20750000D01*
X181000000Y-20750000D02*
X181000000Y-22750000D01*
X181000000Y-22750000D02*
X177000000Y-22750000D01*
X183000000Y-11250000D02*
X168000000Y-11250000D01*
X183000000Y-11500000D02*
X183000000Y-11250000D01*
X183000000Y-11500000D02*
X183000000Y-14000000D01*
X183000000Y-14000000D02*
X184000000Y-14000000D01*
X183000000Y-18000000D02*
X183000000Y-20750000D01*
X183000000Y-20750000D02*
X181000000Y-20750000D01*
X184000000Y-14000000D02*
X184000000Y-18000000D01*
X184000000Y-18000000D02*
X183000000Y-18000000D01*
%TO.C,R44*%
X43070000Y-127530000D02*
X44930000Y-127530000D01*
X44930000Y-128470000D01*
X43070000Y-128470000D01*
X43070000Y-127530000D01*
%TO.C,TP10*%
X41850000Y-131650000D02*
X46150000Y-131650000D01*
X41850000Y-134350000D02*
X41850000Y-131650000D01*
X46150000Y-131650000D02*
X46150000Y-134350000D01*
X46150000Y-134350000D02*
X41850000Y-134350000D01*
%TO.C,C3*%
X111750000Y-102000000D02*
G75*
G02*
X106250000Y-102000000I-2750000J0D01*
G01*
X106250000Y-102000000D02*
G75*
G02*
X111750000Y-102000000I2750000J0D01*
G01*
%TO.C,U13*%
X143950000Y-94500000D02*
X144950000Y-94500000D01*
X143950000Y-97500000D02*
X143950000Y-94500000D01*
X144950000Y-94300000D02*
X147050000Y-94300000D01*
X144950000Y-94500000D02*
X144950000Y-94300000D01*
X144950000Y-97500000D02*
X143950000Y-97500000D01*
X144950000Y-97700000D02*
X144950000Y-97500000D01*
X147050000Y-94300000D02*
X147050000Y-94500000D01*
X147050000Y-94500000D02*
X148050000Y-94500000D01*
X147050000Y-97500000D02*
X147050000Y-97700000D01*
X147050000Y-97700000D02*
X144950000Y-97700000D01*
X148050000Y-94500000D02*
X148050000Y-97500000D01*
X148050000Y-97500000D02*
X147050000Y-97500000D01*
%TO.C,R38*%
X99520000Y-80270000D02*
X102480000Y-80270000D01*
X102480000Y-81730000D01*
X99520000Y-81730000D01*
X99520000Y-80270000D01*
%TO.C,R28*%
X113320000Y-80050000D02*
X116680000Y-80050000D01*
X116680000Y-81950000D01*
X113320000Y-81950000D01*
X113320000Y-80050000D01*
%TO.C,U4*%
X64300000Y-11540000D02*
X65800000Y-11540000D01*
X64300000Y-16460000D02*
X64300000Y-11540000D01*
X65800000Y-11300000D02*
X70200000Y-11300000D01*
X65800000Y-11540000D02*
X65800000Y-11300000D01*
X65800000Y-16460000D02*
X64300000Y-16460000D01*
X65800000Y-16700000D02*
X65800000Y-16460000D01*
X70200000Y-11300000D02*
X70200000Y-11540000D01*
X70200000Y-11540000D02*
X71700000Y-11540000D01*
X70200000Y-16460000D02*
X70200000Y-16700000D01*
X70200000Y-16700000D02*
X65800000Y-16700000D01*
X71700000Y-11540000D02*
X71700000Y-16460000D01*
X71700000Y-16460000D02*
X70200000Y-16460000D01*
%TO.C,C97*%
X141520000Y-54270000D02*
X144480000Y-54270000D01*
X144480000Y-55730000D01*
X141520000Y-55730000D01*
X141520000Y-54270000D01*
%TO.C,C1*%
X67750000Y-132000000D02*
G75*
G02*
X62250000Y-132000000I-2750000J0D01*
G01*
X62250000Y-132000000D02*
G75*
G02*
X67750000Y-132000000I2750000J0D01*
G01*
%TO.C,C2*%
X128750000Y-87000000D02*
G75*
G02*
X123250000Y-87000000I-2750000J0D01*
G01*
X123250000Y-87000000D02*
G75*
G02*
X128750000Y-87000000I2750000J0D01*
G01*
%TO.C,R22*%
X186320000Y-102050000D02*
X189680000Y-102050000D01*
X189680000Y-103950000D01*
X186320000Y-103950000D01*
X186320000Y-102050000D01*
%TO.C,J6*%
X158230000Y-106230000D02*
X161770000Y-106230000D01*
X161770000Y-122470000D01*
X158230000Y-122470000D01*
X158230000Y-106230000D01*
%TO.C,TP16*%
X137850000Y-119650000D02*
X142150000Y-119650000D01*
X137850000Y-122350000D02*
X137850000Y-119650000D01*
X142150000Y-119650000D02*
X142150000Y-122350000D01*
X142150000Y-122350000D02*
X137850000Y-122350000D01*
%TO.C,C98*%
X111520000Y-54270000D02*
X114480000Y-54270000D01*
X114480000Y-55730000D01*
X111520000Y-55730000D01*
X111520000Y-54270000D01*
%TO.C,C90*%
X92520000Y-61270000D02*
X95480000Y-61270000D01*
X95480000Y-62730000D01*
X92520000Y-62730000D01*
X92520000Y-61270000D01*
%TO.C,C41*%
X138520000Y-134270000D02*
X141480000Y-134270000D01*
X141480000Y-135730000D01*
X138520000Y-135730000D01*
X138520000Y-134270000D01*
%TO.C,TP18*%
X46850000Y-83650000D02*
X51150000Y-83650000D01*
X46850000Y-86350000D02*
X46850000Y-83650000D01*
X51150000Y-83650000D02*
X51150000Y-86350000D01*
X51150000Y-86350000D02*
X46850000Y-86350000D01*
%TO.C,TP4*%
X203850000Y-132650000D02*
X208150000Y-132650000D01*
X203850000Y-135350000D02*
X203850000Y-132650000D01*
X208150000Y-132650000D02*
X208150000Y-135350000D01*
X208150000Y-135350000D02*
X203850000Y-135350000D01*
%TO.C,D5*%
X206400000Y-67050000D02*
X206400000Y-68950000D01*
X206400000Y-67050000D02*
X209600000Y-67050000D01*
X206400000Y-68950000D02*
X209600000Y-68950000D01*
X209600000Y-67050000D02*
X209600000Y-68950000D01*
%TO.C,C101*%
X80520000Y-19270000D02*
X83480000Y-19270000D01*
X83480000Y-20730000D01*
X80520000Y-20730000D01*
X80520000Y-19270000D01*
%TO.C,R2*%
X58320000Y-85050000D02*
X61680000Y-85050000D01*
X61680000Y-86950000D01*
X58320000Y-86950000D01*
X58320000Y-85050000D01*
%TO.C,LED3*%
X138320000Y-87050000D02*
X141680000Y-87050000D01*
X141680000Y-88950000D01*
X138320000Y-88950000D01*
X138320000Y-87050000D01*
%TO.C,C8*%
X201300000Y-104020000D02*
X204700000Y-104020000D01*
X204700000Y-105980000D01*
X201300000Y-105980000D01*
X201300000Y-104020000D01*
%TO.C,J_FUSE*%
X121100000Y-125800000D02*
X145400000Y-125800000D01*
X121100000Y-132200000D02*
X121100000Y-125800000D01*
X145400000Y-125800000D02*
X145400000Y-132200000D01*
X145400000Y-132200000D02*
X121100000Y-132200000D01*
%TO.C,R1-R3R_LED4R_LED5*%
X167320000Y-74050000D02*
X170680000Y-74050000D01*
X170680000Y-75950000D01*
X167320000Y-75950000D01*
X167320000Y-74050000D01*
%TO.C,R8*%
X208320000Y-97050000D02*
X211680000Y-97050000D01*
X211680000Y-98950000D01*
X208320000Y-98950000D01*
X208320000Y-97050000D01*
%TO.C,D10*%
X143950000Y-87500000D02*
X144950000Y-87500000D01*
X143950000Y-90500000D02*
X143950000Y-87500000D01*
X144950000Y-87300000D02*
X147050000Y-87300000D01*
X144950000Y-87500000D02*
X144950000Y-87300000D01*
X144950000Y-90500000D02*
X143950000Y-90500000D01*
X144950000Y-90700000D02*
X144950000Y-90500000D01*
X147050000Y-87300000D02*
X147050000Y-87500000D01*
X147050000Y-87500000D02*
X148050000Y-87500000D01*
X147050000Y-90500000D02*
X147050000Y-90700000D01*
X147050000Y-90700000D02*
X144950000Y-90700000D01*
X148050000Y-87500000D02*
X148050000Y-90500000D01*
X148050000Y-90500000D02*
X147050000Y-90500000D01*
%TO.C,R10*%
X106320000Y-60870000D02*
X109680000Y-60870000D01*
X109680000Y-62770000D01*
X106320000Y-62770000D01*
X106320000Y-60870000D01*
%TO.C,D3*%
X120500000Y-60250000D02*
X127500000Y-60250000D01*
X120500000Y-63750000D02*
X120500000Y-60250000D01*
X127500000Y-60250000D02*
X127500000Y-63750000D01*
X127500000Y-63750000D02*
X120500000Y-63750000D01*
%TO.C,J15*%
X131230000Y-93230000D02*
X134770000Y-93230000D01*
X134770000Y-104390000D01*
X131230000Y-104390000D01*
X131230000Y-93230000D01*
%TO.C,TP5*%
X39850000Y-84650000D02*
X44150000Y-84650000D01*
X39850000Y-87350000D02*
X39850000Y-84650000D01*
X44150000Y-84650000D02*
X44150000Y-87350000D01*
X44150000Y-87350000D02*
X39850000Y-87350000D01*
%TO.C,C94*%
X116520000Y-14270000D02*
X119480000Y-14270000D01*
X119480000Y-15730000D01*
X116520000Y-15730000D01*
X116520000Y-14270000D01*
%TO.C,J12*%
X92230000Y-112230000D02*
X95770000Y-112230000D01*
X95770000Y-128470000D01*
X92230000Y-128470000D01*
X92230000Y-112230000D01*
%TO.C,R37*%
X80520000Y-77270000D02*
X83480000Y-77270000D01*
X83480000Y-78730000D01*
X80520000Y-78730000D01*
X80520000Y-77270000D01*
%TO.C,R9*%
X170320000Y-82050000D02*
X173680000Y-82050000D01*
X173680000Y-83950000D01*
X170320000Y-83950000D01*
X170320000Y-82050000D01*
%TO.C,C10*%
X14300000Y-115020000D02*
X17700000Y-115020000D01*
X17700000Y-116980000D01*
X14300000Y-116980000D01*
X14300000Y-115020000D01*
%TO.C,C33*%
X10520000Y-83270000D02*
X13480000Y-83270000D01*
X13480000Y-84730000D01*
X10520000Y-84730000D01*
X10520000Y-83270000D01*
%TO.C,R_WDG*%
X186320000Y-85050000D02*
X189680000Y-85050000D01*
X189680000Y-86950000D01*
X186320000Y-86950000D01*
X186320000Y-85050000D01*
%TO.C,C38*%
X159520000Y-74270000D02*
X162480000Y-74270000D01*
X162480000Y-75730000D01*
X159520000Y-75730000D01*
X159520000Y-74270000D01*
%TO.C,U9*%
X184300000Y-93540000D02*
X185800000Y-93540000D01*
X184300000Y-98460000D02*
X184300000Y-93540000D01*
X185800000Y-93300000D02*
X190200000Y-93300000D01*
X185800000Y-93540000D02*
X185800000Y-93300000D01*
X185800000Y-98460000D02*
X184300000Y-98460000D01*
X185800000Y-98700000D02*
X185800000Y-98460000D01*
X190200000Y-93300000D02*
X190200000Y-93540000D01*
X190200000Y-93540000D02*
X191700000Y-93540000D01*
X190200000Y-98460000D02*
X190200000Y-98700000D01*
X190200000Y-98700000D02*
X185800000Y-98700000D01*
X191700000Y-93540000D02*
X191700000Y-98460000D01*
X191700000Y-98460000D02*
X190200000Y-98460000D01*
%TO.C,R16*%
X144320000Y-105050000D02*
X147680000Y-105050000D01*
X147680000Y-106950000D01*
X144320000Y-106950000D01*
X144320000Y-105050000D01*
%TO.C,U11*%
X42940000Y-105480000D02*
X52670000Y-105480000D01*
X52670000Y-111070000D01*
X42940000Y-111070000D01*
X42940000Y-105480000D01*
%TO.C,C28*%
X80520000Y-93270000D02*
X83480000Y-93270000D01*
X83480000Y-94730000D01*
X80520000Y-94730000D01*
X80520000Y-93270000D01*
%TO.C,R35*%
X48520000Y-77270000D02*
X51480000Y-77270000D01*
X51480000Y-78730000D01*
X48520000Y-78730000D01*
X48520000Y-77270000D01*
%TO.C,J16*%
X162230000Y-78230000D02*
X165770000Y-78230000D01*
X165770000Y-94470000D01*
X162230000Y-94470000D01*
X162230000Y-78230000D01*
%TO.C,D9*%
X171500000Y-60250000D02*
X178500000Y-60250000D01*
X171500000Y-63750000D02*
X171500000Y-60250000D01*
X178500000Y-60250000D02*
X178500000Y-63750000D01*
X178500000Y-63750000D02*
X171500000Y-63750000D01*
%TO.C,BAT1*%
X98650000Y-123950000D02*
X100750000Y-123950000D01*
X98650000Y-130050000D02*
X98650000Y-123950000D01*
X98650000Y-130050000D02*
X100750000Y-130050000D01*
X100750000Y-123950000D02*
X104450000Y-120250000D01*
X104450000Y-120250000D02*
X111550000Y-120250000D01*
X104450000Y-133750000D02*
X100750000Y-130050000D01*
X104450000Y-133750000D02*
X111550000Y-133750000D01*
X111550000Y-120250000D02*
X115250000Y-123950000D01*
X111550000Y-133750000D02*
X115250000Y-130050000D01*
X115250000Y-123950000D02*
X117350000Y-123950000D01*
X117350000Y-123950000D02*
X117350000Y-130050000D01*
X117350000Y-130050000D02*
X115250000Y-130050000D01*
%TO.C,J11*%
X154230000Y-85230000D02*
X157770000Y-85230000D01*
X157770000Y-101470000D01*
X154230000Y-101470000D01*
X154230000Y-85230000D01*
%TO.C,R36*%
X58520000Y-71270000D02*
X61480000Y-71270000D01*
X61480000Y-72730000D01*
X58520000Y-72730000D01*
X58520000Y-71270000D01*
%TO.C,J14*%
X115230000Y-93230000D02*
X118770000Y-93230000D01*
X118770000Y-104390000D01*
X115230000Y-104390000D01*
X115230000Y-93230000D01*
%TO.C,F1*%
X20100000Y-8800000D02*
X44400000Y-8800000D01*
X20100000Y-15200000D02*
X20100000Y-8800000D01*
X44400000Y-8800000D02*
X44400000Y-15200000D01*
X44400000Y-15200000D02*
X20100000Y-15200000D01*
%TO.C,C37*%
X20520000Y-89270000D02*
X23480000Y-89270000D01*
X23480000Y-90730000D01*
X20520000Y-90730000D01*
X20520000Y-89270000D01*
%TO.C,C100*%
X60520000Y-19270000D02*
X63480000Y-19270000D01*
X63480000Y-20730000D01*
X60520000Y-20730000D01*
X60520000Y-19270000D01*
%TO.C,TP6*%
X169850000Y-105650000D02*
X174150000Y-105650000D01*
X169850000Y-108350000D02*
X169850000Y-105650000D01*
X174150000Y-105650000D02*
X174150000Y-108350000D01*
X174150000Y-108350000D02*
X169850000Y-108350000D01*
%TO.C,C12*%
X37300000Y-106020000D02*
X40700000Y-106020000D01*
X40700000Y-107980000D01*
X37300000Y-107980000D01*
X37300000Y-106020000D01*
%TO.C,R11*%
X106320000Y-65140000D02*
X109680000Y-65140000D01*
X109680000Y-67040000D01*
X106320000Y-67040000D01*
X106320000Y-65140000D01*
%TO.C,TP15*%
X196850000Y-131650000D02*
X201150000Y-131650000D01*
X196850000Y-134350000D02*
X196850000Y-131650000D01*
X201150000Y-131650000D02*
X201150000Y-134350000D01*
X201150000Y-134350000D02*
X196850000Y-134350000D01*
%TO.C,R3*%
X92320000Y-133050000D02*
X95680000Y-133050000D01*
X95680000Y-134950000D01*
X92320000Y-134950000D01*
X92320000Y-133050000D01*
%TO.C,TP12*%
X178850000Y-101650000D02*
X183150000Y-101650000D01*
X178850000Y-104350000D02*
X178850000Y-101650000D01*
X183150000Y-101650000D02*
X183150000Y-104350000D01*
X183150000Y-104350000D02*
X178850000Y-104350000D01*
%TO.C,TP7*%
X98850000Y-111650000D02*
X103150000Y-111650000D01*
X98850000Y-114350000D02*
X98850000Y-111650000D01*
X103150000Y-111650000D02*
X103150000Y-114350000D01*
X103150000Y-114350000D02*
X98850000Y-114350000D01*
%TO.C,J3*%
X9750000Y-125400000D02*
X21250000Y-125400000D01*
X21250000Y-134000000D01*
X9750000Y-134000000D01*
X9750000Y-125400000D01*
%TO.C,LED1*%
X94320000Y-99050000D02*
X97680000Y-99050000D01*
X97680000Y-100950000D01*
X94320000Y-100950000D01*
X94320000Y-99050000D01*
%TO.C,C_X1A-C_X1B*%
X148520000Y-77270000D02*
X151480000Y-77270000D01*
X151480000Y-78730000D01*
X148520000Y-78730000D01*
X148520000Y-77270000D01*
%TO.C,C30*%
X202520000Y-87270000D02*
X205480000Y-87270000D01*
X205480000Y-88730000D01*
X202520000Y-88730000D01*
X202520000Y-87270000D01*
%TO.C,C13*%
X95300000Y-106020000D02*
X98700000Y-106020000D01*
X98700000Y-107980000D01*
X95300000Y-107980000D01*
X95300000Y-106020000D01*
%TO.C,R12*%
X100320000Y-63410000D02*
X103680000Y-63410000D01*
X103680000Y-65310000D01*
X100320000Y-65310000D01*
X100320000Y-63410000D01*
%TO.C,R31*%
X74320000Y-89050000D02*
X77680000Y-89050000D01*
X77680000Y-90950000D01*
X74320000Y-90950000D01*
X74320000Y-89050000D01*
%TO.C,C22*%
X55700000Y-104850000D02*
X60300000Y-104850000D01*
X60300000Y-107150000D01*
X55700000Y-107150000D01*
X55700000Y-104850000D01*
%TO.C,C4*%
X127750000Y-102000000D02*
G75*
G02*
X122250000Y-102000000I-2750000J0D01*
G01*
X122250000Y-102000000D02*
G75*
G02*
X127750000Y-102000000I2750000J0D01*
G01*
%TO.C,R17*%
X175320000Y-90050000D02*
X178680000Y-90050000D01*
X178680000Y-91950000D01*
X175320000Y-91950000D01*
X175320000Y-90050000D01*
%TO.C,J17*%
X169230000Y-87230000D02*
X172770000Y-87230000D01*
X172770000Y-103470000D01*
X169230000Y-103470000D01*
X169230000Y-87230000D01*
%TO.C,FB3*%
X35520000Y-110270000D02*
X38480000Y-110270000D01*
X38480000Y-111730000D01*
X35520000Y-111730000D01*
X35520000Y-110270000D01*
%TO.C,R32*%
X177320000Y-80050000D02*
X180680000Y-80050000D01*
X180680000Y-81950000D01*
X177320000Y-81950000D01*
X177320000Y-80050000D01*
%TO.C,R14*%
X58320000Y-81050000D02*
X61680000Y-81050000D01*
X61680000Y-82950000D01*
X58320000Y-82950000D01*
X58320000Y-81050000D01*
%TO.C,C26*%
X144300000Y-81020000D02*
X147700000Y-81020000D01*
X147700000Y-82980000D01*
X144300000Y-82980000D01*
X144300000Y-81020000D01*
%TO.C,K2*%
X41050000Y-90450000D02*
X62700000Y-90450000D01*
X41050000Y-101950000D02*
X41050000Y-90450000D01*
X62700000Y-90450000D02*
X62700000Y-101950000D01*
X62700000Y-101950000D02*
X41050000Y-101950000D01*
%TO.C,C34*%
X35520000Y-134270000D02*
X38480000Y-134270000D01*
X38480000Y-135730000D01*
X35520000Y-135730000D01*
X35520000Y-134270000D01*
%TO.C,R45*%
X17070000Y-85530000D02*
X18930000Y-85530000D01*
X18930000Y-86470000D01*
X17070000Y-86470000D01*
X17070000Y-85530000D01*
%TO.C,R46*%
X171070000Y-127530000D02*
X172930000Y-127530000D01*
X172930000Y-128470000D01*
X171070000Y-128470000D01*
X171070000Y-127530000D01*
%TO.C,R30*%
X58320000Y-77050000D02*
X61680000Y-77050000D01*
X61680000Y-78950000D01*
X58320000Y-78950000D01*
X58320000Y-77050000D01*
%TO.C,U5*%
X125950000Y-53500000D02*
X126950000Y-53500000D01*
X125950000Y-56500000D02*
X125950000Y-53500000D01*
X126950000Y-53300000D02*
X129050000Y-53300000D01*
X126950000Y-53500000D02*
X126950000Y-53300000D01*
X126950000Y-56500000D02*
X125950000Y-56500000D01*
X126950000Y-56700000D02*
X126950000Y-56500000D01*
X129050000Y-53300000D02*
X129050000Y-53500000D01*
X129050000Y-53500000D02*
X130050000Y-53500000D01*
X129050000Y-54610000D02*
X129050000Y-55390000D01*
X129050000Y-55390000D02*
X130050000Y-55390000D01*
X129050000Y-56500000D02*
X129050000Y-56700000D01*
X129050000Y-56700000D02*
X126950000Y-56700000D01*
X130050000Y-53500000D02*
X130050000Y-54610000D01*
X130050000Y-54610000D02*
X129050000Y-54610000D01*
X130050000Y-55390000D02*
X130050000Y-56500000D01*
X130050000Y-56500000D02*
X129050000Y-56500000D01*
%TO.C,C92*%
X142520000Y-12270000D02*
X145480000Y-12270000D01*
X145480000Y-13730000D01*
X142520000Y-13730000D01*
X142520000Y-12270000D01*
%TD*%
M02*
