%TF.GenerationSoftware,KiCad,Pcbnew,10.0.3*%
%TF.CreationDate,2026-06-03T05:27:32+02:00*%
%TF.ProjectId,quantum_mind_uwb_rtls_anchor_v3_0,7175616e-7475-46d5-9f6d-696e645f7577,rev?*%
%TF.SameCoordinates,Original*%
%TF.FileFunction,Paste,Top*%
%TF.FilePolarity,Positive*%
%FSLAX46Y46*%
G04 Gerber Fmt 4.6, Leading zero omitted, Abs format (unit mm)*
G04 Created by KiCad (PCBNEW 10.0.3) date 2026-06-03 05:27:32*
%MOMM*%
%LPD*%
G01*
G04 APERTURE LIST*
G04 Aperture macros list*
%AMRoundRect*
0 Rectangle with rounded corners*
0 $1 Rounding radius*
0 $2 $3 $4 $5 $6 $7 $8 $9 X,Y pos of 4 corners*
0 Add a 4 corners polygon primitive as box body*
4,1,4,$2,$3,$4,$5,$6,$7,$8,$9,$2,$3,0*
0 Add four circle primitives for the rounded corners*
1,1,$1+$1,$2,$3*
1,1,$1+$1,$4,$5*
1,1,$1+$1,$6,$7*
1,1,$1+$1,$8,$9*
0 Add four rect primitives between the rounded corners*
20,1,$1+$1,$2,$3,$4,$5,0*
20,1,$1+$1,$4,$5,$6,$7,0*
20,1,$1+$1,$6,$7,$8,$9,0*
20,1,$1+$1,$8,$9,$2,$3,0*%
G04 Aperture macros list end*
%ADD10RoundRect,0.250000X-0.525000X-0.400000X0.525000X-0.400000X0.525000X0.400000X-0.525000X0.400000X0*%
%ADD11RoundRect,0.250000X-0.250000X-0.475000X0.250000X-0.475000X0.250000X0.475000X-0.250000X0.475000X0*%
%ADD12RoundRect,0.225000X-0.225000X-0.250000X0.225000X-0.250000X0.225000X0.250000X-0.225000X0.250000X0*%
%ADD13RoundRect,0.250000X-0.325000X-0.650000X0.325000X-0.650000X0.325000X0.650000X-0.325000X0.650000X0*%
%ADD14RoundRect,0.250000X-0.262500X-0.450000X0.262500X-0.450000X0.262500X0.450000X-0.262500X0.450000X0*%
%ADD15RoundRect,0.200000X-0.200000X-0.275000X0.200000X-0.275000X0.200000X0.275000X-0.200000X0.275000X0*%
%ADD16RoundRect,0.250000X-0.375000X-0.625000X0.375000X-0.625000X0.375000X0.625000X-0.375000X0.625000X0*%
%ADD17RoundRect,0.250000X-1.450000X-0.650000X1.450000X-0.650000X1.450000X0.650000X-1.450000X0.650000X0*%
%ADD18RoundRect,0.135000X-0.135000X-0.185000X0.135000X-0.185000X0.135000X0.185000X-0.135000X0.185000X0*%
%ADD19RoundRect,0.112500X-0.187500X-0.112500X0.187500X-0.112500X0.187500X0.112500X-0.187500X0.112500X0*%
%ADD20RoundRect,0.250000X-1.000000X-0.650000X1.000000X-0.650000X1.000000X0.650000X-1.000000X0.650000X0*%
%ADD21RoundRect,0.218750X-0.218750X-0.256250X0.218750X-0.256250X0.218750X0.256250X-0.218750X0.256250X0*%
%ADD22RoundRect,0.150000X-0.512500X-0.150000X0.512500X-0.150000X0.512500X0.150000X-0.512500X0.150000X0*%
%ADD23RoundRect,0.250000X-0.450000X-0.350000X0.450000X-0.350000X0.450000X0.350000X-0.450000X0.350000X0*%
%ADD24RoundRect,0.150000X-0.587500X-0.150000X0.587500X-0.150000X0.587500X0.150000X-0.587500X0.150000X0*%
%ADD25RoundRect,0.145000X-0.145000X-0.145000X0.145000X-0.145000X0.145000X0.145000X-0.145000X0.145000X0*%
%ADD26RoundRect,0.062500X-0.275000X-0.062500X0.275000X-0.062500X0.275000X0.062500X-0.275000X0.062500X0*%
%ADD27RoundRect,0.062500X-0.062500X-0.275000X0.062500X-0.275000X0.062500X0.275000X-0.062500X0.275000X0*%
%ADD28RoundRect,0.075000X-0.662500X-0.075000X0.662500X-0.075000X0.662500X0.075000X-0.662500X0.075000X0*%
%ADD29RoundRect,0.075000X-0.075000X-0.662500X0.075000X-0.662500X0.075000X0.662500X-0.075000X0.662500X0*%
%ADD30RoundRect,0.243750X-0.243750X-0.456250X0.243750X-0.456250X0.243750X0.456250X-0.243750X0.456250X0*%
%ADD31R,0.700000X0.700000*%
%ADD32RoundRect,0.150000X-0.150000X-0.575000X0.150000X-0.575000X0.150000X0.575000X-0.150000X0.575000X0*%
%ADD33RoundRect,0.075000X-0.075000X-0.650000X0.075000X-0.650000X0.075000X0.650000X-0.075000X0.650000X0*%
%ADD34RoundRect,0.150000X-0.825000X-0.150000X0.825000X-0.150000X0.825000X0.150000X-0.825000X0.150000X0*%
%ADD35R,2.700000X3.600000*%
%ADD36R,2.500000X5.100000*%
%ADD37R,0.900000X1.200000*%
G04 APERTURE END LIST*
D10*
%TO.C,SW2*%
X196020000Y-121750000D03*
X203980000Y-121750000D03*
X196020000Y-126250000D03*
X203980000Y-126250000D03*
%TD*%
D11*
%TO.C,C11*%
X73050000Y-98000000D03*
X74950000Y-98000000D03*
%TD*%
D12*
%TO.C,C_X1A*%
X77225000Y-86000000D03*
X78775000Y-86000000D03*
%TD*%
D13*
%TO.C,C21*%
X10525000Y-88000000D03*
X13475000Y-88000000D03*
%TD*%
D10*
%TO.C,SW1*%
X57020000Y-118750000D03*
X64980000Y-118750000D03*
X57020000Y-123250000D03*
X64980000Y-123250000D03*
%TD*%
D14*
%TO.C,R34*%
X195087500Y-96000000D03*
X196912500Y-96000000D03*
%TD*%
D11*
%TO.C,C24*%
X101050000Y-94000000D03*
X102950000Y-94000000D03*
%TD*%
%TO.C,C25*%
X36050000Y-97000000D03*
X37950000Y-97000000D03*
%TD*%
D15*
%TO.C,R39*%
X11175000Y-80000000D03*
X12825000Y-80000000D03*
%TD*%
D11*
%TO.C,C14*%
X124050000Y-95000000D03*
X125950000Y-95000000D03*
%TD*%
D14*
%TO.C,R1*%
X106087500Y-89000000D03*
X107912500Y-89000000D03*
%TD*%
D12*
%TO.C,C35*%
X94225000Y-93000000D03*
X95775000Y-93000000D03*
%TD*%
%TO.C,C96*%
X67225000Y-8000000D03*
X68775000Y-8000000D03*
%TD*%
%TO.C,C29*%
X193225000Y-82000000D03*
X194775000Y-82000000D03*
%TD*%
D16*
%TO.C,F2*%
X194600000Y-112000000D03*
X197400000Y-112000000D03*
%TD*%
D17*
%TO.C,TP8*%
X12000000Y-94000000D03*
%TD*%
D11*
%TO.C,C7*%
X177050000Y-126000000D03*
X178950000Y-126000000D03*
%TD*%
D12*
%TO.C,C40*%
X123225000Y-135000000D03*
X124775000Y-135000000D03*
%TD*%
D14*
%TO.C,R15*%
X75087500Y-94000000D03*
X76912500Y-94000000D03*
%TD*%
D12*
%TO.C,C17*%
X148225000Y-128000000D03*
X149775000Y-128000000D03*
%TD*%
D18*
%TO.C,R43*%
X75490000Y-80000000D03*
X76510000Y-80000000D03*
%TD*%
D17*
%TO.C,TP13*%
X182000000Y-118000000D03*
%TD*%
D19*
%TO.C,D4*%
X164950000Y-62000000D03*
X167050000Y-62000000D03*
%TD*%
D14*
%TO.C,R33*%
X185087500Y-90000000D03*
X186912500Y-90000000D03*
%TD*%
%TO.C,R42*%
X155087500Y-80000000D03*
X156912500Y-80000000D03*
%TD*%
D11*
%TO.C,C6*%
X152050000Y-120000000D03*
X153950000Y-120000000D03*
%TD*%
D14*
%TO.C,R23*%
X65087500Y-114000000D03*
X66912500Y-114000000D03*
%TD*%
D20*
%TO.C,D6*%
X209000000Y-62000000D03*
X213000000Y-62000000D03*
%TD*%
D17*
%TO.C,TP3*%
X55000000Y-131000000D03*
%TD*%
D21*
%TO.C,FB1*%
X199212500Y-100000000D03*
X200787500Y-100000000D03*
%TD*%
D12*
%TO.C,C19*%
X207225000Y-92000000D03*
X208775000Y-92000000D03*
%TD*%
%TO.C,C91*%
X134225000Y-13000000D03*
X135775000Y-13000000D03*
%TD*%
D22*
%TO.C,U14*%
X160862500Y-101050000D03*
X160862500Y-102000000D03*
X160862500Y-102950000D03*
X163137500Y-102950000D03*
X163137500Y-102000000D03*
X163137500Y-101050000D03*
%TD*%
D12*
%TO.C,C42*%
X146225000Y-135000000D03*
X147775000Y-135000000D03*
%TD*%
D14*
%TO.C,R20*%
X203087500Y-112000000D03*
X204912500Y-112000000D03*
%TD*%
D23*
%TO.C,X1*%
X58900000Y-111850000D03*
X61100000Y-111850000D03*
X61100000Y-110150000D03*
X58900000Y-110150000D03*
%TD*%
D14*
%TO.C,R6*%
X177087500Y-98000000D03*
X178912500Y-98000000D03*
%TD*%
D15*
%TO.C,R40*%
X123175000Y-80000000D03*
X124825000Y-80000000D03*
%TD*%
D17*
%TO.C,TP1*%
X26000000Y-134000000D03*
%TD*%
%TO.C,TP17*%
X33000000Y-85000000D03*
%TD*%
D14*
%TO.C,R13*%
X107087500Y-71630000D03*
X108912500Y-71630000D03*
%TD*%
D17*
%TO.C,TP11*%
X147000000Y-121000000D03*
%TD*%
D20*
%TO.C,D7*%
X197000000Y-62000000D03*
X201000000Y-62000000D03*
%TD*%
D14*
%TO.C,R7*%
X181087500Y-110000000D03*
X182912500Y-110000000D03*
%TD*%
D11*
%TO.C,C15*%
X107050000Y-95000000D03*
X108950000Y-95000000D03*
%TD*%
D24*
%TO.C,Q4*%
X157062500Y-61050000D03*
X157062500Y-62950000D03*
X158937500Y-62000000D03*
%TD*%
D14*
%TO.C,R19*%
X193087500Y-106000000D03*
X194912500Y-106000000D03*
%TD*%
D12*
%TO.C,C93*%
X108225000Y-39000000D03*
X109775000Y-39000000D03*
%TD*%
D17*
%TO.C,TP2*%
X174000000Y-134000000D03*
%TD*%
D12*
%TO.C,C102*%
X81225000Y-8000000D03*
X82775000Y-8000000D03*
%TD*%
D25*
%TO.C,U6*%
X27640000Y-19640000D03*
X27640000Y-20360000D03*
X28360000Y-19640000D03*
X28360000Y-20360000D03*
D26*
X26737500Y-19500000D03*
X26737500Y-20000000D03*
X26737500Y-20500000D03*
D27*
X27250000Y-21262500D03*
X27750000Y-21262500D03*
X28250000Y-21262500D03*
X28750000Y-21262500D03*
D26*
X29262500Y-20500000D03*
X29262500Y-20000000D03*
X29262500Y-19500000D03*
D27*
X28750000Y-18737500D03*
X28250000Y-18737500D03*
X27750000Y-18737500D03*
X27250000Y-18737500D03*
%TD*%
D14*
%TO.C,R_LED5*%
X107087500Y-83000000D03*
X108912500Y-83000000D03*
%TD*%
D28*
%TO.C,U15*%
X23837500Y-101250000D03*
X23837500Y-101750000D03*
X23837500Y-102250000D03*
X23837500Y-102750000D03*
X23837500Y-103250000D03*
X23837500Y-103750000D03*
X23837500Y-104250000D03*
X23837500Y-104750000D03*
X23837500Y-105250000D03*
X23837500Y-105750000D03*
X23837500Y-106250000D03*
X23837500Y-106750000D03*
D29*
X25250000Y-108162500D03*
X25750000Y-108162500D03*
X26250000Y-108162500D03*
X26750000Y-108162500D03*
X27250000Y-108162500D03*
X27750000Y-108162500D03*
X28250000Y-108162500D03*
X28750000Y-108162500D03*
X29250000Y-108162500D03*
X29750000Y-108162500D03*
X30250000Y-108162500D03*
X30750000Y-108162500D03*
D28*
X32162500Y-106750000D03*
X32162500Y-106250000D03*
X32162500Y-105750000D03*
X32162500Y-105250000D03*
X32162500Y-104750000D03*
X32162500Y-104250000D03*
X32162500Y-103750000D03*
X32162500Y-103250000D03*
X32162500Y-102750000D03*
X32162500Y-102250000D03*
X32162500Y-101750000D03*
X32162500Y-101250000D03*
D29*
X30750000Y-99837500D03*
X30250000Y-99837500D03*
X29750000Y-99837500D03*
X29250000Y-99837500D03*
X28750000Y-99837500D03*
X28250000Y-99837500D03*
X27750000Y-99837500D03*
X27250000Y-99837500D03*
X26750000Y-99837500D03*
X26250000Y-99837500D03*
X25750000Y-99837500D03*
X25250000Y-99837500D03*
%TD*%
D12*
%TO.C,C95*%
X67225000Y-20000000D03*
X68775000Y-20000000D03*
%TD*%
D30*
%TO.C,LED4*%
X5062500Y-130000000D03*
X6937500Y-130000000D03*
%TD*%
D12*
%TO.C,C32*%
X187225000Y-82000000D03*
X188775000Y-82000000D03*
%TD*%
D24*
%TO.C,Q3*%
X115062500Y-61050000D03*
X115062500Y-62950000D03*
X116937500Y-62000000D03*
%TD*%
D30*
%TO.C,LED2*%
X132062500Y-79000000D03*
X133937500Y-79000000D03*
%TD*%
D31*
%TO.C,LED6*%
X25085000Y-117450000D03*
X25085000Y-118550000D03*
X26915000Y-118550000D03*
X26915000Y-117450000D03*
%TD*%
D32*
%TO.C,J1_USB*%
X168750000Y-113955000D03*
X169550000Y-113955000D03*
D33*
X170750000Y-113955000D03*
X171750000Y-113955000D03*
X172250000Y-113955000D03*
X173250000Y-113955000D03*
D32*
X174450000Y-113955000D03*
X175250000Y-113955000D03*
X175250000Y-113955000D03*
X174450000Y-113955000D03*
D33*
X173750000Y-113955000D03*
X172750000Y-113955000D03*
X171250000Y-113955000D03*
X170250000Y-113955000D03*
D32*
X169550000Y-113955000D03*
X168750000Y-113955000D03*
%TD*%
D14*
%TO.C,R29*%
X136087500Y-75000000D03*
X137912500Y-75000000D03*
%TD*%
D20*
%TO.C,D1*%
X38000000Y-62000000D03*
X42000000Y-62000000D03*
%TD*%
D14*
%TO.C,R47*%
X139087500Y-83000000D03*
X140912500Y-83000000D03*
%TD*%
D12*
%TO.C,C27*%
X107225000Y-79000000D03*
X108775000Y-79000000D03*
%TD*%
D22*
%TO.C,U8*%
X83862500Y-13050000D03*
X83862500Y-14000000D03*
X83862500Y-14950000D03*
X86137500Y-14950000D03*
X86137500Y-14000000D03*
X86137500Y-13050000D03*
%TD*%
D15*
%TO.C,R_RST2*%
X213175000Y-134000000D03*
X214825000Y-134000000D03*
%TD*%
D12*
%TO.C,C20*%
X208225000Y-128000000D03*
X209775000Y-128000000D03*
%TD*%
D11*
%TO.C,C44*%
X208050000Y-123000000D03*
X209950000Y-123000000D03*
%TD*%
D12*
%TO.C,C39*%
X149225000Y-102000000D03*
X150775000Y-102000000D03*
%TD*%
D34*
%TO.C,U10*%
X9525000Y-99095000D03*
X9525000Y-100365000D03*
X9525000Y-101635000D03*
X9525000Y-102905000D03*
X14475000Y-102905000D03*
X14475000Y-101635000D03*
X14475000Y-100365000D03*
X14475000Y-99095000D03*
%TD*%
D24*
%TO.C,Q2*%
X73062500Y-67050000D03*
X73062500Y-68950000D03*
X74937500Y-68000000D03*
%TD*%
D14*
%TO.C,R21*%
X99087500Y-88000000D03*
X100912500Y-88000000D03*
%TD*%
D35*
%TO.C,L1*%
X39850000Y-120000000D03*
X48150000Y-120000000D03*
%TD*%
D11*
%TO.C,C5*%
X133050000Y-120000000D03*
X134950000Y-120000000D03*
%TD*%
D12*
%TO.C,C36*%
X101225000Y-102000000D03*
X102775000Y-102000000D03*
%TD*%
D11*
%TO.C,C9*%
X17050000Y-122000000D03*
X18950000Y-122000000D03*
%TD*%
D22*
%TO.C,U7*%
X75862500Y-13050000D03*
X75862500Y-14000000D03*
X75862500Y-14950000D03*
X78137500Y-14950000D03*
X78137500Y-14000000D03*
X78137500Y-13050000D03*
%TD*%
D20*
%TO.C,D2*%
X77000000Y-62000000D03*
X81000000Y-62000000D03*
%TD*%
D11*
%TO.C,C16*%
X123050000Y-122000000D03*
X124950000Y-122000000D03*
%TD*%
D12*
%TO.C,C31*%
X213225000Y-94000000D03*
X214775000Y-94000000D03*
%TD*%
D17*
%TO.C,TP9*%
X28000000Y-94000000D03*
%TD*%
D15*
%TO.C,R_RST1*%
X53175000Y-74000000D03*
X54825000Y-74000000D03*
%TD*%
D12*
%TO.C,C_X1B*%
X81225000Y-98000000D03*
X82775000Y-98000000D03*
%TD*%
D14*
%TO.C,R18*%
X195087500Y-88000000D03*
X196912500Y-88000000D03*
%TD*%
D30*
%TO.C,LED5*%
X153062500Y-106000000D03*
X154937500Y-106000000D03*
%TD*%
D12*
%TO.C,C99*%
X73225000Y-20000000D03*
X74775000Y-20000000D03*
%TD*%
D21*
%TO.C,FB2*%
X5212500Y-126000000D03*
X6787500Y-126000000D03*
%TD*%
D11*
%TO.C,C23*%
X16050000Y-109000000D03*
X17950000Y-109000000D03*
%TD*%
D20*
%TO.C,D8*%
X185000000Y-62000000D03*
X189000000Y-62000000D03*
%TD*%
D17*
%TO.C,TP14*%
X27000000Y-127000000D03*
%TD*%
D14*
%TO.C,R41*%
X133087500Y-86000000D03*
X134912500Y-86000000D03*
%TD*%
%TO.C,R_LED4*%
X25087500Y-86000000D03*
X26912500Y-86000000D03*
%TD*%
D11*
%TO.C,C43*%
X198050000Y-117000000D03*
X199950000Y-117000000D03*
%TD*%
D12*
%TO.C,C18*%
X116225000Y-89000000D03*
X117775000Y-89000000D03*
%TD*%
D24*
%TO.C,Q1*%
X31062500Y-61050000D03*
X31062500Y-62950000D03*
X32937500Y-62000000D03*
%TD*%
D18*
%TO.C,R44*%
X43490000Y-128000000D03*
X44510000Y-128000000D03*
%TD*%
D17*
%TO.C,TP10*%
X44000000Y-133000000D03*
%TD*%
D22*
%TO.C,U13*%
X144862500Y-95050000D03*
X144862500Y-96000000D03*
X144862500Y-96950000D03*
X147137500Y-96950000D03*
X147137500Y-96000000D03*
X147137500Y-95050000D03*
%TD*%
D15*
%TO.C,R38*%
X100175000Y-81000000D03*
X101825000Y-81000000D03*
%TD*%
D14*
%TO.C,R28*%
X114087500Y-81000000D03*
X115912500Y-81000000D03*
%TD*%
D34*
%TO.C,U4*%
X65525000Y-12095000D03*
X65525000Y-13365000D03*
X65525000Y-14635000D03*
X65525000Y-15905000D03*
X70475000Y-15905000D03*
X70475000Y-14635000D03*
X70475000Y-13365000D03*
X70475000Y-12095000D03*
%TD*%
D12*
%TO.C,C97*%
X142225000Y-55000000D03*
X143775000Y-55000000D03*
%TD*%
D14*
%TO.C,R22*%
X187087500Y-103000000D03*
X188912500Y-103000000D03*
%TD*%
D17*
%TO.C,TP16*%
X140000000Y-121000000D03*
%TD*%
D12*
%TO.C,C98*%
X112225000Y-55000000D03*
X113775000Y-55000000D03*
%TD*%
%TO.C,C90*%
X93225000Y-62000000D03*
X94775000Y-62000000D03*
%TD*%
%TO.C,C41*%
X139225000Y-135000000D03*
X140775000Y-135000000D03*
%TD*%
D17*
%TO.C,TP18*%
X49000000Y-85000000D03*
%TD*%
%TO.C,TP4*%
X206000000Y-134000000D03*
%TD*%
D19*
%TO.C,D5*%
X206950000Y-68000000D03*
X209050000Y-68000000D03*
%TD*%
D12*
%TO.C,C101*%
X81225000Y-20000000D03*
X82775000Y-20000000D03*
%TD*%
D14*
%TO.C,R2*%
X59087500Y-86000000D03*
X60912500Y-86000000D03*
%TD*%
D30*
%TO.C,LED3*%
X139062500Y-88000000D03*
X140937500Y-88000000D03*
%TD*%
D11*
%TO.C,C8*%
X202050000Y-105000000D03*
X203950000Y-105000000D03*
%TD*%
D14*
%TO.C,R1-R3R_LED4R_LED5*%
X168087500Y-75000000D03*
X169912500Y-75000000D03*
%TD*%
%TO.C,R8*%
X209087500Y-98000000D03*
X210912500Y-98000000D03*
%TD*%
D22*
%TO.C,D10*%
X144862500Y-88050000D03*
X144862500Y-89000000D03*
X144862500Y-89950000D03*
X147137500Y-89950000D03*
X147137500Y-89000000D03*
X147137500Y-88050000D03*
%TD*%
D14*
%TO.C,R10*%
X107087500Y-61820000D03*
X108912500Y-61820000D03*
%TD*%
D20*
%TO.C,D3*%
X122000000Y-62000000D03*
X126000000Y-62000000D03*
%TD*%
D17*
%TO.C,TP5*%
X42000000Y-86000000D03*
%TD*%
D12*
%TO.C,C94*%
X117225000Y-15000000D03*
X118775000Y-15000000D03*
%TD*%
D15*
%TO.C,R37*%
X81175000Y-78000000D03*
X82825000Y-78000000D03*
%TD*%
D14*
%TO.C,R9*%
X171087500Y-83000000D03*
X172912500Y-83000000D03*
%TD*%
D11*
%TO.C,C10*%
X15050000Y-116000000D03*
X16950000Y-116000000D03*
%TD*%
D12*
%TO.C,C33*%
X11225000Y-84000000D03*
X12775000Y-84000000D03*
%TD*%
D14*
%TO.C,R_WDG*%
X187087500Y-86000000D03*
X188912500Y-86000000D03*
%TD*%
D12*
%TO.C,C38*%
X160225000Y-75000000D03*
X161775000Y-75000000D03*
%TD*%
D34*
%TO.C,U9*%
X185525000Y-94095000D03*
X185525000Y-95365000D03*
X185525000Y-96635000D03*
X185525000Y-97905000D03*
X190475000Y-97905000D03*
X190475000Y-96635000D03*
X190475000Y-95365000D03*
X190475000Y-94095000D03*
%TD*%
D14*
%TO.C,R16*%
X145087500Y-106000000D03*
X146912500Y-106000000D03*
%TD*%
D12*
%TO.C,C28*%
X81225000Y-94000000D03*
X82775000Y-94000000D03*
%TD*%
D15*
%TO.C,R35*%
X49175000Y-78000000D03*
X50825000Y-78000000D03*
%TD*%
D20*
%TO.C,D9*%
X173000000Y-62000000D03*
X177000000Y-62000000D03*
%TD*%
D36*
%TO.C,BAT1*%
X100400000Y-127000000D03*
X115600000Y-127000000D03*
%TD*%
D37*
%TO.C,U2*%
X94000000Y-11600000D03*
X94000000Y-13200000D03*
X94000000Y-14800000D03*
X94000000Y-16400000D03*
X94000000Y-18000000D03*
X94000000Y-19600000D03*
X94000000Y-21200001D03*
X94000000Y-22800000D03*
X94000000Y-24400000D03*
X94000000Y-26000000D03*
X94000000Y-27600000D03*
X94000000Y-29200000D03*
X94000000Y-30800000D03*
X94000000Y-32400000D03*
X110000000Y-11600000D03*
X110000000Y-13200000D03*
X110000000Y-14800000D03*
X110000000Y-16400000D03*
X110000000Y-18000000D03*
X110000000Y-19600000D03*
X110000000Y-21200001D03*
X110000000Y-22800000D03*
X110000000Y-24400000D03*
X110000000Y-26000000D03*
X110000000Y-27600000D03*
X110000000Y-29200000D03*
X110000000Y-30800000D03*
X110000000Y-32400000D03*
%TD*%
D15*
%TO.C,R36*%
X59175000Y-72000000D03*
X60825000Y-72000000D03*
%TD*%
D12*
%TO.C,C37*%
X21225000Y-90000000D03*
X22775000Y-90000000D03*
%TD*%
%TO.C,C100*%
X61225000Y-20000000D03*
X62775000Y-20000000D03*
%TD*%
D17*
%TO.C,TP6*%
X172000000Y-107000000D03*
%TD*%
D11*
%TO.C,C12*%
X38050000Y-107000000D03*
X39950000Y-107000000D03*
%TD*%
D14*
%TO.C,R11*%
X107087500Y-66090000D03*
X108912500Y-66090000D03*
%TD*%
D17*
%TO.C,TP15*%
X199000000Y-133000000D03*
%TD*%
D14*
%TO.C,R3*%
X93087500Y-134000000D03*
X94912500Y-134000000D03*
%TD*%
D17*
%TO.C,TP12*%
X181000000Y-103000000D03*
%TD*%
%TO.C,TP7*%
X101000000Y-113000000D03*
%TD*%
D30*
%TO.C,LED1*%
X95062500Y-100000000D03*
X96937500Y-100000000D03*
%TD*%
D12*
%TO.C,C_X1A-C_X1B*%
X149225000Y-78000000D03*
X150775000Y-78000000D03*
%TD*%
%TO.C,C30*%
X203225000Y-88000000D03*
X204775000Y-88000000D03*
%TD*%
D11*
%TO.C,C13*%
X96050000Y-107000000D03*
X97950000Y-107000000D03*
%TD*%
D14*
%TO.C,R12*%
X101087500Y-64360000D03*
X102912500Y-64360000D03*
%TD*%
%TO.C,R31*%
X75087500Y-90000000D03*
X76912500Y-90000000D03*
%TD*%
D13*
%TO.C,C22*%
X56525000Y-106000000D03*
X59475000Y-106000000D03*
%TD*%
D14*
%TO.C,R17*%
X176087500Y-91000000D03*
X177912500Y-91000000D03*
%TD*%
D21*
%TO.C,FB3*%
X36212500Y-111000000D03*
X37787500Y-111000000D03*
%TD*%
D14*
%TO.C,R32*%
X178087500Y-81000000D03*
X179912500Y-81000000D03*
%TD*%
%TO.C,R14*%
X59087500Y-82000000D03*
X60912500Y-82000000D03*
%TD*%
D11*
%TO.C,C26*%
X145050000Y-82000000D03*
X146950000Y-82000000D03*
%TD*%
D12*
%TO.C,C34*%
X36225000Y-135000000D03*
X37775000Y-135000000D03*
%TD*%
D18*
%TO.C,R45*%
X17490000Y-86000000D03*
X18510000Y-86000000D03*
%TD*%
%TO.C,R46*%
X171490000Y-128000000D03*
X172510000Y-128000000D03*
%TD*%
D14*
%TO.C,R30*%
X59087500Y-78000000D03*
X60912500Y-78000000D03*
%TD*%
D22*
%TO.C,U5*%
X126862500Y-54050000D03*
X126862500Y-55000000D03*
X126862500Y-55950000D03*
X129137500Y-55950000D03*
X129137500Y-54050000D03*
%TD*%
D12*
%TO.C,C92*%
X143225000Y-13000000D03*
X144775000Y-13000000D03*
%TD*%
M02*
