%TF.GenerationSoftware,KiCad,Pcbnew,10.0.3*%
%TF.CreationDate,2026-06-03T05:27:32+02:00*%
%TF.ProjectId,quantum_mind_uwb_rtls_anchor_v3_0,7175616e-7475-46d5-9f6d-696e645f7577,rev?*%
%TF.SameCoordinates,Original*%
%TF.FileFunction,Copper,L1,Top*%
%TF.FilePolarity,Positive*%
%FSLAX46Y46*%
G04 Gerber Fmt 4.6, Leading zero omitted, Abs format (unit mm)*
G04 Created by KiCad (PCBNEW 10.0.3) date 2026-06-03 05:27:32*
%MOMM*%
%LPD*%
G01*
G04 APERTURE LIST*
G04 Aperture macros list*
%AMRoundRect*
0 Rectangle with rounded corners*
0 $1 Rounding radius*
0 $2 $3 $4 $5 $6 $7 $8 $9 X,Y pos of 4 corners*
0 Add a 4 corners polygon primitive as box body*
4,1,4,$2,$3,$4,$5,$6,$7,$8,$9,$2,$3,0*
0 Add four circle primitives for the rounded corners*
1,1,$1+$1,$2,$3*
1,1,$1+$1,$4,$5*
1,1,$1+$1,$6,$7*
1,1,$1+$1,$8,$9*
0 Add four rect primitives between the rounded corners*
20,1,$1+$1,$2,$3,$4,$5,0*
20,1,$1+$1,$4,$5,$6,$7,0*
20,1,$1+$1,$6,$7,$8,$9,0*
20,1,$1+$1,$8,$9,$2,$3,0*%
G04 Aperture macros list end*
%TA.AperFunction,SMDPad,CuDef*%
%ADD10RoundRect,0.250000X-0.525000X-0.400000X0.525000X-0.400000X0.525000X0.400000X-0.525000X0.400000X0*%
%TD*%
%TA.AperFunction,SMDPad,CuDef*%
%ADD11RoundRect,0.250000X-0.250000X-0.475000X0.250000X-0.475000X0.250000X0.475000X-0.250000X0.475000X0*%
%TD*%
%TA.AperFunction,SMDPad,CuDef*%
%ADD12RoundRect,0.225000X-0.225000X-0.250000X0.225000X-0.250000X0.225000X0.250000X-0.225000X0.250000X0*%
%TD*%
%TA.AperFunction,SMDPad,CuDef*%
%ADD13RoundRect,0.250000X-0.325000X-0.650000X0.325000X-0.650000X0.325000X0.650000X-0.325000X0.650000X0*%
%TD*%
%TA.AperFunction,SMDPad,CuDef*%
%ADD14RoundRect,0.250000X-0.262500X-0.450000X0.262500X-0.450000X0.262500X0.450000X-0.262500X0.450000X0*%
%TD*%
%TA.AperFunction,SMDPad,CuDef*%
%ADD15RoundRect,0.200000X-0.200000X-0.275000X0.200000X-0.275000X0.200000X0.275000X-0.200000X0.275000X0*%
%TD*%
%TA.AperFunction,SMDPad,CuDef*%
%ADD16RoundRect,0.250000X-0.375000X-0.625000X0.375000X-0.625000X0.375000X0.625000X-0.375000X0.625000X0*%
%TD*%
%TA.AperFunction,SMDPad,CuDef*%
%ADD17RoundRect,0.250000X-1.450000X-0.650000X1.450000X-0.650000X1.450000X0.650000X-1.450000X0.650000X0*%
%TD*%
%TA.AperFunction,SMDPad,CuDef*%
%ADD18RoundRect,0.135000X-0.135000X-0.185000X0.135000X-0.185000X0.135000X0.185000X-0.135000X0.185000X0*%
%TD*%
%TA.AperFunction,SMDPad,CuDef*%
%ADD19RoundRect,0.112500X-0.187500X-0.112500X0.187500X-0.112500X0.187500X0.112500X-0.187500X0.112500X0*%
%TD*%
%TA.AperFunction,SMDPad,CuDef*%
%ADD20RoundRect,0.250000X-1.000000X-0.650000X1.000000X-0.650000X1.000000X0.650000X-1.000000X0.650000X0*%
%TD*%
%TA.AperFunction,SMDPad,CuDef*%
%ADD21RoundRect,0.218750X-0.218750X-0.256250X0.218750X-0.256250X0.218750X0.256250X-0.218750X0.256250X0*%
%TD*%
%TA.AperFunction,SMDPad,CuDef*%
%ADD22RoundRect,0.150000X-0.512500X-0.150000X0.512500X-0.150000X0.512500X0.150000X-0.512500X0.150000X0*%
%TD*%
%TA.AperFunction,ComponentPad*%
%ADD23R,1.700000X1.700000*%
%TD*%
%TA.AperFunction,ComponentPad*%
%ADD24C,1.700000*%
%TD*%
%TA.AperFunction,SMDPad,CuDef*%
%ADD25RoundRect,0.250000X-0.450000X-0.350000X0.450000X-0.350000X0.450000X0.350000X-0.450000X0.350000X0*%
%TD*%
%TA.AperFunction,ComponentPad*%
%ADD26RoundRect,0.250000X-1.050000X-1.050000X1.050000X-1.050000X1.050000X1.050000X-1.050000X1.050000X0*%
%TD*%
%TA.AperFunction,ComponentPad*%
%ADD27C,2.600000*%
%TD*%
%TA.AperFunction,ComponentPad*%
%ADD28RoundRect,0.250500X-0.499500X-0.499500X0.499500X-0.499500X0.499500X0.499500X-0.499500X0.499500X0*%
%TD*%
%TA.AperFunction,ComponentPad*%
%ADD29C,1.500000*%
%TD*%
%TA.AperFunction,ComponentPad*%
%ADD30C,2.500000*%
%TD*%
%TA.AperFunction,SMDPad,CuDef*%
%ADD31RoundRect,0.150000X-0.587500X-0.150000X0.587500X-0.150000X0.587500X0.150000X-0.587500X0.150000X0*%
%TD*%
%TA.AperFunction,SMDPad,CuDef*%
%ADD32RoundRect,0.062500X-0.275000X-0.062500X0.275000X-0.062500X0.275000X0.062500X-0.275000X0.062500X0*%
%TD*%
%TA.AperFunction,SMDPad,CuDef*%
%ADD33RoundRect,0.062500X-0.062500X-0.275000X0.062500X-0.275000X0.062500X0.275000X-0.062500X0.275000X0*%
%TD*%
%TA.AperFunction,HeatsinkPad*%
%ADD34R,1.450000X1.450000*%
%TD*%
%TA.AperFunction,SMDPad,CuDef*%
%ADD35RoundRect,0.075000X-0.662500X-0.075000X0.662500X-0.075000X0.662500X0.075000X-0.662500X0.075000X0*%
%TD*%
%TA.AperFunction,SMDPad,CuDef*%
%ADD36RoundRect,0.075000X-0.075000X-0.662500X0.075000X-0.662500X0.075000X0.662500X-0.075000X0.662500X0*%
%TD*%
%TA.AperFunction,SMDPad,CuDef*%
%ADD37RoundRect,0.243750X-0.243750X-0.456250X0.243750X-0.456250X0.243750X0.456250X-0.243750X0.456250X0*%
%TD*%
%TA.AperFunction,SMDPad,CuDef*%
%ADD38R,0.700000X0.700000*%
%TD*%
%TA.AperFunction,SMDPad,CuDef*%
%ADD39RoundRect,0.150000X-0.150000X-0.575000X0.150000X-0.575000X0.150000X0.575000X-0.150000X0.575000X0*%
%TD*%
%TA.AperFunction,SMDPad,CuDef*%
%ADD40RoundRect,0.075000X-0.075000X-0.650000X0.075000X-0.650000X0.075000X0.650000X-0.075000X0.650000X0*%
%TD*%
%TA.AperFunction,ComponentPad*%
%ADD41O,1.000000X2.100000*%
%TD*%
%TA.AperFunction,ComponentPad*%
%ADD42O,1.000000X1.600000*%
%TD*%
%TA.AperFunction,ComponentPad*%
%ADD43RoundRect,0.250000X-0.550000X-0.550000X0.550000X-0.550000X0.550000X0.550000X-0.550000X0.550000X0*%
%TD*%
%TA.AperFunction,ComponentPad*%
%ADD44C,1.600000*%
%TD*%
%TA.AperFunction,ComponentPad*%
%ADD45C,1.800000*%
%TD*%
%TA.AperFunction,ComponentPad*%
%ADD46R,2.300000X2.300000*%
%TD*%
%TA.AperFunction,ComponentPad*%
%ADD47C,2.300000*%
%TD*%
%TA.AperFunction,SMDPad,CuDef*%
%ADD48RoundRect,0.150000X-0.825000X-0.150000X0.825000X-0.150000X0.825000X0.150000X-0.825000X0.150000X0*%
%TD*%
%TA.AperFunction,SMDPad,CuDef*%
%ADD49R,2.700000X3.600000*%
%TD*%
%TA.AperFunction,ComponentPad*%
%ADD50C,2.050000*%
%TD*%
%TA.AperFunction,ComponentPad*%
%ADD51C,2.250000*%
%TD*%
%TA.AperFunction,ComponentPad*%
%ADD52RoundRect,0.250000X-0.750000X-0.900000X0.750000X-0.900000X0.750000X0.900000X-0.750000X0.900000X0*%
%TD*%
%TA.AperFunction,ComponentPad*%
%ADD53O,2.000000X2.300000*%
%TD*%
%TA.AperFunction,ComponentPad*%
%ADD54RoundRect,0.250001X-0.949999X-0.949999X0.949999X-0.949999X0.949999X0.949999X-0.949999X0.949999X0*%
%TD*%
%TA.AperFunction,ComponentPad*%
%ADD55C,2.400000*%
%TD*%
%TA.AperFunction,ComponentPad*%
%ADD56R,3.500000X3.500000*%
%TD*%
%TA.AperFunction,ComponentPad*%
%ADD57RoundRect,0.750000X-0.750000X-1.000000X0.750000X-1.000000X0.750000X1.000000X-0.750000X1.000000X0*%
%TD*%
%TA.AperFunction,ComponentPad*%
%ADD58RoundRect,0.875000X-0.875000X-0.875000X0.875000X-0.875000X0.875000X0.875000X-0.875000X0.875000X0*%
%TD*%
%TA.AperFunction,SMDPad,CuDef*%
%ADD59R,2.500000X5.100000*%
%TD*%
%TA.AperFunction,SMDPad,CuDef*%
%ADD60C,10.200000*%
%TD*%
%TA.AperFunction,SMDPad,CuDef*%
%ADD61R,0.900000X1.200000*%
%TD*%
%TA.AperFunction,ViaPad*%
%ADD62C,0.450000*%
%TD*%
%TA.AperFunction,Conductor*%
%ADD63C,0.200000*%
%TD*%
G04 APERTURE END LIST*
D10*
%TO.P,SW2,1*%
%TO.N,NET_ESP32_GPIO0*%
X196020000Y-121750000D03*
%TO.N,NC_SW2_1_129*%
X203980000Y-121750000D03*
%TO.P,SW2,2*%
%TO.N,GND*%
X196020000Y-126250000D03*
%TO.N,NC_SW2_2_130*%
X203980000Y-126250000D03*
%TD*%
D11*
%TO.P,C11,1*%
%TO.N,NET_ESP32_GPIO8*%
X73050000Y-98000000D03*
%TO.P,C11,2*%
%TO.N,GND*%
X74950000Y-98000000D03*
%TD*%
D12*
%TO.P,C_X1A,1*%
%TO.N,NET_W5500_XTAL_IN*%
X77225000Y-86000000D03*
%TO.P,C_X1A,2*%
%TO.N,GND*%
X78775000Y-86000000D03*
%TD*%
D13*
%TO.P,C21,1*%
%TO.N,NC_C21_1_180*%
X10525000Y-88000000D03*
%TO.P,C21,2*%
%TO.N,GND*%
X13475000Y-88000000D03*
%TD*%
D10*
%TO.P,SW1,1*%
%TO.N,NET_ESP32_EN*%
X57020000Y-118750000D03*
%TO.N,NC_SW1_1_131*%
X64980000Y-118750000D03*
%TO.P,SW1,2*%
%TO.N,GND*%
X57020000Y-123250000D03*
%TO.N,NC_SW1_2_132*%
X64980000Y-123250000D03*
%TD*%
D14*
%TO.P,R34,1*%
%TO.N,3V3_MAIN*%
X195087500Y-96000000D03*
%TO.P,R34,2*%
%TO.N,NET_U5_EN*%
X196912500Y-96000000D03*
%TD*%
D11*
%TO.P,C24,1*%
%TO.N,3V3_MAIN*%
X101050000Y-94000000D03*
%TO.P,C24,2*%
%TO.N,GND*%
X102950000Y-94000000D03*
%TD*%
%TO.P,C25,1*%
%TO.N,NC_C25_1_178*%
X36050000Y-97000000D03*
%TO.P,C25,2*%
%TO.N,GND*%
X37950000Y-97000000D03*
%TD*%
D15*
%TO.P,R39,1*%
%TO.N,NET_DWM3000_EXT_TX_1V8_SERIES*%
X11175000Y-80000000D03*
%TO.P,R39,2*%
%TO.N,NC_R39_2_156*%
X12825000Y-80000000D03*
%TD*%
D11*
%TO.P,C14,1*%
%TO.N,NC_C14_1_183*%
X124050000Y-95000000D03*
%TO.P,C14,2*%
%TO.N,GND*%
X125950000Y-95000000D03*
%TD*%
D14*
%TO.P,R1,1*%
%TO.N,NC_R1_1_171*%
X106087500Y-89000000D03*
%TO.P,R1,2*%
%TO.N,NET_LED1_CURRENT*%
X107912500Y-89000000D03*
%TD*%
D12*
%TO.P,C35,1*%
%TO.N,1V8_DWM*%
X94225000Y-93000000D03*
%TO.P,C35,2*%
%TO.N,GND*%
X95775000Y-93000000D03*
%TD*%
%TO.P,C96,1*%
%TO.N,+1V8*%
X67225000Y-8000000D03*
%TO.P,C96,2*%
%TO.N,GND*%
X68775000Y-8000000D03*
%TD*%
%TO.P,C29,1*%
%TO.N,3V3_MAIN*%
X193225000Y-82000000D03*
%TO.P,C29,2*%
%TO.N,GND*%
X194775000Y-82000000D03*
%TD*%
D16*
%TO.P,F2,1*%
%TO.N,NC_F2_1_195*%
X194600000Y-112000000D03*
%TO.P,F2,2*%
%TO.N,NC_F2_2_196*%
X197400000Y-112000000D03*
%TD*%
D17*
%TO.P,TP8,1*%
%TO.N,NC_TP8_1_18*%
X12000000Y-94000000D03*
%TD*%
D11*
%TO.P,C7,1*%
%TO.N,3V3_MAIN*%
X177050000Y-126000000D03*
%TO.P,C7,2*%
%TO.N,GND*%
X178950000Y-126000000D03*
%TD*%
D12*
%TO.P,C40,1*%
%TO.N,NC_C40_1_175*%
X123225000Y-135000000D03*
%TO.P,C40,2*%
%TO.N,GND*%
X124775000Y-135000000D03*
%TD*%
D14*
%TO.P,R15,1*%
%TO.N,NC_R15_1_160*%
X75087500Y-94000000D03*
%TO.P,R15,2*%
%TO.N,NET_U4_FB*%
X76912500Y-94000000D03*
%TD*%
D12*
%TO.P,C17,1*%
%TO.N,1V8_DWM*%
X148225000Y-128000000D03*
%TO.P,C17,2*%
%TO.N,GND*%
X149775000Y-128000000D03*
%TD*%
D18*
%TO.P,R43,1*%
%TO.N,NET_W5500_TX_P*%
X75490000Y-80000000D03*
%TO.P,R43,2*%
%TO.N,NC_R43_2_154*%
X76510000Y-80000000D03*
%TD*%
D17*
%TO.P,TP13,1*%
%TO.N,NC_TP13_1_13*%
X182000000Y-118000000D03*
%TD*%
D19*
%TO.P,D4,1*%
%TO.N,+5V_ISO*%
X164950000Y-62000000D03*
%TO.P,D4,2*%
%TO.N,NET_ESP32_GPIO0*%
X167050000Y-62000000D03*
%TD*%
D14*
%TO.P,R33,1*%
%TO.N,NC_R33_1_158*%
X185087500Y-90000000D03*
%TO.P,R33,2*%
%TO.N,NC_R33_2_159*%
X186912500Y-90000000D03*
%TD*%
%TO.P,R42,1*%
%TO.N,NET_W5500_INT*%
X155087500Y-80000000D03*
%TO.P,R42,2*%
%TO.N,NET_W5500_INTn*%
X156912500Y-80000000D03*
%TD*%
D11*
%TO.P,C6,1*%
%TO.N,3V3_MAIN*%
X152050000Y-120000000D03*
%TO.P,C6,2*%
%TO.N,GND*%
X153950000Y-120000000D03*
%TD*%
D14*
%TO.P,R23,1*%
%TO.N,NET_ESP32_SPI_CS*%
X65087500Y-114000000D03*
%TO.P,R23,2*%
%TO.N,NET_DWM3000_SPI_CS_3V3_SERIES*%
X66912500Y-114000000D03*
%TD*%
D20*
%TO.P,D6,1*%
%TO.N,+5V_ISO*%
X209000000Y-62000000D03*
%TO.P,D6,2*%
%TO.N,3V3_DWM*%
X213000000Y-62000000D03*
%TD*%
D17*
%TO.P,TP3,1*%
%TO.N,NC_TP3_1_23*%
X55000000Y-131000000D03*
%TD*%
D21*
%TO.P,FB1,1*%
%TO.N,NC_FB1_1_193*%
X199212500Y-100000000D03*
%TO.P,FB1,2*%
%TO.N,NC_FB1_2_194*%
X200787500Y-100000000D03*
%TD*%
D12*
%TO.P,C19,1*%
%TO.N,1V8_DWM*%
X207225000Y-92000000D03*
%TO.P,C19,2*%
%TO.N,GND*%
X208775000Y-92000000D03*
%TD*%
%TO.P,C91,1*%
%TO.N,+3V3*%
X134225000Y-13000000D03*
%TO.P,C91,2*%
%TO.N,GND*%
X135775000Y-13000000D03*
%TD*%
D22*
%TO.P,U14,1*%
%TO.N,3V3_MAIN*%
X160862500Y-101050000D03*
%TO.P,U14,2*%
%TO.N,GND*%
X160862500Y-102000000D03*
%TO.P,U14,3*%
%TO.N,NC_U14_3_256*%
X160862500Y-102950000D03*
%TO.P,U14,4*%
%TO.N,NET_DWM3000_EXT_RX_1V8*%
X163137500Y-102950000D03*
%TO.P,U14,5*%
%TO.N,3V3_MAIN*%
X163137500Y-102000000D03*
%TO.P,U14,6*%
%TO.N,1V8_DWM*%
X163137500Y-101050000D03*
%TD*%
D23*
%TO.P,J10,1*%
%TO.N,NC_J10_1_75*%
X140000000Y-93000000D03*
D24*
%TO.P,J10,2*%
%TO.N,NC_J10_2_76*%
X140000000Y-95540000D03*
%TO.P,J10,3*%
%TO.N,NC_J10_3_77*%
X140000000Y-98080000D03*
%TO.P,J10,4*%
%TO.N,NC_J10_4_78*%
X140000000Y-100620000D03*
%TO.P,J10,5*%
%TO.N,NC_J10_5_79*%
X140000000Y-103160000D03*
%TO.P,J10,6*%
%TO.N,NC_J10_6_80*%
X140000000Y-105700000D03*
%TD*%
D12*
%TO.P,C42,1*%
%TO.N,NC_C42_1_173*%
X146225000Y-135000000D03*
%TO.P,C42,2*%
%TO.N,GND*%
X147775000Y-135000000D03*
%TD*%
D14*
%TO.P,R20,1*%
%TO.N,NET_ESP32_SPI_CLK*%
X203087500Y-112000000D03*
%TO.P,R20,2*%
%TO.N,NET_DWM3000_SPI_CLK_3V3_SERIES*%
X204912500Y-112000000D03*
%TD*%
D25*
%TO.P,X1,1*%
%TO.N,NET_W5500_XTAL_IN*%
X58900000Y-111850000D03*
%TO.P,X1,2*%
%TO.N,NET_W5500_XTAL_OUT*%
X61100000Y-111850000D03*
%TO.P,X1,3*%
%TO.N,NC_X1_3_186*%
X61100000Y-110150000D03*
%TO.P,X1,4*%
%TO.N,NC_X1_4_187*%
X58900000Y-110150000D03*
%TD*%
D14*
%TO.P,R6,1*%
%TO.N,NC_R6_1_169*%
X177087500Y-98000000D03*
%TO.P,R6,2*%
%TO.N,NC_R6_2_170*%
X178912500Y-98000000D03*
%TD*%
D26*
%TO.P,J1_AC,1*%
%TO.N,AC_L*%
X156000000Y-130000000D03*
D27*
%TO.P,J1_AC,2*%
%TO.N,AC_N*%
X161000000Y-130000000D03*
%TO.P,J1_AC,3*%
%TO.N,NC_J1_AC_3_128*%
X166000000Y-130000000D03*
%TD*%
D15*
%TO.P,R40,1*%
%TO.N,NET_DWM3000_DEBUGOUT_1V8*%
X123175000Y-80000000D03*
%TO.P,R40,2*%
%TO.N,NC_R40_2_155*%
X124825000Y-80000000D03*
%TD*%
D28*
%TO.P,J18,1*%
%TO.N,NET_W5500_TX_P*%
X76000000Y-116000000D03*
D29*
%TO.P,J18,2*%
%TO.N,NET_W5500_TX_N*%
X77260000Y-113460000D03*
%TO.P,J18,3*%
%TO.N,NET_W5500_RX_P*%
X78540000Y-116000000D03*
%TO.P,J18,4*%
%TO.N,NC_J18_4_28*%
X79800000Y-113460000D03*
%TO.P,J18,5*%
%TO.N,NC_J18_5_29*%
X81080000Y-116000000D03*
%TO.P,J18,6*%
%TO.N,NET_W5500_RX_N*%
X82340000Y-113460000D03*
%TO.P,J18,7*%
%TO.N,NC_J18_7_30*%
X83620000Y-116000000D03*
%TO.P,J18,8*%
%TO.N,NC_J18_8_31*%
X84880000Y-113460000D03*
%TO.P,J18,9*%
%TO.N,NC_J18_9_32*%
X73815000Y-127260000D03*
%TO.P,J18,10*%
%TO.N,NC_J18_10_33*%
X76355000Y-127260000D03*
%TO.P,J18,11*%
%TO.N,NC_J18_11_34*%
X84525000Y-127260000D03*
%TO.P,J18,12*%
%TO.N,NC_J18_12_35*%
X87065000Y-127260000D03*
D30*
%TO.P,J18,SH*%
%TO.N,GND*%
X72695000Y-119310000D03*
%TO.N,NC_J18_SH_36*%
X88185000Y-119310000D03*
%TD*%
D17*
%TO.P,TP1,1*%
%TO.N,NC_TP1_1_25*%
X26000000Y-134000000D03*
%TD*%
%TO.P,TP17,1*%
%TO.N,NC_TP17_1_9*%
X33000000Y-85000000D03*
%TD*%
D14*
%TO.P,R13,1*%
%TO.N,SPI_MISO_3V3_MCU*%
X107087500Y-71630000D03*
%TO.P,R13,2*%
%TO.N,NET_I2C_SCL*%
X108912500Y-71630000D03*
%TD*%
D17*
%TO.P,TP11,1*%
%TO.N,NC_TP11_1_15*%
X147000000Y-121000000D03*
%TD*%
D20*
%TO.P,D7,1*%
%TO.N,+5V_ISO*%
X197000000Y-62000000D03*
%TO.P,D7,2*%
%TO.N,NC_D7_2_202*%
X201000000Y-62000000D03*
%TD*%
D23*
%TO.P,J8,1*%
%TO.N,NC_J8_1_87*%
X33000000Y-117000000D03*
D24*
%TO.P,J8,2*%
%TO.N,NC_J8_2_88*%
X33000000Y-119540000D03*
%TO.P,J8,3*%
%TO.N,NC_J8_3_89*%
X33000000Y-122080000D03*
%TO.P,J8,4*%
%TO.N,NC_J8_4_90*%
X33000000Y-124620000D03*
%TO.P,J8,5*%
%TO.N,NC_J8_5_91*%
X33000000Y-127160000D03*
%TO.P,J8,6*%
%TO.N,NC_J8_6_92*%
X33000000Y-129700000D03*
%TD*%
D14*
%TO.P,R7,1*%
%TO.N,NC_R7_1_167*%
X181087500Y-110000000D03*
%TO.P,R7,2*%
%TO.N,NC_R7_2_168*%
X182912500Y-110000000D03*
%TD*%
D11*
%TO.P,C15,1*%
%TO.N,NC_C15_1_182*%
X107050000Y-95000000D03*
%TO.P,C15,2*%
%TO.N,GND*%
X108950000Y-95000000D03*
%TD*%
D23*
%TO.P,SK1,1*%
%TO.N,5V_USB_FILTERED*%
X68000000Y-54000000D03*
D24*
%TO.P,SK1,2*%
%TO.N,GND*%
X68000000Y-56540000D03*
%TO.P,SK1,3*%
%TO.N,NET_ESP32_EN*%
X68000000Y-59080000D03*
%TO.P,SK1,4*%
%TO.N,NET_ESP32_GPIO4*%
X68000000Y-61620000D03*
%TO.P,SK1,5*%
%TO.N,NET_ESP32_GPIO5*%
X68000000Y-64160000D03*
%TO.P,SK1,6*%
%TO.N,NET_ESP32_GPIO6*%
X68000000Y-66700000D03*
%TO.P,SK1,7*%
%TO.N,NET_ESP32_GPIO7*%
X68000000Y-69240000D03*
%TO.P,SK1,8*%
%TO.N,NET_ESP32_EXT_TX*%
X68000000Y-71780000D03*
%TO.P,SK1,9*%
%TO.N,NET_ESP32_EXT_RX*%
X68000000Y-74320000D03*
%TO.P,SK1,10*%
%TO.N,GND*%
X68000000Y-76860000D03*
%TO.P,SK1,11*%
X68000000Y-79400000D03*
%TO.P,SK1,12*%
%TO.N,NET_ESP32_GPIO8*%
X68000000Y-81940000D03*
%TO.P,SK1,13*%
%TO.N,GND*%
X68000000Y-84480000D03*
%TO.P,SK1,14*%
X68000000Y-87020000D03*
%TO.P,SK1,15*%
%TO.N,NET_UART_RX*%
X68000000Y-89560000D03*
%TO.P,SK1,16*%
%TO.N,NET_UART_TX*%
X68000000Y-92100000D03*
%TO.P,SK1,17*%
%TO.N,NET_ESP32_GPIO1*%
X68000000Y-94640000D03*
%TO.P,SK1,18*%
%TO.N,NET_ESP32_GPIO2*%
X68000000Y-97180000D03*
%TO.P,SK1,19*%
%TO.N,NET_W5500_SPI2_CS*%
X68000000Y-99720000D03*
%TO.P,SK1,20*%
%TO.N,NET_W5500_SPI2_MISO*%
X68000000Y-102260000D03*
%TO.P,SK1,21*%
%TO.N,NET_W5500_SPI2_MOSI*%
X68000000Y-104800000D03*
%TO.P,SK1,22*%
%TO.N,NET_W5500_SPI2_CLK*%
X68000000Y-107340000D03*
%TD*%
D31*
%TO.P,Q4,1*%
%TO.N,NET_U12_COLLECTOR*%
X157062500Y-61050000D03*
%TO.P,Q4,2*%
%TO.N,GND*%
X157062500Y-62950000D03*
%TO.P,Q4,3*%
%TO.N,NET_K2_SWITCHED*%
X158937500Y-62000000D03*
%TD*%
D14*
%TO.P,R19,1*%
%TO.N,NET_U12_COLLECTOR*%
X193087500Y-106000000D03*
%TO.P,R19,2*%
%TO.N,GND*%
X194912500Y-106000000D03*
%TD*%
D12*
%TO.P,C93,1*%
%TO.N,+3V3*%
X108225000Y-39000000D03*
%TO.P,C93,2*%
%TO.N,GND*%
X109775000Y-39000000D03*
%TD*%
D17*
%TO.P,TP2,1*%
%TO.N,NC_TP2_1_24*%
X174000000Y-134000000D03*
%TD*%
D12*
%TO.P,C102,1*%
%TO.N,+1V8*%
X81225000Y-8000000D03*
%TO.P,C102,2*%
%TO.N,GND*%
X82775000Y-8000000D03*
%TD*%
D32*
%TO.P,U6,1*%
%TO.N,3V3_MAIN*%
X26737500Y-19500000D03*
%TO.P,U6,2*%
%TO.N,NET_DWM3000_SPI_CLK_3V3_SERIES*%
X26737500Y-20000000D03*
%TO.P,U6,3*%
%TO.N,NET_DWM3000_SPI_MOSI_3V3_SERIES*%
X26737500Y-20500000D03*
D33*
%TO.P,U6,4*%
%TO.N,NET_DWM3000_SPI_MISO_3V3_SERIES*%
X27250000Y-21262500D03*
%TO.P,U6,5*%
%TO.N,NET_DWM3000_SPI_CS_3V3_SERIES*%
X27750000Y-21262500D03*
%TO.P,U6,6*%
%TO.N,NC_U6_6_261*%
X28250000Y-21262500D03*
%TO.P,U6,7*%
%TO.N,GND*%
X28750000Y-21262500D03*
D32*
%TO.P,U6,8*%
X29262500Y-20500000D03*
%TO.P,U6,9*%
%TO.N,NC_U6_9_262*%
X29262500Y-20000000D03*
%TO.P,U6,10*%
%TO.N,NET_DWM3000_SPI_CS_1V8*%
X29262500Y-19500000D03*
D33*
%TO.P,U6,11*%
%TO.N,NET_DWM3000_SPI_MISO_1V8*%
X28750000Y-18737500D03*
%TO.P,U6,12*%
%TO.N,NET_DWM3000_SPI_MOSI_1V8*%
X28250000Y-18737500D03*
%TO.P,U6,13*%
%TO.N,NET_DWM3000_SPI_CLK_1V8*%
X27750000Y-18737500D03*
%TO.P,U6,14*%
%TO.N,1V8_DWM*%
X27250000Y-18737500D03*
D34*
%TO.P,U6,15*%
%TO.N,NC_U6_15_263*%
X28000000Y-20000000D03*
%TD*%
D14*
%TO.P,R_LED5,1*%
%TO.N,NET_ESP32_GPIO2*%
X107087500Y-83000000D03*
%TO.P,R_LED5,2*%
%TO.N,NET_LED5_CURRENT*%
X108912500Y-83000000D03*
%TD*%
D35*
%TO.P,U15,1*%
%TO.N,NET_W5500_TX_N*%
X23837500Y-101250000D03*
%TO.P,U15,2*%
%TO.N,NET_W5500_TX_P*%
X23837500Y-101750000D03*
%TO.P,U15,3*%
%TO.N,NC_U15_3_215*%
X23837500Y-102250000D03*
%TO.P,U15,4*%
%TO.N,NC_U15_4_216*%
X23837500Y-102750000D03*
%TO.P,U15,5*%
%TO.N,NET_W5500_RX_P*%
X23837500Y-103250000D03*
%TO.P,U15,6*%
%TO.N,NET_W5500_RX_N*%
X23837500Y-103750000D03*
%TO.P,U15,7*%
%TO.N,NC_U15_7_217*%
X23837500Y-104250000D03*
%TO.P,U15,8*%
%TO.N,NC_U15_8_218*%
X23837500Y-104750000D03*
%TO.P,U15,9*%
%TO.N,NC_U15_9_219*%
X23837500Y-105250000D03*
%TO.P,U15,10*%
%TO.N,NC_U15_10_220*%
X23837500Y-105750000D03*
%TO.P,U15,11*%
%TO.N,NC_U15_11_221*%
X23837500Y-106250000D03*
%TO.P,U15,12*%
%TO.N,NC_U15_12_222*%
X23837500Y-106750000D03*
D36*
%TO.P,U15,13*%
%TO.N,NC_U15_13_223*%
X25250000Y-108162500D03*
%TO.P,U15,14*%
%TO.N,NC_U15_14_224*%
X25750000Y-108162500D03*
%TO.P,U15,15*%
%TO.N,NC_U15_15_225*%
X26250000Y-108162500D03*
%TO.P,U15,16*%
%TO.N,GND*%
X26750000Y-108162500D03*
%TO.P,U15,17*%
%TO.N,NC_U15_17_226*%
X27250000Y-108162500D03*
%TO.P,U15,18*%
%TO.N,NC_U15_18_227*%
X27750000Y-108162500D03*
%TO.P,U15,19*%
%TO.N,NC_U15_19_228*%
X28250000Y-108162500D03*
%TO.P,U15,20*%
%TO.N,NC_U15_20_229*%
X28750000Y-108162500D03*
%TO.P,U15,21*%
%TO.N,NC_U15_21_230*%
X29250000Y-108162500D03*
%TO.P,U15,22*%
%TO.N,NC_U15_22_231*%
X29750000Y-108162500D03*
%TO.P,U15,23*%
%TO.N,NC_U15_23_232*%
X30250000Y-108162500D03*
%TO.P,U15,24*%
%TO.N,NC_U15_24_233*%
X30750000Y-108162500D03*
D35*
%TO.P,U15,25*%
%TO.N,NC_U15_25_234*%
X32162500Y-106750000D03*
%TO.P,U15,26*%
%TO.N,NC_U15_26_235*%
X32162500Y-106250000D03*
%TO.P,U15,27*%
%TO.N,NC_U15_27_236*%
X32162500Y-105750000D03*
%TO.P,U15,28*%
%TO.N,NC_U15_28_237*%
X32162500Y-105250000D03*
%TO.P,U15,29*%
%TO.N,NC_U15_29_238*%
X32162500Y-104750000D03*
%TO.P,U15,30*%
%TO.N,NET_W5500_XTAL_IN*%
X32162500Y-104250000D03*
%TO.P,U15,31*%
%TO.N,NET_W5500_XTAL_OUT*%
X32162500Y-103750000D03*
%TO.P,U15,32*%
%TO.N,NC_U15_32_239*%
X32162500Y-103250000D03*
%TO.P,U15,33*%
%TO.N,NET_W5500_SPI2_MOSI*%
X32162500Y-102750000D03*
%TO.P,U15,34*%
%TO.N,NET_W5500_SPI2_MISO*%
X32162500Y-102250000D03*
%TO.P,U15,35*%
%TO.N,NET_W5500_SPI2_CLK*%
X32162500Y-101750000D03*
%TO.P,U15,36*%
%TO.N,NET_W5500_SPI2_CS*%
X32162500Y-101250000D03*
D36*
%TO.P,U15,37*%
%TO.N,NET_W5500_nRESET*%
X30750000Y-99837500D03*
%TO.P,U15,38*%
%TO.N,NET_W5500_INTn*%
X30250000Y-99837500D03*
%TO.P,U15,39*%
%TO.N,NC_U15_39_240*%
X29750000Y-99837500D03*
%TO.P,U15,40*%
%TO.N,NC_U15_40_241*%
X29250000Y-99837500D03*
%TO.P,U15,41*%
%TO.N,NC_U15_41_242*%
X28750000Y-99837500D03*
%TO.P,U15,42*%
%TO.N,NC_U15_42_243*%
X28250000Y-99837500D03*
%TO.P,U15,43*%
%TO.N,NC_U15_43_244*%
X27750000Y-99837500D03*
%TO.P,U15,44*%
%TO.N,NC_U15_44_245*%
X27250000Y-99837500D03*
%TO.P,U15,45*%
%TO.N,NET_W5500_REGD*%
X26750000Y-99837500D03*
%TO.P,U15,46*%
%TO.N,NC_U15_46_246*%
X26250000Y-99837500D03*
%TO.P,U15,47*%
%TO.N,NC_U15_47_247*%
X25750000Y-99837500D03*
%TO.P,U15,48*%
%TO.N,NC_U15_48_248*%
X25250000Y-99837500D03*
%TD*%
D12*
%TO.P,C95,1*%
%TO.N,+3V3*%
X67225000Y-20000000D03*
%TO.P,C95,2*%
%TO.N,GND*%
X68775000Y-20000000D03*
%TD*%
D37*
%TO.P,LED4,1*%
%TO.N,NC_LED4_1_142*%
X5062500Y-130000000D03*
%TO.P,LED4,2*%
%TO.N,NC_LED4_2_143*%
X6937500Y-130000000D03*
%TD*%
D23*
%TO.P,SK2,1*%
%TO.N,5V_USB_FILTERED*%
X88320000Y-54000000D03*
D24*
%TO.P,SK2,2*%
%TO.N,GND*%
X88320000Y-56540000D03*
%TO.P,SK2,3*%
X88320000Y-59080000D03*
%TO.P,SK2,4*%
X88320000Y-61620000D03*
%TO.P,SK2,5*%
%TO.N,NET_ESP32_GPIO0*%
X88320000Y-64160000D03*
%TO.P,SK2,6*%
%TO.N,NET_ESP32_GPIO45*%
X88320000Y-66700000D03*
%TO.P,SK2,7*%
%TO.N,NET_W5500_INT*%
X88320000Y-69240000D03*
%TO.P,SK2,8*%
%TO.N,NET_W5500_RST*%
X88320000Y-71780000D03*
%TO.P,SK2,9*%
%TO.N,NET_I2C_SDA*%
X88320000Y-74320000D03*
%TO.P,SK2,10*%
%TO.N,NET_ESP32_IRQ*%
X88320000Y-76860000D03*
%TO.P,SK2,11*%
%TO.N,NET_ESP32_SPI_CS*%
X88320000Y-79400000D03*
%TO.P,SK2,12*%
%TO.N,NET_ESP32_SPI_MISO*%
X88320000Y-81940000D03*
%TO.P,SK2,13*%
%TO.N,NET_ESP32_SPI_MOSI*%
X88320000Y-84480000D03*
%TO.P,SK2,14*%
%TO.N,NET_ESP32_SPI_CLK*%
X88320000Y-87020000D03*
%TO.P,SK2,15*%
%TO.N,NET_ESP32_GPIO9*%
X88320000Y-89560000D03*
%TO.P,SK2,16*%
%TO.N,GND*%
X88320000Y-92100000D03*
%TO.P,SK2,17*%
X88320000Y-94640000D03*
%TO.P,SK2,18*%
X88320000Y-97180000D03*
%TO.P,SK2,19*%
X88320000Y-99720000D03*
%TO.P,SK2,20*%
X88320000Y-102260000D03*
%TO.P,SK2,21*%
X88320000Y-104800000D03*
%TO.P,SK2,22*%
X88320000Y-107340000D03*
%TD*%
D12*
%TO.P,C32,1*%
%TO.N,NET_U4_COMP*%
X187225000Y-82000000D03*
%TO.P,C32,2*%
%TO.N,GND*%
X188775000Y-82000000D03*
%TD*%
D31*
%TO.P,Q3,1*%
%TO.N,NET_U11_COLLECTOR*%
X115062500Y-61050000D03*
%TO.P,Q3,2*%
%TO.N,GND*%
X115062500Y-62950000D03*
%TO.P,Q3,3*%
%TO.N,NET_K1_SWITCHED*%
X116937500Y-62000000D03*
%TD*%
D37*
%TO.P,LED2,1*%
%TO.N,NC_LED2_1_146*%
X132062500Y-79000000D03*
%TO.P,LED2,2*%
%TO.N,NC_LED2_2_147*%
X133937500Y-79000000D03*
%TD*%
D38*
%TO.P,LED6,1*%
%TO.N,NC_LED6_1_136*%
X25085000Y-117450000D03*
%TO.P,LED6,2*%
%TO.N,NC_LED6_2_137*%
X25085000Y-118550000D03*
%TO.P,LED6,3*%
%TO.N,NC_LED6_3_138*%
X26915000Y-118550000D03*
%TO.P,LED6,4*%
%TO.N,NC_LED6_4_139*%
X26915000Y-117450000D03*
%TD*%
D23*
%TO.P,J13,1*%
%TO.N,NC_J13_1_57*%
X188000000Y-108000000D03*
D24*
%TO.P,J13,2*%
%TO.N,NC_J13_2_58*%
X188000000Y-110540000D03*
%TO.P,J13,3*%
%TO.N,NC_J13_3_59*%
X188000000Y-113080000D03*
%TO.P,J13,4*%
%TO.N,NC_J13_4_60*%
X188000000Y-115620000D03*
%TO.P,J13,5*%
%TO.N,NC_J13_5_61*%
X188000000Y-118160000D03*
%TO.P,J13,6*%
%TO.N,NC_J13_6_62*%
X188000000Y-120700000D03*
%TD*%
D39*
%TO.P,J1_USB,A1*%
%TO.N,GND*%
X168750000Y-113955000D03*
%TO.P,J1_USB,A4*%
%TO.N,5V_USB*%
X169550000Y-113955000D03*
D40*
%TO.P,J1_USB,A5*%
%TO.N,NC_J1_USB_A5_121*%
X170750000Y-113955000D03*
%TO.P,J1_USB,A6*%
%TO.N,NET_USB_D_P*%
X171750000Y-113955000D03*
%TO.P,J1_USB,A7*%
%TO.N,NET_USB_D_N*%
X172250000Y-113955000D03*
%TO.P,J1_USB,A8*%
%TO.N,NC_J1_USB_A8_122*%
X173250000Y-113955000D03*
D39*
%TO.P,J1_USB,A9*%
%TO.N,5V_USB*%
X174450000Y-113955000D03*
%TO.P,J1_USB,A12*%
%TO.N,GND*%
X175250000Y-113955000D03*
%TO.P,J1_USB,B1*%
X175250000Y-113955000D03*
%TO.P,J1_USB,B4*%
%TO.N,5V_USB*%
X174450000Y-113955000D03*
D40*
%TO.P,J1_USB,B5*%
%TO.N,NC_J1_USB_B5_123*%
X173750000Y-113955000D03*
%TO.P,J1_USB,B6*%
%TO.N,NET_USB_D_P*%
X172750000Y-113955000D03*
%TO.P,J1_USB,B7*%
%TO.N,NET_USB_D_N*%
X171250000Y-113955000D03*
%TO.P,J1_USB,B8*%
%TO.N,NC_J1_USB_B8_124*%
X170250000Y-113955000D03*
D39*
%TO.P,J1_USB,B9*%
%TO.N,5V_USB*%
X169550000Y-113955000D03*
%TO.P,J1_USB,B12*%
%TO.N,GND*%
X168750000Y-113955000D03*
D41*
%TO.P,J1_USB,SH*%
X167680000Y-114870000D03*
D42*
%TO.N,NC_J1_USB_SH_125*%
X167680000Y-119050000D03*
D41*
%TO.N,NC_J1_USB_SH_126*%
X176320000Y-114870000D03*
D42*
%TO.N,NC_J1_USB_SH_127*%
X176320000Y-119050000D03*
%TD*%
D43*
%TO.P,U12,1*%
%TO.N,NC_U12_1_207*%
X75000000Y-104000000D03*
D44*
%TO.P,U12,2*%
%TO.N,NC_U12_2_208*%
X75000000Y-106540000D03*
%TO.P,U12,3*%
%TO.N,NC_U12_3_209*%
X82620000Y-106540000D03*
%TO.P,U12,4*%
%TO.N,NC_U12_4_210*%
X82620000Y-104000000D03*
%TD*%
D14*
%TO.P,R29,1*%
%TO.N,3V3_MAIN*%
X136087500Y-75000000D03*
%TO.P,R29,2*%
%TO.N,NET_ESP32_GPIO0*%
X137912500Y-75000000D03*
%TD*%
D20*
%TO.P,D1,1*%
%TO.N,+5V_ISO*%
X38000000Y-62000000D03*
%TO.P,D1,2*%
%TO.N,NET_U4_SW*%
X42000000Y-62000000D03*
%TD*%
D14*
%TO.P,R47,1*%
%TO.N,NET_ESP32_EN*%
X139087500Y-83000000D03*
%TO.P,R47,2*%
%TO.N,NC_R47_2_150*%
X140912500Y-83000000D03*
%TD*%
D12*
%TO.P,C27,1*%
%TO.N,1V8_DWM*%
X107225000Y-79000000D03*
%TO.P,C27,2*%
%TO.N,GND*%
X108775000Y-79000000D03*
%TD*%
D22*
%TO.P,U8,1*%
%TO.N,NET_U8_DELAY*%
X83862500Y-13050000D03*
%TO.P,U8,2*%
%TO.N,NET_ESP32_GPIO45*%
X83862500Y-14000000D03*
%TO.P,U8,3*%
%TO.N,GND*%
X83862500Y-14950000D03*
%TO.P,U8,4*%
%TO.N,NET_ESP32_EN*%
X86137500Y-14950000D03*
%TO.P,U8,5*%
%TO.N,3V3_MAIN*%
X86137500Y-14000000D03*
%TO.P,U8,6*%
%TO.N,NC_U8_6_255*%
X86137500Y-13050000D03*
%TD*%
D45*
%TO.P,RV1,1*%
%TO.N,AC_L*%
X143000000Y-112000000D03*
%TO.P,RV1,2*%
%TO.N,AC_N*%
X150500000Y-114000000D03*
%TD*%
D15*
%TO.P,R_RST2,1*%
%TO.N,NET_DWM3000_RSTN_1V65*%
X213175000Y-134000000D03*
%TO.P,R_RST2,2*%
%TO.N,GND*%
X214825000Y-134000000D03*
%TD*%
D12*
%TO.P,C20,1*%
%TO.N,1V8_DWM*%
X208225000Y-128000000D03*
%TO.P,C20,2*%
%TO.N,GND*%
X209775000Y-128000000D03*
%TD*%
D11*
%TO.P,C44,1*%
%TO.N,NET_W5500_REGD*%
X208050000Y-123000000D03*
%TO.P,C44,2*%
%TO.N,GND*%
X209950000Y-123000000D03*
%TD*%
D12*
%TO.P,C39,1*%
%TO.N,NC_C39_1_176*%
X149225000Y-102000000D03*
%TO.P,C39,2*%
%TO.N,GND*%
X150775000Y-102000000D03*
%TD*%
D46*
%TO.P,K1,1*%
%TO.N,+5V_ISO*%
X25000000Y-76000000D03*
D47*
%TO.P,K1,2*%
%TO.N,NC_K1_2_206*%
X35160000Y-76000000D03*
%TO.P,K1,3*%
%TO.N,NET_K1_NC*%
X42780000Y-76000000D03*
%TO.P,K1,4*%
%TO.N,NET_K1_COM*%
X40240000Y-68380000D03*
%TO.P,K1,5*%
%TO.N,NET_K1_NO*%
X25000000Y-68380000D03*
%TD*%
D48*
%TO.P,U10,1*%
%TO.N,NC_U10_1_249*%
X9525000Y-99095000D03*
%TO.P,U10,2*%
%TO.N,NC_U10_2_250*%
X9525000Y-100365000D03*
%TO.P,U10,3*%
%TO.N,NC_U10_3_251*%
X9525000Y-101635000D03*
%TO.P,U10,4*%
%TO.N,GND*%
X9525000Y-102905000D03*
%TO.P,U10,5*%
%TO.N,NET_I2C_SDA*%
X14475000Y-102905000D03*
%TO.P,U10,6*%
%TO.N,NET_I2C_SCL*%
X14475000Y-101635000D03*
%TO.P,U10,7*%
%TO.N,NET_EEPROM_WP*%
X14475000Y-100365000D03*
%TO.P,U10,8*%
%TO.N,3V3_MAIN*%
X14475000Y-99095000D03*
%TD*%
D31*
%TO.P,Q2,1*%
%TO.N,NET_USB_RTS*%
X73062500Y-67050000D03*
%TO.P,Q2,2*%
%TO.N,GND*%
X73062500Y-68950000D03*
%TO.P,Q2,3*%
%TO.N,NET_ESP32_GPIO0*%
X74937500Y-68000000D03*
%TD*%
D14*
%TO.P,R21,1*%
%TO.N,NET_ESP32_SPI_MOSI*%
X99087500Y-88000000D03*
%TO.P,R21,2*%
%TO.N,NET_DWM3000_SPI_MOSI_3V3_SERIES*%
X100912500Y-88000000D03*
%TD*%
D49*
%TO.P,L1,1*%
%TO.N,NET_U4_SW*%
X39850000Y-120000000D03*
%TO.P,L1,2*%
%TO.N,NC_L1_2_188*%
X48150000Y-120000000D03*
%TD*%
D11*
%TO.P,C5,1*%
%TO.N,NC_C5_1_185*%
X133050000Y-120000000D03*
%TO.P,C5,2*%
%TO.N,GND*%
X134950000Y-120000000D03*
%TD*%
D12*
%TO.P,C36,1*%
%TO.N,3V3_MAIN*%
X101225000Y-102000000D03*
%TO.P,C36,2*%
%TO.N,GND*%
X102775000Y-102000000D03*
%TD*%
D11*
%TO.P,C9,1*%
%TO.N,3V3_MAIN*%
X17050000Y-122000000D03*
%TO.P,C9,2*%
%TO.N,GND*%
X18950000Y-122000000D03*
%TD*%
D23*
%TO.P,J9,1*%
%TO.N,NC_J9_1_81*%
X211000000Y-105000000D03*
D24*
%TO.P,J9,2*%
%TO.N,NC_J9_2_82*%
X211000000Y-107540000D03*
%TO.P,J9,3*%
%TO.N,NC_J9_3_83*%
X211000000Y-110080000D03*
%TO.P,J9,4*%
%TO.N,NC_J9_4_84*%
X211000000Y-112620000D03*
%TO.P,J9,5*%
%TO.N,NC_J9_5_85*%
X211000000Y-115160000D03*
%TO.P,J9,6*%
%TO.N,NC_J9_6_86*%
X211000000Y-117700000D03*
%TD*%
D50*
%TO.P,ANT1,1*%
%TO.N,NET_RF_UWB*%
X188000000Y-130000000D03*
D51*
%TO.P,ANT1,2*%
%TO.N,GND*%
X185460000Y-127460000D03*
%TO.N,NC_ANT1_2_5*%
X185460000Y-132540000D03*
%TO.N,NC_ANT1_2_6*%
X190540000Y-127460000D03*
%TO.N,NC_ANT1_2_7*%
X190540000Y-132540000D03*
%TD*%
D52*
%TO.P,U3,1*%
%TO.N,AC_L*%
X118000000Y-30000000D03*
D53*
%TO.P,U3,2*%
%TO.N,AC_N*%
X118000000Y-37800000D03*
%TO.P,U3,3*%
%TO.N,NC_U3_3_270*%
X160500000Y-22600000D03*
%TO.P,U3,4*%
%TO.N,GND*%
X160500000Y-45200000D03*
%TD*%
D22*
%TO.P,U7,1*%
%TO.N,1V8_DWM*%
X75862500Y-13050000D03*
%TO.P,U7,2*%
%TO.N,GND*%
X75862500Y-14000000D03*
%TO.P,U7,3*%
%TO.N,NET_DWM3000_IRQ_1V8*%
X75862500Y-14950000D03*
%TO.P,U7,4*%
%TO.N,NET_ESP32_IRQ*%
X78137500Y-14950000D03*
%TO.P,U7,5*%
%TO.N,3V3_MAIN*%
X78137500Y-14000000D03*
%TO.P,U7,6*%
X78137500Y-13050000D03*
%TD*%
D20*
%TO.P,D2,1*%
%TO.N,+5V_ISO*%
X77000000Y-62000000D03*
%TO.P,D2,2*%
%TO.N,NC_D2_2_204*%
X81000000Y-62000000D03*
%TD*%
D11*
%TO.P,C16,1*%
%TO.N,NC_C16_1_181*%
X123050000Y-122000000D03*
%TO.P,C16,2*%
%TO.N,GND*%
X124950000Y-122000000D03*
%TD*%
D23*
%TO.P,J7,1*%
%TO.N,NC_J7_1_93*%
X8000000Y-108000000D03*
D24*
%TO.P,J7,2*%
%TO.N,NC_J7_2_94*%
X8000000Y-110540000D03*
%TO.P,J7,3*%
%TO.N,NC_J7_3_95*%
X8000000Y-113080000D03*
%TO.P,J7,4*%
%TO.N,NC_J7_4_96*%
X8000000Y-115620000D03*
%TO.P,J7,5*%
%TO.N,NC_J7_5_97*%
X8000000Y-118160000D03*
%TO.P,J7,6*%
%TO.N,NC_J7_6_98*%
X8000000Y-120700000D03*
%TD*%
D12*
%TO.P,C31,1*%
%TO.N,NET_U4_COMP*%
X213225000Y-94000000D03*
%TO.P,C31,2*%
%TO.N,GND*%
X214775000Y-94000000D03*
%TD*%
D17*
%TO.P,TP9,1*%
%TO.N,NC_TP9_1_17*%
X28000000Y-94000000D03*
%TD*%
D15*
%TO.P,R_RST1,1*%
%TO.N,NET_ESP32_GPIO9*%
X53175000Y-74000000D03*
%TO.P,R_RST1,2*%
%TO.N,NET_DWM3000_RSTN_1V65*%
X54825000Y-74000000D03*
%TD*%
D12*
%TO.P,C_X1B,1*%
%TO.N,NET_W5500_XTAL_OUT*%
X81225000Y-98000000D03*
%TO.P,C_X1B,2*%
%TO.N,GND*%
X82775000Y-98000000D03*
%TD*%
D14*
%TO.P,R18,1*%
%TO.N,NET_U11_COLLECTOR*%
X195087500Y-88000000D03*
%TO.P,R18,2*%
%TO.N,GND*%
X196912500Y-88000000D03*
%TD*%
D37*
%TO.P,LED5,1*%
%TO.N,NC_LED5_1_140*%
X153062500Y-106000000D03*
%TO.P,LED5,2*%
%TO.N,NC_LED5_2_141*%
X154937500Y-106000000D03*
%TD*%
D12*
%TO.P,C99,1*%
%TO.N,+5V_ISO*%
X73225000Y-20000000D03*
%TO.P,C99,2*%
%TO.N,GND*%
X74775000Y-20000000D03*
%TD*%
D21*
%TO.P,FB2,1*%
%TO.N,NC_FB2_1_191*%
X5212500Y-126000000D03*
%TO.P,FB2,2*%
%TO.N,NC_FB2_2_192*%
X6787500Y-126000000D03*
%TD*%
D54*
%TO.P,J5,1*%
%TO.N,NC_J5_1_109*%
X125000000Y-111000000D03*
D55*
%TO.P,J5,2*%
%TO.N,NC_J5_2_110*%
X128500000Y-111000000D03*
%TO.P,J5,3*%
%TO.N,NC_J5_3_111*%
X132000000Y-111000000D03*
%TD*%
D11*
%TO.P,C23,1*%
%TO.N,3V3_MAIN*%
X16050000Y-109000000D03*
%TO.P,C23,2*%
%TO.N,GND*%
X17950000Y-109000000D03*
%TD*%
D20*
%TO.P,D8,1*%
%TO.N,+5V_ISO*%
X185000000Y-62000000D03*
%TO.P,D8,2*%
%TO.N,NC_D8_2_201*%
X189000000Y-62000000D03*
%TD*%
D17*
%TO.P,TP14,1*%
%TO.N,NC_TP14_1_12*%
X27000000Y-127000000D03*
%TD*%
D14*
%TO.P,R41,1*%
%TO.N,NET_W5500_RST*%
X133087500Y-86000000D03*
%TO.P,R41,2*%
%TO.N,NET_W5500_nRESET*%
X134912500Y-86000000D03*
%TD*%
D54*
%TO.P,J4,1*%
%TO.N,NC_J4_1_112*%
X109000000Y-111000000D03*
D55*
%TO.P,J4,2*%
%TO.N,NC_J4_2_113*%
X112500000Y-111000000D03*
%TO.P,J4,3*%
%TO.N,NC_J4_3_114*%
X116000000Y-111000000D03*
%TD*%
D14*
%TO.P,R_LED4,1*%
%TO.N,NET_ESP32_GPIO1*%
X25087500Y-86000000D03*
%TO.P,R_LED4,2*%
%TO.N,NET_LED4_CURRENT*%
X26912500Y-86000000D03*
%TD*%
D11*
%TO.P,C43,1*%
%TO.N,NC_C43_1_172*%
X198050000Y-117000000D03*
%TO.P,C43,2*%
%TO.N,GND*%
X199950000Y-117000000D03*
%TD*%
D12*
%TO.P,C18,1*%
%TO.N,1V8_DWM*%
X116225000Y-89000000D03*
%TO.P,C18,2*%
%TO.N,GND*%
X117775000Y-89000000D03*
%TD*%
D31*
%TO.P,Q1,1*%
%TO.N,NET_USB_DTR*%
X31062500Y-61050000D03*
%TO.P,Q1,2*%
%TO.N,GND*%
X31062500Y-62950000D03*
%TO.P,Q1,3*%
%TO.N,NET_ESP32_EN*%
X32937500Y-62000000D03*
%TD*%
D56*
%TO.P,J2,1*%
%TO.N,NC_J2_1_118*%
X182000000Y-16000000D03*
D57*
%TO.P,J2,2*%
%TO.N,GND*%
X176000000Y-16000000D03*
D58*
%TO.P,J2,3*%
X179000000Y-20700000D03*
%TD*%
D18*
%TO.P,R44,1*%
%TO.N,NET_W5500_TX_N*%
X43490000Y-128000000D03*
%TO.P,R44,2*%
%TO.N,NC_R44_2_153*%
X44510000Y-128000000D03*
%TD*%
D17*
%TO.P,TP10,1*%
%TO.N,NC_TP10_1_16*%
X44000000Y-133000000D03*
%TD*%
D43*
%TO.P,C3,1*%
%TO.N,3V3_MAIN*%
X108000000Y-102000000D03*
D44*
%TO.P,C3,2*%
%TO.N,GND*%
X110000000Y-102000000D03*
%TD*%
D22*
%TO.P,U13,1*%
%TO.N,1V8_DWM*%
X144862500Y-95050000D03*
%TO.P,U13,2*%
%TO.N,GND*%
X144862500Y-96000000D03*
%TO.P,U13,3*%
%TO.N,NET_DWM3000_EXT_TX_1V8_SERIES*%
X144862500Y-96950000D03*
%TO.P,U13,4*%
%TO.N,NET_ESP32_EXT_TX*%
X147137500Y-96950000D03*
%TO.P,U13,5*%
%TO.N,3V3_MAIN*%
X147137500Y-96000000D03*
%TO.P,U13,6*%
X147137500Y-95050000D03*
%TD*%
D15*
%TO.P,R38,1*%
%TO.N,NET_ESP32_EXT_RX*%
X100175000Y-81000000D03*
%TO.P,R38,2*%
%TO.N,NC_R38_2_157*%
X101825000Y-81000000D03*
%TD*%
D14*
%TO.P,R28,1*%
%TO.N,3V3_MAIN*%
X114087500Y-81000000D03*
%TO.P,R28,2*%
%TO.N,NET_ESP32_EN*%
X115912500Y-81000000D03*
%TD*%
D48*
%TO.P,U4,1*%
%TO.N,NC_U4_1_265*%
X65525000Y-12095000D03*
%TO.P,U4,2*%
%TO.N,NC_U4_2_266*%
X65525000Y-13365000D03*
%TO.P,U4,3*%
%TO.N,NC_U4_3_267*%
X65525000Y-14635000D03*
%TO.P,U4,4*%
%TO.N,NC_U4_4_268*%
X65525000Y-15905000D03*
%TO.P,U4,5*%
%TO.N,NC_U4_5_269*%
X70475000Y-15905000D03*
%TO.P,U4,6*%
%TO.N,NET_U4_COMP*%
X70475000Y-14635000D03*
%TO.P,U4,7*%
%TO.N,GND*%
X70475000Y-13365000D03*
%TO.P,U4,8*%
%TO.N,NET_U4_SW*%
X70475000Y-12095000D03*
%TD*%
D12*
%TO.P,C97,1*%
%TO.N,+3V3*%
X142225000Y-55000000D03*
%TO.P,C97,2*%
%TO.N,GND*%
X143775000Y-55000000D03*
%TD*%
D43*
%TO.P,C1,1*%
%TO.N,5V_MAIN*%
X64000000Y-132000000D03*
D44*
%TO.P,C1,2*%
%TO.N,GND*%
X66000000Y-132000000D03*
%TD*%
D43*
%TO.P,C2,1*%
%TO.N,5V_MAIN*%
X125000000Y-87000000D03*
D44*
%TO.P,C2,2*%
%TO.N,GND*%
X127000000Y-87000000D03*
%TD*%
D14*
%TO.P,R22,1*%
%TO.N,NET_ESP32_SPI_MISO*%
X187087500Y-103000000D03*
%TO.P,R22,2*%
%TO.N,NET_DWM3000_SPI_MISO_3V3_SERIES*%
X188912500Y-103000000D03*
%TD*%
D23*
%TO.P,J6,1*%
%TO.N,NC_J6_1_99*%
X160000000Y-108000000D03*
D24*
%TO.P,J6,2*%
%TO.N,NC_J6_2_100*%
X160000000Y-110540000D03*
%TO.P,J6,3*%
%TO.N,NC_J6_3_101*%
X160000000Y-113080000D03*
%TO.P,J6,4*%
%TO.N,NC_J6_4_102*%
X160000000Y-115620000D03*
%TO.P,J6,5*%
%TO.N,NC_J6_5_103*%
X160000000Y-118160000D03*
%TO.P,J6,6*%
%TO.N,NC_J6_6_104*%
X160000000Y-120700000D03*
%TD*%
D17*
%TO.P,TP16,1*%
%TO.N,NC_TP16_1_10*%
X140000000Y-121000000D03*
%TD*%
D12*
%TO.P,C98,1*%
%TO.N,+1V8*%
X112225000Y-55000000D03*
%TO.P,C98,2*%
%TO.N,GND*%
X113775000Y-55000000D03*
%TD*%
%TO.P,C90,1*%
%TO.N,+3V3*%
X93225000Y-62000000D03*
%TO.P,C90,2*%
%TO.N,GND*%
X94775000Y-62000000D03*
%TD*%
%TO.P,C41,1*%
%TO.N,NC_C41_1_174*%
X139225000Y-135000000D03*
%TO.P,C41,2*%
%TO.N,GND*%
X140775000Y-135000000D03*
%TD*%
D17*
%TO.P,TP18,1*%
%TO.N,NC_TP18_1_8*%
X49000000Y-85000000D03*
%TD*%
%TO.P,TP4,1*%
%TO.N,NC_TP4_1_22*%
X206000000Y-134000000D03*
%TD*%
D19*
%TO.P,D5,1*%
%TO.N,+5V_ISO*%
X206950000Y-68000000D03*
%TO.P,D5,2*%
%TO.N,NET_ESP32_EN*%
X209050000Y-68000000D03*
%TD*%
D12*
%TO.P,C101,1*%
%TO.N,+3V3*%
X81225000Y-20000000D03*
%TO.P,C101,2*%
%TO.N,GND*%
X82775000Y-20000000D03*
%TD*%
D14*
%TO.P,R2,1*%
%TO.N,NET_ESP32_GPIO6*%
X59087500Y-86000000D03*
%TO.P,R2,2*%
%TO.N,NET_LED2_CURRENT*%
X60912500Y-86000000D03*
%TD*%
D37*
%TO.P,LED3,1*%
%TO.N,NC_LED3_1_144*%
X139062500Y-88000000D03*
%TO.P,LED3,2*%
%TO.N,NC_LED3_2_145*%
X140937500Y-88000000D03*
%TD*%
D11*
%TO.P,C8,1*%
%TO.N,3V3_MAIN*%
X202050000Y-105000000D03*
%TO.P,C8,2*%
%TO.N,GND*%
X203950000Y-105000000D03*
%TD*%
D47*
%TO.P,J_FUSE,1*%
%TO.N,NC_J_FUSE_1_105*%
X123000000Y-129000000D03*
%TO.N,NC_J_FUSE_1_106*%
X127600000Y-129000000D03*
%TO.P,J_FUSE,2*%
%TO.N,NC_J_FUSE_2_107*%
X138900000Y-129000000D03*
%TO.N,NC_J_FUSE_2_108*%
X143500000Y-129000000D03*
%TD*%
D14*
%TO.P,R1-R3R_LED4R_LED5,1*%
%TO.N,NC_R1-R3R_LED4R_LED5_1_1*%
X168087500Y-75000000D03*
%TO.P,R1-R3R_LED4R_LED5,2*%
%TO.N,NC_R1-R3R_LED4R_LED5_2_2*%
X169912500Y-75000000D03*
%TD*%
%TO.P,R8,1*%
%TO.N,NC_R8_1_165*%
X209087500Y-98000000D03*
%TO.P,R8,2*%
%TO.N,NC_R8_2_166*%
X210912500Y-98000000D03*
%TD*%
D22*
%TO.P,D10,1*%
%TO.N,NET_USB_D_P*%
X144862500Y-88050000D03*
%TO.P,D10,2*%
%TO.N,GND*%
X144862500Y-89000000D03*
%TO.P,D10,3*%
%TO.N,NET_USB_D_N*%
X144862500Y-89950000D03*
%TO.P,D10,4*%
X147137500Y-89950000D03*
%TO.P,D10,5*%
%TO.N,NC_D10_5_200*%
X147137500Y-89000000D03*
%TO.P,D10,6*%
%TO.N,NET_USB_D_P*%
X147137500Y-88050000D03*
%TD*%
D14*
%TO.P,R10,1*%
%TO.N,SPI_CS_3V3_MCU*%
X107087500Y-61820000D03*
%TO.P,R10,2*%
%TO.N,NC_R10_2_162*%
X108912500Y-61820000D03*
%TD*%
D20*
%TO.P,D3,1*%
%TO.N,+5V_ISO*%
X122000000Y-62000000D03*
%TO.P,D3,2*%
%TO.N,NC_D3_2_203*%
X126000000Y-62000000D03*
%TD*%
D23*
%TO.P,J15,1*%
%TO.N,NC_J15_1_49*%
X133000000Y-95000000D03*
D24*
%TO.P,J15,2*%
%TO.N,NC_J15_2_50*%
X133000000Y-97540000D03*
%TO.P,J15,3*%
%TO.N,NC_J15_3_51*%
X133000000Y-100080000D03*
%TO.P,J15,4*%
%TO.N,NC_J15_4_52*%
X133000000Y-102620000D03*
%TD*%
D17*
%TO.P,TP5,1*%
%TO.N,NC_TP5_1_21*%
X42000000Y-86000000D03*
%TD*%
D12*
%TO.P,C94,1*%
%TO.N,+1V8*%
X117225000Y-15000000D03*
%TO.P,C94,2*%
%TO.N,GND*%
X118775000Y-15000000D03*
%TD*%
D23*
%TO.P,J12,1*%
%TO.N,NC_J12_1_63*%
X94000000Y-114000000D03*
D24*
%TO.P,J12,2*%
%TO.N,NC_J12_2_64*%
X94000000Y-116540000D03*
%TO.P,J12,3*%
%TO.N,NC_J12_3_65*%
X94000000Y-119080000D03*
%TO.P,J12,4*%
%TO.N,NC_J12_4_66*%
X94000000Y-121620000D03*
%TO.P,J12,5*%
%TO.N,NC_J12_5_67*%
X94000000Y-124160000D03*
%TO.P,J12,6*%
%TO.N,NC_J12_6_68*%
X94000000Y-126700000D03*
%TD*%
D15*
%TO.P,R37,1*%
%TO.N,1V8_DWM*%
X81175000Y-78000000D03*
%TO.P,R37,2*%
%TO.N,NET_DWM3000_DEBUGOUT_1V8*%
X82825000Y-78000000D03*
%TD*%
D14*
%TO.P,R9,1*%
%TO.N,NC_R9_1_163*%
X171087500Y-83000000D03*
%TO.P,R9,2*%
%TO.N,NC_R9_2_164*%
X172912500Y-83000000D03*
%TD*%
D11*
%TO.P,C10,1*%
%TO.N,3V3_MAIN*%
X15050000Y-116000000D03*
%TO.P,C10,2*%
%TO.N,GND*%
X16950000Y-116000000D03*
%TD*%
D12*
%TO.P,C33,1*%
%TO.N,1V8_DWM*%
X11225000Y-84000000D03*
%TO.P,C33,2*%
%TO.N,GND*%
X12775000Y-84000000D03*
%TD*%
D14*
%TO.P,R_WDG,1*%
%TO.N,NET_U8_DELAY*%
X187087500Y-86000000D03*
%TO.P,R_WDG,2*%
%TO.N,GND*%
X188912500Y-86000000D03*
%TD*%
D12*
%TO.P,C38,1*%
%TO.N,1V8_DWM*%
X160225000Y-75000000D03*
%TO.P,C38,2*%
%TO.N,GND*%
X161775000Y-75000000D03*
%TD*%
D48*
%TO.P,U9,1*%
%TO.N,NC_U9_1_252*%
X185525000Y-94095000D03*
%TO.P,U9,2*%
%TO.N,3V3_MAIN*%
X185525000Y-95365000D03*
%TO.P,U9,3*%
%TO.N,NC_U9_3_253*%
X185525000Y-96635000D03*
%TO.P,U9,4*%
%TO.N,NC_U9_4_254*%
X185525000Y-97905000D03*
%TO.P,U9,5*%
%TO.N,GND*%
X190475000Y-97905000D03*
%TO.P,U9,6*%
%TO.N,NET_I2C_SDA*%
X190475000Y-96635000D03*
%TO.P,U9,7*%
%TO.N,NET_I2C_SCL*%
X190475000Y-95365000D03*
%TO.P,U9,8*%
%TO.N,NET_BAT1_VBAT*%
X190475000Y-94095000D03*
%TD*%
D14*
%TO.P,R16,1*%
%TO.N,NET_ESP32_GPIO4*%
X145087500Y-106000000D03*
%TO.P,R16,2*%
%TO.N,NET_U11_LED_N*%
X146912500Y-106000000D03*
%TD*%
D43*
%TO.P,U11,1*%
%TO.N,NC_U11_1_211*%
X44000000Y-107000000D03*
D44*
%TO.P,U11,2*%
%TO.N,NC_U11_2_212*%
X44000000Y-109540000D03*
%TO.P,U11,3*%
%TO.N,NC_U11_3_213*%
X51620000Y-109540000D03*
%TO.P,U11,4*%
%TO.N,NC_U11_4_214*%
X51620000Y-107000000D03*
%TD*%
D12*
%TO.P,C28,1*%
%TO.N,1V8_DWM*%
X81225000Y-94000000D03*
%TO.P,C28,2*%
%TO.N,GND*%
X82775000Y-94000000D03*
%TD*%
D15*
%TO.P,R35,1*%
%TO.N,1V8_DWM*%
X49175000Y-78000000D03*
%TO.P,R35,2*%
%TO.N,NET_DWM3000_EXT_RX_1V8*%
X50825000Y-78000000D03*
%TD*%
D23*
%TO.P,J16,1*%
%TO.N,NC_J16_1_43*%
X164000000Y-80000000D03*
D24*
%TO.P,J16,2*%
%TO.N,NC_J16_2_44*%
X164000000Y-82540000D03*
%TO.P,J16,3*%
%TO.N,NC_J16_3_45*%
X164000000Y-85080000D03*
%TO.P,J16,4*%
%TO.N,NC_J16_4_46*%
X164000000Y-87620000D03*
%TO.P,J16,5*%
%TO.N,NC_J16_5_47*%
X164000000Y-90160000D03*
%TO.P,J16,6*%
%TO.N,NC_J16_6_48*%
X164000000Y-92700000D03*
%TD*%
D20*
%TO.P,D9,1*%
%TO.N,+5V_ISO*%
X173000000Y-62000000D03*
%TO.P,D9,2*%
%TO.N,1V8_DWM*%
X177000000Y-62000000D03*
%TD*%
D59*
%TO.P,BAT1,1*%
%TO.N,NC_BAT1_1_133*%
X100400000Y-127000000D03*
%TO.N,NC_BAT1_1_134*%
X115600000Y-127000000D03*
D60*
%TO.P,BAT1,2*%
%TO.N,NC_BAT1_2_135*%
X108000000Y-127000000D03*
%TD*%
D23*
%TO.P,J11,1*%
%TO.N,NC_J11_1_69*%
X156000000Y-87000000D03*
D24*
%TO.P,J11,2*%
%TO.N,NC_J11_2_70*%
X156000000Y-89540000D03*
%TO.P,J11,3*%
%TO.N,NC_J11_3_71*%
X156000000Y-92080000D03*
%TO.P,J11,4*%
%TO.N,NC_J11_4_72*%
X156000000Y-94620000D03*
%TO.P,J11,5*%
%TO.N,NC_J11_5_73*%
X156000000Y-97160000D03*
%TO.P,J11,6*%
%TO.N,NC_J11_6_74*%
X156000000Y-99700000D03*
%TD*%
D61*
%TO.P,U2,1*%
%TO.N,GND*%
X94000000Y-11600000D03*
%TO.P,U2,2*%
X94000000Y-13200000D03*
%TO.P,U2,3*%
X94000000Y-14800000D03*
%TO.P,U2,4*%
X94000000Y-16400000D03*
%TO.P,U2,5*%
X94000000Y-18000000D03*
%TO.P,U2,6*%
X94000000Y-19600000D03*
%TO.P,U2,7*%
X94000000Y-21200001D03*
%TO.P,U2,8*%
X94000000Y-22800000D03*
%TO.P,U2,9*%
X94000000Y-24400000D03*
%TO.P,U2,10*%
X94000000Y-26000000D03*
%TO.P,U2,11*%
X94000000Y-27600000D03*
%TO.P,U2,12*%
X94000000Y-29200000D03*
%TO.P,U2,13*%
X94000000Y-30800000D03*
%TO.P,U2,14*%
X94000000Y-32400000D03*
%TO.P,U2,15*%
X110000000Y-11600000D03*
%TO.P,U2,16*%
X110000000Y-13200000D03*
%TO.P,U2,17*%
X110000000Y-14800000D03*
%TO.P,U2,18*%
X110000000Y-16400000D03*
%TO.P,U2,19*%
X110000000Y-18000000D03*
%TO.P,U2,20*%
X110000000Y-19600000D03*
%TO.P,U2,21*%
X110000000Y-21200001D03*
%TO.P,U2,22*%
X110000000Y-22800000D03*
%TO.P,U2,23*%
X110000000Y-24400000D03*
%TO.P,U2,24*%
X110000000Y-26000000D03*
%TO.P,U2,25*%
X110000000Y-27600000D03*
%TO.P,U2,26*%
X110000000Y-29200000D03*
%TO.P,U2,27*%
X110000000Y-30800000D03*
%TO.P,U2,28*%
X110000000Y-32400000D03*
%TD*%
D15*
%TO.P,R36,1*%
%TO.N,1V8_DWM*%
X59175000Y-72000000D03*
%TO.P,R36,2*%
%TO.N,NET_DWM3000_EXT_TX_1V8_SERIES*%
X60825000Y-72000000D03*
%TD*%
D23*
%TO.P,J14,1*%
%TO.N,NC_J14_1_53*%
X117000000Y-95000000D03*
D24*
%TO.P,J14,2*%
%TO.N,NC_J14_2_54*%
X117000000Y-97540000D03*
%TO.P,J14,3*%
%TO.N,NC_J14_3_55*%
X117000000Y-100080000D03*
%TO.P,J14,4*%
%TO.N,NC_J14_4_56*%
X117000000Y-102620000D03*
%TD*%
D47*
%TO.P,F1,1*%
%TO.N,FUSE_OUT_L*%
X22000000Y-12000000D03*
%TO.N,NC_F1_1_197*%
X26600000Y-12000000D03*
%TO.P,F1,2*%
%TO.N,NC_F1_2_198*%
X37900000Y-12000000D03*
%TO.N,NC_F1_2_199*%
X42500000Y-12000000D03*
%TD*%
D12*
%TO.P,C37,1*%
%TO.N,3V3_MAIN*%
X21225000Y-90000000D03*
%TO.P,C37,2*%
%TO.N,GND*%
X22775000Y-90000000D03*
%TD*%
%TO.P,C100,1*%
%TO.N,+3V3*%
X61225000Y-20000000D03*
%TO.P,C100,2*%
%TO.N,GND*%
X62775000Y-20000000D03*
%TD*%
D17*
%TO.P,TP6,1*%
%TO.N,NC_TP6_1_20*%
X172000000Y-107000000D03*
%TD*%
D11*
%TO.P,C12,1*%
%TO.N,5V_USB_PROTECTED*%
X38050000Y-107000000D03*
%TO.P,C12,2*%
%TO.N,GND*%
X39950000Y-107000000D03*
%TD*%
D14*
%TO.P,R11,1*%
%TO.N,SPI_MOSI_3V3_MCU*%
X107087500Y-66090000D03*
%TO.P,R11,2*%
%TO.N,NC_R11_2_161*%
X108912500Y-66090000D03*
%TD*%
D17*
%TO.P,TP15,1*%
%TO.N,NC_TP15_1_11*%
X199000000Y-133000000D03*
%TD*%
D14*
%TO.P,R3,1*%
%TO.N,NET_ESP32_GPIO7*%
X93087500Y-134000000D03*
%TO.P,R3,2*%
%TO.N,NET_LED3_CURRENT*%
X94912500Y-134000000D03*
%TD*%
D17*
%TO.P,TP12,1*%
%TO.N,NC_TP12_1_14*%
X181000000Y-103000000D03*
%TD*%
%TO.P,TP7,1*%
%TO.N,NC_TP7_1_19*%
X101000000Y-113000000D03*
%TD*%
D54*
%TO.P,J3,1*%
%TO.N,NC_J3_1_115*%
X12000000Y-129000000D03*
D55*
%TO.P,J3,2*%
%TO.N,NC_J3_2_116*%
X15500000Y-129000000D03*
%TO.P,J3,3*%
%TO.N,NC_J3_3_117*%
X19000000Y-129000000D03*
%TD*%
D37*
%TO.P,LED1,1*%
%TO.N,NC_LED1_1_148*%
X95062500Y-100000000D03*
%TO.P,LED1,2*%
%TO.N,NC_LED1_2_149*%
X96937500Y-100000000D03*
%TD*%
D12*
%TO.P,C_X1A-C_X1B,1*%
%TO.N,NC_C_X1A-C_X1B_1_3*%
X149225000Y-78000000D03*
%TO.P,C_X1A-C_X1B,2*%
%TO.N,NC_C_X1A-C_X1B_2_4*%
X150775000Y-78000000D03*
%TD*%
%TO.P,C30,1*%
%TO.N,1V8_DWM*%
X203225000Y-88000000D03*
%TO.P,C30,2*%
%TO.N,GND*%
X204775000Y-88000000D03*
%TD*%
D11*
%TO.P,C13,1*%
%TO.N,NC_C13_1_184*%
X96050000Y-107000000D03*
%TO.P,C13,2*%
%TO.N,GND*%
X97950000Y-107000000D03*
%TD*%
D14*
%TO.P,R12,1*%
%TO.N,SPI_CLK_3V3_MCU*%
X101087500Y-64360000D03*
%TO.P,R12,2*%
%TO.N,NET_I2C_SDA*%
X102912500Y-64360000D03*
%TD*%
%TO.P,R31,1*%
%TO.N,NET_USB_DTR*%
X75087500Y-90000000D03*
%TO.P,R31,2*%
%TO.N,RELAY1_CTRL_LED*%
X76912500Y-90000000D03*
%TD*%
D13*
%TO.P,C22,1*%
%TO.N,NC_C22_1_179*%
X56525000Y-106000000D03*
%TO.P,C22,2*%
%TO.N,GND*%
X59475000Y-106000000D03*
%TD*%
D43*
%TO.P,C4,1*%
%TO.N,3V3_MAIN*%
X124000000Y-102000000D03*
D44*
%TO.P,C4,2*%
%TO.N,GND*%
X126000000Y-102000000D03*
%TD*%
D14*
%TO.P,R17,1*%
%TO.N,NET_ESP32_GPIO5*%
X176087500Y-91000000D03*
%TO.P,R17,2*%
%TO.N,NET_U12_LED_N*%
X177912500Y-91000000D03*
%TD*%
D23*
%TO.P,J17,1*%
%TO.N,NC_J17_1_37*%
X171000000Y-89000000D03*
D24*
%TO.P,J17,2*%
%TO.N,NC_J17_2_38*%
X171000000Y-91540000D03*
%TO.P,J17,3*%
%TO.N,NC_J17_3_39*%
X171000000Y-94080000D03*
%TO.P,J17,4*%
%TO.N,NC_J17_4_40*%
X171000000Y-96620000D03*
%TO.P,J17,5*%
%TO.N,NC_J17_5_41*%
X171000000Y-99160000D03*
%TO.P,J17,6*%
%TO.N,NC_J17_6_42*%
X171000000Y-101700000D03*
%TD*%
D21*
%TO.P,FB3,1*%
%TO.N,NC_FB3_1_189*%
X36212500Y-111000000D03*
%TO.P,FB3,2*%
%TO.N,NC_FB3_2_190*%
X37787500Y-111000000D03*
%TD*%
D14*
%TO.P,R32,1*%
%TO.N,NET_USB_RTS*%
X178087500Y-81000000D03*
%TO.P,R32,2*%
%TO.N,RELAY2_CTRL_LED*%
X179912500Y-81000000D03*
%TD*%
%TO.P,R14,1*%
%TO.N,NET_U4_FB*%
X59087500Y-82000000D03*
%TO.P,R14,2*%
%TO.N,GND*%
X60912500Y-82000000D03*
%TD*%
D11*
%TO.P,C26,1*%
%TO.N,NC_C26_1_177*%
X145050000Y-82000000D03*
%TO.P,C26,2*%
%TO.N,GND*%
X146950000Y-82000000D03*
%TD*%
D46*
%TO.P,K2,1*%
%TO.N,+5V_ISO*%
X43000000Y-100000000D03*
D47*
%TO.P,K2,2*%
%TO.N,NC_K2_2_205*%
X53160000Y-100000000D03*
%TO.P,K2,3*%
%TO.N,NET_K2_NC*%
X60780000Y-100000000D03*
%TO.P,K2,4*%
%TO.N,NET_K2_COM*%
X58240000Y-92380000D03*
%TO.P,K2,5*%
%TO.N,NET_K2_NO*%
X43000000Y-92380000D03*
%TD*%
D12*
%TO.P,C34,1*%
%TO.N,3V3_MAIN*%
X36225000Y-135000000D03*
%TO.P,C34,2*%
%TO.N,GND*%
X37775000Y-135000000D03*
%TD*%
D18*
%TO.P,R45,1*%
%TO.N,NET_W5500_RX_P*%
X17490000Y-86000000D03*
%TO.P,R45,2*%
%TO.N,NC_R45_2_152*%
X18510000Y-86000000D03*
%TD*%
%TO.P,R46,1*%
%TO.N,NET_W5500_RX_N*%
X171490000Y-128000000D03*
%TO.P,R46,2*%
%TO.N,NC_R46_2_151*%
X172510000Y-128000000D03*
%TD*%
D14*
%TO.P,R30,1*%
%TO.N,3V3_MAIN*%
X59087500Y-78000000D03*
%TO.P,R30,2*%
%TO.N,NET_ESP32_GPIO45*%
X60912500Y-78000000D03*
%TD*%
D22*
%TO.P,U5,1*%
%TO.N,3V3_MAIN*%
X126862500Y-54050000D03*
%TO.P,U5,2*%
%TO.N,GND*%
X126862500Y-55000000D03*
%TO.P,U5,3*%
%TO.N,1V8_DWM*%
X126862500Y-55950000D03*
%TO.P,U5,4*%
%TO.N,NC_U5_4_264*%
X129137500Y-55950000D03*
%TO.P,U5,5*%
%TO.N,NET_U5_EN*%
X129137500Y-54050000D03*
%TD*%
D12*
%TO.P,C92,1*%
%TO.N,+1V8*%
X143225000Y-13000000D03*
%TO.P,C92,2*%
%TO.N,GND*%
X144775000Y-13000000D03*
%TD*%
D62*
%TO.N,NET_ESP32_GPIO0*%
X160560500Y-68478600D03*
X196512500Y-120711300D03*
X129476700Y-67265900D03*
%TO.N,GND*%
X60273800Y-107078100D03*
X58174200Y-123409500D03*
X158156600Y-63368500D03*
X30381100Y-60367500D03*
X144536200Y-54421100D03*
X162633300Y-74991700D03*
X113775000Y-58098400D03*
X110607300Y-38844300D03*
X159527700Y-102000000D03*
X40840000Y-106369800D03*
X126842900Y-94479300D03*
%TO.N,NET_ESP32_GPIO8*%
X72240200Y-97190200D03*
%TO.N,NET_W5500_XTAL_IN*%
X71796200Y-86485300D03*
X59984900Y-111850000D03*
%TO.N,NET_ESP32_EN*%
X86137500Y-15647400D03*
X89421700Y-75010000D03*
X65291200Y-69115300D03*
X115000000Y-80788600D03*
X139889500Y-82198000D03*
X55854200Y-118958700D03*
X33598400Y-61306900D03*
X209551800Y-68501800D03*
X84160900Y-70798600D03*
%TO.N,3V3_MAIN*%
X101946600Y-94096100D03*
X193858000Y-96000000D03*
X30632800Y-90375800D03*
X117293400Y-75001600D03*
X113373500Y-82139800D03*
X193225000Y-82880700D03*
X135145400Y-75003200D03*
X104552700Y-54654100D03*
X87181300Y-14000000D03*
X152050000Y-118871200D03*
X129984100Y-54658400D03*
X70810400Y-95304100D03*
X176148400Y-126000000D03*
X60334500Y-79357600D03*
X153954200Y-101050000D03*
%TO.N,NET_U5_EN*%
X149560100Y-85548400D03*
X129137500Y-53350300D03*
X196912500Y-94902100D03*
%TO.N,NET_DWM3000_EXT_TX_1V8_SERIES*%
X143716700Y-96232500D03*
X11963800Y-80245000D03*
X63038100Y-72339400D03*
X71311600Y-94303700D03*
%TO.N,1V8_DWM*%
X146620500Y-57093100D03*
X126163400Y-56647500D03*
X208283600Y-127106400D03*
X149695000Y-123050800D03*
X81954400Y-78151700D03*
X106387800Y-78901500D03*
X207411800Y-92858900D03*
X159418700Y-74450700D03*
X161700300Y-94332300D03*
X76902900Y-13130400D03*
X149231600Y-94485600D03*
X83476100Y-93005300D03*
%TO.N,+1V8*%
X114992500Y-12767500D03*
X80879800Y-8878400D03*
X112225000Y-53446800D03*
%TO.N,NET_W5500_TX_P*%
X25576800Y-104791700D03*
X73575700Y-81091500D03*
%TO.N,+5V_ISO*%
X165746500Y-61874800D03*
X72393400Y-20000000D03*
X123630600Y-62069500D03*
X63888000Y-62017300D03*
X36372100Y-62556000D03*
%TO.N,NET_W5500_INT*%
X154286600Y-79199100D03*
%TO.N,NET_W5500_INTn*%
X150646100Y-106811000D03*
X156000000Y-80284000D03*
X30181000Y-100976600D03*
%TO.N,NET_ESP32_SPI_CS*%
X64186800Y-113342500D03*
X72735000Y-76777000D03*
%TO.N,NET_DWM3000_SPI_CS_3V3_SERIES*%
X58378400Y-25514300D03*
X55360400Y-112851800D03*
X66000000Y-113641700D03*
%TO.N,+3V3*%
X133390900Y-12799100D03*
X107395800Y-38844300D03*
X93897000Y-62672000D03*
X87691000Y-21126900D03*
X141375000Y-55000000D03*
X106632500Y-53931700D03*
%TO.N,NET_DWM3000_EXT_RX_1V8*%
X162807500Y-103649300D03*
X54791100Y-103380900D03*
X51473000Y-78648000D03*
%TO.N,NET_ESP32_SPI_CLK*%
X202161900Y-112282500D03*
%TO.N,NET_DWM3000_SPI_CLK_3V3_SERIES*%
X204022100Y-111605600D03*
X163248100Y-37048600D03*
X58400900Y-36618900D03*
%TO.N,NET_W5500_TX_N*%
X25813800Y-102435600D03*
X44999000Y-128581900D03*
X59542300Y-113988200D03*
%TO.N,NET_W5500_RX_P*%
X22690800Y-103250000D03*
X16866600Y-85577700D03*
%TO.N,NET_W5500_RX_N*%
X170822400Y-127860300D03*
X25152700Y-103441500D03*
%TO.N,NET_I2C_SCL*%
X108824800Y-72721400D03*
X86603700Y-89597200D03*
X15857800Y-100583600D03*
X171824100Y-85401300D03*
%TO.N,NET_ESP32_GPIO4*%
X144195000Y-106082600D03*
X134924600Y-70384700D03*
%TO.N,NET_ESP32_GPIO5*%
X175270800Y-90183300D03*
%TO.N,NET_ESP32_GPIO6*%
X60000000Y-85707200D03*
%TO.N,NET_ESP32_GPIO7*%
X92190600Y-134536500D03*
%TO.N,NET_ESP32_EXT_TX*%
X77454400Y-71780000D03*
X146078700Y-96223400D03*
X90783000Y-90186700D03*
%TO.N,NET_ESP32_EXT_RX*%
X99375000Y-80927100D03*
%TO.N,NET_ESP32_GPIO1*%
X26000000Y-86068300D03*
%TO.N,NET_ESP32_GPIO2*%
X106196600Y-82842700D03*
%TO.N,NET_W5500_SPI2_CS*%
X33282400Y-101250000D03*
%TO.N,NET_W5500_SPI2_MISO*%
X33298600Y-102250000D03*
%TO.N,NET_W5500_SPI2_MOSI*%
X34380300Y-103321300D03*
%TO.N,NET_W5500_SPI2_CLK*%
X33885400Y-102522000D03*
%TO.N,NET_U12_COLLECTOR*%
X192187900Y-105606300D03*
X165183700Y-61342100D03*
%TO.N,NET_DWM3000_SPI_MOSI_3V3_SERIES*%
X58411500Y-32836900D03*
X82483700Y-32836900D03*
X100000000Y-87803100D03*
%TO.N,NET_DWM3000_SPI_MISO_3V3_SERIES*%
X188000000Y-102911000D03*
X58400900Y-32168100D03*
X134105500Y-32168100D03*
%TO.N,NET_W5500_nRESET*%
X128764200Y-96366400D03*
X133995200Y-86073100D03*
X31291300Y-99837500D03*
%TO.N,NET_W5500_REGD*%
X207142800Y-122937800D03*
X26750000Y-100958000D03*
%TO.N,NET_ESP32_GPIO45*%
X84901600Y-17299800D03*
X65213700Y-77638100D03*
%TO.N,NET_W5500_RST*%
X132173400Y-85576100D03*
X107823400Y-85577700D03*
%TO.N,NET_I2C_SDA*%
X191832200Y-96635000D03*
X15846200Y-102671500D03*
X29492000Y-76944400D03*
X183686000Y-64121300D03*
X102000000Y-64121300D03*
%TO.N,NET_ESP32_IRQ*%
X79209000Y-15163100D03*
%TO.N,NET_ESP32_SPI_MISO*%
X186159800Y-102534400D03*
%TO.N,NET_ESP32_GPIO9*%
X53198100Y-74857800D03*
%TO.N,NET_U4_COMP*%
X187150500Y-81130500D03*
X173333400Y-26985000D03*
X71850000Y-14788800D03*
%TO.N,NET_U11_COLLECTOR*%
X181262700Y-60847300D03*
X194180700Y-87803100D03*
X116205900Y-60847300D03*
%TO.N,NET_USB_D_P*%
X172684400Y-115068200D03*
X150999900Y-88101700D03*
%TO.N,NET_USB_D_N*%
X151011300Y-90716900D03*
X171116400Y-115070200D03*
%TO.N,NET_U4_SW*%
X69113900Y-12095000D03*
X41600900Y-120000000D03*
X40335700Y-62482400D03*
%TO.N,NET_U8_DELAY*%
X187119000Y-84913500D03*
X173970900Y-27494800D03*
X81915500Y-15132000D03*
%TO.N,NET_DWM3000_RSTN_1V65*%
X55563500Y-106790700D03*
X54818200Y-74869300D03*
X212411400Y-134536500D03*
%TO.N,NET_USB_RTS*%
X165565700Y-67970000D03*
X177190000Y-81126900D03*
X74201200Y-67050000D03*
%TO.N,NET_USB_DTR*%
X32180200Y-61048900D03*
X43965600Y-88409500D03*
X73601500Y-89585100D03*
%TD*%
%TO.N,NET_ESP32_GPIO0*%
D63*
X160571400Y-68478600D02*
X167050000Y-62000000D01*
X160560500Y-68478600D02*
X160571400Y-68478600D01*
X154039100Y-75000000D02*
X137912500Y-75000000D01*
X196020000Y-121750000D02*
X196512500Y-121257500D01*
X196512500Y-121257500D02*
X196512500Y-120711300D01*
X84480000Y-68000000D02*
X88320000Y-64160000D01*
X137912500Y-75000000D02*
X130178400Y-67265900D01*
X160560500Y-68478600D02*
X154039100Y-75000000D01*
X74937500Y-68000000D02*
X84480000Y-68000000D01*
X130178400Y-67265900D02*
X129476700Y-67265900D01*
%TO.N,GND*%
X83172700Y-15639800D02*
X83862500Y-14950000D01*
X11855000Y-102905000D02*
X9525000Y-102905000D01*
X94000000Y-11600000D02*
X93298300Y-11600000D01*
X209775000Y-128000000D02*
X209775000Y-125335900D01*
X83240000Y-87020000D02*
X88320000Y-92100000D01*
X74775000Y-19272400D02*
X74775000Y-14000000D01*
X110000000Y-32400000D02*
X110000000Y-30800000D01*
X68000000Y-84480000D02*
X63392500Y-84480000D01*
X74775000Y-19272400D02*
X69502600Y-19272400D01*
X205369000Y-105000000D02*
X203950000Y-105000000D01*
X102775000Y-103103000D02*
X101847000Y-103103000D01*
X186853300Y-126066700D02*
X195836700Y-126066700D01*
X144555200Y-89000000D02*
X143940800Y-89614400D01*
X174060500Y-112259600D02*
X169937800Y-112259600D01*
X95775000Y-93000000D02*
X101950000Y-93000000D01*
X94000000Y-21200000D02*
X94000000Y-20000000D01*
X30072700Y-60675900D02*
X30381100Y-60367500D01*
X13475000Y-88000000D02*
X12775000Y-87300000D01*
X16950000Y-120000000D02*
X16950000Y-116000000D01*
X78775000Y-87020000D02*
X78775000Y-86000000D01*
X214775000Y-94000000D02*
X212775000Y-92000000D01*
X29262500Y-20500000D02*
X29262500Y-20750000D01*
X110000000Y-38844300D02*
X109930700Y-38844300D01*
X76975400Y-15082700D02*
X77532500Y-15639800D01*
X188775000Y-85862500D02*
X188775000Y-82000000D01*
X68047400Y-19272400D02*
X63502600Y-19272400D01*
X158156600Y-63368500D02*
X157481000Y-63368500D01*
X134950000Y-120000000D02*
X139701500Y-124751500D01*
X125000000Y-89000000D02*
X127000000Y-87000000D01*
X110000000Y-14800000D02*
X110000000Y-13200000D01*
X144511300Y-96000000D02*
X144862500Y-96000000D01*
X149775000Y-128000000D02*
X153950000Y-123825000D01*
X113775000Y-60846100D02*
X113775000Y-58098400D01*
X33378900Y-98803100D02*
X36146900Y-98803100D01*
X37775000Y-135000000D02*
X45270000Y-135000000D01*
X194912500Y-86000000D02*
X194775000Y-86000000D01*
X113775000Y-58098400D02*
X113775000Y-55000000D01*
X143888400Y-87000000D02*
X127000000Y-87000000D01*
X88685800Y-61254200D02*
X94029200Y-61254200D01*
X153950000Y-123825000D02*
X153950000Y-120000000D01*
X18950000Y-122000000D02*
X16950000Y-120000000D01*
X145145900Y-96000000D02*
X145975400Y-96829500D01*
X12775000Y-87300000D02*
X12775000Y-84000000D01*
X169937800Y-112259600D02*
X168496200Y-113701200D01*
X108775000Y-79000000D02*
X117775000Y-88000000D01*
X57179500Y-123409500D02*
X57020000Y-123250000D01*
X30899800Y-19229100D02*
X62004100Y-19229100D01*
X94029200Y-61254200D02*
X94775000Y-62000000D01*
X110000000Y-16400000D02*
X110000000Y-15731500D01*
X142526500Y-124751500D02*
X147775000Y-130000000D01*
X110000000Y-15731500D02*
X118043500Y-15731500D01*
X94000000Y-20000000D02*
X82775000Y-20000000D01*
X39950000Y-107000000D02*
X37791200Y-109158800D01*
X118043500Y-15731500D02*
X118775000Y-15000000D01*
X180410000Y-127460000D02*
X178950000Y-126000000D01*
X88320000Y-92100000D02*
X94875000Y-92100000D01*
X82775000Y-20000000D02*
X82047400Y-19272400D01*
X141509200Y-135734200D02*
X147040800Y-135734200D01*
X77532500Y-15639800D02*
X83172700Y-15639800D01*
X209775000Y-125335900D02*
X196934100Y-125335900D01*
X209775000Y-128950000D02*
X209775000Y-128000000D01*
X214775000Y-94000000D02*
X214775000Y-95594000D01*
X196912500Y-88000000D02*
X194912500Y-86000000D01*
X204775000Y-88000000D02*
X208775000Y-92000000D01*
X69539900Y-7235100D02*
X68775000Y-8000000D01*
X76975400Y-14826400D02*
X76975400Y-15082700D01*
X14125800Y-88650800D02*
X13475000Y-88000000D01*
X62004100Y-19229100D02*
X62775000Y-20000000D01*
X82775000Y-94000000D02*
X78775000Y-98000000D01*
X94000000Y-30800000D02*
X94000000Y-29200000D01*
X196934100Y-125335900D02*
X196020000Y-126250000D01*
X110000000Y-19600000D02*
X110000000Y-18000000D01*
X135775000Y-13731300D02*
X120043700Y-13731300D01*
X101847000Y-103103000D02*
X97950000Y-107000000D01*
X139697200Y-55165900D02*
X140606500Y-54256600D01*
X143888400Y-85061600D02*
X146950000Y-82000000D01*
X82775000Y-8000000D02*
X89698300Y-8000000D01*
X167680000Y-116171700D02*
X166961700Y-116890000D01*
X74775000Y-20000000D02*
X74775000Y-19272400D01*
X120043700Y-13731300D02*
X118775000Y-15000000D01*
X107967100Y-95982900D02*
X104932900Y-95982900D01*
X126862500Y-55000000D02*
X127028400Y-55165900D01*
X212775000Y-92000000D02*
X208775000Y-92000000D01*
X29262500Y-20750000D02*
X28750000Y-21262500D01*
X36146900Y-98803100D02*
X37950000Y-97000000D01*
X147775000Y-135000000D02*
X147775000Y-130000000D01*
X126842900Y-94479300D02*
X126470700Y-94479300D01*
X204775000Y-88000000D02*
X203999000Y-87224000D01*
X185460000Y-127460000D02*
X180410000Y-127460000D01*
X124950000Y-122000000D02*
X132950000Y-122000000D01*
X88320000Y-94640000D02*
X83415000Y-94640000D01*
X26750000Y-108162500D02*
X26750000Y-105432000D01*
X101950000Y-93000000D02*
X102950000Y-94000000D01*
X125509200Y-135734200D02*
X140040800Y-135734200D01*
X127028400Y-55165900D02*
X139697200Y-55165900D01*
X110000000Y-32400000D02*
X110000000Y-38844300D01*
X60273800Y-106798800D02*
X60273800Y-107078100D01*
X203950000Y-117000000D02*
X209950000Y-123000000D01*
X78775000Y-87020000D02*
X83240000Y-87020000D01*
X94000000Y-20000000D02*
X94000000Y-19600000D01*
X209950000Y-125160900D02*
X209775000Y-125335900D01*
X95928900Y-60846100D02*
X94775000Y-62000000D01*
X132950000Y-122000000D02*
X134950000Y-120000000D01*
X94000000Y-16400000D02*
X94701700Y-16400000D01*
X161783300Y-74991700D02*
X161775000Y-75000000D01*
X88320000Y-97180000D02*
X83595000Y-97180000D01*
X202950000Y-106000000D02*
X203950000Y-105000000D01*
X63392500Y-84480000D02*
X60912500Y-82000000D01*
X22875900Y-89899100D02*
X22775000Y-90000000D01*
X30849100Y-89899100D02*
X22875900Y-89899100D01*
X144862500Y-89000000D02*
X144555200Y-89000000D01*
X197688500Y-87224000D02*
X196912500Y-88000000D01*
X143775000Y-55000000D02*
X144353900Y-54421100D01*
X110607300Y-38844300D02*
X110000000Y-38844300D01*
X58174200Y-123409500D02*
X57179500Y-123409500D01*
X31062500Y-62950000D02*
X30072700Y-61960200D01*
X175250000Y-113449100D02*
X174060500Y-112259600D01*
X110000000Y-13200000D02*
X110000000Y-11600000D01*
X71110000Y-14000000D02*
X74775000Y-14000000D01*
X159527700Y-102000000D02*
X150775000Y-102000000D01*
X110000000Y-29200000D02*
X110000000Y-27600000D01*
X68775000Y-20000000D02*
X68047400Y-19272400D01*
X94000000Y-27600000D02*
X94000000Y-26000000D01*
X29262500Y-20500000D02*
X29628900Y-20500000D01*
X110000000Y-16400000D02*
X94701700Y-16400000D01*
X113775000Y-61662500D02*
X113775000Y-60846100D01*
X82047400Y-19272400D02*
X75502600Y-19272400D01*
X147040800Y-135734200D02*
X147775000Y-135000000D01*
X108950000Y-95000000D02*
X107967100Y-95982900D01*
X104932900Y-95982900D02*
X102950000Y-94000000D01*
X89698300Y-8000000D02*
X93298300Y-11600000D01*
X21425900Y-88650900D02*
X21425900Y-88650800D01*
X18108800Y-114841200D02*
X16950000Y-116000000D01*
X21425900Y-88650800D02*
X14125800Y-88650800D01*
X143940800Y-89614400D02*
X143940800Y-95429500D01*
X110000000Y-30800000D02*
X110000000Y-29200000D01*
X94000000Y-26000000D02*
X94000000Y-24400000D01*
X168496200Y-113701200D02*
X168750000Y-113955000D01*
X26750000Y-109158800D02*
X18108800Y-109158800D01*
X94000000Y-22800000D02*
X94000000Y-21200000D01*
X143888400Y-87000000D02*
X143888400Y-85061600D01*
X78775000Y-98000000D02*
X74950000Y-98000000D01*
X209950000Y-123000000D02*
X209950000Y-125160900D01*
X109930700Y-38844300D02*
X109775000Y-39000000D01*
X145975400Y-96829500D02*
X145975400Y-97200400D01*
X59475000Y-106000000D02*
X60273800Y-106798800D01*
X94000000Y-16400000D02*
X94000000Y-14800000D01*
X167680000Y-113568300D02*
X168363300Y-113568300D01*
X94000000Y-32400000D02*
X94000000Y-30800000D01*
X188912500Y-86000000D02*
X188775000Y-85862500D01*
X69502600Y-19272400D02*
X68775000Y-20000000D01*
X110000000Y-22800000D02*
X110000000Y-21200000D01*
X147775000Y-130000000D02*
X149775000Y-128000000D01*
X194775000Y-86000000D02*
X188912500Y-86000000D01*
X63502600Y-19272400D02*
X62775000Y-20000000D01*
X157481000Y-63368500D02*
X157062500Y-62950000D01*
X140606500Y-54256600D02*
X143031600Y-54256600D01*
X73062500Y-71797500D02*
X68000000Y-76860000D01*
X140775000Y-135000000D02*
X141509200Y-135734200D01*
X40580200Y-106369800D02*
X39950000Y-107000000D01*
X157060000Y-116890000D02*
X153950000Y-120000000D01*
X166961700Y-116890000D02*
X157060000Y-116890000D01*
X144043700Y-13731300D02*
X135775000Y-13731300D01*
X195836700Y-126066700D02*
X196020000Y-126250000D01*
X94000000Y-24400000D02*
X94000000Y-22800000D01*
X73062500Y-68950000D02*
X73062500Y-71797500D01*
X94000000Y-14800000D02*
X94000000Y-13200000D01*
X113775000Y-60846100D02*
X95928900Y-60846100D01*
X97950000Y-107000000D02*
X95750000Y-104800000D01*
X94875000Y-92100000D02*
X95775000Y-93000000D01*
X124775000Y-135000000D02*
X125509200Y-135734200D01*
X110000000Y-102000000D02*
X108897000Y-103103000D01*
X143940800Y-95429500D02*
X144511300Y-96000000D01*
X18108800Y-109158800D02*
X18108800Y-114841200D01*
X185460000Y-127460000D02*
X186853300Y-126066700D01*
X199950000Y-106000000D02*
X199950000Y-117000000D01*
X26750000Y-108162500D02*
X26750000Y-109158800D01*
X167680000Y-114870000D02*
X167680000Y-116171700D01*
X117775000Y-89000000D02*
X125000000Y-89000000D01*
X194912500Y-106000000D02*
X199950000Y-106000000D01*
X143888400Y-88333200D02*
X143888400Y-87000000D01*
X110000000Y-26000000D02*
X110000000Y-24400000D01*
X144353900Y-54421100D02*
X144536200Y-54421100D01*
X144555200Y-89000000D02*
X143888400Y-88333200D01*
X126862500Y-55000000D02*
X113775000Y-55000000D01*
X82010100Y-7235100D02*
X69539900Y-7235100D01*
X214775000Y-95594000D02*
X205369000Y-105000000D01*
X26750000Y-105432000D02*
X33378900Y-98803100D01*
X110000000Y-16400000D02*
X110000000Y-18000000D01*
X29628900Y-20500000D02*
X30899800Y-19229100D01*
X70475000Y-13365000D02*
X71110000Y-14000000D01*
X75862500Y-14000000D02*
X76149000Y-14000000D01*
X94000000Y-19600000D02*
X94000000Y-18000000D01*
X94000000Y-13200000D02*
X94000000Y-11600000D01*
X203999000Y-87224000D02*
X197688500Y-87224000D01*
X139701500Y-124751500D02*
X142526500Y-124751500D01*
X68000000Y-87020000D02*
X78775000Y-87020000D01*
X110000000Y-15731500D02*
X110000000Y-14800000D01*
X110000000Y-24400000D02*
X110000000Y-22800000D01*
X135775000Y-13731300D02*
X135775000Y-13000000D01*
X140040800Y-135734200D02*
X140775000Y-135000000D01*
X194912500Y-102342500D02*
X194912500Y-106000000D01*
X17950000Y-109000000D02*
X11855000Y-102905000D01*
X94000000Y-18000000D02*
X94000000Y-16400000D01*
X144775000Y-13000000D02*
X144043700Y-13731300D01*
X37950000Y-97000000D02*
X30849100Y-89899100D01*
X117775000Y-88000000D02*
X117775000Y-89000000D01*
X214825000Y-134000000D02*
X209775000Y-128950000D01*
X45270000Y-135000000D02*
X57020000Y-123250000D01*
X18108800Y-109158800D02*
X17950000Y-109000000D01*
X74775000Y-14000000D02*
X75862500Y-14000000D01*
X162633300Y-74991700D02*
X161783300Y-74991700D01*
X175250000Y-113955000D02*
X175250000Y-113449100D01*
X30072700Y-61960200D02*
X30072700Y-60675900D01*
X160862500Y-102000000D02*
X159527700Y-102000000D01*
X143031600Y-54256600D02*
X143775000Y-55000000D01*
X88320000Y-61620000D02*
X88685800Y-61254200D01*
X194775000Y-86000000D02*
X194775000Y-82000000D01*
X102775000Y-103103000D02*
X102775000Y-102000000D01*
X76149000Y-14000000D02*
X76975400Y-14826400D01*
X110000000Y-21200000D02*
X110000000Y-19600000D01*
X168363300Y-113568300D02*
X168496200Y-113701200D01*
X83415000Y-94640000D02*
X82775000Y-94000000D01*
X190475000Y-97905000D02*
X194912500Y-102342500D01*
X37791200Y-109158800D02*
X26750000Y-109158800D01*
X199950000Y-106000000D02*
X202950000Y-106000000D01*
X22775000Y-90000000D02*
X21425900Y-88650900D01*
X167680000Y-114870000D02*
X167680000Y-113568300D01*
X110000000Y-27600000D02*
X110000000Y-26000000D01*
X94000000Y-29200000D02*
X94000000Y-27600000D01*
X144862500Y-96000000D02*
X145145900Y-96000000D01*
X75502600Y-19272400D02*
X74775000Y-20000000D01*
X108897000Y-103103000D02*
X102775000Y-103103000D01*
X82775000Y-8000000D02*
X82010100Y-7235100D01*
X126470700Y-94479300D02*
X125950000Y-95000000D01*
X95750000Y-104800000D02*
X88320000Y-104800000D01*
X145975400Y-97200400D02*
X150775000Y-102000000D01*
X115062500Y-62950000D02*
X113775000Y-61662500D01*
X199950000Y-117000000D02*
X203950000Y-117000000D01*
X83595000Y-97180000D02*
X82775000Y-98000000D01*
X40840000Y-106369800D02*
X40580200Y-106369800D01*
%TO.N,NET_ESP32_GPIO8*%
X72240200Y-97190200D02*
X73050000Y-98000000D01*
%TO.N,NET_W5500_XTAL_IN*%
X76739700Y-86485300D02*
X71796200Y-86485300D01*
X32162500Y-104250000D02*
X33886600Y-104250000D01*
X58900000Y-111850000D02*
X59984900Y-111850000D01*
X52559900Y-105509900D02*
X58900000Y-111850000D01*
X33886600Y-104250000D02*
X35146500Y-105509900D01*
X35146500Y-105509900D02*
X52559900Y-105509900D01*
X77225000Y-86000000D02*
X76739700Y-86485300D01*
%TO.N,NET_ESP32_EN*%
X115701100Y-80788600D02*
X115912500Y-81000000D01*
X115912500Y-81000000D02*
X137087500Y-81000000D01*
X55854200Y-118958700D02*
X56811300Y-118958700D01*
X56811300Y-118958700D02*
X57020000Y-118750000D01*
X33598400Y-61339100D02*
X33598400Y-61306900D01*
X137087500Y-81000000D02*
X139087500Y-83000000D01*
X115000000Y-80788600D02*
X115701100Y-80788600D01*
X139889500Y-82198000D02*
X139087500Y-83000000D01*
X209050000Y-68000000D02*
X209551800Y-68501800D01*
X32937500Y-62000000D02*
X33598400Y-61339100D01*
X86137500Y-15647400D02*
X86137500Y-14950000D01*
%TO.N,3V3_MAIN*%
X107258800Y-101258800D02*
X101966200Y-101258800D01*
X101946600Y-94096100D02*
X101146100Y-94096100D01*
X10571300Y-102196400D02*
X13672700Y-99095000D01*
X193225000Y-82000000D02*
X193225000Y-82880700D01*
X21225000Y-90777800D02*
X21225000Y-92345000D01*
X101966200Y-101258800D02*
X101225000Y-102000000D01*
X76562300Y-11474800D02*
X50818400Y-11474800D01*
X27362100Y-17763600D02*
X26737500Y-18388200D01*
X185525000Y-95365000D02*
X185218600Y-95365000D01*
X21225000Y-90777800D02*
X30230800Y-90777800D01*
X8279900Y-103288200D02*
X8279900Y-102595800D01*
X136087500Y-75000000D02*
X136084300Y-75003200D01*
X60334500Y-79357600D02*
X59087500Y-78110600D01*
X15050000Y-116000000D02*
X15050000Y-120000000D01*
X16050000Y-109000000D02*
X15050000Y-110000000D01*
X195087500Y-96000000D02*
X195087500Y-98037500D01*
X193858000Y-96000000D02*
X195087500Y-96000000D01*
X44529600Y-17763600D02*
X27362100Y-17763600D01*
X185218600Y-95365000D02*
X180153600Y-100430000D01*
X160862500Y-101050000D02*
X153954200Y-101050000D01*
X153954200Y-101050000D02*
X148904200Y-96000000D01*
X185525000Y-95365000D02*
X186160000Y-96000000D01*
X101146100Y-94096100D02*
X101050000Y-94000000D01*
X30050000Y-135000000D02*
X17050000Y-122000000D01*
X15050000Y-110000000D02*
X15050000Y-116000000D01*
X127824200Y-54050000D02*
X128432600Y-54658400D01*
X26737500Y-18388200D02*
X26737500Y-19500000D01*
X162526200Y-102000000D02*
X161576200Y-101050000D01*
X50818400Y-11474800D02*
X44529600Y-17763600D01*
X84581000Y-12486600D02*
X78700900Y-12486600D01*
X78137500Y-13050000D02*
X76562300Y-11474800D01*
X15050000Y-120000000D02*
X17050000Y-122000000D01*
X161576200Y-101050000D02*
X160862500Y-101050000D01*
X165304300Y-102000000D02*
X163137500Y-102000000D01*
X78137500Y-13050000D02*
X78137500Y-14000000D01*
X86137500Y-14000000D02*
X85842900Y-14000000D01*
X13991700Y-109000000D02*
X8279900Y-103288200D01*
X195087500Y-98037500D02*
X202050000Y-105000000D01*
X113373500Y-81714000D02*
X113373500Y-82139800D01*
X8679300Y-102196400D02*
X10571300Y-102196400D01*
X78700900Y-12486600D02*
X78137500Y-13050000D01*
X86137500Y-14000000D02*
X87181300Y-14000000D01*
X163137500Y-102000000D02*
X162526200Y-102000000D01*
X177050000Y-126000000D02*
X176148400Y-126000000D01*
X21225000Y-90000000D02*
X21225000Y-90777800D01*
X13672700Y-99095000D02*
X14475000Y-99095000D01*
X186160000Y-96000000D02*
X193858000Y-96000000D01*
X108000000Y-102000000D02*
X107258800Y-101258800D01*
X147137500Y-95050000D02*
X147137500Y-96000000D01*
X85842900Y-14000000D02*
X85024600Y-13181700D01*
X114087500Y-81000000D02*
X113373500Y-81714000D01*
X30230800Y-90777800D02*
X30632800Y-90375800D01*
X36225000Y-135000000D02*
X30050000Y-135000000D01*
X8279900Y-102595800D02*
X8679300Y-102196400D01*
X21225000Y-92345000D02*
X14475000Y-99095000D01*
X59087500Y-78110600D02*
X59087500Y-78000000D01*
X128432600Y-54658400D02*
X129984100Y-54658400D01*
X152050000Y-120000000D02*
X152050000Y-118871200D01*
X148904200Y-96000000D02*
X147137500Y-96000000D01*
X136084300Y-75003200D02*
X135145400Y-75003200D01*
X85024600Y-12930200D02*
X84581000Y-12486600D01*
X126862500Y-54050000D02*
X127824200Y-54050000D01*
X180153600Y-100430000D02*
X166874300Y-100430000D01*
X16050000Y-109000000D02*
X13991700Y-109000000D01*
X85024600Y-13181700D02*
X85024600Y-12930200D01*
X166874300Y-100430000D02*
X165304300Y-102000000D01*
%TO.N,NET_U5_EN*%
X129137500Y-53350300D02*
X129137500Y-54050000D01*
X196912500Y-96000000D02*
X196912500Y-94902100D01*
%TO.N,NET_DWM3000_EXT_TX_1V8_SERIES*%
X61164400Y-72339400D02*
X60825000Y-72000000D01*
X63038100Y-72339400D02*
X61164400Y-72339400D01*
X11420000Y-80245000D02*
X11175000Y-80000000D01*
X144862500Y-96950000D02*
X144434200Y-96950000D01*
X144434200Y-96950000D02*
X143716700Y-96232500D01*
X11963800Y-80245000D02*
X11420000Y-80245000D01*
%TO.N,1V8_DWM*%
X75862500Y-13050000D02*
X75621700Y-12809200D01*
X160225000Y-75000000D02*
X169699000Y-65526000D01*
X81802700Y-78000000D02*
X81954400Y-78151700D01*
X75621700Y-12809200D02*
X69106600Y-12809200D01*
X83476100Y-93200200D02*
X83561000Y-93285100D01*
X81225000Y-94000000D02*
X82024800Y-93200200D01*
X207225000Y-92672100D02*
X207225000Y-92000000D01*
X81175000Y-78000000D02*
X81802700Y-78000000D01*
X60450300Y-18115300D02*
X27507700Y-18115300D01*
X81175000Y-78000000D02*
X66416700Y-78000000D01*
X160142600Y-98055100D02*
X163137500Y-101050000D01*
X82024800Y-93200200D02*
X83476100Y-93200200D01*
X208283600Y-127941400D02*
X208283600Y-127106400D01*
X59175000Y-72000000D02*
X59175000Y-75780000D01*
X169699000Y-65526000D02*
X173474000Y-65526000D01*
X17225000Y-78000000D02*
X49175000Y-78000000D01*
X149231600Y-94485600D02*
X150636000Y-95890000D01*
X159675700Y-74450700D02*
X159418700Y-74450700D01*
X116225000Y-88000000D02*
X107225000Y-79000000D01*
X93939900Y-93285100D02*
X94225000Y-93000000D01*
X49175000Y-78000000D02*
X51395000Y-75780000D01*
X150636000Y-95890000D02*
X160142600Y-95890000D01*
X51395000Y-75780000D02*
X59175000Y-75780000D01*
X160142600Y-95890000D02*
X160142600Y-98055100D01*
X173474000Y-65526000D02*
X177000000Y-62000000D01*
X27507700Y-18115300D02*
X27250000Y-18373000D01*
X69106600Y-12809200D02*
X67915800Y-14000000D01*
X160225000Y-75000000D02*
X159675700Y-74450700D01*
X67915800Y-14000000D02*
X64565600Y-14000000D01*
X83561000Y-93285100D02*
X93939900Y-93285100D01*
X144862500Y-95050000D02*
X145426900Y-94485600D01*
X160142600Y-95890000D02*
X161700300Y-94332300D01*
X116225000Y-89000000D02*
X116225000Y-88000000D01*
X148225000Y-128000000D02*
X148225000Y-124520800D01*
X76902900Y-13130400D02*
X75942900Y-13130400D01*
X203225000Y-88000000D02*
X207225000Y-92000000D01*
X107126500Y-78901500D02*
X107225000Y-79000000D01*
X148225000Y-124520800D02*
X149695000Y-123050800D01*
X66416700Y-78000000D02*
X64196700Y-75780000D01*
X126165000Y-56647500D02*
X126163400Y-56647500D01*
X64565600Y-14000000D02*
X60450300Y-18115300D01*
X126862500Y-55950000D02*
X126165000Y-56647500D01*
X106387800Y-78901500D02*
X107126500Y-78901500D01*
X64196700Y-75780000D02*
X59175000Y-75780000D01*
X207411800Y-92858900D02*
X207225000Y-92672100D01*
X27250000Y-18373000D02*
X27250000Y-18737500D01*
X83476100Y-93005300D02*
X83476100Y-93200200D01*
X145426900Y-94485600D02*
X149231600Y-94485600D01*
X75942900Y-13130400D02*
X75862500Y-13050000D01*
X11225000Y-84000000D02*
X17225000Y-78000000D01*
X208225000Y-128000000D02*
X208283600Y-127941400D01*
%TO.N,+1V8*%
X142471100Y-12246100D02*
X143225000Y-13000000D01*
X117225000Y-15000000D02*
X119978900Y-12246100D01*
X80731900Y-8730500D02*
X80879800Y-8878400D01*
X112225000Y-55000000D02*
X112225000Y-53446800D01*
X81225000Y-8237400D02*
X81225000Y-8000000D01*
X80731900Y-8730500D02*
X81225000Y-8237400D01*
X119978900Y-12246100D02*
X142471100Y-12246100D01*
X67225000Y-8000000D02*
X67955500Y-8730500D01*
X67955500Y-8730500D02*
X80731900Y-8730500D01*
X117225000Y-15000000D02*
X114992500Y-12767500D01*
%TO.N,NET_U4_FB*%
X59087500Y-82000000D02*
X65377500Y-88290000D01*
X71202500Y-88290000D02*
X76912500Y-94000000D01*
X65377500Y-88290000D02*
X71202500Y-88290000D01*
%TO.N,NET_W5500_TX_P*%
X24554500Y-101750000D02*
X25333300Y-102528800D01*
X75490000Y-80000000D02*
X74398500Y-81091500D01*
X25333300Y-102947700D02*
X25630800Y-103245200D01*
X74398500Y-81091500D02*
X73575700Y-81091500D01*
X23837500Y-101750000D02*
X24554500Y-101750000D01*
X25630800Y-103245200D02*
X25630800Y-104737700D01*
X25630800Y-104737700D02*
X25576800Y-104791700D01*
X25333300Y-102528800D02*
X25333300Y-102947700D01*
%TO.N,+5V_ISO*%
X185000000Y-62000000D02*
X183351100Y-60351100D01*
X186176700Y-63176700D02*
X195823300Y-63176700D01*
X165746500Y-61874800D02*
X166098600Y-61522700D01*
X166098600Y-61522700D02*
X172522700Y-61522700D01*
X165746500Y-61874800D02*
X165621300Y-62000000D01*
X207820100Y-60820100D02*
X209000000Y-62000000D01*
X197000000Y-62000000D02*
X198179900Y-60820100D01*
X123561100Y-62000000D02*
X123630600Y-62069500D01*
X183351100Y-60351100D02*
X174648900Y-60351100D01*
X73225000Y-20000000D02*
X72393400Y-20000000D01*
X36372100Y-62556000D02*
X37444000Y-62556000D01*
X206950000Y-64050000D02*
X206950000Y-68000000D01*
X195823300Y-63176700D02*
X197000000Y-62000000D01*
X198179900Y-60820100D02*
X207820100Y-60820100D01*
X172522700Y-61522700D02*
X173000000Y-62000000D01*
X185000000Y-62000000D02*
X186176700Y-63176700D01*
X77000000Y-62000000D02*
X75504700Y-60504700D01*
X65400600Y-60504700D02*
X63888000Y-62017300D01*
X122000000Y-62000000D02*
X123561100Y-62000000D01*
X209000000Y-62000000D02*
X206950000Y-64050000D01*
X37444000Y-62556000D02*
X38000000Y-62000000D01*
X174648900Y-60351100D02*
X173000000Y-62000000D01*
X75504700Y-60504700D02*
X65400600Y-60504700D01*
X165621300Y-62000000D02*
X164950000Y-62000000D01*
%TO.N,NET_W5500_INT*%
X155087500Y-80000000D02*
X154286600Y-79199100D01*
%TO.N,NET_W5500_INTn*%
X30250000Y-99837500D02*
X30181000Y-99906500D01*
X156000000Y-80284000D02*
X156628500Y-80284000D01*
X156628500Y-80284000D02*
X156912500Y-80000000D01*
X30181000Y-99906500D02*
X30181000Y-100976600D01*
%TO.N,NET_ESP32_SPI_CS*%
X65087500Y-114000000D02*
X64430000Y-113342500D01*
X64430000Y-113342500D02*
X64186800Y-113342500D01*
%TO.N,NET_DWM3000_SPI_CS_3V3_SERIES*%
X66554200Y-113641700D02*
X66912500Y-114000000D01*
X27750000Y-21554400D02*
X27750000Y-21262500D01*
X31709900Y-25514300D02*
X27750000Y-21554400D01*
X66000000Y-113641700D02*
X66554200Y-113641700D01*
X58378400Y-25514300D02*
X31709900Y-25514300D01*
%TO.N,+3V3*%
X142225000Y-55000000D02*
X141375000Y-55000000D01*
X134024100Y-12799100D02*
X134225000Y-13000000D01*
X93225000Y-62000000D02*
X93897000Y-62672000D01*
X81225000Y-20000000D02*
X82351900Y-21126900D01*
X61989800Y-20764800D02*
X66460200Y-20764800D01*
X133390900Y-12799100D02*
X134024100Y-12799100D01*
X61225000Y-20000000D02*
X61989800Y-20764800D01*
X67225000Y-20000000D02*
X67979700Y-20754700D01*
X82351900Y-21126900D02*
X87691000Y-21126900D01*
X67979700Y-20754700D02*
X80470300Y-20754700D01*
X107395800Y-38844300D02*
X108069300Y-38844300D01*
X108069300Y-38844300D02*
X108225000Y-39000000D01*
X80470300Y-20754700D02*
X81225000Y-20000000D01*
X66460200Y-20764800D02*
X67225000Y-20000000D01*
%TO.N,NET_DWM3000_EXT_RX_1V8*%
X51473000Y-78648000D02*
X50825000Y-78000000D01*
X163137500Y-102950000D02*
X162807500Y-103280000D01*
X162807500Y-103280000D02*
X162807500Y-103649300D01*
%TO.N,NET_ESP32_SPI_CLK*%
X202805000Y-112282500D02*
X203087500Y-112000000D01*
X202161900Y-112282500D02*
X202805000Y-112282500D01*
%TO.N,NET_DWM3000_SPI_CLK_3V3_SERIES*%
X26737500Y-20000000D02*
X26450700Y-20000000D01*
X204022100Y-111605600D02*
X204518100Y-111605600D01*
X41226000Y-36618900D02*
X58400900Y-36618900D01*
X204518100Y-111605600D02*
X204912500Y-112000000D01*
X26114600Y-20336100D02*
X26114600Y-21507500D01*
X26114600Y-21507500D02*
X41226000Y-36618900D01*
X26450700Y-20000000D02*
X26114600Y-20336100D01*
%TO.N,NET_W5500_XTAL_OUT*%
X35199800Y-104818400D02*
X34131400Y-103750000D01*
X59449900Y-109176600D02*
X67759500Y-100867000D01*
X60000000Y-109726800D02*
X59449900Y-109176600D01*
X58791100Y-108517900D02*
X58640700Y-108517900D01*
X58592100Y-108469300D02*
X56490400Y-108469300D01*
X52839500Y-104818400D02*
X35199800Y-104818400D01*
X34131400Y-103750000D02*
X32162500Y-103750000D01*
X60000000Y-110750000D02*
X60000000Y-109726800D01*
X58640700Y-108517900D02*
X58592100Y-108469300D01*
X61100000Y-111850000D02*
X60000000Y-110750000D01*
X56490400Y-108469300D02*
X52839500Y-104818400D01*
X59449900Y-109176600D02*
X58791100Y-108517900D01*
X78358000Y-100867000D02*
X81225000Y-98000000D01*
X67759500Y-100867000D02*
X78358000Y-100867000D01*
%TO.N,NET_DWM3000_DEBUGOUT_1V8*%
X121175000Y-78000000D02*
X123175000Y-80000000D01*
X82825000Y-78000000D02*
X121175000Y-78000000D01*
%TO.N,NET_W5500_TX_N*%
X44071900Y-128581900D02*
X44999000Y-128581900D01*
X43490000Y-128000000D02*
X44071900Y-128581900D01*
X23837500Y-101250000D02*
X24628200Y-101250000D01*
X24628200Y-101250000D02*
X25813800Y-102435600D01*
%TO.N,NET_W5500_RX_P*%
X17067700Y-85577700D02*
X17490000Y-86000000D01*
X23837500Y-103250000D02*
X22690800Y-103250000D01*
X16866600Y-85577700D02*
X17067700Y-85577700D01*
%TO.N,NET_W5500_RX_N*%
X23837500Y-103750000D02*
X24844200Y-103750000D01*
X24844200Y-103750000D02*
X25152700Y-103441500D01*
X170822400Y-127860300D02*
X171350300Y-127860300D01*
X171350300Y-127860300D02*
X171490000Y-128000000D01*
%TO.N,NET_I2C_SCL*%
X178557400Y-85401400D02*
X171824100Y-85401400D01*
X14806400Y-101635000D02*
X15857800Y-100583600D01*
X190475000Y-95365000D02*
X188521000Y-95365000D01*
X108824800Y-72721400D02*
X108912500Y-72633700D01*
X108912500Y-72633700D02*
X108912500Y-71630000D01*
X14475000Y-101635000D02*
X14806400Y-101635000D01*
X188521000Y-95365000D02*
X178557400Y-85401400D01*
X171824100Y-85401400D02*
X171824100Y-85401300D01*
%TO.N,NET_ESP32_GPIO4*%
X144195000Y-106082600D02*
X145004900Y-106082600D01*
X145004900Y-106082600D02*
X145087500Y-106000000D01*
%TO.N,NET_ESP32_GPIO5*%
X175270800Y-90183300D02*
X176087500Y-91000000D01*
%TO.N,NET_ESP32_GPIO6*%
X60000000Y-85707200D02*
X59380300Y-85707200D01*
X59380300Y-85707200D02*
X59087500Y-86000000D01*
%TO.N,NET_ESP32_GPIO7*%
X92551000Y-134536500D02*
X93087500Y-134000000D01*
X92190600Y-134536500D02*
X92551000Y-134536500D01*
%TO.N,NET_ESP32_EXT_TX*%
X146805300Y-96950000D02*
X147137500Y-96950000D01*
X146078700Y-96223400D02*
X146805300Y-96950000D01*
%TO.N,NET_ESP32_EXT_RX*%
X99375000Y-80927100D02*
X100102100Y-80927100D01*
X100102100Y-80927100D02*
X100175000Y-81000000D01*
%TO.N,NET_ESP32_GPIO1*%
X25155800Y-86068300D02*
X25087500Y-86000000D01*
X26000000Y-86068300D02*
X25155800Y-86068300D01*
%TO.N,NET_ESP32_GPIO2*%
X106930200Y-82842700D02*
X107087500Y-83000000D01*
X106196600Y-82842700D02*
X106930200Y-82842700D01*
%TO.N,NET_W5500_SPI2_CS*%
X32162500Y-101250000D02*
X33282400Y-101250000D01*
%TO.N,NET_W5500_SPI2_MISO*%
X32162500Y-102250000D02*
X33298600Y-102250000D01*
%TO.N,NET_W5500_SPI2_MOSI*%
X33439400Y-102750000D02*
X34010700Y-103321300D01*
X32162500Y-102750000D02*
X33439400Y-102750000D01*
X34010700Y-103321300D02*
X34380300Y-103321300D01*
%TO.N,NET_W5500_SPI2_CLK*%
X33885400Y-102522000D02*
X33885400Y-102135300D01*
X33500100Y-101750000D02*
X32162500Y-101750000D01*
X33885400Y-102135300D02*
X33500100Y-101750000D01*
%TO.N,NET_U12_COLLECTOR*%
X164891600Y-61050000D02*
X165183700Y-61342100D01*
X157062500Y-61050000D02*
X164891600Y-61050000D01*
X192693800Y-105606300D02*
X193087500Y-106000000D01*
X192187900Y-105606300D02*
X192693800Y-105606300D01*
%TO.N,NET_DWM3000_SPI_MOSI_3V3_SERIES*%
X37987500Y-32836900D02*
X58411500Y-32836900D01*
X26737500Y-21586900D02*
X37987500Y-32836900D01*
X100000000Y-87803100D02*
X100715600Y-87803100D01*
X26737500Y-20500000D02*
X26737500Y-21586900D01*
X100715600Y-87803100D02*
X100912500Y-88000000D01*
%TO.N,NET_DWM3000_SPI_MISO_3V3_SERIES*%
X27250000Y-21577900D02*
X37840200Y-32168100D01*
X27250000Y-21262500D02*
X27250000Y-21577900D01*
X188823500Y-102911000D02*
X188912500Y-103000000D01*
X37840200Y-32168100D02*
X58400900Y-32168100D01*
X188000000Y-102911000D02*
X188823500Y-102911000D01*
%TO.N,NET_W5500_nRESET*%
X134839400Y-86073100D02*
X134912500Y-86000000D01*
X30750000Y-99837500D02*
X31291300Y-99837500D01*
X133995200Y-86073100D02*
X134839400Y-86073100D01*
%TO.N,NET_W5500_REGD*%
X207142800Y-122937800D02*
X207987800Y-122937800D01*
X26750000Y-99837500D02*
X26750000Y-100958000D01*
X207987800Y-122937800D02*
X208050000Y-123000000D01*
%TO.N,NET_ESP32_GPIO45*%
X83862500Y-14000000D02*
X84150900Y-14000000D01*
X84150900Y-14000000D02*
X84901600Y-14750700D01*
X64851800Y-78000000D02*
X60912500Y-78000000D01*
X65213700Y-77638100D02*
X64851800Y-78000000D01*
X84901600Y-14750700D02*
X84901600Y-17299800D01*
%TO.N,NET_W5500_RST*%
X132663600Y-85576100D02*
X132173400Y-85576100D01*
X133087500Y-86000000D02*
X132663600Y-85576100D01*
%TO.N,NET_I2C_SDA*%
X15846200Y-102671500D02*
X14708500Y-102671500D01*
X190475000Y-96635000D02*
X191832200Y-96635000D01*
X102000000Y-64121300D02*
X102673800Y-64121300D01*
X102673800Y-64121300D02*
X102912500Y-64360000D01*
X14708500Y-102671500D02*
X14475000Y-102905000D01*
%TO.N,NET_ESP32_IRQ*%
X78350600Y-15163100D02*
X78137500Y-14950000D01*
X79209000Y-15163100D02*
X78350600Y-15163100D01*
%TO.N,NET_ESP32_SPI_MISO*%
X186621900Y-102534400D02*
X187087500Y-103000000D01*
X186159800Y-102534400D02*
X186621900Y-102534400D01*
%TO.N,NET_ESP32_SPI_MOSI*%
X95567500Y-84480000D02*
X99087500Y-88000000D01*
X88320000Y-84480000D02*
X95567500Y-84480000D01*
%TO.N,NET_ESP32_GPIO9*%
X53198100Y-74857800D02*
X53175000Y-74834700D01*
X53175000Y-74834700D02*
X53175000Y-74000000D01*
%TO.N,NET_U4_COMP*%
X187225000Y-82000000D02*
X187150500Y-81925500D01*
X213225000Y-94000000D02*
X195448900Y-94000000D01*
X71850000Y-14788800D02*
X70628800Y-14788800D01*
X188000000Y-82775000D02*
X187225000Y-82000000D01*
X70628800Y-14788800D02*
X70475000Y-14635000D01*
X195448900Y-94000000D02*
X188000000Y-86551100D01*
X187150500Y-81925500D02*
X187150500Y-81130500D01*
X188000000Y-86551100D02*
X188000000Y-82775000D01*
%TO.N,NET_U11_COLLECTOR*%
X194180700Y-87803100D02*
X194890600Y-87803100D01*
X194890600Y-87803100D02*
X195087500Y-88000000D01*
X115265200Y-60847300D02*
X116205900Y-60847300D01*
X115062500Y-61050000D02*
X115265200Y-60847300D01*
%TO.N,5V_USB*%
X174450000Y-113429900D02*
X173631400Y-112611300D01*
X173631400Y-112611300D02*
X170363600Y-112611300D01*
X174450000Y-113955000D02*
X174450000Y-113429900D01*
X170363600Y-112611300D02*
X169550000Y-113424900D01*
X169550000Y-113424900D02*
X169550000Y-113955000D01*
%TO.N,NET_USB_D_P*%
X147137500Y-88050000D02*
X144862500Y-88050000D01*
X172750000Y-115002600D02*
X172684400Y-115068200D01*
X147189200Y-88101700D02*
X150999900Y-88101700D01*
X172750000Y-113955000D02*
X172750000Y-115002600D01*
X171750000Y-113267600D02*
X172043200Y-112974400D01*
X172498700Y-112974400D02*
X172750000Y-113225700D01*
X171750000Y-113955000D02*
X171750000Y-113267600D01*
X172750000Y-113225700D02*
X172750000Y-113955000D01*
X147137500Y-88050000D02*
X147189200Y-88101700D01*
X172043200Y-112974400D02*
X172498700Y-112974400D01*
%TO.N,NET_USB_D_N*%
X171116400Y-115070200D02*
X171250000Y-114936600D01*
X147137500Y-89950000D02*
X147904400Y-90716900D01*
X171250000Y-114936600D02*
X171250000Y-113955000D01*
X171898800Y-115070200D02*
X172250000Y-114719000D01*
X147137500Y-89950000D02*
X144862500Y-89950000D01*
X147904400Y-90716900D02*
X151011300Y-90716900D01*
X172250000Y-114719000D02*
X172250000Y-113955000D01*
X171116400Y-115070200D02*
X171898800Y-115070200D01*
%TO.N,NET_U4_SW*%
X41451700Y-120000000D02*
X41600900Y-120000000D01*
X40335700Y-62482400D02*
X41517600Y-62482400D01*
X41517600Y-62482400D02*
X42000000Y-62000000D01*
X39850000Y-120000000D02*
X41451700Y-120000000D01*
X70475000Y-12095000D02*
X69113900Y-12095000D01*
%TO.N,NET_U8_DELAY*%
X83523600Y-13050000D02*
X81915500Y-14658100D01*
X187087500Y-84945000D02*
X187087500Y-86000000D01*
X83862500Y-13050000D02*
X83523600Y-13050000D01*
X81915500Y-14658100D02*
X81915500Y-15132000D01*
X187119000Y-84913500D02*
X187087500Y-84945000D01*
%TO.N,NET_DWM3000_RSTN_1V65*%
X212638500Y-134536500D02*
X213175000Y-134000000D01*
X54825000Y-74000000D02*
X54818200Y-74006800D01*
X212411400Y-134536500D02*
X212638500Y-134536500D01*
X54818200Y-74006800D02*
X54818200Y-74869300D01*
%TO.N,NET_USB_RTS*%
X74201200Y-67050000D02*
X73062500Y-67050000D01*
X178087500Y-81000000D02*
X177960600Y-81126900D01*
X177960600Y-81126900D02*
X177190000Y-81126900D01*
%TO.N,NET_USB_DTR*%
X31063600Y-61048900D02*
X31062500Y-61050000D01*
X74016400Y-90000000D02*
X73601500Y-89585100D01*
X32180200Y-61048900D02*
X31063600Y-61048900D01*
X75087500Y-90000000D02*
X74016400Y-90000000D01*
%TD*%
M02*
