%TF.GenerationSoftware,KiCad,Pcbnew,10.0.3*%
%TF.CreationDate,2026-05-25T09:22:22+02:00*%
%TF.ProjectId,esp32_s3_dwm3000_uwb_anchor_with_relay_outputs,65737033-325f-4733-935f-64776d333030,rev?*%
%TF.SameCoordinates,Original*%
%TF.FileFunction,Paste,Top*%
%TF.FilePolarity,Positive*%
%FSLAX46Y46*%
G04 Gerber Fmt 4.6, Leading zero omitted, Abs format (unit mm)*
G04 Created by KiCad (PCBNEW 10.0.3) date 2026-05-25 09:22:22*
%MOMM*%
%LPD*%
G01*
G04 APERTURE LIST*
G04 Aperture macros list*
%AMRoundRect*
0 Rectangle with rounded corners*
0 $1 Rounding radius*
0 $2 $3 $4 $5 $6 $7 $8 $9 X,Y pos of 4 corners*
0 Add a 4 corners polygon primitive as box body*
4,1,4,$2,$3,$4,$5,$6,$7,$8,$9,$2,$3,0*
0 Add four circle primitives for the rounded corners*
1,1,$1+$1,$2,$3*
1,1,$1+$1,$4,$5*
1,1,$1+$1,$6,$7*
1,1,$1+$1,$8,$9*
0 Add four rect primitives between the rounded corners*
20,1,$1+$1,$2,$3,$4,$5,0*
20,1,$1+$1,$4,$5,$6,$7,0*
20,1,$1+$1,$6,$7,$8,$9,0*
20,1,$1+$1,$8,$9,$2,$3,0*%
G04 Aperture macros list end*
%ADD10R,0.900000X0.900000*%
%ADD11R,1.500000X0.900000*%
%ADD12R,0.900000X1.500000*%
%ADD13RoundRect,0.087500X-0.425000X-0.087500X0.425000X-0.087500X0.425000X0.087500X-0.425000X0.087500X0*%
%ADD14RoundRect,0.250000X-1.000000X-0.650000X1.000000X-0.650000X1.000000X0.650000X-1.000000X0.650000X0*%
%ADD15RoundRect,0.145000X-0.145000X-0.145000X0.145000X-0.145000X0.145000X0.145000X-0.145000X0.145000X0*%
%ADD16RoundRect,0.062500X-0.275000X-0.062500X0.275000X-0.062500X0.275000X0.062500X-0.275000X0.062500X0*%
%ADD17RoundRect,0.062500X-0.062500X-0.275000X0.062500X-0.275000X0.062500X0.275000X-0.062500X0.275000X0*%
%ADD18RoundRect,0.150000X-0.512500X-0.150000X0.512500X-0.150000X0.512500X0.150000X-0.512500X0.150000X0*%
%ADD19R,0.650000X1.400000*%
%ADD20RoundRect,0.250000X-0.375000X-0.625000X0.375000X-0.625000X0.375000X0.625000X-0.375000X0.625000X0*%
%ADD21RoundRect,0.150000X-0.825000X-0.150000X0.825000X-0.150000X0.825000X0.150000X-0.825000X0.150000X0*%
%ADD22RoundRect,0.150000X-0.587500X-0.150000X0.587500X-0.150000X0.587500X0.150000X-0.587500X0.150000X0*%
G04 APERTURE END LIST*
D10*
%TO.C,U1*%
X77100000Y-59060000D03*
X77100000Y-60460000D03*
X77100000Y-61860000D03*
X78500000Y-59060000D03*
X78500000Y-60460000D03*
X78500000Y-61860000D03*
X79900000Y-59060000D03*
X79900000Y-60460000D03*
X79900000Y-61860000D03*
D11*
X71250000Y-52740000D03*
X71250000Y-54010000D03*
X71250000Y-55280000D03*
X71250000Y-56550000D03*
X71250000Y-57820000D03*
X71250000Y-59090000D03*
X71250000Y-60360000D03*
X71250000Y-61630000D03*
X71250000Y-62900000D03*
X71250000Y-64170000D03*
X71250000Y-65440000D03*
X71250000Y-66710000D03*
X71250000Y-67980000D03*
X71250000Y-69250000D03*
D12*
X73015000Y-70500000D03*
X74285000Y-70500000D03*
X75555000Y-70500000D03*
X76825000Y-70500000D03*
X78095000Y-70500000D03*
X79365000Y-70500000D03*
X80635000Y-70500000D03*
X81905000Y-70500000D03*
X83175000Y-70500000D03*
X84445000Y-70500000D03*
X85715000Y-70500000D03*
X86985000Y-70500000D03*
D11*
X88750000Y-69250000D03*
X88750000Y-67980000D03*
X88750000Y-66710000D03*
X88750000Y-65440000D03*
X88750000Y-64170000D03*
X88750000Y-62900000D03*
X88750000Y-61630000D03*
X88750000Y-60360000D03*
X88750000Y-59090000D03*
X88750000Y-57820000D03*
X88750000Y-56550000D03*
X88750000Y-55280000D03*
X88750000Y-54010000D03*
X88750000Y-52740000D03*
%TD*%
D13*
%TO.C,U5*%
X127162500Y-39350000D03*
X127162500Y-40000000D03*
X127162500Y-40650000D03*
X128837500Y-40650000D03*
X128837500Y-39350000D03*
%TD*%
D14*
%TO.C,D1*%
X38000000Y-62000000D03*
X42000000Y-62000000D03*
%TD*%
D15*
%TO.C,U3*%
X117640000Y-29640000D03*
X117640000Y-30360000D03*
X118360000Y-29640000D03*
X118360000Y-30360000D03*
D16*
X116737500Y-29500000D03*
X116737500Y-30000000D03*
X116737500Y-30500000D03*
D17*
X117250000Y-31262500D03*
X117750000Y-31262500D03*
X118250000Y-31262500D03*
X118750000Y-31262500D03*
D16*
X119262500Y-30500000D03*
X119262500Y-30000000D03*
X119262500Y-29500000D03*
D17*
X118750000Y-28737500D03*
X118250000Y-28737500D03*
X117750000Y-28737500D03*
X117250000Y-28737500D03*
%TD*%
D18*
%TO.C,U8*%
X80862500Y-13050000D03*
X80862500Y-14000000D03*
X80862500Y-14950000D03*
X83137500Y-14950000D03*
X83137500Y-13050000D03*
%TD*%
D19*
%TO.C,U2*%
X127500000Y-15500000D03*
X127500000Y-16500000D03*
X127500000Y-17500000D03*
X127500000Y-18500000D03*
X127500000Y-19500000D03*
X127500000Y-20500000D03*
X127500000Y-21500000D03*
X127500000Y-22500000D03*
X127500000Y-23500000D03*
X127500000Y-24500000D03*
X127500000Y-25500000D03*
X127500000Y-26500000D03*
X127500000Y-27500000D03*
X127500000Y-28500000D03*
X142500000Y-15500000D03*
X142500000Y-16500000D03*
X142500000Y-17500000D03*
X142500000Y-18500000D03*
X142500000Y-19500000D03*
X142500000Y-20500000D03*
X142500000Y-21500000D03*
X142500000Y-22500000D03*
X142500000Y-23500000D03*
X142500000Y-24500000D03*
X142500000Y-25500000D03*
X142500000Y-26500000D03*
X142500000Y-27500000D03*
X142500000Y-28500000D03*
%TD*%
D20*
%TO.C,F1*%
X20600000Y-12000000D03*
X23400000Y-12000000D03*
%TD*%
D13*
%TO.C,U4*%
X117162500Y-39350000D03*
X117162500Y-40000000D03*
X117162500Y-40650000D03*
X118837500Y-40650000D03*
X118837500Y-39350000D03*
%TD*%
D21*
%TO.C,U7*%
X65525000Y-12095000D03*
X65525000Y-13365000D03*
X65525000Y-14635000D03*
X65525000Y-15905000D03*
X70475000Y-15905000D03*
X70475000Y-14635000D03*
X70475000Y-13365000D03*
X70475000Y-12095000D03*
%TD*%
D22*
%TO.C,Q1*%
X31062500Y-61050000D03*
X31062500Y-62950000D03*
X32937500Y-62000000D03*
%TD*%
M02*
