%TF.GenerationSoftware,KiCad,Pcbnew,10.0.3*%
%TF.CreationDate,2026-05-25T09:22:22+02:00*%
%TF.ProjectId,esp32_s3_dwm3000_uwb_anchor_with_relay_outputs,65737033-325f-4733-935f-64776d333030,rev?*%
%TF.SameCoordinates,Original*%
%TF.FileFunction,AssemblyDrawing,Top*%
%FSLAX46Y46*%
G04 Gerber Fmt 4.6, Leading zero omitted, Abs format (unit mm)*
G04 Created by KiCad (PCBNEW 10.0.3) date 2026-05-25 09:22:22*
%MOMM*%
%LPD*%
G01*
G04 APERTURE LIST*
%ADD10C,0.150000*%
%ADD11C,0.080000*%
%ADD12C,0.090000*%
%ADD13C,0.110000*%
%ADD14C,0.158750*%
%ADD15C,0.120000*%
%ADD16C,0.100000*%
G04 APERTURE END LIST*
D10*
X19619524Y-63324819D02*
X19619524Y-62324819D01*
X19619524Y-62324819D02*
X20000476Y-62324819D01*
X20000476Y-62324819D02*
X20095714Y-62372438D01*
X20095714Y-62372438D02*
X20143333Y-62420057D01*
X20143333Y-62420057D02*
X20190952Y-62515295D01*
X20190952Y-62515295D02*
X20190952Y-62658152D01*
X20190952Y-62658152D02*
X20143333Y-62753390D01*
X20143333Y-62753390D02*
X20095714Y-62801009D01*
X20095714Y-62801009D02*
X20000476Y-62848628D01*
X20000476Y-62848628D02*
X19619524Y-62848628D01*
X21190952Y-63229580D02*
X21143333Y-63277200D01*
X21143333Y-63277200D02*
X21000476Y-63324819D01*
X21000476Y-63324819D02*
X20905238Y-63324819D01*
X20905238Y-63324819D02*
X20762381Y-63277200D01*
X20762381Y-63277200D02*
X20667143Y-63181961D01*
X20667143Y-63181961D02*
X20619524Y-63086723D01*
X20619524Y-63086723D02*
X20571905Y-62896247D01*
X20571905Y-62896247D02*
X20571905Y-62753390D01*
X20571905Y-62753390D02*
X20619524Y-62562914D01*
X20619524Y-62562914D02*
X20667143Y-62467676D01*
X20667143Y-62467676D02*
X20762381Y-62372438D01*
X20762381Y-62372438D02*
X20905238Y-62324819D01*
X20905238Y-62324819D02*
X21000476Y-62324819D01*
X21000476Y-62324819D02*
X21143333Y-62372438D01*
X21143333Y-62372438D02*
X21190952Y-62420057D01*
X21762381Y-62753390D02*
X21667143Y-62705771D01*
X21667143Y-62705771D02*
X21619524Y-62658152D01*
X21619524Y-62658152D02*
X21571905Y-62562914D01*
X21571905Y-62562914D02*
X21571905Y-62515295D01*
X21571905Y-62515295D02*
X21619524Y-62420057D01*
X21619524Y-62420057D02*
X21667143Y-62372438D01*
X21667143Y-62372438D02*
X21762381Y-62324819D01*
X21762381Y-62324819D02*
X21952857Y-62324819D01*
X21952857Y-62324819D02*
X22048095Y-62372438D01*
X22048095Y-62372438D02*
X22095714Y-62420057D01*
X22095714Y-62420057D02*
X22143333Y-62515295D01*
X22143333Y-62515295D02*
X22143333Y-62562914D01*
X22143333Y-62562914D02*
X22095714Y-62658152D01*
X22095714Y-62658152D02*
X22048095Y-62705771D01*
X22048095Y-62705771D02*
X21952857Y-62753390D01*
X21952857Y-62753390D02*
X21762381Y-62753390D01*
X21762381Y-62753390D02*
X21667143Y-62801009D01*
X21667143Y-62801009D02*
X21619524Y-62848628D01*
X21619524Y-62848628D02*
X21571905Y-62943866D01*
X21571905Y-62943866D02*
X21571905Y-63134342D01*
X21571905Y-63134342D02*
X21619524Y-63229580D01*
X21619524Y-63229580D02*
X21667143Y-63277200D01*
X21667143Y-63277200D02*
X21762381Y-63324819D01*
X21762381Y-63324819D02*
X21952857Y-63324819D01*
X21952857Y-63324819D02*
X22048095Y-63277200D01*
X22048095Y-63277200D02*
X22095714Y-63229580D01*
X22095714Y-63229580D02*
X22143333Y-63134342D01*
X22143333Y-63134342D02*
X22143333Y-62943866D01*
X22143333Y-62943866D02*
X22095714Y-62848628D01*
X22095714Y-62848628D02*
X22048095Y-62801009D01*
X22048095Y-62801009D02*
X21952857Y-62753390D01*
X23095714Y-63324819D02*
X22524286Y-63324819D01*
X22810000Y-63324819D02*
X22810000Y-62324819D01*
X22810000Y-62324819D02*
X22714762Y-62467676D01*
X22714762Y-62467676D02*
X22619524Y-62562914D01*
X22619524Y-62562914D02*
X22524286Y-62610533D01*
X23429048Y-62324819D02*
X24095714Y-62324819D01*
X24095714Y-62324819D02*
X23667143Y-63324819D01*
X20738571Y-58724819D02*
X20929047Y-58724819D01*
X20929047Y-58724819D02*
X21024285Y-58772438D01*
X21024285Y-58772438D02*
X21119523Y-58867676D01*
X21119523Y-58867676D02*
X21167142Y-59058152D01*
X21167142Y-59058152D02*
X21167142Y-59391485D01*
X21167142Y-59391485D02*
X21119523Y-59581961D01*
X21119523Y-59581961D02*
X21024285Y-59677200D01*
X21024285Y-59677200D02*
X20929047Y-59724819D01*
X20929047Y-59724819D02*
X20738571Y-59724819D01*
X20738571Y-59724819D02*
X20643333Y-59677200D01*
X20643333Y-59677200D02*
X20548095Y-59581961D01*
X20548095Y-59581961D02*
X20500476Y-59391485D01*
X20500476Y-59391485D02*
X20500476Y-59058152D01*
X20500476Y-59058152D02*
X20548095Y-58867676D01*
X20548095Y-58867676D02*
X20643333Y-58772438D01*
X20643333Y-58772438D02*
X20738571Y-58724819D01*
X21595714Y-59724819D02*
X21595714Y-58724819D01*
X22167142Y-59724819D02*
X21738571Y-59153390D01*
X22167142Y-58724819D02*
X21595714Y-59296247D01*
X23119523Y-59724819D02*
X22548095Y-59724819D01*
X22833809Y-59724819D02*
X22833809Y-58724819D01*
X22833809Y-58724819D02*
X22738571Y-58867676D01*
X22738571Y-58867676D02*
X22643333Y-58962914D01*
X22643333Y-58962914D02*
X22548095Y-59010533D01*
X22380952Y-97374819D02*
X22380952Y-96374819D01*
X22380952Y-96851009D02*
X22952380Y-96851009D01*
X22952380Y-97374819D02*
X22952380Y-96374819D01*
X23857142Y-97374819D02*
X23857142Y-96851009D01*
X23857142Y-96851009D02*
X23809523Y-96755771D01*
X23809523Y-96755771D02*
X23714285Y-96708152D01*
X23714285Y-96708152D02*
X23523809Y-96708152D01*
X23523809Y-96708152D02*
X23428571Y-96755771D01*
X23857142Y-97327200D02*
X23761904Y-97374819D01*
X23761904Y-97374819D02*
X23523809Y-97374819D01*
X23523809Y-97374819D02*
X23428571Y-97327200D01*
X23428571Y-97327200D02*
X23380952Y-97231961D01*
X23380952Y-97231961D02*
X23380952Y-97136723D01*
X23380952Y-97136723D02*
X23428571Y-97041485D01*
X23428571Y-97041485D02*
X23523809Y-96993866D01*
X23523809Y-96993866D02*
X23761904Y-96993866D01*
X23761904Y-96993866D02*
X23857142Y-96946247D01*
X24333333Y-97374819D02*
X24333333Y-96708152D01*
X24333333Y-96898628D02*
X24380952Y-96803390D01*
X24380952Y-96803390D02*
X24428571Y-96755771D01*
X24428571Y-96755771D02*
X24523809Y-96708152D01*
X24523809Y-96708152D02*
X24619047Y-96708152D01*
X24952381Y-97374819D02*
X24952381Y-96708152D01*
X24952381Y-96374819D02*
X24904762Y-96422438D01*
X24904762Y-96422438D02*
X24952381Y-96470057D01*
X24952381Y-96470057D02*
X25000000Y-96422438D01*
X25000000Y-96422438D02*
X24952381Y-96374819D01*
X24952381Y-96374819D02*
X24952381Y-96470057D01*
X25857142Y-97327200D02*
X25761904Y-97374819D01*
X25761904Y-97374819D02*
X25571428Y-97374819D01*
X25571428Y-97374819D02*
X25476190Y-97327200D01*
X25476190Y-97327200D02*
X25428571Y-97279580D01*
X25428571Y-97279580D02*
X25380952Y-97184342D01*
X25380952Y-97184342D02*
X25380952Y-96898628D01*
X25380952Y-96898628D02*
X25428571Y-96803390D01*
X25428571Y-96803390D02*
X25476190Y-96755771D01*
X25476190Y-96755771D02*
X25571428Y-96708152D01*
X25571428Y-96708152D02*
X25761904Y-96708152D01*
X25761904Y-96708152D02*
X25857142Y-96755771D01*
X26285714Y-97374819D02*
X26285714Y-96708152D01*
X26285714Y-96374819D02*
X26238095Y-96422438D01*
X26238095Y-96422438D02*
X26285714Y-96470057D01*
X26285714Y-96470057D02*
X26333333Y-96422438D01*
X26333333Y-96422438D02*
X26285714Y-96374819D01*
X26285714Y-96374819D02*
X26285714Y-96470057D01*
X27523809Y-97374819D02*
X27523809Y-96374819D01*
X28095237Y-97374819D02*
X27666666Y-96803390D01*
X28095237Y-96374819D02*
X27523809Y-96946247D01*
X28666666Y-97374819D02*
X28571428Y-97327200D01*
X28571428Y-97327200D02*
X28523809Y-97279580D01*
X28523809Y-97279580D02*
X28476190Y-97184342D01*
X28476190Y-97184342D02*
X28476190Y-96898628D01*
X28476190Y-96898628D02*
X28523809Y-96803390D01*
X28523809Y-96803390D02*
X28571428Y-96755771D01*
X28571428Y-96755771D02*
X28666666Y-96708152D01*
X28666666Y-96708152D02*
X28809523Y-96708152D01*
X28809523Y-96708152D02*
X28904761Y-96755771D01*
X28904761Y-96755771D02*
X28952380Y-96803390D01*
X28952380Y-96803390D02*
X28999999Y-96898628D01*
X28999999Y-96898628D02*
X28999999Y-97184342D01*
X28999999Y-97184342D02*
X28952380Y-97279580D01*
X28952380Y-97279580D02*
X28904761Y-97327200D01*
X28904761Y-97327200D02*
X28809523Y-97374819D01*
X28809523Y-97374819D02*
X28666666Y-97374819D01*
X29428571Y-96708152D02*
X29428571Y-97374819D01*
X29428571Y-96803390D02*
X29476190Y-96755771D01*
X29476190Y-96755771D02*
X29571428Y-96708152D01*
X29571428Y-96708152D02*
X29714285Y-96708152D01*
X29714285Y-96708152D02*
X29809523Y-96755771D01*
X29809523Y-96755771D02*
X29857142Y-96851009D01*
X29857142Y-96851009D02*
X29857142Y-97374819D01*
X30714285Y-97327200D02*
X30619047Y-97374819D01*
X30619047Y-97374819D02*
X30428571Y-97374819D01*
X30428571Y-97374819D02*
X30333333Y-97327200D01*
X30333333Y-97327200D02*
X30285714Y-97231961D01*
X30285714Y-97231961D02*
X30285714Y-96851009D01*
X30285714Y-96851009D02*
X30333333Y-96755771D01*
X30333333Y-96755771D02*
X30428571Y-96708152D01*
X30428571Y-96708152D02*
X30619047Y-96708152D01*
X30619047Y-96708152D02*
X30714285Y-96755771D01*
X30714285Y-96755771D02*
X30761904Y-96851009D01*
X30761904Y-96851009D02*
X30761904Y-96946247D01*
X30761904Y-96946247D02*
X30285714Y-97041485D01*
X31190476Y-97374819D02*
X31190476Y-96374819D01*
X31285714Y-96993866D02*
X31571428Y-97374819D01*
X31571428Y-96708152D02*
X31190476Y-97089104D01*
X31857143Y-96708152D02*
X32238095Y-96708152D01*
X32000000Y-96374819D02*
X32000000Y-97231961D01*
X32000000Y-97231961D02*
X32047619Y-97327200D01*
X32047619Y-97327200D02*
X32142857Y-97374819D01*
X32142857Y-97374819D02*
X32238095Y-97374819D01*
X32714286Y-97374819D02*
X32619048Y-97327200D01*
X32619048Y-97327200D02*
X32571429Y-97279580D01*
X32571429Y-97279580D02*
X32523810Y-97184342D01*
X32523810Y-97184342D02*
X32523810Y-96898628D01*
X32523810Y-96898628D02*
X32571429Y-96803390D01*
X32571429Y-96803390D02*
X32619048Y-96755771D01*
X32619048Y-96755771D02*
X32714286Y-96708152D01*
X32714286Y-96708152D02*
X32857143Y-96708152D01*
X32857143Y-96708152D02*
X32952381Y-96755771D01*
X32952381Y-96755771D02*
X33000000Y-96803390D01*
X33000000Y-96803390D02*
X33047619Y-96898628D01*
X33047619Y-96898628D02*
X33047619Y-97184342D01*
X33047619Y-97184342D02*
X33000000Y-97279580D01*
X33000000Y-97279580D02*
X32952381Y-97327200D01*
X32952381Y-97327200D02*
X32857143Y-97374819D01*
X32857143Y-97374819D02*
X32714286Y-97374819D01*
X32619048Y-96374819D02*
X32666667Y-96422438D01*
X32666667Y-96422438D02*
X32619048Y-96470057D01*
X32619048Y-96470057D02*
X32571429Y-96422438D01*
X32571429Y-96422438D02*
X32619048Y-96374819D01*
X32619048Y-96374819D02*
X32619048Y-96470057D01*
X33000000Y-96374819D02*
X33047619Y-96422438D01*
X33047619Y-96422438D02*
X33000000Y-96470057D01*
X33000000Y-96470057D02*
X32952381Y-96422438D01*
X32952381Y-96422438D02*
X33000000Y-96374819D01*
X33000000Y-96374819D02*
X33000000Y-96470057D01*
X33476191Y-97374819D02*
X33476191Y-96708152D01*
X33476191Y-96898628D02*
X33523810Y-96803390D01*
X33523810Y-96803390D02*
X33571429Y-96755771D01*
X33571429Y-96755771D02*
X33666667Y-96708152D01*
X33666667Y-96708152D02*
X33761905Y-96708152D01*
X28454819Y-93912857D02*
X27978628Y-94246190D01*
X28454819Y-94484285D02*
X27454819Y-94484285D01*
X27454819Y-94484285D02*
X27454819Y-94103333D01*
X27454819Y-94103333D02*
X27502438Y-94008095D01*
X27502438Y-94008095D02*
X27550057Y-93960476D01*
X27550057Y-93960476D02*
X27645295Y-93912857D01*
X27645295Y-93912857D02*
X27788152Y-93912857D01*
X27788152Y-93912857D02*
X27883390Y-93960476D01*
X27883390Y-93960476D02*
X27931009Y-94008095D01*
X27931009Y-94008095D02*
X27978628Y-94103333D01*
X27978628Y-94103333D02*
X27978628Y-94484285D01*
X28454819Y-92960476D02*
X28454819Y-93531904D01*
X28454819Y-93246190D02*
X27454819Y-93246190D01*
X27454819Y-93246190D02*
X27597676Y-93341428D01*
X27597676Y-93341428D02*
X27692914Y-93436666D01*
X27692914Y-93436666D02*
X27740533Y-93531904D01*
X27454819Y-92341428D02*
X27454819Y-92246190D01*
X27454819Y-92246190D02*
X27502438Y-92150952D01*
X27502438Y-92150952D02*
X27550057Y-92103333D01*
X27550057Y-92103333D02*
X27645295Y-92055714D01*
X27645295Y-92055714D02*
X27835771Y-92008095D01*
X27835771Y-92008095D02*
X28073866Y-92008095D01*
X28073866Y-92008095D02*
X28264342Y-92055714D01*
X28264342Y-92055714D02*
X28359580Y-92103333D01*
X28359580Y-92103333D02*
X28407200Y-92150952D01*
X28407200Y-92150952D02*
X28454819Y-92246190D01*
X28454819Y-92246190D02*
X28454819Y-92341428D01*
X28454819Y-92341428D02*
X28407200Y-92436666D01*
X28407200Y-92436666D02*
X28359580Y-92484285D01*
X28359580Y-92484285D02*
X28264342Y-92531904D01*
X28264342Y-92531904D02*
X28073866Y-92579523D01*
X28073866Y-92579523D02*
X27835771Y-92579523D01*
X27835771Y-92579523D02*
X27645295Y-92531904D01*
X27645295Y-92531904D02*
X27550057Y-92484285D01*
X27550057Y-92484285D02*
X27502438Y-92436666D01*
X27502438Y-92436666D02*
X27454819Y-92341428D01*
X76285714Y-72531009D02*
X76619047Y-72531009D01*
X76761904Y-73054819D02*
X76285714Y-73054819D01*
X76285714Y-73054819D02*
X76285714Y-72054819D01*
X76285714Y-72054819D02*
X76761904Y-72054819D01*
X77142857Y-73007200D02*
X77285714Y-73054819D01*
X77285714Y-73054819D02*
X77523809Y-73054819D01*
X77523809Y-73054819D02*
X77619047Y-73007200D01*
X77619047Y-73007200D02*
X77666666Y-72959580D01*
X77666666Y-72959580D02*
X77714285Y-72864342D01*
X77714285Y-72864342D02*
X77714285Y-72769104D01*
X77714285Y-72769104D02*
X77666666Y-72673866D01*
X77666666Y-72673866D02*
X77619047Y-72626247D01*
X77619047Y-72626247D02*
X77523809Y-72578628D01*
X77523809Y-72578628D02*
X77333333Y-72531009D01*
X77333333Y-72531009D02*
X77238095Y-72483390D01*
X77238095Y-72483390D02*
X77190476Y-72435771D01*
X77190476Y-72435771D02*
X77142857Y-72340533D01*
X77142857Y-72340533D02*
X77142857Y-72245295D01*
X77142857Y-72245295D02*
X77190476Y-72150057D01*
X77190476Y-72150057D02*
X77238095Y-72102438D01*
X77238095Y-72102438D02*
X77333333Y-72054819D01*
X77333333Y-72054819D02*
X77571428Y-72054819D01*
X77571428Y-72054819D02*
X77714285Y-72102438D01*
X78142857Y-73054819D02*
X78142857Y-72054819D01*
X78142857Y-72054819D02*
X78523809Y-72054819D01*
X78523809Y-72054819D02*
X78619047Y-72102438D01*
X78619047Y-72102438D02*
X78666666Y-72150057D01*
X78666666Y-72150057D02*
X78714285Y-72245295D01*
X78714285Y-72245295D02*
X78714285Y-72388152D01*
X78714285Y-72388152D02*
X78666666Y-72483390D01*
X78666666Y-72483390D02*
X78619047Y-72531009D01*
X78619047Y-72531009D02*
X78523809Y-72578628D01*
X78523809Y-72578628D02*
X78142857Y-72578628D01*
X79047619Y-72054819D02*
X79666666Y-72054819D01*
X79666666Y-72054819D02*
X79333333Y-72435771D01*
X79333333Y-72435771D02*
X79476190Y-72435771D01*
X79476190Y-72435771D02*
X79571428Y-72483390D01*
X79571428Y-72483390D02*
X79619047Y-72531009D01*
X79619047Y-72531009D02*
X79666666Y-72626247D01*
X79666666Y-72626247D02*
X79666666Y-72864342D01*
X79666666Y-72864342D02*
X79619047Y-72959580D01*
X79619047Y-72959580D02*
X79571428Y-73007200D01*
X79571428Y-73007200D02*
X79476190Y-73054819D01*
X79476190Y-73054819D02*
X79190476Y-73054819D01*
X79190476Y-73054819D02*
X79095238Y-73007200D01*
X79095238Y-73007200D02*
X79047619Y-72959580D01*
X80047619Y-72150057D02*
X80095238Y-72102438D01*
X80095238Y-72102438D02*
X80190476Y-72054819D01*
X80190476Y-72054819D02*
X80428571Y-72054819D01*
X80428571Y-72054819D02*
X80523809Y-72102438D01*
X80523809Y-72102438D02*
X80571428Y-72150057D01*
X80571428Y-72150057D02*
X80619047Y-72245295D01*
X80619047Y-72245295D02*
X80619047Y-72340533D01*
X80619047Y-72340533D02*
X80571428Y-72483390D01*
X80571428Y-72483390D02*
X80000000Y-73054819D01*
X80000000Y-73054819D02*
X80619047Y-73054819D01*
X81047619Y-72673866D02*
X81809524Y-72673866D01*
X82238095Y-73007200D02*
X82380952Y-73054819D01*
X82380952Y-73054819D02*
X82619047Y-73054819D01*
X82619047Y-73054819D02*
X82714285Y-73007200D01*
X82714285Y-73007200D02*
X82761904Y-72959580D01*
X82761904Y-72959580D02*
X82809523Y-72864342D01*
X82809523Y-72864342D02*
X82809523Y-72769104D01*
X82809523Y-72769104D02*
X82761904Y-72673866D01*
X82761904Y-72673866D02*
X82714285Y-72626247D01*
X82714285Y-72626247D02*
X82619047Y-72578628D01*
X82619047Y-72578628D02*
X82428571Y-72531009D01*
X82428571Y-72531009D02*
X82333333Y-72483390D01*
X82333333Y-72483390D02*
X82285714Y-72435771D01*
X82285714Y-72435771D02*
X82238095Y-72340533D01*
X82238095Y-72340533D02*
X82238095Y-72245295D01*
X82238095Y-72245295D02*
X82285714Y-72150057D01*
X82285714Y-72150057D02*
X82333333Y-72102438D01*
X82333333Y-72102438D02*
X82428571Y-72054819D01*
X82428571Y-72054819D02*
X82666666Y-72054819D01*
X82666666Y-72054819D02*
X82809523Y-72102438D01*
X83142857Y-72054819D02*
X83761904Y-72054819D01*
X83761904Y-72054819D02*
X83428571Y-72435771D01*
X83428571Y-72435771D02*
X83571428Y-72435771D01*
X83571428Y-72435771D02*
X83666666Y-72483390D01*
X83666666Y-72483390D02*
X83714285Y-72531009D01*
X83714285Y-72531009D02*
X83761904Y-72626247D01*
X83761904Y-72626247D02*
X83761904Y-72864342D01*
X83761904Y-72864342D02*
X83714285Y-72959580D01*
X83714285Y-72959580D02*
X83666666Y-73007200D01*
X83666666Y-73007200D02*
X83571428Y-73054819D01*
X83571428Y-73054819D02*
X83285714Y-73054819D01*
X83285714Y-73054819D02*
X83190476Y-73007200D01*
X83190476Y-73007200D02*
X83142857Y-72959580D01*
X79238095Y-56854819D02*
X79238095Y-57664342D01*
X79238095Y-57664342D02*
X79285714Y-57759580D01*
X79285714Y-57759580D02*
X79333333Y-57807200D01*
X79333333Y-57807200D02*
X79428571Y-57854819D01*
X79428571Y-57854819D02*
X79619047Y-57854819D01*
X79619047Y-57854819D02*
X79714285Y-57807200D01*
X79714285Y-57807200D02*
X79761904Y-57759580D01*
X79761904Y-57759580D02*
X79809523Y-57664342D01*
X79809523Y-57664342D02*
X79809523Y-56854819D01*
X80809523Y-57854819D02*
X80238095Y-57854819D01*
X80523809Y-57854819D02*
X80523809Y-56854819D01*
X80523809Y-56854819D02*
X80428571Y-56997676D01*
X80428571Y-56997676D02*
X80333333Y-57092914D01*
X80333333Y-57092914D02*
X80238095Y-57140533D01*
X119333332Y-42207200D02*
X119428570Y-42254819D01*
X119428570Y-42254819D02*
X119619046Y-42254819D01*
X119619046Y-42254819D02*
X119714284Y-42207200D01*
X119714284Y-42207200D02*
X119761903Y-42111961D01*
X119761903Y-42111961D02*
X119761903Y-42064342D01*
X119761903Y-42064342D02*
X119714284Y-41969104D01*
X119714284Y-41969104D02*
X119619046Y-41921485D01*
X119619046Y-41921485D02*
X119476189Y-41921485D01*
X119476189Y-41921485D02*
X119380951Y-41873866D01*
X119380951Y-41873866D02*
X119333332Y-41778628D01*
X119333332Y-41778628D02*
X119333332Y-41731009D01*
X119333332Y-41731009D02*
X119380951Y-41635771D01*
X119380951Y-41635771D02*
X119476189Y-41588152D01*
X119476189Y-41588152D02*
X119619046Y-41588152D01*
X119619046Y-41588152D02*
X119714284Y-41635771D01*
X120190475Y-42254819D02*
X120190475Y-41588152D01*
X120190475Y-41254819D02*
X120142856Y-41302438D01*
X120142856Y-41302438D02*
X120190475Y-41350057D01*
X120190475Y-41350057D02*
X120238094Y-41302438D01*
X120238094Y-41302438D02*
X120190475Y-41254819D01*
X120190475Y-41254819D02*
X120190475Y-41350057D01*
X120666665Y-41588152D02*
X120666665Y-42254819D01*
X120666665Y-41683390D02*
X120714284Y-41635771D01*
X120714284Y-41635771D02*
X120809522Y-41588152D01*
X120809522Y-41588152D02*
X120952379Y-41588152D01*
X120952379Y-41588152D02*
X121047617Y-41635771D01*
X121047617Y-41635771D02*
X121095236Y-41731009D01*
X121095236Y-41731009D02*
X121095236Y-42254819D01*
X121999998Y-41588152D02*
X121999998Y-42397676D01*
X121999998Y-42397676D02*
X121952379Y-42492914D01*
X121952379Y-42492914D02*
X121904760Y-42540533D01*
X121904760Y-42540533D02*
X121809522Y-42588152D01*
X121809522Y-42588152D02*
X121666665Y-42588152D01*
X121666665Y-42588152D02*
X121571427Y-42540533D01*
X121999998Y-42207200D02*
X121904760Y-42254819D01*
X121904760Y-42254819D02*
X121714284Y-42254819D01*
X121714284Y-42254819D02*
X121619046Y-42207200D01*
X121619046Y-42207200D02*
X121571427Y-42159580D01*
X121571427Y-42159580D02*
X121523808Y-42064342D01*
X121523808Y-42064342D02*
X121523808Y-41778628D01*
X121523808Y-41778628D02*
X121571427Y-41683390D01*
X121571427Y-41683390D02*
X121619046Y-41635771D01*
X121619046Y-41635771D02*
X121714284Y-41588152D01*
X121714284Y-41588152D02*
X121904760Y-41588152D01*
X121904760Y-41588152D02*
X121999998Y-41635771D01*
X122619046Y-42254819D02*
X122523808Y-42207200D01*
X122523808Y-42207200D02*
X122476189Y-42111961D01*
X122476189Y-42111961D02*
X122476189Y-41254819D01*
X123380951Y-42207200D02*
X123285713Y-42254819D01*
X123285713Y-42254819D02*
X123095237Y-42254819D01*
X123095237Y-42254819D02*
X122999999Y-42207200D01*
X122999999Y-42207200D02*
X122952380Y-42111961D01*
X122952380Y-42111961D02*
X122952380Y-41731009D01*
X122952380Y-41731009D02*
X122999999Y-41635771D01*
X122999999Y-41635771D02*
X123095237Y-41588152D01*
X123095237Y-41588152D02*
X123285713Y-41588152D01*
X123285713Y-41588152D02*
X123380951Y-41635771D01*
X123380951Y-41635771D02*
X123428570Y-41731009D01*
X123428570Y-41731009D02*
X123428570Y-41826247D01*
X123428570Y-41826247D02*
X122952380Y-41921485D01*
X123857142Y-41873866D02*
X124619047Y-41873866D01*
X125095237Y-42254819D02*
X125095237Y-41254819D01*
X125095237Y-41635771D02*
X125190475Y-41588152D01*
X125190475Y-41588152D02*
X125380951Y-41588152D01*
X125380951Y-41588152D02*
X125476189Y-41635771D01*
X125476189Y-41635771D02*
X125523808Y-41683390D01*
X125523808Y-41683390D02*
X125571427Y-41778628D01*
X125571427Y-41778628D02*
X125571427Y-42064342D01*
X125571427Y-42064342D02*
X125523808Y-42159580D01*
X125523808Y-42159580D02*
X125476189Y-42207200D01*
X125476189Y-42207200D02*
X125380951Y-42254819D01*
X125380951Y-42254819D02*
X125190475Y-42254819D01*
X125190475Y-42254819D02*
X125095237Y-42207200D01*
X125999999Y-42254819D02*
X125999999Y-41588152D01*
X125999999Y-41254819D02*
X125952380Y-41302438D01*
X125952380Y-41302438D02*
X125999999Y-41350057D01*
X125999999Y-41350057D02*
X126047618Y-41302438D01*
X126047618Y-41302438D02*
X125999999Y-41254819D01*
X125999999Y-41254819D02*
X125999999Y-41350057D01*
X126333332Y-41588152D02*
X126714284Y-41588152D01*
X126476189Y-41254819D02*
X126476189Y-42111961D01*
X126476189Y-42111961D02*
X126523808Y-42207200D01*
X126523808Y-42207200D02*
X126619046Y-42254819D01*
X126619046Y-42254819D02*
X126714284Y-42254819D01*
X128238094Y-42254819D02*
X128238094Y-41254819D01*
X128238094Y-42207200D02*
X128142856Y-42254819D01*
X128142856Y-42254819D02*
X127952380Y-42254819D01*
X127952380Y-42254819D02*
X127857142Y-42207200D01*
X127857142Y-42207200D02*
X127809523Y-42159580D01*
X127809523Y-42159580D02*
X127761904Y-42064342D01*
X127761904Y-42064342D02*
X127761904Y-41778628D01*
X127761904Y-41778628D02*
X127809523Y-41683390D01*
X127809523Y-41683390D02*
X127857142Y-41635771D01*
X127857142Y-41635771D02*
X127952380Y-41588152D01*
X127952380Y-41588152D02*
X128142856Y-41588152D01*
X128142856Y-41588152D02*
X128238094Y-41635771D01*
X129142856Y-41588152D02*
X129142856Y-42254819D01*
X128714285Y-41588152D02*
X128714285Y-42111961D01*
X128714285Y-42111961D02*
X128761904Y-42207200D01*
X128761904Y-42207200D02*
X128857142Y-42254819D01*
X128857142Y-42254819D02*
X128999999Y-42254819D01*
X128999999Y-42254819D02*
X129095237Y-42207200D01*
X129095237Y-42207200D02*
X129142856Y-42159580D01*
X130047618Y-42254819D02*
X130047618Y-41731009D01*
X130047618Y-41731009D02*
X129999999Y-41635771D01*
X129999999Y-41635771D02*
X129904761Y-41588152D01*
X129904761Y-41588152D02*
X129714285Y-41588152D01*
X129714285Y-41588152D02*
X129619047Y-41635771D01*
X130047618Y-42207200D02*
X129952380Y-42254819D01*
X129952380Y-42254819D02*
X129714285Y-42254819D01*
X129714285Y-42254819D02*
X129619047Y-42207200D01*
X129619047Y-42207200D02*
X129571428Y-42111961D01*
X129571428Y-42111961D02*
X129571428Y-42016723D01*
X129571428Y-42016723D02*
X129619047Y-41921485D01*
X129619047Y-41921485D02*
X129714285Y-41873866D01*
X129714285Y-41873866D02*
X129952380Y-41873866D01*
X129952380Y-41873866D02*
X130047618Y-41826247D01*
X130666666Y-42254819D02*
X130571428Y-42207200D01*
X130571428Y-42207200D02*
X130523809Y-42111961D01*
X130523809Y-42111961D02*
X130523809Y-41254819D01*
X131047619Y-41873866D02*
X131809524Y-41873866D01*
X132238095Y-42207200D02*
X132333333Y-42254819D01*
X132333333Y-42254819D02*
X132523809Y-42254819D01*
X132523809Y-42254819D02*
X132619047Y-42207200D01*
X132619047Y-42207200D02*
X132666666Y-42111961D01*
X132666666Y-42111961D02*
X132666666Y-42064342D01*
X132666666Y-42064342D02*
X132619047Y-41969104D01*
X132619047Y-41969104D02*
X132523809Y-41921485D01*
X132523809Y-41921485D02*
X132380952Y-41921485D01*
X132380952Y-41921485D02*
X132285714Y-41873866D01*
X132285714Y-41873866D02*
X132238095Y-41778628D01*
X132238095Y-41778628D02*
X132238095Y-41731009D01*
X132238095Y-41731009D02*
X132285714Y-41635771D01*
X132285714Y-41635771D02*
X132380952Y-41588152D01*
X132380952Y-41588152D02*
X132523809Y-41588152D01*
X132523809Y-41588152D02*
X132619047Y-41635771D01*
X133523809Y-41588152D02*
X133523809Y-42254819D01*
X133095238Y-41588152D02*
X133095238Y-42111961D01*
X133095238Y-42111961D02*
X133142857Y-42207200D01*
X133142857Y-42207200D02*
X133238095Y-42254819D01*
X133238095Y-42254819D02*
X133380952Y-42254819D01*
X133380952Y-42254819D02*
X133476190Y-42207200D01*
X133476190Y-42207200D02*
X133523809Y-42159580D01*
X134000000Y-41588152D02*
X134000000Y-42588152D01*
X134000000Y-41635771D02*
X134095238Y-41588152D01*
X134095238Y-41588152D02*
X134285714Y-41588152D01*
X134285714Y-41588152D02*
X134380952Y-41635771D01*
X134380952Y-41635771D02*
X134428571Y-41683390D01*
X134428571Y-41683390D02*
X134476190Y-41778628D01*
X134476190Y-41778628D02*
X134476190Y-42064342D01*
X134476190Y-42064342D02*
X134428571Y-42159580D01*
X134428571Y-42159580D02*
X134380952Y-42207200D01*
X134380952Y-42207200D02*
X134285714Y-42254819D01*
X134285714Y-42254819D02*
X134095238Y-42254819D01*
X134095238Y-42254819D02*
X134000000Y-42207200D01*
X134904762Y-41588152D02*
X134904762Y-42588152D01*
X134904762Y-41635771D02*
X135000000Y-41588152D01*
X135000000Y-41588152D02*
X135190476Y-41588152D01*
X135190476Y-41588152D02*
X135285714Y-41635771D01*
X135285714Y-41635771D02*
X135333333Y-41683390D01*
X135333333Y-41683390D02*
X135380952Y-41778628D01*
X135380952Y-41778628D02*
X135380952Y-42064342D01*
X135380952Y-42064342D02*
X135333333Y-42159580D01*
X135333333Y-42159580D02*
X135285714Y-42207200D01*
X135285714Y-42207200D02*
X135190476Y-42254819D01*
X135190476Y-42254819D02*
X135000000Y-42254819D01*
X135000000Y-42254819D02*
X134904762Y-42207200D01*
X135952381Y-42254819D02*
X135857143Y-42207200D01*
X135857143Y-42207200D02*
X135809524Y-42111961D01*
X135809524Y-42111961D02*
X135809524Y-41254819D01*
X136238096Y-41588152D02*
X136476191Y-42254819D01*
X136714286Y-41588152D02*
X136476191Y-42254819D01*
X136476191Y-42254819D02*
X136380953Y-42492914D01*
X136380953Y-42492914D02*
X136333334Y-42540533D01*
X136333334Y-42540533D02*
X136238096Y-42588152D01*
D11*
X127727149Y-40380952D02*
X128131911Y-40380952D01*
X128131911Y-40380952D02*
X128179530Y-40357142D01*
X128179530Y-40357142D02*
X128203340Y-40333333D01*
X128203340Y-40333333D02*
X128227149Y-40285714D01*
X128227149Y-40285714D02*
X128227149Y-40190476D01*
X128227149Y-40190476D02*
X128203340Y-40142857D01*
X128203340Y-40142857D02*
X128179530Y-40119047D01*
X128179530Y-40119047D02*
X128131911Y-40095238D01*
X128131911Y-40095238D02*
X127727149Y-40095238D01*
X127727149Y-39619047D02*
X127727149Y-39857142D01*
X127727149Y-39857142D02*
X127965244Y-39880951D01*
X127965244Y-39880951D02*
X127941435Y-39857142D01*
X127941435Y-39857142D02*
X127917625Y-39809523D01*
X127917625Y-39809523D02*
X127917625Y-39690475D01*
X127917625Y-39690475D02*
X127941435Y-39642856D01*
X127941435Y-39642856D02*
X127965244Y-39619047D01*
X127965244Y-39619047D02*
X128012863Y-39595237D01*
X128012863Y-39595237D02*
X128131911Y-39595237D01*
X128131911Y-39595237D02*
X128179530Y-39619047D01*
X128179530Y-39619047D02*
X128203340Y-39642856D01*
X128203340Y-39642856D02*
X128227149Y-39690475D01*
X128227149Y-39690475D02*
X128227149Y-39809523D01*
X128227149Y-39809523D02*
X128203340Y-39857142D01*
X128203340Y-39857142D02*
X128179530Y-39880951D01*
D10*
X38285714Y-65007200D02*
X38428571Y-65054819D01*
X38428571Y-65054819D02*
X38666666Y-65054819D01*
X38666666Y-65054819D02*
X38761904Y-65007200D01*
X38761904Y-65007200D02*
X38809523Y-64959580D01*
X38809523Y-64959580D02*
X38857142Y-64864342D01*
X38857142Y-64864342D02*
X38857142Y-64769104D01*
X38857142Y-64769104D02*
X38809523Y-64673866D01*
X38809523Y-64673866D02*
X38761904Y-64626247D01*
X38761904Y-64626247D02*
X38666666Y-64578628D01*
X38666666Y-64578628D02*
X38476190Y-64531009D01*
X38476190Y-64531009D02*
X38380952Y-64483390D01*
X38380952Y-64483390D02*
X38333333Y-64435771D01*
X38333333Y-64435771D02*
X38285714Y-64340533D01*
X38285714Y-64340533D02*
X38285714Y-64245295D01*
X38285714Y-64245295D02*
X38333333Y-64150057D01*
X38333333Y-64150057D02*
X38380952Y-64102438D01*
X38380952Y-64102438D02*
X38476190Y-64054819D01*
X38476190Y-64054819D02*
X38714285Y-64054819D01*
X38714285Y-64054819D02*
X38857142Y-64102438D01*
X39238095Y-65007200D02*
X39380952Y-65054819D01*
X39380952Y-65054819D02*
X39619047Y-65054819D01*
X39619047Y-65054819D02*
X39714285Y-65007200D01*
X39714285Y-65007200D02*
X39761904Y-64959580D01*
X39761904Y-64959580D02*
X39809523Y-64864342D01*
X39809523Y-64864342D02*
X39809523Y-64769104D01*
X39809523Y-64769104D02*
X39761904Y-64673866D01*
X39761904Y-64673866D02*
X39714285Y-64626247D01*
X39714285Y-64626247D02*
X39619047Y-64578628D01*
X39619047Y-64578628D02*
X39428571Y-64531009D01*
X39428571Y-64531009D02*
X39333333Y-64483390D01*
X39333333Y-64483390D02*
X39285714Y-64435771D01*
X39285714Y-64435771D02*
X39238095Y-64340533D01*
X39238095Y-64340533D02*
X39238095Y-64245295D01*
X39238095Y-64245295D02*
X39285714Y-64150057D01*
X39285714Y-64150057D02*
X39333333Y-64102438D01*
X39333333Y-64102438D02*
X39428571Y-64054819D01*
X39428571Y-64054819D02*
X39666666Y-64054819D01*
X39666666Y-64054819D02*
X39809523Y-64102438D01*
X40761904Y-65054819D02*
X40190476Y-65054819D01*
X40476190Y-65054819D02*
X40476190Y-64054819D01*
X40476190Y-64054819D02*
X40380952Y-64197676D01*
X40380952Y-64197676D02*
X40285714Y-64292914D01*
X40285714Y-64292914D02*
X40190476Y-64340533D01*
X41619047Y-64388152D02*
X41619047Y-65054819D01*
X41380952Y-64007200D02*
X41142857Y-64721485D01*
X41142857Y-64721485D02*
X41761904Y-64721485D01*
X39261905Y-59954819D02*
X39261905Y-58954819D01*
X39261905Y-58954819D02*
X39500000Y-58954819D01*
X39500000Y-58954819D02*
X39642857Y-59002438D01*
X39642857Y-59002438D02*
X39738095Y-59097676D01*
X39738095Y-59097676D02*
X39785714Y-59192914D01*
X39785714Y-59192914D02*
X39833333Y-59383390D01*
X39833333Y-59383390D02*
X39833333Y-59526247D01*
X39833333Y-59526247D02*
X39785714Y-59716723D01*
X39785714Y-59716723D02*
X39738095Y-59811961D01*
X39738095Y-59811961D02*
X39642857Y-59907200D01*
X39642857Y-59907200D02*
X39500000Y-59954819D01*
X39500000Y-59954819D02*
X39261905Y-59954819D01*
X40785714Y-59954819D02*
X40214286Y-59954819D01*
X40500000Y-59954819D02*
X40500000Y-58954819D01*
X40500000Y-58954819D02*
X40404762Y-59097676D01*
X40404762Y-59097676D02*
X40309524Y-59192914D01*
X40309524Y-59192914D02*
X40214286Y-59240533D01*
X111523809Y-32338152D02*
X111523809Y-33004819D01*
X111285714Y-31957200D02*
X111047619Y-32671485D01*
X111047619Y-32671485D02*
X111666666Y-32671485D01*
X112047619Y-32623866D02*
X112809524Y-32623866D01*
X113285714Y-33004819D02*
X113285714Y-32004819D01*
X113285714Y-32385771D02*
X113380952Y-32338152D01*
X113380952Y-32338152D02*
X113571428Y-32338152D01*
X113571428Y-32338152D02*
X113666666Y-32385771D01*
X113666666Y-32385771D02*
X113714285Y-32433390D01*
X113714285Y-32433390D02*
X113761904Y-32528628D01*
X113761904Y-32528628D02*
X113761904Y-32814342D01*
X113761904Y-32814342D02*
X113714285Y-32909580D01*
X113714285Y-32909580D02*
X113666666Y-32957200D01*
X113666666Y-32957200D02*
X113571428Y-33004819D01*
X113571428Y-33004819D02*
X113380952Y-33004819D01*
X113380952Y-33004819D02*
X113285714Y-32957200D01*
X114190476Y-33004819D02*
X114190476Y-32338152D01*
X114190476Y-32004819D02*
X114142857Y-32052438D01*
X114142857Y-32052438D02*
X114190476Y-32100057D01*
X114190476Y-32100057D02*
X114238095Y-32052438D01*
X114238095Y-32052438D02*
X114190476Y-32004819D01*
X114190476Y-32004819D02*
X114190476Y-32100057D01*
X114523809Y-32338152D02*
X114904761Y-32338152D01*
X114666666Y-32004819D02*
X114666666Y-32861961D01*
X114666666Y-32861961D02*
X114714285Y-32957200D01*
X114714285Y-32957200D02*
X114809523Y-33004819D01*
X114809523Y-33004819D02*
X114904761Y-33004819D01*
X116000000Y-33004819D02*
X116000000Y-32004819D01*
X116000000Y-32385771D02*
X116095238Y-32338152D01*
X116095238Y-32338152D02*
X116285714Y-32338152D01*
X116285714Y-32338152D02*
X116380952Y-32385771D01*
X116380952Y-32385771D02*
X116428571Y-32433390D01*
X116428571Y-32433390D02*
X116476190Y-32528628D01*
X116476190Y-32528628D02*
X116476190Y-32814342D01*
X116476190Y-32814342D02*
X116428571Y-32909580D01*
X116428571Y-32909580D02*
X116380952Y-32957200D01*
X116380952Y-32957200D02*
X116285714Y-33004819D01*
X116285714Y-33004819D02*
X116095238Y-33004819D01*
X116095238Y-33004819D02*
X116000000Y-32957200D01*
X116904762Y-33004819D02*
X116904762Y-32338152D01*
X116904762Y-32004819D02*
X116857143Y-32052438D01*
X116857143Y-32052438D02*
X116904762Y-32100057D01*
X116904762Y-32100057D02*
X116952381Y-32052438D01*
X116952381Y-32052438D02*
X116904762Y-32004819D01*
X116904762Y-32004819D02*
X116904762Y-32100057D01*
X117809523Y-33004819D02*
X117809523Y-32004819D01*
X117809523Y-32957200D02*
X117714285Y-33004819D01*
X117714285Y-33004819D02*
X117523809Y-33004819D01*
X117523809Y-33004819D02*
X117428571Y-32957200D01*
X117428571Y-32957200D02*
X117380952Y-32909580D01*
X117380952Y-32909580D02*
X117333333Y-32814342D01*
X117333333Y-32814342D02*
X117333333Y-32528628D01*
X117333333Y-32528628D02*
X117380952Y-32433390D01*
X117380952Y-32433390D02*
X117428571Y-32385771D01*
X117428571Y-32385771D02*
X117523809Y-32338152D01*
X117523809Y-32338152D02*
X117714285Y-32338152D01*
X117714285Y-32338152D02*
X117809523Y-32385771D01*
X118285714Y-33004819D02*
X118285714Y-32338152D01*
X118285714Y-32004819D02*
X118238095Y-32052438D01*
X118238095Y-32052438D02*
X118285714Y-32100057D01*
X118285714Y-32100057D02*
X118333333Y-32052438D01*
X118333333Y-32052438D02*
X118285714Y-32004819D01*
X118285714Y-32004819D02*
X118285714Y-32100057D01*
X118761904Y-33004819D02*
X118761904Y-32338152D01*
X118761904Y-32528628D02*
X118809523Y-32433390D01*
X118809523Y-32433390D02*
X118857142Y-32385771D01*
X118857142Y-32385771D02*
X118952380Y-32338152D01*
X118952380Y-32338152D02*
X119047618Y-32338152D01*
X119761904Y-32957200D02*
X119666666Y-33004819D01*
X119666666Y-33004819D02*
X119476190Y-33004819D01*
X119476190Y-33004819D02*
X119380952Y-32957200D01*
X119380952Y-32957200D02*
X119333333Y-32861961D01*
X119333333Y-32861961D02*
X119333333Y-32481009D01*
X119333333Y-32481009D02*
X119380952Y-32385771D01*
X119380952Y-32385771D02*
X119476190Y-32338152D01*
X119476190Y-32338152D02*
X119666666Y-32338152D01*
X119666666Y-32338152D02*
X119761904Y-32385771D01*
X119761904Y-32385771D02*
X119809523Y-32481009D01*
X119809523Y-32481009D02*
X119809523Y-32576247D01*
X119809523Y-32576247D02*
X119333333Y-32671485D01*
X120666666Y-32957200D02*
X120571428Y-33004819D01*
X120571428Y-33004819D02*
X120380952Y-33004819D01*
X120380952Y-33004819D02*
X120285714Y-32957200D01*
X120285714Y-32957200D02*
X120238095Y-32909580D01*
X120238095Y-32909580D02*
X120190476Y-32814342D01*
X120190476Y-32814342D02*
X120190476Y-32528628D01*
X120190476Y-32528628D02*
X120238095Y-32433390D01*
X120238095Y-32433390D02*
X120285714Y-32385771D01*
X120285714Y-32385771D02*
X120380952Y-32338152D01*
X120380952Y-32338152D02*
X120571428Y-32338152D01*
X120571428Y-32338152D02*
X120666666Y-32385771D01*
X120952381Y-32338152D02*
X121333333Y-32338152D01*
X121095238Y-32004819D02*
X121095238Y-32861961D01*
X121095238Y-32861961D02*
X121142857Y-32957200D01*
X121142857Y-32957200D02*
X121238095Y-33004819D01*
X121238095Y-33004819D02*
X121333333Y-33004819D01*
X121666667Y-33004819D02*
X121666667Y-32338152D01*
X121666667Y-32004819D02*
X121619048Y-32052438D01*
X121619048Y-32052438D02*
X121666667Y-32100057D01*
X121666667Y-32100057D02*
X121714286Y-32052438D01*
X121714286Y-32052438D02*
X121666667Y-32004819D01*
X121666667Y-32004819D02*
X121666667Y-32100057D01*
X122285714Y-33004819D02*
X122190476Y-32957200D01*
X122190476Y-32957200D02*
X122142857Y-32909580D01*
X122142857Y-32909580D02*
X122095238Y-32814342D01*
X122095238Y-32814342D02*
X122095238Y-32528628D01*
X122095238Y-32528628D02*
X122142857Y-32433390D01*
X122142857Y-32433390D02*
X122190476Y-32385771D01*
X122190476Y-32385771D02*
X122285714Y-32338152D01*
X122285714Y-32338152D02*
X122428571Y-32338152D01*
X122428571Y-32338152D02*
X122523809Y-32385771D01*
X122523809Y-32385771D02*
X122571428Y-32433390D01*
X122571428Y-32433390D02*
X122619047Y-32528628D01*
X122619047Y-32528628D02*
X122619047Y-32814342D01*
X122619047Y-32814342D02*
X122571428Y-32909580D01*
X122571428Y-32909580D02*
X122523809Y-32957200D01*
X122523809Y-32957200D02*
X122428571Y-33004819D01*
X122428571Y-33004819D02*
X122285714Y-33004819D01*
X123047619Y-32338152D02*
X123047619Y-33004819D01*
X123047619Y-32433390D02*
X123095238Y-32385771D01*
X123095238Y-32385771D02*
X123190476Y-32338152D01*
X123190476Y-32338152D02*
X123333333Y-32338152D01*
X123333333Y-32338152D02*
X123428571Y-32385771D01*
X123428571Y-32385771D02*
X123476190Y-32481009D01*
X123476190Y-32481009D02*
X123476190Y-33004819D01*
X124380952Y-33004819D02*
X124380952Y-32481009D01*
X124380952Y-32481009D02*
X124333333Y-32385771D01*
X124333333Y-32385771D02*
X124238095Y-32338152D01*
X124238095Y-32338152D02*
X124047619Y-32338152D01*
X124047619Y-32338152D02*
X123952381Y-32385771D01*
X124380952Y-32957200D02*
X124285714Y-33004819D01*
X124285714Y-33004819D02*
X124047619Y-33004819D01*
X124047619Y-33004819D02*
X123952381Y-32957200D01*
X123952381Y-32957200D02*
X123904762Y-32861961D01*
X123904762Y-32861961D02*
X123904762Y-32766723D01*
X123904762Y-32766723D02*
X123952381Y-32671485D01*
X123952381Y-32671485D02*
X124047619Y-32623866D01*
X124047619Y-32623866D02*
X124285714Y-32623866D01*
X124285714Y-32623866D02*
X124380952Y-32576247D01*
X125000000Y-33004819D02*
X124904762Y-32957200D01*
X124904762Y-32957200D02*
X124857143Y-32861961D01*
X124857143Y-32861961D02*
X124857143Y-32004819D01*
D12*
X117527619Y-29662143D02*
X117527619Y-30164048D01*
X117527619Y-30164048D02*
X117557142Y-30223096D01*
X117557142Y-30223096D02*
X117586666Y-30252620D01*
X117586666Y-30252620D02*
X117645714Y-30282143D01*
X117645714Y-30282143D02*
X117763809Y-30282143D01*
X117763809Y-30282143D02*
X117822857Y-30252620D01*
X117822857Y-30252620D02*
X117852380Y-30223096D01*
X117852380Y-30223096D02*
X117881904Y-30164048D01*
X117881904Y-30164048D02*
X117881904Y-29662143D01*
X118118095Y-29662143D02*
X118501904Y-29662143D01*
X118501904Y-29662143D02*
X118295238Y-29898334D01*
X118295238Y-29898334D02*
X118383809Y-29898334D01*
X118383809Y-29898334D02*
X118442857Y-29927858D01*
X118442857Y-29927858D02*
X118472381Y-29957381D01*
X118472381Y-29957381D02*
X118501904Y-30016429D01*
X118501904Y-30016429D02*
X118501904Y-30164048D01*
X118501904Y-30164048D02*
X118472381Y-30223096D01*
X118472381Y-30223096D02*
X118442857Y-30252620D01*
X118442857Y-30252620D02*
X118383809Y-30282143D01*
X118383809Y-30282143D02*
X118206666Y-30282143D01*
X118206666Y-30282143D02*
X118147619Y-30252620D01*
X118147619Y-30252620D02*
X118118095Y-30223096D01*
D10*
X76928571Y-16854819D02*
X76357143Y-16854819D01*
X76642857Y-16854819D02*
X76642857Y-15854819D01*
X76642857Y-15854819D02*
X76547619Y-15997676D01*
X76547619Y-15997676D02*
X76452381Y-16092914D01*
X76452381Y-16092914D02*
X76357143Y-16140533D01*
X77357143Y-16759580D02*
X77404762Y-16807200D01*
X77404762Y-16807200D02*
X77357143Y-16854819D01*
X77357143Y-16854819D02*
X77309524Y-16807200D01*
X77309524Y-16807200D02*
X77357143Y-16759580D01*
X77357143Y-16759580D02*
X77357143Y-16854819D01*
X77976190Y-16283390D02*
X77880952Y-16235771D01*
X77880952Y-16235771D02*
X77833333Y-16188152D01*
X77833333Y-16188152D02*
X77785714Y-16092914D01*
X77785714Y-16092914D02*
X77785714Y-16045295D01*
X77785714Y-16045295D02*
X77833333Y-15950057D01*
X77833333Y-15950057D02*
X77880952Y-15902438D01*
X77880952Y-15902438D02*
X77976190Y-15854819D01*
X77976190Y-15854819D02*
X78166666Y-15854819D01*
X78166666Y-15854819D02*
X78261904Y-15902438D01*
X78261904Y-15902438D02*
X78309523Y-15950057D01*
X78309523Y-15950057D02*
X78357142Y-16045295D01*
X78357142Y-16045295D02*
X78357142Y-16092914D01*
X78357142Y-16092914D02*
X78309523Y-16188152D01*
X78309523Y-16188152D02*
X78261904Y-16235771D01*
X78261904Y-16235771D02*
X78166666Y-16283390D01*
X78166666Y-16283390D02*
X77976190Y-16283390D01*
X77976190Y-16283390D02*
X77880952Y-16331009D01*
X77880952Y-16331009D02*
X77833333Y-16378628D01*
X77833333Y-16378628D02*
X77785714Y-16473866D01*
X77785714Y-16473866D02*
X77785714Y-16664342D01*
X77785714Y-16664342D02*
X77833333Y-16759580D01*
X77833333Y-16759580D02*
X77880952Y-16807200D01*
X77880952Y-16807200D02*
X77976190Y-16854819D01*
X77976190Y-16854819D02*
X78166666Y-16854819D01*
X78166666Y-16854819D02*
X78261904Y-16807200D01*
X78261904Y-16807200D02*
X78309523Y-16759580D01*
X78309523Y-16759580D02*
X78357142Y-16664342D01*
X78357142Y-16664342D02*
X78357142Y-16473866D01*
X78357142Y-16473866D02*
X78309523Y-16378628D01*
X78309523Y-16378628D02*
X78261904Y-16331009D01*
X78261904Y-16331009D02*
X78166666Y-16283390D01*
X78642857Y-15854819D02*
X78976190Y-16854819D01*
X78976190Y-16854819D02*
X79309523Y-15854819D01*
X80547619Y-16854819D02*
X80452381Y-16807200D01*
X80452381Y-16807200D02*
X80404762Y-16711961D01*
X80404762Y-16711961D02*
X80404762Y-15854819D01*
X81071429Y-16854819D02*
X80976191Y-16807200D01*
X80976191Y-16807200D02*
X80928572Y-16759580D01*
X80928572Y-16759580D02*
X80880953Y-16664342D01*
X80880953Y-16664342D02*
X80880953Y-16378628D01*
X80880953Y-16378628D02*
X80928572Y-16283390D01*
X80928572Y-16283390D02*
X80976191Y-16235771D01*
X80976191Y-16235771D02*
X81071429Y-16188152D01*
X81071429Y-16188152D02*
X81214286Y-16188152D01*
X81214286Y-16188152D02*
X81309524Y-16235771D01*
X81309524Y-16235771D02*
X81357143Y-16283390D01*
X81357143Y-16283390D02*
X81404762Y-16378628D01*
X81404762Y-16378628D02*
X81404762Y-16664342D01*
X81404762Y-16664342D02*
X81357143Y-16759580D01*
X81357143Y-16759580D02*
X81309524Y-16807200D01*
X81309524Y-16807200D02*
X81214286Y-16854819D01*
X81214286Y-16854819D02*
X81071429Y-16854819D01*
X81738096Y-16188152D02*
X81928572Y-16854819D01*
X81928572Y-16854819D02*
X82119048Y-16378628D01*
X82119048Y-16378628D02*
X82309524Y-16854819D01*
X82309524Y-16854819D02*
X82500000Y-16188152D01*
X82880953Y-16473866D02*
X83642858Y-16473866D01*
X84119048Y-16188152D02*
X84119048Y-16854819D01*
X84119048Y-16283390D02*
X84166667Y-16235771D01*
X84166667Y-16235771D02*
X84261905Y-16188152D01*
X84261905Y-16188152D02*
X84404762Y-16188152D01*
X84404762Y-16188152D02*
X84500000Y-16235771D01*
X84500000Y-16235771D02*
X84547619Y-16331009D01*
X84547619Y-16331009D02*
X84547619Y-16854819D01*
X85166667Y-16854819D02*
X85071429Y-16807200D01*
X85071429Y-16807200D02*
X85023810Y-16759580D01*
X85023810Y-16759580D02*
X84976191Y-16664342D01*
X84976191Y-16664342D02*
X84976191Y-16378628D01*
X84976191Y-16378628D02*
X85023810Y-16283390D01*
X85023810Y-16283390D02*
X85071429Y-16235771D01*
X85071429Y-16235771D02*
X85166667Y-16188152D01*
X85166667Y-16188152D02*
X85309524Y-16188152D01*
X85309524Y-16188152D02*
X85404762Y-16235771D01*
X85404762Y-16235771D02*
X85452381Y-16283390D01*
X85452381Y-16283390D02*
X85500000Y-16378628D01*
X85500000Y-16378628D02*
X85500000Y-16664342D01*
X85500000Y-16664342D02*
X85452381Y-16759580D01*
X85452381Y-16759580D02*
X85404762Y-16807200D01*
X85404762Y-16807200D02*
X85309524Y-16854819D01*
X85309524Y-16854819D02*
X85166667Y-16854819D01*
X85928572Y-16854819D02*
X85928572Y-16188152D01*
X85928572Y-15854819D02*
X85880953Y-15902438D01*
X85880953Y-15902438D02*
X85928572Y-15950057D01*
X85928572Y-15950057D02*
X85976191Y-15902438D01*
X85976191Y-15902438D02*
X85928572Y-15854819D01*
X85928572Y-15854819D02*
X85928572Y-15950057D01*
X86357143Y-16807200D02*
X86452381Y-16854819D01*
X86452381Y-16854819D02*
X86642857Y-16854819D01*
X86642857Y-16854819D02*
X86738095Y-16807200D01*
X86738095Y-16807200D02*
X86785714Y-16711961D01*
X86785714Y-16711961D02*
X86785714Y-16664342D01*
X86785714Y-16664342D02*
X86738095Y-16569104D01*
X86738095Y-16569104D02*
X86642857Y-16521485D01*
X86642857Y-16521485D02*
X86500000Y-16521485D01*
X86500000Y-16521485D02*
X86404762Y-16473866D01*
X86404762Y-16473866D02*
X86357143Y-16378628D01*
X86357143Y-16378628D02*
X86357143Y-16331009D01*
X86357143Y-16331009D02*
X86404762Y-16235771D01*
X86404762Y-16235771D02*
X86500000Y-16188152D01*
X86500000Y-16188152D02*
X86642857Y-16188152D01*
X86642857Y-16188152D02*
X86738095Y-16235771D01*
X87595238Y-16807200D02*
X87500000Y-16854819D01*
X87500000Y-16854819D02*
X87309524Y-16854819D01*
X87309524Y-16854819D02*
X87214286Y-16807200D01*
X87214286Y-16807200D02*
X87166667Y-16711961D01*
X87166667Y-16711961D02*
X87166667Y-16331009D01*
X87166667Y-16331009D02*
X87214286Y-16235771D01*
X87214286Y-16235771D02*
X87309524Y-16188152D01*
X87309524Y-16188152D02*
X87500000Y-16188152D01*
X87500000Y-16188152D02*
X87595238Y-16235771D01*
X87595238Y-16235771D02*
X87642857Y-16331009D01*
X87642857Y-16331009D02*
X87642857Y-16426247D01*
X87642857Y-16426247D02*
X87166667Y-16521485D01*
D13*
X81607365Y-14548571D02*
X82190222Y-14548571D01*
X82190222Y-14548571D02*
X82258794Y-14514285D01*
X82258794Y-14514285D02*
X82293080Y-14480000D01*
X82293080Y-14480000D02*
X82327365Y-14411428D01*
X82327365Y-14411428D02*
X82327365Y-14274285D01*
X82327365Y-14274285D02*
X82293080Y-14205714D01*
X82293080Y-14205714D02*
X82258794Y-14171428D01*
X82258794Y-14171428D02*
X82190222Y-14137142D01*
X82190222Y-14137142D02*
X81607365Y-14137142D01*
X81915937Y-13691428D02*
X81881651Y-13759999D01*
X81881651Y-13759999D02*
X81847365Y-13794285D01*
X81847365Y-13794285D02*
X81778794Y-13828571D01*
X81778794Y-13828571D02*
X81744508Y-13828571D01*
X81744508Y-13828571D02*
X81675937Y-13794285D01*
X81675937Y-13794285D02*
X81641651Y-13759999D01*
X81641651Y-13759999D02*
X81607365Y-13691428D01*
X81607365Y-13691428D02*
X81607365Y-13554285D01*
X81607365Y-13554285D02*
X81641651Y-13485714D01*
X81641651Y-13485714D02*
X81675937Y-13451428D01*
X81675937Y-13451428D02*
X81744508Y-13417142D01*
X81744508Y-13417142D02*
X81778794Y-13417142D01*
X81778794Y-13417142D02*
X81847365Y-13451428D01*
X81847365Y-13451428D02*
X81881651Y-13485714D01*
X81881651Y-13485714D02*
X81915937Y-13554285D01*
X81915937Y-13554285D02*
X81915937Y-13691428D01*
X81915937Y-13691428D02*
X81950222Y-13759999D01*
X81950222Y-13759999D02*
X81984508Y-13794285D01*
X81984508Y-13794285D02*
X82053080Y-13828571D01*
X82053080Y-13828571D02*
X82190222Y-13828571D01*
X82190222Y-13828571D02*
X82258794Y-13794285D01*
X82258794Y-13794285D02*
X82293080Y-13759999D01*
X82293080Y-13759999D02*
X82327365Y-13691428D01*
X82327365Y-13691428D02*
X82327365Y-13554285D01*
X82327365Y-13554285D02*
X82293080Y-13485714D01*
X82293080Y-13485714D02*
X82258794Y-13451428D01*
X82258794Y-13451428D02*
X82190222Y-13417142D01*
X82190222Y-13417142D02*
X82053080Y-13417142D01*
X82053080Y-13417142D02*
X81984508Y-13451428D01*
X81984508Y-13451428D02*
X81950222Y-13485714D01*
X81950222Y-13485714D02*
X81915937Y-13554285D01*
D14*
X130796903Y-22579271D02*
X130796903Y-21309271D01*
X130796903Y-21309271D02*
X131099284Y-21309271D01*
X131099284Y-21309271D02*
X131280713Y-21369747D01*
X131280713Y-21369747D02*
X131401665Y-21490699D01*
X131401665Y-21490699D02*
X131462142Y-21611652D01*
X131462142Y-21611652D02*
X131522618Y-21853556D01*
X131522618Y-21853556D02*
X131522618Y-22034985D01*
X131522618Y-22034985D02*
X131462142Y-22276890D01*
X131462142Y-22276890D02*
X131401665Y-22397842D01*
X131401665Y-22397842D02*
X131280713Y-22518795D01*
X131280713Y-22518795D02*
X131099284Y-22579271D01*
X131099284Y-22579271D02*
X130796903Y-22579271D01*
X131945951Y-21309271D02*
X132248332Y-22579271D01*
X132248332Y-22579271D02*
X132490237Y-21672128D01*
X132490237Y-21672128D02*
X132732142Y-22579271D01*
X132732142Y-22579271D02*
X133034523Y-21309271D01*
X133518332Y-22579271D02*
X133518332Y-21309271D01*
X133518332Y-21309271D02*
X133941666Y-22216414D01*
X133941666Y-22216414D02*
X134364999Y-21309271D01*
X134364999Y-21309271D02*
X134364999Y-22579271D01*
X134848809Y-21309271D02*
X135635000Y-21309271D01*
X135635000Y-21309271D02*
X135211666Y-21793080D01*
X135211666Y-21793080D02*
X135393095Y-21793080D01*
X135393095Y-21793080D02*
X135514047Y-21853556D01*
X135514047Y-21853556D02*
X135574523Y-21914033D01*
X135574523Y-21914033D02*
X135635000Y-22034985D01*
X135635000Y-22034985D02*
X135635000Y-22337366D01*
X135635000Y-22337366D02*
X135574523Y-22458318D01*
X135574523Y-22458318D02*
X135514047Y-22518795D01*
X135514047Y-22518795D02*
X135393095Y-22579271D01*
X135393095Y-22579271D02*
X135030238Y-22579271D01*
X135030238Y-22579271D02*
X134909285Y-22518795D01*
X134909285Y-22518795D02*
X134848809Y-22458318D01*
X136421190Y-21309271D02*
X136542143Y-21309271D01*
X136542143Y-21309271D02*
X136663095Y-21369747D01*
X136663095Y-21369747D02*
X136723571Y-21430223D01*
X136723571Y-21430223D02*
X136784047Y-21551175D01*
X136784047Y-21551175D02*
X136844524Y-21793080D01*
X136844524Y-21793080D02*
X136844524Y-22095461D01*
X136844524Y-22095461D02*
X136784047Y-22337366D01*
X136784047Y-22337366D02*
X136723571Y-22458318D01*
X136723571Y-22458318D02*
X136663095Y-22518795D01*
X136663095Y-22518795D02*
X136542143Y-22579271D01*
X136542143Y-22579271D02*
X136421190Y-22579271D01*
X136421190Y-22579271D02*
X136300238Y-22518795D01*
X136300238Y-22518795D02*
X136239762Y-22458318D01*
X136239762Y-22458318D02*
X136179285Y-22337366D01*
X136179285Y-22337366D02*
X136118809Y-22095461D01*
X136118809Y-22095461D02*
X136118809Y-21793080D01*
X136118809Y-21793080D02*
X136179285Y-21551175D01*
X136179285Y-21551175D02*
X136239762Y-21430223D01*
X136239762Y-21430223D02*
X136300238Y-21369747D01*
X136300238Y-21369747D02*
X136421190Y-21309271D01*
X137630714Y-21309271D02*
X137751667Y-21309271D01*
X137751667Y-21309271D02*
X137872619Y-21369747D01*
X137872619Y-21369747D02*
X137933095Y-21430223D01*
X137933095Y-21430223D02*
X137993571Y-21551175D01*
X137993571Y-21551175D02*
X138054048Y-21793080D01*
X138054048Y-21793080D02*
X138054048Y-22095461D01*
X138054048Y-22095461D02*
X137993571Y-22337366D01*
X137993571Y-22337366D02*
X137933095Y-22458318D01*
X137933095Y-22458318D02*
X137872619Y-22518795D01*
X137872619Y-22518795D02*
X137751667Y-22579271D01*
X137751667Y-22579271D02*
X137630714Y-22579271D01*
X137630714Y-22579271D02*
X137509762Y-22518795D01*
X137509762Y-22518795D02*
X137449286Y-22458318D01*
X137449286Y-22458318D02*
X137388809Y-22337366D01*
X137388809Y-22337366D02*
X137328333Y-22095461D01*
X137328333Y-22095461D02*
X137328333Y-21793080D01*
X137328333Y-21793080D02*
X137388809Y-21551175D01*
X137388809Y-21551175D02*
X137449286Y-21430223D01*
X137449286Y-21430223D02*
X137509762Y-21369747D01*
X137509762Y-21369747D02*
X137630714Y-21309271D01*
X138840238Y-21309271D02*
X138961191Y-21309271D01*
X138961191Y-21309271D02*
X139082143Y-21369747D01*
X139082143Y-21369747D02*
X139142619Y-21430223D01*
X139142619Y-21430223D02*
X139203095Y-21551175D01*
X139203095Y-21551175D02*
X139263572Y-21793080D01*
X139263572Y-21793080D02*
X139263572Y-22095461D01*
X139263572Y-22095461D02*
X139203095Y-22337366D01*
X139203095Y-22337366D02*
X139142619Y-22458318D01*
X139142619Y-22458318D02*
X139082143Y-22518795D01*
X139082143Y-22518795D02*
X138961191Y-22579271D01*
X138961191Y-22579271D02*
X138840238Y-22579271D01*
X138840238Y-22579271D02*
X138719286Y-22518795D01*
X138719286Y-22518795D02*
X138658810Y-22458318D01*
X138658810Y-22458318D02*
X138598333Y-22337366D01*
X138598333Y-22337366D02*
X138537857Y-22095461D01*
X138537857Y-22095461D02*
X138537857Y-21793080D01*
X138537857Y-21793080D02*
X138598333Y-21551175D01*
X138598333Y-21551175D02*
X138658810Y-21430223D01*
X138658810Y-21430223D02*
X138719286Y-21369747D01*
X138719286Y-21369747D02*
X138840238Y-21309271D01*
D10*
X61380952Y-81374819D02*
X61380952Y-80374819D01*
X61380952Y-80851009D02*
X61952380Y-80851009D01*
X61952380Y-81374819D02*
X61952380Y-80374819D01*
X62857142Y-81374819D02*
X62857142Y-80851009D01*
X62857142Y-80851009D02*
X62809523Y-80755771D01*
X62809523Y-80755771D02*
X62714285Y-80708152D01*
X62714285Y-80708152D02*
X62523809Y-80708152D01*
X62523809Y-80708152D02*
X62428571Y-80755771D01*
X62857142Y-81327200D02*
X62761904Y-81374819D01*
X62761904Y-81374819D02*
X62523809Y-81374819D01*
X62523809Y-81374819D02*
X62428571Y-81327200D01*
X62428571Y-81327200D02*
X62380952Y-81231961D01*
X62380952Y-81231961D02*
X62380952Y-81136723D01*
X62380952Y-81136723D02*
X62428571Y-81041485D01*
X62428571Y-81041485D02*
X62523809Y-80993866D01*
X62523809Y-80993866D02*
X62761904Y-80993866D01*
X62761904Y-80993866D02*
X62857142Y-80946247D01*
X63333333Y-81374819D02*
X63333333Y-80708152D01*
X63333333Y-80898628D02*
X63380952Y-80803390D01*
X63380952Y-80803390D02*
X63428571Y-80755771D01*
X63428571Y-80755771D02*
X63523809Y-80708152D01*
X63523809Y-80708152D02*
X63619047Y-80708152D01*
X63952381Y-81374819D02*
X63952381Y-80708152D01*
X63952381Y-80374819D02*
X63904762Y-80422438D01*
X63904762Y-80422438D02*
X63952381Y-80470057D01*
X63952381Y-80470057D02*
X64000000Y-80422438D01*
X64000000Y-80422438D02*
X63952381Y-80374819D01*
X63952381Y-80374819D02*
X63952381Y-80470057D01*
X64857142Y-81327200D02*
X64761904Y-81374819D01*
X64761904Y-81374819D02*
X64571428Y-81374819D01*
X64571428Y-81374819D02*
X64476190Y-81327200D01*
X64476190Y-81327200D02*
X64428571Y-81279580D01*
X64428571Y-81279580D02*
X64380952Y-81184342D01*
X64380952Y-81184342D02*
X64380952Y-80898628D01*
X64380952Y-80898628D02*
X64428571Y-80803390D01*
X64428571Y-80803390D02*
X64476190Y-80755771D01*
X64476190Y-80755771D02*
X64571428Y-80708152D01*
X64571428Y-80708152D02*
X64761904Y-80708152D01*
X64761904Y-80708152D02*
X64857142Y-80755771D01*
X65285714Y-81374819D02*
X65285714Y-80708152D01*
X65285714Y-80374819D02*
X65238095Y-80422438D01*
X65238095Y-80422438D02*
X65285714Y-80470057D01*
X65285714Y-80470057D02*
X65333333Y-80422438D01*
X65333333Y-80422438D02*
X65285714Y-80374819D01*
X65285714Y-80374819D02*
X65285714Y-80470057D01*
X66523809Y-81374819D02*
X66523809Y-80374819D01*
X67095237Y-81374819D02*
X66666666Y-80803390D01*
X67095237Y-80374819D02*
X66523809Y-80946247D01*
X67666666Y-81374819D02*
X67571428Y-81327200D01*
X67571428Y-81327200D02*
X67523809Y-81279580D01*
X67523809Y-81279580D02*
X67476190Y-81184342D01*
X67476190Y-81184342D02*
X67476190Y-80898628D01*
X67476190Y-80898628D02*
X67523809Y-80803390D01*
X67523809Y-80803390D02*
X67571428Y-80755771D01*
X67571428Y-80755771D02*
X67666666Y-80708152D01*
X67666666Y-80708152D02*
X67809523Y-80708152D01*
X67809523Y-80708152D02*
X67904761Y-80755771D01*
X67904761Y-80755771D02*
X67952380Y-80803390D01*
X67952380Y-80803390D02*
X67999999Y-80898628D01*
X67999999Y-80898628D02*
X67999999Y-81184342D01*
X67999999Y-81184342D02*
X67952380Y-81279580D01*
X67952380Y-81279580D02*
X67904761Y-81327200D01*
X67904761Y-81327200D02*
X67809523Y-81374819D01*
X67809523Y-81374819D02*
X67666666Y-81374819D01*
X68428571Y-80708152D02*
X68428571Y-81374819D01*
X68428571Y-80803390D02*
X68476190Y-80755771D01*
X68476190Y-80755771D02*
X68571428Y-80708152D01*
X68571428Y-80708152D02*
X68714285Y-80708152D01*
X68714285Y-80708152D02*
X68809523Y-80755771D01*
X68809523Y-80755771D02*
X68857142Y-80851009D01*
X68857142Y-80851009D02*
X68857142Y-81374819D01*
X69714285Y-81327200D02*
X69619047Y-81374819D01*
X69619047Y-81374819D02*
X69428571Y-81374819D01*
X69428571Y-81374819D02*
X69333333Y-81327200D01*
X69333333Y-81327200D02*
X69285714Y-81231961D01*
X69285714Y-81231961D02*
X69285714Y-80851009D01*
X69285714Y-80851009D02*
X69333333Y-80755771D01*
X69333333Y-80755771D02*
X69428571Y-80708152D01*
X69428571Y-80708152D02*
X69619047Y-80708152D01*
X69619047Y-80708152D02*
X69714285Y-80755771D01*
X69714285Y-80755771D02*
X69761904Y-80851009D01*
X69761904Y-80851009D02*
X69761904Y-80946247D01*
X69761904Y-80946247D02*
X69285714Y-81041485D01*
X70190476Y-81374819D02*
X70190476Y-80374819D01*
X70285714Y-80993866D02*
X70571428Y-81374819D01*
X70571428Y-80708152D02*
X70190476Y-81089104D01*
X70857143Y-80708152D02*
X71238095Y-80708152D01*
X71000000Y-80374819D02*
X71000000Y-81231961D01*
X71000000Y-81231961D02*
X71047619Y-81327200D01*
X71047619Y-81327200D02*
X71142857Y-81374819D01*
X71142857Y-81374819D02*
X71238095Y-81374819D01*
X71714286Y-81374819D02*
X71619048Y-81327200D01*
X71619048Y-81327200D02*
X71571429Y-81279580D01*
X71571429Y-81279580D02*
X71523810Y-81184342D01*
X71523810Y-81184342D02*
X71523810Y-80898628D01*
X71523810Y-80898628D02*
X71571429Y-80803390D01*
X71571429Y-80803390D02*
X71619048Y-80755771D01*
X71619048Y-80755771D02*
X71714286Y-80708152D01*
X71714286Y-80708152D02*
X71857143Y-80708152D01*
X71857143Y-80708152D02*
X71952381Y-80755771D01*
X71952381Y-80755771D02*
X72000000Y-80803390D01*
X72000000Y-80803390D02*
X72047619Y-80898628D01*
X72047619Y-80898628D02*
X72047619Y-81184342D01*
X72047619Y-81184342D02*
X72000000Y-81279580D01*
X72000000Y-81279580D02*
X71952381Y-81327200D01*
X71952381Y-81327200D02*
X71857143Y-81374819D01*
X71857143Y-81374819D02*
X71714286Y-81374819D01*
X71619048Y-80374819D02*
X71666667Y-80422438D01*
X71666667Y-80422438D02*
X71619048Y-80470057D01*
X71619048Y-80470057D02*
X71571429Y-80422438D01*
X71571429Y-80422438D02*
X71619048Y-80374819D01*
X71619048Y-80374819D02*
X71619048Y-80470057D01*
X72000000Y-80374819D02*
X72047619Y-80422438D01*
X72047619Y-80422438D02*
X72000000Y-80470057D01*
X72000000Y-80470057D02*
X71952381Y-80422438D01*
X71952381Y-80422438D02*
X72000000Y-80374819D01*
X72000000Y-80374819D02*
X72000000Y-80470057D01*
X72476191Y-81374819D02*
X72476191Y-80708152D01*
X72476191Y-80898628D02*
X72523810Y-80803390D01*
X72523810Y-80803390D02*
X72571429Y-80755771D01*
X72571429Y-80755771D02*
X72666667Y-80708152D01*
X72666667Y-80708152D02*
X72761905Y-80708152D01*
X67454819Y-78008094D02*
X66454819Y-78008094D01*
X67454819Y-77436666D02*
X66883390Y-77865237D01*
X66454819Y-77436666D02*
X67026247Y-78008094D01*
X66550057Y-77055713D02*
X66502438Y-77008094D01*
X66502438Y-77008094D02*
X66454819Y-76912856D01*
X66454819Y-76912856D02*
X66454819Y-76674761D01*
X66454819Y-76674761D02*
X66502438Y-76579523D01*
X66502438Y-76579523D02*
X66550057Y-76531904D01*
X66550057Y-76531904D02*
X66645295Y-76484285D01*
X66645295Y-76484285D02*
X66740533Y-76484285D01*
X66740533Y-76484285D02*
X66883390Y-76531904D01*
X66883390Y-76531904D02*
X67454819Y-77103332D01*
X67454819Y-77103332D02*
X67454819Y-76484285D01*
X20190476Y-13284819D02*
X19714286Y-13284819D01*
X19714286Y-13284819D02*
X19666667Y-13761009D01*
X19666667Y-13761009D02*
X19714286Y-13713390D01*
X19714286Y-13713390D02*
X19809524Y-13665771D01*
X19809524Y-13665771D02*
X20047619Y-13665771D01*
X20047619Y-13665771D02*
X20142857Y-13713390D01*
X20142857Y-13713390D02*
X20190476Y-13761009D01*
X20190476Y-13761009D02*
X20238095Y-13856247D01*
X20238095Y-13856247D02*
X20238095Y-14094342D01*
X20238095Y-14094342D02*
X20190476Y-14189580D01*
X20190476Y-14189580D02*
X20142857Y-14237200D01*
X20142857Y-14237200D02*
X20047619Y-14284819D01*
X20047619Y-14284819D02*
X19809524Y-14284819D01*
X19809524Y-14284819D02*
X19714286Y-14237200D01*
X19714286Y-14237200D02*
X19666667Y-14189580D01*
X20857143Y-13284819D02*
X20952381Y-13284819D01*
X20952381Y-13284819D02*
X21047619Y-13332438D01*
X21047619Y-13332438D02*
X21095238Y-13380057D01*
X21095238Y-13380057D02*
X21142857Y-13475295D01*
X21142857Y-13475295D02*
X21190476Y-13665771D01*
X21190476Y-13665771D02*
X21190476Y-13903866D01*
X21190476Y-13903866D02*
X21142857Y-14094342D01*
X21142857Y-14094342D02*
X21095238Y-14189580D01*
X21095238Y-14189580D02*
X21047619Y-14237200D01*
X21047619Y-14237200D02*
X20952381Y-14284819D01*
X20952381Y-14284819D02*
X20857143Y-14284819D01*
X20857143Y-14284819D02*
X20761905Y-14237200D01*
X20761905Y-14237200D02*
X20714286Y-14189580D01*
X20714286Y-14189580D02*
X20666667Y-14094342D01*
X20666667Y-14094342D02*
X20619048Y-13903866D01*
X20619048Y-13903866D02*
X20619048Y-13665771D01*
X20619048Y-13665771D02*
X20666667Y-13475295D01*
X20666667Y-13475295D02*
X20714286Y-13380057D01*
X20714286Y-13380057D02*
X20761905Y-13332438D01*
X20761905Y-13332438D02*
X20857143Y-13284819D01*
X21809524Y-13284819D02*
X21904762Y-13284819D01*
X21904762Y-13284819D02*
X22000000Y-13332438D01*
X22000000Y-13332438D02*
X22047619Y-13380057D01*
X22047619Y-13380057D02*
X22095238Y-13475295D01*
X22095238Y-13475295D02*
X22142857Y-13665771D01*
X22142857Y-13665771D02*
X22142857Y-13903866D01*
X22142857Y-13903866D02*
X22095238Y-14094342D01*
X22095238Y-14094342D02*
X22047619Y-14189580D01*
X22047619Y-14189580D02*
X22000000Y-14237200D01*
X22000000Y-14237200D02*
X21904762Y-14284819D01*
X21904762Y-14284819D02*
X21809524Y-14284819D01*
X21809524Y-14284819D02*
X21714286Y-14237200D01*
X21714286Y-14237200D02*
X21666667Y-14189580D01*
X21666667Y-14189580D02*
X21619048Y-14094342D01*
X21619048Y-14094342D02*
X21571429Y-13903866D01*
X21571429Y-13903866D02*
X21571429Y-13665771D01*
X21571429Y-13665771D02*
X21619048Y-13475295D01*
X21619048Y-13475295D02*
X21666667Y-13380057D01*
X21666667Y-13380057D02*
X21714286Y-13332438D01*
X21714286Y-13332438D02*
X21809524Y-13284819D01*
X22571429Y-14284819D02*
X22571429Y-13618152D01*
X22571429Y-13713390D02*
X22619048Y-13665771D01*
X22619048Y-13665771D02*
X22714286Y-13618152D01*
X22714286Y-13618152D02*
X22857143Y-13618152D01*
X22857143Y-13618152D02*
X22952381Y-13665771D01*
X22952381Y-13665771D02*
X23000000Y-13761009D01*
X23000000Y-13761009D02*
X23000000Y-14284819D01*
X23000000Y-13761009D02*
X23047619Y-13665771D01*
X23047619Y-13665771D02*
X23142857Y-13618152D01*
X23142857Y-13618152D02*
X23285714Y-13618152D01*
X23285714Y-13618152D02*
X23380953Y-13665771D01*
X23380953Y-13665771D02*
X23428572Y-13761009D01*
X23428572Y-13761009D02*
X23428572Y-14284819D01*
X23857143Y-13999104D02*
X24333333Y-13999104D01*
X23761905Y-14284819D02*
X24095238Y-13284819D01*
X24095238Y-13284819D02*
X24428571Y-14284819D01*
D15*
X21733333Y-11944807D02*
X21466667Y-11944807D01*
X21466667Y-12363855D02*
X21466667Y-11563855D01*
X21466667Y-11563855D02*
X21847619Y-11563855D01*
X22571428Y-12363855D02*
X22114285Y-12363855D01*
X22342857Y-12363855D02*
X22342857Y-11563855D01*
X22342857Y-11563855D02*
X22266666Y-11678140D01*
X22266666Y-11678140D02*
X22190476Y-11754331D01*
X22190476Y-11754331D02*
X22114285Y-11792426D01*
D10*
X31595237Y-78454819D02*
X31119047Y-78454819D01*
X31119047Y-78454819D02*
X31071428Y-78931009D01*
X31071428Y-78931009D02*
X31119047Y-78883390D01*
X31119047Y-78883390D02*
X31214285Y-78835771D01*
X31214285Y-78835771D02*
X31452380Y-78835771D01*
X31452380Y-78835771D02*
X31547618Y-78883390D01*
X31547618Y-78883390D02*
X31595237Y-78931009D01*
X31595237Y-78931009D02*
X31642856Y-79026247D01*
X31642856Y-79026247D02*
X31642856Y-79264342D01*
X31642856Y-79264342D02*
X31595237Y-79359580D01*
X31595237Y-79359580D02*
X31547618Y-79407200D01*
X31547618Y-79407200D02*
X31452380Y-79454819D01*
X31452380Y-79454819D02*
X31214285Y-79454819D01*
X31214285Y-79454819D02*
X31119047Y-79407200D01*
X31119047Y-79407200D02*
X31071428Y-79359580D01*
X31928571Y-78454819D02*
X32261904Y-79454819D01*
X32261904Y-79454819D02*
X32595237Y-78454819D01*
X33690476Y-79454819D02*
X33690476Y-78788152D01*
X33690476Y-78978628D02*
X33738095Y-78883390D01*
X33738095Y-78883390D02*
X33785714Y-78835771D01*
X33785714Y-78835771D02*
X33880952Y-78788152D01*
X33880952Y-78788152D02*
X33976190Y-78788152D01*
X34690476Y-79407200D02*
X34595238Y-79454819D01*
X34595238Y-79454819D02*
X34404762Y-79454819D01*
X34404762Y-79454819D02*
X34309524Y-79407200D01*
X34309524Y-79407200D02*
X34261905Y-79311961D01*
X34261905Y-79311961D02*
X34261905Y-78931009D01*
X34261905Y-78931009D02*
X34309524Y-78835771D01*
X34309524Y-78835771D02*
X34404762Y-78788152D01*
X34404762Y-78788152D02*
X34595238Y-78788152D01*
X34595238Y-78788152D02*
X34690476Y-78835771D01*
X34690476Y-78835771D02*
X34738095Y-78931009D01*
X34738095Y-78931009D02*
X34738095Y-79026247D01*
X34738095Y-79026247D02*
X34261905Y-79121485D01*
X35309524Y-79454819D02*
X35214286Y-79407200D01*
X35214286Y-79407200D02*
X35166667Y-79311961D01*
X35166667Y-79311961D02*
X35166667Y-78454819D01*
X36119048Y-79454819D02*
X36119048Y-78931009D01*
X36119048Y-78931009D02*
X36071429Y-78835771D01*
X36071429Y-78835771D02*
X35976191Y-78788152D01*
X35976191Y-78788152D02*
X35785715Y-78788152D01*
X35785715Y-78788152D02*
X35690477Y-78835771D01*
X36119048Y-79407200D02*
X36023810Y-79454819D01*
X36023810Y-79454819D02*
X35785715Y-79454819D01*
X35785715Y-79454819D02*
X35690477Y-79407200D01*
X35690477Y-79407200D02*
X35642858Y-79311961D01*
X35642858Y-79311961D02*
X35642858Y-79216723D01*
X35642858Y-79216723D02*
X35690477Y-79121485D01*
X35690477Y-79121485D02*
X35785715Y-79073866D01*
X35785715Y-79073866D02*
X36023810Y-79073866D01*
X36023810Y-79073866D02*
X36119048Y-79026247D01*
X36500001Y-78788152D02*
X36738096Y-79454819D01*
X36976191Y-78788152D02*
X36738096Y-79454819D01*
X36738096Y-79454819D02*
X36642858Y-79692914D01*
X36642858Y-79692914D02*
X36595239Y-79740533D01*
X36595239Y-79740533D02*
X36500001Y-79788152D01*
X33151905Y-72644819D02*
X33151905Y-71644819D01*
X33723333Y-72644819D02*
X33294762Y-72073390D01*
X33723333Y-71644819D02*
X33151905Y-72216247D01*
X34675714Y-72644819D02*
X34104286Y-72644819D01*
X34390000Y-72644819D02*
X34390000Y-71644819D01*
X34390000Y-71644819D02*
X34294762Y-71787676D01*
X34294762Y-71787676D02*
X34199524Y-71882914D01*
X34199524Y-71882914D02*
X34104286Y-71930533D01*
X144166665Y-21407200D02*
X144309522Y-21454819D01*
X144309522Y-21454819D02*
X144547617Y-21454819D01*
X144547617Y-21454819D02*
X144642855Y-21407200D01*
X144642855Y-21407200D02*
X144690474Y-21359580D01*
X144690474Y-21359580D02*
X144738093Y-21264342D01*
X144738093Y-21264342D02*
X144738093Y-21169104D01*
X144738093Y-21169104D02*
X144690474Y-21073866D01*
X144690474Y-21073866D02*
X144642855Y-21026247D01*
X144642855Y-21026247D02*
X144547617Y-20978628D01*
X144547617Y-20978628D02*
X144357141Y-20931009D01*
X144357141Y-20931009D02*
X144261903Y-20883390D01*
X144261903Y-20883390D02*
X144214284Y-20835771D01*
X144214284Y-20835771D02*
X144166665Y-20740533D01*
X144166665Y-20740533D02*
X144166665Y-20645295D01*
X144166665Y-20645295D02*
X144214284Y-20550057D01*
X144214284Y-20550057D02*
X144261903Y-20502438D01*
X144261903Y-20502438D02*
X144357141Y-20454819D01*
X144357141Y-20454819D02*
X144595236Y-20454819D01*
X144595236Y-20454819D02*
X144738093Y-20502438D01*
X145166665Y-21454819D02*
X145166665Y-20454819D01*
X145166665Y-20454819D02*
X145499998Y-21169104D01*
X145499998Y-21169104D02*
X145833331Y-20454819D01*
X145833331Y-20454819D02*
X145833331Y-21454819D01*
X146261903Y-21169104D02*
X146738093Y-21169104D01*
X146166665Y-21454819D02*
X146499998Y-20454819D01*
X146499998Y-20454819D02*
X146833331Y-21454819D01*
X147880951Y-21169104D02*
X148357141Y-21169104D01*
X147785713Y-21454819D02*
X148119046Y-20454819D01*
X148119046Y-20454819D02*
X148452379Y-21454819D01*
X148785713Y-20788152D02*
X148785713Y-21454819D01*
X148785713Y-20883390D02*
X148833332Y-20835771D01*
X148833332Y-20835771D02*
X148928570Y-20788152D01*
X148928570Y-20788152D02*
X149071427Y-20788152D01*
X149071427Y-20788152D02*
X149166665Y-20835771D01*
X149166665Y-20835771D02*
X149214284Y-20931009D01*
X149214284Y-20931009D02*
X149214284Y-21454819D01*
X149547618Y-20788152D02*
X149928570Y-20788152D01*
X149690475Y-20454819D02*
X149690475Y-21311961D01*
X149690475Y-21311961D02*
X149738094Y-21407200D01*
X149738094Y-21407200D02*
X149833332Y-21454819D01*
X149833332Y-21454819D02*
X149928570Y-21454819D01*
X150642856Y-21407200D02*
X150547618Y-21454819D01*
X150547618Y-21454819D02*
X150357142Y-21454819D01*
X150357142Y-21454819D02*
X150261904Y-21407200D01*
X150261904Y-21407200D02*
X150214285Y-21311961D01*
X150214285Y-21311961D02*
X150214285Y-20931009D01*
X150214285Y-20931009D02*
X150261904Y-20835771D01*
X150261904Y-20835771D02*
X150357142Y-20788152D01*
X150357142Y-20788152D02*
X150547618Y-20788152D01*
X150547618Y-20788152D02*
X150642856Y-20835771D01*
X150642856Y-20835771D02*
X150690475Y-20931009D01*
X150690475Y-20931009D02*
X150690475Y-21026247D01*
X150690475Y-21026247D02*
X150214285Y-21121485D01*
X151119047Y-20788152D02*
X151119047Y-21454819D01*
X151119047Y-20883390D02*
X151166666Y-20835771D01*
X151166666Y-20835771D02*
X151261904Y-20788152D01*
X151261904Y-20788152D02*
X151404761Y-20788152D01*
X151404761Y-20788152D02*
X151499999Y-20835771D01*
X151499999Y-20835771D02*
X151547618Y-20931009D01*
X151547618Y-20931009D02*
X151547618Y-21454819D01*
X152785714Y-21454819D02*
X152785714Y-20454819D01*
X153357142Y-21454819D02*
X152928571Y-20883390D01*
X153357142Y-20454819D02*
X152785714Y-21026247D01*
X153928571Y-21454819D02*
X153833333Y-21407200D01*
X153833333Y-21407200D02*
X153785714Y-21359580D01*
X153785714Y-21359580D02*
X153738095Y-21264342D01*
X153738095Y-21264342D02*
X153738095Y-20978628D01*
X153738095Y-20978628D02*
X153785714Y-20883390D01*
X153785714Y-20883390D02*
X153833333Y-20835771D01*
X153833333Y-20835771D02*
X153928571Y-20788152D01*
X153928571Y-20788152D02*
X154071428Y-20788152D01*
X154071428Y-20788152D02*
X154166666Y-20835771D01*
X154166666Y-20835771D02*
X154214285Y-20883390D01*
X154214285Y-20883390D02*
X154261904Y-20978628D01*
X154261904Y-20978628D02*
X154261904Y-21264342D01*
X154261904Y-21264342D02*
X154214285Y-21359580D01*
X154214285Y-21359580D02*
X154166666Y-21407200D01*
X154166666Y-21407200D02*
X154071428Y-21454819D01*
X154071428Y-21454819D02*
X153928571Y-21454819D01*
X154690476Y-20788152D02*
X154690476Y-21454819D01*
X154690476Y-20883390D02*
X154738095Y-20835771D01*
X154738095Y-20835771D02*
X154833333Y-20788152D01*
X154833333Y-20788152D02*
X154976190Y-20788152D01*
X154976190Y-20788152D02*
X155071428Y-20835771D01*
X155071428Y-20835771D02*
X155119047Y-20931009D01*
X155119047Y-20931009D02*
X155119047Y-21454819D01*
X155976190Y-21407200D02*
X155880952Y-21454819D01*
X155880952Y-21454819D02*
X155690476Y-21454819D01*
X155690476Y-21454819D02*
X155595238Y-21407200D01*
X155595238Y-21407200D02*
X155547619Y-21311961D01*
X155547619Y-21311961D02*
X155547619Y-20931009D01*
X155547619Y-20931009D02*
X155595238Y-20835771D01*
X155595238Y-20835771D02*
X155690476Y-20788152D01*
X155690476Y-20788152D02*
X155880952Y-20788152D01*
X155880952Y-20788152D02*
X155976190Y-20835771D01*
X155976190Y-20835771D02*
X156023809Y-20931009D01*
X156023809Y-20931009D02*
X156023809Y-21026247D01*
X156023809Y-21026247D02*
X155547619Y-21121485D01*
X156452381Y-21454819D02*
X156452381Y-20454819D01*
X156547619Y-21073866D02*
X156833333Y-21454819D01*
X156833333Y-20788152D02*
X156452381Y-21169104D01*
X157119048Y-20788152D02*
X157500000Y-20788152D01*
X157261905Y-20454819D02*
X157261905Y-21311961D01*
X157261905Y-21311961D02*
X157309524Y-21407200D01*
X157309524Y-21407200D02*
X157404762Y-21454819D01*
X157404762Y-21454819D02*
X157500000Y-21454819D01*
X157976191Y-21454819D02*
X157880953Y-21407200D01*
X157880953Y-21407200D02*
X157833334Y-21359580D01*
X157833334Y-21359580D02*
X157785715Y-21264342D01*
X157785715Y-21264342D02*
X157785715Y-20978628D01*
X157785715Y-20978628D02*
X157833334Y-20883390D01*
X157833334Y-20883390D02*
X157880953Y-20835771D01*
X157880953Y-20835771D02*
X157976191Y-20788152D01*
X157976191Y-20788152D02*
X158119048Y-20788152D01*
X158119048Y-20788152D02*
X158214286Y-20835771D01*
X158214286Y-20835771D02*
X158261905Y-20883390D01*
X158261905Y-20883390D02*
X158309524Y-20978628D01*
X158309524Y-20978628D02*
X158309524Y-21264342D01*
X158309524Y-21264342D02*
X158261905Y-21359580D01*
X158261905Y-21359580D02*
X158214286Y-21407200D01*
X158214286Y-21407200D02*
X158119048Y-21454819D01*
X158119048Y-21454819D02*
X157976191Y-21454819D01*
X157880953Y-20454819D02*
X157928572Y-20502438D01*
X157928572Y-20502438D02*
X157880953Y-20550057D01*
X157880953Y-20550057D02*
X157833334Y-20502438D01*
X157833334Y-20502438D02*
X157880953Y-20454819D01*
X157880953Y-20454819D02*
X157880953Y-20550057D01*
X158261905Y-20454819D02*
X158309524Y-20502438D01*
X158309524Y-20502438D02*
X158261905Y-20550057D01*
X158261905Y-20550057D02*
X158214286Y-20502438D01*
X158214286Y-20502438D02*
X158261905Y-20454819D01*
X158261905Y-20454819D02*
X158261905Y-20550057D01*
X158738096Y-21454819D02*
X158738096Y-20788152D01*
X158738096Y-20978628D02*
X158785715Y-20883390D01*
X158785715Y-20883390D02*
X158833334Y-20835771D01*
X158833334Y-20835771D02*
X158928572Y-20788152D01*
X158928572Y-20788152D02*
X159023810Y-20788152D01*
X159785715Y-20788152D02*
X159785715Y-21454819D01*
X159357144Y-20788152D02*
X159357144Y-21311961D01*
X159357144Y-21311961D02*
X159404763Y-21407200D01*
X159404763Y-21407200D02*
X159500001Y-21454819D01*
X159500001Y-21454819D02*
X159642858Y-21454819D01*
X159642858Y-21454819D02*
X159738096Y-21407200D01*
X159738096Y-21407200D02*
X159785715Y-21359580D01*
X159404763Y-20454819D02*
X159452382Y-20502438D01*
X159452382Y-20502438D02*
X159404763Y-20550057D01*
X159404763Y-20550057D02*
X159357144Y-20502438D01*
X159357144Y-20502438D02*
X159404763Y-20454819D01*
X159404763Y-20454819D02*
X159404763Y-20550057D01*
X159785715Y-20454819D02*
X159833334Y-20502438D01*
X159833334Y-20502438D02*
X159785715Y-20550057D01*
X159785715Y-20550057D02*
X159738096Y-20502438D01*
X159738096Y-20502438D02*
X159785715Y-20454819D01*
X159785715Y-20454819D02*
X159785715Y-20550057D01*
X151666666Y-15454819D02*
X151666666Y-16169104D01*
X151666666Y-16169104D02*
X151619047Y-16311961D01*
X151619047Y-16311961D02*
X151523809Y-16407200D01*
X151523809Y-16407200D02*
X151380952Y-16454819D01*
X151380952Y-16454819D02*
X151285714Y-16454819D01*
X152095238Y-15550057D02*
X152142857Y-15502438D01*
X152142857Y-15502438D02*
X152238095Y-15454819D01*
X152238095Y-15454819D02*
X152476190Y-15454819D01*
X152476190Y-15454819D02*
X152571428Y-15502438D01*
X152571428Y-15502438D02*
X152619047Y-15550057D01*
X152619047Y-15550057D02*
X152666666Y-15645295D01*
X152666666Y-15645295D02*
X152666666Y-15740533D01*
X152666666Y-15740533D02*
X152619047Y-15883390D01*
X152619047Y-15883390D02*
X152047619Y-16454819D01*
X152047619Y-16454819D02*
X152666666Y-16454819D01*
X109333332Y-42207200D02*
X109428570Y-42254819D01*
X109428570Y-42254819D02*
X109619046Y-42254819D01*
X109619046Y-42254819D02*
X109714284Y-42207200D01*
X109714284Y-42207200D02*
X109761903Y-42111961D01*
X109761903Y-42111961D02*
X109761903Y-42064342D01*
X109761903Y-42064342D02*
X109714284Y-41969104D01*
X109714284Y-41969104D02*
X109619046Y-41921485D01*
X109619046Y-41921485D02*
X109476189Y-41921485D01*
X109476189Y-41921485D02*
X109380951Y-41873866D01*
X109380951Y-41873866D02*
X109333332Y-41778628D01*
X109333332Y-41778628D02*
X109333332Y-41731009D01*
X109333332Y-41731009D02*
X109380951Y-41635771D01*
X109380951Y-41635771D02*
X109476189Y-41588152D01*
X109476189Y-41588152D02*
X109619046Y-41588152D01*
X109619046Y-41588152D02*
X109714284Y-41635771D01*
X110190475Y-42254819D02*
X110190475Y-41588152D01*
X110190475Y-41254819D02*
X110142856Y-41302438D01*
X110142856Y-41302438D02*
X110190475Y-41350057D01*
X110190475Y-41350057D02*
X110238094Y-41302438D01*
X110238094Y-41302438D02*
X110190475Y-41254819D01*
X110190475Y-41254819D02*
X110190475Y-41350057D01*
X110666665Y-41588152D02*
X110666665Y-42254819D01*
X110666665Y-41683390D02*
X110714284Y-41635771D01*
X110714284Y-41635771D02*
X110809522Y-41588152D01*
X110809522Y-41588152D02*
X110952379Y-41588152D01*
X110952379Y-41588152D02*
X111047617Y-41635771D01*
X111047617Y-41635771D02*
X111095236Y-41731009D01*
X111095236Y-41731009D02*
X111095236Y-42254819D01*
X111999998Y-41588152D02*
X111999998Y-42397676D01*
X111999998Y-42397676D02*
X111952379Y-42492914D01*
X111952379Y-42492914D02*
X111904760Y-42540533D01*
X111904760Y-42540533D02*
X111809522Y-42588152D01*
X111809522Y-42588152D02*
X111666665Y-42588152D01*
X111666665Y-42588152D02*
X111571427Y-42540533D01*
X111999998Y-42207200D02*
X111904760Y-42254819D01*
X111904760Y-42254819D02*
X111714284Y-42254819D01*
X111714284Y-42254819D02*
X111619046Y-42207200D01*
X111619046Y-42207200D02*
X111571427Y-42159580D01*
X111571427Y-42159580D02*
X111523808Y-42064342D01*
X111523808Y-42064342D02*
X111523808Y-41778628D01*
X111523808Y-41778628D02*
X111571427Y-41683390D01*
X111571427Y-41683390D02*
X111619046Y-41635771D01*
X111619046Y-41635771D02*
X111714284Y-41588152D01*
X111714284Y-41588152D02*
X111904760Y-41588152D01*
X111904760Y-41588152D02*
X111999998Y-41635771D01*
X112619046Y-42254819D02*
X112523808Y-42207200D01*
X112523808Y-42207200D02*
X112476189Y-42111961D01*
X112476189Y-42111961D02*
X112476189Y-41254819D01*
X113380951Y-42207200D02*
X113285713Y-42254819D01*
X113285713Y-42254819D02*
X113095237Y-42254819D01*
X113095237Y-42254819D02*
X112999999Y-42207200D01*
X112999999Y-42207200D02*
X112952380Y-42111961D01*
X112952380Y-42111961D02*
X112952380Y-41731009D01*
X112952380Y-41731009D02*
X112999999Y-41635771D01*
X112999999Y-41635771D02*
X113095237Y-41588152D01*
X113095237Y-41588152D02*
X113285713Y-41588152D01*
X113285713Y-41588152D02*
X113380951Y-41635771D01*
X113380951Y-41635771D02*
X113428570Y-41731009D01*
X113428570Y-41731009D02*
X113428570Y-41826247D01*
X113428570Y-41826247D02*
X112952380Y-41921485D01*
X113857142Y-41873866D02*
X114619047Y-41873866D01*
X115095237Y-42254819D02*
X115095237Y-41254819D01*
X115095237Y-41635771D02*
X115190475Y-41588152D01*
X115190475Y-41588152D02*
X115380951Y-41588152D01*
X115380951Y-41588152D02*
X115476189Y-41635771D01*
X115476189Y-41635771D02*
X115523808Y-41683390D01*
X115523808Y-41683390D02*
X115571427Y-41778628D01*
X115571427Y-41778628D02*
X115571427Y-42064342D01*
X115571427Y-42064342D02*
X115523808Y-42159580D01*
X115523808Y-42159580D02*
X115476189Y-42207200D01*
X115476189Y-42207200D02*
X115380951Y-42254819D01*
X115380951Y-42254819D02*
X115190475Y-42254819D01*
X115190475Y-42254819D02*
X115095237Y-42207200D01*
X115999999Y-42254819D02*
X115999999Y-41588152D01*
X115999999Y-41254819D02*
X115952380Y-41302438D01*
X115952380Y-41302438D02*
X115999999Y-41350057D01*
X115999999Y-41350057D02*
X116047618Y-41302438D01*
X116047618Y-41302438D02*
X115999999Y-41254819D01*
X115999999Y-41254819D02*
X115999999Y-41350057D01*
X116333332Y-41588152D02*
X116714284Y-41588152D01*
X116476189Y-41254819D02*
X116476189Y-42111961D01*
X116476189Y-42111961D02*
X116523808Y-42207200D01*
X116523808Y-42207200D02*
X116619046Y-42254819D01*
X116619046Y-42254819D02*
X116714284Y-42254819D01*
X118238094Y-42254819D02*
X118238094Y-41254819D01*
X118238094Y-42207200D02*
X118142856Y-42254819D01*
X118142856Y-42254819D02*
X117952380Y-42254819D01*
X117952380Y-42254819D02*
X117857142Y-42207200D01*
X117857142Y-42207200D02*
X117809523Y-42159580D01*
X117809523Y-42159580D02*
X117761904Y-42064342D01*
X117761904Y-42064342D02*
X117761904Y-41778628D01*
X117761904Y-41778628D02*
X117809523Y-41683390D01*
X117809523Y-41683390D02*
X117857142Y-41635771D01*
X117857142Y-41635771D02*
X117952380Y-41588152D01*
X117952380Y-41588152D02*
X118142856Y-41588152D01*
X118142856Y-41588152D02*
X118238094Y-41635771D01*
X119142856Y-41588152D02*
X119142856Y-42254819D01*
X118714285Y-41588152D02*
X118714285Y-42111961D01*
X118714285Y-42111961D02*
X118761904Y-42207200D01*
X118761904Y-42207200D02*
X118857142Y-42254819D01*
X118857142Y-42254819D02*
X118999999Y-42254819D01*
X118999999Y-42254819D02*
X119095237Y-42207200D01*
X119095237Y-42207200D02*
X119142856Y-42159580D01*
X120047618Y-42254819D02*
X120047618Y-41731009D01*
X120047618Y-41731009D02*
X119999999Y-41635771D01*
X119999999Y-41635771D02*
X119904761Y-41588152D01*
X119904761Y-41588152D02*
X119714285Y-41588152D01*
X119714285Y-41588152D02*
X119619047Y-41635771D01*
X120047618Y-42207200D02*
X119952380Y-42254819D01*
X119952380Y-42254819D02*
X119714285Y-42254819D01*
X119714285Y-42254819D02*
X119619047Y-42207200D01*
X119619047Y-42207200D02*
X119571428Y-42111961D01*
X119571428Y-42111961D02*
X119571428Y-42016723D01*
X119571428Y-42016723D02*
X119619047Y-41921485D01*
X119619047Y-41921485D02*
X119714285Y-41873866D01*
X119714285Y-41873866D02*
X119952380Y-41873866D01*
X119952380Y-41873866D02*
X120047618Y-41826247D01*
X120666666Y-42254819D02*
X120571428Y-42207200D01*
X120571428Y-42207200D02*
X120523809Y-42111961D01*
X120523809Y-42111961D02*
X120523809Y-41254819D01*
X121047619Y-41873866D02*
X121809524Y-41873866D01*
X122238095Y-42207200D02*
X122333333Y-42254819D01*
X122333333Y-42254819D02*
X122523809Y-42254819D01*
X122523809Y-42254819D02*
X122619047Y-42207200D01*
X122619047Y-42207200D02*
X122666666Y-42111961D01*
X122666666Y-42111961D02*
X122666666Y-42064342D01*
X122666666Y-42064342D02*
X122619047Y-41969104D01*
X122619047Y-41969104D02*
X122523809Y-41921485D01*
X122523809Y-41921485D02*
X122380952Y-41921485D01*
X122380952Y-41921485D02*
X122285714Y-41873866D01*
X122285714Y-41873866D02*
X122238095Y-41778628D01*
X122238095Y-41778628D02*
X122238095Y-41731009D01*
X122238095Y-41731009D02*
X122285714Y-41635771D01*
X122285714Y-41635771D02*
X122380952Y-41588152D01*
X122380952Y-41588152D02*
X122523809Y-41588152D01*
X122523809Y-41588152D02*
X122619047Y-41635771D01*
X123523809Y-41588152D02*
X123523809Y-42254819D01*
X123095238Y-41588152D02*
X123095238Y-42111961D01*
X123095238Y-42111961D02*
X123142857Y-42207200D01*
X123142857Y-42207200D02*
X123238095Y-42254819D01*
X123238095Y-42254819D02*
X123380952Y-42254819D01*
X123380952Y-42254819D02*
X123476190Y-42207200D01*
X123476190Y-42207200D02*
X123523809Y-42159580D01*
X124000000Y-41588152D02*
X124000000Y-42588152D01*
X124000000Y-41635771D02*
X124095238Y-41588152D01*
X124095238Y-41588152D02*
X124285714Y-41588152D01*
X124285714Y-41588152D02*
X124380952Y-41635771D01*
X124380952Y-41635771D02*
X124428571Y-41683390D01*
X124428571Y-41683390D02*
X124476190Y-41778628D01*
X124476190Y-41778628D02*
X124476190Y-42064342D01*
X124476190Y-42064342D02*
X124428571Y-42159580D01*
X124428571Y-42159580D02*
X124380952Y-42207200D01*
X124380952Y-42207200D02*
X124285714Y-42254819D01*
X124285714Y-42254819D02*
X124095238Y-42254819D01*
X124095238Y-42254819D02*
X124000000Y-42207200D01*
X124904762Y-41588152D02*
X124904762Y-42588152D01*
X124904762Y-41635771D02*
X125000000Y-41588152D01*
X125000000Y-41588152D02*
X125190476Y-41588152D01*
X125190476Y-41588152D02*
X125285714Y-41635771D01*
X125285714Y-41635771D02*
X125333333Y-41683390D01*
X125333333Y-41683390D02*
X125380952Y-41778628D01*
X125380952Y-41778628D02*
X125380952Y-42064342D01*
X125380952Y-42064342D02*
X125333333Y-42159580D01*
X125333333Y-42159580D02*
X125285714Y-42207200D01*
X125285714Y-42207200D02*
X125190476Y-42254819D01*
X125190476Y-42254819D02*
X125000000Y-42254819D01*
X125000000Y-42254819D02*
X124904762Y-42207200D01*
X125952381Y-42254819D02*
X125857143Y-42207200D01*
X125857143Y-42207200D02*
X125809524Y-42111961D01*
X125809524Y-42111961D02*
X125809524Y-41254819D01*
X126238096Y-41588152D02*
X126476191Y-42254819D01*
X126714286Y-41588152D02*
X126476191Y-42254819D01*
X126476191Y-42254819D02*
X126380953Y-42492914D01*
X126380953Y-42492914D02*
X126333334Y-42540533D01*
X126333334Y-42540533D02*
X126238096Y-42588152D01*
D11*
X117727149Y-40380952D02*
X118131911Y-40380952D01*
X118131911Y-40380952D02*
X118179530Y-40357142D01*
X118179530Y-40357142D02*
X118203340Y-40333333D01*
X118203340Y-40333333D02*
X118227149Y-40285714D01*
X118227149Y-40285714D02*
X118227149Y-40190476D01*
X118227149Y-40190476D02*
X118203340Y-40142857D01*
X118203340Y-40142857D02*
X118179530Y-40119047D01*
X118179530Y-40119047D02*
X118131911Y-40095238D01*
X118131911Y-40095238D02*
X117727149Y-40095238D01*
X117893816Y-39642856D02*
X118227149Y-39642856D01*
X117703340Y-39761904D02*
X118060482Y-39880951D01*
X118060482Y-39880951D02*
X118060482Y-39571428D01*
D10*
X58252380Y-38154819D02*
X57776190Y-38154819D01*
X57776190Y-38154819D02*
X57728571Y-38631009D01*
X57728571Y-38631009D02*
X57776190Y-38583390D01*
X57776190Y-38583390D02*
X57871428Y-38535771D01*
X57871428Y-38535771D02*
X58109523Y-38535771D01*
X58109523Y-38535771D02*
X58204761Y-38583390D01*
X58204761Y-38583390D02*
X58252380Y-38631009D01*
X58252380Y-38631009D02*
X58299999Y-38726247D01*
X58299999Y-38726247D02*
X58299999Y-38964342D01*
X58299999Y-38964342D02*
X58252380Y-39059580D01*
X58252380Y-39059580D02*
X58204761Y-39107200D01*
X58204761Y-39107200D02*
X58109523Y-39154819D01*
X58109523Y-39154819D02*
X57871428Y-39154819D01*
X57871428Y-39154819D02*
X57776190Y-39107200D01*
X57776190Y-39107200D02*
X57728571Y-39059580D01*
X58585714Y-38154819D02*
X58919047Y-39154819D01*
X58919047Y-39154819D02*
X59252380Y-38154819D01*
X60347619Y-39154819D02*
X60347619Y-38488152D01*
X60347619Y-38154819D02*
X60300000Y-38202438D01*
X60300000Y-38202438D02*
X60347619Y-38250057D01*
X60347619Y-38250057D02*
X60395238Y-38202438D01*
X60395238Y-38202438D02*
X60347619Y-38154819D01*
X60347619Y-38154819D02*
X60347619Y-38250057D01*
X60776190Y-39107200D02*
X60871428Y-39154819D01*
X60871428Y-39154819D02*
X61061904Y-39154819D01*
X61061904Y-39154819D02*
X61157142Y-39107200D01*
X61157142Y-39107200D02*
X61204761Y-39011961D01*
X61204761Y-39011961D02*
X61204761Y-38964342D01*
X61204761Y-38964342D02*
X61157142Y-38869104D01*
X61157142Y-38869104D02*
X61061904Y-38821485D01*
X61061904Y-38821485D02*
X60919047Y-38821485D01*
X60919047Y-38821485D02*
X60823809Y-38773866D01*
X60823809Y-38773866D02*
X60776190Y-38678628D01*
X60776190Y-38678628D02*
X60776190Y-38631009D01*
X60776190Y-38631009D02*
X60823809Y-38535771D01*
X60823809Y-38535771D02*
X60919047Y-38488152D01*
X60919047Y-38488152D02*
X61061904Y-38488152D01*
X61061904Y-38488152D02*
X61157142Y-38535771D01*
X61776190Y-39154819D02*
X61680952Y-39107200D01*
X61680952Y-39107200D02*
X61633333Y-39059580D01*
X61633333Y-39059580D02*
X61585714Y-38964342D01*
X61585714Y-38964342D02*
X61585714Y-38678628D01*
X61585714Y-38678628D02*
X61633333Y-38583390D01*
X61633333Y-38583390D02*
X61680952Y-38535771D01*
X61680952Y-38535771D02*
X61776190Y-38488152D01*
X61776190Y-38488152D02*
X61919047Y-38488152D01*
X61919047Y-38488152D02*
X62014285Y-38535771D01*
X62014285Y-38535771D02*
X62061904Y-38583390D01*
X62061904Y-38583390D02*
X62109523Y-38678628D01*
X62109523Y-38678628D02*
X62109523Y-38964342D01*
X62109523Y-38964342D02*
X62061904Y-39059580D01*
X62061904Y-39059580D02*
X62014285Y-39107200D01*
X62014285Y-39107200D02*
X61919047Y-39154819D01*
X61919047Y-39154819D02*
X61776190Y-39154819D01*
X62680952Y-39154819D02*
X62585714Y-39107200D01*
X62585714Y-39107200D02*
X62538095Y-39011961D01*
X62538095Y-39011961D02*
X62538095Y-38154819D01*
X63490476Y-39154819D02*
X63490476Y-38631009D01*
X63490476Y-38631009D02*
X63442857Y-38535771D01*
X63442857Y-38535771D02*
X63347619Y-38488152D01*
X63347619Y-38488152D02*
X63157143Y-38488152D01*
X63157143Y-38488152D02*
X63061905Y-38535771D01*
X63490476Y-39107200D02*
X63395238Y-39154819D01*
X63395238Y-39154819D02*
X63157143Y-39154819D01*
X63157143Y-39154819D02*
X63061905Y-39107200D01*
X63061905Y-39107200D02*
X63014286Y-39011961D01*
X63014286Y-39011961D02*
X63014286Y-38916723D01*
X63014286Y-38916723D02*
X63061905Y-38821485D01*
X63061905Y-38821485D02*
X63157143Y-38773866D01*
X63157143Y-38773866D02*
X63395238Y-38773866D01*
X63395238Y-38773866D02*
X63490476Y-38726247D01*
X63823810Y-38488152D02*
X64204762Y-38488152D01*
X63966667Y-38154819D02*
X63966667Y-39011961D01*
X63966667Y-39011961D02*
X64014286Y-39107200D01*
X64014286Y-39107200D02*
X64109524Y-39154819D01*
X64109524Y-39154819D02*
X64204762Y-39154819D01*
X64919048Y-39107200D02*
X64823810Y-39154819D01*
X64823810Y-39154819D02*
X64633334Y-39154819D01*
X64633334Y-39154819D02*
X64538096Y-39107200D01*
X64538096Y-39107200D02*
X64490477Y-39011961D01*
X64490477Y-39011961D02*
X64490477Y-38631009D01*
X64490477Y-38631009D02*
X64538096Y-38535771D01*
X64538096Y-38535771D02*
X64633334Y-38488152D01*
X64633334Y-38488152D02*
X64823810Y-38488152D01*
X64823810Y-38488152D02*
X64919048Y-38535771D01*
X64919048Y-38535771D02*
X64966667Y-38631009D01*
X64966667Y-38631009D02*
X64966667Y-38726247D01*
X64966667Y-38726247D02*
X64490477Y-38821485D01*
X65823810Y-39154819D02*
X65823810Y-38154819D01*
X65823810Y-39107200D02*
X65728572Y-39154819D01*
X65728572Y-39154819D02*
X65538096Y-39154819D01*
X65538096Y-39154819D02*
X65442858Y-39107200D01*
X65442858Y-39107200D02*
X65395239Y-39059580D01*
X65395239Y-39059580D02*
X65347620Y-38964342D01*
X65347620Y-38964342D02*
X65347620Y-38678628D01*
X65347620Y-38678628D02*
X65395239Y-38583390D01*
X65395239Y-38583390D02*
X65442858Y-38535771D01*
X65442858Y-38535771D02*
X65538096Y-38488152D01*
X65538096Y-38488152D02*
X65728572Y-38488152D01*
X65728572Y-38488152D02*
X65823810Y-38535771D01*
X61038095Y-24454819D02*
X61038095Y-25264342D01*
X61038095Y-25264342D02*
X61085714Y-25359580D01*
X61085714Y-25359580D02*
X61133333Y-25407200D01*
X61133333Y-25407200D02*
X61228571Y-25454819D01*
X61228571Y-25454819D02*
X61419047Y-25454819D01*
X61419047Y-25454819D02*
X61514285Y-25407200D01*
X61514285Y-25407200D02*
X61561904Y-25359580D01*
X61561904Y-25359580D02*
X61609523Y-25264342D01*
X61609523Y-25264342D02*
X61609523Y-24454819D01*
X62514285Y-24454819D02*
X62323809Y-24454819D01*
X62323809Y-24454819D02*
X62228571Y-24502438D01*
X62228571Y-24502438D02*
X62180952Y-24550057D01*
X62180952Y-24550057D02*
X62085714Y-24692914D01*
X62085714Y-24692914D02*
X62038095Y-24883390D01*
X62038095Y-24883390D02*
X62038095Y-25264342D01*
X62038095Y-25264342D02*
X62085714Y-25359580D01*
X62085714Y-25359580D02*
X62133333Y-25407200D01*
X62133333Y-25407200D02*
X62228571Y-25454819D01*
X62228571Y-25454819D02*
X62419047Y-25454819D01*
X62419047Y-25454819D02*
X62514285Y-25407200D01*
X62514285Y-25407200D02*
X62561904Y-25359580D01*
X62561904Y-25359580D02*
X62609523Y-25264342D01*
X62609523Y-25264342D02*
X62609523Y-25026247D01*
X62609523Y-25026247D02*
X62561904Y-24931009D01*
X62561904Y-24931009D02*
X62514285Y-24883390D01*
X62514285Y-24883390D02*
X62419047Y-24835771D01*
X62419047Y-24835771D02*
X62228571Y-24835771D01*
X62228571Y-24835771D02*
X62133333Y-24883390D01*
X62133333Y-24883390D02*
X62085714Y-24931009D01*
X62085714Y-24931009D02*
X62038095Y-25026247D01*
X66523810Y-16854819D02*
X67142857Y-16854819D01*
X67142857Y-16854819D02*
X66809524Y-17235771D01*
X66809524Y-17235771D02*
X66952381Y-17235771D01*
X66952381Y-17235771D02*
X67047619Y-17283390D01*
X67047619Y-17283390D02*
X67095238Y-17331009D01*
X67095238Y-17331009D02*
X67142857Y-17426247D01*
X67142857Y-17426247D02*
X67142857Y-17664342D01*
X67142857Y-17664342D02*
X67095238Y-17759580D01*
X67095238Y-17759580D02*
X67047619Y-17807200D01*
X67047619Y-17807200D02*
X66952381Y-17854819D01*
X66952381Y-17854819D02*
X66666667Y-17854819D01*
X66666667Y-17854819D02*
X66571429Y-17807200D01*
X66571429Y-17807200D02*
X66523810Y-17759580D01*
X67571429Y-17759580D02*
X67619048Y-17807200D01*
X67619048Y-17807200D02*
X67571429Y-17854819D01*
X67571429Y-17854819D02*
X67523810Y-17807200D01*
X67523810Y-17807200D02*
X67571429Y-17759580D01*
X67571429Y-17759580D02*
X67571429Y-17854819D01*
X67952381Y-16854819D02*
X68571428Y-16854819D01*
X68571428Y-16854819D02*
X68238095Y-17235771D01*
X68238095Y-17235771D02*
X68380952Y-17235771D01*
X68380952Y-17235771D02*
X68476190Y-17283390D01*
X68476190Y-17283390D02*
X68523809Y-17331009D01*
X68523809Y-17331009D02*
X68571428Y-17426247D01*
X68571428Y-17426247D02*
X68571428Y-17664342D01*
X68571428Y-17664342D02*
X68523809Y-17759580D01*
X68523809Y-17759580D02*
X68476190Y-17807200D01*
X68476190Y-17807200D02*
X68380952Y-17854819D01*
X68380952Y-17854819D02*
X68095238Y-17854819D01*
X68095238Y-17854819D02*
X68000000Y-17807200D01*
X68000000Y-17807200D02*
X67952381Y-17759580D01*
X68857143Y-16854819D02*
X69190476Y-17854819D01*
X69190476Y-17854819D02*
X69523809Y-16854819D01*
X67454819Y-14761904D02*
X68264342Y-14761904D01*
X68264342Y-14761904D02*
X68359580Y-14714285D01*
X68359580Y-14714285D02*
X68407200Y-14666666D01*
X68407200Y-14666666D02*
X68454819Y-14571428D01*
X68454819Y-14571428D02*
X68454819Y-14380952D01*
X68454819Y-14380952D02*
X68407200Y-14285714D01*
X68407200Y-14285714D02*
X68359580Y-14238095D01*
X68359580Y-14238095D02*
X68264342Y-14190476D01*
X68264342Y-14190476D02*
X67454819Y-14190476D01*
X67454819Y-13809523D02*
X67454819Y-13142857D01*
X67454819Y-13142857D02*
X68454819Y-13571428D01*
X5702381Y-30789104D02*
X6178571Y-30789104D01*
X5607143Y-31074819D02*
X5940476Y-30074819D01*
X5940476Y-30074819D02*
X6273809Y-31074819D01*
X7178571Y-30979580D02*
X7130952Y-31027200D01*
X7130952Y-31027200D02*
X6988095Y-31074819D01*
X6988095Y-31074819D02*
X6892857Y-31074819D01*
X6892857Y-31074819D02*
X6750000Y-31027200D01*
X6750000Y-31027200D02*
X6654762Y-30931961D01*
X6654762Y-30931961D02*
X6607143Y-30836723D01*
X6607143Y-30836723D02*
X6559524Y-30646247D01*
X6559524Y-30646247D02*
X6559524Y-30503390D01*
X6559524Y-30503390D02*
X6607143Y-30312914D01*
X6607143Y-30312914D02*
X6654762Y-30217676D01*
X6654762Y-30217676D02*
X6750000Y-30122438D01*
X6750000Y-30122438D02*
X6892857Y-30074819D01*
X6892857Y-30074819D02*
X6988095Y-30074819D01*
X6988095Y-30074819D02*
X7130952Y-30122438D01*
X7130952Y-30122438D02*
X7178571Y-30170057D01*
X8321429Y-31027200D02*
X8464286Y-31074819D01*
X8464286Y-31074819D02*
X8702381Y-31074819D01*
X8702381Y-31074819D02*
X8797619Y-31027200D01*
X8797619Y-31027200D02*
X8845238Y-30979580D01*
X8845238Y-30979580D02*
X8892857Y-30884342D01*
X8892857Y-30884342D02*
X8892857Y-30789104D01*
X8892857Y-30789104D02*
X8845238Y-30693866D01*
X8845238Y-30693866D02*
X8797619Y-30646247D01*
X8797619Y-30646247D02*
X8702381Y-30598628D01*
X8702381Y-30598628D02*
X8511905Y-30551009D01*
X8511905Y-30551009D02*
X8416667Y-30503390D01*
X8416667Y-30503390D02*
X8369048Y-30455771D01*
X8369048Y-30455771D02*
X8321429Y-30360533D01*
X8321429Y-30360533D02*
X8321429Y-30265295D01*
X8321429Y-30265295D02*
X8369048Y-30170057D01*
X8369048Y-30170057D02*
X8416667Y-30122438D01*
X8416667Y-30122438D02*
X8511905Y-30074819D01*
X8511905Y-30074819D02*
X8750000Y-30074819D01*
X8750000Y-30074819D02*
X8892857Y-30122438D01*
X8607143Y-31122438D02*
X8702381Y-31170057D01*
X8702381Y-31170057D02*
X8750000Y-31265295D01*
X8750000Y-31265295D02*
X8702381Y-31360533D01*
X8702381Y-31360533D02*
X8607143Y-31408152D01*
X8607143Y-31408152D02*
X8464286Y-31408152D01*
X9702381Y-31027200D02*
X9607143Y-31074819D01*
X9607143Y-31074819D02*
X9416667Y-31074819D01*
X9416667Y-31074819D02*
X9321429Y-31027200D01*
X9321429Y-31027200D02*
X9273810Y-30931961D01*
X9273810Y-30931961D02*
X9273810Y-30551009D01*
X9273810Y-30551009D02*
X9321429Y-30455771D01*
X9321429Y-30455771D02*
X9416667Y-30408152D01*
X9416667Y-30408152D02*
X9607143Y-30408152D01*
X9607143Y-30408152D02*
X9702381Y-30455771D01*
X9702381Y-30455771D02*
X9750000Y-30551009D01*
X9750000Y-30551009D02*
X9750000Y-30646247D01*
X9750000Y-30646247D02*
X9273810Y-30741485D01*
X10178572Y-31074819D02*
X10178572Y-30074819D01*
X10178572Y-30455771D02*
X10273810Y-30408152D01*
X10273810Y-30408152D02*
X10464286Y-30408152D01*
X10464286Y-30408152D02*
X10559524Y-30455771D01*
X10559524Y-30455771D02*
X10607143Y-30503390D01*
X10607143Y-30503390D02*
X10654762Y-30598628D01*
X10654762Y-30598628D02*
X10654762Y-30884342D01*
X10654762Y-30884342D02*
X10607143Y-30979580D01*
X10607143Y-30979580D02*
X10559524Y-31027200D01*
X10559524Y-31027200D02*
X10464286Y-31074819D01*
X10464286Y-31074819D02*
X10273810Y-31074819D01*
X10273810Y-31074819D02*
X10178572Y-31027200D01*
X11464286Y-31027200D02*
X11369048Y-31074819D01*
X11369048Y-31074819D02*
X11178572Y-31074819D01*
X11178572Y-31074819D02*
X11083334Y-31027200D01*
X11083334Y-31027200D02*
X11035715Y-30931961D01*
X11035715Y-30931961D02*
X11035715Y-30551009D01*
X11035715Y-30551009D02*
X11083334Y-30455771D01*
X11083334Y-30455771D02*
X11178572Y-30408152D01*
X11178572Y-30408152D02*
X11369048Y-30408152D01*
X11369048Y-30408152D02*
X11464286Y-30455771D01*
X11464286Y-30455771D02*
X11511905Y-30551009D01*
X11511905Y-30551009D02*
X11511905Y-30646247D01*
X11511905Y-30646247D02*
X11035715Y-30741485D01*
X11940477Y-31074819D02*
X11940477Y-30074819D01*
X12035715Y-30693866D02*
X12321429Y-31074819D01*
X12321429Y-30408152D02*
X11940477Y-30789104D01*
X13130953Y-31027200D02*
X13035715Y-31074819D01*
X13035715Y-31074819D02*
X12845239Y-31074819D01*
X12845239Y-31074819D02*
X12750001Y-31027200D01*
X12750001Y-31027200D02*
X12702382Y-30931961D01*
X12702382Y-30931961D02*
X12702382Y-30551009D01*
X12702382Y-30551009D02*
X12750001Y-30455771D01*
X12750001Y-30455771D02*
X12845239Y-30408152D01*
X12845239Y-30408152D02*
X13035715Y-30408152D01*
X13035715Y-30408152D02*
X13130953Y-30455771D01*
X13130953Y-30455771D02*
X13178572Y-30551009D01*
X13178572Y-30551009D02*
X13178572Y-30646247D01*
X13178572Y-30646247D02*
X12702382Y-30741485D01*
X14892858Y-30122438D02*
X14797620Y-30074819D01*
X14797620Y-30074819D02*
X14654763Y-30074819D01*
X14654763Y-30074819D02*
X14511906Y-30122438D01*
X14511906Y-30122438D02*
X14416668Y-30217676D01*
X14416668Y-30217676D02*
X14369049Y-30312914D01*
X14369049Y-30312914D02*
X14321430Y-30503390D01*
X14321430Y-30503390D02*
X14321430Y-30646247D01*
X14321430Y-30646247D02*
X14369049Y-30836723D01*
X14369049Y-30836723D02*
X14416668Y-30931961D01*
X14416668Y-30931961D02*
X14511906Y-31027200D01*
X14511906Y-31027200D02*
X14654763Y-31074819D01*
X14654763Y-31074819D02*
X14750001Y-31074819D01*
X14750001Y-31074819D02*
X14892858Y-31027200D01*
X14892858Y-31027200D02*
X14940477Y-30979580D01*
X14940477Y-30979580D02*
X14940477Y-30646247D01*
X14940477Y-30646247D02*
X14750001Y-30646247D01*
X15369049Y-31074819D02*
X15369049Y-30408152D01*
X15369049Y-30074819D02*
X15321430Y-30122438D01*
X15321430Y-30122438D02*
X15369049Y-30170057D01*
X15369049Y-30170057D02*
X15416668Y-30122438D01*
X15416668Y-30122438D02*
X15369049Y-30074819D01*
X15369049Y-30074819D02*
X15369049Y-30170057D01*
X15845239Y-31074819D02*
X15845239Y-30408152D01*
X15845239Y-30598628D02*
X15892858Y-30503390D01*
X15892858Y-30503390D02*
X15940477Y-30455771D01*
X15940477Y-30455771D02*
X16035715Y-30408152D01*
X16035715Y-30408152D02*
X16130953Y-30408152D01*
X16464287Y-31074819D02*
X16464287Y-30408152D01*
X16464287Y-30074819D02*
X16416668Y-30122438D01*
X16416668Y-30122438D02*
X16464287Y-30170057D01*
X16464287Y-30170057D02*
X16511906Y-30122438D01*
X16511906Y-30122438D02*
X16464287Y-30074819D01*
X16464287Y-30074819D02*
X16464287Y-30170057D01*
X16892858Y-31027200D02*
X16988096Y-31074819D01*
X16988096Y-31074819D02*
X17178572Y-31074819D01*
X17178572Y-31074819D02*
X17273810Y-31027200D01*
X17273810Y-31027200D02*
X17321429Y-30931961D01*
X17321429Y-30931961D02*
X17321429Y-30884342D01*
X17321429Y-30884342D02*
X17273810Y-30789104D01*
X17273810Y-30789104D02*
X17178572Y-30741485D01*
X17178572Y-30741485D02*
X17035715Y-30741485D01*
X17035715Y-30741485D02*
X16940477Y-30693866D01*
X16940477Y-30693866D02*
X16892858Y-30598628D01*
X16892858Y-30598628D02*
X16892858Y-30551009D01*
X16892858Y-30551009D02*
X16940477Y-30455771D01*
X16940477Y-30455771D02*
X17035715Y-30408152D01*
X17035715Y-30408152D02*
X17178572Y-30408152D01*
X17178572Y-30408152D02*
X17273810Y-30455771D01*
X17083334Y-31122438D02*
X17178572Y-31170057D01*
X17178572Y-31170057D02*
X17226191Y-31265295D01*
X17226191Y-31265295D02*
X17178572Y-31360533D01*
X17178572Y-31360533D02*
X17083334Y-31408152D01*
X17083334Y-31408152D02*
X16940477Y-31408152D01*
X17750001Y-31074819D02*
X17750001Y-30408152D01*
X17750001Y-30074819D02*
X17702382Y-30122438D01*
X17702382Y-30122438D02*
X17750001Y-30170057D01*
X17750001Y-30170057D02*
X17797620Y-30122438D01*
X17797620Y-30122438D02*
X17750001Y-30074819D01*
X17750001Y-30074819D02*
X17750001Y-30170057D01*
X11416666Y-26854819D02*
X11416666Y-27569104D01*
X11416666Y-27569104D02*
X11369047Y-27711961D01*
X11369047Y-27711961D02*
X11273809Y-27807200D01*
X11273809Y-27807200D02*
X11130952Y-27854819D01*
X11130952Y-27854819D02*
X11035714Y-27854819D01*
X12416666Y-27854819D02*
X11845238Y-27854819D01*
X12130952Y-27854819D02*
X12130952Y-26854819D01*
X12130952Y-26854819D02*
X12035714Y-26997676D01*
X12035714Y-26997676D02*
X11940476Y-27092914D01*
X11940476Y-27092914D02*
X11845238Y-27140533D01*
X29285714Y-63950057D02*
X29333333Y-63902438D01*
X29333333Y-63902438D02*
X29428571Y-63854819D01*
X29428571Y-63854819D02*
X29666666Y-63854819D01*
X29666666Y-63854819D02*
X29761904Y-63902438D01*
X29761904Y-63902438D02*
X29809523Y-63950057D01*
X29809523Y-63950057D02*
X29857142Y-64045295D01*
X29857142Y-64045295D02*
X29857142Y-64140533D01*
X29857142Y-64140533D02*
X29809523Y-64283390D01*
X29809523Y-64283390D02*
X29238095Y-64854819D01*
X29238095Y-64854819D02*
X29857142Y-64854819D01*
X30285714Y-64854819D02*
X30285714Y-63854819D01*
X30285714Y-63854819D02*
X30857142Y-64854819D01*
X30857142Y-64854819D02*
X30857142Y-63854819D01*
X31238095Y-63854819D02*
X31904761Y-63854819D01*
X31904761Y-63854819D02*
X31476190Y-64854819D01*
X32476190Y-63854819D02*
X32571428Y-63854819D01*
X32571428Y-63854819D02*
X32666666Y-63902438D01*
X32666666Y-63902438D02*
X32714285Y-63950057D01*
X32714285Y-63950057D02*
X32761904Y-64045295D01*
X32761904Y-64045295D02*
X32809523Y-64235771D01*
X32809523Y-64235771D02*
X32809523Y-64473866D01*
X32809523Y-64473866D02*
X32761904Y-64664342D01*
X32761904Y-64664342D02*
X32714285Y-64759580D01*
X32714285Y-64759580D02*
X32666666Y-64807200D01*
X32666666Y-64807200D02*
X32571428Y-64854819D01*
X32571428Y-64854819D02*
X32476190Y-64854819D01*
X32476190Y-64854819D02*
X32380952Y-64807200D01*
X32380952Y-64807200D02*
X32333333Y-64759580D01*
X32333333Y-64759580D02*
X32285714Y-64664342D01*
X32285714Y-64664342D02*
X32238095Y-64473866D01*
X32238095Y-64473866D02*
X32238095Y-64235771D01*
X32238095Y-64235771D02*
X32285714Y-64045295D01*
X32285714Y-64045295D02*
X32333333Y-63950057D01*
X32333333Y-63950057D02*
X32380952Y-63902438D01*
X32380952Y-63902438D02*
X32476190Y-63854819D01*
X33428571Y-63854819D02*
X33523809Y-63854819D01*
X33523809Y-63854819D02*
X33619047Y-63902438D01*
X33619047Y-63902438D02*
X33666666Y-63950057D01*
X33666666Y-63950057D02*
X33714285Y-64045295D01*
X33714285Y-64045295D02*
X33761904Y-64235771D01*
X33761904Y-64235771D02*
X33761904Y-64473866D01*
X33761904Y-64473866D02*
X33714285Y-64664342D01*
X33714285Y-64664342D02*
X33666666Y-64759580D01*
X33666666Y-64759580D02*
X33619047Y-64807200D01*
X33619047Y-64807200D02*
X33523809Y-64854819D01*
X33523809Y-64854819D02*
X33428571Y-64854819D01*
X33428571Y-64854819D02*
X33333333Y-64807200D01*
X33333333Y-64807200D02*
X33285714Y-64759580D01*
X33285714Y-64759580D02*
X33238095Y-64664342D01*
X33238095Y-64664342D02*
X33190476Y-64473866D01*
X33190476Y-64473866D02*
X33190476Y-64235771D01*
X33190476Y-64235771D02*
X33238095Y-64045295D01*
X33238095Y-64045295D02*
X33285714Y-63950057D01*
X33285714Y-63950057D02*
X33333333Y-63902438D01*
X33333333Y-63902438D02*
X33428571Y-63854819D01*
X34142857Y-63950057D02*
X34190476Y-63902438D01*
X34190476Y-63902438D02*
X34285714Y-63854819D01*
X34285714Y-63854819D02*
X34523809Y-63854819D01*
X34523809Y-63854819D02*
X34619047Y-63902438D01*
X34619047Y-63902438D02*
X34666666Y-63950057D01*
X34666666Y-63950057D02*
X34714285Y-64045295D01*
X34714285Y-64045295D02*
X34714285Y-64140533D01*
X34714285Y-64140533D02*
X34666666Y-64283390D01*
X34666666Y-64283390D02*
X34095238Y-64854819D01*
X34095238Y-64854819D02*
X34714285Y-64854819D01*
D13*
X32395937Y-62068571D02*
X32361651Y-62137142D01*
X32361651Y-62137142D02*
X32293080Y-62205714D01*
X32293080Y-62205714D02*
X32190222Y-62308571D01*
X32190222Y-62308571D02*
X32155937Y-62377142D01*
X32155937Y-62377142D02*
X32155937Y-62445714D01*
X32327365Y-62411428D02*
X32293080Y-62480000D01*
X32293080Y-62480000D02*
X32224508Y-62548571D01*
X32224508Y-62548571D02*
X32087365Y-62582857D01*
X32087365Y-62582857D02*
X31847365Y-62582857D01*
X31847365Y-62582857D02*
X31710222Y-62548571D01*
X31710222Y-62548571D02*
X31641651Y-62480000D01*
X31641651Y-62480000D02*
X31607365Y-62411428D01*
X31607365Y-62411428D02*
X31607365Y-62274285D01*
X31607365Y-62274285D02*
X31641651Y-62205714D01*
X31641651Y-62205714D02*
X31710222Y-62137142D01*
X31710222Y-62137142D02*
X31847365Y-62102857D01*
X31847365Y-62102857D02*
X32087365Y-62102857D01*
X32087365Y-62102857D02*
X32224508Y-62137142D01*
X32224508Y-62137142D02*
X32293080Y-62205714D01*
X32293080Y-62205714D02*
X32327365Y-62274285D01*
X32327365Y-62274285D02*
X32327365Y-62411428D01*
X32327365Y-61417142D02*
X32327365Y-61828571D01*
X32327365Y-61622856D02*
X31607365Y-61622856D01*
X31607365Y-61622856D02*
X31710222Y-61691428D01*
X31710222Y-61691428D02*
X31778794Y-61759999D01*
X31778794Y-61759999D02*
X31813080Y-61828571D01*
D10*
X31726190Y-22538152D02*
X31726190Y-23204819D01*
X31488095Y-22157200D02*
X31250000Y-22871485D01*
X31250000Y-22871485D02*
X31869047Y-22871485D01*
X32154762Y-22204819D02*
X32821428Y-22204819D01*
X32821428Y-22204819D02*
X32392857Y-23204819D01*
X33726190Y-23204819D02*
X33154762Y-23204819D01*
X33440476Y-23204819D02*
X33440476Y-22204819D01*
X33440476Y-22204819D02*
X33345238Y-22347676D01*
X33345238Y-22347676D02*
X33250000Y-22442914D01*
X33250000Y-22442914D02*
X33154762Y-22490533D01*
X34011905Y-22204819D02*
X34345238Y-23204819D01*
X34345238Y-23204819D02*
X34678571Y-22204819D01*
X34964286Y-22919104D02*
X35440476Y-22919104D01*
X34869048Y-23204819D02*
X35202381Y-22204819D01*
X35202381Y-22204819D02*
X35535714Y-23204819D01*
X36440476Y-23109580D02*
X36392857Y-23157200D01*
X36392857Y-23157200D02*
X36250000Y-23204819D01*
X36250000Y-23204819D02*
X36154762Y-23204819D01*
X36154762Y-23204819D02*
X36011905Y-23157200D01*
X36011905Y-23157200D02*
X35916667Y-23061961D01*
X35916667Y-23061961D02*
X35869048Y-22966723D01*
X35869048Y-22966723D02*
X35821429Y-22776247D01*
X35821429Y-22776247D02*
X35821429Y-22633390D01*
X35821429Y-22633390D02*
X35869048Y-22442914D01*
X35869048Y-22442914D02*
X35916667Y-22347676D01*
X35916667Y-22347676D02*
X36011905Y-22252438D01*
X36011905Y-22252438D02*
X36154762Y-22204819D01*
X36154762Y-22204819D02*
X36250000Y-22204819D01*
X36250000Y-22204819D02*
X36392857Y-22252438D01*
X36392857Y-22252438D02*
X36440476Y-22300057D01*
X37630953Y-23204819D02*
X37630953Y-22204819D01*
X37630953Y-22204819D02*
X37964286Y-22919104D01*
X37964286Y-22919104D02*
X38297619Y-22204819D01*
X38297619Y-22204819D02*
X38297619Y-23204819D01*
X38964286Y-22204819D02*
X39154762Y-22204819D01*
X39154762Y-22204819D02*
X39250000Y-22252438D01*
X39250000Y-22252438D02*
X39345238Y-22347676D01*
X39345238Y-22347676D02*
X39392857Y-22538152D01*
X39392857Y-22538152D02*
X39392857Y-22871485D01*
X39392857Y-22871485D02*
X39345238Y-23061961D01*
X39345238Y-23061961D02*
X39250000Y-23157200D01*
X39250000Y-23157200D02*
X39154762Y-23204819D01*
X39154762Y-23204819D02*
X38964286Y-23204819D01*
X38964286Y-23204819D02*
X38869048Y-23157200D01*
X38869048Y-23157200D02*
X38773810Y-23061961D01*
X38773810Y-23061961D02*
X38726191Y-22871485D01*
X38726191Y-22871485D02*
X38726191Y-22538152D01*
X38726191Y-22538152D02*
X38773810Y-22347676D01*
X38773810Y-22347676D02*
X38869048Y-22252438D01*
X38869048Y-22252438D02*
X38964286Y-22204819D01*
X39678572Y-22204819D02*
X40011905Y-23204819D01*
X40011905Y-23204819D02*
X40345238Y-22204819D01*
X33988095Y-26454819D02*
X33988095Y-25454819D01*
X33988095Y-25454819D02*
X34321428Y-26169104D01*
X34321428Y-26169104D02*
X34654761Y-25454819D01*
X34654761Y-25454819D02*
X34654761Y-26454819D01*
X35321428Y-25454819D02*
X35511904Y-25454819D01*
X35511904Y-25454819D02*
X35607142Y-25502438D01*
X35607142Y-25502438D02*
X35702380Y-25597676D01*
X35702380Y-25597676D02*
X35749999Y-25788152D01*
X35749999Y-25788152D02*
X35749999Y-26121485D01*
X35749999Y-26121485D02*
X35702380Y-26311961D01*
X35702380Y-26311961D02*
X35607142Y-26407200D01*
X35607142Y-26407200D02*
X35511904Y-26454819D01*
X35511904Y-26454819D02*
X35321428Y-26454819D01*
X35321428Y-26454819D02*
X35226190Y-26407200D01*
X35226190Y-26407200D02*
X35130952Y-26311961D01*
X35130952Y-26311961D02*
X35083333Y-26121485D01*
X35083333Y-26121485D02*
X35083333Y-25788152D01*
X35083333Y-25788152D02*
X35130952Y-25597676D01*
X35130952Y-25597676D02*
X35226190Y-25502438D01*
X35226190Y-25502438D02*
X35321428Y-25454819D01*
X36035714Y-25454819D02*
X36369047Y-26454819D01*
X36369047Y-26454819D02*
X36702380Y-25454819D01*
X37559523Y-26454819D02*
X36988095Y-26454819D01*
X37273809Y-26454819D02*
X37273809Y-25454819D01*
X37273809Y-25454819D02*
X37178571Y-25597676D01*
X37178571Y-25597676D02*
X37083333Y-25692914D01*
X37083333Y-25692914D02*
X36988095Y-25740533D01*
%TO.C,OK1*%
D16*
X18635000Y-57730000D02*
X19635000Y-56730000D01*
X18635000Y-61810000D02*
X18635000Y-57730000D01*
X19635000Y-56730000D02*
X24985000Y-56730000D01*
X24985000Y-56730000D02*
X24985000Y-61810000D01*
X24985000Y-61810000D02*
X18635000Y-61810000D01*
%TO.C,R10*%
X26730000Y-91365000D02*
X27365000Y-90730000D01*
X26730000Y-95810000D02*
X26730000Y-91365000D01*
X27365000Y-90730000D02*
X29270000Y-90730000D01*
X29270000Y-90730000D02*
X29270000Y-95810000D01*
X29270000Y-95810000D02*
X26730000Y-95810000D01*
%TO.C,U1*%
X71000000Y-45250000D02*
X89000000Y-45250000D01*
X71000000Y-51250000D02*
X89000000Y-51250000D01*
X71000000Y-70750000D02*
X71000000Y-45250000D01*
X71000000Y-70750000D02*
X89000000Y-70750000D01*
X89000000Y-70750000D02*
X89000000Y-45250000D01*
%TO.C,U5*%
X127687500Y-39000000D02*
X128625000Y-39000000D01*
X128625000Y-41000000D01*
X127375000Y-41000000D01*
X127375000Y-39312500D01*
X127687500Y-39000000D01*
%TO.C,D1*%
X37700000Y-63500000D02*
X37700000Y-60500000D01*
X39350560Y-61200920D02*
X39350560Y-62801120D01*
X39350560Y-62001020D02*
X38448860Y-62001020D01*
X39350560Y-62001020D02*
X40501180Y-61200920D01*
X39350560Y-62001020D02*
X40501180Y-62750320D01*
X40501180Y-62001020D02*
X41499400Y-62001020D01*
X40501180Y-62750320D02*
X40501180Y-61200920D01*
X42300000Y-60500000D02*
X37700000Y-60500000D01*
X42300000Y-60500000D02*
X42300000Y-63500000D01*
X42300000Y-63500000D02*
X37700000Y-63500000D01*
%TO.C,U3*%
X117375000Y-28750000D02*
X119250000Y-28750000D01*
X119250000Y-31250000D01*
X116750000Y-31250000D01*
X116750000Y-29375000D01*
X117375000Y-28750000D01*
%TO.C,U8*%
X81600000Y-12550000D02*
X82800000Y-12550000D01*
X82800000Y-15450000D01*
X81200000Y-15450000D01*
X81200000Y-12950000D01*
X81600000Y-12550000D01*
%TO.C,K2*%
X65730000Y-75365000D02*
X66365000Y-74730000D01*
X65730000Y-79810000D02*
X65730000Y-75365000D01*
X66365000Y-74730000D02*
X68270000Y-74730000D01*
X68270000Y-74730000D02*
X68270000Y-79810000D01*
X68270000Y-79810000D02*
X65730000Y-79810000D01*
%TO.C,F1*%
X20400000Y-11200000D02*
X23600000Y-11200000D01*
X23600000Y-12800000D01*
X20400000Y-12800000D01*
X20400000Y-11200000D01*
%TO.C,K1*%
X23820000Y-67190000D02*
X43960000Y-67190000D01*
X23820000Y-77190000D02*
X23820000Y-67190000D01*
X25000000Y-75000000D02*
X25000000Y-69500000D01*
X43960000Y-67190000D02*
X43960000Y-77190000D01*
X43960000Y-77190000D02*
X23820000Y-77190000D01*
%TO.C,J2*%
X148825000Y-12825000D02*
X148825000Y-19175000D01*
X148825000Y-12825000D02*
X155175000Y-12825000D01*
X148825000Y-19175000D02*
X155175000Y-19175000D01*
X155175000Y-12825000D02*
X155175000Y-19175000D01*
X155175000Y-16000000D02*
G75*
G02*
X148825000Y-16000000I-3175000J0D01*
G01*
X148825000Y-16000000D02*
G75*
G02*
X155175000Y-16000000I3175000J0D01*
G01*
%TO.C,U4*%
X117687500Y-39000000D02*
X118625000Y-39000000D01*
X118625000Y-41000000D01*
X117375000Y-41000000D01*
X117375000Y-39312500D01*
X117687500Y-39000000D01*
%TO.C,U6*%
X43300000Y-13250000D02*
X81300000Y-13250000D01*
X81300000Y-36750000D01*
X42300000Y-36750000D01*
X42300000Y-14250000D01*
X43300000Y-13250000D01*
%TO.C,U7*%
X67025000Y-11550000D02*
X69950000Y-11550000D01*
X69950000Y-16450000D01*
X66050000Y-16450000D01*
X66050000Y-12525000D01*
X67025000Y-11550000D01*
%TO.C,J1*%
X8250000Y-21900000D02*
X15250000Y-21900000D01*
X8250000Y-28000000D02*
X15250000Y-28000000D01*
X8250000Y-29100000D02*
X8250000Y-21900000D01*
X8250000Y-29100000D02*
X15250000Y-29100000D01*
X8650000Y-29500000D02*
X8250000Y-29100000D01*
X10955000Y-23862000D02*
X8862000Y-25955000D01*
X11138000Y-24045000D02*
X9045000Y-26138000D01*
X14455000Y-23862000D02*
X12362000Y-25955000D01*
X14638000Y-24045000D02*
X12545000Y-26138000D01*
X15250000Y-21900000D02*
X15250000Y-29500000D01*
X15250000Y-29500000D02*
X8650000Y-29500000D01*
X11500000Y-25000000D02*
G75*
G02*
X8500000Y-25000000I-1500000J0D01*
G01*
X8500000Y-25000000D02*
G75*
G02*
X11500000Y-25000000I1500000J0D01*
G01*
X15000000Y-25000000D02*
G75*
G02*
X12000000Y-25000000I-1500000J0D01*
G01*
X12000000Y-25000000D02*
G75*
G02*
X15000000Y-25000000I1500000J0D01*
G01*
%TO.C,Q1*%
X31675000Y-60550000D02*
X32650000Y-60550000D01*
X32650000Y-63450000D01*
X31350000Y-63450000D01*
X31350000Y-60875000D01*
X31675000Y-60550000D01*
%TO.C,MOV1*%
X28000000Y-23750000D02*
X28000000Y-28250000D01*
X28000000Y-23750000D02*
X43500000Y-23750000D01*
X28000000Y-28250000D02*
X43500000Y-28250000D01*
X43500000Y-23750000D02*
X43500000Y-28250000D01*
%TD*%
M02*
