M48
; DRILL file KiCad 10.0.3 date 2026-06-03T05:27:33
; FORMAT={-:-/ absolute / metric / decimal}
; #@! TF.CreationDate,2026-06-03T05:27:33+02:00
; #@! TF.GenerationSoftware,Kicad,Pcbnew,10.0.3
; #@! TF.FileFunction,MixedPlating,1,4
FMAT,2
METRIC
; #@! TA.AperFunction,Plated,PTH,ViaDrill
T1C0.200
; #@! TA.AperFunction,Plated,PTH,ComponentDrill
T2C0.600
; #@! TA.AperFunction,Plated,PTH,ComponentDrill
T3C0.800
; #@! TA.AperFunction,Plated,PTH,ComponentDrill
T4C0.890
; #@! TA.AperFunction,Plated,PTH,ComponentDrill
T5C1.000
; #@! TA.AperFunction,Plated,PTH,ComponentDrill
T6C1.020
; #@! TA.AperFunction,Plated,PTH,ComponentDrill
T7C1.200
; #@! TA.AperFunction,Plated,PTH,ComponentDrill
T8C1.300
; #@! TA.AperFunction,Plated,PTH,ComponentDrill
T9C1.500
; #@! TA.AperFunction,Plated,PTH,ComponentDrill
T10C1.630
; #@! TA.AperFunction,Plated,PTH,ComponentDrill
T11C1.700
; #@! TA.AperFunction,NonPlated,NPTH,ComponentDrill
T12C0.650
; #@! TA.AperFunction,NonPlated,NPTH,ComponentDrill
T13C3.250
%
G90
G05
T1
X11.964Y-80.245
X15.846Y-102.671
X15.858Y-100.584
X16.867Y-85.578
X22.691Y-103.25
X25.153Y-103.441
X25.577Y-104.792
X25.814Y-102.436
X26.0Y-86.068
X26.75Y-100.958
X29.492Y-76.944
X30.181Y-100.977
X30.381Y-60.367
X30.633Y-90.376
X31.291Y-99.837
X32.18Y-61.049
X33.282Y-101.25
X33.299Y-102.25
X33.598Y-61.307
X33.885Y-102.522
X34.38Y-103.321
X36.372Y-62.556
X40.336Y-62.482
X40.84Y-106.37
X41.601Y-120.0
X43.966Y-88.409
X44.999Y-128.582
X51.473Y-78.648
X53.198Y-74.858
X54.791Y-103.381
X54.818Y-74.869
X55.36Y-112.852
X55.563Y-106.791
X55.854Y-118.959
X58.174Y-123.409
X58.378Y-25.514
X58.401Y-32.168
X58.401Y-36.619
X58.411Y-32.837
X59.542Y-113.988
X59.985Y-111.85
X60.0Y-85.707
X60.274Y-107.078
X60.334Y-79.358
X63.038Y-72.339
X63.888Y-62.017
X64.187Y-113.343
X65.214Y-77.638
X65.291Y-69.115
X66.0Y-113.642
X69.114Y-12.095
X70.81Y-95.304
X71.312Y-94.304
X71.796Y-86.485
X71.85Y-14.789
X72.24Y-97.19
X72.393Y-20.0
X72.735Y-76.777
X73.576Y-81.091
X73.602Y-89.585
X74.201Y-67.05
X76.903Y-13.13
X77.454Y-71.78
X79.209Y-15.163
X80.88Y-8.878
X81.915Y-15.132
X81.954Y-78.152
X82.484Y-32.837
X83.476Y-93.005
X84.161Y-70.799
X84.902Y-17.3
X86.138Y-15.647
X86.604Y-89.597
X87.181Y-14.0
X87.691Y-21.127
X89.422Y-75.01
X90.783Y-90.187
X92.191Y-134.536
X93.897Y-62.672
X99.375Y-80.927
X100.0Y-87.803
X101.947Y-94.096
X102.0Y-64.121
X104.553Y-54.654
X106.197Y-82.843
X106.388Y-78.901
X106.632Y-53.932
X107.396Y-38.844
X107.823Y-85.578
X108.825Y-72.721
X110.607Y-38.844
X112.225Y-53.447
X113.373Y-82.14
X113.775Y-58.098
X114.992Y-12.768
X115.0Y-80.789
X116.206Y-60.847
X117.293Y-75.002
X123.631Y-62.069
X126.163Y-56.648
X126.843Y-94.479
X128.764Y-96.366
X129.137Y-53.35
X129.477Y-67.266
X129.984Y-54.658
X132.173Y-85.576
X133.391Y-12.799
X133.995Y-86.073
X134.106Y-32.168
X134.925Y-70.385
X135.145Y-75.003
X139.889Y-82.198
X141.375Y-55.0
X143.717Y-96.233
X144.195Y-106.083
X144.536Y-54.421
X146.079Y-96.223
X146.62Y-57.093
X149.232Y-94.486
X149.56Y-85.548
X149.695Y-123.051
X150.646Y-106.811
X151.0Y-88.102
X151.011Y-90.717
X152.05Y-118.871
X153.954Y-101.05
X154.287Y-79.199
X156.0Y-80.284
X158.157Y-63.368
X159.419Y-74.451
X159.528Y-102.0
X160.56Y-68.479
X161.7Y-94.332
X162.633Y-74.992
X162.808Y-103.649
X163.248Y-37.049
X165.184Y-61.342
X165.566Y-67.97
X165.746Y-61.875
X170.822Y-127.86
X171.116Y-115.07
X171.824Y-85.401
X172.684Y-115.068
X173.333Y-26.985
X173.971Y-27.495
X175.271Y-90.183
X176.148Y-126.0
X177.19Y-81.127
X181.263Y-60.847
X183.686Y-64.121
X186.16Y-102.534
X187.119Y-84.913
X187.15Y-81.13
X188.0Y-102.911
X191.832Y-96.635
X192.188Y-105.606
X193.225Y-82.881
X193.858Y-96.0
X194.181Y-87.803
X196.512Y-120.711
X196.912Y-94.902
X202.162Y-112.282
X204.022Y-111.606
X207.143Y-122.938
X207.412Y-92.859
X208.284Y-127.106
X209.552Y-68.502
X212.411Y-134.536
T3
X44.0Y-107.0
X44.0Y-109.54
X51.62Y-107.0
X51.62Y-109.54
X64.0Y-132.0
X66.0Y-132.0
X75.0Y-104.0
X75.0Y-106.54
X82.62Y-104.0
X82.62Y-106.54
X108.0Y-102.0
X110.0Y-102.0
X124.0Y-102.0
X125.0Y-87.0
X126.0Y-102.0
X127.0Y-87.0
X143.0Y-112.0
X150.5Y-114.0
T4
X76.0Y-116.0
X77.26Y-113.46
X78.54Y-116.0
X79.8Y-113.46
X81.08Y-116.0
X82.34Y-113.46
X83.62Y-116.0
X84.88Y-113.46
T5
X8.0Y-108.0
X8.0Y-110.54
X8.0Y-113.08
X8.0Y-115.62
X8.0Y-118.16
X8.0Y-120.7
X33.0Y-117.0
X33.0Y-119.54
X33.0Y-122.08
X33.0Y-124.62
X33.0Y-127.16
X33.0Y-129.7
X68.0Y-54.0
X68.0Y-56.54
X68.0Y-59.08
X68.0Y-61.62
X68.0Y-64.16
X68.0Y-66.7
X68.0Y-69.24
X68.0Y-71.78
X68.0Y-74.32
X68.0Y-76.86
X68.0Y-79.4
X68.0Y-81.94
X68.0Y-84.48
X68.0Y-87.02
X68.0Y-89.56
X68.0Y-92.1
X68.0Y-94.64
X68.0Y-97.18
X68.0Y-99.72
X68.0Y-102.26
X68.0Y-104.8
X68.0Y-107.34
X88.32Y-54.0
X88.32Y-56.54
X88.32Y-59.08
X88.32Y-61.62
X88.32Y-64.16
X88.32Y-66.7
X88.32Y-69.24
X88.32Y-71.78
X88.32Y-74.32
X88.32Y-76.86
X88.32Y-79.4
X88.32Y-81.94
X88.32Y-84.48
X88.32Y-87.02
X88.32Y-89.56
X88.32Y-92.1
X88.32Y-94.64
X88.32Y-97.18
X88.32Y-99.72
X88.32Y-102.26
X88.32Y-104.8
X88.32Y-107.34
X94.0Y-114.0
X94.0Y-116.54
X94.0Y-119.08
X94.0Y-121.62
X94.0Y-124.16
X94.0Y-126.7
X117.0Y-95.0
X117.0Y-97.54
X117.0Y-100.08
X117.0Y-102.62
X133.0Y-95.0
X133.0Y-97.54
X133.0Y-100.08
X133.0Y-102.62
X140.0Y-93.0
X140.0Y-95.54
X140.0Y-98.08
X140.0Y-100.62
X140.0Y-103.16
X140.0Y-105.7
X156.0Y-87.0
X156.0Y-89.54
X156.0Y-92.08
X156.0Y-94.62
X156.0Y-97.16
X156.0Y-99.7
X160.0Y-108.0
X160.0Y-110.54
X160.0Y-113.08
X160.0Y-115.62
X160.0Y-118.16
X160.0Y-120.7
X164.0Y-80.0
X164.0Y-82.54
X164.0Y-85.08
X164.0Y-87.62
X164.0Y-90.16
X164.0Y-92.7
X171.0Y-89.0
X171.0Y-91.54
X171.0Y-94.08
X171.0Y-96.62
X171.0Y-99.16
X171.0Y-101.7
X188.0Y-108.0
X188.0Y-110.54
X188.0Y-113.08
X188.0Y-115.62
X188.0Y-118.16
X188.0Y-120.7
X211.0Y-105.0
X211.0Y-107.54
X211.0Y-110.08
X211.0Y-112.62
X211.0Y-115.16
X211.0Y-117.7
T6
X73.815Y-127.26
X76.355Y-127.26
X84.525Y-127.26
X87.065Y-127.26
T7
X12.0Y-129.0
X15.5Y-129.0
X19.0Y-129.0
X109.0Y-111.0
X112.5Y-111.0
X116.0Y-111.0
X125.0Y-111.0
X128.5Y-111.0
X132.0Y-111.0
T8
X22.0Y-12.0
X25.0Y-68.38
X25.0Y-76.0
X26.6Y-12.0
X35.16Y-76.0
X37.9Y-12.0
X40.24Y-68.38
X42.5Y-12.0
X42.78Y-76.0
X43.0Y-92.38
X43.0Y-100.0
X53.16Y-100.0
X58.24Y-92.38
X60.78Y-100.0
X118.0Y-30.0
X118.0Y-37.8
X123.0Y-129.0
X127.6Y-129.0
X138.9Y-129.0
X143.5Y-129.0
X156.0Y-130.0
X160.5Y-22.6
X160.5Y-45.2
X161.0Y-130.0
X166.0Y-130.0
T9
X188.0Y-130.0
T10
X72.695Y-119.31
X88.185Y-119.31
T11
X185.46Y-127.46
X185.46Y-132.54
X190.54Y-127.46
X190.54Y-132.54
T12
X169.11Y-115.4
X174.89Y-115.4
T13
X74.725Y-122.36
X86.155Y-122.36
T2
X167.68Y-114.32G85X167.68Y-115.42
G05
X167.68Y-118.75G85X167.68Y-119.35
G05
X176.32Y-114.32G85X176.32Y-115.42
G05
X176.32Y-118.75G85X176.32Y-119.35
G05
T5
X176.0Y-15.0G85X176.0Y-17.0
G05
X178.0Y-20.7G85X180.0Y-20.7
G05
X182.0Y-15.0G85X182.0Y-17.0
G05
M30
