M48
; DRILL file KiCad 10.0.3 date 2026-05-25T09:22:22
; FORMAT={-:-/ absolute / metric / decimal}
; #@! TF.CreationDate,2026-05-25T09:22:22+02:00
; #@! TF.GenerationSoftware,Kicad,Pcbnew,10.0.3
; #@! TF.FileFunction,MixedPlating,1,2
FMAT,2
METRIC
; #@! TA.AperFunction,Plated,PTH,ComponentDrill
T1C0.200
; #@! TA.AperFunction,Plated,PTH,ViaDrill
T2C0.300
; #@! TA.AperFunction,Plated,PTH,ComponentDrill
T3C0.800
; #@! TA.AperFunction,Plated,PTH,ComponentDrill
T4C1.000
; #@! TA.AperFunction,Plated,PTH,ComponentDrill
T5C1.200
; #@! TA.AperFunction,Plated,PTH,ComponentDrill
T6C1.300
; #@! TA.AperFunction,Plated,PTH,ComponentDrill
T7C1.500
; #@! TA.AperFunction,Plated,PTH,ComponentDrill
T8C1.700
%
G90
G05
T1
X77.1Y-59.76
X77.1Y-61.16
X77.8Y-59.06
X77.8Y-60.46
X77.8Y-61.86
X78.5Y-59.76
X78.5Y-61.16
X79.2Y-59.06
X79.2Y-60.46
X79.2Y-61.86
X79.9Y-59.76
X79.9Y-61.16
T2
X19.1Y-12.0
X19.1Y-25.0
X30.5Y-12.0
X30.5Y-25.0
X33.66Y-61.05
X33.66Y-76.0
X43.5Y-22.0
X43.5Y-25.0
X64.025Y-13.365
X64.025Y-76.0
X72.75Y-40.65
X72.75Y-54.01
X77.1Y-13.365
X77.1Y-16.0
X82.362Y-14.95
X82.362Y-31.262
X87.25Y-64.17
X87.25Y-76.0
X90.25Y-29.5
X90.25Y-39.35
X90.25Y-57.82
X90.25Y-62.9
X117.456Y-28.737
X117.456Y-40.65
X118.794Y-31.262
X118.794Y-40.65
X126.0Y-16.5
X126.0Y-17.5
X126.0Y-21.5
X126.0Y-28.737
X126.0Y-31.262
X126.0Y-39.35
X144.0Y-16.0
X144.0Y-23.5
T3
X18.0Y-58.0
X18.0Y-60.54
X25.62Y-58.0
X25.62Y-60.54
X32.0Y-25.0
X39.5Y-27.0
T4
X28.0Y-92.0
X28.0Y-94.54
X45.0Y-22.0
X45.0Y-28.0
X67.0Y-76.0
X67.0Y-78.54
X78.6Y-16.0
X78.6Y-34.0
T5
X10.0Y-25.0
X13.5Y-25.0
T6
X25.0Y-68.38
X25.0Y-76.0
X35.16Y-76.0
X40.24Y-68.38
X42.78Y-76.0
T7
X152.0Y-16.0
T8
X149.46Y-13.46
X149.46Y-18.54
X154.54Y-13.46
X154.54Y-18.54
M30
