%TF.GenerationSoftware,KiCad,Pcbnew,10.0.3*%
%TF.CreationDate,2026-05-25T19:37:30+02:00*%
%TF.ProjectId,esp32_s3_dwm3000_uwb_anchor_with_relay_outputs,65737033-325f-4733-935f-64776d333030,rev?*%
%TF.SameCoordinates,Original*%
%TF.FileFunction,Soldermask,Bot*%
%TF.FilePolarity,Negative*%
%FSLAX46Y46*%
G04 Gerber Fmt 4.6, Leading zero omitted, Abs format (unit mm)*
G04 Created by KiCad (PCBNEW 10.0.3) date 2026-05-25 19:37:30*
%MOMM*%
%LPD*%
G01*
G04 APERTURE LIST*
G04 APERTURE END LIST*
G36*
X65246742Y-77726601D02*
G01*
X65400687Y-77790367D01*
X65539234Y-77882941D01*
X65657059Y-78000766D01*
X65749633Y-78139313D01*
X65813399Y-78293258D01*
X65845907Y-78456685D01*
X65845907Y-78623315D01*
X65813399Y-78786742D01*
X65749633Y-78940687D01*
X65657059Y-79079234D01*
X65539234Y-79197059D01*
X65400687Y-79289633D01*
X65246742Y-79353399D01*
X65083315Y-79385907D01*
X64916685Y-79385907D01*
X64753258Y-79353399D01*
X64599313Y-79289633D01*
X64460766Y-79197059D01*
X64342941Y-79079234D01*
X64250367Y-78940687D01*
X64186601Y-78786742D01*
X64154093Y-78623315D01*
X64154093Y-78456685D01*
X64186601Y-78293258D01*
X64250367Y-78139313D01*
X64342941Y-78000766D01*
X64460766Y-77882941D01*
X64599313Y-77790367D01*
X64753258Y-77726601D01*
X64916685Y-77694093D01*
X65083315Y-77694093D01*
X65246742Y-77726601D01*
G37*
G36*
X26150000Y-77150000D02*
G01*
X23850000Y-77150000D01*
X23850000Y-74850000D01*
X26150000Y-74850000D01*
X26150000Y-77150000D01*
G37*
G36*
X35428462Y-74881775D02*
G01*
X35600086Y-74937539D01*
X35760873Y-75019464D01*
X35906865Y-75125533D01*
X36034467Y-75253135D01*
X36140536Y-75399127D01*
X36222461Y-75559914D01*
X36278225Y-75731538D01*
X36306455Y-75909772D01*
X36306455Y-76090228D01*
X36278225Y-76268462D01*
X36222461Y-76440086D01*
X36140536Y-76600873D01*
X36034467Y-76746865D01*
X35906865Y-76874467D01*
X35760873Y-76980536D01*
X35600086Y-77062461D01*
X35428462Y-77118225D01*
X35250228Y-77146455D01*
X35069772Y-77146455D01*
X34891538Y-77118225D01*
X34719914Y-77062461D01*
X34559127Y-76980536D01*
X34413135Y-76874467D01*
X34285533Y-76746865D01*
X34179464Y-76600873D01*
X34097539Y-76440086D01*
X34041775Y-76268462D01*
X34013545Y-76090228D01*
X34013545Y-75909772D01*
X34041775Y-75731538D01*
X34097539Y-75559914D01*
X34179464Y-75399127D01*
X34285533Y-75253135D01*
X34413135Y-75125533D01*
X34559127Y-75019464D01*
X34719914Y-74937539D01*
X34891538Y-74881775D01*
X35069772Y-74853545D01*
X35250228Y-74853545D01*
X35428462Y-74881775D01*
G37*
G36*
X43048462Y-74881775D02*
G01*
X43220086Y-74937539D01*
X43380873Y-75019464D01*
X43526865Y-75125533D01*
X43654467Y-75253135D01*
X43760536Y-75399127D01*
X43842461Y-75559914D01*
X43898225Y-75731538D01*
X43926455Y-75909772D01*
X43926455Y-76090228D01*
X43898225Y-76268462D01*
X43842461Y-76440086D01*
X43760536Y-76600873D01*
X43654467Y-76746865D01*
X43526865Y-76874467D01*
X43380873Y-76980536D01*
X43220086Y-77062461D01*
X43048462Y-77118225D01*
X42870228Y-77146455D01*
X42689772Y-77146455D01*
X42511538Y-77118225D01*
X42339914Y-77062461D01*
X42179127Y-76980536D01*
X42033135Y-76874467D01*
X41905533Y-76746865D01*
X41799464Y-76600873D01*
X41717539Y-76440086D01*
X41661775Y-76268462D01*
X41633545Y-76090228D01*
X41633545Y-75909772D01*
X41661775Y-75731538D01*
X41717539Y-75559914D01*
X41799464Y-75399127D01*
X41905533Y-75253135D01*
X42033135Y-75125533D01*
X42179127Y-75019464D01*
X42339914Y-74937539D01*
X42511538Y-74881775D01*
X42689772Y-74853545D01*
X42870228Y-74853545D01*
X43048462Y-74881775D01*
G37*
G36*
X65850000Y-76850000D02*
G01*
X64150000Y-76850000D01*
X64150000Y-75150000D01*
X65850000Y-75150000D01*
X65850000Y-76850000D01*
G37*
G36*
X25268462Y-67261775D02*
G01*
X25440086Y-67317539D01*
X25600873Y-67399464D01*
X25746865Y-67505533D01*
X25874467Y-67633135D01*
X25980536Y-67779127D01*
X26062461Y-67939914D01*
X26118225Y-68111538D01*
X26146455Y-68289772D01*
X26146455Y-68470228D01*
X26118225Y-68648462D01*
X26062461Y-68820086D01*
X25980536Y-68980873D01*
X25874467Y-69126865D01*
X25746865Y-69254467D01*
X25600873Y-69360536D01*
X25440086Y-69442461D01*
X25268462Y-69498225D01*
X25090228Y-69526455D01*
X24909772Y-69526455D01*
X24731538Y-69498225D01*
X24559914Y-69442461D01*
X24399127Y-69360536D01*
X24253135Y-69254467D01*
X24125533Y-69126865D01*
X24019464Y-68980873D01*
X23937539Y-68820086D01*
X23881775Y-68648462D01*
X23853545Y-68470228D01*
X23853545Y-68289772D01*
X23881775Y-68111538D01*
X23937539Y-67939914D01*
X24019464Y-67779127D01*
X24125533Y-67633135D01*
X24253135Y-67505533D01*
X24399127Y-67399464D01*
X24559914Y-67317539D01*
X24731538Y-67261775D01*
X24909772Y-67233545D01*
X25090228Y-67233545D01*
X25268462Y-67261775D01*
G37*
G36*
X40508462Y-67261775D02*
G01*
X40680086Y-67317539D01*
X40840873Y-67399464D01*
X40986865Y-67505533D01*
X41114467Y-67633135D01*
X41220536Y-67779127D01*
X41302461Y-67939914D01*
X41358225Y-68111538D01*
X41386455Y-68289772D01*
X41386455Y-68470228D01*
X41358225Y-68648462D01*
X41302461Y-68820086D01*
X41220536Y-68980873D01*
X41114467Y-69126865D01*
X40986865Y-69254467D01*
X40840873Y-69360536D01*
X40680086Y-69442461D01*
X40508462Y-69498225D01*
X40330228Y-69526455D01*
X40149772Y-69526455D01*
X39971538Y-69498225D01*
X39799914Y-69442461D01*
X39639127Y-69360536D01*
X39493135Y-69254467D01*
X39365533Y-69126865D01*
X39259464Y-68980873D01*
X39177539Y-68820086D01*
X39121775Y-68648462D01*
X39093545Y-68470228D01*
X39093545Y-68289772D01*
X39121775Y-68111538D01*
X39177539Y-67939914D01*
X39259464Y-67779127D01*
X39365533Y-67633135D01*
X39493135Y-67505533D01*
X39639127Y-67399464D01*
X39799914Y-67317539D01*
X39971538Y-67261775D01*
X40149772Y-67233545D01*
X40330228Y-67233545D01*
X40508462Y-67261775D01*
G37*
G36*
X108246742Y-63546601D02*
G01*
X108400687Y-63610367D01*
X108539234Y-63702941D01*
X108657059Y-63820766D01*
X108749633Y-63959313D01*
X108813399Y-64113258D01*
X108845907Y-64276685D01*
X108845907Y-64443315D01*
X108813399Y-64606742D01*
X108749633Y-64760687D01*
X108657059Y-64899234D01*
X108539234Y-65017059D01*
X108400687Y-65109633D01*
X108246742Y-65173399D01*
X108083315Y-65205907D01*
X107916685Y-65205907D01*
X107753258Y-65173399D01*
X107599313Y-65109633D01*
X107460766Y-65017059D01*
X107342941Y-64899234D01*
X107250367Y-64760687D01*
X107186601Y-64606742D01*
X107154093Y-64443315D01*
X107154093Y-64276685D01*
X107186601Y-64113258D01*
X107250367Y-63959313D01*
X107342941Y-63820766D01*
X107460766Y-63702941D01*
X107599313Y-63610367D01*
X107753258Y-63546601D01*
X107916685Y-63514093D01*
X108083315Y-63514093D01*
X108246742Y-63546601D01*
G37*
G36*
X108850000Y-62670000D02*
G01*
X107150000Y-62670000D01*
X107150000Y-60970000D01*
X108850000Y-60970000D01*
X108850000Y-62670000D01*
G37*
G36*
X18232228Y-59774448D02*
G01*
X18377117Y-59834463D01*
X18507515Y-59921592D01*
X18618408Y-60032485D01*
X18705537Y-60162883D01*
X18765552Y-60307772D01*
X18796148Y-60461586D01*
X18796148Y-60618414D01*
X18765552Y-60772228D01*
X18705537Y-60917117D01*
X18618408Y-61047515D01*
X18507515Y-61158408D01*
X18377117Y-61245537D01*
X18232228Y-61305552D01*
X18078414Y-61336148D01*
X17921586Y-61336148D01*
X17767772Y-61305552D01*
X17622883Y-61245537D01*
X17492485Y-61158408D01*
X17381592Y-61047515D01*
X17294463Y-60917117D01*
X17234448Y-60772228D01*
X17203852Y-60618414D01*
X17203852Y-60461586D01*
X17234448Y-60307772D01*
X17294463Y-60162883D01*
X17381592Y-60032485D01*
X17492485Y-59921592D01*
X17622883Y-59834463D01*
X17767772Y-59774448D01*
X17921586Y-59743852D01*
X18078414Y-59743852D01*
X18232228Y-59774448D01*
G37*
G36*
X25852228Y-59774448D02*
G01*
X25997117Y-59834463D01*
X26127515Y-59921592D01*
X26238408Y-60032485D01*
X26325537Y-60162883D01*
X26385552Y-60307772D01*
X26416148Y-60461586D01*
X26416148Y-60618414D01*
X26385552Y-60772228D01*
X26325537Y-60917117D01*
X26238408Y-61047515D01*
X26127515Y-61158408D01*
X25997117Y-61245537D01*
X25852228Y-61305552D01*
X25698414Y-61336148D01*
X25541586Y-61336148D01*
X25387772Y-61305552D01*
X25242883Y-61245537D01*
X25112485Y-61158408D01*
X25001592Y-61047515D01*
X24914463Y-60917117D01*
X24854448Y-60772228D01*
X24823852Y-60618414D01*
X24823852Y-60461586D01*
X24854448Y-60307772D01*
X24914463Y-60162883D01*
X25001592Y-60032485D01*
X25112485Y-59921592D01*
X25242883Y-59834463D01*
X25387772Y-59774448D01*
X25541586Y-59743852D01*
X25698414Y-59743852D01*
X25852228Y-59774448D01*
G37*
G36*
X18554047Y-57200805D02*
G01*
X18605408Y-57206764D01*
X18622954Y-57214511D01*
X18645671Y-57219030D01*
X18669991Y-57235280D01*
X18690793Y-57244465D01*
X18705000Y-57258672D01*
X18726777Y-57273223D01*
X18741327Y-57294999D01*
X18755534Y-57309206D01*
X18764718Y-57330006D01*
X18780970Y-57354329D01*
X18785489Y-57377048D01*
X18793235Y-57394591D01*
X18799192Y-57445940D01*
X18800000Y-57450000D01*
X18800000Y-58550000D01*
X18799192Y-58554059D01*
X18793235Y-58605408D01*
X18785489Y-58622950D01*
X18780970Y-58645671D01*
X18764716Y-58669995D01*
X18755534Y-58690793D01*
X18741329Y-58704997D01*
X18726777Y-58726777D01*
X18704997Y-58741329D01*
X18690793Y-58755534D01*
X18669995Y-58764716D01*
X18645671Y-58780970D01*
X18622950Y-58785489D01*
X18605408Y-58793235D01*
X18554061Y-58799192D01*
X18550000Y-58800000D01*
X17450000Y-58800000D01*
X17445941Y-58799192D01*
X17394591Y-58793235D01*
X17377048Y-58785489D01*
X17354329Y-58780970D01*
X17330006Y-58764718D01*
X17309206Y-58755534D01*
X17294999Y-58741327D01*
X17273223Y-58726777D01*
X17258672Y-58705000D01*
X17244465Y-58690793D01*
X17235280Y-58669991D01*
X17219030Y-58645671D01*
X17214511Y-58622954D01*
X17206764Y-58605408D01*
X17200805Y-58554049D01*
X17200000Y-58550000D01*
X17200000Y-57450000D01*
X17200804Y-57445953D01*
X17206764Y-57394591D01*
X17214511Y-57377043D01*
X17219030Y-57354329D01*
X17235278Y-57330010D01*
X17244465Y-57309206D01*
X17258674Y-57294996D01*
X17273223Y-57273223D01*
X17294996Y-57258674D01*
X17309206Y-57244465D01*
X17330010Y-57235278D01*
X17354329Y-57219030D01*
X17377043Y-57214511D01*
X17394591Y-57206764D01*
X17445952Y-57200805D01*
X17450000Y-57200000D01*
X18550000Y-57200000D01*
X18554047Y-57200805D01*
G37*
G36*
X25852228Y-57234448D02*
G01*
X25997117Y-57294463D01*
X26127515Y-57381592D01*
X26238408Y-57492485D01*
X26325537Y-57622883D01*
X26385552Y-57767772D01*
X26416148Y-57921586D01*
X26416148Y-58078414D01*
X26385552Y-58232228D01*
X26325537Y-58377117D01*
X26238408Y-58507515D01*
X26127515Y-58618408D01*
X25997117Y-58705537D01*
X25852228Y-58765552D01*
X25698414Y-58796148D01*
X25541586Y-58796148D01*
X25387772Y-58765552D01*
X25242883Y-58705537D01*
X25112485Y-58618408D01*
X25001592Y-58507515D01*
X24914463Y-58377117D01*
X24854448Y-58232228D01*
X24823852Y-58078414D01*
X24823852Y-57921586D01*
X24854448Y-57767772D01*
X24914463Y-57622883D01*
X25001592Y-57492485D01*
X25112485Y-57381592D01*
X25242883Y-57294463D01*
X25387772Y-57234448D01*
X25541586Y-57203852D01*
X25698414Y-57203852D01*
X25852228Y-57234448D01*
G37*
G36*
X39761256Y-40138754D02*
G01*
X39924257Y-40206271D01*
X40070954Y-40304291D01*
X40195709Y-40429046D01*
X40293729Y-40575743D01*
X40361246Y-40738744D01*
X40395666Y-40911785D01*
X40395666Y-41088215D01*
X40361246Y-41261256D01*
X40293729Y-41424257D01*
X40195709Y-41570954D01*
X40070954Y-41695709D01*
X39924257Y-41793729D01*
X39761256Y-41861246D01*
X39588215Y-41895666D01*
X39411785Y-41895666D01*
X39238744Y-41861246D01*
X39075743Y-41793729D01*
X38929046Y-41695709D01*
X38804291Y-41570954D01*
X38706271Y-41424257D01*
X38638754Y-41261256D01*
X38604334Y-41088215D01*
X38604334Y-40911785D01*
X38638754Y-40738744D01*
X38706271Y-40575743D01*
X38804291Y-40429046D01*
X38929046Y-40304291D01*
X39075743Y-40206271D01*
X39238744Y-40138754D01*
X39411785Y-40104334D01*
X39588215Y-40104334D01*
X39761256Y-40138754D01*
G37*
G36*
X32261256Y-38138754D02*
G01*
X32424257Y-38206271D01*
X32570954Y-38304291D01*
X32695709Y-38429046D01*
X32793729Y-38575743D01*
X32861246Y-38738744D01*
X32895666Y-38911785D01*
X32895666Y-39088215D01*
X32861246Y-39261256D01*
X32793729Y-39424257D01*
X32695709Y-39570954D01*
X32570954Y-39695709D01*
X32424257Y-39793729D01*
X32261256Y-39861246D01*
X32088215Y-39895666D01*
X31911785Y-39895666D01*
X31738744Y-39861246D01*
X31575743Y-39793729D01*
X31429046Y-39695709D01*
X31304291Y-39570954D01*
X31206271Y-39424257D01*
X31138754Y-39261256D01*
X31104334Y-39088215D01*
X31104334Y-38911785D01*
X31138754Y-38738744D01*
X31206271Y-38575743D01*
X31304291Y-38429046D01*
X31429046Y-38304291D01*
X31575743Y-38206271D01*
X31738744Y-38138754D01*
X31911785Y-38104334D01*
X32088215Y-38104334D01*
X32261256Y-38138754D01*
G37*
G36*
X61846742Y-31036601D02*
G01*
X62000687Y-31100367D01*
X62139234Y-31192941D01*
X62257059Y-31310766D01*
X62349633Y-31449313D01*
X62413399Y-31603258D01*
X62445907Y-31766685D01*
X62450000Y-31850000D01*
X62450000Y-32150000D01*
X62445907Y-32233315D01*
X62413399Y-32396742D01*
X62349633Y-32550687D01*
X62257059Y-32689234D01*
X62139234Y-32807059D01*
X62000687Y-32899633D01*
X61846742Y-32963399D01*
X61683315Y-32995907D01*
X61516685Y-32995907D01*
X61353258Y-32963399D01*
X61199313Y-32899633D01*
X61060766Y-32807059D01*
X60942941Y-32689234D01*
X60850367Y-32550687D01*
X60786601Y-32396742D01*
X60754093Y-32233315D01*
X60750000Y-32150000D01*
X60750000Y-31850000D01*
X60754093Y-31766685D01*
X60786601Y-31603258D01*
X60850367Y-31449313D01*
X60942941Y-31310766D01*
X61060766Y-31192941D01*
X61199313Y-31100367D01*
X61353258Y-31036601D01*
X61516685Y-31004093D01*
X61683315Y-31004093D01*
X61846742Y-31036601D01*
G37*
G36*
X28246742Y-25036601D02*
G01*
X28400687Y-25100367D01*
X28539234Y-25192941D01*
X28657059Y-25310766D01*
X28749633Y-25449313D01*
X28813399Y-25603258D01*
X28845907Y-25766685D01*
X28850000Y-25850000D01*
X28850000Y-26150000D01*
X28845907Y-26233315D01*
X28813399Y-26396742D01*
X28749633Y-26550687D01*
X28657059Y-26689234D01*
X28539234Y-26807059D01*
X28400687Y-26899633D01*
X28246742Y-26963399D01*
X28083315Y-26995907D01*
X27916685Y-26995907D01*
X27753258Y-26963399D01*
X27599313Y-26899633D01*
X27460766Y-26807059D01*
X27342941Y-26689234D01*
X27250367Y-26550687D01*
X27186601Y-26396742D01*
X27154093Y-26233315D01*
X27150000Y-26150000D01*
X27150000Y-25850000D01*
X27154093Y-25766685D01*
X27186601Y-25603258D01*
X27250367Y-25449313D01*
X27342941Y-25310766D01*
X27460766Y-25192941D01*
X27599313Y-25100367D01*
X27753258Y-25036601D01*
X27916685Y-25004093D01*
X28083315Y-25004093D01*
X28246742Y-25036601D01*
G37*
G36*
X10954046Y-23800805D02*
G01*
X11005407Y-23806764D01*
X11022953Y-23814511D01*
X11045670Y-23819030D01*
X11069987Y-23835278D01*
X11090793Y-23844465D01*
X11105004Y-23858676D01*
X11126776Y-23873224D01*
X11141323Y-23894995D01*
X11155534Y-23909206D01*
X11164719Y-23930010D01*
X11180970Y-23954330D01*
X11185488Y-23977047D01*
X11193235Y-23994592D01*
X11199196Y-24045966D01*
X11199999Y-24050002D01*
X11199999Y-24052883D01*
X11200000Y-24052892D01*
X11200000Y-25004093D01*
X11200000Y-25949999D01*
X11199194Y-25954048D01*
X11193235Y-26005407D01*
X11185489Y-26022949D01*
X11180970Y-26045670D01*
X11164718Y-26069991D01*
X11155534Y-26090793D01*
X11141325Y-26105001D01*
X11126776Y-26126776D01*
X11105001Y-26141325D01*
X11090793Y-26155534D01*
X11069991Y-26164718D01*
X11045670Y-26180970D01*
X11022950Y-26185488D01*
X11005407Y-26193235D01*
X10954034Y-26199196D01*
X10949998Y-26199999D01*
X10947115Y-26199999D01*
X10947107Y-26200000D01*
X9052893Y-26200000D01*
X9052892Y-26199999D01*
X9050001Y-26200000D01*
X9045951Y-26199194D01*
X8994592Y-26193235D01*
X8977048Y-26185488D01*
X8954330Y-26180970D01*
X8930010Y-26164719D01*
X8909206Y-26155534D01*
X8894995Y-26141323D01*
X8873224Y-26126776D01*
X8858676Y-26105004D01*
X8844465Y-26090793D01*
X8835278Y-26069987D01*
X8819030Y-26045670D01*
X8814511Y-26022954D01*
X8806764Y-26005407D01*
X8800803Y-25954033D01*
X8800001Y-25949998D01*
X8800000Y-25947115D01*
X8800000Y-25947107D01*
X8800000Y-24052892D01*
X8800000Y-24052891D01*
X8800000Y-24050001D01*
X8800804Y-24045954D01*
X8806764Y-23994592D01*
X8814511Y-23977044D01*
X8819030Y-23954330D01*
X8835277Y-23930014D01*
X8844465Y-23909206D01*
X8858678Y-23894992D01*
X8873224Y-23873224D01*
X8894992Y-23858678D01*
X8909206Y-23844465D01*
X8930014Y-23835277D01*
X8954330Y-23819030D01*
X8977043Y-23814512D01*
X8994592Y-23806764D01*
X9045967Y-23800803D01*
X9050002Y-23800001D01*
X9052884Y-23800000D01*
X9052893Y-23800000D01*
X10947107Y-23800000D01*
X10949999Y-23800000D01*
X10954046Y-23800805D01*
G37*
G36*
X13780134Y-23833156D02*
G01*
X13959220Y-23891345D01*
X14126998Y-23976832D01*
X14279338Y-24087513D01*
X14412487Y-24220662D01*
X14523168Y-24373002D01*
X14608655Y-24540780D01*
X14666844Y-24719866D01*
X14696301Y-24905849D01*
X14696301Y-25094151D01*
X14666844Y-25280134D01*
X14608655Y-25459220D01*
X14523168Y-25626998D01*
X14412487Y-25779338D01*
X14279338Y-25912487D01*
X14126998Y-26023168D01*
X13959220Y-26108655D01*
X13780134Y-26166844D01*
X13594151Y-26196301D01*
X13405849Y-26196301D01*
X13219866Y-26166844D01*
X13040780Y-26108655D01*
X12873002Y-26023168D01*
X12720662Y-25912487D01*
X12587513Y-25779338D01*
X12476832Y-25626998D01*
X12391345Y-25459220D01*
X12333156Y-25280134D01*
X12303699Y-25094151D01*
X12303699Y-24905849D01*
X12333156Y-24719866D01*
X12391345Y-24540780D01*
X12476832Y-24373002D01*
X12587513Y-24220662D01*
X12720662Y-24087513D01*
X12873002Y-23976832D01*
X13040780Y-23891345D01*
X13219866Y-23833156D01*
X13405849Y-23803699D01*
X13594151Y-23803699D01*
X13780134Y-23833156D01*
G37*
G36*
X28604047Y-19000805D02*
G01*
X28655408Y-19006764D01*
X28672954Y-19014511D01*
X28695671Y-19019030D01*
X28719991Y-19035280D01*
X28740793Y-19044465D01*
X28755000Y-19058672D01*
X28776777Y-19073223D01*
X28791327Y-19094999D01*
X28805534Y-19109206D01*
X28814718Y-19130006D01*
X28830970Y-19154329D01*
X28835489Y-19177048D01*
X28843235Y-19194591D01*
X28849192Y-19245940D01*
X28850000Y-19250000D01*
X28850000Y-20750000D01*
X28849192Y-20754059D01*
X28843235Y-20805408D01*
X28835489Y-20822950D01*
X28830970Y-20845671D01*
X28814716Y-20869995D01*
X28805534Y-20890793D01*
X28791329Y-20904997D01*
X28776777Y-20926777D01*
X28754997Y-20941329D01*
X28740793Y-20955534D01*
X28719995Y-20964716D01*
X28695671Y-20980970D01*
X28672950Y-20985489D01*
X28655408Y-20993235D01*
X28604061Y-20999192D01*
X28600000Y-21000000D01*
X27400000Y-21000000D01*
X27395941Y-20999192D01*
X27344591Y-20993235D01*
X27327048Y-20985489D01*
X27304329Y-20980970D01*
X27280006Y-20964718D01*
X27259206Y-20955534D01*
X27244999Y-20941327D01*
X27223223Y-20926777D01*
X27208672Y-20905000D01*
X27194465Y-20890793D01*
X27185280Y-20869991D01*
X27169030Y-20845671D01*
X27164511Y-20822954D01*
X27156764Y-20805408D01*
X27150805Y-20754049D01*
X27150000Y-20750000D01*
X27150000Y-19250000D01*
X27150804Y-19245953D01*
X27156764Y-19194591D01*
X27164511Y-19177043D01*
X27169030Y-19154329D01*
X27185278Y-19130010D01*
X27194465Y-19109206D01*
X27208674Y-19094996D01*
X27223223Y-19073223D01*
X27244996Y-19058674D01*
X27259206Y-19044465D01*
X27280010Y-19035278D01*
X27304329Y-19019030D01*
X27327043Y-19014511D01*
X27344591Y-19006764D01*
X27395952Y-19000805D01*
X27400000Y-19000000D01*
X28600000Y-19000000D01*
X28604047Y-19000805D01*
G37*
G36*
X149722626Y-17446084D02*
G01*
X149890519Y-17500636D01*
X150047811Y-17580780D01*
X150190629Y-17684543D01*
X150315457Y-17809371D01*
X150419220Y-17952189D01*
X150499364Y-18109481D01*
X150553916Y-18277374D01*
X150581532Y-18451734D01*
X150581532Y-18628266D01*
X150553916Y-18802626D01*
X150499364Y-18970519D01*
X150419220Y-19127811D01*
X150315457Y-19270629D01*
X150190629Y-19395457D01*
X150047811Y-19499220D01*
X149890519Y-19579364D01*
X149722626Y-19633916D01*
X149548266Y-19661532D01*
X149371734Y-19661532D01*
X149197374Y-19633916D01*
X149029481Y-19579364D01*
X148872189Y-19499220D01*
X148729371Y-19395457D01*
X148604543Y-19270629D01*
X148500780Y-19127811D01*
X148420636Y-18970519D01*
X148366084Y-18802626D01*
X148338468Y-18628266D01*
X148338468Y-18451734D01*
X148366084Y-18277374D01*
X148420636Y-18109481D01*
X148500780Y-17952189D01*
X148604543Y-17809371D01*
X148729371Y-17684543D01*
X148872189Y-17580780D01*
X149029481Y-17500636D01*
X149197374Y-17446084D01*
X149371734Y-17418468D01*
X149548266Y-17418468D01*
X149722626Y-17446084D01*
G37*
G36*
X154802626Y-17446084D02*
G01*
X154970519Y-17500636D01*
X155127811Y-17580780D01*
X155270629Y-17684543D01*
X155395457Y-17809371D01*
X155499220Y-17952189D01*
X155579364Y-18109481D01*
X155633916Y-18277374D01*
X155661532Y-18451734D01*
X155661532Y-18628266D01*
X155633916Y-18802626D01*
X155579364Y-18970519D01*
X155499220Y-19127811D01*
X155395457Y-19270629D01*
X155270629Y-19395457D01*
X155127811Y-19499220D01*
X154970519Y-19579364D01*
X154802626Y-19633916D01*
X154628266Y-19661532D01*
X154451734Y-19661532D01*
X154277374Y-19633916D01*
X154109481Y-19579364D01*
X153952189Y-19499220D01*
X153809371Y-19395457D01*
X153684543Y-19270629D01*
X153580780Y-19127811D01*
X153500636Y-18970519D01*
X153446084Y-18802626D01*
X153418468Y-18628266D01*
X153418468Y-18451734D01*
X153446084Y-18277374D01*
X153500636Y-18109481D01*
X153580780Y-17952189D01*
X153684543Y-17809371D01*
X153809371Y-17684543D01*
X153952189Y-17580780D01*
X154109481Y-17500636D01*
X154277374Y-17446084D01*
X154451734Y-17418468D01*
X154628266Y-17418468D01*
X154802626Y-17446084D01*
G37*
G36*
X152090652Y-14979936D02*
G01*
X152100468Y-14979936D01*
X152138820Y-14987564D01*
X152239241Y-15003469D01*
X152271541Y-15013964D01*
X152297542Y-15019136D01*
X152334234Y-15034334D01*
X152392194Y-15053167D01*
X152446493Y-15080834D01*
X152483182Y-15096031D01*
X152505222Y-15110758D01*
X152535480Y-15126175D01*
X152617730Y-15185933D01*
X152650253Y-15207664D01*
X152657193Y-15214604D01*
X152665579Y-15220697D01*
X152779302Y-15334420D01*
X152785394Y-15342805D01*
X152792336Y-15349747D01*
X152814069Y-15382273D01*
X152873824Y-15464519D01*
X152889239Y-15494774D01*
X152903969Y-15516818D01*
X152919168Y-15553511D01*
X152946832Y-15607805D01*
X152965662Y-15665757D01*
X152980864Y-15702458D01*
X152986036Y-15728463D01*
X152996530Y-15760758D01*
X153012434Y-15861173D01*
X153020064Y-15899532D01*
X153020064Y-15909347D01*
X153021686Y-15919588D01*
X153021686Y-16080411D01*
X153020064Y-16090651D01*
X153020064Y-16100468D01*
X153012433Y-16138829D01*
X152996530Y-16239241D01*
X152986037Y-16271533D01*
X152980864Y-16297542D01*
X152965660Y-16334245D01*
X152946832Y-16392194D01*
X152919170Y-16446483D01*
X152903969Y-16483182D01*
X152889237Y-16505229D01*
X152873824Y-16535480D01*
X152814078Y-16617713D01*
X152792336Y-16650253D01*
X152785391Y-16657197D01*
X152779302Y-16665579D01*
X152665579Y-16779302D01*
X152657197Y-16785391D01*
X152650253Y-16792336D01*
X152617713Y-16814078D01*
X152535480Y-16873824D01*
X152505229Y-16889237D01*
X152483182Y-16903969D01*
X152446483Y-16919170D01*
X152392194Y-16946832D01*
X152334245Y-16965660D01*
X152297542Y-16980864D01*
X152271533Y-16986037D01*
X152239241Y-16996530D01*
X152138829Y-17012433D01*
X152100468Y-17020064D01*
X152090652Y-17020064D01*
X152080411Y-17021686D01*
X151919589Y-17021686D01*
X151909348Y-17020064D01*
X151899532Y-17020064D01*
X151861171Y-17012433D01*
X151760758Y-16996530D01*
X151728463Y-16986036D01*
X151702458Y-16980864D01*
X151665757Y-16965662D01*
X151607805Y-16946832D01*
X151553511Y-16919168D01*
X151516818Y-16903969D01*
X151494774Y-16889239D01*
X151464519Y-16873824D01*
X151382273Y-16814069D01*
X151349747Y-16792336D01*
X151342805Y-16785394D01*
X151334420Y-16779302D01*
X151220697Y-16665579D01*
X151214604Y-16657193D01*
X151207664Y-16650253D01*
X151185933Y-16617730D01*
X151126175Y-16535480D01*
X151110758Y-16505222D01*
X151096031Y-16483182D01*
X151080834Y-16446493D01*
X151053167Y-16392194D01*
X151034334Y-16334234D01*
X151019136Y-16297542D01*
X151013964Y-16271541D01*
X151003469Y-16239241D01*
X150987564Y-16138820D01*
X150979936Y-16100468D01*
X150979936Y-16090652D01*
X150978314Y-16080411D01*
X150978314Y-15919588D01*
X150979936Y-15909346D01*
X150979936Y-15899532D01*
X150987564Y-15861182D01*
X151003469Y-15760758D01*
X151013964Y-15728455D01*
X151019136Y-15702458D01*
X151034333Y-15665769D01*
X151053167Y-15607805D01*
X151080836Y-15553500D01*
X151096031Y-15516818D01*
X151110756Y-15494780D01*
X151126175Y-15464519D01*
X151185941Y-15382256D01*
X151207664Y-15349747D01*
X151214602Y-15342808D01*
X151220697Y-15334420D01*
X151334420Y-15220697D01*
X151342808Y-15214602D01*
X151349747Y-15207664D01*
X151382256Y-15185941D01*
X151464519Y-15126175D01*
X151494780Y-15110756D01*
X151516818Y-15096031D01*
X151553500Y-15080836D01*
X151607805Y-15053167D01*
X151665769Y-15034333D01*
X151702458Y-15019136D01*
X151728455Y-15013964D01*
X151760758Y-15003469D01*
X151861180Y-14987564D01*
X151899532Y-14979936D01*
X151909348Y-14979936D01*
X151919589Y-14978314D01*
X152080411Y-14978314D01*
X152090652Y-14979936D01*
G37*
G36*
X61846742Y-13036601D02*
G01*
X62000687Y-13100367D01*
X62139234Y-13192941D01*
X62257059Y-13310766D01*
X62349633Y-13449313D01*
X62413399Y-13603258D01*
X62445907Y-13766685D01*
X62450000Y-13850000D01*
X62450000Y-14150000D01*
X62445907Y-14233315D01*
X62413399Y-14396742D01*
X62349633Y-14550687D01*
X62257059Y-14689234D01*
X62139234Y-14807059D01*
X62000687Y-14899633D01*
X61846742Y-14963399D01*
X61683315Y-14995907D01*
X61516685Y-14995907D01*
X61353258Y-14963399D01*
X61199313Y-14899633D01*
X61060766Y-14807059D01*
X60942941Y-14689234D01*
X60850367Y-14550687D01*
X60786601Y-14396742D01*
X60754093Y-14233315D01*
X60750000Y-14150000D01*
X60750000Y-13850000D01*
X60754093Y-13766685D01*
X60786601Y-13603258D01*
X60850367Y-13449313D01*
X60942941Y-13310766D01*
X61060766Y-13192941D01*
X61199313Y-13100367D01*
X61353258Y-13036601D01*
X61516685Y-13004093D01*
X61683315Y-13004093D01*
X61846742Y-13036601D01*
G37*
G36*
X149722626Y-12366084D02*
G01*
X149890519Y-12420636D01*
X150047811Y-12500780D01*
X150190629Y-12604543D01*
X150315457Y-12729371D01*
X150419220Y-12872189D01*
X150499364Y-13029481D01*
X150553916Y-13197374D01*
X150581532Y-13371734D01*
X150581532Y-13548266D01*
X150553916Y-13722626D01*
X150499364Y-13890519D01*
X150419220Y-14047811D01*
X150315457Y-14190629D01*
X150190629Y-14315457D01*
X150047811Y-14419220D01*
X149890519Y-14499364D01*
X149722626Y-14553916D01*
X149548266Y-14581532D01*
X149371734Y-14581532D01*
X149197374Y-14553916D01*
X149029481Y-14499364D01*
X148872189Y-14419220D01*
X148729371Y-14315457D01*
X148604543Y-14190629D01*
X148500780Y-14047811D01*
X148420636Y-13890519D01*
X148366084Y-13722626D01*
X148338468Y-13548266D01*
X148338468Y-13371734D01*
X148366084Y-13197374D01*
X148420636Y-13029481D01*
X148500780Y-12872189D01*
X148604543Y-12729371D01*
X148729371Y-12604543D01*
X148872189Y-12500780D01*
X149029481Y-12420636D01*
X149197374Y-12366084D01*
X149371734Y-12338468D01*
X149548266Y-12338468D01*
X149722626Y-12366084D01*
G37*
G36*
X154802626Y-12366084D02*
G01*
X154970519Y-12420636D01*
X155127811Y-12500780D01*
X155270629Y-12604543D01*
X155395457Y-12729371D01*
X155499220Y-12872189D01*
X155579364Y-13029481D01*
X155633916Y-13197374D01*
X155661532Y-13371734D01*
X155661532Y-13548266D01*
X155633916Y-13722626D01*
X155579364Y-13890519D01*
X155499220Y-14047811D01*
X155395457Y-14190629D01*
X155270629Y-14315457D01*
X155127811Y-14419220D01*
X154970519Y-14499364D01*
X154802626Y-14553916D01*
X154628266Y-14581532D01*
X154451734Y-14581532D01*
X154277374Y-14553916D01*
X154109481Y-14499364D01*
X153952189Y-14419220D01*
X153809371Y-14315457D01*
X153684543Y-14190629D01*
X153580780Y-14047811D01*
X153500636Y-13890519D01*
X153446084Y-13722626D01*
X153418468Y-13548266D01*
X153418468Y-13371734D01*
X153446084Y-13197374D01*
X153500636Y-13029481D01*
X153580780Y-12872189D01*
X153684543Y-12729371D01*
X153809371Y-12604543D01*
X153952189Y-12500780D01*
X154109481Y-12420636D01*
X154277374Y-12366084D01*
X154451734Y-12338468D01*
X154628266Y-12338468D01*
X154802626Y-12366084D01*
G37*
M02*
