%TF.GenerationSoftware,KiCad,Pcbnew,10.0.3*%
%TF.CreationDate,2026-05-25T19:37:30+02:00*%
%TF.ProjectId,esp32_s3_dwm3000_uwb_anchor_with_relay_outputs,65737033-325f-4733-935f-64776d333030,rev?*%
%TF.SameCoordinates,Original*%
%TF.FileFunction,Copper,L4,Bot*%
%TF.FilePolarity,Positive*%
%FSLAX46Y46*%
G04 Gerber Fmt 4.6, Leading zero omitted, Abs format (unit mm)*
G04 Created by KiCad (PCBNEW 10.0.3) date 2026-05-25 19:37:30*
%MOMM*%
%LPD*%
G01*
G04 APERTURE LIST*
G04 Aperture macros list*
%AMRoundRect*
0 Rectangle with rounded corners*
0 $1 Rounding radius*
0 $2 $3 $4 $5 $6 $7 $8 $9 X,Y pos of 4 corners*
0 Add a 4 corners polygon primitive as box body*
4,1,4,$2,$3,$4,$5,$6,$7,$8,$9,$2,$3,0*
0 Add four circle primitives for the rounded corners*
1,1,$1+$1,$2,$3*
1,1,$1+$1,$4,$5*
1,1,$1+$1,$6,$7*
1,1,$1+$1,$8,$9*
0 Add four rect primitives between the rounded corners*
20,1,$1+$1,$2,$3,$4,$5,0*
20,1,$1+$1,$4,$5,$6,$7,0*
20,1,$1+$1,$6,$7,$8,$9,0*
20,1,$1+$1,$8,$9,$2,$3,0*%
G04 Aperture macros list end*
%TA.AperFunction,HeatsinkPad*%
%ADD10C,0.600000*%
%TD*%
%TA.AperFunction,ComponentPad*%
%ADD11R,2.300000X2.300000*%
%TD*%
%TA.AperFunction,ComponentPad*%
%ADD12C,2.300000*%
%TD*%
%TA.AperFunction,ComponentPad*%
%ADD13R,1.700000X1.700000*%
%TD*%
%TA.AperFunction,ComponentPad*%
%ADD14C,1.700000*%
%TD*%
%TA.AperFunction,ComponentPad*%
%ADD15RoundRect,0.250001X-0.949999X-0.949999X0.949999X-0.949999X0.949999X0.949999X-0.949999X0.949999X0*%
%TD*%
%TA.AperFunction,ComponentPad*%
%ADD16C,2.400000*%
%TD*%
%TA.AperFunction,ComponentPad*%
%ADD17RoundRect,0.250000X-0.600000X-0.750000X0.600000X-0.750000X0.600000X0.750000X-0.600000X0.750000X0*%
%TD*%
%TA.AperFunction,ComponentPad*%
%ADD18O,1.700000X2.000000*%
%TD*%
%TA.AperFunction,ComponentPad*%
%ADD19RoundRect,0.250000X-0.550000X-0.550000X0.550000X-0.550000X0.550000X0.550000X-0.550000X0.550000X0*%
%TD*%
%TA.AperFunction,ComponentPad*%
%ADD20C,1.600000*%
%TD*%
%TA.AperFunction,ComponentPad*%
%ADD21C,2.050000*%
%TD*%
%TA.AperFunction,ComponentPad*%
%ADD22C,2.250000*%
%TD*%
%TA.AperFunction,ComponentPad*%
%ADD23C,1.800000*%
%TD*%
%TA.AperFunction,ViaPad*%
%ADD24C,0.450000*%
%TD*%
%TA.AperFunction,Conductor*%
%ADD25C,0.200000*%
%TD*%
%TA.AperFunction,Conductor*%
%ADD26C,0.250000*%
%TD*%
G04 APERTURE END LIST*
D10*
%TO.P,U1,41*%
%TO.N,GND*%
X91100000Y-63760000D03*
X91100000Y-65160000D03*
X91800000Y-63060000D03*
X91800000Y-64460000D03*
X91800000Y-65860000D03*
X92500000Y-63760000D03*
X92500000Y-65160000D03*
X93200000Y-63060000D03*
X93200000Y-64460000D03*
X93200000Y-65860000D03*
X93900000Y-63760000D03*
X93900000Y-65160000D03*
%TD*%
D11*
%TO.P,K1,1*%
%TO.N,+5V_ISO*%
X25000000Y-76000000D03*
D12*
%TO.P,K1,2*%
%TO.N,RELAY1_DRIVE*%
X35160000Y-76000000D03*
%TO.P,K1,3*%
%TO.N,NC_K1_3_9*%
X42780000Y-76000000D03*
%TO.P,K1,4*%
%TO.N,NC_K1_4_10*%
X40240000Y-68380000D03*
%TO.P,K1,5*%
%TO.N,NC_K1_5_11*%
X25000000Y-68380000D03*
%TD*%
D13*
%TO.P,R10,1*%
%TO.N,SPI_CS_3V3_MCU*%
X108000000Y-61820000D03*
D14*
%TO.P,R10,2*%
%TO.N,NC_R10_2_1*%
X108000000Y-64360000D03*
%TD*%
D15*
%TO.P,J1,1*%
%TO.N,AC_L_PROTECTED*%
X10000000Y-25000000D03*
D16*
%TO.P,J1,2*%
%TO.N,NC_J1_2_4*%
X13500000Y-25000000D03*
%TD*%
D17*
%TO.P,U6,1*%
%TO.N,AC_L_PROTECTED*%
X28000000Y-20000000D03*
D18*
%TO.P,U6,2*%
%TO.N,NC_U6_2_29*%
X28000000Y-26000000D03*
%TO.P,U6,3*%
%TO.N,+5V_ISO*%
X61600000Y-14000000D03*
%TO.P,U6,4*%
%TO.N,GND*%
X61600000Y-32000000D03*
%TD*%
D19*
%TO.P,OK1,1*%
%TO.N,RELAY1_CTRL_LED*%
X18000000Y-58000000D03*
D20*
%TO.P,OK1,2*%
%TO.N,GND*%
X18000000Y-60540000D03*
%TO.P,OK1,3*%
%TO.N,NC_OK1_3_7*%
X25620000Y-60540000D03*
%TO.P,OK1,4*%
%TO.N,NC_OK1_4_8*%
X25620000Y-58000000D03*
%TD*%
D21*
%TO.P,J2,1*%
%TO.N,UWB_RF_50R*%
X152000000Y-16000000D03*
D22*
%TO.P,J2,2*%
%TO.N,GND*%
X149460000Y-13460000D03*
X149460000Y-18540000D03*
X154540000Y-13460000D03*
X154540000Y-18540000D03*
%TD*%
D13*
%TO.P,K2,1*%
%TO.N,NC_K2_1_2*%
X65000000Y-76000000D03*
D14*
%TO.P,K2,2*%
%TO.N,NC_K2_2_3*%
X65000000Y-78540000D03*
%TD*%
D23*
%TO.P,MOV1,1*%
%TO.N,AC_L_PROTECTED*%
X32000000Y-39000000D03*
%TO.P,MOV1,2*%
%TO.N,NC_MOV1_2_30*%
X39500000Y-41000000D03*
%TD*%
D24*
%TO.N,GND*%
X144000000Y-29200000D03*
X144600000Y-21200001D03*
X126000000Y-19600000D03*
X144600000Y-30800000D03*
X144000000Y-32400000D03*
X125400000Y-24400000D03*
X125400000Y-11600000D03*
X123775000Y-22000000D03*
X80862500Y-14000000D03*
X118000000Y-30000000D03*
X128775000Y-36000000D03*
X126775000Y-48000000D03*
X120462500Y-40000000D03*
X92500000Y-64460000D03*
X31062500Y-62950000D03*
X122775000Y-34000000D03*
X147775000Y-34000000D03*
X125400000Y-27600000D03*
X144000000Y-22800000D03*
X74775000Y-20000000D03*
X82775000Y-18000000D03*
X144600000Y-27600000D03*
X144600000Y-14800000D03*
X125400000Y-18000000D03*
X126000000Y-32400000D03*
X126462500Y-40000000D03*
X118775000Y-26000000D03*
X68775000Y-8000000D03*
X126000000Y-26000000D03*
X125400000Y-30800000D03*
X122775000Y-44000000D03*
X144600000Y-11600000D03*
X102750000Y-56740000D03*
X144000000Y-16400000D03*
X82775000Y-10000000D03*
X118750000Y-32462500D03*
X144600000Y-18000000D03*
X130037500Y-40000000D03*
X144000000Y-13200000D03*
X74475000Y-13365000D03*
X144000000Y-26000000D03*
X94775000Y-78000000D03*
X128775000Y-44000000D03*
X85250000Y-56740000D03*
X126000000Y-29200000D03*
X102750000Y-58010000D03*
X144000000Y-19600000D03*
X126000000Y-16400000D03*
X124037500Y-40000000D03*
%TO.N,+1V8*%
X129537500Y-39350000D03*
X128600000Y-38800000D03*
X125200000Y-47200000D03*
X126800000Y-35200000D03*
X80862500Y-14950000D03*
X145400000Y-34000000D03*
X117250000Y-28037500D03*
X126000000Y-13200000D03*
X116800000Y-28600000D03*
X124600000Y-20200000D03*
X125000000Y-39200000D03*
X146225000Y-34000000D03*
X121400000Y-33200000D03*
X127225000Y-36000000D03*
X81225000Y-10000000D03*
X121225000Y-34000000D03*
X123537500Y-39350000D03*
X125225000Y-48000000D03*
%TO.N,SPI_CS_1V8*%
X125400000Y-14800000D03*
X117750000Y-27537500D03*
%TO.N,DWM_IRQ_1V8*%
X125400000Y-21200001D03*
X123537500Y-40650000D03*
%TO.N,DWM_EXT_TX_1V8*%
X126000000Y-22800000D03*
X129537500Y-40650000D03*
%TO.N,+5V_ISO*%
X34600000Y-62800000D03*
X67225000Y-8000000D03*
X69525000Y-13365000D03*
X69525000Y-14635000D03*
X38000000Y-62000000D03*
%TO.N,+3V3*%
X74475000Y-15905000D03*
X104600000Y-58800000D03*
X121225000Y-44000000D03*
X124000000Y-38400000D03*
X115537500Y-29500000D03*
X117225000Y-26000000D03*
X124600000Y-42000000D03*
X83137500Y-13050000D03*
X119962500Y-39350000D03*
X125962500Y-39350000D03*
X122225000Y-22000000D03*
X127225000Y-44000000D03*
X73225000Y-20000000D03*
X80862500Y-13050000D03*
X121400000Y-38800000D03*
X119962500Y-30500000D03*
X85250000Y-59280000D03*
X120400000Y-33000000D03*
X85250000Y-58010000D03*
X81400000Y-12400000D03*
X93225000Y-78000000D03*
X84200000Y-58400000D03*
X81225000Y-18000000D03*
X82600000Y-12400000D03*
%TO.N,DWM_EXT_TX_3V3*%
X125962500Y-40650000D03*
%TO.N,RELAY1_DRIVE*%
X83800000Y-66800000D03*
X101400000Y-66800000D03*
%TO.N,DWM_IRQ_3V3*%
X119200000Y-42000000D03*
X119200000Y-40800000D03*
X119962500Y-40650000D03*
%TO.N,SPI_CS_3V3_MCU*%
X101600000Y-61800000D03*
%TO.N,SPI_CS_3V3*%
X116037500Y-30000000D03*
%TD*%
%TO.N,+1V8*%
D25*
X125200000Y-35200000D02*
X125200000Y-47200000D01*
X125200000Y-31600000D02*
X125200000Y-33200000D01*
X126800000Y-35200000D02*
X125200000Y-35200000D01*
X126200000Y-33400000D02*
X126800000Y-33400000D01*
X124600000Y-31600000D02*
X125200000Y-31600000D01*
X125200000Y-33200000D02*
X126200000Y-33200000D01*
X126800000Y-34000000D02*
X145400000Y-34000000D01*
X125200000Y-39200000D02*
X125000000Y-39200000D01*
X126800000Y-33400000D02*
X126800000Y-35200000D01*
X125200000Y-38600000D02*
X128600000Y-38600000D01*
X128600000Y-38600000D02*
X128600000Y-38800000D01*
X124600000Y-20200000D02*
X124600000Y-31600000D01*
X126200000Y-33200000D02*
X126200000Y-33400000D01*
X125200000Y-33200000D02*
X121400000Y-33200000D01*
X124600000Y-28600000D02*
X116800000Y-28600000D01*
%TO.N,+5V_ISO*%
D26*
X31800000Y-63800000D02*
X26600000Y-63800000D01*
X26600000Y-63800000D02*
X26600000Y-70000000D01*
X26200000Y-74800000D02*
X25000000Y-76000000D01*
X32200000Y-63600000D02*
X31800000Y-63600000D01*
X32200000Y-62800000D02*
X32200000Y-63600000D01*
X26600000Y-70000000D02*
X26200000Y-70000000D01*
X26200000Y-70000000D02*
X26200000Y-74800000D01*
X34600000Y-62800000D02*
X32200000Y-62800000D01*
X31800000Y-63600000D02*
X31800000Y-63800000D01*
%TO.N,+3V3*%
D25*
X122800000Y-34800000D02*
X122800000Y-41400000D01*
X101600000Y-58400000D02*
X84200000Y-58400000D01*
X104600000Y-58800000D02*
X101600000Y-58800000D01*
X120400000Y-33000000D02*
X120400000Y-34800000D01*
X124600000Y-41400000D02*
X124600000Y-42000000D01*
X120400000Y-34800000D02*
X122800000Y-34800000D01*
X101600000Y-58800000D02*
X101600000Y-58400000D01*
X122800000Y-38800000D02*
X121400000Y-38800000D01*
X122800000Y-41400000D02*
X124600000Y-41400000D01*
X122800000Y-38400000D02*
X124000000Y-38400000D01*
X81400000Y-12400000D02*
X82600000Y-12400000D01*
%TO.N,RELAY1_DRIVE*%
X83800000Y-66800000D02*
X101400000Y-66800000D01*
%TO.N,DWM_IRQ_3V3*%
X119200000Y-40800000D02*
X119200000Y-42000000D01*
%TO.N,SPI_CS_3V3_MCU*%
X107200000Y-61800000D02*
X101600000Y-61800000D01*
X108000000Y-61820000D02*
X107200000Y-61800000D01*
%TD*%
M02*
