%TF.GenerationSoftware,KiCad,Pcbnew,10.0.3*%
%TF.CreationDate,2026-05-25T19:37:30+02:00*%
%TF.ProjectId,esp32_s3_dwm3000_uwb_anchor_with_relay_outputs,65737033-325f-4733-935f-64776d333030,rev?*%
%TF.SameCoordinates,Original*%
%TF.FileFunction,Legend,Top*%
%TF.FilePolarity,Positive*%
%FSLAX46Y46*%
G04 Gerber Fmt 4.6, Leading zero omitted, Abs format (unit mm)*
G04 Created by KiCad (PCBNEW 10.0.3) date 2026-05-25 19:37:30*
%MOMM*%
%LPD*%
G01*
G04 APERTURE LIST*
%ADD10C,0.158750*%
%ADD11C,0.150000*%
%ADD12C,0.120000*%
G04 APERTURE END LIST*
D10*
X134032380Y-21309271D02*
X134032380Y-22337366D01*
X134032380Y-22337366D02*
X134092857Y-22458318D01*
X134092857Y-22458318D02*
X134153333Y-22518795D01*
X134153333Y-22518795D02*
X134274285Y-22579271D01*
X134274285Y-22579271D02*
X134516190Y-22579271D01*
X134516190Y-22579271D02*
X134637142Y-22518795D01*
X134637142Y-22518795D02*
X134697619Y-22458318D01*
X134697619Y-22458318D02*
X134758095Y-22337366D01*
X134758095Y-22337366D02*
X134758095Y-21309271D01*
X135302380Y-21430223D02*
X135362856Y-21369747D01*
X135362856Y-21369747D02*
X135483809Y-21309271D01*
X135483809Y-21309271D02*
X135786190Y-21309271D01*
X135786190Y-21309271D02*
X135907142Y-21369747D01*
X135907142Y-21369747D02*
X135967618Y-21430223D01*
X135967618Y-21430223D02*
X136028095Y-21551175D01*
X136028095Y-21551175D02*
X136028095Y-21672128D01*
X136028095Y-21672128D02*
X135967618Y-21853556D01*
X135967618Y-21853556D02*
X135241904Y-22579271D01*
X135241904Y-22579271D02*
X136028095Y-22579271D01*
D11*
X127357142Y-34929580D02*
X127309523Y-34977200D01*
X127309523Y-34977200D02*
X127166666Y-35024819D01*
X127166666Y-35024819D02*
X127071428Y-35024819D01*
X127071428Y-35024819D02*
X126928571Y-34977200D01*
X126928571Y-34977200D02*
X126833333Y-34881961D01*
X126833333Y-34881961D02*
X126785714Y-34786723D01*
X126785714Y-34786723D02*
X126738095Y-34596247D01*
X126738095Y-34596247D02*
X126738095Y-34453390D01*
X126738095Y-34453390D02*
X126785714Y-34262914D01*
X126785714Y-34262914D02*
X126833333Y-34167676D01*
X126833333Y-34167676D02*
X126928571Y-34072438D01*
X126928571Y-34072438D02*
X127071428Y-34024819D01*
X127071428Y-34024819D02*
X127166666Y-34024819D01*
X127166666Y-34024819D02*
X127309523Y-34072438D01*
X127309523Y-34072438D02*
X127357142Y-34120057D01*
X127833333Y-35024819D02*
X128023809Y-35024819D01*
X128023809Y-35024819D02*
X128119047Y-34977200D01*
X128119047Y-34977200D02*
X128166666Y-34929580D01*
X128166666Y-34929580D02*
X128261904Y-34786723D01*
X128261904Y-34786723D02*
X128309523Y-34596247D01*
X128309523Y-34596247D02*
X128309523Y-34215295D01*
X128309523Y-34215295D02*
X128261904Y-34120057D01*
X128261904Y-34120057D02*
X128214285Y-34072438D01*
X128214285Y-34072438D02*
X128119047Y-34024819D01*
X128119047Y-34024819D02*
X127928571Y-34024819D01*
X127928571Y-34024819D02*
X127833333Y-34072438D01*
X127833333Y-34072438D02*
X127785714Y-34120057D01*
X127785714Y-34120057D02*
X127738095Y-34215295D01*
X127738095Y-34215295D02*
X127738095Y-34453390D01*
X127738095Y-34453390D02*
X127785714Y-34548628D01*
X127785714Y-34548628D02*
X127833333Y-34596247D01*
X127833333Y-34596247D02*
X127928571Y-34643866D01*
X127928571Y-34643866D02*
X128119047Y-34643866D01*
X128119047Y-34643866D02*
X128214285Y-34596247D01*
X128214285Y-34596247D02*
X128261904Y-34548628D01*
X128261904Y-34548628D02*
X128309523Y-34453390D01*
X128880952Y-34453390D02*
X128785714Y-34405771D01*
X128785714Y-34405771D02*
X128738095Y-34358152D01*
X128738095Y-34358152D02*
X128690476Y-34262914D01*
X128690476Y-34262914D02*
X128690476Y-34215295D01*
X128690476Y-34215295D02*
X128738095Y-34120057D01*
X128738095Y-34120057D02*
X128785714Y-34072438D01*
X128785714Y-34072438D02*
X128880952Y-34024819D01*
X128880952Y-34024819D02*
X129071428Y-34024819D01*
X129071428Y-34024819D02*
X129166666Y-34072438D01*
X129166666Y-34072438D02*
X129214285Y-34120057D01*
X129214285Y-34120057D02*
X129261904Y-34215295D01*
X129261904Y-34215295D02*
X129261904Y-34262914D01*
X129261904Y-34262914D02*
X129214285Y-34358152D01*
X129214285Y-34358152D02*
X129166666Y-34405771D01*
X129166666Y-34405771D02*
X129071428Y-34453390D01*
X129071428Y-34453390D02*
X128880952Y-34453390D01*
X128880952Y-34453390D02*
X128785714Y-34501009D01*
X128785714Y-34501009D02*
X128738095Y-34548628D01*
X128738095Y-34548628D02*
X128690476Y-34643866D01*
X128690476Y-34643866D02*
X128690476Y-34834342D01*
X128690476Y-34834342D02*
X128738095Y-34929580D01*
X128738095Y-34929580D02*
X128785714Y-34977200D01*
X128785714Y-34977200D02*
X128880952Y-35024819D01*
X128880952Y-35024819D02*
X129071428Y-35024819D01*
X129071428Y-35024819D02*
X129166666Y-34977200D01*
X129166666Y-34977200D02*
X129214285Y-34929580D01*
X129214285Y-34929580D02*
X129261904Y-34834342D01*
X129261904Y-34834342D02*
X129261904Y-34643866D01*
X129261904Y-34643866D02*
X129214285Y-34548628D01*
X129214285Y-34548628D02*
X129166666Y-34501009D01*
X129166666Y-34501009D02*
X129071428Y-34453390D01*
X71238095Y-10054819D02*
X71238095Y-10864342D01*
X71238095Y-10864342D02*
X71285714Y-10959580D01*
X71285714Y-10959580D02*
X71333333Y-11007200D01*
X71333333Y-11007200D02*
X71428571Y-11054819D01*
X71428571Y-11054819D02*
X71619047Y-11054819D01*
X71619047Y-11054819D02*
X71714285Y-11007200D01*
X71714285Y-11007200D02*
X71761904Y-10959580D01*
X71761904Y-10959580D02*
X71809523Y-10864342D01*
X71809523Y-10864342D02*
X71809523Y-10054819D01*
X72190476Y-10054819D02*
X72857142Y-10054819D01*
X72857142Y-10054819D02*
X72428571Y-11054819D01*
X93357142Y-76929580D02*
X93309523Y-76977200D01*
X93309523Y-76977200D02*
X93166666Y-77024819D01*
X93166666Y-77024819D02*
X93071428Y-77024819D01*
X93071428Y-77024819D02*
X92928571Y-76977200D01*
X92928571Y-76977200D02*
X92833333Y-76881961D01*
X92833333Y-76881961D02*
X92785714Y-76786723D01*
X92785714Y-76786723D02*
X92738095Y-76596247D01*
X92738095Y-76596247D02*
X92738095Y-76453390D01*
X92738095Y-76453390D02*
X92785714Y-76262914D01*
X92785714Y-76262914D02*
X92833333Y-76167676D01*
X92833333Y-76167676D02*
X92928571Y-76072438D01*
X92928571Y-76072438D02*
X93071428Y-76024819D01*
X93071428Y-76024819D02*
X93166666Y-76024819D01*
X93166666Y-76024819D02*
X93309523Y-76072438D01*
X93309523Y-76072438D02*
X93357142Y-76120057D01*
X93833333Y-77024819D02*
X94023809Y-77024819D01*
X94023809Y-77024819D02*
X94119047Y-76977200D01*
X94119047Y-76977200D02*
X94166666Y-76929580D01*
X94166666Y-76929580D02*
X94261904Y-76786723D01*
X94261904Y-76786723D02*
X94309523Y-76596247D01*
X94309523Y-76596247D02*
X94309523Y-76215295D01*
X94309523Y-76215295D02*
X94261904Y-76120057D01*
X94261904Y-76120057D02*
X94214285Y-76072438D01*
X94214285Y-76072438D02*
X94119047Y-76024819D01*
X94119047Y-76024819D02*
X93928571Y-76024819D01*
X93928571Y-76024819D02*
X93833333Y-76072438D01*
X93833333Y-76072438D02*
X93785714Y-76120057D01*
X93785714Y-76120057D02*
X93738095Y-76215295D01*
X93738095Y-76215295D02*
X93738095Y-76453390D01*
X93738095Y-76453390D02*
X93785714Y-76548628D01*
X93785714Y-76548628D02*
X93833333Y-76596247D01*
X93833333Y-76596247D02*
X93928571Y-76643866D01*
X93928571Y-76643866D02*
X94119047Y-76643866D01*
X94119047Y-76643866D02*
X94214285Y-76596247D01*
X94214285Y-76596247D02*
X94261904Y-76548628D01*
X94261904Y-76548628D02*
X94309523Y-76453390D01*
X94928571Y-76024819D02*
X95023809Y-76024819D01*
X95023809Y-76024819D02*
X95119047Y-76072438D01*
X95119047Y-76072438D02*
X95166666Y-76120057D01*
X95166666Y-76120057D02*
X95214285Y-76215295D01*
X95214285Y-76215295D02*
X95261904Y-76405771D01*
X95261904Y-76405771D02*
X95261904Y-76643866D01*
X95261904Y-76643866D02*
X95214285Y-76834342D01*
X95214285Y-76834342D02*
X95166666Y-76929580D01*
X95166666Y-76929580D02*
X95119047Y-76977200D01*
X95119047Y-76977200D02*
X95023809Y-77024819D01*
X95023809Y-77024819D02*
X94928571Y-77024819D01*
X94928571Y-77024819D02*
X94833333Y-76977200D01*
X94833333Y-76977200D02*
X94785714Y-76929580D01*
X94785714Y-76929580D02*
X94738095Y-76834342D01*
X94738095Y-76834342D02*
X94690476Y-76643866D01*
X94690476Y-76643866D02*
X94690476Y-76405771D01*
X94690476Y-76405771D02*
X94738095Y-76215295D01*
X94738095Y-76215295D02*
X94785714Y-76120057D01*
X94785714Y-76120057D02*
X94833333Y-76072438D01*
X94833333Y-76072438D02*
X94928571Y-76024819D01*
X72880952Y-18929580D02*
X72833333Y-18977200D01*
X72833333Y-18977200D02*
X72690476Y-19024819D01*
X72690476Y-19024819D02*
X72595238Y-19024819D01*
X72595238Y-19024819D02*
X72452381Y-18977200D01*
X72452381Y-18977200D02*
X72357143Y-18881961D01*
X72357143Y-18881961D02*
X72309524Y-18786723D01*
X72309524Y-18786723D02*
X72261905Y-18596247D01*
X72261905Y-18596247D02*
X72261905Y-18453390D01*
X72261905Y-18453390D02*
X72309524Y-18262914D01*
X72309524Y-18262914D02*
X72357143Y-18167676D01*
X72357143Y-18167676D02*
X72452381Y-18072438D01*
X72452381Y-18072438D02*
X72595238Y-18024819D01*
X72595238Y-18024819D02*
X72690476Y-18024819D01*
X72690476Y-18024819D02*
X72833333Y-18072438D01*
X72833333Y-18072438D02*
X72880952Y-18120057D01*
X73833333Y-19024819D02*
X73261905Y-19024819D01*
X73547619Y-19024819D02*
X73547619Y-18024819D01*
X73547619Y-18024819D02*
X73452381Y-18167676D01*
X73452381Y-18167676D02*
X73357143Y-18262914D01*
X73357143Y-18262914D02*
X73261905Y-18310533D01*
X74452381Y-18024819D02*
X74547619Y-18024819D01*
X74547619Y-18024819D02*
X74642857Y-18072438D01*
X74642857Y-18072438D02*
X74690476Y-18120057D01*
X74690476Y-18120057D02*
X74738095Y-18215295D01*
X74738095Y-18215295D02*
X74785714Y-18405771D01*
X74785714Y-18405771D02*
X74785714Y-18643866D01*
X74785714Y-18643866D02*
X74738095Y-18834342D01*
X74738095Y-18834342D02*
X74690476Y-18929580D01*
X74690476Y-18929580D02*
X74642857Y-18977200D01*
X74642857Y-18977200D02*
X74547619Y-19024819D01*
X74547619Y-19024819D02*
X74452381Y-19024819D01*
X74452381Y-19024819D02*
X74357143Y-18977200D01*
X74357143Y-18977200D02*
X74309524Y-18929580D01*
X74309524Y-18929580D02*
X74261905Y-18834342D01*
X74261905Y-18834342D02*
X74214286Y-18643866D01*
X74214286Y-18643866D02*
X74214286Y-18405771D01*
X74214286Y-18405771D02*
X74261905Y-18215295D01*
X74261905Y-18215295D02*
X74309524Y-18120057D01*
X74309524Y-18120057D02*
X74357143Y-18072438D01*
X74357143Y-18072438D02*
X74452381Y-18024819D01*
X75404762Y-18024819D02*
X75500000Y-18024819D01*
X75500000Y-18024819D02*
X75595238Y-18072438D01*
X75595238Y-18072438D02*
X75642857Y-18120057D01*
X75642857Y-18120057D02*
X75690476Y-18215295D01*
X75690476Y-18215295D02*
X75738095Y-18405771D01*
X75738095Y-18405771D02*
X75738095Y-18643866D01*
X75738095Y-18643866D02*
X75690476Y-18834342D01*
X75690476Y-18834342D02*
X75642857Y-18929580D01*
X75642857Y-18929580D02*
X75595238Y-18977200D01*
X75595238Y-18977200D02*
X75500000Y-19024819D01*
X75500000Y-19024819D02*
X75404762Y-19024819D01*
X75404762Y-19024819D02*
X75309524Y-18977200D01*
X75309524Y-18977200D02*
X75261905Y-18929580D01*
X75261905Y-18929580D02*
X75214286Y-18834342D01*
X75214286Y-18834342D02*
X75166667Y-18643866D01*
X75166667Y-18643866D02*
X75166667Y-18405771D01*
X75166667Y-18405771D02*
X75214286Y-18215295D01*
X75214286Y-18215295D02*
X75261905Y-18120057D01*
X75261905Y-18120057D02*
X75309524Y-18072438D01*
X75309524Y-18072438D02*
X75404762Y-18024819D01*
X80880952Y-8929580D02*
X80833333Y-8977200D01*
X80833333Y-8977200D02*
X80690476Y-9024819D01*
X80690476Y-9024819D02*
X80595238Y-9024819D01*
X80595238Y-9024819D02*
X80452381Y-8977200D01*
X80452381Y-8977200D02*
X80357143Y-8881961D01*
X80357143Y-8881961D02*
X80309524Y-8786723D01*
X80309524Y-8786723D02*
X80261905Y-8596247D01*
X80261905Y-8596247D02*
X80261905Y-8453390D01*
X80261905Y-8453390D02*
X80309524Y-8262914D01*
X80309524Y-8262914D02*
X80357143Y-8167676D01*
X80357143Y-8167676D02*
X80452381Y-8072438D01*
X80452381Y-8072438D02*
X80595238Y-8024819D01*
X80595238Y-8024819D02*
X80690476Y-8024819D01*
X80690476Y-8024819D02*
X80833333Y-8072438D01*
X80833333Y-8072438D02*
X80880952Y-8120057D01*
X81833333Y-9024819D02*
X81261905Y-9024819D01*
X81547619Y-9024819D02*
X81547619Y-8024819D01*
X81547619Y-8024819D02*
X81452381Y-8167676D01*
X81452381Y-8167676D02*
X81357143Y-8262914D01*
X81357143Y-8262914D02*
X81261905Y-8310533D01*
X82452381Y-8024819D02*
X82547619Y-8024819D01*
X82547619Y-8024819D02*
X82642857Y-8072438D01*
X82642857Y-8072438D02*
X82690476Y-8120057D01*
X82690476Y-8120057D02*
X82738095Y-8215295D01*
X82738095Y-8215295D02*
X82785714Y-8405771D01*
X82785714Y-8405771D02*
X82785714Y-8643866D01*
X82785714Y-8643866D02*
X82738095Y-8834342D01*
X82738095Y-8834342D02*
X82690476Y-8929580D01*
X82690476Y-8929580D02*
X82642857Y-8977200D01*
X82642857Y-8977200D02*
X82547619Y-9024819D01*
X82547619Y-9024819D02*
X82452381Y-9024819D01*
X82452381Y-9024819D02*
X82357143Y-8977200D01*
X82357143Y-8977200D02*
X82309524Y-8929580D01*
X82309524Y-8929580D02*
X82261905Y-8834342D01*
X82261905Y-8834342D02*
X82214286Y-8643866D01*
X82214286Y-8643866D02*
X82214286Y-8405771D01*
X82214286Y-8405771D02*
X82261905Y-8215295D01*
X82261905Y-8215295D02*
X82309524Y-8120057D01*
X82309524Y-8120057D02*
X82357143Y-8072438D01*
X82357143Y-8072438D02*
X82452381Y-8024819D01*
X83166667Y-8120057D02*
X83214286Y-8072438D01*
X83214286Y-8072438D02*
X83309524Y-8024819D01*
X83309524Y-8024819D02*
X83547619Y-8024819D01*
X83547619Y-8024819D02*
X83642857Y-8072438D01*
X83642857Y-8072438D02*
X83690476Y-8120057D01*
X83690476Y-8120057D02*
X83738095Y-8215295D01*
X83738095Y-8215295D02*
X83738095Y-8310533D01*
X83738095Y-8310533D02*
X83690476Y-8453390D01*
X83690476Y-8453390D02*
X83119048Y-9024819D01*
X83119048Y-9024819D02*
X83738095Y-9024819D01*
X127357142Y-42929580D02*
X127309523Y-42977200D01*
X127309523Y-42977200D02*
X127166666Y-43024819D01*
X127166666Y-43024819D02*
X127071428Y-43024819D01*
X127071428Y-43024819D02*
X126928571Y-42977200D01*
X126928571Y-42977200D02*
X126833333Y-42881961D01*
X126833333Y-42881961D02*
X126785714Y-42786723D01*
X126785714Y-42786723D02*
X126738095Y-42596247D01*
X126738095Y-42596247D02*
X126738095Y-42453390D01*
X126738095Y-42453390D02*
X126785714Y-42262914D01*
X126785714Y-42262914D02*
X126833333Y-42167676D01*
X126833333Y-42167676D02*
X126928571Y-42072438D01*
X126928571Y-42072438D02*
X127071428Y-42024819D01*
X127071428Y-42024819D02*
X127166666Y-42024819D01*
X127166666Y-42024819D02*
X127309523Y-42072438D01*
X127309523Y-42072438D02*
X127357142Y-42120057D01*
X127833333Y-43024819D02*
X128023809Y-43024819D01*
X128023809Y-43024819D02*
X128119047Y-42977200D01*
X128119047Y-42977200D02*
X128166666Y-42929580D01*
X128166666Y-42929580D02*
X128261904Y-42786723D01*
X128261904Y-42786723D02*
X128309523Y-42596247D01*
X128309523Y-42596247D02*
X128309523Y-42215295D01*
X128309523Y-42215295D02*
X128261904Y-42120057D01*
X128261904Y-42120057D02*
X128214285Y-42072438D01*
X128214285Y-42072438D02*
X128119047Y-42024819D01*
X128119047Y-42024819D02*
X127928571Y-42024819D01*
X127928571Y-42024819D02*
X127833333Y-42072438D01*
X127833333Y-42072438D02*
X127785714Y-42120057D01*
X127785714Y-42120057D02*
X127738095Y-42215295D01*
X127738095Y-42215295D02*
X127738095Y-42453390D01*
X127738095Y-42453390D02*
X127785714Y-42548628D01*
X127785714Y-42548628D02*
X127833333Y-42596247D01*
X127833333Y-42596247D02*
X127928571Y-42643866D01*
X127928571Y-42643866D02*
X128119047Y-42643866D01*
X128119047Y-42643866D02*
X128214285Y-42596247D01*
X128214285Y-42596247D02*
X128261904Y-42548628D01*
X128261904Y-42548628D02*
X128309523Y-42453390D01*
X128642857Y-42024819D02*
X129309523Y-42024819D01*
X129309523Y-42024819D02*
X128880952Y-43024819D01*
X82954819Y-74161904D02*
X83764342Y-74161904D01*
X83764342Y-74161904D02*
X83859580Y-74114285D01*
X83859580Y-74114285D02*
X83907200Y-74066666D01*
X83907200Y-74066666D02*
X83954819Y-73971428D01*
X83954819Y-73971428D02*
X83954819Y-73780952D01*
X83954819Y-73780952D02*
X83907200Y-73685714D01*
X83907200Y-73685714D02*
X83859580Y-73638095D01*
X83859580Y-73638095D02*
X83764342Y-73590476D01*
X83764342Y-73590476D02*
X82954819Y-73590476D01*
X83954819Y-72590476D02*
X83954819Y-73161904D01*
X83954819Y-72876190D02*
X82954819Y-72876190D01*
X82954819Y-72876190D02*
X83097676Y-72971428D01*
X83097676Y-72971428D02*
X83192914Y-73066666D01*
X83192914Y-73066666D02*
X83240533Y-73161904D01*
X19666666Y-10101009D02*
X19333333Y-10101009D01*
X19333333Y-10624819D02*
X19333333Y-9624819D01*
X19333333Y-9624819D02*
X19809523Y-9624819D01*
X20714285Y-10624819D02*
X20142857Y-10624819D01*
X20428571Y-10624819D02*
X20428571Y-9624819D01*
X20428571Y-9624819D02*
X20333333Y-9767676D01*
X20333333Y-9767676D02*
X20238095Y-9862914D01*
X20238095Y-9862914D02*
X20142857Y-9910533D01*
X31904761Y-60150057D02*
X31809523Y-60102438D01*
X31809523Y-60102438D02*
X31714285Y-60007200D01*
X31714285Y-60007200D02*
X31571428Y-59864342D01*
X31571428Y-59864342D02*
X31476190Y-59816723D01*
X31476190Y-59816723D02*
X31380952Y-59816723D01*
X31428571Y-60054819D02*
X31333333Y-60007200D01*
X31333333Y-60007200D02*
X31238095Y-59911961D01*
X31238095Y-59911961D02*
X31190476Y-59721485D01*
X31190476Y-59721485D02*
X31190476Y-59388152D01*
X31190476Y-59388152D02*
X31238095Y-59197676D01*
X31238095Y-59197676D02*
X31333333Y-59102438D01*
X31333333Y-59102438D02*
X31428571Y-59054819D01*
X31428571Y-59054819D02*
X31619047Y-59054819D01*
X31619047Y-59054819D02*
X31714285Y-59102438D01*
X31714285Y-59102438D02*
X31809523Y-59197676D01*
X31809523Y-59197676D02*
X31857142Y-59388152D01*
X31857142Y-59388152D02*
X31857142Y-59721485D01*
X31857142Y-59721485D02*
X31809523Y-59911961D01*
X31809523Y-59911961D02*
X31714285Y-60007200D01*
X31714285Y-60007200D02*
X31619047Y-60054819D01*
X31619047Y-60054819D02*
X31428571Y-60054819D01*
X32809523Y-60054819D02*
X32238095Y-60054819D01*
X32523809Y-60054819D02*
X32523809Y-59054819D01*
X32523809Y-59054819D02*
X32428571Y-59197676D01*
X32428571Y-59197676D02*
X32333333Y-59292914D01*
X32333333Y-59292914D02*
X32238095Y-59340533D01*
X117357142Y-24929580D02*
X117309523Y-24977200D01*
X117309523Y-24977200D02*
X117166666Y-25024819D01*
X117166666Y-25024819D02*
X117071428Y-25024819D01*
X117071428Y-25024819D02*
X116928571Y-24977200D01*
X116928571Y-24977200D02*
X116833333Y-24881961D01*
X116833333Y-24881961D02*
X116785714Y-24786723D01*
X116785714Y-24786723D02*
X116738095Y-24596247D01*
X116738095Y-24596247D02*
X116738095Y-24453390D01*
X116738095Y-24453390D02*
X116785714Y-24262914D01*
X116785714Y-24262914D02*
X116833333Y-24167676D01*
X116833333Y-24167676D02*
X116928571Y-24072438D01*
X116928571Y-24072438D02*
X117071428Y-24024819D01*
X117071428Y-24024819D02*
X117166666Y-24024819D01*
X117166666Y-24024819D02*
X117309523Y-24072438D01*
X117309523Y-24072438D02*
X117357142Y-24120057D01*
X117833333Y-25024819D02*
X118023809Y-25024819D01*
X118023809Y-25024819D02*
X118119047Y-24977200D01*
X118119047Y-24977200D02*
X118166666Y-24929580D01*
X118166666Y-24929580D02*
X118261904Y-24786723D01*
X118261904Y-24786723D02*
X118309523Y-24596247D01*
X118309523Y-24596247D02*
X118309523Y-24215295D01*
X118309523Y-24215295D02*
X118261904Y-24120057D01*
X118261904Y-24120057D02*
X118214285Y-24072438D01*
X118214285Y-24072438D02*
X118119047Y-24024819D01*
X118119047Y-24024819D02*
X117928571Y-24024819D01*
X117928571Y-24024819D02*
X117833333Y-24072438D01*
X117833333Y-24072438D02*
X117785714Y-24120057D01*
X117785714Y-24120057D02*
X117738095Y-24215295D01*
X117738095Y-24215295D02*
X117738095Y-24453390D01*
X117738095Y-24453390D02*
X117785714Y-24548628D01*
X117785714Y-24548628D02*
X117833333Y-24596247D01*
X117833333Y-24596247D02*
X117928571Y-24643866D01*
X117928571Y-24643866D02*
X118119047Y-24643866D01*
X118119047Y-24643866D02*
X118214285Y-24596247D01*
X118214285Y-24596247D02*
X118261904Y-24548628D01*
X118261904Y-24548628D02*
X118309523Y-24453390D01*
X118642857Y-24024819D02*
X119261904Y-24024819D01*
X119261904Y-24024819D02*
X118928571Y-24405771D01*
X118928571Y-24405771D02*
X119071428Y-24405771D01*
X119071428Y-24405771D02*
X119166666Y-24453390D01*
X119166666Y-24453390D02*
X119214285Y-24501009D01*
X119214285Y-24501009D02*
X119261904Y-24596247D01*
X119261904Y-24596247D02*
X119261904Y-24834342D01*
X119261904Y-24834342D02*
X119214285Y-24929580D01*
X119214285Y-24929580D02*
X119166666Y-24977200D01*
X119166666Y-24977200D02*
X119071428Y-25024819D01*
X119071428Y-25024819D02*
X118785714Y-25024819D01*
X118785714Y-25024819D02*
X118690476Y-24977200D01*
X118690476Y-24977200D02*
X118642857Y-24929580D01*
X80880952Y-16929580D02*
X80833333Y-16977200D01*
X80833333Y-16977200D02*
X80690476Y-17024819D01*
X80690476Y-17024819D02*
X80595238Y-17024819D01*
X80595238Y-17024819D02*
X80452381Y-16977200D01*
X80452381Y-16977200D02*
X80357143Y-16881961D01*
X80357143Y-16881961D02*
X80309524Y-16786723D01*
X80309524Y-16786723D02*
X80261905Y-16596247D01*
X80261905Y-16596247D02*
X80261905Y-16453390D01*
X80261905Y-16453390D02*
X80309524Y-16262914D01*
X80309524Y-16262914D02*
X80357143Y-16167676D01*
X80357143Y-16167676D02*
X80452381Y-16072438D01*
X80452381Y-16072438D02*
X80595238Y-16024819D01*
X80595238Y-16024819D02*
X80690476Y-16024819D01*
X80690476Y-16024819D02*
X80833333Y-16072438D01*
X80833333Y-16072438D02*
X80880952Y-16120057D01*
X81833333Y-17024819D02*
X81261905Y-17024819D01*
X81547619Y-17024819D02*
X81547619Y-16024819D01*
X81547619Y-16024819D02*
X81452381Y-16167676D01*
X81452381Y-16167676D02*
X81357143Y-16262914D01*
X81357143Y-16262914D02*
X81261905Y-16310533D01*
X82452381Y-16024819D02*
X82547619Y-16024819D01*
X82547619Y-16024819D02*
X82642857Y-16072438D01*
X82642857Y-16072438D02*
X82690476Y-16120057D01*
X82690476Y-16120057D02*
X82738095Y-16215295D01*
X82738095Y-16215295D02*
X82785714Y-16405771D01*
X82785714Y-16405771D02*
X82785714Y-16643866D01*
X82785714Y-16643866D02*
X82738095Y-16834342D01*
X82738095Y-16834342D02*
X82690476Y-16929580D01*
X82690476Y-16929580D02*
X82642857Y-16977200D01*
X82642857Y-16977200D02*
X82547619Y-17024819D01*
X82547619Y-17024819D02*
X82452381Y-17024819D01*
X82452381Y-17024819D02*
X82357143Y-16977200D01*
X82357143Y-16977200D02*
X82309524Y-16929580D01*
X82309524Y-16929580D02*
X82261905Y-16834342D01*
X82261905Y-16834342D02*
X82214286Y-16643866D01*
X82214286Y-16643866D02*
X82214286Y-16405771D01*
X82214286Y-16405771D02*
X82261905Y-16215295D01*
X82261905Y-16215295D02*
X82309524Y-16120057D01*
X82309524Y-16120057D02*
X82357143Y-16072438D01*
X82357143Y-16072438D02*
X82452381Y-16024819D01*
X83738095Y-17024819D02*
X83166667Y-17024819D01*
X83452381Y-17024819D02*
X83452381Y-16024819D01*
X83452381Y-16024819D02*
X83357143Y-16167676D01*
X83357143Y-16167676D02*
X83261905Y-16262914D01*
X83261905Y-16262914D02*
X83166667Y-16310533D01*
X121238095Y-37654819D02*
X121238095Y-38464342D01*
X121238095Y-38464342D02*
X121285714Y-38559580D01*
X121285714Y-38559580D02*
X121333333Y-38607200D01*
X121333333Y-38607200D02*
X121428571Y-38654819D01*
X121428571Y-38654819D02*
X121619047Y-38654819D01*
X121619047Y-38654819D02*
X121714285Y-38607200D01*
X121714285Y-38607200D02*
X121761904Y-38559580D01*
X121761904Y-38559580D02*
X121809523Y-38464342D01*
X121809523Y-38464342D02*
X121809523Y-37654819D01*
X122714285Y-37988152D02*
X122714285Y-38654819D01*
X122476190Y-37607200D02*
X122238095Y-38321485D01*
X122238095Y-38321485D02*
X122857142Y-38321485D01*
X33761905Y-65954819D02*
X33761905Y-64954819D01*
X34333333Y-65954819D02*
X33904762Y-65383390D01*
X34333333Y-64954819D02*
X33761905Y-65526247D01*
X35285714Y-65954819D02*
X34714286Y-65954819D01*
X35000000Y-65954819D02*
X35000000Y-64954819D01*
X35000000Y-64954819D02*
X34904762Y-65097676D01*
X34904762Y-65097676D02*
X34809524Y-65192914D01*
X34809524Y-65192914D02*
X34714286Y-65240533D01*
X39261905Y-59954819D02*
X39261905Y-58954819D01*
X39261905Y-58954819D02*
X39500000Y-58954819D01*
X39500000Y-58954819D02*
X39642857Y-59002438D01*
X39642857Y-59002438D02*
X39738095Y-59097676D01*
X39738095Y-59097676D02*
X39785714Y-59192914D01*
X39785714Y-59192914D02*
X39833333Y-59383390D01*
X39833333Y-59383390D02*
X39833333Y-59526247D01*
X39833333Y-59526247D02*
X39785714Y-59716723D01*
X39785714Y-59716723D02*
X39738095Y-59811961D01*
X39738095Y-59811961D02*
X39642857Y-59907200D01*
X39642857Y-59907200D02*
X39500000Y-59954819D01*
X39500000Y-59954819D02*
X39261905Y-59954819D01*
X40785714Y-59954819D02*
X40214286Y-59954819D01*
X40500000Y-59954819D02*
X40500000Y-58954819D01*
X40500000Y-58954819D02*
X40404762Y-59097676D01*
X40404762Y-59097676D02*
X40309524Y-59192914D01*
X40309524Y-59192914D02*
X40214286Y-59240533D01*
X107357142Y-59894819D02*
X107023809Y-59418628D01*
X106785714Y-59894819D02*
X106785714Y-58894819D01*
X106785714Y-58894819D02*
X107166666Y-58894819D01*
X107166666Y-58894819D02*
X107261904Y-58942438D01*
X107261904Y-58942438D02*
X107309523Y-58990057D01*
X107309523Y-58990057D02*
X107357142Y-59085295D01*
X107357142Y-59085295D02*
X107357142Y-59228152D01*
X107357142Y-59228152D02*
X107309523Y-59323390D01*
X107309523Y-59323390D02*
X107261904Y-59371009D01*
X107261904Y-59371009D02*
X107166666Y-59418628D01*
X107166666Y-59418628D02*
X106785714Y-59418628D01*
X108309523Y-59894819D02*
X107738095Y-59894819D01*
X108023809Y-59894819D02*
X108023809Y-58894819D01*
X108023809Y-58894819D02*
X107928571Y-59037676D01*
X107928571Y-59037676D02*
X107833333Y-59132914D01*
X107833333Y-59132914D02*
X107738095Y-59180533D01*
X108928571Y-58894819D02*
X109023809Y-58894819D01*
X109023809Y-58894819D02*
X109119047Y-58942438D01*
X109119047Y-58942438D02*
X109166666Y-58990057D01*
X109166666Y-58990057D02*
X109214285Y-59085295D01*
X109214285Y-59085295D02*
X109261904Y-59275771D01*
X109261904Y-59275771D02*
X109261904Y-59513866D01*
X109261904Y-59513866D02*
X109214285Y-59704342D01*
X109214285Y-59704342D02*
X109166666Y-59799580D01*
X109166666Y-59799580D02*
X109119047Y-59847200D01*
X109119047Y-59847200D02*
X109023809Y-59894819D01*
X109023809Y-59894819D02*
X108928571Y-59894819D01*
X108928571Y-59894819D02*
X108833333Y-59847200D01*
X108833333Y-59847200D02*
X108785714Y-59799580D01*
X108785714Y-59799580D02*
X108738095Y-59704342D01*
X108738095Y-59704342D02*
X108690476Y-59513866D01*
X108690476Y-59513866D02*
X108690476Y-59275771D01*
X108690476Y-59275771D02*
X108738095Y-59085295D01*
X108738095Y-59085295D02*
X108785714Y-58990057D01*
X108785714Y-58990057D02*
X108833333Y-58942438D01*
X108833333Y-58942438D02*
X108928571Y-58894819D01*
X11416666Y-20234819D02*
X11416666Y-20949104D01*
X11416666Y-20949104D02*
X11369047Y-21091961D01*
X11369047Y-21091961D02*
X11273809Y-21187200D01*
X11273809Y-21187200D02*
X11130952Y-21234819D01*
X11130952Y-21234819D02*
X11035714Y-21234819D01*
X12416666Y-21234819D02*
X11845238Y-21234819D01*
X12130952Y-21234819D02*
X12130952Y-20234819D01*
X12130952Y-20234819D02*
X12035714Y-20377676D01*
X12035714Y-20377676D02*
X11940476Y-20472914D01*
X11940476Y-20472914D02*
X11845238Y-20520533D01*
X122357142Y-20929580D02*
X122309523Y-20977200D01*
X122309523Y-20977200D02*
X122166666Y-21024819D01*
X122166666Y-21024819D02*
X122071428Y-21024819D01*
X122071428Y-21024819D02*
X121928571Y-20977200D01*
X121928571Y-20977200D02*
X121833333Y-20881961D01*
X121833333Y-20881961D02*
X121785714Y-20786723D01*
X121785714Y-20786723D02*
X121738095Y-20596247D01*
X121738095Y-20596247D02*
X121738095Y-20453390D01*
X121738095Y-20453390D02*
X121785714Y-20262914D01*
X121785714Y-20262914D02*
X121833333Y-20167676D01*
X121833333Y-20167676D02*
X121928571Y-20072438D01*
X121928571Y-20072438D02*
X122071428Y-20024819D01*
X122071428Y-20024819D02*
X122166666Y-20024819D01*
X122166666Y-20024819D02*
X122309523Y-20072438D01*
X122309523Y-20072438D02*
X122357142Y-20120057D01*
X122833333Y-21024819D02*
X123023809Y-21024819D01*
X123023809Y-21024819D02*
X123119047Y-20977200D01*
X123119047Y-20977200D02*
X123166666Y-20929580D01*
X123166666Y-20929580D02*
X123261904Y-20786723D01*
X123261904Y-20786723D02*
X123309523Y-20596247D01*
X123309523Y-20596247D02*
X123309523Y-20215295D01*
X123309523Y-20215295D02*
X123261904Y-20120057D01*
X123261904Y-20120057D02*
X123214285Y-20072438D01*
X123214285Y-20072438D02*
X123119047Y-20024819D01*
X123119047Y-20024819D02*
X122928571Y-20024819D01*
X122928571Y-20024819D02*
X122833333Y-20072438D01*
X122833333Y-20072438D02*
X122785714Y-20120057D01*
X122785714Y-20120057D02*
X122738095Y-20215295D01*
X122738095Y-20215295D02*
X122738095Y-20453390D01*
X122738095Y-20453390D02*
X122785714Y-20548628D01*
X122785714Y-20548628D02*
X122833333Y-20596247D01*
X122833333Y-20596247D02*
X122928571Y-20643866D01*
X122928571Y-20643866D02*
X123119047Y-20643866D01*
X123119047Y-20643866D02*
X123214285Y-20596247D01*
X123214285Y-20596247D02*
X123261904Y-20548628D01*
X123261904Y-20548628D02*
X123309523Y-20453390D01*
X124261904Y-21024819D02*
X123690476Y-21024819D01*
X123976190Y-21024819D02*
X123976190Y-20024819D01*
X123976190Y-20024819D02*
X123880952Y-20167676D01*
X123880952Y-20167676D02*
X123785714Y-20262914D01*
X123785714Y-20262914D02*
X123690476Y-20310533D01*
X127238095Y-37654819D02*
X127238095Y-38464342D01*
X127238095Y-38464342D02*
X127285714Y-38559580D01*
X127285714Y-38559580D02*
X127333333Y-38607200D01*
X127333333Y-38607200D02*
X127428571Y-38654819D01*
X127428571Y-38654819D02*
X127619047Y-38654819D01*
X127619047Y-38654819D02*
X127714285Y-38607200D01*
X127714285Y-38607200D02*
X127761904Y-38559580D01*
X127761904Y-38559580D02*
X127809523Y-38464342D01*
X127809523Y-38464342D02*
X127809523Y-37654819D01*
X128761904Y-37654819D02*
X128285714Y-37654819D01*
X128285714Y-37654819D02*
X128238095Y-38131009D01*
X128238095Y-38131009D02*
X128285714Y-38083390D01*
X128285714Y-38083390D02*
X128380952Y-38035771D01*
X128380952Y-38035771D02*
X128619047Y-38035771D01*
X128619047Y-38035771D02*
X128714285Y-38083390D01*
X128714285Y-38083390D02*
X128761904Y-38131009D01*
X128761904Y-38131009D02*
X128809523Y-38226247D01*
X128809523Y-38226247D02*
X128809523Y-38464342D01*
X128809523Y-38464342D02*
X128761904Y-38559580D01*
X128761904Y-38559580D02*
X128714285Y-38607200D01*
X128714285Y-38607200D02*
X128619047Y-38654819D01*
X128619047Y-38654819D02*
X128380952Y-38654819D01*
X128380952Y-38654819D02*
X128285714Y-38607200D01*
X128285714Y-38607200D02*
X128238095Y-38559580D01*
X117238095Y-26904819D02*
X117238095Y-27714342D01*
X117238095Y-27714342D02*
X117285714Y-27809580D01*
X117285714Y-27809580D02*
X117333333Y-27857200D01*
X117333333Y-27857200D02*
X117428571Y-27904819D01*
X117428571Y-27904819D02*
X117619047Y-27904819D01*
X117619047Y-27904819D02*
X117714285Y-27857200D01*
X117714285Y-27857200D02*
X117761904Y-27809580D01*
X117761904Y-27809580D02*
X117809523Y-27714342D01*
X117809523Y-27714342D02*
X117809523Y-26904819D01*
X118190476Y-26904819D02*
X118809523Y-26904819D01*
X118809523Y-26904819D02*
X118476190Y-27285771D01*
X118476190Y-27285771D02*
X118619047Y-27285771D01*
X118619047Y-27285771D02*
X118714285Y-27333390D01*
X118714285Y-27333390D02*
X118761904Y-27381009D01*
X118761904Y-27381009D02*
X118809523Y-27476247D01*
X118809523Y-27476247D02*
X118809523Y-27714342D01*
X118809523Y-27714342D02*
X118761904Y-27809580D01*
X118761904Y-27809580D02*
X118714285Y-27857200D01*
X118714285Y-27857200D02*
X118619047Y-27904819D01*
X118619047Y-27904819D02*
X118333333Y-27904819D01*
X118333333Y-27904819D02*
X118238095Y-27857200D01*
X118238095Y-27857200D02*
X118190476Y-27809580D01*
X44038095Y-8754819D02*
X44038095Y-9564342D01*
X44038095Y-9564342D02*
X44085714Y-9659580D01*
X44085714Y-9659580D02*
X44133333Y-9707200D01*
X44133333Y-9707200D02*
X44228571Y-9754819D01*
X44228571Y-9754819D02*
X44419047Y-9754819D01*
X44419047Y-9754819D02*
X44514285Y-9707200D01*
X44514285Y-9707200D02*
X44561904Y-9659580D01*
X44561904Y-9659580D02*
X44609523Y-9564342D01*
X44609523Y-9564342D02*
X44609523Y-8754819D01*
X45514285Y-8754819D02*
X45323809Y-8754819D01*
X45323809Y-8754819D02*
X45228571Y-8802438D01*
X45228571Y-8802438D02*
X45180952Y-8850057D01*
X45180952Y-8850057D02*
X45085714Y-8992914D01*
X45085714Y-8992914D02*
X45038095Y-9183390D01*
X45038095Y-9183390D02*
X45038095Y-9564342D01*
X45038095Y-9564342D02*
X45085714Y-9659580D01*
X45085714Y-9659580D02*
X45133333Y-9707200D01*
X45133333Y-9707200D02*
X45228571Y-9754819D01*
X45228571Y-9754819D02*
X45419047Y-9754819D01*
X45419047Y-9754819D02*
X45514285Y-9707200D01*
X45514285Y-9707200D02*
X45561904Y-9659580D01*
X45561904Y-9659580D02*
X45609523Y-9564342D01*
X45609523Y-9564342D02*
X45609523Y-9326247D01*
X45609523Y-9326247D02*
X45561904Y-9231009D01*
X45561904Y-9231009D02*
X45514285Y-9183390D01*
X45514285Y-9183390D02*
X45419047Y-9135771D01*
X45419047Y-9135771D02*
X45228571Y-9135771D01*
X45228571Y-9135771D02*
X45133333Y-9183390D01*
X45133333Y-9183390D02*
X45085714Y-9231009D01*
X45085714Y-9231009D02*
X45038095Y-9326247D01*
X121357142Y-32929580D02*
X121309523Y-32977200D01*
X121309523Y-32977200D02*
X121166666Y-33024819D01*
X121166666Y-33024819D02*
X121071428Y-33024819D01*
X121071428Y-33024819D02*
X120928571Y-32977200D01*
X120928571Y-32977200D02*
X120833333Y-32881961D01*
X120833333Y-32881961D02*
X120785714Y-32786723D01*
X120785714Y-32786723D02*
X120738095Y-32596247D01*
X120738095Y-32596247D02*
X120738095Y-32453390D01*
X120738095Y-32453390D02*
X120785714Y-32262914D01*
X120785714Y-32262914D02*
X120833333Y-32167676D01*
X120833333Y-32167676D02*
X120928571Y-32072438D01*
X120928571Y-32072438D02*
X121071428Y-32024819D01*
X121071428Y-32024819D02*
X121166666Y-32024819D01*
X121166666Y-32024819D02*
X121309523Y-32072438D01*
X121309523Y-32072438D02*
X121357142Y-32120057D01*
X121833333Y-33024819D02*
X122023809Y-33024819D01*
X122023809Y-33024819D02*
X122119047Y-32977200D01*
X122119047Y-32977200D02*
X122166666Y-32929580D01*
X122166666Y-32929580D02*
X122261904Y-32786723D01*
X122261904Y-32786723D02*
X122309523Y-32596247D01*
X122309523Y-32596247D02*
X122309523Y-32215295D01*
X122309523Y-32215295D02*
X122261904Y-32120057D01*
X122261904Y-32120057D02*
X122214285Y-32072438D01*
X122214285Y-32072438D02*
X122119047Y-32024819D01*
X122119047Y-32024819D02*
X121928571Y-32024819D01*
X121928571Y-32024819D02*
X121833333Y-32072438D01*
X121833333Y-32072438D02*
X121785714Y-32120057D01*
X121785714Y-32120057D02*
X121738095Y-32215295D01*
X121738095Y-32215295D02*
X121738095Y-32453390D01*
X121738095Y-32453390D02*
X121785714Y-32548628D01*
X121785714Y-32548628D02*
X121833333Y-32596247D01*
X121833333Y-32596247D02*
X121928571Y-32643866D01*
X121928571Y-32643866D02*
X122119047Y-32643866D01*
X122119047Y-32643866D02*
X122214285Y-32596247D01*
X122214285Y-32596247D02*
X122261904Y-32548628D01*
X122261904Y-32548628D02*
X122309523Y-32453390D01*
X123166666Y-32358152D02*
X123166666Y-33024819D01*
X122928571Y-31977200D02*
X122690476Y-32691485D01*
X122690476Y-32691485D02*
X123309523Y-32691485D01*
X20738571Y-55124819D02*
X20929047Y-55124819D01*
X20929047Y-55124819D02*
X21024285Y-55172438D01*
X21024285Y-55172438D02*
X21119523Y-55267676D01*
X21119523Y-55267676D02*
X21167142Y-55458152D01*
X21167142Y-55458152D02*
X21167142Y-55791485D01*
X21167142Y-55791485D02*
X21119523Y-55981961D01*
X21119523Y-55981961D02*
X21024285Y-56077200D01*
X21024285Y-56077200D02*
X20929047Y-56124819D01*
X20929047Y-56124819D02*
X20738571Y-56124819D01*
X20738571Y-56124819D02*
X20643333Y-56077200D01*
X20643333Y-56077200D02*
X20548095Y-55981961D01*
X20548095Y-55981961D02*
X20500476Y-55791485D01*
X20500476Y-55791485D02*
X20500476Y-55458152D01*
X20500476Y-55458152D02*
X20548095Y-55267676D01*
X20548095Y-55267676D02*
X20643333Y-55172438D01*
X20643333Y-55172438D02*
X20738571Y-55124819D01*
X21595714Y-56124819D02*
X21595714Y-55124819D01*
X22167142Y-56124819D02*
X21738571Y-55553390D01*
X22167142Y-55124819D02*
X21595714Y-55696247D01*
X23119523Y-56124819D02*
X22548095Y-56124819D01*
X22833809Y-56124819D02*
X22833809Y-55124819D01*
X22833809Y-55124819D02*
X22738571Y-55267676D01*
X22738571Y-55267676D02*
X22643333Y-55362914D01*
X22643333Y-55362914D02*
X22548095Y-55410533D01*
X81238095Y-11054819D02*
X81238095Y-11864342D01*
X81238095Y-11864342D02*
X81285714Y-11959580D01*
X81285714Y-11959580D02*
X81333333Y-12007200D01*
X81333333Y-12007200D02*
X81428571Y-12054819D01*
X81428571Y-12054819D02*
X81619047Y-12054819D01*
X81619047Y-12054819D02*
X81714285Y-12007200D01*
X81714285Y-12007200D02*
X81761904Y-11959580D01*
X81761904Y-11959580D02*
X81809523Y-11864342D01*
X81809523Y-11864342D02*
X81809523Y-11054819D01*
X82428571Y-11483390D02*
X82333333Y-11435771D01*
X82333333Y-11435771D02*
X82285714Y-11388152D01*
X82285714Y-11388152D02*
X82238095Y-11292914D01*
X82238095Y-11292914D02*
X82238095Y-11245295D01*
X82238095Y-11245295D02*
X82285714Y-11150057D01*
X82285714Y-11150057D02*
X82333333Y-11102438D01*
X82333333Y-11102438D02*
X82428571Y-11054819D01*
X82428571Y-11054819D02*
X82619047Y-11054819D01*
X82619047Y-11054819D02*
X82714285Y-11102438D01*
X82714285Y-11102438D02*
X82761904Y-11150057D01*
X82761904Y-11150057D02*
X82809523Y-11245295D01*
X82809523Y-11245295D02*
X82809523Y-11292914D01*
X82809523Y-11292914D02*
X82761904Y-11388152D01*
X82761904Y-11388152D02*
X82714285Y-11435771D01*
X82714285Y-11435771D02*
X82619047Y-11483390D01*
X82619047Y-11483390D02*
X82428571Y-11483390D01*
X82428571Y-11483390D02*
X82333333Y-11531009D01*
X82333333Y-11531009D02*
X82285714Y-11578628D01*
X82285714Y-11578628D02*
X82238095Y-11673866D01*
X82238095Y-11673866D02*
X82238095Y-11864342D01*
X82238095Y-11864342D02*
X82285714Y-11959580D01*
X82285714Y-11959580D02*
X82333333Y-12007200D01*
X82333333Y-12007200D02*
X82428571Y-12054819D01*
X82428571Y-12054819D02*
X82619047Y-12054819D01*
X82619047Y-12054819D02*
X82714285Y-12007200D01*
X82714285Y-12007200D02*
X82761904Y-11959580D01*
X82761904Y-11959580D02*
X82809523Y-11864342D01*
X82809523Y-11864342D02*
X82809523Y-11673866D01*
X82809523Y-11673866D02*
X82761904Y-11578628D01*
X82761904Y-11578628D02*
X82714285Y-11531009D01*
X82714285Y-11531009D02*
X82619047Y-11483390D01*
X125357142Y-46929580D02*
X125309523Y-46977200D01*
X125309523Y-46977200D02*
X125166666Y-47024819D01*
X125166666Y-47024819D02*
X125071428Y-47024819D01*
X125071428Y-47024819D02*
X124928571Y-46977200D01*
X124928571Y-46977200D02*
X124833333Y-46881961D01*
X124833333Y-46881961D02*
X124785714Y-46786723D01*
X124785714Y-46786723D02*
X124738095Y-46596247D01*
X124738095Y-46596247D02*
X124738095Y-46453390D01*
X124738095Y-46453390D02*
X124785714Y-46262914D01*
X124785714Y-46262914D02*
X124833333Y-46167676D01*
X124833333Y-46167676D02*
X124928571Y-46072438D01*
X124928571Y-46072438D02*
X125071428Y-46024819D01*
X125071428Y-46024819D02*
X125166666Y-46024819D01*
X125166666Y-46024819D02*
X125309523Y-46072438D01*
X125309523Y-46072438D02*
X125357142Y-46120057D01*
X125833333Y-47024819D02*
X126023809Y-47024819D01*
X126023809Y-47024819D02*
X126119047Y-46977200D01*
X126119047Y-46977200D02*
X126166666Y-46929580D01*
X126166666Y-46929580D02*
X126261904Y-46786723D01*
X126261904Y-46786723D02*
X126309523Y-46596247D01*
X126309523Y-46596247D02*
X126309523Y-46215295D01*
X126309523Y-46215295D02*
X126261904Y-46120057D01*
X126261904Y-46120057D02*
X126214285Y-46072438D01*
X126214285Y-46072438D02*
X126119047Y-46024819D01*
X126119047Y-46024819D02*
X125928571Y-46024819D01*
X125928571Y-46024819D02*
X125833333Y-46072438D01*
X125833333Y-46072438D02*
X125785714Y-46120057D01*
X125785714Y-46120057D02*
X125738095Y-46215295D01*
X125738095Y-46215295D02*
X125738095Y-46453390D01*
X125738095Y-46453390D02*
X125785714Y-46548628D01*
X125785714Y-46548628D02*
X125833333Y-46596247D01*
X125833333Y-46596247D02*
X125928571Y-46643866D01*
X125928571Y-46643866D02*
X126119047Y-46643866D01*
X126119047Y-46643866D02*
X126214285Y-46596247D01*
X126214285Y-46596247D02*
X126261904Y-46548628D01*
X126261904Y-46548628D02*
X126309523Y-46453390D01*
X127166666Y-46024819D02*
X126976190Y-46024819D01*
X126976190Y-46024819D02*
X126880952Y-46072438D01*
X126880952Y-46072438D02*
X126833333Y-46120057D01*
X126833333Y-46120057D02*
X126738095Y-46262914D01*
X126738095Y-46262914D02*
X126690476Y-46453390D01*
X126690476Y-46453390D02*
X126690476Y-46834342D01*
X126690476Y-46834342D02*
X126738095Y-46929580D01*
X126738095Y-46929580D02*
X126785714Y-46977200D01*
X126785714Y-46977200D02*
X126880952Y-47024819D01*
X126880952Y-47024819D02*
X127071428Y-47024819D01*
X127071428Y-47024819D02*
X127166666Y-46977200D01*
X127166666Y-46977200D02*
X127214285Y-46929580D01*
X127214285Y-46929580D02*
X127261904Y-46834342D01*
X127261904Y-46834342D02*
X127261904Y-46596247D01*
X127261904Y-46596247D02*
X127214285Y-46501009D01*
X127214285Y-46501009D02*
X127166666Y-46453390D01*
X127166666Y-46453390D02*
X127071428Y-46405771D01*
X127071428Y-46405771D02*
X126880952Y-46405771D01*
X126880952Y-46405771D02*
X126785714Y-46453390D01*
X126785714Y-46453390D02*
X126738095Y-46501009D01*
X126738095Y-46501009D02*
X126690476Y-46596247D01*
X67357142Y-6929580D02*
X67309523Y-6977200D01*
X67309523Y-6977200D02*
X67166666Y-7024819D01*
X67166666Y-7024819D02*
X67071428Y-7024819D01*
X67071428Y-7024819D02*
X66928571Y-6977200D01*
X66928571Y-6977200D02*
X66833333Y-6881961D01*
X66833333Y-6881961D02*
X66785714Y-6786723D01*
X66785714Y-6786723D02*
X66738095Y-6596247D01*
X66738095Y-6596247D02*
X66738095Y-6453390D01*
X66738095Y-6453390D02*
X66785714Y-6262914D01*
X66785714Y-6262914D02*
X66833333Y-6167676D01*
X66833333Y-6167676D02*
X66928571Y-6072438D01*
X66928571Y-6072438D02*
X67071428Y-6024819D01*
X67071428Y-6024819D02*
X67166666Y-6024819D01*
X67166666Y-6024819D02*
X67309523Y-6072438D01*
X67309523Y-6072438D02*
X67357142Y-6120057D01*
X67833333Y-7024819D02*
X68023809Y-7024819D01*
X68023809Y-7024819D02*
X68119047Y-6977200D01*
X68119047Y-6977200D02*
X68166666Y-6929580D01*
X68166666Y-6929580D02*
X68261904Y-6786723D01*
X68261904Y-6786723D02*
X68309523Y-6596247D01*
X68309523Y-6596247D02*
X68309523Y-6215295D01*
X68309523Y-6215295D02*
X68261904Y-6120057D01*
X68261904Y-6120057D02*
X68214285Y-6072438D01*
X68214285Y-6072438D02*
X68119047Y-6024819D01*
X68119047Y-6024819D02*
X67928571Y-6024819D01*
X67928571Y-6024819D02*
X67833333Y-6072438D01*
X67833333Y-6072438D02*
X67785714Y-6120057D01*
X67785714Y-6120057D02*
X67738095Y-6215295D01*
X67738095Y-6215295D02*
X67738095Y-6453390D01*
X67738095Y-6453390D02*
X67785714Y-6548628D01*
X67785714Y-6548628D02*
X67833333Y-6596247D01*
X67833333Y-6596247D02*
X67928571Y-6643866D01*
X67928571Y-6643866D02*
X68119047Y-6643866D01*
X68119047Y-6643866D02*
X68214285Y-6596247D01*
X68214285Y-6596247D02*
X68261904Y-6548628D01*
X68261904Y-6548628D02*
X68309523Y-6453390D01*
X68785714Y-7024819D02*
X68976190Y-7024819D01*
X68976190Y-7024819D02*
X69071428Y-6977200D01*
X69071428Y-6977200D02*
X69119047Y-6929580D01*
X69119047Y-6929580D02*
X69214285Y-6786723D01*
X69214285Y-6786723D02*
X69261904Y-6596247D01*
X69261904Y-6596247D02*
X69261904Y-6215295D01*
X69261904Y-6215295D02*
X69214285Y-6120057D01*
X69214285Y-6120057D02*
X69166666Y-6072438D01*
X69166666Y-6072438D02*
X69071428Y-6024819D01*
X69071428Y-6024819D02*
X68880952Y-6024819D01*
X68880952Y-6024819D02*
X68785714Y-6072438D01*
X68785714Y-6072438D02*
X68738095Y-6120057D01*
X68738095Y-6120057D02*
X68690476Y-6215295D01*
X68690476Y-6215295D02*
X68690476Y-6453390D01*
X68690476Y-6453390D02*
X68738095Y-6548628D01*
X68738095Y-6548628D02*
X68785714Y-6596247D01*
X68785714Y-6596247D02*
X68880952Y-6643866D01*
X68880952Y-6643866D02*
X69071428Y-6643866D01*
X69071428Y-6643866D02*
X69166666Y-6596247D01*
X69166666Y-6596247D02*
X69214285Y-6548628D01*
X69214285Y-6548628D02*
X69261904Y-6453390D01*
X151666666Y-10704819D02*
X151666666Y-11419104D01*
X151666666Y-11419104D02*
X151619047Y-11561961D01*
X151619047Y-11561961D02*
X151523809Y-11657200D01*
X151523809Y-11657200D02*
X151380952Y-11704819D01*
X151380952Y-11704819D02*
X151285714Y-11704819D01*
X152095238Y-10800057D02*
X152142857Y-10752438D01*
X152142857Y-10752438D02*
X152238095Y-10704819D01*
X152238095Y-10704819D02*
X152476190Y-10704819D01*
X152476190Y-10704819D02*
X152571428Y-10752438D01*
X152571428Y-10752438D02*
X152619047Y-10800057D01*
X152619047Y-10800057D02*
X152666666Y-10895295D01*
X152666666Y-10895295D02*
X152666666Y-10990533D01*
X152666666Y-10990533D02*
X152619047Y-11133390D01*
X152619047Y-11133390D02*
X152047619Y-11704819D01*
X152047619Y-11704819D02*
X152666666Y-11704819D01*
X64261905Y-74074819D02*
X64261905Y-73074819D01*
X64833333Y-74074819D02*
X64404762Y-73503390D01*
X64833333Y-73074819D02*
X64261905Y-73646247D01*
X65214286Y-73170057D02*
X65261905Y-73122438D01*
X65261905Y-73122438D02*
X65357143Y-73074819D01*
X65357143Y-73074819D02*
X65595238Y-73074819D01*
X65595238Y-73074819D02*
X65690476Y-73122438D01*
X65690476Y-73122438D02*
X65738095Y-73170057D01*
X65738095Y-73170057D02*
X65785714Y-73265295D01*
X65785714Y-73265295D02*
X65785714Y-73360533D01*
X65785714Y-73360533D02*
X65738095Y-73503390D01*
X65738095Y-73503390D02*
X65166667Y-74074819D01*
X65166667Y-74074819D02*
X65785714Y-74074819D01*
X146357142Y-32929580D02*
X146309523Y-32977200D01*
X146309523Y-32977200D02*
X146166666Y-33024819D01*
X146166666Y-33024819D02*
X146071428Y-33024819D01*
X146071428Y-33024819D02*
X145928571Y-32977200D01*
X145928571Y-32977200D02*
X145833333Y-32881961D01*
X145833333Y-32881961D02*
X145785714Y-32786723D01*
X145785714Y-32786723D02*
X145738095Y-32596247D01*
X145738095Y-32596247D02*
X145738095Y-32453390D01*
X145738095Y-32453390D02*
X145785714Y-32262914D01*
X145785714Y-32262914D02*
X145833333Y-32167676D01*
X145833333Y-32167676D02*
X145928571Y-32072438D01*
X145928571Y-32072438D02*
X146071428Y-32024819D01*
X146071428Y-32024819D02*
X146166666Y-32024819D01*
X146166666Y-32024819D02*
X146309523Y-32072438D01*
X146309523Y-32072438D02*
X146357142Y-32120057D01*
X146833333Y-33024819D02*
X147023809Y-33024819D01*
X147023809Y-33024819D02*
X147119047Y-32977200D01*
X147119047Y-32977200D02*
X147166666Y-32929580D01*
X147166666Y-32929580D02*
X147261904Y-32786723D01*
X147261904Y-32786723D02*
X147309523Y-32596247D01*
X147309523Y-32596247D02*
X147309523Y-32215295D01*
X147309523Y-32215295D02*
X147261904Y-32120057D01*
X147261904Y-32120057D02*
X147214285Y-32072438D01*
X147214285Y-32072438D02*
X147119047Y-32024819D01*
X147119047Y-32024819D02*
X146928571Y-32024819D01*
X146928571Y-32024819D02*
X146833333Y-32072438D01*
X146833333Y-32072438D02*
X146785714Y-32120057D01*
X146785714Y-32120057D02*
X146738095Y-32215295D01*
X146738095Y-32215295D02*
X146738095Y-32453390D01*
X146738095Y-32453390D02*
X146785714Y-32548628D01*
X146785714Y-32548628D02*
X146833333Y-32596247D01*
X146833333Y-32596247D02*
X146928571Y-32643866D01*
X146928571Y-32643866D02*
X147119047Y-32643866D01*
X147119047Y-32643866D02*
X147214285Y-32596247D01*
X147214285Y-32596247D02*
X147261904Y-32548628D01*
X147261904Y-32548628D02*
X147309523Y-32453390D01*
X147690476Y-32120057D02*
X147738095Y-32072438D01*
X147738095Y-32072438D02*
X147833333Y-32024819D01*
X147833333Y-32024819D02*
X148071428Y-32024819D01*
X148071428Y-32024819D02*
X148166666Y-32072438D01*
X148166666Y-32072438D02*
X148214285Y-32120057D01*
X148214285Y-32120057D02*
X148261904Y-32215295D01*
X148261904Y-32215295D02*
X148261904Y-32310533D01*
X148261904Y-32310533D02*
X148214285Y-32453390D01*
X148214285Y-32453390D02*
X147642857Y-33024819D01*
X147642857Y-33024819D02*
X148261904Y-33024819D01*
X33988095Y-43704819D02*
X33988095Y-42704819D01*
X33988095Y-42704819D02*
X34321428Y-43419104D01*
X34321428Y-43419104D02*
X34654761Y-42704819D01*
X34654761Y-42704819D02*
X34654761Y-43704819D01*
X35321428Y-42704819D02*
X35511904Y-42704819D01*
X35511904Y-42704819D02*
X35607142Y-42752438D01*
X35607142Y-42752438D02*
X35702380Y-42847676D01*
X35702380Y-42847676D02*
X35749999Y-43038152D01*
X35749999Y-43038152D02*
X35749999Y-43371485D01*
X35749999Y-43371485D02*
X35702380Y-43561961D01*
X35702380Y-43561961D02*
X35607142Y-43657200D01*
X35607142Y-43657200D02*
X35511904Y-43704819D01*
X35511904Y-43704819D02*
X35321428Y-43704819D01*
X35321428Y-43704819D02*
X35226190Y-43657200D01*
X35226190Y-43657200D02*
X35130952Y-43561961D01*
X35130952Y-43561961D02*
X35083333Y-43371485D01*
X35083333Y-43371485D02*
X35083333Y-43038152D01*
X35083333Y-43038152D02*
X35130952Y-42847676D01*
X35130952Y-42847676D02*
X35226190Y-42752438D01*
X35226190Y-42752438D02*
X35321428Y-42704819D01*
X36035714Y-42704819D02*
X36369047Y-43704819D01*
X36369047Y-43704819D02*
X36702380Y-42704819D01*
X37559523Y-43704819D02*
X36988095Y-43704819D01*
X37273809Y-43704819D02*
X37273809Y-42704819D01*
X37273809Y-42704819D02*
X37178571Y-42847676D01*
X37178571Y-42847676D02*
X37083333Y-42942914D01*
X37083333Y-42942914D02*
X36988095Y-42990533D01*
X121357142Y-42929580D02*
X121309523Y-42977200D01*
X121309523Y-42977200D02*
X121166666Y-43024819D01*
X121166666Y-43024819D02*
X121071428Y-43024819D01*
X121071428Y-43024819D02*
X120928571Y-42977200D01*
X120928571Y-42977200D02*
X120833333Y-42881961D01*
X120833333Y-42881961D02*
X120785714Y-42786723D01*
X120785714Y-42786723D02*
X120738095Y-42596247D01*
X120738095Y-42596247D02*
X120738095Y-42453390D01*
X120738095Y-42453390D02*
X120785714Y-42262914D01*
X120785714Y-42262914D02*
X120833333Y-42167676D01*
X120833333Y-42167676D02*
X120928571Y-42072438D01*
X120928571Y-42072438D02*
X121071428Y-42024819D01*
X121071428Y-42024819D02*
X121166666Y-42024819D01*
X121166666Y-42024819D02*
X121309523Y-42072438D01*
X121309523Y-42072438D02*
X121357142Y-42120057D01*
X121833333Y-43024819D02*
X122023809Y-43024819D01*
X122023809Y-43024819D02*
X122119047Y-42977200D01*
X122119047Y-42977200D02*
X122166666Y-42929580D01*
X122166666Y-42929580D02*
X122261904Y-42786723D01*
X122261904Y-42786723D02*
X122309523Y-42596247D01*
X122309523Y-42596247D02*
X122309523Y-42215295D01*
X122309523Y-42215295D02*
X122261904Y-42120057D01*
X122261904Y-42120057D02*
X122214285Y-42072438D01*
X122214285Y-42072438D02*
X122119047Y-42024819D01*
X122119047Y-42024819D02*
X121928571Y-42024819D01*
X121928571Y-42024819D02*
X121833333Y-42072438D01*
X121833333Y-42072438D02*
X121785714Y-42120057D01*
X121785714Y-42120057D02*
X121738095Y-42215295D01*
X121738095Y-42215295D02*
X121738095Y-42453390D01*
X121738095Y-42453390D02*
X121785714Y-42548628D01*
X121785714Y-42548628D02*
X121833333Y-42596247D01*
X121833333Y-42596247D02*
X121928571Y-42643866D01*
X121928571Y-42643866D02*
X122119047Y-42643866D01*
X122119047Y-42643866D02*
X122214285Y-42596247D01*
X122214285Y-42596247D02*
X122261904Y-42548628D01*
X122261904Y-42548628D02*
X122309523Y-42453390D01*
X123214285Y-42024819D02*
X122738095Y-42024819D01*
X122738095Y-42024819D02*
X122690476Y-42501009D01*
X122690476Y-42501009D02*
X122738095Y-42453390D01*
X122738095Y-42453390D02*
X122833333Y-42405771D01*
X122833333Y-42405771D02*
X123071428Y-42405771D01*
X123071428Y-42405771D02*
X123166666Y-42453390D01*
X123166666Y-42453390D02*
X123214285Y-42501009D01*
X123214285Y-42501009D02*
X123261904Y-42596247D01*
X123261904Y-42596247D02*
X123261904Y-42834342D01*
X123261904Y-42834342D02*
X123214285Y-42929580D01*
X123214285Y-42929580D02*
X123166666Y-42977200D01*
X123166666Y-42977200D02*
X123071428Y-43024819D01*
X123071428Y-43024819D02*
X122833333Y-43024819D01*
X122833333Y-43024819D02*
X122738095Y-42977200D01*
X122738095Y-42977200D02*
X122690476Y-42929580D01*
%TO.C,C98*%
D12*
X127859420Y-35490000D02*
X128140580Y-35490000D01*
X127859420Y-36510000D02*
X128140580Y-36510000D01*
%TO.C,U7*%
X69940000Y-11440000D02*
X74060000Y-11440000D01*
X69940000Y-11535000D02*
X69940000Y-11440000D01*
X69940000Y-16560000D02*
X69940000Y-16465000D01*
X74060000Y-11440000D02*
X74060000Y-11535000D01*
X74060000Y-16465000D02*
X74060000Y-16560000D01*
X74060000Y-16560000D02*
X69940000Y-16560000D01*
X69400000Y-11530000D02*
X69160000Y-11200000D01*
X69640000Y-11200000D01*
X69400000Y-11530000D01*
G36*
X69400000Y-11530000D02*
G01*
X69160000Y-11200000D01*
X69640000Y-11200000D01*
X69400000Y-11530000D01*
G37*
%TO.C,C90*%
X93859420Y-77490000D02*
X94140580Y-77490000D01*
X93859420Y-78510000D02*
X94140580Y-78510000D01*
%TO.C,C100*%
X73859420Y-19490000D02*
X74140580Y-19490000D01*
X73859420Y-20510000D02*
X74140580Y-20510000D01*
%TO.C,C102*%
X81859420Y-9490000D02*
X82140580Y-9490000D01*
X81859420Y-10510000D02*
X82140580Y-10510000D01*
%TO.C,C97*%
X127859420Y-43490000D02*
X128140580Y-43490000D01*
X127859420Y-44510000D02*
X128140580Y-44510000D01*
%TO.C,U1*%
X84800000Y-49100000D02*
X84800000Y-55300000D01*
X84800000Y-49100000D02*
X103200000Y-49100000D01*
X84800000Y-73950000D02*
X84800000Y-74950000D01*
X84800000Y-74950000D02*
X86300000Y-74950000D01*
X103200000Y-49100000D02*
X103200000Y-55300000D01*
X103200000Y-74950000D02*
X101700000Y-74950000D01*
X103200000Y-74950000D02*
X103200000Y-73950000D01*
X84800000Y-55975000D02*
X84300000Y-55975000D01*
X84800000Y-55475000D01*
X84800000Y-55975000D01*
G36*
X84800000Y-55975000D02*
G01*
X84300000Y-55975000D01*
X84800000Y-55475000D01*
X84800000Y-55975000D01*
G37*
%TO.C,F1*%
X19397936Y-11090000D02*
X20602064Y-11090000D01*
X19397936Y-12910000D02*
X20602064Y-12910000D01*
%TO.C,Q1*%
X31240000Y-60440000D02*
X32760000Y-60440000D01*
X31240000Y-60490000D02*
X31240000Y-60440000D01*
X31240000Y-62390000D02*
X31240000Y-61610000D01*
X31240000Y-63560000D02*
X31240000Y-63510000D01*
X32760000Y-60440000D02*
X32760000Y-61440000D01*
X32760000Y-62560000D02*
X32760000Y-63560000D01*
X32760000Y-63560000D02*
X31240000Y-63560000D01*
X30700000Y-61620000D02*
X30940000Y-61950000D01*
X30460000Y-61950000D01*
X30700000Y-61620000D01*
G36*
X30940000Y-61950000D02*
G01*
X30460000Y-61950000D01*
X30700000Y-61620000D01*
X30940000Y-61950000D01*
G37*
%TO.C,C93*%
X117859420Y-25490000D02*
X118140580Y-25490000D01*
X117859420Y-26510000D02*
X118140580Y-26510000D01*
%TO.C,C101*%
X81859420Y-17490000D02*
X82140580Y-17490000D01*
X81859420Y-18510000D02*
X82140580Y-18510000D01*
%TO.C,U4*%
X121265000Y-38890000D02*
X122735000Y-38890000D01*
X121265000Y-38915000D02*
X121265000Y-38890000D01*
X121265000Y-41110000D02*
X121265000Y-41085000D01*
X122735000Y-38890000D02*
X122735000Y-38915000D01*
X122735000Y-41085000D02*
X122735000Y-41110000D01*
X122735000Y-41110000D02*
X121265000Y-41110000D01*
X120820000Y-38910000D02*
X120680000Y-38720000D01*
X120960000Y-38720000D01*
X120820000Y-38910000D01*
G36*
X120820000Y-38910000D02*
G01*
X120680000Y-38720000D01*
X120960000Y-38720000D01*
X120820000Y-38910000D01*
G37*
%TO.C,K1*%
X23320000Y-66690000D02*
X44460000Y-66690000D01*
X23320000Y-77690000D02*
X23320000Y-66690000D01*
X23320000Y-77690000D02*
X44460000Y-77690000D01*
X26270000Y-76000000D02*
X27540000Y-76000000D01*
X27030000Y-71170000D02*
X27540000Y-71170000D01*
X27030000Y-72950000D02*
X28050000Y-71940000D01*
X27030000Y-73710000D02*
X27030000Y-71170000D01*
X27540000Y-68380000D02*
X26270000Y-68380000D01*
X27540000Y-71170000D02*
X27540000Y-68380000D01*
X27540000Y-71170000D02*
X28050000Y-71170000D01*
X27540000Y-73710000D02*
X27030000Y-73710000D01*
X27540000Y-76000000D02*
X27540000Y-73710000D01*
X28050000Y-71170000D02*
X28050000Y-73710000D01*
X28050000Y-73710000D02*
X27540000Y-73710000D01*
X35160000Y-72190000D02*
X38335000Y-72190000D01*
X35160000Y-74730000D02*
X35160000Y-72190000D01*
X38335000Y-72190000D02*
X42145000Y-69650000D01*
X40240000Y-69650000D02*
X40240000Y-70920000D01*
X42780000Y-74730000D02*
X42780000Y-72190000D01*
X44460000Y-77690000D02*
X44460000Y-66690000D01*
X38462000Y-72190000D02*
G75*
G02*
X38208000Y-72190000I-127000J0D01*
G01*
X38208000Y-72190000D02*
G75*
G02*
X38462000Y-72190000I127000J0D01*
G01*
%TO.C,D1*%
X36490000Y-60350000D02*
X36490000Y-63650000D01*
X36490000Y-60350000D02*
X42000000Y-60350000D01*
X36490000Y-63650000D02*
X42000000Y-63650000D01*
%TO.C,R10*%
X106620000Y-60440000D02*
X108000000Y-60440000D01*
X106620000Y-61820000D02*
X106620000Y-60440000D01*
X106620000Y-63090000D02*
X106620000Y-65740000D01*
X106620000Y-63090000D02*
X109380000Y-63090000D01*
X106620000Y-65740000D02*
X109380000Y-65740000D01*
X109380000Y-63090000D02*
X109380000Y-65740000D01*
%TO.C,J1*%
X8130000Y-21780000D02*
X15370000Y-21780000D01*
X8130000Y-28000000D02*
X15370000Y-28000000D01*
X8130000Y-29100000D02*
X15370000Y-29100000D01*
X8130000Y-29620000D02*
X8130000Y-21780000D01*
X9700000Y-29620000D02*
X8130000Y-29620000D01*
X15370000Y-21780000D02*
X15370000Y-29620000D01*
X15370000Y-29620000D02*
X10300000Y-29620000D01*
X10000000Y-29620000D02*
X10440000Y-30230000D01*
X9560000Y-30230000D01*
X10000000Y-29620000D01*
G36*
X10440000Y-30230000D02*
G01*
X9560000Y-30230000D01*
X10000000Y-29620000D01*
X10440000Y-30230000D01*
G37*
%TO.C,C91*%
X122859420Y-21490000D02*
X123140580Y-21490000D01*
X122859420Y-22510000D02*
X123140580Y-22510000D01*
%TO.C,U5*%
X127265000Y-38890000D02*
X128735000Y-38890000D01*
X127265000Y-38915000D02*
X127265000Y-38890000D01*
X127265000Y-41110000D02*
X127265000Y-41085000D01*
X128735000Y-38890000D02*
X128735000Y-38915000D01*
X128735000Y-41085000D02*
X128735000Y-41110000D01*
X128735000Y-41110000D02*
X127265000Y-41110000D01*
X126820000Y-38910000D02*
X126680000Y-38720000D01*
X126960000Y-38720000D01*
X126820000Y-38910000D01*
G36*
X126820000Y-38910000D02*
G01*
X126680000Y-38720000D01*
X126960000Y-38720000D01*
X126820000Y-38910000D01*
G37*
%TO.C,U3*%
X116640000Y-28640000D02*
X116865000Y-28640000D01*
X116640000Y-29115000D02*
X116640000Y-28640000D01*
X116640000Y-31360000D02*
X116640000Y-30885000D01*
X116865000Y-31360000D02*
X116640000Y-31360000D01*
X119135000Y-28640000D02*
X119360000Y-28640000D01*
X119360000Y-28640000D02*
X119360000Y-29115000D01*
X119360000Y-30885000D02*
X119360000Y-31360000D01*
X119360000Y-31360000D02*
X119135000Y-31360000D01*
X116140000Y-29500000D02*
X115810000Y-29740000D01*
X115810000Y-29260000D01*
X116140000Y-29500000D01*
G36*
X116140000Y-29500000D02*
G01*
X115810000Y-29740000D01*
X115810000Y-29260000D01*
X116140000Y-29500000D01*
G37*
%TO.C,U6*%
X24190000Y-10140000D02*
X65410000Y-10140000D01*
X24190000Y-19704000D02*
X24190000Y-10140000D01*
X24190000Y-35860000D02*
X24190000Y-20296000D01*
X65410000Y-10140000D02*
X65410000Y-35860000D01*
X65410000Y-35860000D02*
X24190000Y-35860000D01*
X24190000Y-20000000D02*
X23580000Y-20440000D01*
X23580000Y-19560000D01*
X24190000Y-20000000D01*
G36*
X24190000Y-20000000D02*
G01*
X23580000Y-20440000D01*
X23580000Y-19560000D01*
X24190000Y-20000000D01*
G37*
%TO.C,C94*%
X121859420Y-33490000D02*
X122140580Y-33490000D01*
X121859420Y-34510000D02*
X122140580Y-34510000D01*
%TO.C,OK1*%
X19160000Y-56670000D02*
X19160000Y-61870000D01*
X19160000Y-61870000D02*
X24460000Y-61870000D01*
X20810000Y-56670000D02*
X19160000Y-56670000D01*
X24460000Y-56670000D02*
X22810000Y-56670000D01*
X24460000Y-61870000D02*
X24460000Y-56670000D01*
X22810000Y-56670000D02*
G75*
G02*
X20810000Y-56670000I-1000000J0D01*
G01*
%TO.C,U8*%
X81090000Y-12440000D02*
X82910000Y-12440000D01*
X81090000Y-12490000D02*
X81090000Y-12440000D01*
X81090000Y-15560000D02*
X81090000Y-15510000D01*
X82910000Y-12440000D02*
X82910000Y-12490000D01*
X82910000Y-13610000D02*
X82910000Y-14390000D01*
X82910000Y-15510000D02*
X82910000Y-15560000D01*
X82910000Y-15560000D02*
X81090000Y-15560000D01*
X80550000Y-12490000D02*
X80310000Y-12160000D01*
X80790000Y-12160000D01*
X80550000Y-12490000D01*
G36*
X80550000Y-12490000D02*
G01*
X80310000Y-12160000D01*
X80790000Y-12160000D01*
X80550000Y-12490000D01*
G37*
%TO.C,C96*%
X125859420Y-47490000D02*
X126140580Y-47490000D01*
X125859420Y-48510000D02*
X126140580Y-48510000D01*
%TO.C,C99*%
X67859420Y-7490000D02*
X68140580Y-7490000D01*
X67859420Y-8510000D02*
X68140580Y-8510000D01*
%TO.C,J2*%
X148645000Y-14550000D02*
X148645000Y-17450000D01*
X150550000Y-12645000D02*
X153450000Y-12645000D01*
X150550000Y-19355000D02*
X153450000Y-19355000D01*
X155355000Y-14550000D02*
X155355000Y-17450000D01*
%TO.C,K2*%
X63620000Y-74620000D02*
X65000000Y-74620000D01*
X63620000Y-76000000D02*
X63620000Y-74620000D01*
X63620000Y-77270000D02*
X63620000Y-79920000D01*
X63620000Y-77270000D02*
X66380000Y-77270000D01*
X63620000Y-79920000D02*
X66380000Y-79920000D01*
X66380000Y-77270000D02*
X66380000Y-79920000D01*
%TO.C,C92*%
X146859420Y-33490000D02*
X147140580Y-33490000D01*
X146859420Y-34510000D02*
X147140580Y-34510000D01*
%TO.C,MOV1*%
D11*
X28000000Y-37750000D02*
X28000000Y-42250000D01*
X28000000Y-37750000D02*
X43500000Y-37750000D01*
X28000000Y-42250000D02*
X43500000Y-42250000D01*
X43500000Y-37750000D02*
X43500000Y-42250000D01*
%TO.C,C95*%
D12*
X121859420Y-43490000D02*
X122140580Y-43490000D01*
X121859420Y-44510000D02*
X122140580Y-44510000D01*
%TD*%
M02*
