%TF.GenerationSoftware,KiCad,Pcbnew,10.0.3*%
%TF.CreationDate,2026-05-25T19:37:30+02:00*%
%TF.ProjectId,esp32_s3_dwm3000_uwb_anchor_with_relay_outputs,65737033-325f-4733-935f-64776d333030,rev?*%
%TF.SameCoordinates,Original*%
%TF.FileFunction,Paste,Top*%
%TF.FilePolarity,Positive*%
%FSLAX46Y46*%
G04 Gerber Fmt 4.6, Leading zero omitted, Abs format (unit mm)*
G04 Created by KiCad (PCBNEW 10.0.3) date 2026-05-25 19:37:30*
%MOMM*%
%LPD*%
G01*
G04 APERTURE LIST*
G04 Aperture macros list*
%AMRoundRect*
0 Rectangle with rounded corners*
0 $1 Rounding radius*
0 $2 $3 $4 $5 $6 $7 $8 $9 X,Y pos of 4 corners*
0 Add a 4 corners polygon primitive as box body*
4,1,4,$2,$3,$4,$5,$6,$7,$8,$9,$2,$3,0*
0 Add four circle primitives for the rounded corners*
1,1,$1+$1,$2,$3*
1,1,$1+$1,$4,$5*
1,1,$1+$1,$6,$7*
1,1,$1+$1,$8,$9*
0 Add four rect primitives between the rounded corners*
20,1,$1+$1,$2,$3,$4,$5,0*
20,1,$1+$1,$4,$5,$6,$7,0*
20,1,$1+$1,$6,$7,$8,$9,0*
20,1,$1+$1,$8,$9,$2,$3,0*%
G04 Aperture macros list end*
%ADD10R,0.900000X1.200000*%
%ADD11RoundRect,0.225000X-0.225000X-0.250000X0.225000X-0.250000X0.225000X0.250000X-0.225000X0.250000X0*%
%ADD12RoundRect,0.150000X-0.825000X-0.150000X0.825000X-0.150000X0.825000X0.150000X-0.825000X0.150000X0*%
%ADD13R,0.900000X0.900000*%
%ADD14R,1.500000X0.900000*%
%ADD15R,0.900000X1.500000*%
%ADD16RoundRect,0.250000X-0.375000X-0.625000X0.375000X-0.625000X0.375000X0.625000X-0.375000X0.625000X0*%
%ADD17RoundRect,0.150000X-0.587500X-0.150000X0.587500X-0.150000X0.587500X0.150000X-0.587500X0.150000X0*%
%ADD18RoundRect,0.087500X-0.425000X-0.087500X0.425000X-0.087500X0.425000X0.087500X-0.425000X0.087500X0*%
%ADD19RoundRect,0.250000X-1.000000X-0.650000X1.000000X-0.650000X1.000000X0.650000X-1.000000X0.650000X0*%
%ADD20RoundRect,0.145000X-0.145000X-0.145000X0.145000X-0.145000X0.145000X0.145000X-0.145000X0.145000X0*%
%ADD21RoundRect,0.062500X-0.275000X-0.062500X0.275000X-0.062500X0.275000X0.062500X-0.275000X0.062500X0*%
%ADD22RoundRect,0.062500X-0.062500X-0.275000X0.062500X-0.275000X0.062500X0.275000X-0.062500X0.275000X0*%
%ADD23RoundRect,0.150000X-0.512500X-0.150000X0.512500X-0.150000X0.512500X0.150000X-0.512500X0.150000X0*%
G04 APERTURE END LIST*
D10*
%TO.C,U2*%
X127000000Y-11600000D03*
X127000000Y-13200000D03*
X127000000Y-14800000D03*
X127000000Y-16400000D03*
X127000000Y-18000000D03*
X127000000Y-19600000D03*
X127000000Y-21200001D03*
X127000000Y-22800000D03*
X127000000Y-24400000D03*
X127000000Y-26000000D03*
X127000000Y-27600000D03*
X127000000Y-29200000D03*
X127000000Y-30800000D03*
X127000000Y-32400000D03*
X143000000Y-11600000D03*
X143000000Y-13200000D03*
X143000000Y-14800000D03*
X143000000Y-16400000D03*
X143000000Y-18000000D03*
X143000000Y-19600000D03*
X143000000Y-21200001D03*
X143000000Y-22800000D03*
X143000000Y-24400000D03*
X143000000Y-26000000D03*
X143000000Y-27600000D03*
X143000000Y-29200000D03*
X143000000Y-30800000D03*
X143000000Y-32400000D03*
%TD*%
D11*
%TO.C,C98*%
X127225000Y-36000000D03*
X128775000Y-36000000D03*
%TD*%
D12*
%TO.C,U7*%
X69525000Y-12095000D03*
X69525000Y-13365000D03*
X69525000Y-14635000D03*
X69525000Y-15905000D03*
X74475000Y-15905000D03*
X74475000Y-14635000D03*
X74475000Y-13365000D03*
X74475000Y-12095000D03*
%TD*%
D11*
%TO.C,C90*%
X93225000Y-78000000D03*
X94775000Y-78000000D03*
%TD*%
%TO.C,C100*%
X73225000Y-20000000D03*
X74775000Y-20000000D03*
%TD*%
%TO.C,C102*%
X81225000Y-10000000D03*
X82775000Y-10000000D03*
%TD*%
%TO.C,C97*%
X127225000Y-44000000D03*
X128775000Y-44000000D03*
%TD*%
D13*
%TO.C,U1*%
X91100000Y-63060000D03*
X91100000Y-64460000D03*
X91100000Y-65860000D03*
X92500000Y-63060000D03*
X92500000Y-64460000D03*
X92500000Y-65860000D03*
X93900000Y-63060000D03*
X93900000Y-64460000D03*
X93900000Y-65860000D03*
D14*
X85250000Y-56740000D03*
X85250000Y-58010000D03*
X85250000Y-59280000D03*
X85250000Y-60550000D03*
X85250000Y-61820000D03*
X85250000Y-63090000D03*
X85250000Y-64360000D03*
X85250000Y-65630000D03*
X85250000Y-66900000D03*
X85250000Y-68170000D03*
X85250000Y-69440000D03*
X85250000Y-70710000D03*
X85250000Y-71980000D03*
X85250000Y-73250000D03*
D15*
X87015000Y-74500000D03*
X88285000Y-74500000D03*
X89555000Y-74500000D03*
X90825000Y-74500000D03*
X92095000Y-74500000D03*
X93365000Y-74500000D03*
X94635000Y-74500000D03*
X95905000Y-74500000D03*
X97175000Y-74500000D03*
X98445000Y-74500000D03*
X99715000Y-74500000D03*
X100985000Y-74500000D03*
D14*
X102750000Y-73250000D03*
X102750000Y-71980000D03*
X102750000Y-70710000D03*
X102750000Y-69440000D03*
X102750000Y-68170000D03*
X102750000Y-66900000D03*
X102750000Y-65630000D03*
X102750000Y-64360000D03*
X102750000Y-63090000D03*
X102750000Y-61820000D03*
X102750000Y-60550000D03*
X102750000Y-59280000D03*
X102750000Y-58010000D03*
X102750000Y-56740000D03*
%TD*%
D16*
%TO.C,F1*%
X18600000Y-12000000D03*
X21400000Y-12000000D03*
%TD*%
D17*
%TO.C,Q1*%
X31062500Y-61050000D03*
X31062500Y-62950000D03*
X32937500Y-62000000D03*
%TD*%
D11*
%TO.C,C93*%
X117225000Y-26000000D03*
X118775000Y-26000000D03*
%TD*%
%TO.C,C101*%
X81225000Y-18000000D03*
X82775000Y-18000000D03*
%TD*%
D18*
%TO.C,U4*%
X121162500Y-39350000D03*
X121162500Y-40000000D03*
X121162500Y-40650000D03*
X122837500Y-40650000D03*
X122837500Y-40000000D03*
X122837500Y-39350000D03*
%TD*%
D19*
%TO.C,D1*%
X38000000Y-62000000D03*
X42000000Y-62000000D03*
%TD*%
D11*
%TO.C,C91*%
X122225000Y-22000000D03*
X123775000Y-22000000D03*
%TD*%
D18*
%TO.C,U5*%
X127162500Y-39350000D03*
X127162500Y-40000000D03*
X127162500Y-40650000D03*
X128837500Y-40650000D03*
X128837500Y-40000000D03*
X128837500Y-39350000D03*
%TD*%
D20*
%TO.C,U3*%
X117640000Y-29640000D03*
X117640000Y-30360000D03*
X118360000Y-29640000D03*
X118360000Y-30360000D03*
D21*
X116737500Y-29500000D03*
X116737500Y-30000000D03*
X116737500Y-30500000D03*
D22*
X117250000Y-31262500D03*
X117750000Y-31262500D03*
X118250000Y-31262500D03*
X118750000Y-31262500D03*
D21*
X119262500Y-30500000D03*
X119262500Y-30000000D03*
X119262500Y-29500000D03*
D22*
X118750000Y-28737500D03*
X118250000Y-28737500D03*
X117750000Y-28737500D03*
X117250000Y-28737500D03*
%TD*%
D11*
%TO.C,C94*%
X121225000Y-34000000D03*
X122775000Y-34000000D03*
%TD*%
D23*
%TO.C,U8*%
X80862500Y-13050000D03*
X80862500Y-14000000D03*
X80862500Y-14950000D03*
X83137500Y-14950000D03*
X83137500Y-13050000D03*
%TD*%
D11*
%TO.C,C96*%
X125225000Y-48000000D03*
X126775000Y-48000000D03*
%TD*%
%TO.C,C99*%
X67225000Y-8000000D03*
X68775000Y-8000000D03*
%TD*%
%TO.C,C92*%
X146225000Y-34000000D03*
X147775000Y-34000000D03*
%TD*%
%TO.C,C95*%
X121225000Y-44000000D03*
X122775000Y-44000000D03*
%TD*%
M02*
