%TF.GenerationSoftware,KiCad,Pcbnew,10.0.3*%
%TF.CreationDate,2026-05-25T19:37:30+02:00*%
%TF.ProjectId,esp32_s3_dwm3000_uwb_anchor_with_relay_outputs,65737033-325f-4733-935f-64776d333030,rev?*%
%TF.SameCoordinates,Original*%
%TF.FileFunction,Copper,L1,Top*%
%TF.FilePolarity,Positive*%
%FSLAX46Y46*%
G04 Gerber Fmt 4.6, Leading zero omitted, Abs format (unit mm)*
G04 Created by KiCad (PCBNEW 10.0.3) date 2026-05-25 19:37:30*
%MOMM*%
%LPD*%
G01*
G04 APERTURE LIST*
G04 Aperture macros list*
%AMRoundRect*
0 Rectangle with rounded corners*
0 $1 Rounding radius*
0 $2 $3 $4 $5 $6 $7 $8 $9 X,Y pos of 4 corners*
0 Add a 4 corners polygon primitive as box body*
4,1,4,$2,$3,$4,$5,$6,$7,$8,$9,$2,$3,0*
0 Add four circle primitives for the rounded corners*
1,1,$1+$1,$2,$3*
1,1,$1+$1,$4,$5*
1,1,$1+$1,$6,$7*
1,1,$1+$1,$8,$9*
0 Add four rect primitives between the rounded corners*
20,1,$1+$1,$2,$3,$4,$5,0*
20,1,$1+$1,$4,$5,$6,$7,0*
20,1,$1+$1,$6,$7,$8,$9,0*
20,1,$1+$1,$8,$9,$2,$3,0*%
G04 Aperture macros list end*
%TA.AperFunction,SMDPad,CuDef*%
%ADD10R,0.900000X1.200000*%
%TD*%
%TA.AperFunction,SMDPad,CuDef*%
%ADD11RoundRect,0.225000X-0.225000X-0.250000X0.225000X-0.250000X0.225000X0.250000X-0.225000X0.250000X0*%
%TD*%
%TA.AperFunction,SMDPad,CuDef*%
%ADD12RoundRect,0.150000X-0.825000X-0.150000X0.825000X-0.150000X0.825000X0.150000X-0.825000X0.150000X0*%
%TD*%
%TA.AperFunction,SMDPad,CuDef*%
%ADD13R,1.500000X0.900000*%
%TD*%
%TA.AperFunction,SMDPad,CuDef*%
%ADD14R,0.900000X1.500000*%
%TD*%
%TA.AperFunction,HeatsinkPad*%
%ADD15C,0.600000*%
%TD*%
%TA.AperFunction,HeatsinkPad*%
%ADD16R,3.900000X3.900000*%
%TD*%
%TA.AperFunction,SMDPad,CuDef*%
%ADD17RoundRect,0.250000X-0.375000X-0.625000X0.375000X-0.625000X0.375000X0.625000X-0.375000X0.625000X0*%
%TD*%
%TA.AperFunction,SMDPad,CuDef*%
%ADD18RoundRect,0.150000X-0.587500X-0.150000X0.587500X-0.150000X0.587500X0.150000X-0.587500X0.150000X0*%
%TD*%
%TA.AperFunction,SMDPad,CuDef*%
%ADD19RoundRect,0.087500X-0.425000X-0.087500X0.425000X-0.087500X0.425000X0.087500X-0.425000X0.087500X0*%
%TD*%
%TA.AperFunction,ComponentPad*%
%ADD20R,2.300000X2.300000*%
%TD*%
%TA.AperFunction,ComponentPad*%
%ADD21C,2.300000*%
%TD*%
%TA.AperFunction,SMDPad,CuDef*%
%ADD22RoundRect,0.250000X-1.000000X-0.650000X1.000000X-0.650000X1.000000X0.650000X-1.000000X0.650000X0*%
%TD*%
%TA.AperFunction,ComponentPad*%
%ADD23R,1.700000X1.700000*%
%TD*%
%TA.AperFunction,ComponentPad*%
%ADD24C,1.700000*%
%TD*%
%TA.AperFunction,ComponentPad*%
%ADD25RoundRect,0.250001X-0.949999X-0.949999X0.949999X-0.949999X0.949999X0.949999X-0.949999X0.949999X0*%
%TD*%
%TA.AperFunction,ComponentPad*%
%ADD26C,2.400000*%
%TD*%
%TA.AperFunction,SMDPad,CuDef*%
%ADD27RoundRect,0.062500X-0.275000X-0.062500X0.275000X-0.062500X0.275000X0.062500X-0.275000X0.062500X0*%
%TD*%
%TA.AperFunction,SMDPad,CuDef*%
%ADD28RoundRect,0.062500X-0.062500X-0.275000X0.062500X-0.275000X0.062500X0.275000X-0.062500X0.275000X0*%
%TD*%
%TA.AperFunction,HeatsinkPad*%
%ADD29R,1.450000X1.450000*%
%TD*%
%TA.AperFunction,ComponentPad*%
%ADD30RoundRect,0.250000X-0.600000X-0.750000X0.600000X-0.750000X0.600000X0.750000X-0.600000X0.750000X0*%
%TD*%
%TA.AperFunction,ComponentPad*%
%ADD31O,1.700000X2.000000*%
%TD*%
%TA.AperFunction,ComponentPad*%
%ADD32RoundRect,0.250000X-0.550000X-0.550000X0.550000X-0.550000X0.550000X0.550000X-0.550000X0.550000X0*%
%TD*%
%TA.AperFunction,ComponentPad*%
%ADD33C,1.600000*%
%TD*%
%TA.AperFunction,SMDPad,CuDef*%
%ADD34RoundRect,0.150000X-0.512500X-0.150000X0.512500X-0.150000X0.512500X0.150000X-0.512500X0.150000X0*%
%TD*%
%TA.AperFunction,ComponentPad*%
%ADD35C,2.050000*%
%TD*%
%TA.AperFunction,ComponentPad*%
%ADD36C,2.250000*%
%TD*%
%TA.AperFunction,ComponentPad*%
%ADD37C,1.800000*%
%TD*%
%TA.AperFunction,ViaPad*%
%ADD38C,0.450000*%
%TD*%
%TA.AperFunction,Conductor*%
%ADD39C,0.250000*%
%TD*%
%TA.AperFunction,Conductor*%
%ADD40C,0.200000*%
%TD*%
%TA.AperFunction,Conductor*%
%ADD41C,1.200000*%
%TD*%
G04 APERTURE END LIST*
D10*
%TO.P,U2,1*%
%TO.N,GND*%
X127000000Y-11600000D03*
%TO.P,U2,2*%
%TO.N,+1V8*%
X127000000Y-13200000D03*
%TO.P,U2,3*%
%TO.N,SPI_CS_1V8*%
X127000000Y-14800000D03*
%TO.P,U2,4*%
%TO.N,GND*%
X127000000Y-16400000D03*
%TO.P,U2,5*%
X127000000Y-18000000D03*
%TO.P,U2,6*%
X127000000Y-19600000D03*
%TO.P,U2,7*%
%TO.N,DWM_IRQ_1V8*%
X127000000Y-21200001D03*
%TO.P,U2,8*%
%TO.N,DWM_EXT_TX_1V8*%
X127000000Y-22800000D03*
%TO.P,U2,9*%
%TO.N,GND*%
X127000000Y-24400000D03*
%TO.P,U2,10*%
X127000000Y-26000000D03*
%TO.P,U2,11*%
X127000000Y-27600000D03*
%TO.P,U2,12*%
X127000000Y-29200000D03*
%TO.P,U2,13*%
X127000000Y-30800000D03*
%TO.P,U2,14*%
X127000000Y-32400000D03*
%TO.P,U2,15*%
X143000000Y-11600000D03*
%TO.P,U2,16*%
X143000000Y-13200000D03*
%TO.P,U2,17*%
X143000000Y-14800000D03*
%TO.P,U2,18*%
X143000000Y-16400000D03*
%TO.P,U2,19*%
X143000000Y-18000000D03*
%TO.P,U2,20*%
X143000000Y-19600000D03*
%TO.P,U2,21*%
X143000000Y-21200001D03*
%TO.P,U2,22*%
X143000000Y-22800000D03*
%TO.P,U2,23*%
%TO.N,UWB_RF_50R*%
X143000000Y-24400000D03*
%TO.P,U2,24*%
%TO.N,GND*%
X143000000Y-26000000D03*
%TO.P,U2,25*%
X143000000Y-27600000D03*
%TO.P,U2,26*%
X143000000Y-29200000D03*
%TO.P,U2,27*%
X143000000Y-30800000D03*
%TO.P,U2,28*%
X143000000Y-32400000D03*
%TD*%
D11*
%TO.P,C98,1*%
%TO.N,+1V8*%
X127225000Y-36000000D03*
%TO.P,C98,2*%
%TO.N,GND*%
X128775000Y-36000000D03*
%TD*%
D12*
%TO.P,U7,1*%
%TO.N,NC_U7_1_25*%
X69525000Y-12095000D03*
%TO.P,U7,2*%
%TO.N,+5V_ISO*%
X69525000Y-13365000D03*
%TO.P,U7,3*%
X69525000Y-14635000D03*
%TO.P,U7,4*%
%TO.N,NC_U7_4_26*%
X69525000Y-15905000D03*
%TO.P,U7,5*%
%TO.N,+3V3*%
X74475000Y-15905000D03*
%TO.P,U7,6*%
%TO.N,NC_U7_6_27*%
X74475000Y-14635000D03*
%TO.P,U7,7*%
%TO.N,GND*%
X74475000Y-13365000D03*
%TO.P,U7,8*%
%TO.N,NC_U7_8_28*%
X74475000Y-12095000D03*
%TD*%
D11*
%TO.P,C90,1*%
%TO.N,+3V3*%
X93225000Y-78000000D03*
%TO.P,C90,2*%
%TO.N,GND*%
X94775000Y-78000000D03*
%TD*%
%TO.P,C100,1*%
%TO.N,+3V3*%
X73225000Y-20000000D03*
%TO.P,C100,2*%
%TO.N,GND*%
X74775000Y-20000000D03*
%TD*%
%TO.P,C102,1*%
%TO.N,+1V8*%
X81225000Y-10000000D03*
%TO.P,C102,2*%
%TO.N,GND*%
X82775000Y-10000000D03*
%TD*%
%TO.P,C97,1*%
%TO.N,+3V3*%
X127225000Y-44000000D03*
%TO.P,C97,2*%
%TO.N,GND*%
X128775000Y-44000000D03*
%TD*%
D13*
%TO.P,U1,1*%
%TO.N,GND*%
X85250000Y-56740000D03*
%TO.P,U1,2*%
%TO.N,+3V3*%
X85250000Y-58010000D03*
%TO.P,U1,3*%
X85250000Y-59280000D03*
%TO.P,U1,4*%
%TO.N,NC_U1_4_41*%
X85250000Y-60550000D03*
%TO.P,U1,5*%
%TO.N,NC_U1_5_42*%
X85250000Y-61820000D03*
%TO.P,U1,6*%
%TO.N,NC_U1_6_43*%
X85250000Y-63090000D03*
%TO.P,U1,7*%
%TO.N,NC_U1_7_44*%
X85250000Y-64360000D03*
%TO.P,U1,8*%
%TO.N,DWM_EXT_TX_3V3*%
X85250000Y-65630000D03*
%TO.P,U1,9*%
%TO.N,NC_U1_9_45*%
X85250000Y-66900000D03*
%TO.P,U1,10*%
%TO.N,NC_U1_10_46*%
X85250000Y-68170000D03*
%TO.P,U1,11*%
%TO.N,NC_U1_11_47*%
X85250000Y-69440000D03*
%TO.P,U1,12*%
%TO.N,NC_U1_12_48*%
X85250000Y-70710000D03*
%TO.P,U1,13*%
%TO.N,NC_U1_13_49*%
X85250000Y-71980000D03*
%TO.P,U1,14*%
%TO.N,NC_U1_14_50*%
X85250000Y-73250000D03*
D14*
%TO.P,U1,15*%
%TO.N,NC_U1_15_51*%
X87015000Y-74500000D03*
%TO.P,U1,16*%
%TO.N,NC_U1_16_52*%
X88285000Y-74500000D03*
%TO.P,U1,17*%
%TO.N,NC_U1_17_53*%
X89555000Y-74500000D03*
%TO.P,U1,18*%
%TO.N,NC_U1_18_54*%
X90825000Y-74500000D03*
%TO.P,U1,19*%
%TO.N,NC_U1_19_55*%
X92095000Y-74500000D03*
%TO.P,U1,20*%
%TO.N,NC_U1_20_56*%
X93365000Y-74500000D03*
%TO.P,U1,21*%
%TO.N,NC_U1_21_57*%
X94635000Y-74500000D03*
%TO.P,U1,22*%
%TO.N,NC_U1_22_58*%
X95905000Y-74500000D03*
%TO.P,U1,23*%
%TO.N,NC_U1_23_59*%
X97175000Y-74500000D03*
%TO.P,U1,24*%
%TO.N,NC_U1_24_60*%
X98445000Y-74500000D03*
%TO.P,U1,25*%
%TO.N,NC_U1_25_61*%
X99715000Y-74500000D03*
%TO.P,U1,26*%
%TO.N,NC_U1_26_62*%
X100985000Y-74500000D03*
D13*
%TO.P,U1,27*%
%TO.N,NC_U1_27_63*%
X102750000Y-73250000D03*
%TO.P,U1,28*%
%TO.N,NC_U1_28_64*%
X102750000Y-71980000D03*
%TO.P,U1,29*%
%TO.N,NC_U1_29_65*%
X102750000Y-70710000D03*
%TO.P,U1,30*%
%TO.N,NC_U1_30_66*%
X102750000Y-69440000D03*
%TO.P,U1,31*%
%TO.N,RELAY1_DRIVE*%
X102750000Y-68170000D03*
%TO.P,U1,32*%
%TO.N,DWM_IRQ_3V3*%
X102750000Y-66900000D03*
%TO.P,U1,33*%
%TO.N,SPI_MISO_3V3_MCU*%
X102750000Y-65630000D03*
%TO.P,U1,34*%
%TO.N,SPI_CLK_3V3_MCU*%
X102750000Y-64360000D03*
%TO.P,U1,35*%
%TO.N,SPI_MOSI_3V3_MCU*%
X102750000Y-63090000D03*
%TO.P,U1,36*%
%TO.N,SPI_CS_3V3_MCU*%
X102750000Y-61820000D03*
%TO.P,U1,37*%
%TO.N,NC_U1_37_67*%
X102750000Y-60550000D03*
%TO.P,U1,38*%
%TO.N,NC_U1_38_68*%
X102750000Y-59280000D03*
%TO.P,U1,39*%
%TO.N,GND*%
X102750000Y-58010000D03*
%TO.P,U1,40*%
X102750000Y-56740000D03*
D15*
%TO.P,U1,41*%
X91100000Y-63760000D03*
X91100000Y-65160000D03*
X91800000Y-63060000D03*
X91800000Y-64460000D03*
X91800000Y-65860000D03*
X92500000Y-63760000D03*
D16*
X92500000Y-64460000D03*
D15*
X92500000Y-65160000D03*
X93200000Y-63060000D03*
X93200000Y-64460000D03*
X93200000Y-65860000D03*
X93900000Y-63760000D03*
X93900000Y-65160000D03*
%TD*%
D17*
%TO.P,F1,1*%
%TO.N,AC_L_PROTECTED*%
X18600000Y-12000000D03*
%TO.P,F1,2*%
%TO.N,NC_F1_2_31*%
X21400000Y-12000000D03*
%TD*%
D18*
%TO.P,Q1,1*%
%TO.N,RELAY1_DRIVE*%
X31062500Y-61050000D03*
%TO.P,Q1,2*%
%TO.N,GND*%
X31062500Y-62950000D03*
%TO.P,Q1,3*%
%TO.N,NC_Q1_3_6*%
X32937500Y-62000000D03*
%TD*%
D11*
%TO.P,C93,1*%
%TO.N,+3V3*%
X117225000Y-26000000D03*
%TO.P,C93,2*%
%TO.N,GND*%
X118775000Y-26000000D03*
%TD*%
%TO.P,C101,1*%
%TO.N,+3V3*%
X81225000Y-18000000D03*
%TO.P,C101,2*%
%TO.N,GND*%
X82775000Y-18000000D03*
%TD*%
D19*
%TO.P,U4,1*%
%TO.N,+3V3*%
X121162500Y-39350000D03*
%TO.P,U4,2*%
%TO.N,GND*%
X121162500Y-40000000D03*
%TO.P,U4,3*%
%TO.N,DWM_IRQ_3V3*%
X121162500Y-40650000D03*
%TO.P,U4,4*%
%TO.N,DWM_IRQ_1V8*%
X122837500Y-40650000D03*
%TO.P,U4,5*%
%TO.N,GND*%
X122837500Y-40000000D03*
%TO.P,U4,6*%
%TO.N,+1V8*%
X122837500Y-39350000D03*
%TD*%
D20*
%TO.P,K1,1*%
%TO.N,+5V_ISO*%
X25000000Y-76000000D03*
D21*
%TO.P,K1,2*%
%TO.N,RELAY1_DRIVE*%
X35160000Y-76000000D03*
%TO.P,K1,3*%
%TO.N,NC_K1_3_9*%
X42780000Y-76000000D03*
%TO.P,K1,4*%
%TO.N,NC_K1_4_10*%
X40240000Y-68380000D03*
%TO.P,K1,5*%
%TO.N,NC_K1_5_11*%
X25000000Y-68380000D03*
%TD*%
D22*
%TO.P,D1,1*%
%TO.N,+5V_ISO*%
X38000000Y-62000000D03*
%TO.P,D1,2*%
%TO.N,NC_D1_2_5*%
X42000000Y-62000000D03*
%TD*%
D23*
%TO.P,R10,1*%
%TO.N,SPI_CS_3V3_MCU*%
X108000000Y-61820000D03*
D24*
%TO.P,R10,2*%
%TO.N,NC_R10_2_1*%
X108000000Y-64360000D03*
%TD*%
D25*
%TO.P,J1,1*%
%TO.N,AC_L_PROTECTED*%
X10000000Y-25000000D03*
D26*
%TO.P,J1,2*%
%TO.N,NC_J1_2_4*%
X13500000Y-25000000D03*
%TD*%
D11*
%TO.P,C91,1*%
%TO.N,+3V3*%
X122225000Y-22000000D03*
%TO.P,C91,2*%
%TO.N,GND*%
X123775000Y-22000000D03*
%TD*%
D19*
%TO.P,U5,1*%
%TO.N,+3V3*%
X127162500Y-39350000D03*
%TO.P,U5,2*%
%TO.N,GND*%
X127162500Y-40000000D03*
%TO.P,U5,3*%
%TO.N,DWM_EXT_TX_3V3*%
X127162500Y-40650000D03*
%TO.P,U5,4*%
%TO.N,DWM_EXT_TX_1V8*%
X128837500Y-40650000D03*
%TO.P,U5,5*%
%TO.N,GND*%
X128837500Y-40000000D03*
%TO.P,U5,6*%
%TO.N,+1V8*%
X128837500Y-39350000D03*
%TD*%
D27*
%TO.P,U3,1*%
%TO.N,+3V3*%
X116737500Y-29500000D03*
%TO.P,U3,2*%
%TO.N,SPI_CS_3V3*%
X116737500Y-30000000D03*
%TO.P,U3,3*%
%TO.N,NC_U3_3_16*%
X116737500Y-30500000D03*
D28*
%TO.P,U3,4*%
%TO.N,NC_U3_4_17*%
X117250000Y-31262500D03*
%TO.P,U3,5*%
%TO.N,NC_U3_5_18*%
X117750000Y-31262500D03*
%TO.P,U3,6*%
%TO.N,NC_U3_6_19*%
X118250000Y-31262500D03*
%TO.P,U3,7*%
%TO.N,GND*%
X118750000Y-31262500D03*
D27*
%TO.P,U3,8*%
%TO.N,+3V3*%
X119262500Y-30500000D03*
%TO.P,U3,9*%
%TO.N,NC_U3_9_20*%
X119262500Y-30000000D03*
%TO.P,U3,10*%
%TO.N,NC_U3_10_21*%
X119262500Y-29500000D03*
D28*
%TO.P,U3,11*%
%TO.N,NC_U3_11_22*%
X118750000Y-28737500D03*
%TO.P,U3,12*%
%TO.N,NC_U3_12_23*%
X118250000Y-28737500D03*
%TO.P,U3,13*%
%TO.N,SPI_CS_1V8*%
X117750000Y-28737500D03*
%TO.P,U3,14*%
%TO.N,+1V8*%
X117250000Y-28737500D03*
D29*
%TO.P,U3,15*%
%TO.N,GND*%
X118000000Y-30000000D03*
%TD*%
D30*
%TO.P,U6,1*%
%TO.N,AC_L_PROTECTED*%
X28000000Y-20000000D03*
D31*
%TO.P,U6,2*%
%TO.N,NC_U6_2_29*%
X28000000Y-26000000D03*
%TO.P,U6,3*%
%TO.N,+5V_ISO*%
X61600000Y-14000000D03*
%TO.P,U6,4*%
%TO.N,GND*%
X61600000Y-32000000D03*
%TD*%
D11*
%TO.P,C94,1*%
%TO.N,+1V8*%
X121225000Y-34000000D03*
%TO.P,C94,2*%
%TO.N,GND*%
X122775000Y-34000000D03*
%TD*%
D32*
%TO.P,OK1,1*%
%TO.N,RELAY1_CTRL_LED*%
X18000000Y-58000000D03*
D33*
%TO.P,OK1,2*%
%TO.N,GND*%
X18000000Y-60540000D03*
%TO.P,OK1,3*%
%TO.N,NC_OK1_3_7*%
X25620000Y-60540000D03*
%TO.P,OK1,4*%
%TO.N,NC_OK1_4_8*%
X25620000Y-58000000D03*
%TD*%
D34*
%TO.P,U8,1*%
%TO.N,+3V3*%
X80862500Y-13050000D03*
%TO.P,U8,2*%
%TO.N,GND*%
X80862500Y-14000000D03*
%TO.P,U8,3*%
%TO.N,+1V8*%
X80862500Y-14950000D03*
%TO.P,U8,4*%
%TO.N,NC_U8_4_24*%
X83137500Y-14950000D03*
%TO.P,U8,5*%
%TO.N,+3V3*%
X83137500Y-13050000D03*
%TD*%
D11*
%TO.P,C96,1*%
%TO.N,+1V8*%
X125225000Y-48000000D03*
%TO.P,C96,2*%
%TO.N,GND*%
X126775000Y-48000000D03*
%TD*%
%TO.P,C99,1*%
%TO.N,+5V_ISO*%
X67225000Y-8000000D03*
%TO.P,C99,2*%
%TO.N,GND*%
X68775000Y-8000000D03*
%TD*%
D35*
%TO.P,J2,1*%
%TO.N,UWB_RF_50R*%
X152000000Y-16000000D03*
D36*
%TO.P,J2,2*%
%TO.N,GND*%
X149460000Y-13460000D03*
X149460000Y-18540000D03*
X154540000Y-13460000D03*
X154540000Y-18540000D03*
%TD*%
D23*
%TO.P,K2,1*%
%TO.N,NC_K2_1_2*%
X65000000Y-76000000D03*
D24*
%TO.P,K2,2*%
%TO.N,NC_K2_2_3*%
X65000000Y-78540000D03*
%TD*%
D11*
%TO.P,C92,1*%
%TO.N,+1V8*%
X146225000Y-34000000D03*
%TO.P,C92,2*%
%TO.N,GND*%
X147775000Y-34000000D03*
%TD*%
D37*
%TO.P,MOV1,1*%
%TO.N,AC_L_PROTECTED*%
X32000000Y-39000000D03*
%TO.P,MOV1,2*%
%TO.N,NC_MOV1_2_30*%
X39500000Y-41000000D03*
%TD*%
D11*
%TO.P,C95,1*%
%TO.N,+3V3*%
X121225000Y-44000000D03*
%TO.P,C95,2*%
%TO.N,GND*%
X122775000Y-44000000D03*
%TD*%
D38*
%TO.N,GND*%
X144000000Y-29200000D03*
X144600000Y-21200001D03*
X126000000Y-19600000D03*
X144600000Y-30800000D03*
X144000000Y-32400000D03*
X125400000Y-24400000D03*
X125400000Y-11600000D03*
X123775000Y-22000000D03*
X80862500Y-14000000D03*
X118000000Y-30000000D03*
X128775000Y-36000000D03*
X126775000Y-48000000D03*
X120462500Y-40000000D03*
X92500000Y-64460000D03*
X31062500Y-62950000D03*
X122775000Y-34000000D03*
X147775000Y-34000000D03*
X125400000Y-27600000D03*
X144000000Y-22800000D03*
X74775000Y-20000000D03*
X82775000Y-18000000D03*
X144600000Y-27600000D03*
X144600000Y-14800000D03*
X125400000Y-18000000D03*
X126000000Y-32400000D03*
X126462500Y-40000000D03*
X118775000Y-26000000D03*
X68775000Y-8000000D03*
X126000000Y-26000000D03*
X125400000Y-30800000D03*
X122775000Y-44000000D03*
X144600000Y-11600000D03*
X102750000Y-56740000D03*
X144000000Y-16400000D03*
X82775000Y-10000000D03*
X118750000Y-32462500D03*
X144600000Y-18000000D03*
X130037500Y-40000000D03*
X144000000Y-13200000D03*
X74475000Y-13365000D03*
X144000000Y-26000000D03*
X94775000Y-78000000D03*
X128775000Y-44000000D03*
X85250000Y-56740000D03*
X126000000Y-29200000D03*
X102750000Y-58010000D03*
X144000000Y-19600000D03*
X126000000Y-16400000D03*
X124037500Y-40000000D03*
%TO.N,+1V8*%
X129537500Y-39350000D03*
X128600000Y-38800000D03*
X125200000Y-47200000D03*
X126800000Y-35200000D03*
X80862500Y-14950000D03*
X145400000Y-34000000D03*
X117250000Y-28037500D03*
X126000000Y-13200000D03*
X116800000Y-28600000D03*
X124600000Y-20200000D03*
X125000000Y-39200000D03*
X146225000Y-34000000D03*
X121400000Y-33200000D03*
X127225000Y-36000000D03*
X81225000Y-10000000D03*
X121225000Y-34000000D03*
X123537500Y-39350000D03*
X125225000Y-48000000D03*
%TO.N,SPI_CS_1V8*%
X125400000Y-14800000D03*
X117750000Y-27537500D03*
%TO.N,DWM_IRQ_1V8*%
X125400000Y-21200001D03*
X123537500Y-40650000D03*
%TO.N,DWM_EXT_TX_1V8*%
X126000000Y-22800000D03*
X129537500Y-40650000D03*
%TO.N,+5V_ISO*%
X34600000Y-62800000D03*
X67225000Y-8000000D03*
X69525000Y-13365000D03*
X69525000Y-14635000D03*
X38000000Y-62000000D03*
%TO.N,+3V3*%
X74475000Y-15905000D03*
X104600000Y-58800000D03*
X121225000Y-44000000D03*
X124000000Y-38400000D03*
X115537500Y-29500000D03*
X117225000Y-26000000D03*
X124600000Y-42000000D03*
X83137500Y-13050000D03*
X119962500Y-39350000D03*
X125962500Y-39350000D03*
X122225000Y-22000000D03*
X127225000Y-44000000D03*
X73225000Y-20000000D03*
X80862500Y-13050000D03*
X121400000Y-38800000D03*
X119962500Y-30500000D03*
X85250000Y-59280000D03*
X120400000Y-33000000D03*
X85250000Y-58010000D03*
X81400000Y-12400000D03*
X93225000Y-78000000D03*
X84200000Y-58400000D03*
X81225000Y-18000000D03*
X82600000Y-12400000D03*
%TO.N,DWM_EXT_TX_3V3*%
X125962500Y-40650000D03*
%TO.N,RELAY1_DRIVE*%
X83800000Y-66800000D03*
X101400000Y-66800000D03*
%TO.N,DWM_IRQ_3V3*%
X119200000Y-42000000D03*
X119200000Y-40800000D03*
X119962500Y-40650000D03*
%TO.N,SPI_CS_3V3_MCU*%
X101600000Y-61800000D03*
%TO.N,SPI_CS_3V3*%
X116037500Y-30000000D03*
%TD*%
%TO.N,GND*%
D39*
X121162500Y-40000000D02*
X120462500Y-40000000D01*
X127000000Y-19600000D02*
X126000000Y-19600000D01*
X128837500Y-40000000D02*
X130037500Y-40000000D01*
X143000000Y-27600000D02*
X144600000Y-27600000D01*
X127000000Y-30800000D02*
X125400000Y-30800000D01*
X127162500Y-40000000D02*
X126462500Y-40000000D01*
X127000000Y-26000000D02*
X126000000Y-26000000D01*
X143000000Y-26000000D02*
X144000000Y-26000000D01*
X127000000Y-27600000D02*
X125400000Y-27600000D01*
X143000000Y-30800000D02*
X144600000Y-30800000D01*
X127000000Y-24400000D02*
X125400000Y-24400000D01*
X122837500Y-40000000D02*
X124037500Y-40000000D01*
X143000000Y-11600000D02*
X144600000Y-11600000D01*
X143000000Y-13200000D02*
X144000000Y-13200000D01*
X143000000Y-16400000D02*
X144000000Y-16400000D01*
X118750000Y-31262500D02*
X118750000Y-32462500D01*
X127000000Y-18000000D02*
X125400000Y-18000000D01*
X143000000Y-19600000D02*
X144000000Y-19600000D01*
X143000000Y-32400000D02*
X144000000Y-32400000D01*
X127000000Y-29200000D02*
X126000000Y-29200000D01*
X143000000Y-22800000D02*
X144000000Y-22800000D01*
X143000000Y-29200000D02*
X144000000Y-29200000D01*
X127000000Y-11600000D02*
X125400000Y-11600000D01*
X143000000Y-21200001D02*
X144600000Y-21200001D01*
X127000000Y-32400000D02*
X126000000Y-32400000D01*
X143000000Y-14800000D02*
X144600000Y-14800000D01*
X127000000Y-16400000D02*
X126000000Y-16400000D01*
X143000000Y-18000000D02*
X144600000Y-18000000D01*
%TO.N,+1V8*%
D40*
X125000000Y-39200000D02*
X123400000Y-39200000D01*
X145400000Y-34000000D02*
X145800000Y-34000000D01*
X123400000Y-39200000D02*
X122837500Y-39350000D01*
X82000000Y-10800000D02*
X82000000Y-14800000D01*
X116800000Y-28600000D02*
X117200000Y-28600000D01*
D39*
X117250000Y-28737500D02*
X117250000Y-28037500D01*
D40*
X128600000Y-39200000D02*
X128837500Y-39350000D01*
X128600000Y-38800000D02*
X128600000Y-39200000D01*
X81600000Y-14800000D02*
X80862500Y-14950000D01*
X145800000Y-34000000D02*
X146225000Y-34000000D01*
X125200000Y-47200000D02*
X125200000Y-47600000D01*
X126600000Y-13200000D02*
X127000000Y-13200000D01*
X121400000Y-33200000D02*
X121400000Y-33600000D01*
X126800000Y-35600000D02*
X127225000Y-36000000D01*
X124600000Y-10800000D02*
X124600000Y-20200000D01*
X117200000Y-28600000D02*
X117250000Y-28737500D01*
X125200000Y-47600000D02*
X125225000Y-48000000D01*
D39*
X122837500Y-39350000D02*
X123537500Y-39350000D01*
D40*
X82000000Y-10800000D02*
X124600000Y-10800000D01*
X82000000Y-10400000D02*
X82000000Y-10800000D01*
X126800000Y-35200000D02*
X126800000Y-35600000D01*
D39*
X128837500Y-39350000D02*
X129537500Y-39350000D01*
D40*
X81600000Y-10400000D02*
X82000000Y-10400000D01*
X124600000Y-13200000D02*
X126600000Y-13200000D01*
X82000000Y-14800000D02*
X81600000Y-14800000D01*
X121400000Y-33600000D02*
X121225000Y-34000000D01*
D39*
X127000000Y-13200000D02*
X126000000Y-13200000D01*
D40*
X81225000Y-10000000D02*
X81600000Y-10400000D01*
%TO.N,SPI_CS_1V8*%
D39*
X117750000Y-28737500D02*
X117750000Y-27537500D01*
X127000000Y-14800000D02*
X125400000Y-14800000D01*
%TO.N,DWM_IRQ_1V8*%
D40*
X124600000Y-21800000D02*
X126600000Y-21800000D01*
X122837500Y-40650000D02*
X122400000Y-40600000D01*
D39*
X127000000Y-21200001D02*
X125400000Y-21200001D01*
D40*
X124600000Y-22800000D02*
X124600000Y-21800000D01*
X126600000Y-21800000D02*
X127000000Y-21200001D01*
X122000000Y-22800000D02*
X124600000Y-22800000D01*
X122000000Y-40600000D02*
X122000000Y-22800000D01*
X122400000Y-40600000D02*
X122000000Y-40600000D01*
D39*
X122837500Y-40650000D02*
X123537500Y-40650000D01*
%TO.N,DWM_EXT_TX_1V8*%
X127000000Y-22800000D02*
X126000000Y-22800000D01*
X128837500Y-40650000D02*
X129537500Y-40650000D01*
D40*
X128000000Y-40600000D02*
X128000000Y-23400000D01*
X128400000Y-40600000D02*
X128000000Y-40600000D01*
X127400000Y-23400000D02*
X127000000Y-22800000D01*
X128837500Y-40650000D02*
X128400000Y-40600000D01*
X128000000Y-23400000D02*
X127400000Y-23400000D01*
%TO.N,UWB_RF_50R*%
X151000000Y-17000000D02*
X145400000Y-17000000D01*
X144800000Y-23600000D02*
X143800000Y-23600000D01*
X143800000Y-23600000D02*
X143800000Y-23800000D01*
X144800000Y-22000000D02*
X144800000Y-23600000D01*
X145400000Y-17000000D02*
X145400000Y-22000000D01*
X143400000Y-23800000D02*
X143000000Y-24400000D01*
X143800000Y-23800000D02*
X143400000Y-23800000D01*
X145400000Y-22000000D02*
X144800000Y-22000000D01*
X152000000Y-16000000D02*
X151000000Y-17000000D01*
%TO.N,+5V_ISO*%
D39*
X69400000Y-13600000D02*
X69400000Y-14400000D01*
X38000000Y-62000000D02*
X36800000Y-62800000D01*
X68600000Y-12800000D02*
X68600000Y-13000000D01*
X36800000Y-62800000D02*
X34600000Y-62800000D01*
X66800000Y-8400000D02*
X58200000Y-8400000D01*
X67225000Y-8000000D02*
X66800000Y-8400000D01*
X68000000Y-8800000D02*
X68200000Y-8800000D01*
X58200000Y-48200000D02*
X39200000Y-48200000D01*
X39200000Y-48200000D02*
X39200000Y-61200000D01*
X58200000Y-14000000D02*
X60800000Y-14000000D01*
X69525000Y-13365000D02*
X69400000Y-13600000D01*
X68200000Y-12800000D02*
X68600000Y-12800000D01*
X67600000Y-8400000D02*
X68000000Y-8400000D01*
X60800000Y-14000000D02*
X61600000Y-14000000D01*
X68600000Y-13000000D02*
X69525000Y-13365000D01*
X68200000Y-8800000D02*
X68200000Y-12800000D01*
X68000000Y-8400000D02*
X68000000Y-8800000D01*
X69400000Y-14400000D02*
X69525000Y-14635000D01*
X58200000Y-8400000D02*
X58200000Y-48200000D01*
X39200000Y-61200000D02*
X38000000Y-62000000D01*
X67225000Y-8000000D02*
X67600000Y-8400000D01*
%TO.N,+3V3*%
D40*
X117600000Y-25200000D02*
X117600000Y-25600000D01*
X73600000Y-18400000D02*
X73600000Y-19600000D01*
D39*
X116737500Y-29500000D02*
X115537500Y-29500000D01*
D40*
X80800000Y-18400000D02*
X73600000Y-18400000D01*
X116000000Y-27800000D02*
X116000000Y-29400000D01*
X104400000Y-58800000D02*
X104600000Y-58800000D01*
X82600000Y-12800000D02*
X83137500Y-13050000D01*
X121600000Y-43600000D02*
X121225000Y-44000000D01*
X85200000Y-58400000D02*
X85200000Y-58800000D01*
X119400000Y-56600000D02*
X104400000Y-56600000D01*
X117225000Y-26000000D02*
X116800000Y-26400000D01*
X74400000Y-16200000D02*
X74475000Y-15905000D01*
X121225000Y-44000000D02*
X120800000Y-44400000D01*
D39*
X127162500Y-39350000D02*
X125962500Y-39350000D01*
D40*
X120400000Y-25200000D02*
X117600000Y-25200000D01*
X74400000Y-18400000D02*
X74400000Y-16200000D01*
X126600000Y-39200000D02*
X127162500Y-39350000D01*
X93600000Y-75600000D02*
X93600000Y-77600000D01*
X79800000Y-13200000D02*
X80200000Y-13200000D01*
X126800000Y-42000000D02*
X126800000Y-43600000D01*
X121600000Y-42000000D02*
X121600000Y-43600000D01*
X104400000Y-66800000D02*
X104000000Y-66800000D01*
X116000000Y-29400000D02*
X116400000Y-29400000D01*
X84200000Y-58400000D02*
X84400000Y-58400000D01*
X120400000Y-22000000D02*
X121800000Y-22000000D01*
X93600000Y-77600000D02*
X93225000Y-78000000D01*
X81225000Y-18000000D02*
X81600000Y-18400000D01*
X117600000Y-25600000D02*
X117225000Y-26000000D01*
X81225000Y-18000000D02*
X80800000Y-18400000D01*
X104400000Y-56600000D02*
X104400000Y-66800000D01*
X80862500Y-13050000D02*
X81400000Y-12800000D01*
X81600000Y-18400000D02*
X82000000Y-18400000D01*
X116400000Y-29400000D02*
X116737500Y-29500000D01*
X126800000Y-43600000D02*
X127225000Y-44000000D01*
X116400000Y-27800000D02*
X116000000Y-27800000D01*
X73600000Y-19600000D02*
X73225000Y-20000000D01*
D39*
X121162500Y-39350000D02*
X119962500Y-39350000D01*
D40*
X124000000Y-38400000D02*
X126600000Y-38400000D01*
X121400000Y-39200000D02*
X121162500Y-39350000D01*
X101800000Y-75600000D02*
X93600000Y-75600000D01*
X121400000Y-38800000D02*
X121400000Y-39200000D01*
X121800000Y-22000000D02*
X122225000Y-22000000D01*
X104000000Y-66800000D02*
X104000000Y-74000000D01*
X116600000Y-26400000D02*
X116600000Y-27200000D01*
X120800000Y-44400000D02*
X119400000Y-44400000D01*
X101800000Y-74000000D02*
X101800000Y-75600000D01*
X82000000Y-18400000D02*
X82000000Y-18800000D01*
X81400000Y-12800000D02*
X81400000Y-12400000D01*
X124600000Y-42000000D02*
X126800000Y-42000000D01*
X119400000Y-44400000D02*
X119400000Y-56600000D01*
X82000000Y-18800000D02*
X120400000Y-18800000D01*
X84400000Y-58400000D02*
X85250000Y-58010000D01*
X120400000Y-30600000D02*
X119600000Y-30600000D01*
X126600000Y-38400000D02*
X126600000Y-39200000D01*
X116400000Y-27200000D02*
X116400000Y-27800000D01*
X85250000Y-58010000D02*
X85200000Y-58400000D01*
X124600000Y-42000000D02*
X121600000Y-42000000D01*
X85200000Y-58800000D02*
X85250000Y-59280000D01*
X119600000Y-30600000D02*
X119262500Y-30500000D01*
X82600000Y-12400000D02*
X82600000Y-12800000D01*
X79800000Y-18400000D02*
X79800000Y-13200000D01*
X116800000Y-26400000D02*
X116600000Y-26400000D01*
X80200000Y-13200000D02*
X80862500Y-13050000D01*
X104000000Y-74000000D02*
X101800000Y-74000000D01*
D39*
X119262500Y-30500000D02*
X119962500Y-30500000D01*
D40*
X116600000Y-27200000D02*
X116400000Y-27200000D01*
X120400000Y-18800000D02*
X120400000Y-33000000D01*
%TO.N,DWM_EXT_TX_3V3*%
X86400000Y-65200000D02*
X86000000Y-65200000D01*
X118600000Y-55800000D02*
X86400000Y-55800000D01*
X126600000Y-40800000D02*
X124400000Y-40800000D01*
X86400000Y-55800000D02*
X86400000Y-65200000D01*
D39*
X127162500Y-40650000D02*
X125962500Y-40650000D01*
D40*
X127162500Y-40650000D02*
X126600000Y-40800000D01*
X118600000Y-41400000D02*
X118600000Y-55800000D01*
X124400000Y-40800000D02*
X124400000Y-41400000D01*
X86000000Y-65200000D02*
X85250000Y-65630000D01*
X124400000Y-41400000D02*
X118600000Y-41400000D01*
%TO.N,RELAY1_DRIVE*%
X34000000Y-74800000D02*
X35160000Y-76000000D01*
X102000000Y-67800000D02*
X102750000Y-68170000D01*
X34000000Y-66800000D02*
X83800000Y-66800000D01*
X31800000Y-61200000D02*
X34000000Y-61200000D01*
X101600000Y-67800000D02*
X102000000Y-67800000D01*
X101600000Y-66800000D02*
X101600000Y-67800000D01*
X34000000Y-61200000D02*
X34000000Y-74800000D01*
X31062500Y-61050000D02*
X31800000Y-61200000D01*
X101400000Y-66800000D02*
X101600000Y-66800000D01*
%TO.N,DWM_IRQ_3V3*%
D39*
X121162500Y-40650000D02*
X119962500Y-40650000D01*
D40*
X121162500Y-40650000D02*
X120600000Y-40800000D01*
X104000000Y-56200000D02*
X104000000Y-66400000D01*
X119200000Y-42000000D02*
X119000000Y-42000000D01*
X103600000Y-66400000D02*
X102750000Y-66900000D01*
X119000000Y-56200000D02*
X104000000Y-56200000D01*
X104000000Y-66400000D02*
X103600000Y-66400000D01*
X120600000Y-40800000D02*
X119200000Y-40800000D01*
X119000000Y-42000000D02*
X119000000Y-56200000D01*
%TO.N,SPI_CS_3V3_MCU*%
X101600000Y-61800000D02*
X102000000Y-61800000D01*
X102000000Y-61800000D02*
X102750000Y-61820000D01*
%TO.N,AC_L_PROTECTED*%
D41*
X11200000Y-23800000D02*
X11200000Y-21000000D01*
X31200000Y-21000000D02*
X31200000Y-38000000D01*
X28000000Y-20000000D02*
X28800000Y-21000000D01*
X28800000Y-21000000D02*
X31200000Y-21000000D01*
X11200000Y-21000000D02*
X27200000Y-21000000D01*
X31200000Y-38000000D02*
X32000000Y-39000000D01*
X18600000Y-12800000D02*
X18600000Y-12000000D01*
X10000000Y-25000000D02*
X11200000Y-23800000D01*
X18600000Y-21000000D02*
X18600000Y-12800000D01*
X27200000Y-21000000D02*
X28000000Y-20000000D01*
%TO.N,SPI_CS_3V3*%
D39*
X116737500Y-30000000D02*
X116037500Y-30000000D01*
%TD*%
M02*
