%TF.GenerationSoftware,KiCad,Pcbnew,10.0.3*%
%TF.CreationDate,2026-05-27T05:07:24+02:00*%
%TF.ProjectId,esp32_s3_dwm3000_uwb_anchor_with_relay_outputs,65737033-325f-4733-935f-64776d333030,rev?*%
%TF.SameCoordinates,Original*%
%TF.FileFunction,Other,User*%
%FSLAX46Y46*%
G04 Gerber Fmt 4.6, Leading zero omitted, Abs format (unit mm)*
G04 Created by KiCad (PCBNEW 10.0.3) date 2026-05-27 05:07:24*
%MOMM*%
%LPD*%
G01*
G04 APERTURE LIST*
%ADD10C,0.050000*%
G04 APERTURE END LIST*
%TO.C,U3*%
D10*
X116150000Y-29120000D02*
X116500000Y-29120000D01*
X116150000Y-30880000D02*
X116150000Y-29120000D01*
X116500000Y-28500000D02*
X116870000Y-28500000D01*
X116500000Y-29120000D02*
X116500000Y-28500000D01*
X116500000Y-30880000D02*
X116150000Y-30880000D01*
X116500000Y-31500000D02*
X116500000Y-30880000D01*
X116870000Y-28150000D02*
X119130000Y-28150000D01*
X116870000Y-28500000D02*
X116870000Y-28150000D01*
X116870000Y-31500000D02*
X116500000Y-31500000D01*
X116870000Y-31850000D02*
X116870000Y-31500000D01*
X119130000Y-28150000D02*
X119130000Y-28500000D01*
X119130000Y-28500000D02*
X119500000Y-28500000D01*
X119130000Y-31500000D02*
X119130000Y-31850000D01*
X119130000Y-31850000D02*
X116870000Y-31850000D01*
X119500000Y-28500000D02*
X119500000Y-29120000D01*
X119500000Y-29120000D02*
X119850000Y-29120000D01*
X119500000Y-30880000D02*
X119500000Y-31500000D01*
X119500000Y-31500000D02*
X119130000Y-31500000D01*
X119850000Y-29120000D02*
X119850000Y-30880000D01*
X119850000Y-30880000D02*
X119500000Y-30880000D01*
%TO.C,R27*%
X88520000Y-91270000D02*
X91480000Y-91270000D01*
X91480000Y-92730000D01*
X88520000Y-92730000D01*
X88520000Y-91270000D01*
%TO.C,R34*%
X100520000Y-95270000D02*
X103480000Y-95270000D01*
X103480000Y-96730000D01*
X100520000Y-96730000D01*
X100520000Y-95270000D01*
%TO.C,MOV1*%
X27750000Y-37500000D02*
X27750000Y-42500000D01*
X27750000Y-37500000D02*
X43750000Y-37500000D01*
X27750000Y-42500000D02*
X43750000Y-42500000D01*
X43750000Y-37500000D02*
X43750000Y-42500000D01*
%TO.C,R13*%
X94520000Y-76900000D02*
X97480000Y-76900000D01*
X97480000Y-78360000D01*
X94520000Y-78360000D01*
X94520000Y-76900000D01*
%TO.C,F1*%
X17720000Y-10870000D02*
X22280000Y-10870000D01*
X22280000Y-13130000D01*
X17720000Y-13130000D01*
X17720000Y-10870000D01*
%TO.C,C100*%
X72520000Y-19270000D02*
X75480000Y-19270000D01*
X75480000Y-20730000D01*
X72520000Y-20730000D01*
X72520000Y-19270000D01*
%TO.C,R25*%
X46520000Y-87270000D02*
X49480000Y-87270000D01*
X49480000Y-88730000D01*
X46520000Y-88730000D01*
X46520000Y-87270000D01*
%TO.C,C101*%
X80520000Y-17270000D02*
X83480000Y-17270000D01*
X83480000Y-18730000D01*
X80520000Y-18730000D01*
X80520000Y-17270000D01*
%TO.C,R26*%
X60520000Y-87270000D02*
X63480000Y-87270000D01*
X63480000Y-88730000D01*
X60520000Y-88730000D01*
X60520000Y-87270000D01*
%TO.C,R17*%
X46520000Y-95270000D02*
X49480000Y-95270000D01*
X49480000Y-96730000D01*
X46520000Y-96730000D01*
X46520000Y-95270000D01*
%TO.C,C99*%
X66520000Y-7270000D02*
X69480000Y-7270000D01*
X69480000Y-8730000D01*
X66520000Y-8730000D01*
X66520000Y-7270000D01*
%TO.C,R22*%
X136520000Y-91270000D02*
X139480000Y-91270000D01*
X139480000Y-92730000D01*
X136520000Y-92730000D01*
X136520000Y-91270000D01*
%TO.C,R7*%
X46520000Y-91270000D02*
X49480000Y-91270000D01*
X49480000Y-92730000D01*
X46520000Y-92730000D01*
X46520000Y-91270000D01*
%TO.C,C91*%
X121520000Y-21270000D02*
X124480000Y-21270000D01*
X124480000Y-22730000D01*
X121520000Y-22730000D01*
X121520000Y-21270000D01*
%TO.C,C90*%
X92520000Y-81270000D02*
X95480000Y-81270000D01*
X95480000Y-82730000D01*
X92520000Y-82730000D01*
X92520000Y-81270000D01*
%TO.C,R35*%
X118520000Y-95270000D02*
X121480000Y-95270000D01*
X121480000Y-96730000D01*
X118520000Y-96730000D01*
X118520000Y-95270000D01*
%TO.C,C98*%
X126520000Y-35270000D02*
X129480000Y-35270000D01*
X129480000Y-36730000D01*
X126520000Y-36730000D01*
X126520000Y-35270000D01*
%TO.C,U6*%
X24050000Y-10000000D02*
X65550000Y-10000000D01*
X65550000Y-36000000D01*
X24050000Y-36000000D01*
X24050000Y-10000000D01*
%TO.C,R11*%
X120520000Y-76360000D02*
X123480000Y-76360000D01*
X123480000Y-77820000D01*
X120520000Y-77820000D01*
X120520000Y-76360000D01*
%TO.C,R18*%
X64520000Y-95270000D02*
X67480000Y-95270000D01*
X67480000Y-96730000D01*
X64520000Y-96730000D01*
X64520000Y-95270000D01*
%TO.C,U1*%
X70000000Y-34250000D02*
X70000000Y-55250000D01*
X70000000Y-55250000D02*
X84250000Y-55250000D01*
X84250000Y-75450000D02*
X84250000Y-55250000D01*
X84250000Y-75450000D02*
X103750000Y-75450000D01*
X103750000Y-55250000D02*
X103750000Y-75450000D01*
X103750000Y-55250000D02*
X118000000Y-55250000D01*
X118000000Y-34250000D02*
X70000000Y-34250000D01*
X118000000Y-55250000D02*
X118000000Y-34250000D01*
%TO.C,R12*%
X106520000Y-77630000D02*
X109480000Y-77630000D01*
X109480000Y-79090000D01*
X106520000Y-79090000D01*
X106520000Y-77630000D01*
%TO.C,C92*%
X145520000Y-33270000D02*
X148480000Y-33270000D01*
X148480000Y-34730000D01*
X145520000Y-34730000D01*
X145520000Y-33270000D01*
%TO.C,R20*%
X100520000Y-91270000D02*
X103480000Y-91270000D01*
X103480000Y-92730000D01*
X100520000Y-92730000D01*
X100520000Y-91270000D01*
%TO.C,R38*%
X34520000Y-91270000D02*
X37480000Y-91270000D01*
X37480000Y-92730000D01*
X34520000Y-92730000D01*
X34520000Y-91270000D01*
%TO.C,K1*%
X23050000Y-66450000D02*
X44700000Y-66450000D01*
X23050000Y-77950000D02*
X23050000Y-66450000D01*
X44700000Y-66450000D02*
X44700000Y-77950000D01*
X44700000Y-77950000D02*
X23050000Y-77950000D01*
%TO.C,C95*%
X120520000Y-43270000D02*
X123480000Y-43270000D01*
X123480000Y-44730000D01*
X120520000Y-44730000D01*
X120520000Y-43270000D01*
%TO.C,R36*%
X136520000Y-95270000D02*
X139480000Y-95270000D01*
X139480000Y-96730000D01*
X136520000Y-96730000D01*
X136520000Y-95270000D01*
%TO.C,C96*%
X124520000Y-47270000D02*
X127480000Y-47270000D01*
X127480000Y-48730000D01*
X124520000Y-48730000D01*
X124520000Y-47270000D01*
%TO.C,R24*%
X28520000Y-87270000D02*
X31480000Y-87270000D01*
X31480000Y-88730000D01*
X28520000Y-88730000D01*
X28520000Y-87270000D01*
%TO.C,R16*%
X28520000Y-95270000D02*
X31480000Y-95270000D01*
X31480000Y-96730000D01*
X28520000Y-96730000D01*
X28520000Y-95270000D01*
%TO.C,U8*%
X79950000Y-12500000D02*
X80950000Y-12500000D01*
X79950000Y-15500000D02*
X79950000Y-12500000D01*
X80950000Y-12300000D02*
X83050000Y-12300000D01*
X80950000Y-12500000D02*
X80950000Y-12300000D01*
X80950000Y-15500000D02*
X79950000Y-15500000D01*
X80950000Y-15700000D02*
X80950000Y-15500000D01*
X83050000Y-12300000D02*
X83050000Y-12500000D01*
X83050000Y-12500000D02*
X84050000Y-12500000D01*
X83050000Y-13610000D02*
X83050000Y-14390000D01*
X83050000Y-14390000D02*
X84050000Y-14390000D01*
X83050000Y-15500000D02*
X83050000Y-15700000D01*
X83050000Y-15700000D02*
X80950000Y-15700000D01*
X84050000Y-12500000D02*
X84050000Y-13610000D01*
X84050000Y-13610000D02*
X83050000Y-13610000D01*
X84050000Y-14390000D02*
X84050000Y-15500000D01*
X84050000Y-15500000D02*
X83050000Y-15500000D01*
%TO.C,U5*%
X126550000Y-39070000D02*
X127270000Y-39070000D01*
X126550000Y-40930000D02*
X126550000Y-39070000D01*
X127270000Y-38900000D02*
X128730000Y-38900000D01*
X127270000Y-39070000D02*
X127270000Y-38900000D01*
X127270000Y-40930000D02*
X126550000Y-40930000D01*
X127270000Y-41100000D02*
X127270000Y-40930000D01*
X128730000Y-38900000D02*
X128730000Y-39070000D01*
X128730000Y-39070000D02*
X129450000Y-39070000D01*
X128730000Y-40930000D02*
X128730000Y-41100000D01*
X128730000Y-41100000D02*
X127270000Y-41100000D01*
X129450000Y-39070000D02*
X129450000Y-40930000D01*
X129450000Y-40930000D02*
X128730000Y-40930000D01*
%TO.C,R39*%
X52520000Y-91270000D02*
X55480000Y-91270000D01*
X55480000Y-92730000D01*
X52520000Y-92730000D01*
X52520000Y-91270000D01*
%TO.C,J1*%
X7750000Y-21400000D02*
X15750000Y-21400000D01*
X15750000Y-30000000D01*
X7750000Y-30000000D01*
X7750000Y-21400000D01*
%TO.C,C94*%
X120520000Y-33270000D02*
X123480000Y-33270000D01*
X123480000Y-34730000D01*
X120520000Y-34730000D01*
X120520000Y-33270000D01*
%TO.C,J2*%
X147830000Y-11830000D02*
X147830000Y-20170000D01*
X147830000Y-11830000D02*
X156170000Y-11830000D01*
X156170000Y-20170000D02*
X147830000Y-20170000D01*
X156170000Y-20170000D02*
X156170000Y-11830000D01*
%TO.C,U4*%
X120550000Y-39070000D02*
X121270000Y-39070000D01*
X120550000Y-40930000D02*
X120550000Y-39070000D01*
X121270000Y-38900000D02*
X122730000Y-38900000D01*
X121270000Y-39070000D02*
X121270000Y-38900000D01*
X121270000Y-40930000D02*
X120550000Y-40930000D01*
X121270000Y-41100000D02*
X121270000Y-40930000D01*
X122730000Y-38900000D02*
X122730000Y-39070000D01*
X122730000Y-39070000D02*
X123450000Y-39070000D01*
X122730000Y-40930000D02*
X122730000Y-41100000D01*
X122730000Y-41100000D02*
X121270000Y-41100000D01*
X123450000Y-39070000D02*
X123450000Y-40930000D01*
X123450000Y-40930000D02*
X122730000Y-40930000D01*
%TO.C,R6*%
X28520000Y-91270000D02*
X31480000Y-91270000D01*
X31480000Y-92730000D01*
X28520000Y-92730000D01*
X28520000Y-91270000D01*
%TO.C,C102*%
X80520000Y-9270000D02*
X83480000Y-9270000D01*
X83480000Y-10730000D01*
X80520000Y-10730000D01*
X80520000Y-9270000D01*
%TO.C,R37*%
X10520000Y-87270000D02*
X13480000Y-87270000D01*
X13480000Y-88730000D01*
X10520000Y-88730000D01*
X10520000Y-87270000D01*
%TO.C,C93*%
X116520000Y-25270000D02*
X119480000Y-25270000D01*
X119480000Y-26730000D01*
X116520000Y-26730000D01*
X116520000Y-25270000D01*
%TO.C,C97*%
X126520000Y-43270000D02*
X129480000Y-43270000D01*
X129480000Y-44730000D01*
X126520000Y-44730000D01*
X126520000Y-43270000D01*
%TO.C,R5*%
X10520000Y-91270000D02*
X13480000Y-91270000D01*
X13480000Y-92730000D01*
X10520000Y-92730000D01*
X10520000Y-91270000D01*
%TO.C,R2*%
X100520000Y-86270000D02*
X103480000Y-86270000D01*
X103480000Y-87730000D01*
X100520000Y-87730000D01*
X100520000Y-86270000D01*
%TO.C,R3*%
X118520000Y-86270000D02*
X121480000Y-86270000D01*
X121480000Y-87730000D01*
X118520000Y-87730000D01*
X118520000Y-86270000D01*
%TO.C,R9*%
X82520000Y-91270000D02*
X85480000Y-91270000D01*
X85480000Y-92730000D01*
X82520000Y-92730000D01*
X82520000Y-91270000D01*
%TO.C,U7*%
X68300000Y-11540000D02*
X69800000Y-11540000D01*
X68300000Y-16460000D02*
X68300000Y-11540000D01*
X69800000Y-11300000D02*
X74200000Y-11300000D01*
X69800000Y-11540000D02*
X69800000Y-11300000D01*
X69800000Y-16460000D02*
X68300000Y-16460000D01*
X69800000Y-16700000D02*
X69800000Y-16460000D01*
X74200000Y-11300000D02*
X74200000Y-11540000D01*
X74200000Y-11540000D02*
X75700000Y-11540000D01*
X74200000Y-16460000D02*
X74200000Y-16700000D01*
X74200000Y-16700000D02*
X69800000Y-16700000D01*
X75700000Y-11540000D02*
X75700000Y-16460000D01*
X75700000Y-16460000D02*
X74200000Y-16460000D01*
%TO.C,R21*%
X118520000Y-91270000D02*
X121480000Y-91270000D01*
X121480000Y-92730000D01*
X118520000Y-92730000D01*
X118520000Y-91270000D01*
%TO.C,R8*%
X64520000Y-91270000D02*
X67480000Y-91270000D01*
X67480000Y-92730000D01*
X64520000Y-92730000D01*
X64520000Y-91270000D01*
%TO.C,K2*%
X65050000Y-78450000D02*
X86700000Y-78450000D01*
X65050000Y-89950000D02*
X65050000Y-78450000D01*
X86700000Y-78450000D02*
X86700000Y-89950000D01*
X86700000Y-89950000D02*
X65050000Y-89950000D01*
%TO.C,R10*%
X120520000Y-61090000D02*
X123480000Y-61090000D01*
X123480000Y-62550000D01*
X120520000Y-62550000D01*
X120520000Y-61090000D01*
%TO.C,R19*%
X82520000Y-95270000D02*
X85480000Y-95270000D01*
X85480000Y-96730000D01*
X82520000Y-96730000D01*
X82520000Y-95270000D01*
%TO.C,R1*%
X88520000Y-86270000D02*
X91480000Y-86270000D01*
X91480000Y-87730000D01*
X88520000Y-87730000D01*
X88520000Y-86270000D01*
%TO.C,R4*%
X136520000Y-86270000D02*
X139480000Y-86270000D01*
X139480000Y-87730000D01*
X136520000Y-87730000D01*
X136520000Y-86270000D01*
%TO.C,R40*%
X70520000Y-91270000D02*
X73480000Y-91270000D01*
X73480000Y-92730000D01*
X70520000Y-92730000D01*
X70520000Y-91270000D01*
%TO.C,R23*%
X10520000Y-95270000D02*
X13480000Y-95270000D01*
X13480000Y-96730000D01*
X10520000Y-96730000D01*
X10520000Y-95270000D01*
%TD*%
M02*
