%TF.GenerationSoftware,KiCad,Pcbnew,10.0.3*%
%TF.CreationDate,2026-05-27T05:07:24+02:00*%
%TF.ProjectId,esp32_s3_dwm3000_uwb_anchor_with_relay_outputs,65737033-325f-4733-935f-64776d333030,rev?*%
%TF.SameCoordinates,Original*%
%TF.FileFunction,Soldermask,Top*%
%TF.FilePolarity,Negative*%
%FSLAX46Y46*%
G04 Gerber Fmt 4.6, Leading zero omitted, Abs format (unit mm)*
G04 Created by KiCad (PCBNEW 10.0.3) date 2026-05-27 05:07:24*
%MOMM*%
%LPD*%
G01*
G04 APERTURE LIST*
G04 APERTURE END LIST*
G36*
X11451537Y-95540224D02*
G01*
X11516421Y-95583579D01*
X11559776Y-95648463D01*
X11575000Y-95725000D01*
X11575000Y-96275000D01*
X11559776Y-96351537D01*
X11516421Y-96416421D01*
X11451537Y-96459776D01*
X11375000Y-96475000D01*
X10975000Y-96475000D01*
X10898463Y-96459776D01*
X10833579Y-96416421D01*
X10790224Y-96351537D01*
X10775000Y-96275000D01*
X10775000Y-95725000D01*
X10790224Y-95648463D01*
X10833579Y-95583579D01*
X10898463Y-95540224D01*
X10975000Y-95525000D01*
X11375000Y-95525000D01*
X11451537Y-95540224D01*
G37*
G36*
X13101537Y-95540224D02*
G01*
X13166421Y-95583579D01*
X13209776Y-95648463D01*
X13225000Y-95725000D01*
X13225000Y-96275000D01*
X13209776Y-96351537D01*
X13166421Y-96416421D01*
X13101537Y-96459776D01*
X13025000Y-96475000D01*
X12625000Y-96475000D01*
X12548463Y-96459776D01*
X12483579Y-96416421D01*
X12440224Y-96351537D01*
X12425000Y-96275000D01*
X12425000Y-95725000D01*
X12440224Y-95648463D01*
X12483579Y-95583579D01*
X12548463Y-95540224D01*
X12625000Y-95525000D01*
X13025000Y-95525000D01*
X13101537Y-95540224D01*
G37*
G36*
X29451537Y-95540224D02*
G01*
X29516421Y-95583579D01*
X29559776Y-95648463D01*
X29575000Y-95725000D01*
X29575000Y-96275000D01*
X29559776Y-96351537D01*
X29516421Y-96416421D01*
X29451537Y-96459776D01*
X29375000Y-96475000D01*
X28975000Y-96475000D01*
X28898463Y-96459776D01*
X28833579Y-96416421D01*
X28790224Y-96351537D01*
X28775000Y-96275000D01*
X28775000Y-95725000D01*
X28790224Y-95648463D01*
X28833579Y-95583579D01*
X28898463Y-95540224D01*
X28975000Y-95525000D01*
X29375000Y-95525000D01*
X29451537Y-95540224D01*
G37*
G36*
X31101537Y-95540224D02*
G01*
X31166421Y-95583579D01*
X31209776Y-95648463D01*
X31225000Y-95725000D01*
X31225000Y-96275000D01*
X31209776Y-96351537D01*
X31166421Y-96416421D01*
X31101537Y-96459776D01*
X31025000Y-96475000D01*
X30625000Y-96475000D01*
X30548463Y-96459776D01*
X30483579Y-96416421D01*
X30440224Y-96351537D01*
X30425000Y-96275000D01*
X30425000Y-95725000D01*
X30440224Y-95648463D01*
X30483579Y-95583579D01*
X30548463Y-95540224D01*
X30625000Y-95525000D01*
X31025000Y-95525000D01*
X31101537Y-95540224D01*
G37*
G36*
X47451537Y-95540224D02*
G01*
X47516421Y-95583579D01*
X47559776Y-95648463D01*
X47575000Y-95725000D01*
X47575000Y-96275000D01*
X47559776Y-96351537D01*
X47516421Y-96416421D01*
X47451537Y-96459776D01*
X47375000Y-96475000D01*
X46975000Y-96475000D01*
X46898463Y-96459776D01*
X46833579Y-96416421D01*
X46790224Y-96351537D01*
X46775000Y-96275000D01*
X46775000Y-95725000D01*
X46790224Y-95648463D01*
X46833579Y-95583579D01*
X46898463Y-95540224D01*
X46975000Y-95525000D01*
X47375000Y-95525000D01*
X47451537Y-95540224D01*
G37*
G36*
X49101537Y-95540224D02*
G01*
X49166421Y-95583579D01*
X49209776Y-95648463D01*
X49225000Y-95725000D01*
X49225000Y-96275000D01*
X49209776Y-96351537D01*
X49166421Y-96416421D01*
X49101537Y-96459776D01*
X49025000Y-96475000D01*
X48625000Y-96475000D01*
X48548463Y-96459776D01*
X48483579Y-96416421D01*
X48440224Y-96351537D01*
X48425000Y-96275000D01*
X48425000Y-95725000D01*
X48440224Y-95648463D01*
X48483579Y-95583579D01*
X48548463Y-95540224D01*
X48625000Y-95525000D01*
X49025000Y-95525000D01*
X49101537Y-95540224D01*
G37*
G36*
X65451537Y-95540224D02*
G01*
X65516421Y-95583579D01*
X65559776Y-95648463D01*
X65575000Y-95725000D01*
X65575000Y-96275000D01*
X65559776Y-96351537D01*
X65516421Y-96416421D01*
X65451537Y-96459776D01*
X65375000Y-96475000D01*
X64975000Y-96475000D01*
X64898463Y-96459776D01*
X64833579Y-96416421D01*
X64790224Y-96351537D01*
X64775000Y-96275000D01*
X64775000Y-95725000D01*
X64790224Y-95648463D01*
X64833579Y-95583579D01*
X64898463Y-95540224D01*
X64975000Y-95525000D01*
X65375000Y-95525000D01*
X65451537Y-95540224D01*
G37*
G36*
X67101537Y-95540224D02*
G01*
X67166421Y-95583579D01*
X67209776Y-95648463D01*
X67225000Y-95725000D01*
X67225000Y-96275000D01*
X67209776Y-96351537D01*
X67166421Y-96416421D01*
X67101537Y-96459776D01*
X67025000Y-96475000D01*
X66625000Y-96475000D01*
X66548463Y-96459776D01*
X66483579Y-96416421D01*
X66440224Y-96351537D01*
X66425000Y-96275000D01*
X66425000Y-95725000D01*
X66440224Y-95648463D01*
X66483579Y-95583579D01*
X66548463Y-95540224D01*
X66625000Y-95525000D01*
X67025000Y-95525000D01*
X67101537Y-95540224D01*
G37*
G36*
X83451537Y-95540224D02*
G01*
X83516421Y-95583579D01*
X83559776Y-95648463D01*
X83575000Y-95725000D01*
X83575000Y-96275000D01*
X83559776Y-96351537D01*
X83516421Y-96416421D01*
X83451537Y-96459776D01*
X83375000Y-96475000D01*
X82975000Y-96475000D01*
X82898463Y-96459776D01*
X82833579Y-96416421D01*
X82790224Y-96351537D01*
X82775000Y-96275000D01*
X82775000Y-95725000D01*
X82790224Y-95648463D01*
X82833579Y-95583579D01*
X82898463Y-95540224D01*
X82975000Y-95525000D01*
X83375000Y-95525000D01*
X83451537Y-95540224D01*
G37*
G36*
X85101537Y-95540224D02*
G01*
X85166421Y-95583579D01*
X85209776Y-95648463D01*
X85225000Y-95725000D01*
X85225000Y-96275000D01*
X85209776Y-96351537D01*
X85166421Y-96416421D01*
X85101537Y-96459776D01*
X85025000Y-96475000D01*
X84625000Y-96475000D01*
X84548463Y-96459776D01*
X84483579Y-96416421D01*
X84440224Y-96351537D01*
X84425000Y-96275000D01*
X84425000Y-95725000D01*
X84440224Y-95648463D01*
X84483579Y-95583579D01*
X84548463Y-95540224D01*
X84625000Y-95525000D01*
X85025000Y-95525000D01*
X85101537Y-95540224D01*
G37*
G36*
X101451537Y-95540224D02*
G01*
X101516421Y-95583579D01*
X101559776Y-95648463D01*
X101575000Y-95725000D01*
X101575000Y-96275000D01*
X101559776Y-96351537D01*
X101516421Y-96416421D01*
X101451537Y-96459776D01*
X101375000Y-96475000D01*
X100975000Y-96475000D01*
X100898463Y-96459776D01*
X100833579Y-96416421D01*
X100790224Y-96351537D01*
X100775000Y-96275000D01*
X100775000Y-95725000D01*
X100790224Y-95648463D01*
X100833579Y-95583579D01*
X100898463Y-95540224D01*
X100975000Y-95525000D01*
X101375000Y-95525000D01*
X101451537Y-95540224D01*
G37*
G36*
X103101537Y-95540224D02*
G01*
X103166421Y-95583579D01*
X103209776Y-95648463D01*
X103225000Y-95725000D01*
X103225000Y-96275000D01*
X103209776Y-96351537D01*
X103166421Y-96416421D01*
X103101537Y-96459776D01*
X103025000Y-96475000D01*
X102625000Y-96475000D01*
X102548463Y-96459776D01*
X102483579Y-96416421D01*
X102440224Y-96351537D01*
X102425000Y-96275000D01*
X102425000Y-95725000D01*
X102440224Y-95648463D01*
X102483579Y-95583579D01*
X102548463Y-95540224D01*
X102625000Y-95525000D01*
X103025000Y-95525000D01*
X103101537Y-95540224D01*
G37*
G36*
X119451537Y-95540224D02*
G01*
X119516421Y-95583579D01*
X119559776Y-95648463D01*
X119575000Y-95725000D01*
X119575000Y-96275000D01*
X119559776Y-96351537D01*
X119516421Y-96416421D01*
X119451537Y-96459776D01*
X119375000Y-96475000D01*
X118975000Y-96475000D01*
X118898463Y-96459776D01*
X118833579Y-96416421D01*
X118790224Y-96351537D01*
X118775000Y-96275000D01*
X118775000Y-95725000D01*
X118790224Y-95648463D01*
X118833579Y-95583579D01*
X118898463Y-95540224D01*
X118975000Y-95525000D01*
X119375000Y-95525000D01*
X119451537Y-95540224D01*
G37*
G36*
X121101537Y-95540224D02*
G01*
X121166421Y-95583579D01*
X121209776Y-95648463D01*
X121225000Y-95725000D01*
X121225000Y-96275000D01*
X121209776Y-96351537D01*
X121166421Y-96416421D01*
X121101537Y-96459776D01*
X121025000Y-96475000D01*
X120625000Y-96475000D01*
X120548463Y-96459776D01*
X120483579Y-96416421D01*
X120440224Y-96351537D01*
X120425000Y-96275000D01*
X120425000Y-95725000D01*
X120440224Y-95648463D01*
X120483579Y-95583579D01*
X120548463Y-95540224D01*
X120625000Y-95525000D01*
X121025000Y-95525000D01*
X121101537Y-95540224D01*
G37*
G36*
X137451537Y-95540224D02*
G01*
X137516421Y-95583579D01*
X137559776Y-95648463D01*
X137575000Y-95725000D01*
X137575000Y-96275000D01*
X137559776Y-96351537D01*
X137516421Y-96416421D01*
X137451537Y-96459776D01*
X137375000Y-96475000D01*
X136975000Y-96475000D01*
X136898463Y-96459776D01*
X136833579Y-96416421D01*
X136790224Y-96351537D01*
X136775000Y-96275000D01*
X136775000Y-95725000D01*
X136790224Y-95648463D01*
X136833579Y-95583579D01*
X136898463Y-95540224D01*
X136975000Y-95525000D01*
X137375000Y-95525000D01*
X137451537Y-95540224D01*
G37*
G36*
X139101537Y-95540224D02*
G01*
X139166421Y-95583579D01*
X139209776Y-95648463D01*
X139225000Y-95725000D01*
X139225000Y-96275000D01*
X139209776Y-96351537D01*
X139166421Y-96416421D01*
X139101537Y-96459776D01*
X139025000Y-96475000D01*
X138625000Y-96475000D01*
X138548463Y-96459776D01*
X138483579Y-96416421D01*
X138440224Y-96351537D01*
X138425000Y-96275000D01*
X138425000Y-95725000D01*
X138440224Y-95648463D01*
X138483579Y-95583579D01*
X138548463Y-95540224D01*
X138625000Y-95525000D01*
X139025000Y-95525000D01*
X139101537Y-95540224D01*
G37*
G36*
X11451537Y-91540224D02*
G01*
X11516421Y-91583579D01*
X11559776Y-91648463D01*
X11575000Y-91725000D01*
X11575000Y-92275000D01*
X11559776Y-92351537D01*
X11516421Y-92416421D01*
X11451537Y-92459776D01*
X11375000Y-92475000D01*
X10975000Y-92475000D01*
X10898463Y-92459776D01*
X10833579Y-92416421D01*
X10790224Y-92351537D01*
X10775000Y-92275000D01*
X10775000Y-91725000D01*
X10790224Y-91648463D01*
X10833579Y-91583579D01*
X10898463Y-91540224D01*
X10975000Y-91525000D01*
X11375000Y-91525000D01*
X11451537Y-91540224D01*
G37*
G36*
X13101537Y-91540224D02*
G01*
X13166421Y-91583579D01*
X13209776Y-91648463D01*
X13225000Y-91725000D01*
X13225000Y-92275000D01*
X13209776Y-92351537D01*
X13166421Y-92416421D01*
X13101537Y-92459776D01*
X13025000Y-92475000D01*
X12625000Y-92475000D01*
X12548463Y-92459776D01*
X12483579Y-92416421D01*
X12440224Y-92351537D01*
X12425000Y-92275000D01*
X12425000Y-91725000D01*
X12440224Y-91648463D01*
X12483579Y-91583579D01*
X12548463Y-91540224D01*
X12625000Y-91525000D01*
X13025000Y-91525000D01*
X13101537Y-91540224D01*
G37*
G36*
X29451537Y-91540224D02*
G01*
X29516421Y-91583579D01*
X29559776Y-91648463D01*
X29575000Y-91725000D01*
X29575000Y-92275000D01*
X29559776Y-92351537D01*
X29516421Y-92416421D01*
X29451537Y-92459776D01*
X29375000Y-92475000D01*
X28975000Y-92475000D01*
X28898463Y-92459776D01*
X28833579Y-92416421D01*
X28790224Y-92351537D01*
X28775000Y-92275000D01*
X28775000Y-91725000D01*
X28790224Y-91648463D01*
X28833579Y-91583579D01*
X28898463Y-91540224D01*
X28975000Y-91525000D01*
X29375000Y-91525000D01*
X29451537Y-91540224D01*
G37*
G36*
X31101537Y-91540224D02*
G01*
X31166421Y-91583579D01*
X31209776Y-91648463D01*
X31225000Y-91725000D01*
X31225000Y-92275000D01*
X31209776Y-92351537D01*
X31166421Y-92416421D01*
X31101537Y-92459776D01*
X31025000Y-92475000D01*
X30625000Y-92475000D01*
X30548463Y-92459776D01*
X30483579Y-92416421D01*
X30440224Y-92351537D01*
X30425000Y-92275000D01*
X30425000Y-91725000D01*
X30440224Y-91648463D01*
X30483579Y-91583579D01*
X30548463Y-91540224D01*
X30625000Y-91525000D01*
X31025000Y-91525000D01*
X31101537Y-91540224D01*
G37*
G36*
X35451537Y-91540224D02*
G01*
X35516421Y-91583579D01*
X35559776Y-91648463D01*
X35575000Y-91725000D01*
X35575000Y-92275000D01*
X35559776Y-92351537D01*
X35516421Y-92416421D01*
X35451537Y-92459776D01*
X35375000Y-92475000D01*
X34975000Y-92475000D01*
X34898463Y-92459776D01*
X34833579Y-92416421D01*
X34790224Y-92351537D01*
X34775000Y-92275000D01*
X34775000Y-91725000D01*
X34790224Y-91648463D01*
X34833579Y-91583579D01*
X34898463Y-91540224D01*
X34975000Y-91525000D01*
X35375000Y-91525000D01*
X35451537Y-91540224D01*
G37*
G36*
X37101537Y-91540224D02*
G01*
X37166421Y-91583579D01*
X37209776Y-91648463D01*
X37225000Y-91725000D01*
X37225000Y-92275000D01*
X37209776Y-92351537D01*
X37166421Y-92416421D01*
X37101537Y-92459776D01*
X37025000Y-92475000D01*
X36625000Y-92475000D01*
X36548463Y-92459776D01*
X36483579Y-92416421D01*
X36440224Y-92351537D01*
X36425000Y-92275000D01*
X36425000Y-91725000D01*
X36440224Y-91648463D01*
X36483579Y-91583579D01*
X36548463Y-91540224D01*
X36625000Y-91525000D01*
X37025000Y-91525000D01*
X37101537Y-91540224D01*
G37*
G36*
X47451537Y-91540224D02*
G01*
X47516421Y-91583579D01*
X47559776Y-91648463D01*
X47575000Y-91725000D01*
X47575000Y-92275000D01*
X47559776Y-92351537D01*
X47516421Y-92416421D01*
X47451537Y-92459776D01*
X47375000Y-92475000D01*
X46975000Y-92475000D01*
X46898463Y-92459776D01*
X46833579Y-92416421D01*
X46790224Y-92351537D01*
X46775000Y-92275000D01*
X46775000Y-91725000D01*
X46790224Y-91648463D01*
X46833579Y-91583579D01*
X46898463Y-91540224D01*
X46975000Y-91525000D01*
X47375000Y-91525000D01*
X47451537Y-91540224D01*
G37*
G36*
X49101537Y-91540224D02*
G01*
X49166421Y-91583579D01*
X49209776Y-91648463D01*
X49225000Y-91725000D01*
X49225000Y-92275000D01*
X49209776Y-92351537D01*
X49166421Y-92416421D01*
X49101537Y-92459776D01*
X49025000Y-92475000D01*
X48625000Y-92475000D01*
X48548463Y-92459776D01*
X48483579Y-92416421D01*
X48440224Y-92351537D01*
X48425000Y-92275000D01*
X48425000Y-91725000D01*
X48440224Y-91648463D01*
X48483579Y-91583579D01*
X48548463Y-91540224D01*
X48625000Y-91525000D01*
X49025000Y-91525000D01*
X49101537Y-91540224D01*
G37*
G36*
X53451537Y-91540224D02*
G01*
X53516421Y-91583579D01*
X53559776Y-91648463D01*
X53575000Y-91725000D01*
X53575000Y-92275000D01*
X53559776Y-92351537D01*
X53516421Y-92416421D01*
X53451537Y-92459776D01*
X53375000Y-92475000D01*
X52975000Y-92475000D01*
X52898463Y-92459776D01*
X52833579Y-92416421D01*
X52790224Y-92351537D01*
X52775000Y-92275000D01*
X52775000Y-91725000D01*
X52790224Y-91648463D01*
X52833579Y-91583579D01*
X52898463Y-91540224D01*
X52975000Y-91525000D01*
X53375000Y-91525000D01*
X53451537Y-91540224D01*
G37*
G36*
X55101537Y-91540224D02*
G01*
X55166421Y-91583579D01*
X55209776Y-91648463D01*
X55225000Y-91725000D01*
X55225000Y-92275000D01*
X55209776Y-92351537D01*
X55166421Y-92416421D01*
X55101537Y-92459776D01*
X55025000Y-92475000D01*
X54625000Y-92475000D01*
X54548463Y-92459776D01*
X54483579Y-92416421D01*
X54440224Y-92351537D01*
X54425000Y-92275000D01*
X54425000Y-91725000D01*
X54440224Y-91648463D01*
X54483579Y-91583579D01*
X54548463Y-91540224D01*
X54625000Y-91525000D01*
X55025000Y-91525000D01*
X55101537Y-91540224D01*
G37*
G36*
X65451537Y-91540224D02*
G01*
X65516421Y-91583579D01*
X65559776Y-91648463D01*
X65575000Y-91725000D01*
X65575000Y-92275000D01*
X65559776Y-92351537D01*
X65516421Y-92416421D01*
X65451537Y-92459776D01*
X65375000Y-92475000D01*
X64975000Y-92475000D01*
X64898463Y-92459776D01*
X64833579Y-92416421D01*
X64790224Y-92351537D01*
X64775000Y-92275000D01*
X64775000Y-91725000D01*
X64790224Y-91648463D01*
X64833579Y-91583579D01*
X64898463Y-91540224D01*
X64975000Y-91525000D01*
X65375000Y-91525000D01*
X65451537Y-91540224D01*
G37*
G36*
X67101537Y-91540224D02*
G01*
X67166421Y-91583579D01*
X67209776Y-91648463D01*
X67225000Y-91725000D01*
X67225000Y-92275000D01*
X67209776Y-92351537D01*
X67166421Y-92416421D01*
X67101537Y-92459776D01*
X67025000Y-92475000D01*
X66625000Y-92475000D01*
X66548463Y-92459776D01*
X66483579Y-92416421D01*
X66440224Y-92351537D01*
X66425000Y-92275000D01*
X66425000Y-91725000D01*
X66440224Y-91648463D01*
X66483579Y-91583579D01*
X66548463Y-91540224D01*
X66625000Y-91525000D01*
X67025000Y-91525000D01*
X67101537Y-91540224D01*
G37*
G36*
X71451537Y-91540224D02*
G01*
X71516421Y-91583579D01*
X71559776Y-91648463D01*
X71575000Y-91725000D01*
X71575000Y-92275000D01*
X71559776Y-92351537D01*
X71516421Y-92416421D01*
X71451537Y-92459776D01*
X71375000Y-92475000D01*
X70975000Y-92475000D01*
X70898463Y-92459776D01*
X70833579Y-92416421D01*
X70790224Y-92351537D01*
X70775000Y-92275000D01*
X70775000Y-91725000D01*
X70790224Y-91648463D01*
X70833579Y-91583579D01*
X70898463Y-91540224D01*
X70975000Y-91525000D01*
X71375000Y-91525000D01*
X71451537Y-91540224D01*
G37*
G36*
X73101537Y-91540224D02*
G01*
X73166421Y-91583579D01*
X73209776Y-91648463D01*
X73225000Y-91725000D01*
X73225000Y-92275000D01*
X73209776Y-92351537D01*
X73166421Y-92416421D01*
X73101537Y-92459776D01*
X73025000Y-92475000D01*
X72625000Y-92475000D01*
X72548463Y-92459776D01*
X72483579Y-92416421D01*
X72440224Y-92351537D01*
X72425000Y-92275000D01*
X72425000Y-91725000D01*
X72440224Y-91648463D01*
X72483579Y-91583579D01*
X72548463Y-91540224D01*
X72625000Y-91525000D01*
X73025000Y-91525000D01*
X73101537Y-91540224D01*
G37*
G36*
X83451537Y-91540224D02*
G01*
X83516421Y-91583579D01*
X83559776Y-91648463D01*
X83575000Y-91725000D01*
X83575000Y-92275000D01*
X83559776Y-92351537D01*
X83516421Y-92416421D01*
X83451537Y-92459776D01*
X83375000Y-92475000D01*
X82975000Y-92475000D01*
X82898463Y-92459776D01*
X82833579Y-92416421D01*
X82790224Y-92351537D01*
X82775000Y-92275000D01*
X82775000Y-91725000D01*
X82790224Y-91648463D01*
X82833579Y-91583579D01*
X82898463Y-91540224D01*
X82975000Y-91525000D01*
X83375000Y-91525000D01*
X83451537Y-91540224D01*
G37*
G36*
X85101537Y-91540224D02*
G01*
X85166421Y-91583579D01*
X85209776Y-91648463D01*
X85225000Y-91725000D01*
X85225000Y-92275000D01*
X85209776Y-92351537D01*
X85166421Y-92416421D01*
X85101537Y-92459776D01*
X85025000Y-92475000D01*
X84625000Y-92475000D01*
X84548463Y-92459776D01*
X84483579Y-92416421D01*
X84440224Y-92351537D01*
X84425000Y-92275000D01*
X84425000Y-91725000D01*
X84440224Y-91648463D01*
X84483579Y-91583579D01*
X84548463Y-91540224D01*
X84625000Y-91525000D01*
X85025000Y-91525000D01*
X85101537Y-91540224D01*
G37*
G36*
X89451537Y-91540224D02*
G01*
X89516421Y-91583579D01*
X89559776Y-91648463D01*
X89575000Y-91725000D01*
X89575000Y-92275000D01*
X89559776Y-92351537D01*
X89516421Y-92416421D01*
X89451537Y-92459776D01*
X89375000Y-92475000D01*
X88975000Y-92475000D01*
X88898463Y-92459776D01*
X88833579Y-92416421D01*
X88790224Y-92351537D01*
X88775000Y-92275000D01*
X88775000Y-91725000D01*
X88790224Y-91648463D01*
X88833579Y-91583579D01*
X88898463Y-91540224D01*
X88975000Y-91525000D01*
X89375000Y-91525000D01*
X89451537Y-91540224D01*
G37*
G36*
X91101537Y-91540224D02*
G01*
X91166421Y-91583579D01*
X91209776Y-91648463D01*
X91225000Y-91725000D01*
X91225000Y-92275000D01*
X91209776Y-92351537D01*
X91166421Y-92416421D01*
X91101537Y-92459776D01*
X91025000Y-92475000D01*
X90625000Y-92475000D01*
X90548463Y-92459776D01*
X90483579Y-92416421D01*
X90440224Y-92351537D01*
X90425000Y-92275000D01*
X90425000Y-91725000D01*
X90440224Y-91648463D01*
X90483579Y-91583579D01*
X90548463Y-91540224D01*
X90625000Y-91525000D01*
X91025000Y-91525000D01*
X91101537Y-91540224D01*
G37*
G36*
X101451537Y-91540224D02*
G01*
X101516421Y-91583579D01*
X101559776Y-91648463D01*
X101575000Y-91725000D01*
X101575000Y-92275000D01*
X101559776Y-92351537D01*
X101516421Y-92416421D01*
X101451537Y-92459776D01*
X101375000Y-92475000D01*
X100975000Y-92475000D01*
X100898463Y-92459776D01*
X100833579Y-92416421D01*
X100790224Y-92351537D01*
X100775000Y-92275000D01*
X100775000Y-91725000D01*
X100790224Y-91648463D01*
X100833579Y-91583579D01*
X100898463Y-91540224D01*
X100975000Y-91525000D01*
X101375000Y-91525000D01*
X101451537Y-91540224D01*
G37*
G36*
X103101537Y-91540224D02*
G01*
X103166421Y-91583579D01*
X103209776Y-91648463D01*
X103225000Y-91725000D01*
X103225000Y-92275000D01*
X103209776Y-92351537D01*
X103166421Y-92416421D01*
X103101537Y-92459776D01*
X103025000Y-92475000D01*
X102625000Y-92475000D01*
X102548463Y-92459776D01*
X102483579Y-92416421D01*
X102440224Y-92351537D01*
X102425000Y-92275000D01*
X102425000Y-91725000D01*
X102440224Y-91648463D01*
X102483579Y-91583579D01*
X102548463Y-91540224D01*
X102625000Y-91525000D01*
X103025000Y-91525000D01*
X103101537Y-91540224D01*
G37*
G36*
X119451537Y-91540224D02*
G01*
X119516421Y-91583579D01*
X119559776Y-91648463D01*
X119575000Y-91725000D01*
X119575000Y-92275000D01*
X119559776Y-92351537D01*
X119516421Y-92416421D01*
X119451537Y-92459776D01*
X119375000Y-92475000D01*
X118975000Y-92475000D01*
X118898463Y-92459776D01*
X118833579Y-92416421D01*
X118790224Y-92351537D01*
X118775000Y-92275000D01*
X118775000Y-91725000D01*
X118790224Y-91648463D01*
X118833579Y-91583579D01*
X118898463Y-91540224D01*
X118975000Y-91525000D01*
X119375000Y-91525000D01*
X119451537Y-91540224D01*
G37*
G36*
X121101537Y-91540224D02*
G01*
X121166421Y-91583579D01*
X121209776Y-91648463D01*
X121225000Y-91725000D01*
X121225000Y-92275000D01*
X121209776Y-92351537D01*
X121166421Y-92416421D01*
X121101537Y-92459776D01*
X121025000Y-92475000D01*
X120625000Y-92475000D01*
X120548463Y-92459776D01*
X120483579Y-92416421D01*
X120440224Y-92351537D01*
X120425000Y-92275000D01*
X120425000Y-91725000D01*
X120440224Y-91648463D01*
X120483579Y-91583579D01*
X120548463Y-91540224D01*
X120625000Y-91525000D01*
X121025000Y-91525000D01*
X121101537Y-91540224D01*
G37*
G36*
X137451537Y-91540224D02*
G01*
X137516421Y-91583579D01*
X137559776Y-91648463D01*
X137575000Y-91725000D01*
X137575000Y-92275000D01*
X137559776Y-92351537D01*
X137516421Y-92416421D01*
X137451537Y-92459776D01*
X137375000Y-92475000D01*
X136975000Y-92475000D01*
X136898463Y-92459776D01*
X136833579Y-92416421D01*
X136790224Y-92351537D01*
X136775000Y-92275000D01*
X136775000Y-91725000D01*
X136790224Y-91648463D01*
X136833579Y-91583579D01*
X136898463Y-91540224D01*
X136975000Y-91525000D01*
X137375000Y-91525000D01*
X137451537Y-91540224D01*
G37*
G36*
X139101537Y-91540224D02*
G01*
X139166421Y-91583579D01*
X139209776Y-91648463D01*
X139225000Y-91725000D01*
X139225000Y-92275000D01*
X139209776Y-92351537D01*
X139166421Y-92416421D01*
X139101537Y-92459776D01*
X139025000Y-92475000D01*
X138625000Y-92475000D01*
X138548463Y-92459776D01*
X138483579Y-92416421D01*
X138440224Y-92351537D01*
X138425000Y-92275000D01*
X138425000Y-91725000D01*
X138440224Y-91648463D01*
X138483579Y-91583579D01*
X138548463Y-91540224D01*
X138625000Y-91525000D01*
X139025000Y-91525000D01*
X139101537Y-91540224D01*
G37*
G36*
X68150000Y-89150000D02*
G01*
X65850000Y-89150000D01*
X65850000Y-86850000D01*
X68150000Y-86850000D01*
X68150000Y-89150000D01*
G37*
G36*
X77428462Y-86881775D02*
G01*
X77600086Y-86937539D01*
X77760873Y-87019464D01*
X77906865Y-87125533D01*
X78034467Y-87253135D01*
X78140536Y-87399127D01*
X78222461Y-87559914D01*
X78278225Y-87731538D01*
X78306455Y-87909772D01*
X78306455Y-88090228D01*
X78278225Y-88268462D01*
X78222461Y-88440086D01*
X78140536Y-88600873D01*
X78034467Y-88746865D01*
X77906865Y-88874467D01*
X77760873Y-88980536D01*
X77600086Y-89062461D01*
X77428462Y-89118225D01*
X77250228Y-89146455D01*
X77069772Y-89146455D01*
X76891538Y-89118225D01*
X76719914Y-89062461D01*
X76559127Y-88980536D01*
X76413135Y-88874467D01*
X76285533Y-88746865D01*
X76179464Y-88600873D01*
X76097539Y-88440086D01*
X76041775Y-88268462D01*
X76013545Y-88090228D01*
X76013545Y-87909772D01*
X76041775Y-87731538D01*
X76097539Y-87559914D01*
X76179464Y-87399127D01*
X76285533Y-87253135D01*
X76413135Y-87125533D01*
X76559127Y-87019464D01*
X76719914Y-86937539D01*
X76891538Y-86881775D01*
X77069772Y-86853545D01*
X77250228Y-86853545D01*
X77428462Y-86881775D01*
G37*
G36*
X85048462Y-86881775D02*
G01*
X85220086Y-86937539D01*
X85380873Y-87019464D01*
X85526865Y-87125533D01*
X85654467Y-87253135D01*
X85760536Y-87399127D01*
X85842461Y-87559914D01*
X85898225Y-87731538D01*
X85926455Y-87909772D01*
X85926455Y-88090228D01*
X85898225Y-88268462D01*
X85842461Y-88440086D01*
X85760536Y-88600873D01*
X85654467Y-88746865D01*
X85526865Y-88874467D01*
X85380873Y-88980536D01*
X85220086Y-89062461D01*
X85048462Y-89118225D01*
X84870228Y-89146455D01*
X84689772Y-89146455D01*
X84511538Y-89118225D01*
X84339914Y-89062461D01*
X84179127Y-88980536D01*
X84033135Y-88874467D01*
X83905533Y-88746865D01*
X83799464Y-88600873D01*
X83717539Y-88440086D01*
X83661775Y-88268462D01*
X83633545Y-88090228D01*
X83633545Y-87909772D01*
X83661775Y-87731538D01*
X83717539Y-87559914D01*
X83799464Y-87399127D01*
X83905533Y-87253135D01*
X84033135Y-87125533D01*
X84179127Y-87019464D01*
X84339914Y-86937539D01*
X84511538Y-86881775D01*
X84689772Y-86853545D01*
X84870228Y-86853545D01*
X85048462Y-86881775D01*
G37*
G36*
X11451537Y-87540224D02*
G01*
X11516421Y-87583579D01*
X11559776Y-87648463D01*
X11575000Y-87725000D01*
X11575000Y-88275000D01*
X11559776Y-88351537D01*
X11516421Y-88416421D01*
X11451537Y-88459776D01*
X11375000Y-88475000D01*
X10975000Y-88475000D01*
X10898463Y-88459776D01*
X10833579Y-88416421D01*
X10790224Y-88351537D01*
X10775000Y-88275000D01*
X10775000Y-87725000D01*
X10790224Y-87648463D01*
X10833579Y-87583579D01*
X10898463Y-87540224D01*
X10975000Y-87525000D01*
X11375000Y-87525000D01*
X11451537Y-87540224D01*
G37*
G36*
X13101537Y-87540224D02*
G01*
X13166421Y-87583579D01*
X13209776Y-87648463D01*
X13225000Y-87725000D01*
X13225000Y-88275000D01*
X13209776Y-88351537D01*
X13166421Y-88416421D01*
X13101537Y-88459776D01*
X13025000Y-88475000D01*
X12625000Y-88475000D01*
X12548463Y-88459776D01*
X12483579Y-88416421D01*
X12440224Y-88351537D01*
X12425000Y-88275000D01*
X12425000Y-87725000D01*
X12440224Y-87648463D01*
X12483579Y-87583579D01*
X12548463Y-87540224D01*
X12625000Y-87525000D01*
X13025000Y-87525000D01*
X13101537Y-87540224D01*
G37*
G36*
X29451537Y-87540224D02*
G01*
X29516421Y-87583579D01*
X29559776Y-87648463D01*
X29575000Y-87725000D01*
X29575000Y-88275000D01*
X29559776Y-88351537D01*
X29516421Y-88416421D01*
X29451537Y-88459776D01*
X29375000Y-88475000D01*
X28975000Y-88475000D01*
X28898463Y-88459776D01*
X28833579Y-88416421D01*
X28790224Y-88351537D01*
X28775000Y-88275000D01*
X28775000Y-87725000D01*
X28790224Y-87648463D01*
X28833579Y-87583579D01*
X28898463Y-87540224D01*
X28975000Y-87525000D01*
X29375000Y-87525000D01*
X29451537Y-87540224D01*
G37*
G36*
X31101537Y-87540224D02*
G01*
X31166421Y-87583579D01*
X31209776Y-87648463D01*
X31225000Y-87725000D01*
X31225000Y-88275000D01*
X31209776Y-88351537D01*
X31166421Y-88416421D01*
X31101537Y-88459776D01*
X31025000Y-88475000D01*
X30625000Y-88475000D01*
X30548463Y-88459776D01*
X30483579Y-88416421D01*
X30440224Y-88351537D01*
X30425000Y-88275000D01*
X30425000Y-87725000D01*
X30440224Y-87648463D01*
X30483579Y-87583579D01*
X30548463Y-87540224D01*
X30625000Y-87525000D01*
X31025000Y-87525000D01*
X31101537Y-87540224D01*
G37*
G36*
X47451537Y-87540224D02*
G01*
X47516421Y-87583579D01*
X47559776Y-87648463D01*
X47575000Y-87725000D01*
X47575000Y-88275000D01*
X47559776Y-88351537D01*
X47516421Y-88416421D01*
X47451537Y-88459776D01*
X47375000Y-88475000D01*
X46975000Y-88475000D01*
X46898463Y-88459776D01*
X46833579Y-88416421D01*
X46790224Y-88351537D01*
X46775000Y-88275000D01*
X46775000Y-87725000D01*
X46790224Y-87648463D01*
X46833579Y-87583579D01*
X46898463Y-87540224D01*
X46975000Y-87525000D01*
X47375000Y-87525000D01*
X47451537Y-87540224D01*
G37*
G36*
X49101537Y-87540224D02*
G01*
X49166421Y-87583579D01*
X49209776Y-87648463D01*
X49225000Y-87725000D01*
X49225000Y-88275000D01*
X49209776Y-88351537D01*
X49166421Y-88416421D01*
X49101537Y-88459776D01*
X49025000Y-88475000D01*
X48625000Y-88475000D01*
X48548463Y-88459776D01*
X48483579Y-88416421D01*
X48440224Y-88351537D01*
X48425000Y-88275000D01*
X48425000Y-87725000D01*
X48440224Y-87648463D01*
X48483579Y-87583579D01*
X48548463Y-87540224D01*
X48625000Y-87525000D01*
X49025000Y-87525000D01*
X49101537Y-87540224D01*
G37*
G36*
X61451537Y-87540224D02*
G01*
X61516421Y-87583579D01*
X61559776Y-87648463D01*
X61575000Y-87725000D01*
X61575000Y-88275000D01*
X61559776Y-88351537D01*
X61516421Y-88416421D01*
X61451537Y-88459776D01*
X61375000Y-88475000D01*
X60975000Y-88475000D01*
X60898463Y-88459776D01*
X60833579Y-88416421D01*
X60790224Y-88351537D01*
X60775000Y-88275000D01*
X60775000Y-87725000D01*
X60790224Y-87648463D01*
X60833579Y-87583579D01*
X60898463Y-87540224D01*
X60975000Y-87525000D01*
X61375000Y-87525000D01*
X61451537Y-87540224D01*
G37*
G36*
X63101537Y-87540224D02*
G01*
X63166421Y-87583579D01*
X63209776Y-87648463D01*
X63225000Y-87725000D01*
X63225000Y-88275000D01*
X63209776Y-88351537D01*
X63166421Y-88416421D01*
X63101537Y-88459776D01*
X63025000Y-88475000D01*
X62625000Y-88475000D01*
X62548463Y-88459776D01*
X62483579Y-88416421D01*
X62440224Y-88351537D01*
X62425000Y-88275000D01*
X62425000Y-87725000D01*
X62440224Y-87648463D01*
X62483579Y-87583579D01*
X62548463Y-87540224D01*
X62625000Y-87525000D01*
X63025000Y-87525000D01*
X63101537Y-87540224D01*
G37*
G36*
X89451537Y-86540224D02*
G01*
X89516421Y-86583579D01*
X89559776Y-86648463D01*
X89575000Y-86725000D01*
X89575000Y-87275000D01*
X89559776Y-87351537D01*
X89516421Y-87416421D01*
X89451537Y-87459776D01*
X89375000Y-87475000D01*
X88975000Y-87475000D01*
X88898463Y-87459776D01*
X88833579Y-87416421D01*
X88790224Y-87351537D01*
X88775000Y-87275000D01*
X88775000Y-86725000D01*
X88790224Y-86648463D01*
X88833579Y-86583579D01*
X88898463Y-86540224D01*
X88975000Y-86525000D01*
X89375000Y-86525000D01*
X89451537Y-86540224D01*
G37*
G36*
X91101537Y-86540224D02*
G01*
X91166421Y-86583579D01*
X91209776Y-86648463D01*
X91225000Y-86725000D01*
X91225000Y-87275000D01*
X91209776Y-87351537D01*
X91166421Y-87416421D01*
X91101537Y-87459776D01*
X91025000Y-87475000D01*
X90625000Y-87475000D01*
X90548463Y-87459776D01*
X90483579Y-87416421D01*
X90440224Y-87351537D01*
X90425000Y-87275000D01*
X90425000Y-86725000D01*
X90440224Y-86648463D01*
X90483579Y-86583579D01*
X90548463Y-86540224D01*
X90625000Y-86525000D01*
X91025000Y-86525000D01*
X91101537Y-86540224D01*
G37*
G36*
X101451537Y-86540224D02*
G01*
X101516421Y-86583579D01*
X101559776Y-86648463D01*
X101575000Y-86725000D01*
X101575000Y-87275000D01*
X101559776Y-87351537D01*
X101516421Y-87416421D01*
X101451537Y-87459776D01*
X101375000Y-87475000D01*
X100975000Y-87475000D01*
X100898463Y-87459776D01*
X100833579Y-87416421D01*
X100790224Y-87351537D01*
X100775000Y-87275000D01*
X100775000Y-86725000D01*
X100790224Y-86648463D01*
X100833579Y-86583579D01*
X100898463Y-86540224D01*
X100975000Y-86525000D01*
X101375000Y-86525000D01*
X101451537Y-86540224D01*
G37*
G36*
X103101537Y-86540224D02*
G01*
X103166421Y-86583579D01*
X103209776Y-86648463D01*
X103225000Y-86725000D01*
X103225000Y-87275000D01*
X103209776Y-87351537D01*
X103166421Y-87416421D01*
X103101537Y-87459776D01*
X103025000Y-87475000D01*
X102625000Y-87475000D01*
X102548463Y-87459776D01*
X102483579Y-87416421D01*
X102440224Y-87351537D01*
X102425000Y-87275000D01*
X102425000Y-86725000D01*
X102440224Y-86648463D01*
X102483579Y-86583579D01*
X102548463Y-86540224D01*
X102625000Y-86525000D01*
X103025000Y-86525000D01*
X103101537Y-86540224D01*
G37*
G36*
X119451537Y-86540224D02*
G01*
X119516421Y-86583579D01*
X119559776Y-86648463D01*
X119575000Y-86725000D01*
X119575000Y-87275000D01*
X119559776Y-87351537D01*
X119516421Y-87416421D01*
X119451537Y-87459776D01*
X119375000Y-87475000D01*
X118975000Y-87475000D01*
X118898463Y-87459776D01*
X118833579Y-87416421D01*
X118790224Y-87351537D01*
X118775000Y-87275000D01*
X118775000Y-86725000D01*
X118790224Y-86648463D01*
X118833579Y-86583579D01*
X118898463Y-86540224D01*
X118975000Y-86525000D01*
X119375000Y-86525000D01*
X119451537Y-86540224D01*
G37*
G36*
X121101537Y-86540224D02*
G01*
X121166421Y-86583579D01*
X121209776Y-86648463D01*
X121225000Y-86725000D01*
X121225000Y-87275000D01*
X121209776Y-87351537D01*
X121166421Y-87416421D01*
X121101537Y-87459776D01*
X121025000Y-87475000D01*
X120625000Y-87475000D01*
X120548463Y-87459776D01*
X120483579Y-87416421D01*
X120440224Y-87351537D01*
X120425000Y-87275000D01*
X120425000Y-86725000D01*
X120440224Y-86648463D01*
X120483579Y-86583579D01*
X120548463Y-86540224D01*
X120625000Y-86525000D01*
X121025000Y-86525000D01*
X121101537Y-86540224D01*
G37*
G36*
X137451537Y-86540224D02*
G01*
X137516421Y-86583579D01*
X137559776Y-86648463D01*
X137575000Y-86725000D01*
X137575000Y-87275000D01*
X137559776Y-87351537D01*
X137516421Y-87416421D01*
X137451537Y-87459776D01*
X137375000Y-87475000D01*
X136975000Y-87475000D01*
X136898463Y-87459776D01*
X136833579Y-87416421D01*
X136790224Y-87351537D01*
X136775000Y-87275000D01*
X136775000Y-86725000D01*
X136790224Y-86648463D01*
X136833579Y-86583579D01*
X136898463Y-86540224D01*
X136975000Y-86525000D01*
X137375000Y-86525000D01*
X137451537Y-86540224D01*
G37*
G36*
X139101537Y-86540224D02*
G01*
X139166421Y-86583579D01*
X139209776Y-86648463D01*
X139225000Y-86725000D01*
X139225000Y-87275000D01*
X139209776Y-87351537D01*
X139166421Y-87416421D01*
X139101537Y-87459776D01*
X139025000Y-87475000D01*
X138625000Y-87475000D01*
X138548463Y-87459776D01*
X138483579Y-87416421D01*
X138440224Y-87351537D01*
X138425000Y-87275000D01*
X138425000Y-86725000D01*
X138440224Y-86648463D01*
X138483579Y-86583579D01*
X138548463Y-86540224D01*
X138625000Y-86525000D01*
X139025000Y-86525000D01*
X139101537Y-86540224D01*
G37*
G36*
X93536104Y-81542127D02*
G01*
X93609099Y-81590901D01*
X93657873Y-81663896D01*
X93675000Y-81750000D01*
X93675000Y-82250000D01*
X93657873Y-82336104D01*
X93609099Y-82409099D01*
X93536104Y-82457873D01*
X93450000Y-82475000D01*
X93000000Y-82475000D01*
X92913896Y-82457873D01*
X92840901Y-82409099D01*
X92792127Y-82336104D01*
X92775000Y-82250000D01*
X92775000Y-81750000D01*
X92792127Y-81663896D01*
X92840901Y-81590901D01*
X92913896Y-81542127D01*
X93000000Y-81525000D01*
X93450000Y-81525000D01*
X93536104Y-81542127D01*
G37*
G36*
X95086104Y-81542127D02*
G01*
X95159099Y-81590901D01*
X95207873Y-81663896D01*
X95225000Y-81750000D01*
X95225000Y-82250000D01*
X95207873Y-82336104D01*
X95159099Y-82409099D01*
X95086104Y-82457873D01*
X95000000Y-82475000D01*
X94550000Y-82475000D01*
X94463896Y-82457873D01*
X94390901Y-82409099D01*
X94342127Y-82336104D01*
X94325000Y-82250000D01*
X94325000Y-81750000D01*
X94342127Y-81663896D01*
X94390901Y-81590901D01*
X94463896Y-81542127D01*
X94550000Y-81525000D01*
X95000000Y-81525000D01*
X95086104Y-81542127D01*
G37*
G36*
X67268462Y-79261775D02*
G01*
X67440086Y-79317539D01*
X67600873Y-79399464D01*
X67746865Y-79505533D01*
X67874467Y-79633135D01*
X67980536Y-79779127D01*
X68062461Y-79939914D01*
X68118225Y-80111538D01*
X68146455Y-80289772D01*
X68146455Y-80470228D01*
X68118225Y-80648462D01*
X68062461Y-80820086D01*
X67980536Y-80980873D01*
X67874467Y-81126865D01*
X67746865Y-81254467D01*
X67600873Y-81360536D01*
X67440086Y-81442461D01*
X67268462Y-81498225D01*
X67090228Y-81526455D01*
X66909772Y-81526455D01*
X66731538Y-81498225D01*
X66559914Y-81442461D01*
X66399127Y-81360536D01*
X66253135Y-81254467D01*
X66125533Y-81126865D01*
X66019464Y-80980873D01*
X65937539Y-80820086D01*
X65881775Y-80648462D01*
X65853545Y-80470228D01*
X65853545Y-80289772D01*
X65881775Y-80111538D01*
X65937539Y-79939914D01*
X66019464Y-79779127D01*
X66125533Y-79633135D01*
X66253135Y-79505533D01*
X66399127Y-79399464D01*
X66559914Y-79317539D01*
X66731538Y-79261775D01*
X66909772Y-79233545D01*
X67090228Y-79233545D01*
X67268462Y-79261775D01*
G37*
G36*
X82508462Y-79261775D02*
G01*
X82680086Y-79317539D01*
X82840873Y-79399464D01*
X82986865Y-79505533D01*
X83114467Y-79633135D01*
X83220536Y-79779127D01*
X83302461Y-79939914D01*
X83358225Y-80111538D01*
X83386455Y-80289772D01*
X83386455Y-80470228D01*
X83358225Y-80648462D01*
X83302461Y-80820086D01*
X83220536Y-80980873D01*
X83114467Y-81126865D01*
X82986865Y-81254467D01*
X82840873Y-81360536D01*
X82680086Y-81442461D01*
X82508462Y-81498225D01*
X82330228Y-81526455D01*
X82149772Y-81526455D01*
X81971538Y-81498225D01*
X81799914Y-81442461D01*
X81639127Y-81360536D01*
X81493135Y-81254467D01*
X81365533Y-81126865D01*
X81259464Y-80980873D01*
X81177539Y-80820086D01*
X81121775Y-80648462D01*
X81093545Y-80470228D01*
X81093545Y-80289772D01*
X81121775Y-80111538D01*
X81177539Y-79939914D01*
X81259464Y-79779127D01*
X81365533Y-79633135D01*
X81493135Y-79505533D01*
X81639127Y-79399464D01*
X81799914Y-79317539D01*
X81971538Y-79261775D01*
X82149772Y-79233545D01*
X82330228Y-79233545D01*
X82508462Y-79261775D01*
G37*
G36*
X107451537Y-77900224D02*
G01*
X107516421Y-77943579D01*
X107559776Y-78008463D01*
X107575000Y-78085000D01*
X107575000Y-78635000D01*
X107559776Y-78711537D01*
X107516421Y-78776421D01*
X107451537Y-78819776D01*
X107375000Y-78835000D01*
X106975000Y-78835000D01*
X106898463Y-78819776D01*
X106833579Y-78776421D01*
X106790224Y-78711537D01*
X106775000Y-78635000D01*
X106775000Y-78085000D01*
X106790224Y-78008463D01*
X106833579Y-77943579D01*
X106898463Y-77900224D01*
X106975000Y-77885000D01*
X107375000Y-77885000D01*
X107451537Y-77900224D01*
G37*
G36*
X109101537Y-77900224D02*
G01*
X109166421Y-77943579D01*
X109209776Y-78008463D01*
X109225000Y-78085000D01*
X109225000Y-78635000D01*
X109209776Y-78711537D01*
X109166421Y-78776421D01*
X109101537Y-78819776D01*
X109025000Y-78835000D01*
X108625000Y-78835000D01*
X108548463Y-78819776D01*
X108483579Y-78776421D01*
X108440224Y-78711537D01*
X108425000Y-78635000D01*
X108425000Y-78085000D01*
X108440224Y-78008463D01*
X108483579Y-77943579D01*
X108548463Y-77900224D01*
X108625000Y-77885000D01*
X109025000Y-77885000D01*
X109101537Y-77900224D01*
G37*
G36*
X95451537Y-77170224D02*
G01*
X95516421Y-77213579D01*
X95559776Y-77278463D01*
X95575000Y-77355000D01*
X95575000Y-77905000D01*
X95559776Y-77981537D01*
X95516421Y-78046421D01*
X95451537Y-78089776D01*
X95375000Y-78105000D01*
X94975000Y-78105000D01*
X94898463Y-78089776D01*
X94833579Y-78046421D01*
X94790224Y-77981537D01*
X94775000Y-77905000D01*
X94775000Y-77355000D01*
X94790224Y-77278463D01*
X94833579Y-77213579D01*
X94898463Y-77170224D01*
X94975000Y-77155000D01*
X95375000Y-77155000D01*
X95451537Y-77170224D01*
G37*
G36*
X97101537Y-77170224D02*
G01*
X97166421Y-77213579D01*
X97209776Y-77278463D01*
X97225000Y-77355000D01*
X97225000Y-77905000D01*
X97209776Y-77981537D01*
X97166421Y-78046421D01*
X97101537Y-78089776D01*
X97025000Y-78105000D01*
X96625000Y-78105000D01*
X96548463Y-78089776D01*
X96483579Y-78046421D01*
X96440224Y-77981537D01*
X96425000Y-77905000D01*
X96425000Y-77355000D01*
X96440224Y-77278463D01*
X96483579Y-77213579D01*
X96548463Y-77170224D01*
X96625000Y-77155000D01*
X97025000Y-77155000D01*
X97101537Y-77170224D01*
G37*
G36*
X121451537Y-76630224D02*
G01*
X121516421Y-76673579D01*
X121559776Y-76738463D01*
X121575000Y-76815000D01*
X121575000Y-77365000D01*
X121559776Y-77441537D01*
X121516421Y-77506421D01*
X121451537Y-77549776D01*
X121375000Y-77565000D01*
X120975000Y-77565000D01*
X120898463Y-77549776D01*
X120833579Y-77506421D01*
X120790224Y-77441537D01*
X120775000Y-77365000D01*
X120775000Y-76815000D01*
X120790224Y-76738463D01*
X120833579Y-76673579D01*
X120898463Y-76630224D01*
X120975000Y-76615000D01*
X121375000Y-76615000D01*
X121451537Y-76630224D01*
G37*
G36*
X123101537Y-76630224D02*
G01*
X123166421Y-76673579D01*
X123209776Y-76738463D01*
X123225000Y-76815000D01*
X123225000Y-77365000D01*
X123209776Y-77441537D01*
X123166421Y-77506421D01*
X123101537Y-77549776D01*
X123025000Y-77565000D01*
X122625000Y-77565000D01*
X122548463Y-77549776D01*
X122483579Y-77506421D01*
X122440224Y-77441537D01*
X122425000Y-77365000D01*
X122425000Y-76815000D01*
X122440224Y-76738463D01*
X122483579Y-76673579D01*
X122548463Y-76630224D01*
X122625000Y-76615000D01*
X123025000Y-76615000D01*
X123101537Y-76630224D01*
G37*
G36*
X26150000Y-77150000D02*
G01*
X23850000Y-77150000D01*
X23850000Y-74850000D01*
X26150000Y-74850000D01*
X26150000Y-77150000D01*
G37*
G36*
X35428462Y-74881775D02*
G01*
X35600086Y-74937539D01*
X35760873Y-75019464D01*
X35906865Y-75125533D01*
X36034467Y-75253135D01*
X36140536Y-75399127D01*
X36222461Y-75559914D01*
X36278225Y-75731538D01*
X36306455Y-75909772D01*
X36306455Y-76090228D01*
X36278225Y-76268462D01*
X36222461Y-76440086D01*
X36140536Y-76600873D01*
X36034467Y-76746865D01*
X35906865Y-76874467D01*
X35760873Y-76980536D01*
X35600086Y-77062461D01*
X35428462Y-77118225D01*
X35250228Y-77146455D01*
X35069772Y-77146455D01*
X34891538Y-77118225D01*
X34719914Y-77062461D01*
X34559127Y-76980536D01*
X34413135Y-76874467D01*
X34285533Y-76746865D01*
X34179464Y-76600873D01*
X34097539Y-76440086D01*
X34041775Y-76268462D01*
X34013545Y-76090228D01*
X34013545Y-75909772D01*
X34041775Y-75731538D01*
X34097539Y-75559914D01*
X34179464Y-75399127D01*
X34285533Y-75253135D01*
X34413135Y-75125533D01*
X34559127Y-75019464D01*
X34719914Y-74937539D01*
X34891538Y-74881775D01*
X35069772Y-74853545D01*
X35250228Y-74853545D01*
X35428462Y-74881775D01*
G37*
G36*
X43048462Y-74881775D02*
G01*
X43220086Y-74937539D01*
X43380873Y-75019464D01*
X43526865Y-75125533D01*
X43654467Y-75253135D01*
X43760536Y-75399127D01*
X43842461Y-75559914D01*
X43898225Y-75731538D01*
X43926455Y-75909772D01*
X43926455Y-76090228D01*
X43898225Y-76268462D01*
X43842461Y-76440086D01*
X43760536Y-76600873D01*
X43654467Y-76746865D01*
X43526865Y-76874467D01*
X43380873Y-76980536D01*
X43220086Y-77062461D01*
X43048462Y-77118225D01*
X42870228Y-77146455D01*
X42689772Y-77146455D01*
X42511538Y-77118225D01*
X42339914Y-77062461D01*
X42179127Y-76980536D01*
X42033135Y-76874467D01*
X41905533Y-76746865D01*
X41799464Y-76600873D01*
X41717539Y-76440086D01*
X41661775Y-76268462D01*
X41633545Y-76090228D01*
X41633545Y-75909772D01*
X41661775Y-75731538D01*
X41717539Y-75559914D01*
X41799464Y-75399127D01*
X41905533Y-75253135D01*
X42033135Y-75125533D01*
X42179127Y-75019464D01*
X42339914Y-74937539D01*
X42511538Y-74881775D01*
X42689772Y-74853545D01*
X42870228Y-74853545D01*
X43048462Y-74881775D01*
G37*
G36*
X87465000Y-75250000D02*
G01*
X86565000Y-75250000D01*
X86565000Y-73750000D01*
X87465000Y-73750000D01*
X87465000Y-75250000D01*
G37*
G36*
X88735000Y-75250000D02*
G01*
X87835000Y-75250000D01*
X87835000Y-73750000D01*
X88735000Y-73750000D01*
X88735000Y-75250000D01*
G37*
G36*
X90005000Y-75250000D02*
G01*
X89105000Y-75250000D01*
X89105000Y-73750000D01*
X90005000Y-73750000D01*
X90005000Y-75250000D01*
G37*
G36*
X91275000Y-75250000D02*
G01*
X90375000Y-75250000D01*
X90375000Y-73750000D01*
X91275000Y-73750000D01*
X91275000Y-75250000D01*
G37*
G36*
X92545000Y-75250000D02*
G01*
X91645000Y-75250000D01*
X91645000Y-73750000D01*
X92545000Y-73750000D01*
X92545000Y-75250000D01*
G37*
G36*
X93815000Y-75250000D02*
G01*
X92915000Y-75250000D01*
X92915000Y-73750000D01*
X93815000Y-73750000D01*
X93815000Y-75250000D01*
G37*
G36*
X95085000Y-75250000D02*
G01*
X94185000Y-75250000D01*
X94185000Y-73750000D01*
X95085000Y-73750000D01*
X95085000Y-75250000D01*
G37*
G36*
X96355000Y-75250000D02*
G01*
X95455000Y-75250000D01*
X95455000Y-73750000D01*
X96355000Y-73750000D01*
X96355000Y-75250000D01*
G37*
G36*
X97625000Y-75250000D02*
G01*
X96725000Y-75250000D01*
X96725000Y-73750000D01*
X97625000Y-73750000D01*
X97625000Y-75250000D01*
G37*
G36*
X98895000Y-75250000D02*
G01*
X97995000Y-75250000D01*
X97995000Y-73750000D01*
X98895000Y-73750000D01*
X98895000Y-75250000D01*
G37*
G36*
X100165000Y-75250000D02*
G01*
X99265000Y-75250000D01*
X99265000Y-73750000D01*
X100165000Y-73750000D01*
X100165000Y-75250000D01*
G37*
G36*
X101435000Y-75250000D02*
G01*
X100535000Y-75250000D01*
X100535000Y-73750000D01*
X101435000Y-73750000D01*
X101435000Y-75250000D01*
G37*
G36*
X86000000Y-73700000D02*
G01*
X84500000Y-73700000D01*
X84500000Y-72800000D01*
X86000000Y-72800000D01*
X86000000Y-73700000D01*
G37*
G36*
X103500000Y-73700000D02*
G01*
X102000000Y-73700000D01*
X102000000Y-72800000D01*
X103500000Y-72800000D01*
X103500000Y-73700000D01*
G37*
G36*
X86000000Y-72430000D02*
G01*
X84500000Y-72430000D01*
X84500000Y-71530000D01*
X86000000Y-71530000D01*
X86000000Y-72430000D01*
G37*
G36*
X103500000Y-72430000D02*
G01*
X102000000Y-72430000D01*
X102000000Y-71530000D01*
X103500000Y-71530000D01*
X103500000Y-72430000D01*
G37*
G36*
X86000000Y-71160000D02*
G01*
X84500000Y-71160000D01*
X84500000Y-70260000D01*
X86000000Y-70260000D01*
X86000000Y-71160000D01*
G37*
G36*
X103500000Y-71160000D02*
G01*
X102000000Y-71160000D01*
X102000000Y-70260000D01*
X103500000Y-70260000D01*
X103500000Y-71160000D01*
G37*
G36*
X86000000Y-69890000D02*
G01*
X84500000Y-69890000D01*
X84500000Y-68990000D01*
X86000000Y-68990000D01*
X86000000Y-69890000D01*
G37*
G36*
X103500000Y-69890000D02*
G01*
X102000000Y-69890000D01*
X102000000Y-68990000D01*
X103500000Y-68990000D01*
X103500000Y-69890000D01*
G37*
G36*
X25268462Y-67261775D02*
G01*
X25440086Y-67317539D01*
X25600873Y-67399464D01*
X25746865Y-67505533D01*
X25874467Y-67633135D01*
X25980536Y-67779127D01*
X26062461Y-67939914D01*
X26118225Y-68111538D01*
X26146455Y-68289772D01*
X26146455Y-68470228D01*
X26118225Y-68648462D01*
X26062461Y-68820086D01*
X25980536Y-68980873D01*
X25874467Y-69126865D01*
X25746865Y-69254467D01*
X25600873Y-69360536D01*
X25440086Y-69442461D01*
X25268462Y-69498225D01*
X25090228Y-69526455D01*
X24909772Y-69526455D01*
X24731538Y-69498225D01*
X24559914Y-69442461D01*
X24399127Y-69360536D01*
X24253135Y-69254467D01*
X24125533Y-69126865D01*
X24019464Y-68980873D01*
X23937539Y-68820086D01*
X23881775Y-68648462D01*
X23853545Y-68470228D01*
X23853545Y-68289772D01*
X23881775Y-68111538D01*
X23937539Y-67939914D01*
X24019464Y-67779127D01*
X24125533Y-67633135D01*
X24253135Y-67505533D01*
X24399127Y-67399464D01*
X24559914Y-67317539D01*
X24731538Y-67261775D01*
X24909772Y-67233545D01*
X25090228Y-67233545D01*
X25268462Y-67261775D01*
G37*
G36*
X40508462Y-67261775D02*
G01*
X40680086Y-67317539D01*
X40840873Y-67399464D01*
X40986865Y-67505533D01*
X41114467Y-67633135D01*
X41220536Y-67779127D01*
X41302461Y-67939914D01*
X41358225Y-68111538D01*
X41386455Y-68289772D01*
X41386455Y-68470228D01*
X41358225Y-68648462D01*
X41302461Y-68820086D01*
X41220536Y-68980873D01*
X41114467Y-69126865D01*
X40986865Y-69254467D01*
X40840873Y-69360536D01*
X40680086Y-69442461D01*
X40508462Y-69498225D01*
X40330228Y-69526455D01*
X40149772Y-69526455D01*
X39971538Y-69498225D01*
X39799914Y-69442461D01*
X39639127Y-69360536D01*
X39493135Y-69254467D01*
X39365533Y-69126865D01*
X39259464Y-68980873D01*
X39177539Y-68820086D01*
X39121775Y-68648462D01*
X39093545Y-68470228D01*
X39093545Y-68289772D01*
X39121775Y-68111538D01*
X39177539Y-67939914D01*
X39259464Y-67779127D01*
X39365533Y-67633135D01*
X39493135Y-67505533D01*
X39639127Y-67399464D01*
X39799914Y-67317539D01*
X39971538Y-67261775D01*
X40149772Y-67233545D01*
X40330228Y-67233545D01*
X40508462Y-67261775D01*
G37*
G36*
X86000000Y-68620000D02*
G01*
X84500000Y-68620000D01*
X84500000Y-67720000D01*
X86000000Y-67720000D01*
X86000000Y-68620000D01*
G37*
G36*
X103500000Y-68620000D02*
G01*
X102000000Y-68620000D01*
X102000000Y-67720000D01*
X103500000Y-67720000D01*
X103500000Y-68620000D01*
G37*
G36*
X86000000Y-67350000D02*
G01*
X84500000Y-67350000D01*
X84500000Y-66450000D01*
X86000000Y-66450000D01*
X86000000Y-67350000D01*
G37*
G36*
X103500000Y-67350000D02*
G01*
X102000000Y-67350000D01*
X102000000Y-66450000D01*
X103500000Y-66450000D01*
X103500000Y-67350000D01*
G37*
G36*
X94450000Y-66410000D02*
G01*
X90550000Y-66410000D01*
X90550000Y-62510000D01*
X94450000Y-62510000D01*
X94450000Y-66410000D01*
G37*
G36*
X86000000Y-66080000D02*
G01*
X84500000Y-66080000D01*
X84500000Y-65180000D01*
X86000000Y-65180000D01*
X86000000Y-66080000D01*
G37*
G36*
X103500000Y-66080000D02*
G01*
X102000000Y-66080000D01*
X102000000Y-65180000D01*
X103500000Y-65180000D01*
X103500000Y-66080000D01*
G37*
G36*
X86000000Y-64810000D02*
G01*
X84500000Y-64810000D01*
X84500000Y-63910000D01*
X86000000Y-63910000D01*
X86000000Y-64810000D01*
G37*
G36*
X103500000Y-64810000D02*
G01*
X102000000Y-64810000D01*
X102000000Y-63910000D01*
X103500000Y-63910000D01*
X103500000Y-64810000D01*
G37*
G36*
X86000000Y-63540000D02*
G01*
X84500000Y-63540000D01*
X84500000Y-62640000D01*
X86000000Y-62640000D01*
X86000000Y-63540000D01*
G37*
G36*
X103500000Y-63540000D02*
G01*
X102000000Y-63540000D01*
X102000000Y-62640000D01*
X103500000Y-62640000D01*
X103500000Y-63540000D01*
G37*
G36*
X121451537Y-61360224D02*
G01*
X121516421Y-61403579D01*
X121559776Y-61468463D01*
X121575000Y-61545000D01*
X121575000Y-62095000D01*
X121559776Y-62171537D01*
X121516421Y-62236421D01*
X121451537Y-62279776D01*
X121375000Y-62295000D01*
X120975000Y-62295000D01*
X120898463Y-62279776D01*
X120833579Y-62236421D01*
X120790224Y-62171537D01*
X120775000Y-62095000D01*
X120775000Y-61545000D01*
X120790224Y-61468463D01*
X120833579Y-61403579D01*
X120898463Y-61360224D01*
X120975000Y-61345000D01*
X121375000Y-61345000D01*
X121451537Y-61360224D01*
G37*
G36*
X123101537Y-61360224D02*
G01*
X123166421Y-61403579D01*
X123209776Y-61468463D01*
X123225000Y-61545000D01*
X123225000Y-62095000D01*
X123209776Y-62171537D01*
X123166421Y-62236421D01*
X123101537Y-62279776D01*
X123025000Y-62295000D01*
X122625000Y-62295000D01*
X122548463Y-62279776D01*
X122483579Y-62236421D01*
X122440224Y-62171537D01*
X122425000Y-62095000D01*
X122425000Y-61545000D01*
X122440224Y-61468463D01*
X122483579Y-61403579D01*
X122548463Y-61360224D01*
X122625000Y-61345000D01*
X123025000Y-61345000D01*
X123101537Y-61360224D01*
G37*
G36*
X86000000Y-62270000D02*
G01*
X84500000Y-62270000D01*
X84500000Y-61370000D01*
X86000000Y-61370000D01*
X86000000Y-62270000D01*
G37*
G36*
X103500000Y-62270000D02*
G01*
X102000000Y-62270000D01*
X102000000Y-61370000D01*
X103500000Y-61370000D01*
X103500000Y-62270000D01*
G37*
G36*
X86000000Y-61000000D02*
G01*
X84500000Y-61000000D01*
X84500000Y-60100000D01*
X86000000Y-60100000D01*
X86000000Y-61000000D01*
G37*
G36*
X103500000Y-61000000D02*
G01*
X102000000Y-61000000D01*
X102000000Y-60100000D01*
X103500000Y-60100000D01*
X103500000Y-61000000D01*
G37*
G36*
X86000000Y-59730000D02*
G01*
X84500000Y-59730000D01*
X84500000Y-58830000D01*
X86000000Y-58830000D01*
X86000000Y-59730000D01*
G37*
G36*
X103500000Y-59730000D02*
G01*
X102000000Y-59730000D01*
X102000000Y-58830000D01*
X103500000Y-58830000D01*
X103500000Y-59730000D01*
G37*
G36*
X86000000Y-58460000D02*
G01*
X84500000Y-58460000D01*
X84500000Y-57560000D01*
X86000000Y-57560000D01*
X86000000Y-58460000D01*
G37*
G36*
X103500000Y-58460000D02*
G01*
X102000000Y-58460000D01*
X102000000Y-57560000D01*
X103500000Y-57560000D01*
X103500000Y-58460000D01*
G37*
G36*
X86000000Y-57190000D02*
G01*
X84500000Y-57190000D01*
X84500000Y-56290000D01*
X86000000Y-56290000D01*
X86000000Y-57190000D01*
G37*
G36*
X103500000Y-57190000D02*
G01*
X102000000Y-57190000D01*
X102000000Y-56290000D01*
X103500000Y-56290000D01*
X103500000Y-57190000D01*
G37*
G36*
X125536104Y-47542127D02*
G01*
X125609099Y-47590901D01*
X125657873Y-47663896D01*
X125675000Y-47750000D01*
X125675000Y-48250000D01*
X125657873Y-48336104D01*
X125609099Y-48409099D01*
X125536104Y-48457873D01*
X125450000Y-48475000D01*
X125000000Y-48475000D01*
X124913896Y-48457873D01*
X124840901Y-48409099D01*
X124792127Y-48336104D01*
X124775000Y-48250000D01*
X124775000Y-47750000D01*
X124792127Y-47663896D01*
X124840901Y-47590901D01*
X124913896Y-47542127D01*
X125000000Y-47525000D01*
X125450000Y-47525000D01*
X125536104Y-47542127D01*
G37*
G36*
X127086104Y-47542127D02*
G01*
X127159099Y-47590901D01*
X127207873Y-47663896D01*
X127225000Y-47750000D01*
X127225000Y-48250000D01*
X127207873Y-48336104D01*
X127159099Y-48409099D01*
X127086104Y-48457873D01*
X127000000Y-48475000D01*
X126550000Y-48475000D01*
X126463896Y-48457873D01*
X126390901Y-48409099D01*
X126342127Y-48336104D01*
X126325000Y-48250000D01*
X126325000Y-47750000D01*
X126342127Y-47663896D01*
X126390901Y-47590901D01*
X126463896Y-47542127D01*
X126550000Y-47525000D01*
X127000000Y-47525000D01*
X127086104Y-47542127D01*
G37*
G36*
X121536104Y-43542127D02*
G01*
X121609099Y-43590901D01*
X121657873Y-43663896D01*
X121675000Y-43750000D01*
X121675000Y-44250000D01*
X121657873Y-44336104D01*
X121609099Y-44409099D01*
X121536104Y-44457873D01*
X121450000Y-44475000D01*
X121000000Y-44475000D01*
X120913896Y-44457873D01*
X120840901Y-44409099D01*
X120792127Y-44336104D01*
X120775000Y-44250000D01*
X120775000Y-43750000D01*
X120792127Y-43663896D01*
X120840901Y-43590901D01*
X120913896Y-43542127D01*
X121000000Y-43525000D01*
X121450000Y-43525000D01*
X121536104Y-43542127D01*
G37*
G36*
X123086104Y-43542127D02*
G01*
X123159099Y-43590901D01*
X123207873Y-43663896D01*
X123225000Y-43750000D01*
X123225000Y-44250000D01*
X123207873Y-44336104D01*
X123159099Y-44409099D01*
X123086104Y-44457873D01*
X123000000Y-44475000D01*
X122550000Y-44475000D01*
X122463896Y-44457873D01*
X122390901Y-44409099D01*
X122342127Y-44336104D01*
X122325000Y-44250000D01*
X122325000Y-43750000D01*
X122342127Y-43663896D01*
X122390901Y-43590901D01*
X122463896Y-43542127D01*
X122550000Y-43525000D01*
X123000000Y-43525000D01*
X123086104Y-43542127D01*
G37*
G36*
X127536104Y-43542127D02*
G01*
X127609099Y-43590901D01*
X127657873Y-43663896D01*
X127675000Y-43750000D01*
X127675000Y-44250000D01*
X127657873Y-44336104D01*
X127609099Y-44409099D01*
X127536104Y-44457873D01*
X127450000Y-44475000D01*
X127000000Y-44475000D01*
X126913896Y-44457873D01*
X126840901Y-44409099D01*
X126792127Y-44336104D01*
X126775000Y-44250000D01*
X126775000Y-43750000D01*
X126792127Y-43663896D01*
X126840901Y-43590901D01*
X126913896Y-43542127D01*
X127000000Y-43525000D01*
X127450000Y-43525000D01*
X127536104Y-43542127D01*
G37*
G36*
X129086104Y-43542127D02*
G01*
X129159099Y-43590901D01*
X129207873Y-43663896D01*
X129225000Y-43750000D01*
X129225000Y-44250000D01*
X129207873Y-44336104D01*
X129159099Y-44409099D01*
X129086104Y-44457873D01*
X129000000Y-44475000D01*
X128550000Y-44475000D01*
X128463896Y-44457873D01*
X128390901Y-44409099D01*
X128342127Y-44336104D01*
X128325000Y-44250000D01*
X128325000Y-43750000D01*
X128342127Y-43663896D01*
X128390901Y-43590901D01*
X128463896Y-43542127D01*
X128550000Y-43525000D01*
X129000000Y-43525000D01*
X129086104Y-43542127D01*
G37*
G36*
X39761256Y-40138754D02*
G01*
X39924257Y-40206271D01*
X40070954Y-40304291D01*
X40195709Y-40429046D01*
X40293729Y-40575743D01*
X40361246Y-40738744D01*
X40395666Y-40911785D01*
X40395666Y-41088215D01*
X40361246Y-41261256D01*
X40293729Y-41424257D01*
X40195709Y-41570954D01*
X40070954Y-41695709D01*
X39924257Y-41793729D01*
X39761256Y-41861246D01*
X39588215Y-41895666D01*
X39411785Y-41895666D01*
X39238744Y-41861246D01*
X39075743Y-41793729D01*
X38929046Y-41695709D01*
X38804291Y-41570954D01*
X38706271Y-41424257D01*
X38638754Y-41261256D01*
X38604334Y-41088215D01*
X38604334Y-40911785D01*
X38638754Y-40738744D01*
X38706271Y-40575743D01*
X38804291Y-40429046D01*
X38929046Y-40304291D01*
X39075743Y-40206271D01*
X39238744Y-40138754D01*
X39411785Y-40104334D01*
X39588215Y-40104334D01*
X39761256Y-40138754D01*
G37*
G36*
X121620985Y-40481661D02*
G01*
X121649372Y-40500628D01*
X121668339Y-40529015D01*
X121675000Y-40562500D01*
X121675000Y-40737500D01*
X121668339Y-40770985D01*
X121649372Y-40799372D01*
X121620985Y-40818339D01*
X121587500Y-40825000D01*
X120737500Y-40825000D01*
X120704015Y-40818339D01*
X120675628Y-40799372D01*
X120656661Y-40770985D01*
X120650000Y-40737500D01*
X120650000Y-40562500D01*
X120656661Y-40529015D01*
X120675628Y-40500628D01*
X120704015Y-40481661D01*
X120737500Y-40475000D01*
X121587500Y-40475000D01*
X121620985Y-40481661D01*
G37*
G36*
X123295985Y-40481661D02*
G01*
X123324372Y-40500628D01*
X123343339Y-40529015D01*
X123350000Y-40562500D01*
X123350000Y-40737500D01*
X123343339Y-40770985D01*
X123324372Y-40799372D01*
X123295985Y-40818339D01*
X123262500Y-40825000D01*
X122412500Y-40825000D01*
X122379015Y-40818339D01*
X122350628Y-40799372D01*
X122331661Y-40770985D01*
X122325000Y-40737500D01*
X122325000Y-40562500D01*
X122331661Y-40529015D01*
X122350628Y-40500628D01*
X122379015Y-40481661D01*
X122412500Y-40475000D01*
X123262500Y-40475000D01*
X123295985Y-40481661D01*
G37*
G36*
X127620985Y-40481661D02*
G01*
X127649372Y-40500628D01*
X127668339Y-40529015D01*
X127675000Y-40562500D01*
X127675000Y-40737500D01*
X127668339Y-40770985D01*
X127649372Y-40799372D01*
X127620985Y-40818339D01*
X127587500Y-40825000D01*
X126737500Y-40825000D01*
X126704015Y-40818339D01*
X126675628Y-40799372D01*
X126656661Y-40770985D01*
X126650000Y-40737500D01*
X126650000Y-40562500D01*
X126656661Y-40529015D01*
X126675628Y-40500628D01*
X126704015Y-40481661D01*
X126737500Y-40475000D01*
X127587500Y-40475000D01*
X127620985Y-40481661D01*
G37*
G36*
X129295985Y-40481661D02*
G01*
X129324372Y-40500628D01*
X129343339Y-40529015D01*
X129350000Y-40562500D01*
X129350000Y-40737500D01*
X129343339Y-40770985D01*
X129324372Y-40799372D01*
X129295985Y-40818339D01*
X129262500Y-40825000D01*
X128412500Y-40825000D01*
X128379015Y-40818339D01*
X128350628Y-40799372D01*
X128331661Y-40770985D01*
X128325000Y-40737500D01*
X128325000Y-40562500D01*
X128331661Y-40529015D01*
X128350628Y-40500628D01*
X128379015Y-40481661D01*
X128412500Y-40475000D01*
X129262500Y-40475000D01*
X129295985Y-40481661D01*
G37*
G36*
X121620985Y-39831661D02*
G01*
X121649372Y-39850628D01*
X121668339Y-39879015D01*
X121675000Y-39912500D01*
X121675000Y-40087500D01*
X121668339Y-40120985D01*
X121649372Y-40149372D01*
X121620985Y-40168339D01*
X121587500Y-40175000D01*
X120737500Y-40175000D01*
X120704015Y-40168339D01*
X120675628Y-40149372D01*
X120656661Y-40120985D01*
X120650000Y-40087500D01*
X120650000Y-39912500D01*
X120656661Y-39879015D01*
X120675628Y-39850628D01*
X120704015Y-39831661D01*
X120737500Y-39825000D01*
X121587500Y-39825000D01*
X121620985Y-39831661D01*
G37*
G36*
X123295985Y-39831661D02*
G01*
X123324372Y-39850628D01*
X123343339Y-39879015D01*
X123350000Y-39912500D01*
X123350000Y-40087500D01*
X123343339Y-40120985D01*
X123324372Y-40149372D01*
X123295985Y-40168339D01*
X123262500Y-40175000D01*
X122412500Y-40175000D01*
X122379015Y-40168339D01*
X122350628Y-40149372D01*
X122331661Y-40120985D01*
X122325000Y-40087500D01*
X122325000Y-39912500D01*
X122331661Y-39879015D01*
X122350628Y-39850628D01*
X122379015Y-39831661D01*
X122412500Y-39825000D01*
X123262500Y-39825000D01*
X123295985Y-39831661D01*
G37*
G36*
X127620985Y-39831661D02*
G01*
X127649372Y-39850628D01*
X127668339Y-39879015D01*
X127675000Y-39912500D01*
X127675000Y-40087500D01*
X127668339Y-40120985D01*
X127649372Y-40149372D01*
X127620985Y-40168339D01*
X127587500Y-40175000D01*
X126737500Y-40175000D01*
X126704015Y-40168339D01*
X126675628Y-40149372D01*
X126656661Y-40120985D01*
X126650000Y-40087500D01*
X126650000Y-39912500D01*
X126656661Y-39879015D01*
X126675628Y-39850628D01*
X126704015Y-39831661D01*
X126737500Y-39825000D01*
X127587500Y-39825000D01*
X127620985Y-39831661D01*
G37*
G36*
X129295985Y-39831661D02*
G01*
X129324372Y-39850628D01*
X129343339Y-39879015D01*
X129350000Y-39912500D01*
X129350000Y-40087500D01*
X129343339Y-40120985D01*
X129324372Y-40149372D01*
X129295985Y-40168339D01*
X129262500Y-40175000D01*
X128412500Y-40175000D01*
X128379015Y-40168339D01*
X128350628Y-40149372D01*
X128331661Y-40120985D01*
X128325000Y-40087500D01*
X128325000Y-39912500D01*
X128331661Y-39879015D01*
X128350628Y-39850628D01*
X128379015Y-39831661D01*
X128412500Y-39825000D01*
X129262500Y-39825000D01*
X129295985Y-39831661D01*
G37*
G36*
X32261256Y-38138754D02*
G01*
X32424257Y-38206271D01*
X32570954Y-38304291D01*
X32695709Y-38429046D01*
X32793729Y-38575743D01*
X32861246Y-38738744D01*
X32895666Y-38911785D01*
X32895666Y-39088215D01*
X32861246Y-39261256D01*
X32793729Y-39424257D01*
X32695709Y-39570954D01*
X32570954Y-39695709D01*
X32424257Y-39793729D01*
X32261256Y-39861246D01*
X32088215Y-39895666D01*
X31911785Y-39895666D01*
X31738744Y-39861246D01*
X31575743Y-39793729D01*
X31429046Y-39695709D01*
X31304291Y-39570954D01*
X31206271Y-39424257D01*
X31138754Y-39261256D01*
X31104334Y-39088215D01*
X31104334Y-38911785D01*
X31138754Y-38738744D01*
X31206271Y-38575743D01*
X31304291Y-38429046D01*
X31429046Y-38304291D01*
X31575743Y-38206271D01*
X31738744Y-38138754D01*
X31911785Y-38104334D01*
X32088215Y-38104334D01*
X32261256Y-38138754D01*
G37*
G36*
X121620985Y-39181661D02*
G01*
X121649372Y-39200628D01*
X121668339Y-39229015D01*
X121675000Y-39262500D01*
X121675000Y-39437500D01*
X121668339Y-39470985D01*
X121649372Y-39499372D01*
X121620985Y-39518339D01*
X121587500Y-39525000D01*
X120737500Y-39525000D01*
X120704015Y-39518339D01*
X120675628Y-39499372D01*
X120656661Y-39470985D01*
X120650000Y-39437500D01*
X120650000Y-39262500D01*
X120656661Y-39229015D01*
X120675628Y-39200628D01*
X120704015Y-39181661D01*
X120737500Y-39175000D01*
X121587500Y-39175000D01*
X121620985Y-39181661D01*
G37*
G36*
X123295985Y-39181661D02*
G01*
X123324372Y-39200628D01*
X123343339Y-39229015D01*
X123350000Y-39262500D01*
X123350000Y-39437500D01*
X123343339Y-39470985D01*
X123324372Y-39499372D01*
X123295985Y-39518339D01*
X123262500Y-39525000D01*
X122412500Y-39525000D01*
X122379015Y-39518339D01*
X122350628Y-39499372D01*
X122331661Y-39470985D01*
X122325000Y-39437500D01*
X122325000Y-39262500D01*
X122331661Y-39229015D01*
X122350628Y-39200628D01*
X122379015Y-39181661D01*
X122412500Y-39175000D01*
X123262500Y-39175000D01*
X123295985Y-39181661D01*
G37*
G36*
X127620985Y-39181661D02*
G01*
X127649372Y-39200628D01*
X127668339Y-39229015D01*
X127675000Y-39262500D01*
X127675000Y-39437500D01*
X127668339Y-39470985D01*
X127649372Y-39499372D01*
X127620985Y-39518339D01*
X127587500Y-39525000D01*
X126737500Y-39525000D01*
X126704015Y-39518339D01*
X126675628Y-39499372D01*
X126656661Y-39470985D01*
X126650000Y-39437500D01*
X126650000Y-39262500D01*
X126656661Y-39229015D01*
X126675628Y-39200628D01*
X126704015Y-39181661D01*
X126737500Y-39175000D01*
X127587500Y-39175000D01*
X127620985Y-39181661D01*
G37*
G36*
X129295985Y-39181661D02*
G01*
X129324372Y-39200628D01*
X129343339Y-39229015D01*
X129350000Y-39262500D01*
X129350000Y-39437500D01*
X129343339Y-39470985D01*
X129324372Y-39499372D01*
X129295985Y-39518339D01*
X129262500Y-39525000D01*
X128412500Y-39525000D01*
X128379015Y-39518339D01*
X128350628Y-39499372D01*
X128331661Y-39470985D01*
X128325000Y-39437500D01*
X128325000Y-39262500D01*
X128331661Y-39229015D01*
X128350628Y-39200628D01*
X128379015Y-39181661D01*
X128412500Y-39175000D01*
X129262500Y-39175000D01*
X129295985Y-39181661D01*
G37*
G36*
X127536104Y-35542127D02*
G01*
X127609099Y-35590901D01*
X127657873Y-35663896D01*
X127675000Y-35750000D01*
X127675000Y-36250000D01*
X127657873Y-36336104D01*
X127609099Y-36409099D01*
X127536104Y-36457873D01*
X127450000Y-36475000D01*
X127000000Y-36475000D01*
X126913896Y-36457873D01*
X126840901Y-36409099D01*
X126792127Y-36336104D01*
X126775000Y-36250000D01*
X126775000Y-35750000D01*
X126792127Y-35663896D01*
X126840901Y-35590901D01*
X126913896Y-35542127D01*
X127000000Y-35525000D01*
X127450000Y-35525000D01*
X127536104Y-35542127D01*
G37*
G36*
X129086104Y-35542127D02*
G01*
X129159099Y-35590901D01*
X129207873Y-35663896D01*
X129225000Y-35750000D01*
X129225000Y-36250000D01*
X129207873Y-36336104D01*
X129159099Y-36409099D01*
X129086104Y-36457873D01*
X129000000Y-36475000D01*
X128550000Y-36475000D01*
X128463896Y-36457873D01*
X128390901Y-36409099D01*
X128342127Y-36336104D01*
X128325000Y-36250000D01*
X128325000Y-35750000D01*
X128342127Y-35663896D01*
X128390901Y-35590901D01*
X128463896Y-35542127D01*
X128550000Y-35525000D01*
X129000000Y-35525000D01*
X129086104Y-35542127D01*
G37*
G36*
X121536104Y-33542127D02*
G01*
X121609099Y-33590901D01*
X121657873Y-33663896D01*
X121675000Y-33750000D01*
X121675000Y-34250000D01*
X121657873Y-34336104D01*
X121609099Y-34409099D01*
X121536104Y-34457873D01*
X121450000Y-34475000D01*
X121000000Y-34475000D01*
X120913896Y-34457873D01*
X120840901Y-34409099D01*
X120792127Y-34336104D01*
X120775000Y-34250000D01*
X120775000Y-33750000D01*
X120792127Y-33663896D01*
X120840901Y-33590901D01*
X120913896Y-33542127D01*
X121000000Y-33525000D01*
X121450000Y-33525000D01*
X121536104Y-33542127D01*
G37*
G36*
X123086104Y-33542127D02*
G01*
X123159099Y-33590901D01*
X123207873Y-33663896D01*
X123225000Y-33750000D01*
X123225000Y-34250000D01*
X123207873Y-34336104D01*
X123159099Y-34409099D01*
X123086104Y-34457873D01*
X123000000Y-34475000D01*
X122550000Y-34475000D01*
X122463896Y-34457873D01*
X122390901Y-34409099D01*
X122342127Y-34336104D01*
X122325000Y-34250000D01*
X122325000Y-33750000D01*
X122342127Y-33663896D01*
X122390901Y-33590901D01*
X122463896Y-33542127D01*
X122550000Y-33525000D01*
X123000000Y-33525000D01*
X123086104Y-33542127D01*
G37*
G36*
X146536104Y-33542127D02*
G01*
X146609099Y-33590901D01*
X146657873Y-33663896D01*
X146675000Y-33750000D01*
X146675000Y-34250000D01*
X146657873Y-34336104D01*
X146609099Y-34409099D01*
X146536104Y-34457873D01*
X146450000Y-34475000D01*
X146000000Y-34475000D01*
X145913896Y-34457873D01*
X145840901Y-34409099D01*
X145792127Y-34336104D01*
X145775000Y-34250000D01*
X145775000Y-33750000D01*
X145792127Y-33663896D01*
X145840901Y-33590901D01*
X145913896Y-33542127D01*
X146000000Y-33525000D01*
X146450000Y-33525000D01*
X146536104Y-33542127D01*
G37*
G36*
X148086104Y-33542127D02*
G01*
X148159099Y-33590901D01*
X148207873Y-33663896D01*
X148225000Y-33750000D01*
X148225000Y-34250000D01*
X148207873Y-34336104D01*
X148159099Y-34409099D01*
X148086104Y-34457873D01*
X148000000Y-34475000D01*
X147550000Y-34475000D01*
X147463896Y-34457873D01*
X147390901Y-34409099D01*
X147342127Y-34336104D01*
X147325000Y-34250000D01*
X147325000Y-33750000D01*
X147342127Y-33663896D01*
X147390901Y-33590901D01*
X147463896Y-33542127D01*
X147550000Y-33525000D01*
X148000000Y-33525000D01*
X148086104Y-33542127D01*
G37*
G36*
X127450000Y-33000000D02*
G01*
X126550000Y-33000000D01*
X126550000Y-31800000D01*
X127450000Y-31800000D01*
X127450000Y-33000000D01*
G37*
G36*
X143450000Y-33000000D02*
G01*
X142550000Y-33000000D01*
X142550000Y-31800000D01*
X143450000Y-31800000D01*
X143450000Y-33000000D01*
G37*
G36*
X61846742Y-31036601D02*
G01*
X62000687Y-31100367D01*
X62139234Y-31192941D01*
X62257059Y-31310766D01*
X62349633Y-31449313D01*
X62413399Y-31603258D01*
X62445907Y-31766685D01*
X62450000Y-31850000D01*
X62450000Y-32150000D01*
X62445907Y-32233315D01*
X62413399Y-32396742D01*
X62349633Y-32550687D01*
X62257059Y-32689234D01*
X62139234Y-32807059D01*
X62000687Y-32899633D01*
X61846742Y-32963399D01*
X61683315Y-32995907D01*
X61516685Y-32995907D01*
X61353258Y-32963399D01*
X61199313Y-32899633D01*
X61060766Y-32807059D01*
X60942941Y-32689234D01*
X60850367Y-32550687D01*
X60786601Y-32396742D01*
X60754093Y-32233315D01*
X60750000Y-32150000D01*
X60750000Y-31850000D01*
X60754093Y-31766685D01*
X60786601Y-31603258D01*
X60850367Y-31449313D01*
X60942941Y-31310766D01*
X61060766Y-31192941D01*
X61199313Y-31100367D01*
X61353258Y-31036601D01*
X61516685Y-31004093D01*
X61683315Y-31004093D01*
X61846742Y-31036601D01*
G37*
G36*
X117336418Y-30929758D02*
G01*
X117356694Y-30943306D01*
X117370242Y-30963582D01*
X117375000Y-30987500D01*
X117375000Y-31537500D01*
X117370242Y-31561418D01*
X117356694Y-31581694D01*
X117336418Y-31595242D01*
X117312500Y-31600000D01*
X117187500Y-31600000D01*
X117163582Y-31595242D01*
X117143306Y-31581694D01*
X117129758Y-31561418D01*
X117125000Y-31537500D01*
X117125000Y-30987500D01*
X117129758Y-30963582D01*
X117143306Y-30943306D01*
X117163582Y-30929758D01*
X117187500Y-30925000D01*
X117312500Y-30925000D01*
X117336418Y-30929758D01*
G37*
G36*
X117836418Y-30929758D02*
G01*
X117856694Y-30943306D01*
X117870242Y-30963582D01*
X117875000Y-30987500D01*
X117875000Y-31537500D01*
X117870242Y-31561418D01*
X117856694Y-31581694D01*
X117836418Y-31595242D01*
X117812500Y-31600000D01*
X117687500Y-31600000D01*
X117663582Y-31595242D01*
X117643306Y-31581694D01*
X117629758Y-31561418D01*
X117625000Y-31537500D01*
X117625000Y-30987500D01*
X117629758Y-30963582D01*
X117643306Y-30943306D01*
X117663582Y-30929758D01*
X117687500Y-30925000D01*
X117812500Y-30925000D01*
X117836418Y-30929758D01*
G37*
G36*
X118336418Y-30929758D02*
G01*
X118356694Y-30943306D01*
X118370242Y-30963582D01*
X118375000Y-30987500D01*
X118375000Y-31537500D01*
X118370242Y-31561418D01*
X118356694Y-31581694D01*
X118336418Y-31595242D01*
X118312500Y-31600000D01*
X118187500Y-31600000D01*
X118163582Y-31595242D01*
X118143306Y-31581694D01*
X118129758Y-31561418D01*
X118125000Y-31537500D01*
X118125000Y-30987500D01*
X118129758Y-30963582D01*
X118143306Y-30943306D01*
X118163582Y-30929758D01*
X118187500Y-30925000D01*
X118312500Y-30925000D01*
X118336418Y-30929758D01*
G37*
G36*
X118836418Y-30929758D02*
G01*
X118856694Y-30943306D01*
X118870242Y-30963582D01*
X118875000Y-30987500D01*
X118875000Y-31537500D01*
X118870242Y-31561418D01*
X118856694Y-31581694D01*
X118836418Y-31595242D01*
X118812500Y-31600000D01*
X118687500Y-31600000D01*
X118663582Y-31595242D01*
X118643306Y-31581694D01*
X118629758Y-31561418D01*
X118625000Y-31537500D01*
X118625000Y-30987500D01*
X118629758Y-30963582D01*
X118643306Y-30943306D01*
X118663582Y-30929758D01*
X118687500Y-30925000D01*
X118812500Y-30925000D01*
X118836418Y-30929758D01*
G37*
G36*
X127450000Y-31400000D02*
G01*
X126550000Y-31400000D01*
X126550000Y-30200000D01*
X127450000Y-30200000D01*
X127450000Y-31400000D01*
G37*
G36*
X143450000Y-31400000D02*
G01*
X142550000Y-31400000D01*
X142550000Y-30200000D01*
X143450000Y-30200000D01*
X143450000Y-31400000D01*
G37*
G36*
X118725000Y-30725000D02*
G01*
X117275000Y-30725000D01*
X117275000Y-29275000D01*
X118725000Y-29275000D01*
X118725000Y-30725000D01*
G37*
G36*
X117036418Y-30379758D02*
G01*
X117056694Y-30393306D01*
X117070242Y-30413582D01*
X117075000Y-30437500D01*
X117075000Y-30562500D01*
X117070242Y-30586418D01*
X117056694Y-30606694D01*
X117036418Y-30620242D01*
X117012500Y-30625000D01*
X116462500Y-30625000D01*
X116438582Y-30620242D01*
X116418306Y-30606694D01*
X116404758Y-30586418D01*
X116400000Y-30562500D01*
X116400000Y-30437500D01*
X116404758Y-30413582D01*
X116418306Y-30393306D01*
X116438582Y-30379758D01*
X116462500Y-30375000D01*
X117012500Y-30375000D01*
X117036418Y-30379758D01*
G37*
G36*
X119561418Y-30379758D02*
G01*
X119581694Y-30393306D01*
X119595242Y-30413582D01*
X119600000Y-30437500D01*
X119600000Y-30562500D01*
X119595242Y-30586418D01*
X119581694Y-30606694D01*
X119561418Y-30620242D01*
X119537500Y-30625000D01*
X118987500Y-30625000D01*
X118963582Y-30620242D01*
X118943306Y-30606694D01*
X118929758Y-30586418D01*
X118925000Y-30562500D01*
X118925000Y-30437500D01*
X118929758Y-30413582D01*
X118943306Y-30393306D01*
X118963582Y-30379758D01*
X118987500Y-30375000D01*
X119537500Y-30375000D01*
X119561418Y-30379758D01*
G37*
G36*
X117036418Y-29879758D02*
G01*
X117056694Y-29893306D01*
X117070242Y-29913582D01*
X117075000Y-29937500D01*
X117075000Y-30062500D01*
X117070242Y-30086418D01*
X117056694Y-30106694D01*
X117036418Y-30120242D01*
X117012500Y-30125000D01*
X116462500Y-30125000D01*
X116438582Y-30120242D01*
X116418306Y-30106694D01*
X116404758Y-30086418D01*
X116400000Y-30062500D01*
X116400000Y-29937500D01*
X116404758Y-29913582D01*
X116418306Y-29893306D01*
X116438582Y-29879758D01*
X116462500Y-29875000D01*
X117012500Y-29875000D01*
X117036418Y-29879758D01*
G37*
G36*
X119561418Y-29879758D02*
G01*
X119581694Y-29893306D01*
X119595242Y-29913582D01*
X119600000Y-29937500D01*
X119600000Y-30062500D01*
X119595242Y-30086418D01*
X119581694Y-30106694D01*
X119561418Y-30120242D01*
X119537500Y-30125000D01*
X118987500Y-30125000D01*
X118963582Y-30120242D01*
X118943306Y-30106694D01*
X118929758Y-30086418D01*
X118925000Y-30062500D01*
X118925000Y-29937500D01*
X118929758Y-29913582D01*
X118943306Y-29893306D01*
X118963582Y-29879758D01*
X118987500Y-29875000D01*
X119537500Y-29875000D01*
X119561418Y-29879758D01*
G37*
G36*
X127450000Y-29800000D02*
G01*
X126550000Y-29800000D01*
X126550000Y-28600000D01*
X127450000Y-28600000D01*
X127450000Y-29800000D01*
G37*
G36*
X143450000Y-29800000D02*
G01*
X142550000Y-29800000D01*
X142550000Y-28600000D01*
X143450000Y-28600000D01*
X143450000Y-29800000D01*
G37*
G36*
X117036418Y-29379758D02*
G01*
X117056694Y-29393306D01*
X117070242Y-29413582D01*
X117075000Y-29437500D01*
X117075000Y-29562500D01*
X117070242Y-29586418D01*
X117056694Y-29606694D01*
X117036418Y-29620242D01*
X117012500Y-29625000D01*
X116462500Y-29625000D01*
X116438582Y-29620242D01*
X116418306Y-29606694D01*
X116404758Y-29586418D01*
X116400000Y-29562500D01*
X116400000Y-29437500D01*
X116404758Y-29413582D01*
X116418306Y-29393306D01*
X116438582Y-29379758D01*
X116462500Y-29375000D01*
X117012500Y-29375000D01*
X117036418Y-29379758D01*
G37*
G36*
X119561418Y-29379758D02*
G01*
X119581694Y-29393306D01*
X119595242Y-29413582D01*
X119600000Y-29437500D01*
X119600000Y-29562500D01*
X119595242Y-29586418D01*
X119581694Y-29606694D01*
X119561418Y-29620242D01*
X119537500Y-29625000D01*
X118987500Y-29625000D01*
X118963582Y-29620242D01*
X118943306Y-29606694D01*
X118929758Y-29586418D01*
X118925000Y-29562500D01*
X118925000Y-29437500D01*
X118929758Y-29413582D01*
X118943306Y-29393306D01*
X118963582Y-29379758D01*
X118987500Y-29375000D01*
X119537500Y-29375000D01*
X119561418Y-29379758D01*
G37*
G36*
X117336418Y-28404758D02*
G01*
X117356694Y-28418306D01*
X117370242Y-28438582D01*
X117375000Y-28462500D01*
X117375000Y-29012500D01*
X117370242Y-29036418D01*
X117356694Y-29056694D01*
X117336418Y-29070242D01*
X117312500Y-29075000D01*
X117187500Y-29075000D01*
X117163582Y-29070242D01*
X117143306Y-29056694D01*
X117129758Y-29036418D01*
X117125000Y-29012500D01*
X117125000Y-28462500D01*
X117129758Y-28438582D01*
X117143306Y-28418306D01*
X117163582Y-28404758D01*
X117187500Y-28400000D01*
X117312500Y-28400000D01*
X117336418Y-28404758D01*
G37*
G36*
X117836418Y-28404758D02*
G01*
X117856694Y-28418306D01*
X117870242Y-28438582D01*
X117875000Y-28462500D01*
X117875000Y-29012500D01*
X117870242Y-29036418D01*
X117856694Y-29056694D01*
X117836418Y-29070242D01*
X117812500Y-29075000D01*
X117687500Y-29075000D01*
X117663582Y-29070242D01*
X117643306Y-29056694D01*
X117629758Y-29036418D01*
X117625000Y-29012500D01*
X117625000Y-28462500D01*
X117629758Y-28438582D01*
X117643306Y-28418306D01*
X117663582Y-28404758D01*
X117687500Y-28400000D01*
X117812500Y-28400000D01*
X117836418Y-28404758D01*
G37*
G36*
X118336418Y-28404758D02*
G01*
X118356694Y-28418306D01*
X118370242Y-28438582D01*
X118375000Y-28462500D01*
X118375000Y-29012500D01*
X118370242Y-29036418D01*
X118356694Y-29056694D01*
X118336418Y-29070242D01*
X118312500Y-29075000D01*
X118187500Y-29075000D01*
X118163582Y-29070242D01*
X118143306Y-29056694D01*
X118129758Y-29036418D01*
X118125000Y-29012500D01*
X118125000Y-28462500D01*
X118129758Y-28438582D01*
X118143306Y-28418306D01*
X118163582Y-28404758D01*
X118187500Y-28400000D01*
X118312500Y-28400000D01*
X118336418Y-28404758D01*
G37*
G36*
X118836418Y-28404758D02*
G01*
X118856694Y-28418306D01*
X118870242Y-28438582D01*
X118875000Y-28462500D01*
X118875000Y-29012500D01*
X118870242Y-29036418D01*
X118856694Y-29056694D01*
X118836418Y-29070242D01*
X118812500Y-29075000D01*
X118687500Y-29075000D01*
X118663582Y-29070242D01*
X118643306Y-29056694D01*
X118629758Y-29036418D01*
X118625000Y-29012500D01*
X118625000Y-28462500D01*
X118629758Y-28438582D01*
X118643306Y-28418306D01*
X118663582Y-28404758D01*
X118687500Y-28400000D01*
X118812500Y-28400000D01*
X118836418Y-28404758D01*
G37*
G36*
X127450000Y-28200000D02*
G01*
X126550000Y-28200000D01*
X126550000Y-27000000D01*
X127450000Y-27000000D01*
X127450000Y-28200000D01*
G37*
G36*
X143450000Y-28200000D02*
G01*
X142550000Y-28200000D01*
X142550000Y-27000000D01*
X143450000Y-27000000D01*
X143450000Y-28200000D01*
G37*
G36*
X28246742Y-25036601D02*
G01*
X28400687Y-25100367D01*
X28539234Y-25192941D01*
X28657059Y-25310766D01*
X28749633Y-25449313D01*
X28813399Y-25603258D01*
X28845907Y-25766685D01*
X28850000Y-25850000D01*
X28850000Y-26150000D01*
X28845907Y-26233315D01*
X28813399Y-26396742D01*
X28749633Y-26550687D01*
X28657059Y-26689234D01*
X28539234Y-26807059D01*
X28400687Y-26899633D01*
X28246742Y-26963399D01*
X28083315Y-26995907D01*
X27916685Y-26995907D01*
X27753258Y-26963399D01*
X27599313Y-26899633D01*
X27460766Y-26807059D01*
X27342941Y-26689234D01*
X27250367Y-26550687D01*
X27186601Y-26396742D01*
X27154093Y-26233315D01*
X27150000Y-26150000D01*
X27150000Y-25850000D01*
X27154093Y-25766685D01*
X27186601Y-25603258D01*
X27250367Y-25449313D01*
X27342941Y-25310766D01*
X27460766Y-25192941D01*
X27599313Y-25100367D01*
X27753258Y-25036601D01*
X27916685Y-25004093D01*
X28083315Y-25004093D01*
X28246742Y-25036601D01*
G37*
G36*
X127450000Y-26600000D02*
G01*
X126550000Y-26600000D01*
X126550000Y-25400000D01*
X127450000Y-25400000D01*
X127450000Y-26600000D01*
G37*
G36*
X143450000Y-26600000D02*
G01*
X142550000Y-26600000D01*
X142550000Y-25400000D01*
X143450000Y-25400000D01*
X143450000Y-26600000D01*
G37*
G36*
X117536104Y-25542127D02*
G01*
X117609099Y-25590901D01*
X117657873Y-25663896D01*
X117675000Y-25750000D01*
X117675000Y-26250000D01*
X117657873Y-26336104D01*
X117609099Y-26409099D01*
X117536104Y-26457873D01*
X117450000Y-26475000D01*
X117000000Y-26475000D01*
X116913896Y-26457873D01*
X116840901Y-26409099D01*
X116792127Y-26336104D01*
X116775000Y-26250000D01*
X116775000Y-25750000D01*
X116792127Y-25663896D01*
X116840901Y-25590901D01*
X116913896Y-25542127D01*
X117000000Y-25525000D01*
X117450000Y-25525000D01*
X117536104Y-25542127D01*
G37*
G36*
X119086104Y-25542127D02*
G01*
X119159099Y-25590901D01*
X119207873Y-25663896D01*
X119225000Y-25750000D01*
X119225000Y-26250000D01*
X119207873Y-26336104D01*
X119159099Y-26409099D01*
X119086104Y-26457873D01*
X119000000Y-26475000D01*
X118550000Y-26475000D01*
X118463896Y-26457873D01*
X118390901Y-26409099D01*
X118342127Y-26336104D01*
X118325000Y-26250000D01*
X118325000Y-25750000D01*
X118342127Y-25663896D01*
X118390901Y-25590901D01*
X118463896Y-25542127D01*
X118550000Y-25525000D01*
X119000000Y-25525000D01*
X119086104Y-25542127D01*
G37*
G36*
X10954046Y-23800805D02*
G01*
X11005407Y-23806764D01*
X11022953Y-23814511D01*
X11045670Y-23819030D01*
X11069987Y-23835278D01*
X11090793Y-23844465D01*
X11105004Y-23858676D01*
X11126776Y-23873224D01*
X11141323Y-23894995D01*
X11155534Y-23909206D01*
X11164719Y-23930010D01*
X11180970Y-23954330D01*
X11185488Y-23977047D01*
X11193235Y-23994592D01*
X11199196Y-24045966D01*
X11199999Y-24050002D01*
X11199999Y-24052883D01*
X11200000Y-24052892D01*
X11200000Y-25004093D01*
X11200000Y-25949999D01*
X11199194Y-25954048D01*
X11193235Y-26005407D01*
X11185489Y-26022949D01*
X11180970Y-26045670D01*
X11164718Y-26069991D01*
X11155534Y-26090793D01*
X11141325Y-26105001D01*
X11126776Y-26126776D01*
X11105001Y-26141325D01*
X11090793Y-26155534D01*
X11069991Y-26164718D01*
X11045670Y-26180970D01*
X11022950Y-26185488D01*
X11005407Y-26193235D01*
X10954034Y-26199196D01*
X10949998Y-26199999D01*
X10947115Y-26199999D01*
X10947107Y-26200000D01*
X9052893Y-26200000D01*
X9052892Y-26199999D01*
X9050001Y-26200000D01*
X9045951Y-26199194D01*
X8994592Y-26193235D01*
X8977048Y-26185488D01*
X8954330Y-26180970D01*
X8930010Y-26164719D01*
X8909206Y-26155534D01*
X8894995Y-26141323D01*
X8873224Y-26126776D01*
X8858676Y-26105004D01*
X8844465Y-26090793D01*
X8835278Y-26069987D01*
X8819030Y-26045670D01*
X8814511Y-26022954D01*
X8806764Y-26005407D01*
X8800803Y-25954033D01*
X8800001Y-25949998D01*
X8800000Y-25947115D01*
X8800000Y-25947107D01*
X8800000Y-24052892D01*
X8800000Y-24052891D01*
X8800000Y-24050001D01*
X8800804Y-24045954D01*
X8806764Y-23994592D01*
X8814511Y-23977044D01*
X8819030Y-23954330D01*
X8835277Y-23930014D01*
X8844465Y-23909206D01*
X8858678Y-23894992D01*
X8873224Y-23873224D01*
X8894992Y-23858678D01*
X8909206Y-23844465D01*
X8930014Y-23835277D01*
X8954330Y-23819030D01*
X8977043Y-23814512D01*
X8994592Y-23806764D01*
X9045967Y-23800803D01*
X9050002Y-23800001D01*
X9052884Y-23800000D01*
X9052893Y-23800000D01*
X10947107Y-23800000D01*
X10949999Y-23800000D01*
X10954046Y-23800805D01*
G37*
G36*
X13780134Y-23833156D02*
G01*
X13959220Y-23891345D01*
X14126998Y-23976832D01*
X14279338Y-24087513D01*
X14412487Y-24220662D01*
X14523168Y-24373002D01*
X14608655Y-24540780D01*
X14666844Y-24719866D01*
X14696301Y-24905849D01*
X14696301Y-25094151D01*
X14666844Y-25280134D01*
X14608655Y-25459220D01*
X14523168Y-25626998D01*
X14412487Y-25779338D01*
X14279338Y-25912487D01*
X14126998Y-26023168D01*
X13959220Y-26108655D01*
X13780134Y-26166844D01*
X13594151Y-26196301D01*
X13405849Y-26196301D01*
X13219866Y-26166844D01*
X13040780Y-26108655D01*
X12873002Y-26023168D01*
X12720662Y-25912487D01*
X12587513Y-25779338D01*
X12476832Y-25626998D01*
X12391345Y-25459220D01*
X12333156Y-25280134D01*
X12303699Y-25094151D01*
X12303699Y-24905849D01*
X12333156Y-24719866D01*
X12391345Y-24540780D01*
X12476832Y-24373002D01*
X12587513Y-24220662D01*
X12720662Y-24087513D01*
X12873002Y-23976832D01*
X13040780Y-23891345D01*
X13219866Y-23833156D01*
X13405849Y-23803699D01*
X13594151Y-23803699D01*
X13780134Y-23833156D01*
G37*
G36*
X127450000Y-25000000D02*
G01*
X126550000Y-25000000D01*
X126550000Y-23800000D01*
X127450000Y-23800000D01*
X127450000Y-25000000D01*
G37*
G36*
X143450000Y-25000000D02*
G01*
X142550000Y-25000000D01*
X142550000Y-23800000D01*
X143450000Y-23800000D01*
X143450000Y-25000000D01*
G37*
G36*
X127450000Y-23400000D02*
G01*
X126550000Y-23400000D01*
X126550000Y-22200000D01*
X127450000Y-22200000D01*
X127450000Y-23400000D01*
G37*
G36*
X143450000Y-23400000D02*
G01*
X142550000Y-23400000D01*
X142550000Y-22200000D01*
X143450000Y-22200000D01*
X143450000Y-23400000D01*
G37*
G36*
X122536104Y-21542127D02*
G01*
X122609099Y-21590901D01*
X122657873Y-21663896D01*
X122675000Y-21750000D01*
X122675000Y-22250000D01*
X122657873Y-22336104D01*
X122609099Y-22409099D01*
X122536104Y-22457873D01*
X122450000Y-22475000D01*
X122000000Y-22475000D01*
X121913896Y-22457873D01*
X121840901Y-22409099D01*
X121792127Y-22336104D01*
X121775000Y-22250000D01*
X121775000Y-21750000D01*
X121792127Y-21663896D01*
X121840901Y-21590901D01*
X121913896Y-21542127D01*
X122000000Y-21525000D01*
X122450000Y-21525000D01*
X122536104Y-21542127D01*
G37*
G36*
X124086104Y-21542127D02*
G01*
X124159099Y-21590901D01*
X124207873Y-21663896D01*
X124225000Y-21750000D01*
X124225000Y-22250000D01*
X124207873Y-22336104D01*
X124159099Y-22409099D01*
X124086104Y-22457873D01*
X124000000Y-22475000D01*
X123550000Y-22475000D01*
X123463896Y-22457873D01*
X123390901Y-22409099D01*
X123342127Y-22336104D01*
X123325000Y-22250000D01*
X123325000Y-21750000D01*
X123342127Y-21663896D01*
X123390901Y-21590901D01*
X123463896Y-21542127D01*
X123550000Y-21525000D01*
X124000000Y-21525000D01*
X124086104Y-21542127D01*
G37*
G36*
X127450000Y-21800001D02*
G01*
X126550000Y-21800001D01*
X126550000Y-20600001D01*
X127450000Y-20600001D01*
X127450000Y-21800001D01*
G37*
G36*
X143450000Y-21800001D02*
G01*
X142550000Y-21800001D01*
X142550000Y-20600001D01*
X143450000Y-20600001D01*
X143450000Y-21800001D01*
G37*
G36*
X28604047Y-19000805D02*
G01*
X28655408Y-19006764D01*
X28672954Y-19014511D01*
X28695671Y-19019030D01*
X28719991Y-19035280D01*
X28740793Y-19044465D01*
X28755000Y-19058672D01*
X28776777Y-19073223D01*
X28791327Y-19094999D01*
X28805534Y-19109206D01*
X28814718Y-19130006D01*
X28830970Y-19154329D01*
X28835489Y-19177048D01*
X28843235Y-19194591D01*
X28849192Y-19245940D01*
X28850000Y-19250000D01*
X28850000Y-20750000D01*
X28849192Y-20754059D01*
X28843235Y-20805408D01*
X28835489Y-20822950D01*
X28830970Y-20845671D01*
X28814716Y-20869995D01*
X28805534Y-20890793D01*
X28791329Y-20904997D01*
X28776777Y-20926777D01*
X28754997Y-20941329D01*
X28740793Y-20955534D01*
X28719995Y-20964716D01*
X28695671Y-20980970D01*
X28672950Y-20985489D01*
X28655408Y-20993235D01*
X28604061Y-20999192D01*
X28600000Y-21000000D01*
X27400000Y-21000000D01*
X27395941Y-20999192D01*
X27344591Y-20993235D01*
X27327048Y-20985489D01*
X27304329Y-20980970D01*
X27280006Y-20964718D01*
X27259206Y-20955534D01*
X27244999Y-20941327D01*
X27223223Y-20926777D01*
X27208672Y-20905000D01*
X27194465Y-20890793D01*
X27185280Y-20869991D01*
X27169030Y-20845671D01*
X27164511Y-20822954D01*
X27156764Y-20805408D01*
X27150805Y-20754049D01*
X27150000Y-20750000D01*
X27150000Y-19250000D01*
X27150804Y-19245953D01*
X27156764Y-19194591D01*
X27164511Y-19177043D01*
X27169030Y-19154329D01*
X27185278Y-19130010D01*
X27194465Y-19109206D01*
X27208674Y-19094996D01*
X27223223Y-19073223D01*
X27244996Y-19058674D01*
X27259206Y-19044465D01*
X27280010Y-19035278D01*
X27304329Y-19019030D01*
X27327043Y-19014511D01*
X27344591Y-19006764D01*
X27395952Y-19000805D01*
X27400000Y-19000000D01*
X28600000Y-19000000D01*
X28604047Y-19000805D01*
G37*
G36*
X73536104Y-19542127D02*
G01*
X73609099Y-19590901D01*
X73657873Y-19663896D01*
X73675000Y-19750000D01*
X73675000Y-20250000D01*
X73657873Y-20336104D01*
X73609099Y-20409099D01*
X73536104Y-20457873D01*
X73450000Y-20475000D01*
X73000000Y-20475000D01*
X72913896Y-20457873D01*
X72840901Y-20409099D01*
X72792127Y-20336104D01*
X72775000Y-20250000D01*
X72775000Y-19750000D01*
X72792127Y-19663896D01*
X72840901Y-19590901D01*
X72913896Y-19542127D01*
X73000000Y-19525000D01*
X73450000Y-19525000D01*
X73536104Y-19542127D01*
G37*
G36*
X75086104Y-19542127D02*
G01*
X75159099Y-19590901D01*
X75207873Y-19663896D01*
X75225000Y-19750000D01*
X75225000Y-20250000D01*
X75207873Y-20336104D01*
X75159099Y-20409099D01*
X75086104Y-20457873D01*
X75000000Y-20475000D01*
X74550000Y-20475000D01*
X74463896Y-20457873D01*
X74390901Y-20409099D01*
X74342127Y-20336104D01*
X74325000Y-20250000D01*
X74325000Y-19750000D01*
X74342127Y-19663896D01*
X74390901Y-19590901D01*
X74463896Y-19542127D01*
X74550000Y-19525000D01*
X75000000Y-19525000D01*
X75086104Y-19542127D01*
G37*
G36*
X127450000Y-20200000D02*
G01*
X126550000Y-20200000D01*
X126550000Y-19000000D01*
X127450000Y-19000000D01*
X127450000Y-20200000D01*
G37*
G36*
X143450000Y-20200000D02*
G01*
X142550000Y-20200000D01*
X142550000Y-19000000D01*
X143450000Y-19000000D01*
X143450000Y-20200000D01*
G37*
G36*
X149722626Y-17446084D02*
G01*
X149890519Y-17500636D01*
X150047811Y-17580780D01*
X150190629Y-17684543D01*
X150315457Y-17809371D01*
X150419220Y-17952189D01*
X150499364Y-18109481D01*
X150553916Y-18277374D01*
X150581532Y-18451734D01*
X150581532Y-18628266D01*
X150553916Y-18802626D01*
X150499364Y-18970519D01*
X150419220Y-19127811D01*
X150315457Y-19270629D01*
X150190629Y-19395457D01*
X150047811Y-19499220D01*
X149890519Y-19579364D01*
X149722626Y-19633916D01*
X149548266Y-19661532D01*
X149371734Y-19661532D01*
X149197374Y-19633916D01*
X149029481Y-19579364D01*
X148872189Y-19499220D01*
X148729371Y-19395457D01*
X148604543Y-19270629D01*
X148500780Y-19127811D01*
X148420636Y-18970519D01*
X148366084Y-18802626D01*
X148338468Y-18628266D01*
X148338468Y-18451734D01*
X148366084Y-18277374D01*
X148420636Y-18109481D01*
X148500780Y-17952189D01*
X148604543Y-17809371D01*
X148729371Y-17684543D01*
X148872189Y-17580780D01*
X149029481Y-17500636D01*
X149197374Y-17446084D01*
X149371734Y-17418468D01*
X149548266Y-17418468D01*
X149722626Y-17446084D01*
G37*
G36*
X154802626Y-17446084D02*
G01*
X154970519Y-17500636D01*
X155127811Y-17580780D01*
X155270629Y-17684543D01*
X155395457Y-17809371D01*
X155499220Y-17952189D01*
X155579364Y-18109481D01*
X155633916Y-18277374D01*
X155661532Y-18451734D01*
X155661532Y-18628266D01*
X155633916Y-18802626D01*
X155579364Y-18970519D01*
X155499220Y-19127811D01*
X155395457Y-19270629D01*
X155270629Y-19395457D01*
X155127811Y-19499220D01*
X154970519Y-19579364D01*
X154802626Y-19633916D01*
X154628266Y-19661532D01*
X154451734Y-19661532D01*
X154277374Y-19633916D01*
X154109481Y-19579364D01*
X153952189Y-19499220D01*
X153809371Y-19395457D01*
X153684543Y-19270629D01*
X153580780Y-19127811D01*
X153500636Y-18970519D01*
X153446084Y-18802626D01*
X153418468Y-18628266D01*
X153418468Y-18451734D01*
X153446084Y-18277374D01*
X153500636Y-18109481D01*
X153580780Y-17952189D01*
X153684543Y-17809371D01*
X153809371Y-17684543D01*
X153952189Y-17580780D01*
X154109481Y-17500636D01*
X154277374Y-17446084D01*
X154451734Y-17418468D01*
X154628266Y-17418468D01*
X154802626Y-17446084D01*
G37*
G36*
X127450000Y-18600000D02*
G01*
X126550000Y-18600000D01*
X126550000Y-17400000D01*
X127450000Y-17400000D01*
X127450000Y-18600000D01*
G37*
G36*
X143450000Y-18600000D02*
G01*
X142550000Y-18600000D01*
X142550000Y-17400000D01*
X143450000Y-17400000D01*
X143450000Y-18600000D01*
G37*
G36*
X81536104Y-17542127D02*
G01*
X81609099Y-17590901D01*
X81657873Y-17663896D01*
X81675000Y-17750000D01*
X81675000Y-18250000D01*
X81657873Y-18336104D01*
X81609099Y-18409099D01*
X81536104Y-18457873D01*
X81450000Y-18475000D01*
X81000000Y-18475000D01*
X80913896Y-18457873D01*
X80840901Y-18409099D01*
X80792127Y-18336104D01*
X80775000Y-18250000D01*
X80775000Y-17750000D01*
X80792127Y-17663896D01*
X80840901Y-17590901D01*
X80913896Y-17542127D01*
X81000000Y-17525000D01*
X81450000Y-17525000D01*
X81536104Y-17542127D01*
G37*
G36*
X83086104Y-17542127D02*
G01*
X83159099Y-17590901D01*
X83207873Y-17663896D01*
X83225000Y-17750000D01*
X83225000Y-18250000D01*
X83207873Y-18336104D01*
X83159099Y-18409099D01*
X83086104Y-18457873D01*
X83000000Y-18475000D01*
X82550000Y-18475000D01*
X82463896Y-18457873D01*
X82390901Y-18409099D01*
X82342127Y-18336104D01*
X82325000Y-18250000D01*
X82325000Y-17750000D01*
X82342127Y-17663896D01*
X82390901Y-17590901D01*
X82463896Y-17542127D01*
X82550000Y-17525000D01*
X83000000Y-17525000D01*
X83086104Y-17542127D01*
G37*
G36*
X152090652Y-14979936D02*
G01*
X152100468Y-14979936D01*
X152138820Y-14987564D01*
X152239241Y-15003469D01*
X152271541Y-15013964D01*
X152297542Y-15019136D01*
X152334234Y-15034334D01*
X152392194Y-15053167D01*
X152446493Y-15080834D01*
X152483182Y-15096031D01*
X152505222Y-15110758D01*
X152535480Y-15126175D01*
X152617730Y-15185933D01*
X152650253Y-15207664D01*
X152657193Y-15214604D01*
X152665579Y-15220697D01*
X152779302Y-15334420D01*
X152785394Y-15342805D01*
X152792336Y-15349747D01*
X152814069Y-15382273D01*
X152873824Y-15464519D01*
X152889239Y-15494774D01*
X152903969Y-15516818D01*
X152919168Y-15553511D01*
X152946832Y-15607805D01*
X152965662Y-15665757D01*
X152980864Y-15702458D01*
X152986036Y-15728463D01*
X152996530Y-15760758D01*
X153012434Y-15861173D01*
X153020064Y-15899532D01*
X153020064Y-15909347D01*
X153021686Y-15919588D01*
X153021686Y-16080411D01*
X153020064Y-16090651D01*
X153020064Y-16100468D01*
X153012433Y-16138829D01*
X152996530Y-16239241D01*
X152986037Y-16271533D01*
X152980864Y-16297542D01*
X152965660Y-16334245D01*
X152946832Y-16392194D01*
X152919170Y-16446483D01*
X152903969Y-16483182D01*
X152889237Y-16505229D01*
X152873824Y-16535480D01*
X152814078Y-16617713D01*
X152792336Y-16650253D01*
X152785391Y-16657197D01*
X152779302Y-16665579D01*
X152665579Y-16779302D01*
X152657197Y-16785391D01*
X152650253Y-16792336D01*
X152617713Y-16814078D01*
X152535480Y-16873824D01*
X152505229Y-16889237D01*
X152483182Y-16903969D01*
X152446483Y-16919170D01*
X152392194Y-16946832D01*
X152334245Y-16965660D01*
X152297542Y-16980864D01*
X152271533Y-16986037D01*
X152239241Y-16996530D01*
X152138829Y-17012433D01*
X152100468Y-17020064D01*
X152090652Y-17020064D01*
X152080411Y-17021686D01*
X151919589Y-17021686D01*
X151909348Y-17020064D01*
X151899532Y-17020064D01*
X151861171Y-17012433D01*
X151760758Y-16996530D01*
X151728463Y-16986036D01*
X151702458Y-16980864D01*
X151665757Y-16965662D01*
X151607805Y-16946832D01*
X151553511Y-16919168D01*
X151516818Y-16903969D01*
X151494774Y-16889239D01*
X151464519Y-16873824D01*
X151382273Y-16814069D01*
X151349747Y-16792336D01*
X151342805Y-16785394D01*
X151334420Y-16779302D01*
X151220697Y-16665579D01*
X151214604Y-16657193D01*
X151207664Y-16650253D01*
X151185933Y-16617730D01*
X151126175Y-16535480D01*
X151110758Y-16505222D01*
X151096031Y-16483182D01*
X151080834Y-16446493D01*
X151053167Y-16392194D01*
X151034334Y-16334234D01*
X151019136Y-16297542D01*
X151013964Y-16271541D01*
X151003469Y-16239241D01*
X150987564Y-16138820D01*
X150979936Y-16100468D01*
X150979936Y-16090652D01*
X150978314Y-16080411D01*
X150978314Y-15919588D01*
X150979936Y-15909346D01*
X150979936Y-15899532D01*
X150987564Y-15861182D01*
X151003469Y-15760758D01*
X151013964Y-15728455D01*
X151019136Y-15702458D01*
X151034333Y-15665769D01*
X151053167Y-15607805D01*
X151080836Y-15553500D01*
X151096031Y-15516818D01*
X151110756Y-15494780D01*
X151126175Y-15464519D01*
X151185941Y-15382256D01*
X151207664Y-15349747D01*
X151214602Y-15342808D01*
X151220697Y-15334420D01*
X151334420Y-15220697D01*
X151342808Y-15214602D01*
X151349747Y-15207664D01*
X151382256Y-15185941D01*
X151464519Y-15126175D01*
X151494780Y-15110756D01*
X151516818Y-15096031D01*
X151553500Y-15080836D01*
X151607805Y-15053167D01*
X151665769Y-15034333D01*
X151702458Y-15019136D01*
X151728455Y-15013964D01*
X151760758Y-15003469D01*
X151861180Y-14987564D01*
X151899532Y-14979936D01*
X151909348Y-14979936D01*
X151919589Y-14978314D01*
X152080411Y-14978314D01*
X152090652Y-14979936D01*
G37*
G36*
X127450000Y-17000000D02*
G01*
X126550000Y-17000000D01*
X126550000Y-15800000D01*
X127450000Y-15800000D01*
X127450000Y-17000000D01*
G37*
G36*
X143450000Y-17000000D02*
G01*
X142550000Y-17000000D01*
X142550000Y-15800000D01*
X143450000Y-15800000D01*
X143450000Y-17000000D01*
G37*
G36*
X70407403Y-15616418D02*
G01*
X70456066Y-15648934D01*
X70488582Y-15697597D01*
X70500000Y-15755000D01*
X70500000Y-16055000D01*
X70488582Y-16112403D01*
X70456066Y-16161066D01*
X70407403Y-16193582D01*
X70350000Y-16205000D01*
X68700000Y-16205000D01*
X68642597Y-16193582D01*
X68593934Y-16161066D01*
X68561418Y-16112403D01*
X68550000Y-16055000D01*
X68550000Y-15755000D01*
X68561418Y-15697597D01*
X68593934Y-15648934D01*
X68642597Y-15616418D01*
X68700000Y-15605000D01*
X70350000Y-15605000D01*
X70407403Y-15616418D01*
G37*
G36*
X75357403Y-15616418D02*
G01*
X75406066Y-15648934D01*
X75438582Y-15697597D01*
X75450000Y-15755000D01*
X75450000Y-16055000D01*
X75438582Y-16112403D01*
X75406066Y-16161066D01*
X75357403Y-16193582D01*
X75300000Y-16205000D01*
X73650000Y-16205000D01*
X73592597Y-16193582D01*
X73543934Y-16161066D01*
X73511418Y-16112403D01*
X73500000Y-16055000D01*
X73500000Y-15755000D01*
X73511418Y-15697597D01*
X73543934Y-15648934D01*
X73592597Y-15616418D01*
X73650000Y-15605000D01*
X75300000Y-15605000D01*
X75357403Y-15616418D01*
G37*
G36*
X127450000Y-15400000D02*
G01*
X126550000Y-15400000D01*
X126550000Y-14200000D01*
X127450000Y-14200000D01*
X127450000Y-15400000D01*
G37*
G36*
X143450000Y-15400000D02*
G01*
X142550000Y-15400000D01*
X142550000Y-14200000D01*
X143450000Y-14200000D01*
X143450000Y-15400000D01*
G37*
G36*
X81432403Y-14661418D02*
G01*
X81481066Y-14693934D01*
X81513582Y-14742597D01*
X81525000Y-14800000D01*
X81525000Y-15100000D01*
X81513582Y-15157403D01*
X81481066Y-15206066D01*
X81432403Y-15238582D01*
X81375000Y-15250000D01*
X80350000Y-15250000D01*
X80292597Y-15238582D01*
X80243934Y-15206066D01*
X80211418Y-15157403D01*
X80200000Y-15100000D01*
X80200000Y-14800000D01*
X80211418Y-14742597D01*
X80243934Y-14693934D01*
X80292597Y-14661418D01*
X80350000Y-14650000D01*
X81375000Y-14650000D01*
X81432403Y-14661418D01*
G37*
G36*
X83707403Y-14661418D02*
G01*
X83756066Y-14693934D01*
X83788582Y-14742597D01*
X83800000Y-14800000D01*
X83800000Y-15100000D01*
X83788582Y-15157403D01*
X83756066Y-15206066D01*
X83707403Y-15238582D01*
X83650000Y-15250000D01*
X82625000Y-15250000D01*
X82567597Y-15238582D01*
X82518934Y-15206066D01*
X82486418Y-15157403D01*
X82475000Y-15100000D01*
X82475000Y-14800000D01*
X82486418Y-14742597D01*
X82518934Y-14693934D01*
X82567597Y-14661418D01*
X82625000Y-14650000D01*
X83650000Y-14650000D01*
X83707403Y-14661418D01*
G37*
G36*
X61846742Y-13036601D02*
G01*
X62000687Y-13100367D01*
X62139234Y-13192941D01*
X62257059Y-13310766D01*
X62349633Y-13449313D01*
X62413399Y-13603258D01*
X62445907Y-13766685D01*
X62450000Y-13850000D01*
X62450000Y-14150000D01*
X62445907Y-14233315D01*
X62413399Y-14396742D01*
X62349633Y-14550687D01*
X62257059Y-14689234D01*
X62139234Y-14807059D01*
X62000687Y-14899633D01*
X61846742Y-14963399D01*
X61683315Y-14995907D01*
X61516685Y-14995907D01*
X61353258Y-14963399D01*
X61199313Y-14899633D01*
X61060766Y-14807059D01*
X60942941Y-14689234D01*
X60850367Y-14550687D01*
X60786601Y-14396742D01*
X60754093Y-14233315D01*
X60750000Y-14150000D01*
X60750000Y-13850000D01*
X60754093Y-13766685D01*
X60786601Y-13603258D01*
X60850367Y-13449313D01*
X60942941Y-13310766D01*
X61060766Y-13192941D01*
X61199313Y-13100367D01*
X61353258Y-13036601D01*
X61516685Y-13004093D01*
X61683315Y-13004093D01*
X61846742Y-13036601D01*
G37*
G36*
X70407403Y-14346418D02*
G01*
X70456066Y-14378934D01*
X70488582Y-14427597D01*
X70500000Y-14485000D01*
X70500000Y-14785000D01*
X70488582Y-14842403D01*
X70456066Y-14891066D01*
X70407403Y-14923582D01*
X70350000Y-14935000D01*
X68700000Y-14935000D01*
X68642597Y-14923582D01*
X68593934Y-14891066D01*
X68561418Y-14842403D01*
X68550000Y-14785000D01*
X68550000Y-14485000D01*
X68561418Y-14427597D01*
X68593934Y-14378934D01*
X68642597Y-14346418D01*
X68700000Y-14335000D01*
X70350000Y-14335000D01*
X70407403Y-14346418D01*
G37*
G36*
X75357403Y-14346418D02*
G01*
X75406066Y-14378934D01*
X75438582Y-14427597D01*
X75450000Y-14485000D01*
X75450000Y-14785000D01*
X75438582Y-14842403D01*
X75406066Y-14891066D01*
X75357403Y-14923582D01*
X75300000Y-14935000D01*
X73650000Y-14935000D01*
X73592597Y-14923582D01*
X73543934Y-14891066D01*
X73511418Y-14842403D01*
X73500000Y-14785000D01*
X73500000Y-14485000D01*
X73511418Y-14427597D01*
X73543934Y-14378934D01*
X73592597Y-14346418D01*
X73650000Y-14335000D01*
X75300000Y-14335000D01*
X75357403Y-14346418D01*
G37*
G36*
X149722626Y-12366084D02*
G01*
X149890519Y-12420636D01*
X150047811Y-12500780D01*
X150190629Y-12604543D01*
X150315457Y-12729371D01*
X150419220Y-12872189D01*
X150499364Y-13029481D01*
X150553916Y-13197374D01*
X150581532Y-13371734D01*
X150581532Y-13548266D01*
X150553916Y-13722626D01*
X150499364Y-13890519D01*
X150419220Y-14047811D01*
X150315457Y-14190629D01*
X150190629Y-14315457D01*
X150047811Y-14419220D01*
X149890519Y-14499364D01*
X149722626Y-14553916D01*
X149548266Y-14581532D01*
X149371734Y-14581532D01*
X149197374Y-14553916D01*
X149029481Y-14499364D01*
X148872189Y-14419220D01*
X148729371Y-14315457D01*
X148604543Y-14190629D01*
X148500780Y-14047811D01*
X148420636Y-13890519D01*
X148366084Y-13722626D01*
X148338468Y-13548266D01*
X148338468Y-13371734D01*
X148366084Y-13197374D01*
X148420636Y-13029481D01*
X148500780Y-12872189D01*
X148604543Y-12729371D01*
X148729371Y-12604543D01*
X148872189Y-12500780D01*
X149029481Y-12420636D01*
X149197374Y-12366084D01*
X149371734Y-12338468D01*
X149548266Y-12338468D01*
X149722626Y-12366084D01*
G37*
G36*
X154802626Y-12366084D02*
G01*
X154970519Y-12420636D01*
X155127811Y-12500780D01*
X155270629Y-12604543D01*
X155395457Y-12729371D01*
X155499220Y-12872189D01*
X155579364Y-13029481D01*
X155633916Y-13197374D01*
X155661532Y-13371734D01*
X155661532Y-13548266D01*
X155633916Y-13722626D01*
X155579364Y-13890519D01*
X155499220Y-14047811D01*
X155395457Y-14190629D01*
X155270629Y-14315457D01*
X155127811Y-14419220D01*
X154970519Y-14499364D01*
X154802626Y-14553916D01*
X154628266Y-14581532D01*
X154451734Y-14581532D01*
X154277374Y-14553916D01*
X154109481Y-14499364D01*
X153952189Y-14419220D01*
X153809371Y-14315457D01*
X153684543Y-14190629D01*
X153580780Y-14047811D01*
X153500636Y-13890519D01*
X153446084Y-13722626D01*
X153418468Y-13548266D01*
X153418468Y-13371734D01*
X153446084Y-13197374D01*
X153500636Y-13029481D01*
X153580780Y-12872189D01*
X153684543Y-12729371D01*
X153809371Y-12604543D01*
X153952189Y-12500780D01*
X154109481Y-12420636D01*
X154277374Y-12366084D01*
X154451734Y-12338468D01*
X154628266Y-12338468D01*
X154802626Y-12366084D01*
G37*
G36*
X81432403Y-13711418D02*
G01*
X81481066Y-13743934D01*
X81513582Y-13792597D01*
X81525000Y-13850000D01*
X81525000Y-14150000D01*
X81513582Y-14207403D01*
X81481066Y-14256066D01*
X81432403Y-14288582D01*
X81375000Y-14300000D01*
X80350000Y-14300000D01*
X80292597Y-14288582D01*
X80243934Y-14256066D01*
X80211418Y-14207403D01*
X80200000Y-14150000D01*
X80200000Y-13850000D01*
X80211418Y-13792597D01*
X80243934Y-13743934D01*
X80292597Y-13711418D01*
X80350000Y-13700000D01*
X81375000Y-13700000D01*
X81432403Y-13711418D01*
G37*
G36*
X127450000Y-13800000D02*
G01*
X126550000Y-13800000D01*
X126550000Y-12600000D01*
X127450000Y-12600000D01*
X127450000Y-13800000D01*
G37*
G36*
X143450000Y-13800000D02*
G01*
X142550000Y-13800000D01*
X142550000Y-12600000D01*
X143450000Y-12600000D01*
X143450000Y-13800000D01*
G37*
G36*
X70407403Y-13076418D02*
G01*
X70456066Y-13108934D01*
X70488582Y-13157597D01*
X70500000Y-13215000D01*
X70500000Y-13515000D01*
X70488582Y-13572403D01*
X70456066Y-13621066D01*
X70407403Y-13653582D01*
X70350000Y-13665000D01*
X68700000Y-13665000D01*
X68642597Y-13653582D01*
X68593934Y-13621066D01*
X68561418Y-13572403D01*
X68550000Y-13515000D01*
X68550000Y-13215000D01*
X68561418Y-13157597D01*
X68593934Y-13108934D01*
X68642597Y-13076418D01*
X68700000Y-13065000D01*
X70350000Y-13065000D01*
X70407403Y-13076418D01*
G37*
G36*
X75357403Y-13076418D02*
G01*
X75406066Y-13108934D01*
X75438582Y-13157597D01*
X75450000Y-13215000D01*
X75450000Y-13515000D01*
X75438582Y-13572403D01*
X75406066Y-13621066D01*
X75357403Y-13653582D01*
X75300000Y-13665000D01*
X73650000Y-13665000D01*
X73592597Y-13653582D01*
X73543934Y-13621066D01*
X73511418Y-13572403D01*
X73500000Y-13515000D01*
X73500000Y-13215000D01*
X73511418Y-13157597D01*
X73543934Y-13108934D01*
X73592597Y-13076418D01*
X73650000Y-13065000D01*
X75300000Y-13065000D01*
X75357403Y-13076418D01*
G37*
G36*
X81432403Y-12761418D02*
G01*
X81481066Y-12793934D01*
X81513582Y-12842597D01*
X81525000Y-12900000D01*
X81525000Y-13200000D01*
X81513582Y-13257403D01*
X81481066Y-13306066D01*
X81432403Y-13338582D01*
X81375000Y-13350000D01*
X80350000Y-13350000D01*
X80292597Y-13338582D01*
X80243934Y-13306066D01*
X80211418Y-13257403D01*
X80200000Y-13200000D01*
X80200000Y-12900000D01*
X80211418Y-12842597D01*
X80243934Y-12793934D01*
X80292597Y-12761418D01*
X80350000Y-12750000D01*
X81375000Y-12750000D01*
X81432403Y-12761418D01*
G37*
G36*
X83707403Y-12761418D02*
G01*
X83756066Y-12793934D01*
X83788582Y-12842597D01*
X83800000Y-12900000D01*
X83800000Y-13200000D01*
X83788582Y-13257403D01*
X83756066Y-13306066D01*
X83707403Y-13338582D01*
X83650000Y-13350000D01*
X82625000Y-13350000D01*
X82567597Y-13338582D01*
X82518934Y-13306066D01*
X82486418Y-13257403D01*
X82475000Y-13200000D01*
X82475000Y-12900000D01*
X82486418Y-12842597D01*
X82518934Y-12793934D01*
X82567597Y-12761418D01*
X82625000Y-12750000D01*
X83650000Y-12750000D01*
X83707403Y-12761418D01*
G37*
G36*
X18979047Y-11125805D02*
G01*
X19030408Y-11131764D01*
X19047954Y-11139511D01*
X19070671Y-11144030D01*
X19094991Y-11160280D01*
X19115793Y-11169465D01*
X19130000Y-11183672D01*
X19151777Y-11198223D01*
X19166327Y-11219999D01*
X19180534Y-11234206D01*
X19189718Y-11255006D01*
X19205970Y-11279329D01*
X19210489Y-11302048D01*
X19218235Y-11319591D01*
X19224192Y-11370940D01*
X19225000Y-11375000D01*
X19225000Y-12625000D01*
X19224192Y-12629059D01*
X19218235Y-12680408D01*
X19210489Y-12697950D01*
X19205970Y-12720671D01*
X19189716Y-12744995D01*
X19180534Y-12765793D01*
X19166329Y-12779997D01*
X19151777Y-12801777D01*
X19129997Y-12816329D01*
X19115793Y-12830534D01*
X19094995Y-12839716D01*
X19070671Y-12855970D01*
X19047950Y-12860489D01*
X19030408Y-12868235D01*
X18979061Y-12874192D01*
X18975000Y-12875000D01*
X18225000Y-12875000D01*
X18220941Y-12874192D01*
X18169591Y-12868235D01*
X18152048Y-12860489D01*
X18129329Y-12855970D01*
X18105006Y-12839718D01*
X18084206Y-12830534D01*
X18069999Y-12816327D01*
X18048223Y-12801777D01*
X18033672Y-12780000D01*
X18019465Y-12765793D01*
X18010280Y-12744991D01*
X17994030Y-12720671D01*
X17989511Y-12697954D01*
X17981764Y-12680408D01*
X17975805Y-12629049D01*
X17975000Y-12625000D01*
X17975000Y-11375000D01*
X17975804Y-11370953D01*
X17981764Y-11319591D01*
X17989511Y-11302043D01*
X17994030Y-11279329D01*
X18010278Y-11255010D01*
X18019465Y-11234206D01*
X18033674Y-11219996D01*
X18048223Y-11198223D01*
X18069996Y-11183674D01*
X18084206Y-11169465D01*
X18105010Y-11160278D01*
X18129329Y-11144030D01*
X18152043Y-11139511D01*
X18169591Y-11131764D01*
X18220952Y-11125805D01*
X18225000Y-11125000D01*
X18975000Y-11125000D01*
X18979047Y-11125805D01*
G37*
G36*
X21779047Y-11125805D02*
G01*
X21830408Y-11131764D01*
X21847954Y-11139511D01*
X21870671Y-11144030D01*
X21894991Y-11160280D01*
X21915793Y-11169465D01*
X21930000Y-11183672D01*
X21951777Y-11198223D01*
X21966327Y-11219999D01*
X21980534Y-11234206D01*
X21989718Y-11255006D01*
X22005970Y-11279329D01*
X22010489Y-11302048D01*
X22018235Y-11319591D01*
X22024192Y-11370940D01*
X22025000Y-11375000D01*
X22025000Y-12625000D01*
X22024192Y-12629059D01*
X22018235Y-12680408D01*
X22010489Y-12697950D01*
X22005970Y-12720671D01*
X21989716Y-12744995D01*
X21980534Y-12765793D01*
X21966329Y-12779997D01*
X21951777Y-12801777D01*
X21929997Y-12816329D01*
X21915793Y-12830534D01*
X21894995Y-12839716D01*
X21870671Y-12855970D01*
X21847950Y-12860489D01*
X21830408Y-12868235D01*
X21779061Y-12874192D01*
X21775000Y-12875000D01*
X21025000Y-12875000D01*
X21020941Y-12874192D01*
X20969591Y-12868235D01*
X20952048Y-12860489D01*
X20929329Y-12855970D01*
X20905006Y-12839718D01*
X20884206Y-12830534D01*
X20869999Y-12816327D01*
X20848223Y-12801777D01*
X20833672Y-12780000D01*
X20819465Y-12765793D01*
X20810280Y-12744991D01*
X20794030Y-12720671D01*
X20789511Y-12697954D01*
X20781764Y-12680408D01*
X20775805Y-12629049D01*
X20775000Y-12625000D01*
X20775000Y-11375000D01*
X20775804Y-11370953D01*
X20781764Y-11319591D01*
X20789511Y-11302043D01*
X20794030Y-11279329D01*
X20810278Y-11255010D01*
X20819465Y-11234206D01*
X20833674Y-11219996D01*
X20848223Y-11198223D01*
X20869996Y-11183674D01*
X20884206Y-11169465D01*
X20905010Y-11160278D01*
X20929329Y-11144030D01*
X20952043Y-11139511D01*
X20969591Y-11131764D01*
X21020952Y-11125805D01*
X21025000Y-11125000D01*
X21775000Y-11125000D01*
X21779047Y-11125805D01*
G37*
G36*
X70407403Y-11806418D02*
G01*
X70456066Y-11838934D01*
X70488582Y-11887597D01*
X70500000Y-11945000D01*
X70500000Y-12245000D01*
X70488582Y-12302403D01*
X70456066Y-12351066D01*
X70407403Y-12383582D01*
X70350000Y-12395000D01*
X68700000Y-12395000D01*
X68642597Y-12383582D01*
X68593934Y-12351066D01*
X68561418Y-12302403D01*
X68550000Y-12245000D01*
X68550000Y-11945000D01*
X68561418Y-11887597D01*
X68593934Y-11838934D01*
X68642597Y-11806418D01*
X68700000Y-11795000D01*
X70350000Y-11795000D01*
X70407403Y-11806418D01*
G37*
G36*
X75357403Y-11806418D02*
G01*
X75406066Y-11838934D01*
X75438582Y-11887597D01*
X75450000Y-11945000D01*
X75450000Y-12245000D01*
X75438582Y-12302403D01*
X75406066Y-12351066D01*
X75357403Y-12383582D01*
X75300000Y-12395000D01*
X73650000Y-12395000D01*
X73592597Y-12383582D01*
X73543934Y-12351066D01*
X73511418Y-12302403D01*
X73500000Y-12245000D01*
X73500000Y-11945000D01*
X73511418Y-11887597D01*
X73543934Y-11838934D01*
X73592597Y-11806418D01*
X73650000Y-11795000D01*
X75300000Y-11795000D01*
X75357403Y-11806418D01*
G37*
G36*
X127450000Y-12200000D02*
G01*
X126550000Y-12200000D01*
X126550000Y-11000000D01*
X127450000Y-11000000D01*
X127450000Y-12200000D01*
G37*
G36*
X143450000Y-12200000D02*
G01*
X142550000Y-12200000D01*
X142550000Y-11000000D01*
X143450000Y-11000000D01*
X143450000Y-12200000D01*
G37*
G36*
X81536104Y-9542127D02*
G01*
X81609099Y-9590901D01*
X81657873Y-9663896D01*
X81675000Y-9750000D01*
X81675000Y-10250000D01*
X81657873Y-10336104D01*
X81609099Y-10409099D01*
X81536104Y-10457873D01*
X81450000Y-10475000D01*
X81000000Y-10475000D01*
X80913896Y-10457873D01*
X80840901Y-10409099D01*
X80792127Y-10336104D01*
X80775000Y-10250000D01*
X80775000Y-9750000D01*
X80792127Y-9663896D01*
X80840901Y-9590901D01*
X80913896Y-9542127D01*
X81000000Y-9525000D01*
X81450000Y-9525000D01*
X81536104Y-9542127D01*
G37*
G36*
X83086104Y-9542127D02*
G01*
X83159099Y-9590901D01*
X83207873Y-9663896D01*
X83225000Y-9750000D01*
X83225000Y-10250000D01*
X83207873Y-10336104D01*
X83159099Y-10409099D01*
X83086104Y-10457873D01*
X83000000Y-10475000D01*
X82550000Y-10475000D01*
X82463896Y-10457873D01*
X82390901Y-10409099D01*
X82342127Y-10336104D01*
X82325000Y-10250000D01*
X82325000Y-9750000D01*
X82342127Y-9663896D01*
X82390901Y-9590901D01*
X82463896Y-9542127D01*
X82550000Y-9525000D01*
X83000000Y-9525000D01*
X83086104Y-9542127D01*
G37*
G36*
X67536104Y-7542127D02*
G01*
X67609099Y-7590901D01*
X67657873Y-7663896D01*
X67675000Y-7750000D01*
X67675000Y-8250000D01*
X67657873Y-8336104D01*
X67609099Y-8409099D01*
X67536104Y-8457873D01*
X67450000Y-8475000D01*
X67000000Y-8475000D01*
X66913896Y-8457873D01*
X66840901Y-8409099D01*
X66792127Y-8336104D01*
X66775000Y-8250000D01*
X66775000Y-7750000D01*
X66792127Y-7663896D01*
X66840901Y-7590901D01*
X66913896Y-7542127D01*
X67000000Y-7525000D01*
X67450000Y-7525000D01*
X67536104Y-7542127D01*
G37*
G36*
X69086104Y-7542127D02*
G01*
X69159099Y-7590901D01*
X69207873Y-7663896D01*
X69225000Y-7750000D01*
X69225000Y-8250000D01*
X69207873Y-8336104D01*
X69159099Y-8409099D01*
X69086104Y-8457873D01*
X69000000Y-8475000D01*
X68550000Y-8475000D01*
X68463896Y-8457873D01*
X68390901Y-8409099D01*
X68342127Y-8336104D01*
X68325000Y-8250000D01*
X68325000Y-7750000D01*
X68342127Y-7663896D01*
X68390901Y-7590901D01*
X68463896Y-7542127D01*
X68550000Y-7525000D01*
X69000000Y-7525000D01*
X69086104Y-7542127D01*
G37*
M02*
