<?xml version="1.0" standalone="no"?>
 <!DOCTYPE svg PUBLIC "-//W3C//DTD SVG 1.1//EN" 
 "http://www.w3.org/Graphics/SVG/1.1/DTD/svg11.dtd"> 
<svg
  xmlns:svg="http://www.w3.org/2000/svg"
  xmlns="http://www.w3.org/2000/svg"
  xmlns:xlink="http://www.w3.org/1999/xlink"
  xmlns:inkscape="http://www.inkscape.org/namespaces/inkscape"
  version="1.1"
  width="159.9946mm" height="99.9998mm" viewBox="0.0000 0.0000 159.9946 99.9998">
<title>SVG Image created as esp32_s3_dwm3000_uwb_anchor_with_relay_outputs-Edge_Cuts.svg date 2026-05-31T12:40:27 </title>
  <desc>Image generated by PCBNEW </desc>
<g style="fill:#000000; fill-opacity:1.0000;stroke:#000000; stroke-opacity:1.0000;
stroke-linecap:round; stroke-linejoin:round;"
 transform="translate(0 0) scale(1 1)">
</g>
<g style="fill:none; 
stroke:#D0D2CD; stroke-width:0.1000; stroke-opacity:1; 
stroke-linecap:round; stroke-linejoin:round;">
<path d="M0.0000 0.0000
L160.0000 0.0000
" />
<path d="M0.0000 100.0000
L0.0000 0.0000
" />
<circle cx="3.0000" cy="3.0000" r="1.6000" /> 
<circle cx="3.0000" cy="97.0000" r="1.6000" /> 
<circle cx="157.0000" cy="3.0000" r="1.6000" /> 
<circle cx="157.0000" cy="97.0000" r="1.6000" /> 
<path d="M160.0000 0.0000
L160.0000 100.0000
" />
<path d="M160.0000 100.0000
L0.0000 100.0000
" />
</g>
<g style="fill:#000000; fill-opacity:1.0000; stroke:none;">
<circle cx="154.0000" cy="92.0000" r="0.5000" /> 
<circle cx="154.0000" cy="94.5400" r="0.5000" /> 
<circle cx="36.0000" cy="84.0000" r="0.5000" /> 
<circle cx="36.0000" cy="86.5400" r="0.5000" /> 
<circle cx="148.0000" cy="92.0000" r="0.5000" /> 
<circle cx="148.0000" cy="94.5400" r="0.5000" /> 
<circle cx="28.0000" cy="84.0000" r="0.5000" /> 
<circle cx="28.0000" cy="86.5400" r="0.5000" /> 
<circle cx="22.0000" cy="92.0000" r="0.5000" /> 
<circle cx="22.0000" cy="94.5400" r="0.5000" /> 
<circle cx="154.0000" cy="64.0000" r="0.5000" /> 
<circle cx="154.0000" cy="66.5400" r="0.5000" /> 
<circle cx="14.0000" cy="78.0000" r="0.5000" /> 
<circle cx="14.0000" cy="80.5400" r="0.5000" /> 
<circle cx="20.0000" cy="84.0000" r="0.5000" /> 
<circle cx="20.0000" cy="86.5400" r="0.5000" /> 
<circle cx="16.0000" cy="92.0000" r="0.5000" /> 
<circle cx="16.0000" cy="94.5400" r="0.5000" /> 
<circle cx="52.0000" cy="92.0000" r="0.5000" /> 
<circle cx="52.0000" cy="94.5400" r="0.5000" /> 
<circle cx="86.7000" cy="44.5400" r="0.5000" /> 
<circle cx="86.7000" cy="90.2600" r="0.5000" /> 
<circle cx="86.7000" cy="92.8000" r="0.5000" /> 
<circle cx="86.7000" cy="95.3400" r="0.5000" /> 
<circle cx="61.3000" cy="42.0000" r="0.5000" /> 
<circle cx="61.3000" cy="44.5400" r="0.5000" /> 
<circle cx="61.3000" cy="47.0800" r="0.5000" /> 
<circle cx="61.3000" cy="49.6200" r="0.5000" /> 
<circle cx="61.3000" cy="52.1600" r="0.5000" /> 
<circle cx="61.3000" cy="54.7000" r="0.5000" /> 
<circle cx="61.3000" cy="57.2400" r="0.5000" /> 
<circle cx="61.3000" cy="59.7800" r="0.5000" /> 
<circle cx="61.3000" cy="62.3200" r="0.5000" /> 
<circle cx="61.3000" cy="64.8600" r="0.5000" /> 
<circle cx="61.3000" cy="67.4000" r="0.5000" /> 
<circle cx="61.3000" cy="69.9400" r="0.5000" /> 
<circle cx="61.3000" cy="72.4800" r="0.5000" /> 
<circle cx="61.3000" cy="75.0200" r="0.5000" /> 
<circle cx="86.7000" cy="49.6200" r="0.5000" /> 
<circle cx="86.7000" cy="47.0800" r="0.5000" /> 
<circle cx="86.7000" cy="52.1600" r="0.5000" /> 
<circle cx="86.7000" cy="54.7000" r="0.5000" /> 
<circle cx="86.7000" cy="57.2400" r="0.5000" /> 
<circle cx="86.7000" cy="59.7800" r="0.5000" /> 
<circle cx="86.7000" cy="62.3200" r="0.5000" /> 
<circle cx="86.7000" cy="64.8600" r="0.5000" /> 
<circle cx="86.7000" cy="67.4000" r="0.5000" /> 
<circle cx="86.7000" cy="69.9400" r="0.5000" /> 
<circle cx="86.7000" cy="72.4800" r="0.5000" /> 
<circle cx="86.7000" cy="75.0200" r="0.5000" /> 
<circle cx="86.7000" cy="77.5600" r="0.5000" /> 
<circle cx="86.7000" cy="80.1000" r="0.5000" /> 
<circle cx="86.7000" cy="82.6400" r="0.5000" /> 
<circle cx="86.7000" cy="85.1800" r="0.5000" /> 
<circle cx="86.7000" cy="87.7200" r="0.5000" /> 
<circle cx="61.3000" cy="95.3400" r="0.5000" /> 
<circle cx="61.3000" cy="92.8000" r="0.5000" /> 
<circle cx="61.3000" cy="90.2600" r="0.5000" /> 
<circle cx="61.3000" cy="87.7200" r="0.5000" /> 
<circle cx="61.3000" cy="85.1800" r="0.5000" /> 
<circle cx="61.3000" cy="82.6400" r="0.5000" /> 
<circle cx="61.3000" cy="77.5600" r="0.5000" /> 
<circle cx="86.7000" cy="42.0000" r="0.5000" /> 
<circle cx="61.3000" cy="80.1000" r="0.5000" /> 
<circle cx="56.0000" cy="76.0000" r="0.5000" /> 
<circle cx="56.0000" cy="78.5400" r="0.5000" /> 
<circle cx="94.0000" cy="92.0000" r="0.5000" /> 
<circle cx="94.0000" cy="94.5400" r="0.5000" /> 
<circle cx="152.0000" cy="12.0000" r="0.5000" /> 
<circle cx="152.0000" cy="14.5400" r="0.5000" /> 
<circle cx="116.0000" cy="92.0000" r="0.5000" /> 
<circle cx="116.0000" cy="94.5400" r="0.5000" /> 
<circle cx="138.0000" cy="92.0000" r="0.5000" /> 
<circle cx="138.0000" cy="94.5400" r="0.5000" /> 
<circle cx="10.0000" cy="92.0000" r="0.5000" /> 
<circle cx="10.0000" cy="94.5400" r="0.5000" /> 
<circle cx="91.0000" cy="76.0000" r="0.6500" /> 
<circle cx="101.1600" cy="76.0000" r="0.6500" /> 
<circle cx="108.7800" cy="76.0000" r="0.6500" /> 
<circle cx="106.2400" cy="68.3800" r="0.6500" /> 
<circle cx="91.0000" cy="68.3800" r="0.6500" /> 
<circle cx="46.0000" cy="92.0000" r="0.5000" /> 
<circle cx="46.0000" cy="94.5400" r="0.5000" /> 
<circle cx="25.0000" cy="76.0000" r="0.6500" /> 
<circle cx="35.1600" cy="76.0000" r="0.6500" /> 
<circle cx="42.7800" cy="76.0000" r="0.6500" /> 
<circle cx="40.2400" cy="68.3800" r="0.6500" /> 
<circle cx="25.0000" cy="68.3800" r="0.6500" /> 
<circle cx="10.0000" cy="25.0000" r="0.6000" /> 
<circle cx="13.5000" cy="25.0000" r="0.6000" /> 
<circle cx="30.0000" cy="92.0000" r="0.4000" /> 
<circle cx="37.5000" cy="94.0000" r="0.4000" /> 
<circle cx="110.0000" cy="30.0000" r="0.6500" /> 
<circle cx="110.0000" cy="37.8000" r="0.6500" /> 
<circle cx="152.5000" cy="22.6000" r="0.6500" /> 
<circle cx="152.5000" cy="45.2000" r="0.6500" /> 
</g> 
</svg>
