<?xml version="1.0" standalone="no"?>
 <!DOCTYPE svg PUBLIC "-//W3C//DTD SVG 1.1//EN" 
 "http://www.w3.org/Graphics/SVG/1.1/DTD/svg11.dtd"> 
<svg
  xmlns:svg="http://www.w3.org/2000/svg"
  xmlns="http://www.w3.org/2000/svg"
  xmlns:xlink="http://www.w3.org/1999/xlink"
  xmlns:inkscape="http://www.inkscape.org/namespaces/inkscape"
  version="1.1"
  width="159.9946mm" height="99.9998mm" viewBox="0.0000 0.0000 159.9946 99.9998">
<title>SVG Image created as esp32_s3_dwm3000_uwb_anchor_with_relay_outputs-Edge_Cuts.svg date 2026-05-27T16:36:03 </title>
  <desc>Image generated by PCBNEW </desc>
<g style="fill:#000000; fill-opacity:1.0000;stroke:#000000; stroke-opacity:1.0000;
stroke-linecap:round; stroke-linejoin:round;"
 transform="translate(0 0) scale(1 1)">
</g>
<g style="fill:none; 
stroke:#D0D2CD; stroke-width:0.1000; stroke-opacity:1; 
stroke-linecap:round; stroke-linejoin:round;">
<path d="M0.0000 0.0000
L160.0000 0.0000
" />
<path d="M0.0000 100.0000
L0.0000 0.0000
" />
<circle cx="3.0000" cy="3.0000" r="1.6000" /> 
<circle cx="3.0000" cy="97.0000" r="1.6000" /> 
<circle cx="157.0000" cy="3.0000" r="1.6000" /> 
<circle cx="157.0000" cy="97.0000" r="1.6000" /> 
<path d="M160.0000 0.0000
L160.0000 100.0000
" />
<path d="M160.0000 100.0000
L0.0000 100.0000
" />
</g>
<g style="fill:#000000; fill-opacity:1.0000; stroke:none;">
<circle cx="32.0000" cy="39.0000" r="0.4000" /> 
<circle cx="39.5000" cy="41.0000" r="0.4000" /> 
<circle cx="28.0000" cy="20.0000" r="0.5000" /> 
<circle cx="28.0000" cy="26.0000" r="0.5000" /> 
<circle cx="61.6000" cy="14.0000" r="0.5000" /> 
<circle cx="61.6000" cy="32.0000" r="0.5000" /> 
<circle cx="91.1000" cy="63.7600" r="0.1000" /> 
<circle cx="91.1000" cy="65.1600" r="0.1000" /> 
<circle cx="91.8000" cy="63.0600" r="0.1000" /> 
<circle cx="91.8000" cy="64.4600" r="0.1000" /> 
<circle cx="91.8000" cy="65.8600" r="0.1000" /> 
<circle cx="92.5000" cy="63.7600" r="0.1000" /> 
<circle cx="92.5000" cy="65.1600" r="0.1000" /> 
<circle cx="93.2000" cy="63.0600" r="0.1000" /> 
<circle cx="93.2000" cy="64.4600" r="0.1000" /> 
<circle cx="93.2000" cy="65.8600" r="0.1000" /> 
<circle cx="93.9000" cy="63.7600" r="0.1000" /> 
<circle cx="93.9000" cy="65.1600" r="0.1000" /> 
<circle cx="25.0000" cy="76.0000" r="0.6500" /> 
<circle cx="35.1600" cy="76.0000" r="0.6500" /> 
<circle cx="42.7800" cy="76.0000" r="0.6500" /> 
<circle cx="40.2400" cy="68.3800" r="0.6500" /> 
<circle cx="25.0000" cy="68.3800" r="0.6500" /> 
<circle cx="10.0000" cy="25.0000" r="0.6000" /> 
<circle cx="13.5000" cy="25.0000" r="0.6000" /> 
<circle cx="152.0000" cy="16.0000" r="0.7500" /> 
<circle cx="149.4600" cy="13.4600" r="0.8500" /> 
<circle cx="149.4600" cy="18.5400" r="0.8500" /> 
<circle cx="154.5400" cy="13.4600" r="0.8500" /> 
<circle cx="154.5400" cy="18.5400" r="0.8500" /> 
<circle cx="67.0000" cy="88.0000" r="0.6500" /> 
<circle cx="77.1600" cy="88.0000" r="0.6500" /> 
<circle cx="84.7800" cy="88.0000" r="0.6500" /> 
<circle cx="82.2400" cy="80.3800" r="0.6500" /> 
<circle cx="67.0000" cy="80.3800" r="0.6500" /> 
</g> 
</svg>
