<?xml version="1.0" standalone="no"?>
 <!DOCTYPE svg PUBLIC "-//W3C//DTD SVG 1.1//EN" 
 "http://www.w3.org/Graphics/SVG/1.1/DTD/svg11.dtd"> 
<svg
  xmlns:svg="http://www.w3.org/2000/svg"
  xmlns="http://www.w3.org/2000/svg"
  xmlns:xlink="http://www.w3.org/1999/xlink"
  xmlns:inkscape="http://www.inkscape.org/namespaces/inkscape"
  version="1.1"
  width="159.9946mm" height="99.9998mm" viewBox="0.0000 0.0000 159.9946 99.9998">
<title>SVG Image created as esp32_s3_dwm3000_uwb_anchor_with_relay_outputs-F_Mask.svg date 2026-05-27T16:36:03 </title>
  <desc>Image generated by PCBNEW </desc>
<g style="fill:#000000; fill-opacity:1.0000;stroke:#000000; stroke-opacity:1.0000;
stroke-linecap:round; stroke-linejoin:round;"
 transform="translate(0 0) scale(1 1)">
<path style="fill:#D864FF; fill-opacity:0.4000; stroke:none;fill-rule:evenodd;"
d="M 11.4515,95.5402
11.5164,95.5836
11.5598,95.6485
11.5750,95.7250
11.5750,96.2750
11.5598,96.3515
11.5164,96.4164
11.4515,96.4598
11.3750,96.4750
10.9750,96.4750
10.8985,96.4598
10.8336,96.4164
10.7902,96.3515
10.7750,96.2750
10.7750,95.7250
10.7902,95.6485
10.8336,95.5836
10.8985,95.5402
10.9750,95.5250
11.3750,95.5250
Z" /> 
<path style="fill:#D864FF; fill-opacity:0.4000; stroke:none;fill-rule:evenodd;"
d="M 13.1015,95.5402
13.1664,95.5836
13.2098,95.6485
13.2250,95.7250
13.2250,96.2750
13.2098,96.3515
13.1664,96.4164
13.1015,96.4598
13.0250,96.4750
12.6250,96.4750
12.5485,96.4598
12.4836,96.4164
12.4402,96.3515
12.4250,96.2750
12.4250,95.7250
12.4402,95.6485
12.4836,95.5836
12.5485,95.5402
12.6250,95.5250
13.0250,95.5250
Z" /> 
<path style="fill:#D864FF; fill-opacity:0.4000; stroke:none;fill-rule:evenodd;"
d="M 29.4515,95.5402
29.5164,95.5836
29.5598,95.6485
29.5750,95.7250
29.5750,96.2750
29.5598,96.3515
29.5164,96.4164
29.4515,96.4598
29.3750,96.4750
28.9750,96.4750
28.8985,96.4598
28.8336,96.4164
28.7902,96.3515
28.7750,96.2750
28.7750,95.7250
28.7902,95.6485
28.8336,95.5836
28.8985,95.5402
28.9750,95.5250
29.3750,95.5250
Z" /> 
<path style="fill:#D864FF; fill-opacity:0.4000; stroke:none;fill-rule:evenodd;"
d="M 31.1015,95.5402
31.1664,95.5836
31.2098,95.6485
31.2250,95.7250
31.2250,96.2750
31.2098,96.3515
31.1664,96.4164
31.1015,96.4598
31.0250,96.4750
30.6250,96.4750
30.5485,96.4598
30.4836,96.4164
30.4402,96.3515
30.4250,96.2750
30.4250,95.7250
30.4402,95.6485
30.4836,95.5836
30.5485,95.5402
30.6250,95.5250
31.0250,95.5250
Z" /> 
<path style="fill:#D864FF; fill-opacity:0.4000; stroke:none;fill-rule:evenodd;"
d="M 47.4515,95.5402
47.5164,95.5836
47.5598,95.6485
47.5750,95.7250
47.5750,96.2750
47.5598,96.3515
47.5164,96.4164
47.4515,96.4598
47.3750,96.4750
46.9750,96.4750
46.8985,96.4598
46.8336,96.4164
46.7902,96.3515
46.7750,96.2750
46.7750,95.7250
46.7902,95.6485
46.8336,95.5836
46.8985,95.5402
46.9750,95.5250
47.3750,95.5250
Z" /> 
<path style="fill:#D864FF; fill-opacity:0.4000; stroke:none;fill-rule:evenodd;"
d="M 49.1015,95.5402
49.1664,95.5836
49.2098,95.6485
49.2250,95.7250
49.2250,96.2750
49.2098,96.3515
49.1664,96.4164
49.1015,96.4598
49.0250,96.4750
48.6250,96.4750
48.5485,96.4598
48.4836,96.4164
48.4402,96.3515
48.4250,96.2750
48.4250,95.7250
48.4402,95.6485
48.4836,95.5836
48.5485,95.5402
48.6250,95.5250
49.0250,95.5250
Z" /> 
<path style="fill:#D864FF; fill-opacity:0.4000; stroke:none;fill-rule:evenodd;"
d="M 65.4515,95.5402
65.5164,95.5836
65.5598,95.6485
65.5750,95.7250
65.5750,96.2750
65.5598,96.3515
65.5164,96.4164
65.4515,96.4598
65.3750,96.4750
64.9750,96.4750
64.8985,96.4598
64.8336,96.4164
64.7902,96.3515
64.7750,96.2750
64.7750,95.7250
64.7902,95.6485
64.8336,95.5836
64.8985,95.5402
64.9750,95.5250
65.3750,95.5250
Z" /> 
<path style="fill:#D864FF; fill-opacity:0.4000; stroke:none;fill-rule:evenodd;"
d="M 67.1015,95.5402
67.1664,95.5836
67.2098,95.6485
67.2250,95.7250
67.2250,96.2750
67.2098,96.3515
67.1664,96.4164
67.1015,96.4598
67.0250,96.4750
66.6250,96.4750
66.5485,96.4598
66.4836,96.4164
66.4402,96.3515
66.4250,96.2750
66.4250,95.7250
66.4402,95.6485
66.4836,95.5836
66.5485,95.5402
66.6250,95.5250
67.0250,95.5250
Z" /> 
<path style="fill:#D864FF; fill-opacity:0.4000; stroke:none;fill-rule:evenodd;"
d="M 83.4515,95.5402
83.5164,95.5836
83.5598,95.6485
83.5750,95.7250
83.5750,96.2750
83.5598,96.3515
83.5164,96.4164
83.4515,96.4598
83.3750,96.4750
82.9750,96.4750
82.8985,96.4598
82.8336,96.4164
82.7902,96.3515
82.7750,96.2750
82.7750,95.7250
82.7902,95.6485
82.8336,95.5836
82.8985,95.5402
82.9750,95.5250
83.3750,95.5250
Z" /> 
<path style="fill:#D864FF; fill-opacity:0.4000; stroke:none;fill-rule:evenodd;"
d="M 85.1015,95.5402
85.1664,95.5836
85.2098,95.6485
85.2250,95.7250
85.2250,96.2750
85.2098,96.3515
85.1664,96.4164
85.1015,96.4598
85.0250,96.4750
84.6250,96.4750
84.5485,96.4598
84.4836,96.4164
84.4402,96.3515
84.4250,96.2750
84.4250,95.7250
84.4402,95.6485
84.4836,95.5836
84.5485,95.5402
84.6250,95.5250
85.0250,95.5250
Z" /> 
<path style="fill:#D864FF; fill-opacity:0.4000; stroke:none;fill-rule:evenodd;"
d="M 101.4515,95.5402
101.5164,95.5836
101.5598,95.6485
101.5750,95.7250
101.5750,96.2750
101.5598,96.3515
101.5164,96.4164
101.4515,96.4598
101.3750,96.4750
100.9750,96.4750
100.8985,96.4598
100.8336,96.4164
100.7902,96.3515
100.7750,96.2750
100.7750,95.7250
100.7902,95.6485
100.8336,95.5836
100.8985,95.5402
100.9750,95.5250
101.3750,95.5250
Z" /> 
<path style="fill:#D864FF; fill-opacity:0.4000; stroke:none;fill-rule:evenodd;"
d="M 103.1015,95.5402
103.1664,95.5836
103.2098,95.6485
103.2250,95.7250
103.2250,96.2750
103.2098,96.3515
103.1664,96.4164
103.1015,96.4598
103.0250,96.4750
102.6250,96.4750
102.5485,96.4598
102.4836,96.4164
102.4402,96.3515
102.4250,96.2750
102.4250,95.7250
102.4402,95.6485
102.4836,95.5836
102.5485,95.5402
102.6250,95.5250
103.0250,95.5250
Z" /> 
<path style="fill:#D864FF; fill-opacity:0.4000; stroke:none;fill-rule:evenodd;"
d="M 119.4515,95.5402
119.5164,95.5836
119.5598,95.6485
119.5750,95.7250
119.5750,96.2750
119.5598,96.3515
119.5164,96.4164
119.4515,96.4598
119.3750,96.4750
118.9750,96.4750
118.8985,96.4598
118.8336,96.4164
118.7902,96.3515
118.7750,96.2750
118.7750,95.7250
118.7902,95.6485
118.8336,95.5836
118.8985,95.5402
118.9750,95.5250
119.3750,95.5250
Z" /> 
<path style="fill:#D864FF; fill-opacity:0.4000; stroke:none;fill-rule:evenodd;"
d="M 121.1015,95.5402
121.1664,95.5836
121.2098,95.6485
121.2250,95.7250
121.2250,96.2750
121.2098,96.3515
121.1664,96.4164
121.1015,96.4598
121.0250,96.4750
120.6250,96.4750
120.5485,96.4598
120.4836,96.4164
120.4402,96.3515
120.4250,96.2750
120.4250,95.7250
120.4402,95.6485
120.4836,95.5836
120.5485,95.5402
120.6250,95.5250
121.0250,95.5250
Z" /> 
<path style="fill:#D864FF; fill-opacity:0.4000; stroke:none;fill-rule:evenodd;"
d="M 137.4515,95.5402
137.5164,95.5836
137.5598,95.6485
137.5750,95.7250
137.5750,96.2750
137.5598,96.3515
137.5164,96.4164
137.4515,96.4598
137.3750,96.4750
136.9750,96.4750
136.8985,96.4598
136.8336,96.4164
136.7902,96.3515
136.7750,96.2750
136.7750,95.7250
136.7902,95.6485
136.8336,95.5836
136.8985,95.5402
136.9750,95.5250
137.3750,95.5250
Z" /> 
<path style="fill:#D864FF; fill-opacity:0.4000; stroke:none;fill-rule:evenodd;"
d="M 139.1015,95.5402
139.1664,95.5836
139.2098,95.6485
139.2250,95.7250
139.2250,96.2750
139.2098,96.3515
139.1664,96.4164
139.1015,96.4598
139.0250,96.4750
138.6250,96.4750
138.5485,96.4598
138.4836,96.4164
138.4402,96.3515
138.4250,96.2750
138.4250,95.7250
138.4402,95.6485
138.4836,95.5836
138.5485,95.5402
138.6250,95.5250
139.0250,95.5250
Z" /> 
<path style="fill:#D864FF; fill-opacity:0.4000; stroke:none;fill-rule:evenodd;"
d="M 11.4515,91.5402
11.5164,91.5836
11.5598,91.6485
11.5750,91.7250
11.5750,92.2750
11.5598,92.3515
11.5164,92.4164
11.4515,92.4598
11.3750,92.4750
10.9750,92.4750
10.8985,92.4598
10.8336,92.4164
10.7902,92.3515
10.7750,92.2750
10.7750,91.7250
10.7902,91.6485
10.8336,91.5836
10.8985,91.5402
10.9750,91.5250
11.3750,91.5250
Z" /> 
<path style="fill:#D864FF; fill-opacity:0.4000; stroke:none;fill-rule:evenodd;"
d="M 13.1015,91.5402
13.1664,91.5836
13.2098,91.6485
13.2250,91.7250
13.2250,92.2750
13.2098,92.3515
13.1664,92.4164
13.1015,92.4598
13.0250,92.4750
12.6250,92.4750
12.5485,92.4598
12.4836,92.4164
12.4402,92.3515
12.4250,92.2750
12.4250,91.7250
12.4402,91.6485
12.4836,91.5836
12.5485,91.5402
12.6250,91.5250
13.0250,91.5250
Z" /> 
<path style="fill:#D864FF; fill-opacity:0.4000; stroke:none;fill-rule:evenodd;"
d="M 29.4515,91.5402
29.5164,91.5836
29.5598,91.6485
29.5750,91.7250
29.5750,92.2750
29.5598,92.3515
29.5164,92.4164
29.4515,92.4598
29.3750,92.4750
28.9750,92.4750
28.8985,92.4598
28.8336,92.4164
28.7902,92.3515
28.7750,92.2750
28.7750,91.7250
28.7902,91.6485
28.8336,91.5836
28.8985,91.5402
28.9750,91.5250
29.3750,91.5250
Z" /> 
<path style="fill:#D864FF; fill-opacity:0.4000; stroke:none;fill-rule:evenodd;"
d="M 31.1015,91.5402
31.1664,91.5836
31.2098,91.6485
31.2250,91.7250
31.2250,92.2750
31.2098,92.3515
31.1664,92.4164
31.1015,92.4598
31.0250,92.4750
30.6250,92.4750
30.5485,92.4598
30.4836,92.4164
30.4402,92.3515
30.4250,92.2750
30.4250,91.7250
30.4402,91.6485
30.4836,91.5836
30.5485,91.5402
30.6250,91.5250
31.0250,91.5250
Z" /> 
<path style="fill:#D864FF; fill-opacity:0.4000; stroke:none;fill-rule:evenodd;"
d="M 35.4515,91.5402
35.5164,91.5836
35.5598,91.6485
35.5750,91.7250
35.5750,92.2750
35.5598,92.3515
35.5164,92.4164
35.4515,92.4598
35.3750,92.4750
34.9750,92.4750
34.8985,92.4598
34.8336,92.4164
34.7902,92.3515
34.7750,92.2750
34.7750,91.7250
34.7902,91.6485
34.8336,91.5836
34.8985,91.5402
34.9750,91.5250
35.3750,91.5250
Z" /> 
<path style="fill:#D864FF; fill-opacity:0.4000; stroke:none;fill-rule:evenodd;"
d="M 37.1015,91.5402
37.1664,91.5836
37.2098,91.6485
37.2250,91.7250
37.2250,92.2750
37.2098,92.3515
37.1664,92.4164
37.1015,92.4598
37.0250,92.4750
36.6250,92.4750
36.5485,92.4598
36.4836,92.4164
36.4402,92.3515
36.4250,92.2750
36.4250,91.7250
36.4402,91.6485
36.4836,91.5836
36.5485,91.5402
36.6250,91.5250
37.0250,91.5250
Z" /> 
<path style="fill:#D864FF; fill-opacity:0.4000; stroke:none;fill-rule:evenodd;"
d="M 47.4515,91.5402
47.5164,91.5836
47.5598,91.6485
47.5750,91.7250
47.5750,92.2750
47.5598,92.3515
47.5164,92.4164
47.4515,92.4598
47.3750,92.4750
46.9750,92.4750
46.8985,92.4598
46.8336,92.4164
46.7902,92.3515
46.7750,92.2750
46.7750,91.7250
46.7902,91.6485
46.8336,91.5836
46.8985,91.5402
46.9750,91.5250
47.3750,91.5250
Z" /> 
<path style="fill:#D864FF; fill-opacity:0.4000; stroke:none;fill-rule:evenodd;"
d="M 49.1015,91.5402
49.1664,91.5836
49.2098,91.6485
49.2250,91.7250
49.2250,92.2750
49.2098,92.3515
49.1664,92.4164
49.1015,92.4598
49.0250,92.4750
48.6250,92.4750
48.5485,92.4598
48.4836,92.4164
48.4402,92.3515
48.4250,92.2750
48.4250,91.7250
48.4402,91.6485
48.4836,91.5836
48.5485,91.5402
48.6250,91.5250
49.0250,91.5250
Z" /> 
<path style="fill:#D864FF; fill-opacity:0.4000; stroke:none;fill-rule:evenodd;"
d="M 53.4515,91.5402
53.5164,91.5836
53.5598,91.6485
53.5750,91.7250
53.5750,92.2750
53.5598,92.3515
53.5164,92.4164
53.4515,92.4598
53.3750,92.4750
52.9750,92.4750
52.8985,92.4598
52.8336,92.4164
52.7902,92.3515
52.7750,92.2750
52.7750,91.7250
52.7902,91.6485
52.8336,91.5836
52.8985,91.5402
52.9750,91.5250
53.3750,91.5250
Z" /> 
<path style="fill:#D864FF; fill-opacity:0.4000; stroke:none;fill-rule:evenodd;"
d="M 55.1015,91.5402
55.1664,91.5836
55.2098,91.6485
55.2250,91.7250
55.2250,92.2750
55.2098,92.3515
55.1664,92.4164
55.1015,92.4598
55.0250,92.4750
54.6250,92.4750
54.5485,92.4598
54.4836,92.4164
54.4402,92.3515
54.4250,92.2750
54.4250,91.7250
54.4402,91.6485
54.4836,91.5836
54.5485,91.5402
54.6250,91.5250
55.0250,91.5250
Z" /> 
<path style="fill:#D864FF; fill-opacity:0.4000; stroke:none;fill-rule:evenodd;"
d="M 65.4515,91.5402
65.5164,91.5836
65.5598,91.6485
65.5750,91.7250
65.5750,92.2750
65.5598,92.3515
65.5164,92.4164
65.4515,92.4598
65.3750,92.4750
64.9750,92.4750
64.8985,92.4598
64.8336,92.4164
64.7902,92.3515
64.7750,92.2750
64.7750,91.7250
64.7902,91.6485
64.8336,91.5836
64.8985,91.5402
64.9750,91.5250
65.3750,91.5250
Z" /> 
<path style="fill:#D864FF; fill-opacity:0.4000; stroke:none;fill-rule:evenodd;"
d="M 67.1015,91.5402
67.1664,91.5836
67.2098,91.6485
67.2250,91.7250
67.2250,92.2750
67.2098,92.3515
67.1664,92.4164
67.1015,92.4598
67.0250,92.4750
66.6250,92.4750
66.5485,92.4598
66.4836,92.4164
66.4402,92.3515
66.4250,92.2750
66.4250,91.7250
66.4402,91.6485
66.4836,91.5836
66.5485,91.5402
66.6250,91.5250
67.0250,91.5250
Z" /> 
<path style="fill:#D864FF; fill-opacity:0.4000; stroke:none;fill-rule:evenodd;"
d="M 71.4515,91.5402
71.5164,91.5836
71.5598,91.6485
71.5750,91.7250
71.5750,92.2750
71.5598,92.3515
71.5164,92.4164
71.4515,92.4598
71.3750,92.4750
70.9750,92.4750
70.8985,92.4598
70.8336,92.4164
70.7902,92.3515
70.7750,92.2750
70.7750,91.7250
70.7902,91.6485
70.8336,91.5836
70.8985,91.5402
70.9750,91.5250
71.3750,91.5250
Z" /> 
<path style="fill:#D864FF; fill-opacity:0.4000; stroke:none;fill-rule:evenodd;"
d="M 73.1015,91.5402
73.1664,91.5836
73.2098,91.6485
73.2250,91.7250
73.2250,92.2750
73.2098,92.3515
73.1664,92.4164
73.1015,92.4598
73.0250,92.4750
72.6250,92.4750
72.5485,92.4598
72.4836,92.4164
72.4402,92.3515
72.4250,92.2750
72.4250,91.7250
72.4402,91.6485
72.4836,91.5836
72.5485,91.5402
72.6250,91.5250
73.0250,91.5250
Z" /> 
<path style="fill:#D864FF; fill-opacity:0.4000; stroke:none;fill-rule:evenodd;"
d="M 83.4515,91.5402
83.5164,91.5836
83.5598,91.6485
83.5750,91.7250
83.5750,92.2750
83.5598,92.3515
83.5164,92.4164
83.4515,92.4598
83.3750,92.4750
82.9750,92.4750
82.8985,92.4598
82.8336,92.4164
82.7902,92.3515
82.7750,92.2750
82.7750,91.7250
82.7902,91.6485
82.8336,91.5836
82.8985,91.5402
82.9750,91.5250
83.3750,91.5250
Z" /> 
<path style="fill:#D864FF; fill-opacity:0.4000; stroke:none;fill-rule:evenodd;"
d="M 85.1015,91.5402
85.1664,91.5836
85.2098,91.6485
85.2250,91.7250
85.2250,92.2750
85.2098,92.3515
85.1664,92.4164
85.1015,92.4598
85.0250,92.4750
84.6250,92.4750
84.5485,92.4598
84.4836,92.4164
84.4402,92.3515
84.4250,92.2750
84.4250,91.7250
84.4402,91.6485
84.4836,91.5836
84.5485,91.5402
84.6250,91.5250
85.0250,91.5250
Z" /> 
<path style="fill:#D864FF; fill-opacity:0.4000; stroke:none;fill-rule:evenodd;"
d="M 89.4515,91.5402
89.5164,91.5836
89.5598,91.6485
89.5750,91.7250
89.5750,92.2750
89.5598,92.3515
89.5164,92.4164
89.4515,92.4598
89.3750,92.4750
88.9750,92.4750
88.8985,92.4598
88.8336,92.4164
88.7902,92.3515
88.7750,92.2750
88.7750,91.7250
88.7902,91.6485
88.8336,91.5836
88.8985,91.5402
88.9750,91.5250
89.3750,91.5250
Z" /> 
<path style="fill:#D864FF; fill-opacity:0.4000; stroke:none;fill-rule:evenodd;"
d="M 91.1015,91.5402
91.1664,91.5836
91.2098,91.6485
91.2250,91.7250
91.2250,92.2750
91.2098,92.3515
91.1664,92.4164
91.1015,92.4598
91.0250,92.4750
90.6250,92.4750
90.5485,92.4598
90.4836,92.4164
90.4402,92.3515
90.4250,92.2750
90.4250,91.7250
90.4402,91.6485
90.4836,91.5836
90.5485,91.5402
90.6250,91.5250
91.0250,91.5250
Z" /> 
<path style="fill:#D864FF; fill-opacity:0.4000; stroke:none;fill-rule:evenodd;"
d="M 101.4515,91.5402
101.5164,91.5836
101.5598,91.6485
101.5750,91.7250
101.5750,92.2750
101.5598,92.3515
101.5164,92.4164
101.4515,92.4598
101.3750,92.4750
100.9750,92.4750
100.8985,92.4598
100.8336,92.4164
100.7902,92.3515
100.7750,92.2750
100.7750,91.7250
100.7902,91.6485
100.8336,91.5836
100.8985,91.5402
100.9750,91.5250
101.3750,91.5250
Z" /> 
<path style="fill:#D864FF; fill-opacity:0.4000; stroke:none;fill-rule:evenodd;"
d="M 103.1015,91.5402
103.1664,91.5836
103.2098,91.6485
103.2250,91.7250
103.2250,92.2750
103.2098,92.3515
103.1664,92.4164
103.1015,92.4598
103.0250,92.4750
102.6250,92.4750
102.5485,92.4598
102.4836,92.4164
102.4402,92.3515
102.4250,92.2750
102.4250,91.7250
102.4402,91.6485
102.4836,91.5836
102.5485,91.5402
102.6250,91.5250
103.0250,91.5250
Z" /> 
<path style="fill:#D864FF; fill-opacity:0.4000; stroke:none;fill-rule:evenodd;"
d="M 119.4515,91.5402
119.5164,91.5836
119.5598,91.6485
119.5750,91.7250
119.5750,92.2750
119.5598,92.3515
119.5164,92.4164
119.4515,92.4598
119.3750,92.4750
118.9750,92.4750
118.8985,92.4598
118.8336,92.4164
118.7902,92.3515
118.7750,92.2750
118.7750,91.7250
118.7902,91.6485
118.8336,91.5836
118.8985,91.5402
118.9750,91.5250
119.3750,91.5250
Z" /> 
<path style="fill:#D864FF; fill-opacity:0.4000; stroke:none;fill-rule:evenodd;"
d="M 121.1015,91.5402
121.1664,91.5836
121.2098,91.6485
121.2250,91.7250
121.2250,92.2750
121.2098,92.3515
121.1664,92.4164
121.1015,92.4598
121.0250,92.4750
120.6250,92.4750
120.5485,92.4598
120.4836,92.4164
120.4402,92.3515
120.4250,92.2750
120.4250,91.7250
120.4402,91.6485
120.4836,91.5836
120.5485,91.5402
120.6250,91.5250
121.0250,91.5250
Z" /> 
<path style="fill:#D864FF; fill-opacity:0.4000; stroke:none;fill-rule:evenodd;"
d="M 137.4515,91.5402
137.5164,91.5836
137.5598,91.6485
137.5750,91.7250
137.5750,92.2750
137.5598,92.3515
137.5164,92.4164
137.4515,92.4598
137.3750,92.4750
136.9750,92.4750
136.8985,92.4598
136.8336,92.4164
136.7902,92.3515
136.7750,92.2750
136.7750,91.7250
136.7902,91.6485
136.8336,91.5836
136.8985,91.5402
136.9750,91.5250
137.3750,91.5250
Z" /> 
<path style="fill:#D864FF; fill-opacity:0.4000; stroke:none;fill-rule:evenodd;"
d="M 139.1015,91.5402
139.1664,91.5836
139.2098,91.6485
139.2250,91.7250
139.2250,92.2750
139.2098,92.3515
139.1664,92.4164
139.1015,92.4598
139.0250,92.4750
138.6250,92.4750
138.5485,92.4598
138.4836,92.4164
138.4402,92.3515
138.4250,92.2750
138.4250,91.7250
138.4402,91.6485
138.4836,91.5836
138.5485,91.5402
138.6250,91.5250
139.0250,91.5250
Z" /> 
<path style="fill:#D864FF; fill-opacity:0.4000; stroke:none;fill-rule:evenodd;"
d="M 68.1500,89.1500
65.8500,89.1500
65.8500,86.8500
68.1500,86.8500
Z" /> 
<path style="fill:#D864FF; fill-opacity:0.4000; stroke:none;fill-rule:evenodd;"
d="M 77.4285,86.8818
77.6001,86.9375
77.7609,87.0195
77.9069,87.1255
78.0345,87.2531
78.1405,87.3991
78.2225,87.5599
78.2782,87.7315
78.3065,87.9098
78.3065,88.0902
78.2782,88.2685
78.2225,88.4401
78.1405,88.6009
78.0345,88.7469
77.9069,88.8745
77.7609,88.9805
77.6001,89.0625
77.4285,89.1182
77.2502,89.1465
77.0698,89.1465
76.8915,89.1182
76.7199,89.0625
76.5591,88.9805
76.4131,88.8745
76.2855,88.7469
76.1795,88.6009
76.0975,88.4401
76.0418,88.2685
76.0135,88.0902
76.0135,87.9098
76.0418,87.7315
76.0975,87.5599
76.1795,87.3991
76.2855,87.2531
76.4131,87.1255
76.5591,87.0195
76.7199,86.9375
76.8915,86.8818
77.0698,86.8535
77.2502,86.8535
Z" /> 
<path style="fill:#D864FF; fill-opacity:0.4000; stroke:none;fill-rule:evenodd;"
d="M 85.0485,86.8818
85.2201,86.9375
85.3809,87.0195
85.5269,87.1255
85.6545,87.2531
85.7605,87.3991
85.8425,87.5599
85.8982,87.7315
85.9265,87.9098
85.9265,88.0902
85.8982,88.2685
85.8425,88.4401
85.7605,88.6009
85.6545,88.7469
85.5269,88.8745
85.3809,88.9805
85.2201,89.0625
85.0485,89.1182
84.8702,89.1465
84.6898,89.1465
84.5115,89.1182
84.3399,89.0625
84.1791,88.9805
84.0331,88.8745
83.9055,88.7469
83.7995,88.6009
83.7175,88.4401
83.6618,88.2685
83.6335,88.0902
83.6335,87.9098
83.6618,87.7315
83.7175,87.5599
83.7995,87.3991
83.9055,87.2531
84.0331,87.1255
84.1791,87.0195
84.3399,86.9375
84.5115,86.8818
84.6898,86.8535
84.8702,86.8535
Z" /> 
<path style="fill:#D864FF; fill-opacity:0.4000; stroke:none;fill-rule:evenodd;"
d="M 11.4515,87.5402
11.5164,87.5836
11.5598,87.6485
11.5750,87.7250
11.5750,88.2750
11.5598,88.3515
11.5164,88.4164
11.4515,88.4598
11.3750,88.4750
10.9750,88.4750
10.8985,88.4598
10.8336,88.4164
10.7902,88.3515
10.7750,88.2750
10.7750,87.7250
10.7902,87.6485
10.8336,87.5836
10.8985,87.5402
10.9750,87.5250
11.3750,87.5250
Z" /> 
<path style="fill:#D864FF; fill-opacity:0.4000; stroke:none;fill-rule:evenodd;"
d="M 13.1015,87.5402
13.1664,87.5836
13.2098,87.6485
13.2250,87.7250
13.2250,88.2750
13.2098,88.3515
13.1664,88.4164
13.1015,88.4598
13.0250,88.4750
12.6250,88.4750
12.5485,88.4598
12.4836,88.4164
12.4402,88.3515
12.4250,88.2750
12.4250,87.7250
12.4402,87.6485
12.4836,87.5836
12.5485,87.5402
12.6250,87.5250
13.0250,87.5250
Z" /> 
<path style="fill:#D864FF; fill-opacity:0.4000; stroke:none;fill-rule:evenodd;"
d="M 29.4515,87.5402
29.5164,87.5836
29.5598,87.6485
29.5750,87.7250
29.5750,88.2750
29.5598,88.3515
29.5164,88.4164
29.4515,88.4598
29.3750,88.4750
28.9750,88.4750
28.8985,88.4598
28.8336,88.4164
28.7902,88.3515
28.7750,88.2750
28.7750,87.7250
28.7902,87.6485
28.8336,87.5836
28.8985,87.5402
28.9750,87.5250
29.3750,87.5250
Z" /> 
<path style="fill:#D864FF; fill-opacity:0.4000; stroke:none;fill-rule:evenodd;"
d="M 31.1015,87.5402
31.1664,87.5836
31.2098,87.6485
31.2250,87.7250
31.2250,88.2750
31.2098,88.3515
31.1664,88.4164
31.1015,88.4598
31.0250,88.4750
30.6250,88.4750
30.5485,88.4598
30.4836,88.4164
30.4402,88.3515
30.4250,88.2750
30.4250,87.7250
30.4402,87.6485
30.4836,87.5836
30.5485,87.5402
30.6250,87.5250
31.0250,87.5250
Z" /> 
<path style="fill:#D864FF; fill-opacity:0.4000; stroke:none;fill-rule:evenodd;"
d="M 47.4515,87.5402
47.5164,87.5836
47.5598,87.6485
47.5750,87.7250
47.5750,88.2750
47.5598,88.3515
47.5164,88.4164
47.4515,88.4598
47.3750,88.4750
46.9750,88.4750
46.8985,88.4598
46.8336,88.4164
46.7902,88.3515
46.7750,88.2750
46.7750,87.7250
46.7902,87.6485
46.8336,87.5836
46.8985,87.5402
46.9750,87.5250
47.3750,87.5250
Z" /> 
<path style="fill:#D864FF; fill-opacity:0.4000; stroke:none;fill-rule:evenodd;"
d="M 49.1015,87.5402
49.1664,87.5836
49.2098,87.6485
49.2250,87.7250
49.2250,88.2750
49.2098,88.3515
49.1664,88.4164
49.1015,88.4598
49.0250,88.4750
48.6250,88.4750
48.5485,88.4598
48.4836,88.4164
48.4402,88.3515
48.4250,88.2750
48.4250,87.7250
48.4402,87.6485
48.4836,87.5836
48.5485,87.5402
48.6250,87.5250
49.0250,87.5250
Z" /> 
<path style="fill:#D864FF; fill-opacity:0.4000; stroke:none;fill-rule:evenodd;"
d="M 61.4515,87.5402
61.5164,87.5836
61.5598,87.6485
61.5750,87.7250
61.5750,88.2750
61.5598,88.3515
61.5164,88.4164
61.4515,88.4598
61.3750,88.4750
60.9750,88.4750
60.8985,88.4598
60.8336,88.4164
60.7902,88.3515
60.7750,88.2750
60.7750,87.7250
60.7902,87.6485
60.8336,87.5836
60.8985,87.5402
60.9750,87.5250
61.3750,87.5250
Z" /> 
<path style="fill:#D864FF; fill-opacity:0.4000; stroke:none;fill-rule:evenodd;"
d="M 63.1015,87.5402
63.1664,87.5836
63.2098,87.6485
63.2250,87.7250
63.2250,88.2750
63.2098,88.3515
63.1664,88.4164
63.1015,88.4598
63.0250,88.4750
62.6250,88.4750
62.5485,88.4598
62.4836,88.4164
62.4402,88.3515
62.4250,88.2750
62.4250,87.7250
62.4402,87.6485
62.4836,87.5836
62.5485,87.5402
62.6250,87.5250
63.0250,87.5250
Z" /> 
<path style="fill:#D864FF; fill-opacity:0.4000; stroke:none;fill-rule:evenodd;"
d="M 89.4515,86.5402
89.5164,86.5836
89.5598,86.6485
89.5750,86.7250
89.5750,87.2750
89.5598,87.3515
89.5164,87.4164
89.4515,87.4598
89.3750,87.4750
88.9750,87.4750
88.8985,87.4598
88.8336,87.4164
88.7902,87.3515
88.7750,87.2750
88.7750,86.7250
88.7902,86.6485
88.8336,86.5836
88.8985,86.5402
88.9750,86.5250
89.3750,86.5250
Z" /> 
<path style="fill:#D864FF; fill-opacity:0.4000; stroke:none;fill-rule:evenodd;"
d="M 91.1015,86.5402
91.1664,86.5836
91.2098,86.6485
91.2250,86.7250
91.2250,87.2750
91.2098,87.3515
91.1664,87.4164
91.1015,87.4598
91.0250,87.4750
90.6250,87.4750
90.5485,87.4598
90.4836,87.4164
90.4402,87.3515
90.4250,87.2750
90.4250,86.7250
90.4402,86.6485
90.4836,86.5836
90.5485,86.5402
90.6250,86.5250
91.0250,86.5250
Z" /> 
<path style="fill:#D864FF; fill-opacity:0.4000; stroke:none;fill-rule:evenodd;"
d="M 101.4515,86.5402
101.5164,86.5836
101.5598,86.6485
101.5750,86.7250
101.5750,87.2750
101.5598,87.3515
101.5164,87.4164
101.4515,87.4598
101.3750,87.4750
100.9750,87.4750
100.8985,87.4598
100.8336,87.4164
100.7902,87.3515
100.7750,87.2750
100.7750,86.7250
100.7902,86.6485
100.8336,86.5836
100.8985,86.5402
100.9750,86.5250
101.3750,86.5250
Z" /> 
<path style="fill:#D864FF; fill-opacity:0.4000; stroke:none;fill-rule:evenodd;"
d="M 103.1015,86.5402
103.1664,86.5836
103.2098,86.6485
103.2250,86.7250
103.2250,87.2750
103.2098,87.3515
103.1664,87.4164
103.1015,87.4598
103.0250,87.4750
102.6250,87.4750
102.5485,87.4598
102.4836,87.4164
102.4402,87.3515
102.4250,87.2750
102.4250,86.7250
102.4402,86.6485
102.4836,86.5836
102.5485,86.5402
102.6250,86.5250
103.0250,86.5250
Z" /> 
<path style="fill:#D864FF; fill-opacity:0.4000; stroke:none;fill-rule:evenodd;"
d="M 119.4515,86.5402
119.5164,86.5836
119.5598,86.6485
119.5750,86.7250
119.5750,87.2750
119.5598,87.3515
119.5164,87.4164
119.4515,87.4598
119.3750,87.4750
118.9750,87.4750
118.8985,87.4598
118.8336,87.4164
118.7902,87.3515
118.7750,87.2750
118.7750,86.7250
118.7902,86.6485
118.8336,86.5836
118.8985,86.5402
118.9750,86.5250
119.3750,86.5250
Z" /> 
<path style="fill:#D864FF; fill-opacity:0.4000; stroke:none;fill-rule:evenodd;"
d="M 121.1015,86.5402
121.1664,86.5836
121.2098,86.6485
121.2250,86.7250
121.2250,87.2750
121.2098,87.3515
121.1664,87.4164
121.1015,87.4598
121.0250,87.4750
120.6250,87.4750
120.5485,87.4598
120.4836,87.4164
120.4402,87.3515
120.4250,87.2750
120.4250,86.7250
120.4402,86.6485
120.4836,86.5836
120.5485,86.5402
120.6250,86.5250
121.0250,86.5250
Z" /> 
<path style="fill:#D864FF; fill-opacity:0.4000; stroke:none;fill-rule:evenodd;"
d="M 137.4515,86.5402
137.5164,86.5836
137.5598,86.6485
137.5750,86.7250
137.5750,87.2750
137.5598,87.3515
137.5164,87.4164
137.4515,87.4598
137.3750,87.4750
136.9750,87.4750
136.8985,87.4598
136.8336,87.4164
136.7902,87.3515
136.7750,87.2750
136.7750,86.7250
136.7902,86.6485
136.8336,86.5836
136.8985,86.5402
136.9750,86.5250
137.3750,86.5250
Z" /> 
<path style="fill:#D864FF; fill-opacity:0.4000; stroke:none;fill-rule:evenodd;"
d="M 139.1015,86.5402
139.1664,86.5836
139.2098,86.6485
139.2250,86.7250
139.2250,87.2750
139.2098,87.3515
139.1664,87.4164
139.1015,87.4598
139.0250,87.4750
138.6250,87.4750
138.5485,87.4598
138.4836,87.4164
138.4402,87.3515
138.4250,87.2750
138.4250,86.7250
138.4402,86.6485
138.4836,86.5836
138.5485,86.5402
138.6250,86.5250
139.0250,86.5250
Z" /> 
<path style="fill:#D864FF; fill-opacity:0.4000; stroke:none;fill-rule:evenodd;"
d="M 93.5361,81.5421
93.6091,81.5909
93.6579,81.6639
93.6750,81.7500
93.6750,82.2500
93.6579,82.3361
93.6091,82.4091
93.5361,82.4579
93.4500,82.4750
93.0000,82.4750
92.9139,82.4579
92.8409,82.4091
92.7921,82.3361
92.7750,82.2500
92.7750,81.7500
92.7921,81.6639
92.8409,81.5909
92.9139,81.5421
93.0000,81.5250
93.4500,81.5250
Z" /> 
<path style="fill:#D864FF; fill-opacity:0.4000; stroke:none;fill-rule:evenodd;"
d="M 95.0861,81.5421
95.1591,81.5909
95.2079,81.6639
95.2250,81.7500
95.2250,82.2500
95.2079,82.3361
95.1591,82.4091
95.0861,82.4579
95.0000,82.4750
94.5500,82.4750
94.4639,82.4579
94.3909,82.4091
94.3421,82.3361
94.3250,82.2500
94.3250,81.7500
94.3421,81.6639
94.3909,81.5909
94.4639,81.5421
94.5500,81.5250
95.0000,81.5250
Z" /> 
<path style="fill:#D864FF; fill-opacity:0.4000; stroke:none;fill-rule:evenodd;"
d="M 67.2685,79.2618
67.4401,79.3175
67.6009,79.3995
67.7469,79.5055
67.8745,79.6331
67.9805,79.7791
68.0625,79.9399
68.1182,80.1115
68.1465,80.2898
68.1465,80.4702
68.1182,80.6485
68.0625,80.8201
67.9805,80.9809
67.8745,81.1269
67.7469,81.2545
67.6009,81.3605
67.4401,81.4425
67.2685,81.4982
67.0902,81.5265
66.9098,81.5265
66.7315,81.4982
66.5599,81.4425
66.3991,81.3605
66.2531,81.2545
66.1255,81.1269
66.0195,80.9809
65.9375,80.8201
65.8818,80.6485
65.8535,80.4702
65.8535,80.2898
65.8818,80.1115
65.9375,79.9399
66.0195,79.7791
66.1255,79.6331
66.2531,79.5055
66.3991,79.3995
66.5599,79.3175
66.7315,79.2618
66.9098,79.2335
67.0902,79.2335
Z" /> 
<path style="fill:#D864FF; fill-opacity:0.4000; stroke:none;fill-rule:evenodd;"
d="M 82.5085,79.2618
82.6801,79.3175
82.8409,79.3995
82.9869,79.5055
83.1145,79.6331
83.2205,79.7791
83.3025,79.9399
83.3582,80.1115
83.3865,80.2898
83.3865,80.4702
83.3582,80.6485
83.3025,80.8201
83.2205,80.9809
83.1145,81.1269
82.9869,81.2545
82.8409,81.3605
82.6801,81.4425
82.5085,81.4982
82.3302,81.5265
82.1498,81.5265
81.9715,81.4982
81.7999,81.4425
81.6391,81.3605
81.4931,81.2545
81.3655,81.1269
81.2595,80.9809
81.1775,80.8201
81.1218,80.6485
81.0935,80.4702
81.0935,80.2898
81.1218,80.1115
81.1775,79.9399
81.2595,79.7791
81.3655,79.6331
81.4931,79.5055
81.6391,79.3995
81.7999,79.3175
81.9715,79.2618
82.1498,79.2335
82.3302,79.2335
Z" /> 
<path style="fill:#D864FF; fill-opacity:0.4000; stroke:none;fill-rule:evenodd;"
d="M 107.4515,77.9002
107.5164,77.9436
107.5598,78.0085
107.5750,78.0850
107.5750,78.6350
107.5598,78.7115
107.5164,78.7764
107.4515,78.8198
107.3750,78.8350
106.9750,78.8350
106.8985,78.8198
106.8336,78.7764
106.7902,78.7115
106.7750,78.6350
106.7750,78.0850
106.7902,78.0085
106.8336,77.9436
106.8985,77.9002
106.9750,77.8850
107.3750,77.8850
Z" /> 
<path style="fill:#D864FF; fill-opacity:0.4000; stroke:none;fill-rule:evenodd;"
d="M 109.1015,77.9002
109.1664,77.9436
109.2098,78.0085
109.2250,78.0850
109.2250,78.6350
109.2098,78.7115
109.1664,78.7764
109.1015,78.8198
109.0250,78.8350
108.6250,78.8350
108.5485,78.8198
108.4836,78.7764
108.4402,78.7115
108.4250,78.6350
108.4250,78.0850
108.4402,78.0085
108.4836,77.9436
108.5485,77.9002
108.6250,77.8850
109.0250,77.8850
Z" /> 
<path style="fill:#D864FF; fill-opacity:0.4000; stroke:none;fill-rule:evenodd;"
d="M 95.4515,77.1702
95.5164,77.2136
95.5598,77.2785
95.5750,77.3550
95.5750,77.9050
95.5598,77.9815
95.5164,78.0464
95.4515,78.0898
95.3750,78.1050
94.9750,78.1050
94.8985,78.0898
94.8336,78.0464
94.7902,77.9815
94.7750,77.9050
94.7750,77.3550
94.7902,77.2785
94.8336,77.2136
94.8985,77.1702
94.9750,77.1550
95.3750,77.1550
Z" /> 
<path style="fill:#D864FF; fill-opacity:0.4000; stroke:none;fill-rule:evenodd;"
d="M 97.1015,77.1702
97.1664,77.2136
97.2098,77.2785
97.2250,77.3550
97.2250,77.9050
97.2098,77.9815
97.1664,78.0464
97.1015,78.0898
97.0250,78.1050
96.6250,78.1050
96.5485,78.0898
96.4836,78.0464
96.4402,77.9815
96.4250,77.9050
96.4250,77.3550
96.4402,77.2785
96.4836,77.2136
96.5485,77.1702
96.6250,77.1550
97.0250,77.1550
Z" /> 
<path style="fill:#D864FF; fill-opacity:0.4000; stroke:none;fill-rule:evenodd;"
d="M 121.4515,76.6302
121.5164,76.6736
121.5598,76.7385
121.5750,76.8150
121.5750,77.3650
121.5598,77.4415
121.5164,77.5064
121.4515,77.5498
121.3750,77.5650
120.9750,77.5650
120.8985,77.5498
120.8336,77.5064
120.7902,77.4415
120.7750,77.3650
120.7750,76.8150
120.7902,76.7385
120.8336,76.6736
120.8985,76.6302
120.9750,76.6150
121.3750,76.6150
Z" /> 
<path style="fill:#D864FF; fill-opacity:0.4000; stroke:none;fill-rule:evenodd;"
d="M 123.1015,76.6302
123.1664,76.6736
123.2098,76.7385
123.2250,76.8150
123.2250,77.3650
123.2098,77.4415
123.1664,77.5064
123.1015,77.5498
123.0250,77.5650
122.6250,77.5650
122.5485,77.5498
122.4836,77.5064
122.4402,77.4415
122.4250,77.3650
122.4250,76.8150
122.4402,76.7385
122.4836,76.6736
122.5485,76.6302
122.6250,76.6150
123.0250,76.6150
Z" /> 
<path style="fill:#D864FF; fill-opacity:0.4000; stroke:none;fill-rule:evenodd;"
d="M 26.1500,77.1500
23.8500,77.1500
23.8500,74.8500
26.1500,74.8500
Z" /> 
<path style="fill:#D864FF; fill-opacity:0.4000; stroke:none;fill-rule:evenodd;"
d="M 35.4285,74.8818
35.6001,74.9375
35.7609,75.0195
35.9069,75.1255
36.0345,75.2531
36.1405,75.3991
36.2225,75.5599
36.2782,75.7315
36.3065,75.9098
36.3065,76.0902
36.2782,76.2685
36.2225,76.4401
36.1405,76.6009
36.0345,76.7469
35.9069,76.8745
35.7609,76.9805
35.6001,77.0625
35.4285,77.1182
35.2502,77.1465
35.0698,77.1465
34.8915,77.1182
34.7199,77.0625
34.5591,76.9805
34.4131,76.8745
34.2855,76.7469
34.1795,76.6009
34.0975,76.4401
34.0418,76.2685
34.0135,76.0902
34.0135,75.9098
34.0418,75.7315
34.0975,75.5599
34.1795,75.3991
34.2855,75.2531
34.4131,75.1255
34.5591,75.0195
34.7199,74.9375
34.8915,74.8818
35.0698,74.8535
35.2502,74.8535
Z" /> 
<path style="fill:#D864FF; fill-opacity:0.4000; stroke:none;fill-rule:evenodd;"
d="M 43.0485,74.8818
43.2201,74.9375
43.3809,75.0195
43.5269,75.1255
43.6545,75.2531
43.7605,75.3991
43.8425,75.5599
43.8982,75.7315
43.9265,75.9098
43.9265,76.0902
43.8982,76.2685
43.8425,76.4401
43.7605,76.6009
43.6545,76.7469
43.5269,76.8745
43.3809,76.9805
43.2201,77.0625
43.0485,77.1182
42.8702,77.1465
42.6898,77.1465
42.5115,77.1182
42.3399,77.0625
42.1791,76.9805
42.0331,76.8745
41.9055,76.7469
41.7995,76.6009
41.7175,76.4401
41.6618,76.2685
41.6335,76.0902
41.6335,75.9098
41.6618,75.7315
41.7175,75.5599
41.7995,75.3991
41.9055,75.2531
42.0331,75.1255
42.1791,75.0195
42.3399,74.9375
42.5115,74.8818
42.6898,74.8535
42.8702,74.8535
Z" /> 
<path style="fill:#D864FF; fill-opacity:0.4000; stroke:none;fill-rule:evenodd;"
d="M 87.4650,75.2500
86.5650,75.2500
86.5650,73.7500
87.4650,73.7500
Z" /> 
<path style="fill:#D864FF; fill-opacity:0.4000; stroke:none;fill-rule:evenodd;"
d="M 88.7350,75.2500
87.8350,75.2500
87.8350,73.7500
88.7350,73.7500
Z" /> 
<path style="fill:#D864FF; fill-opacity:0.4000; stroke:none;fill-rule:evenodd;"
d="M 90.0050,75.2500
89.1050,75.2500
89.1050,73.7500
90.0050,73.7500
Z" /> 
<path style="fill:#D864FF; fill-opacity:0.4000; stroke:none;fill-rule:evenodd;"
d="M 91.2750,75.2500
90.3750,75.2500
90.3750,73.7500
91.2750,73.7500
Z" /> 
<path style="fill:#D864FF; fill-opacity:0.4000; stroke:none;fill-rule:evenodd;"
d="M 92.5450,75.2500
91.6450,75.2500
91.6450,73.7500
92.5450,73.7500
Z" /> 
<path style="fill:#D864FF; fill-opacity:0.4000; stroke:none;fill-rule:evenodd;"
d="M 93.8150,75.2500
92.9150,75.2500
92.9150,73.7500
93.8150,73.7500
Z" /> 
<path style="fill:#D864FF; fill-opacity:0.4000; stroke:none;fill-rule:evenodd;"
d="M 95.0850,75.2500
94.1850,75.2500
94.1850,73.7500
95.0850,73.7500
Z" /> 
<path style="fill:#D864FF; fill-opacity:0.4000; stroke:none;fill-rule:evenodd;"
d="M 96.3550,75.2500
95.4550,75.2500
95.4550,73.7500
96.3550,73.7500
Z" /> 
<path style="fill:#D864FF; fill-opacity:0.4000; stroke:none;fill-rule:evenodd;"
d="M 97.6250,75.2500
96.7250,75.2500
96.7250,73.7500
97.6250,73.7500
Z" /> 
<path style="fill:#D864FF; fill-opacity:0.4000; stroke:none;fill-rule:evenodd;"
d="M 98.8950,75.2500
97.9950,75.2500
97.9950,73.7500
98.8950,73.7500
Z" /> 
<path style="fill:#D864FF; fill-opacity:0.4000; stroke:none;fill-rule:evenodd;"
d="M 100.1650,75.2500
99.2650,75.2500
99.2650,73.7500
100.1650,73.7500
Z" /> 
<path style="fill:#D864FF; fill-opacity:0.4000; stroke:none;fill-rule:evenodd;"
d="M 101.4350,75.2500
100.5350,75.2500
100.5350,73.7500
101.4350,73.7500
Z" /> 
<path style="fill:#D864FF; fill-opacity:0.4000; stroke:none;fill-rule:evenodd;"
d="M 86.0000,73.7000
84.5000,73.7000
84.5000,72.8000
86.0000,72.8000
Z" /> 
<path style="fill:#D864FF; fill-opacity:0.4000; stroke:none;fill-rule:evenodd;"
d="M 103.5000,73.7000
102.0000,73.7000
102.0000,72.8000
103.5000,72.8000
Z" /> 
<path style="fill:#D864FF; fill-opacity:0.4000; stroke:none;fill-rule:evenodd;"
d="M 86.0000,72.4300
84.5000,72.4300
84.5000,71.5300
86.0000,71.5300
Z" /> 
<path style="fill:#D864FF; fill-opacity:0.4000; stroke:none;fill-rule:evenodd;"
d="M 103.5000,72.4300
102.0000,72.4300
102.0000,71.5300
103.5000,71.5300
Z" /> 
<path style="fill:#D864FF; fill-opacity:0.4000; stroke:none;fill-rule:evenodd;"
d="M 86.0000,71.1600
84.5000,71.1600
84.5000,70.2600
86.0000,70.2600
Z" /> 
<path style="fill:#D864FF; fill-opacity:0.4000; stroke:none;fill-rule:evenodd;"
d="M 103.5000,71.1600
102.0000,71.1600
102.0000,70.2600
103.5000,70.2600
Z" /> 
<path style="fill:#D864FF; fill-opacity:0.4000; stroke:none;fill-rule:evenodd;"
d="M 86.0000,69.8900
84.5000,69.8900
84.5000,68.9900
86.0000,68.9900
Z" /> 
<path style="fill:#D864FF; fill-opacity:0.4000; stroke:none;fill-rule:evenodd;"
d="M 103.5000,69.8900
102.0000,69.8900
102.0000,68.9900
103.5000,68.9900
Z" /> 
<path style="fill:#D864FF; fill-opacity:0.4000; stroke:none;fill-rule:evenodd;"
d="M 25.2685,67.2618
25.4401,67.3175
25.6009,67.3995
25.7469,67.5055
25.8745,67.6331
25.9805,67.7791
26.0625,67.9399
26.1182,68.1115
26.1465,68.2898
26.1465,68.4702
26.1182,68.6485
26.0625,68.8201
25.9805,68.9809
25.8745,69.1269
25.7469,69.2545
25.6009,69.3605
25.4401,69.4425
25.2685,69.4982
25.0902,69.5265
24.9098,69.5265
24.7315,69.4982
24.5599,69.4425
24.3991,69.3605
24.2531,69.2545
24.1255,69.1269
24.0195,68.9809
23.9375,68.8201
23.8818,68.6485
23.8535,68.4702
23.8535,68.2898
23.8818,68.1115
23.9375,67.9399
24.0195,67.7791
24.1255,67.6331
24.2531,67.5055
24.3991,67.3995
24.5599,67.3175
24.7315,67.2618
24.9098,67.2335
25.0902,67.2335
Z" /> 
<path style="fill:#D864FF; fill-opacity:0.4000; stroke:none;fill-rule:evenodd;"
d="M 40.5085,67.2618
40.6801,67.3175
40.8409,67.3995
40.9869,67.5055
41.1145,67.6331
41.2205,67.7791
41.3025,67.9399
41.3582,68.1115
41.3865,68.2898
41.3865,68.4702
41.3582,68.6485
41.3025,68.8201
41.2205,68.9809
41.1145,69.1269
40.9869,69.2545
40.8409,69.3605
40.6801,69.4425
40.5085,69.4982
40.3302,69.5265
40.1498,69.5265
39.9715,69.4982
39.7999,69.4425
39.6391,69.3605
39.4931,69.2545
39.3655,69.1269
39.2595,68.9809
39.1775,68.8201
39.1218,68.6485
39.0935,68.4702
39.0935,68.2898
39.1218,68.1115
39.1775,67.9399
39.2595,67.7791
39.3655,67.6331
39.4931,67.5055
39.6391,67.3995
39.7999,67.3175
39.9715,67.2618
40.1498,67.2335
40.3302,67.2335
Z" /> 
<path style="fill:#D864FF; fill-opacity:0.4000; stroke:none;fill-rule:evenodd;"
d="M 86.0000,68.6200
84.5000,68.6200
84.5000,67.7200
86.0000,67.7200
Z" /> 
<path style="fill:#D864FF; fill-opacity:0.4000; stroke:none;fill-rule:evenodd;"
d="M 103.5000,68.6200
102.0000,68.6200
102.0000,67.7200
103.5000,67.7200
Z" /> 
<path style="fill:#D864FF; fill-opacity:0.4000; stroke:none;fill-rule:evenodd;"
d="M 86.0000,67.3500
84.5000,67.3500
84.5000,66.4500
86.0000,66.4500
Z" /> 
<path style="fill:#D864FF; fill-opacity:0.4000; stroke:none;fill-rule:evenodd;"
d="M 103.5000,67.3500
102.0000,67.3500
102.0000,66.4500
103.5000,66.4500
Z" /> 
<path style="fill:#D864FF; fill-opacity:0.4000; stroke:none;fill-rule:evenodd;"
d="M 94.4500,66.4100
90.5500,66.4100
90.5500,62.5100
94.4500,62.5100
Z" /> 
<path style="fill:#D864FF; fill-opacity:0.4000; stroke:none;fill-rule:evenodd;"
d="M 86.0000,66.0800
84.5000,66.0800
84.5000,65.1800
86.0000,65.1800
Z" /> 
<path style="fill:#D864FF; fill-opacity:0.4000; stroke:none;fill-rule:evenodd;"
d="M 103.5000,66.0800
102.0000,66.0800
102.0000,65.1800
103.5000,65.1800
Z" /> 
<path style="fill:#D864FF; fill-opacity:0.4000; stroke:none;fill-rule:evenodd;"
d="M 86.0000,64.8100
84.5000,64.8100
84.5000,63.9100
86.0000,63.9100
Z" /> 
<path style="fill:#D864FF; fill-opacity:0.4000; stroke:none;fill-rule:evenodd;"
d="M 103.5000,64.8100
102.0000,64.8100
102.0000,63.9100
103.5000,63.9100
Z" /> 
<path style="fill:#D864FF; fill-opacity:0.4000; stroke:none;fill-rule:evenodd;"
d="M 86.0000,63.5400
84.5000,63.5400
84.5000,62.6400
86.0000,62.6400
Z" /> 
<path style="fill:#D864FF; fill-opacity:0.4000; stroke:none;fill-rule:evenodd;"
d="M 103.5000,63.5400
102.0000,63.5400
102.0000,62.6400
103.5000,62.6400
Z" /> 
<path style="fill:#D864FF; fill-opacity:0.4000; stroke:none;fill-rule:evenodd;"
d="M 121.4515,61.3602
121.5164,61.4036
121.5598,61.4685
121.5750,61.5450
121.5750,62.0950
121.5598,62.1715
121.5164,62.2364
121.4515,62.2798
121.3750,62.2950
120.9750,62.2950
120.8985,62.2798
120.8336,62.2364
120.7902,62.1715
120.7750,62.0950
120.7750,61.5450
120.7902,61.4685
120.8336,61.4036
120.8985,61.3602
120.9750,61.3450
121.3750,61.3450
Z" /> 
<path style="fill:#D864FF; fill-opacity:0.4000; stroke:none;fill-rule:evenodd;"
d="M 123.1015,61.3602
123.1664,61.4036
123.2098,61.4685
123.2250,61.5450
123.2250,62.0950
123.2098,62.1715
123.1664,62.2364
123.1015,62.2798
123.0250,62.2950
122.6250,62.2950
122.5485,62.2798
122.4836,62.2364
122.4402,62.1715
122.4250,62.0950
122.4250,61.5450
122.4402,61.4685
122.4836,61.4036
122.5485,61.3602
122.6250,61.3450
123.0250,61.3450
Z" /> 
<path style="fill:#D864FF; fill-opacity:0.4000; stroke:none;fill-rule:evenodd;"
d="M 86.0000,62.2700
84.5000,62.2700
84.5000,61.3700
86.0000,61.3700
Z" /> 
<path style="fill:#D864FF; fill-opacity:0.4000; stroke:none;fill-rule:evenodd;"
d="M 103.5000,62.2700
102.0000,62.2700
102.0000,61.3700
103.5000,61.3700
Z" /> 
<path style="fill:#D864FF; fill-opacity:0.4000; stroke:none;fill-rule:evenodd;"
d="M 86.0000,61.0000
84.5000,61.0000
84.5000,60.1000
86.0000,60.1000
Z" /> 
<path style="fill:#D864FF; fill-opacity:0.4000; stroke:none;fill-rule:evenodd;"
d="M 103.5000,61.0000
102.0000,61.0000
102.0000,60.1000
103.5000,60.1000
Z" /> 
<path style="fill:#D864FF; fill-opacity:0.4000; stroke:none;fill-rule:evenodd;"
d="M 86.0000,59.7300
84.5000,59.7300
84.5000,58.8300
86.0000,58.8300
Z" /> 
<path style="fill:#D864FF; fill-opacity:0.4000; stroke:none;fill-rule:evenodd;"
d="M 103.5000,59.7300
102.0000,59.7300
102.0000,58.8300
103.5000,58.8300
Z" /> 
<path style="fill:#D864FF; fill-opacity:0.4000; stroke:none;fill-rule:evenodd;"
d="M 86.0000,58.4600
84.5000,58.4600
84.5000,57.5600
86.0000,57.5600
Z" /> 
<path style="fill:#D864FF; fill-opacity:0.4000; stroke:none;fill-rule:evenodd;"
d="M 103.5000,58.4600
102.0000,58.4600
102.0000,57.5600
103.5000,57.5600
Z" /> 
<path style="fill:#D864FF; fill-opacity:0.4000; stroke:none;fill-rule:evenodd;"
d="M 86.0000,57.1900
84.5000,57.1900
84.5000,56.2900
86.0000,56.2900
Z" /> 
<path style="fill:#D864FF; fill-opacity:0.4000; stroke:none;fill-rule:evenodd;"
d="M 103.5000,57.1900
102.0000,57.1900
102.0000,56.2900
103.5000,56.2900
Z" /> 
<path style="fill:#D864FF; fill-opacity:0.4000; stroke:none;fill-rule:evenodd;"
d="M 125.5361,47.5421
125.6091,47.5909
125.6579,47.6639
125.6750,47.7500
125.6750,48.2500
125.6579,48.3361
125.6091,48.4091
125.5361,48.4579
125.4500,48.4750
125.0000,48.4750
124.9139,48.4579
124.8409,48.4091
124.7921,48.3361
124.7750,48.2500
124.7750,47.7500
124.7921,47.6639
124.8409,47.5909
124.9139,47.5421
125.0000,47.5250
125.4500,47.5250
Z" /> 
<path style="fill:#D864FF; fill-opacity:0.4000; stroke:none;fill-rule:evenodd;"
d="M 127.0861,47.5421
127.1591,47.5909
127.2079,47.6639
127.2250,47.7500
127.2250,48.2500
127.2079,48.3361
127.1591,48.4091
127.0861,48.4579
127.0000,48.4750
126.5500,48.4750
126.4639,48.4579
126.3909,48.4091
126.3421,48.3361
126.3250,48.2500
126.3250,47.7500
126.3421,47.6639
126.3909,47.5909
126.4639,47.5421
126.5500,47.5250
127.0000,47.5250
Z" /> 
<path style="fill:#D864FF; fill-opacity:0.4000; stroke:none;fill-rule:evenodd;"
d="M 121.5361,43.5421
121.6091,43.5909
121.6579,43.6639
121.6750,43.7500
121.6750,44.2500
121.6579,44.3361
121.6091,44.4091
121.5361,44.4579
121.4500,44.4750
121.0000,44.4750
120.9139,44.4579
120.8409,44.4091
120.7921,44.3361
120.7750,44.2500
120.7750,43.7500
120.7921,43.6639
120.8409,43.5909
120.9139,43.5421
121.0000,43.5250
121.4500,43.5250
Z" /> 
<path style="fill:#D864FF; fill-opacity:0.4000; stroke:none;fill-rule:evenodd;"
d="M 123.0861,43.5421
123.1591,43.5909
123.2079,43.6639
123.2250,43.7500
123.2250,44.2500
123.2079,44.3361
123.1591,44.4091
123.0861,44.4579
123.0000,44.4750
122.5500,44.4750
122.4639,44.4579
122.3909,44.4091
122.3421,44.3361
122.3250,44.2500
122.3250,43.7500
122.3421,43.6639
122.3909,43.5909
122.4639,43.5421
122.5500,43.5250
123.0000,43.5250
Z" /> 
<path style="fill:#D864FF; fill-opacity:0.4000; stroke:none;fill-rule:evenodd;"
d="M 127.5361,43.5421
127.6091,43.5909
127.6579,43.6639
127.6750,43.7500
127.6750,44.2500
127.6579,44.3361
127.6091,44.4091
127.5361,44.4579
127.4500,44.4750
127.0000,44.4750
126.9139,44.4579
126.8409,44.4091
126.7921,44.3361
126.7750,44.2500
126.7750,43.7500
126.7921,43.6639
126.8409,43.5909
126.9139,43.5421
127.0000,43.5250
127.4500,43.5250
Z" /> 
<path style="fill:#D864FF; fill-opacity:0.4000; stroke:none;fill-rule:evenodd;"
d="M 129.0861,43.5421
129.1591,43.5909
129.2079,43.6639
129.2250,43.7500
129.2250,44.2500
129.2079,44.3361
129.1591,44.4091
129.0861,44.4579
129.0000,44.4750
128.5500,44.4750
128.4639,44.4579
128.3909,44.4091
128.3421,44.3361
128.3250,44.2500
128.3250,43.7500
128.3421,43.6639
128.3909,43.5909
128.4639,43.5421
128.5500,43.5250
129.0000,43.5250
Z" /> 
<path style="fill:#D864FF; fill-opacity:0.4000; stroke:none;fill-rule:evenodd;"
d="M 39.7613,40.1388
39.9243,40.2063
40.0710,40.3043
40.1957,40.4290
40.2937,40.5757
40.3612,40.7387
40.3957,40.9118
40.3957,41.0882
40.3612,41.2613
40.2937,41.4243
40.1957,41.5710
40.0710,41.6957
39.9243,41.7937
39.7613,41.8612
39.5882,41.8957
39.4118,41.8957
39.2387,41.8612
39.0757,41.7937
38.9290,41.6957
38.8043,41.5710
38.7063,41.4243
38.6388,41.2613
38.6043,41.0882
38.6043,40.9118
38.6388,40.7387
38.7063,40.5757
38.8043,40.4290
38.9290,40.3043
39.0757,40.2063
39.2387,40.1388
39.4118,40.1043
39.5882,40.1043
Z" /> 
<path style="fill:#D864FF; fill-opacity:0.4000; stroke:none;fill-rule:evenodd;"
d="M 121.6210,40.4817
121.6494,40.5006
121.6683,40.5290
121.6750,40.5625
121.6750,40.7375
121.6683,40.7710
121.6494,40.7994
121.6210,40.8183
121.5875,40.8250
120.7375,40.8250
120.7040,40.8183
120.6756,40.7994
120.6567,40.7710
120.6500,40.7375
120.6500,40.5625
120.6567,40.5290
120.6756,40.5006
120.7040,40.4817
120.7375,40.4750
121.5875,40.4750
Z" /> 
<path style="fill:#D864FF; fill-opacity:0.4000; stroke:none;fill-rule:evenodd;"
d="M 123.2960,40.4817
123.3244,40.5006
123.3433,40.5290
123.3500,40.5625
123.3500,40.7375
123.3433,40.7710
123.3244,40.7994
123.2960,40.8183
123.2625,40.8250
122.4125,40.8250
122.3790,40.8183
122.3506,40.7994
122.3317,40.7710
122.3250,40.7375
122.3250,40.5625
122.3317,40.5290
122.3506,40.5006
122.3790,40.4817
122.4125,40.4750
123.2625,40.4750
Z" /> 
<path style="fill:#D864FF; fill-opacity:0.4000; stroke:none;fill-rule:evenodd;"
d="M 127.6210,40.4817
127.6494,40.5006
127.6683,40.5290
127.6750,40.5625
127.6750,40.7375
127.6683,40.7710
127.6494,40.7994
127.6210,40.8183
127.5875,40.8250
126.7375,40.8250
126.7040,40.8183
126.6756,40.7994
126.6567,40.7710
126.6500,40.7375
126.6500,40.5625
126.6567,40.5290
126.6756,40.5006
126.7040,40.4817
126.7375,40.4750
127.5875,40.4750
Z" /> 
<path style="fill:#D864FF; fill-opacity:0.4000; stroke:none;fill-rule:evenodd;"
d="M 129.2960,40.4817
129.3244,40.5006
129.3433,40.5290
129.3500,40.5625
129.3500,40.7375
129.3433,40.7710
129.3244,40.7994
129.2960,40.8183
129.2625,40.8250
128.4125,40.8250
128.3790,40.8183
128.3506,40.7994
128.3317,40.7710
128.3250,40.7375
128.3250,40.5625
128.3317,40.5290
128.3506,40.5006
128.3790,40.4817
128.4125,40.4750
129.2625,40.4750
Z" /> 
<path style="fill:#D864FF; fill-opacity:0.4000; stroke:none;fill-rule:evenodd;"
d="M 121.6210,39.8317
121.6494,39.8506
121.6683,39.8790
121.6750,39.9125
121.6750,40.0875
121.6683,40.1210
121.6494,40.1494
121.6210,40.1683
121.5875,40.1750
120.7375,40.1750
120.7040,40.1683
120.6756,40.1494
120.6567,40.1210
120.6500,40.0875
120.6500,39.9125
120.6567,39.8790
120.6756,39.8506
120.7040,39.8317
120.7375,39.8250
121.5875,39.8250
Z" /> 
<path style="fill:#D864FF; fill-opacity:0.4000; stroke:none;fill-rule:evenodd;"
d="M 123.2960,39.8317
123.3244,39.8506
123.3433,39.8790
123.3500,39.9125
123.3500,40.0875
123.3433,40.1210
123.3244,40.1494
123.2960,40.1683
123.2625,40.1750
122.4125,40.1750
122.3790,40.1683
122.3506,40.1494
122.3317,40.1210
122.3250,40.0875
122.3250,39.9125
122.3317,39.8790
122.3506,39.8506
122.3790,39.8317
122.4125,39.8250
123.2625,39.8250
Z" /> 
<path style="fill:#D864FF; fill-opacity:0.4000; stroke:none;fill-rule:evenodd;"
d="M 127.6210,39.8317
127.6494,39.8506
127.6683,39.8790
127.6750,39.9125
127.6750,40.0875
127.6683,40.1210
127.6494,40.1494
127.6210,40.1683
127.5875,40.1750
126.7375,40.1750
126.7040,40.1683
126.6756,40.1494
126.6567,40.1210
126.6500,40.0875
126.6500,39.9125
126.6567,39.8790
126.6756,39.8506
126.7040,39.8317
126.7375,39.8250
127.5875,39.8250
Z" /> 
<path style="fill:#D864FF; fill-opacity:0.4000; stroke:none;fill-rule:evenodd;"
d="M 129.2960,39.8317
129.3244,39.8506
129.3433,39.8790
129.3500,39.9125
129.3500,40.0875
129.3433,40.1210
129.3244,40.1494
129.2960,40.1683
129.2625,40.1750
128.4125,40.1750
128.3790,40.1683
128.3506,40.1494
128.3317,40.1210
128.3250,40.0875
128.3250,39.9125
128.3317,39.8790
128.3506,39.8506
128.3790,39.8317
128.4125,39.8250
129.2625,39.8250
Z" /> 
<path style="fill:#D864FF; fill-opacity:0.4000; stroke:none;fill-rule:evenodd;"
d="M 32.2613,38.1388
32.4243,38.2063
32.5710,38.3043
32.6957,38.4290
32.7937,38.5757
32.8612,38.7387
32.8957,38.9118
32.8957,39.0882
32.8612,39.2613
32.7937,39.4243
32.6957,39.5710
32.5710,39.6957
32.4243,39.7937
32.2613,39.8612
32.0882,39.8957
31.9118,39.8957
31.7387,39.8612
31.5757,39.7937
31.4290,39.6957
31.3043,39.5710
31.2063,39.4243
31.1388,39.2613
31.1043,39.0882
31.1043,38.9118
31.1388,38.7387
31.2063,38.5757
31.3043,38.4290
31.4290,38.3043
31.5757,38.2063
31.7387,38.1388
31.9118,38.1043
32.0882,38.1043
Z" /> 
<path style="fill:#D864FF; fill-opacity:0.4000; stroke:none;fill-rule:evenodd;"
d="M 121.6210,39.1817
121.6494,39.2006
121.6683,39.2290
121.6750,39.2625
121.6750,39.4375
121.6683,39.4710
121.6494,39.4994
121.6210,39.5183
121.5875,39.5250
120.7375,39.5250
120.7040,39.5183
120.6756,39.4994
120.6567,39.4710
120.6500,39.4375
120.6500,39.2625
120.6567,39.2290
120.6756,39.2006
120.7040,39.1817
120.7375,39.1750
121.5875,39.1750
Z" /> 
<path style="fill:#D864FF; fill-opacity:0.4000; stroke:none;fill-rule:evenodd;"
d="M 123.2960,39.1817
123.3244,39.2006
123.3433,39.2290
123.3500,39.2625
123.3500,39.4375
123.3433,39.4710
123.3244,39.4994
123.2960,39.5183
123.2625,39.5250
122.4125,39.5250
122.3790,39.5183
122.3506,39.4994
122.3317,39.4710
122.3250,39.4375
122.3250,39.2625
122.3317,39.2290
122.3506,39.2006
122.3790,39.1817
122.4125,39.1750
123.2625,39.1750
Z" /> 
<path style="fill:#D864FF; fill-opacity:0.4000; stroke:none;fill-rule:evenodd;"
d="M 127.6210,39.1817
127.6494,39.2006
127.6683,39.2290
127.6750,39.2625
127.6750,39.4375
127.6683,39.4710
127.6494,39.4994
127.6210,39.5183
127.5875,39.5250
126.7375,39.5250
126.7040,39.5183
126.6756,39.4994
126.6567,39.4710
126.6500,39.4375
126.6500,39.2625
126.6567,39.2290
126.6756,39.2006
126.7040,39.1817
126.7375,39.1750
127.5875,39.1750
Z" /> 
<path style="fill:#D864FF; fill-opacity:0.4000; stroke:none;fill-rule:evenodd;"
d="M 129.2960,39.1817
129.3244,39.2006
129.3433,39.2290
129.3500,39.2625
129.3500,39.4375
129.3433,39.4710
129.3244,39.4994
129.2960,39.5183
129.2625,39.5250
128.4125,39.5250
128.3790,39.5183
128.3506,39.4994
128.3317,39.4710
128.3250,39.4375
128.3250,39.2625
128.3317,39.2290
128.3506,39.2006
128.3790,39.1817
128.4125,39.1750
129.2625,39.1750
Z" /> 
<path style="fill:#D864FF; fill-opacity:0.4000; stroke:none;fill-rule:evenodd;"
d="M 127.5361,35.5421
127.6091,35.5909
127.6579,35.6639
127.6750,35.7500
127.6750,36.2500
127.6579,36.3361
127.6091,36.4091
127.5361,36.4579
127.4500,36.4750
127.0000,36.4750
126.9139,36.4579
126.8409,36.4091
126.7921,36.3361
126.7750,36.2500
126.7750,35.7500
126.7921,35.6639
126.8409,35.5909
126.9139,35.5421
127.0000,35.5250
127.4500,35.5250
Z" /> 
<path style="fill:#D864FF; fill-opacity:0.4000; stroke:none;fill-rule:evenodd;"
d="M 129.0861,35.5421
129.1591,35.5909
129.2079,35.6639
129.2250,35.7500
129.2250,36.2500
129.2079,36.3361
129.1591,36.4091
129.0861,36.4579
129.0000,36.4750
128.5500,36.4750
128.4639,36.4579
128.3909,36.4091
128.3421,36.3361
128.3250,36.2500
128.3250,35.7500
128.3421,35.6639
128.3909,35.5909
128.4639,35.5421
128.5500,35.5250
129.0000,35.5250
Z" /> 
<path style="fill:#D864FF; fill-opacity:0.4000; stroke:none;fill-rule:evenodd;"
d="M 121.5361,33.5421
121.6091,33.5909
121.6579,33.6639
121.6750,33.7500
121.6750,34.2500
121.6579,34.3361
121.6091,34.4091
121.5361,34.4579
121.4500,34.4750
121.0000,34.4750
120.9139,34.4579
120.8409,34.4091
120.7921,34.3361
120.7750,34.2500
120.7750,33.7500
120.7921,33.6639
120.8409,33.5909
120.9139,33.5421
121.0000,33.5250
121.4500,33.5250
Z" /> 
<path style="fill:#D864FF; fill-opacity:0.4000; stroke:none;fill-rule:evenodd;"
d="M 123.0861,33.5421
123.1591,33.5909
123.2079,33.6639
123.2250,33.7500
123.2250,34.2500
123.2079,34.3361
123.1591,34.4091
123.0861,34.4579
123.0000,34.4750
122.5500,34.4750
122.4639,34.4579
122.3909,34.4091
122.3421,34.3361
122.3250,34.2500
122.3250,33.7500
122.3421,33.6639
122.3909,33.5909
122.4639,33.5421
122.5500,33.5250
123.0000,33.5250
Z" /> 
<path style="fill:#D864FF; fill-opacity:0.4000; stroke:none;fill-rule:evenodd;"
d="M 146.5361,33.5421
146.6091,33.5909
146.6579,33.6639
146.6750,33.7500
146.6750,34.2500
146.6579,34.3361
146.6091,34.4091
146.5361,34.4579
146.4500,34.4750
146.0000,34.4750
145.9139,34.4579
145.8409,34.4091
145.7921,34.3361
145.7750,34.2500
145.7750,33.7500
145.7921,33.6639
145.8409,33.5909
145.9139,33.5421
146.0000,33.5250
146.4500,33.5250
Z" /> 
<path style="fill:#D864FF; fill-opacity:0.4000; stroke:none;fill-rule:evenodd;"
d="M 148.0861,33.5421
148.1591,33.5909
148.2079,33.6639
148.2250,33.7500
148.2250,34.2500
148.2079,34.3361
148.1591,34.4091
148.0861,34.4579
148.0000,34.4750
147.5500,34.4750
147.4639,34.4579
147.3909,34.4091
147.3421,34.3361
147.3250,34.2500
147.3250,33.7500
147.3421,33.6639
147.3909,33.5909
147.4639,33.5421
147.5500,33.5250
148.0000,33.5250
Z" /> 
<path style="fill:#D864FF; fill-opacity:0.4000; stroke:none;fill-rule:evenodd;"
d="M 127.4500,33.0000
126.5500,33.0000
126.5500,31.8000
127.4500,31.8000
Z" /> 
<path style="fill:#D864FF; fill-opacity:0.4000; stroke:none;fill-rule:evenodd;"
d="M 143.4500,33.0000
142.5500,33.0000
142.5500,31.8000
143.4500,31.8000
Z" /> 
<path style="fill:#D864FF; fill-opacity:0.4000; stroke:none;fill-rule:evenodd;"
d="M 61.8467,31.0366
62.0007,31.1004
62.1392,31.1929
62.2571,31.3108
62.3496,31.4493
62.4134,31.6033
62.4459,31.7667
62.4500,31.8500
62.4500,32.1500
62.4459,32.2333
62.4134,32.3967
62.3496,32.5507
62.2571,32.6892
62.1392,32.8071
62.0007,32.8996
61.8467,32.9634
61.6833,32.9959
61.5167,32.9959
61.3533,32.9634
61.1993,32.8996
61.0608,32.8071
60.9429,32.6892
60.8504,32.5507
60.7866,32.3967
60.7541,32.2333
60.7500,32.1500
60.7500,31.8500
60.7541,31.7667
60.7866,31.6033
60.8504,31.4493
60.9429,31.3108
61.0608,31.1929
61.1993,31.1004
61.3533,31.0366
61.5167,31.0041
61.6833,31.0041
Z" /> 
<path style="fill:#D864FF; fill-opacity:0.4000; stroke:none;fill-rule:evenodd;"
d="M 117.3364,30.9298
117.3567,30.9433
117.3702,30.9636
117.3750,30.9875
117.3750,31.5375
117.3702,31.5614
117.3567,31.5817
117.3364,31.5952
117.3125,31.6000
117.1875,31.6000
117.1636,31.5952
117.1433,31.5817
117.1298,31.5614
117.1250,31.5375
117.1250,30.9875
117.1298,30.9636
117.1433,30.9433
117.1636,30.9298
117.1875,30.9250
117.3125,30.9250
Z" /> 
<path style="fill:#D864FF; fill-opacity:0.4000; stroke:none;fill-rule:evenodd;"
d="M 117.8364,30.9298
117.8567,30.9433
117.8702,30.9636
117.8750,30.9875
117.8750,31.5375
117.8702,31.5614
117.8567,31.5817
117.8364,31.5952
117.8125,31.6000
117.6875,31.6000
117.6636,31.5952
117.6433,31.5817
117.6298,31.5614
117.6250,31.5375
117.6250,30.9875
117.6298,30.9636
117.6433,30.9433
117.6636,30.9298
117.6875,30.9250
117.8125,30.9250
Z" /> 
<path style="fill:#D864FF; fill-opacity:0.4000; stroke:none;fill-rule:evenodd;"
d="M 118.3364,30.9298
118.3567,30.9433
118.3702,30.9636
118.3750,30.9875
118.3750,31.5375
118.3702,31.5614
118.3567,31.5817
118.3364,31.5952
118.3125,31.6000
118.1875,31.6000
118.1636,31.5952
118.1433,31.5817
118.1298,31.5614
118.1250,31.5375
118.1250,30.9875
118.1298,30.9636
118.1433,30.9433
118.1636,30.9298
118.1875,30.9250
118.3125,30.9250
Z" /> 
<path style="fill:#D864FF; fill-opacity:0.4000; stroke:none;fill-rule:evenodd;"
d="M 118.8364,30.9298
118.8567,30.9433
118.8702,30.9636
118.8750,30.9875
118.8750,31.5375
118.8702,31.5614
118.8567,31.5817
118.8364,31.5952
118.8125,31.6000
118.6875,31.6000
118.6636,31.5952
118.6433,31.5817
118.6298,31.5614
118.6250,31.5375
118.6250,30.9875
118.6298,30.9636
118.6433,30.9433
118.6636,30.9298
118.6875,30.9250
118.8125,30.9250
Z" /> 
<path style="fill:#D864FF; fill-opacity:0.4000; stroke:none;fill-rule:evenodd;"
d="M 127.4500,31.4000
126.5500,31.4000
126.5500,30.2000
127.4500,30.2000
Z" /> 
<path style="fill:#D864FF; fill-opacity:0.4000; stroke:none;fill-rule:evenodd;"
d="M 143.4500,31.4000
142.5500,31.4000
142.5500,30.2000
143.4500,30.2000
Z" /> 
<path style="fill:#D864FF; fill-opacity:0.4000; stroke:none;fill-rule:evenodd;"
d="M 118.7250,30.7250
117.2750,30.7250
117.2750,29.2750
118.7250,29.2750
Z" /> 
<path style="fill:#D864FF; fill-opacity:0.4000; stroke:none;fill-rule:evenodd;"
d="M 117.0364,30.3798
117.0567,30.3933
117.0702,30.4136
117.0750,30.4375
117.0750,30.5625
117.0702,30.5864
117.0567,30.6067
117.0364,30.6202
117.0125,30.6250
116.4625,30.6250
116.4386,30.6202
116.4183,30.6067
116.4048,30.5864
116.4000,30.5625
116.4000,30.4375
116.4048,30.4136
116.4183,30.3933
116.4386,30.3798
116.4625,30.3750
117.0125,30.3750
Z" /> 
<path style="fill:#D864FF; fill-opacity:0.4000; stroke:none;fill-rule:evenodd;"
d="M 119.5614,30.3798
119.5817,30.3933
119.5952,30.4136
119.6000,30.4375
119.6000,30.5625
119.5952,30.5864
119.5817,30.6067
119.5614,30.6202
119.5375,30.6250
118.9875,30.6250
118.9636,30.6202
118.9433,30.6067
118.9298,30.5864
118.9250,30.5625
118.9250,30.4375
118.9298,30.4136
118.9433,30.3933
118.9636,30.3798
118.9875,30.3750
119.5375,30.3750
Z" /> 
<path style="fill:#D864FF; fill-opacity:0.4000; stroke:none;fill-rule:evenodd;"
d="M 117.0364,29.8798
117.0567,29.8933
117.0702,29.9136
117.0750,29.9375
117.0750,30.0625
117.0702,30.0864
117.0567,30.1067
117.0364,30.1202
117.0125,30.1250
116.4625,30.1250
116.4386,30.1202
116.4183,30.1067
116.4048,30.0864
116.4000,30.0625
116.4000,29.9375
116.4048,29.9136
116.4183,29.8933
116.4386,29.8798
116.4625,29.8750
117.0125,29.8750
Z" /> 
<path style="fill:#D864FF; fill-opacity:0.4000; stroke:none;fill-rule:evenodd;"
d="M 119.5614,29.8798
119.5817,29.8933
119.5952,29.9136
119.6000,29.9375
119.6000,30.0625
119.5952,30.0864
119.5817,30.1067
119.5614,30.1202
119.5375,30.1250
118.9875,30.1250
118.9636,30.1202
118.9433,30.1067
118.9298,30.0864
118.9250,30.0625
118.9250,29.9375
118.9298,29.9136
118.9433,29.8933
118.9636,29.8798
118.9875,29.8750
119.5375,29.8750
Z" /> 
<path style="fill:#D864FF; fill-opacity:0.4000; stroke:none;fill-rule:evenodd;"
d="M 127.4500,29.8000
126.5500,29.8000
126.5500,28.6000
127.4500,28.6000
Z" /> 
<path style="fill:#D864FF; fill-opacity:0.4000; stroke:none;fill-rule:evenodd;"
d="M 143.4500,29.8000
142.5500,29.8000
142.5500,28.6000
143.4500,28.6000
Z" /> 
<path style="fill:#D864FF; fill-opacity:0.4000; stroke:none;fill-rule:evenodd;"
d="M 117.0364,29.3798
117.0567,29.3933
117.0702,29.4136
117.0750,29.4375
117.0750,29.5625
117.0702,29.5864
117.0567,29.6067
117.0364,29.6202
117.0125,29.6250
116.4625,29.6250
116.4386,29.6202
116.4183,29.6067
116.4048,29.5864
116.4000,29.5625
116.4000,29.4375
116.4048,29.4136
116.4183,29.3933
116.4386,29.3798
116.4625,29.3750
117.0125,29.3750
Z" /> 
<path style="fill:#D864FF; fill-opacity:0.4000; stroke:none;fill-rule:evenodd;"
d="M 119.5614,29.3798
119.5817,29.3933
119.5952,29.4136
119.6000,29.4375
119.6000,29.5625
119.5952,29.5864
119.5817,29.6067
119.5614,29.6202
119.5375,29.6250
118.9875,29.6250
118.9636,29.6202
118.9433,29.6067
118.9298,29.5864
118.9250,29.5625
118.9250,29.4375
118.9298,29.4136
118.9433,29.3933
118.9636,29.3798
118.9875,29.3750
119.5375,29.3750
Z" /> 
<path style="fill:#D864FF; fill-opacity:0.4000; stroke:none;fill-rule:evenodd;"
d="M 117.3364,28.4048
117.3567,28.4183
117.3702,28.4386
117.3750,28.4625
117.3750,29.0125
117.3702,29.0364
117.3567,29.0567
117.3364,29.0702
117.3125,29.0750
117.1875,29.0750
117.1636,29.0702
117.1433,29.0567
117.1298,29.0364
117.1250,29.0125
117.1250,28.4625
117.1298,28.4386
117.1433,28.4183
117.1636,28.4048
117.1875,28.4000
117.3125,28.4000
Z" /> 
<path style="fill:#D864FF; fill-opacity:0.4000; stroke:none;fill-rule:evenodd;"
d="M 117.8364,28.4048
117.8567,28.4183
117.8702,28.4386
117.8750,28.4625
117.8750,29.0125
117.8702,29.0364
117.8567,29.0567
117.8364,29.0702
117.8125,29.0750
117.6875,29.0750
117.6636,29.0702
117.6433,29.0567
117.6298,29.0364
117.6250,29.0125
117.6250,28.4625
117.6298,28.4386
117.6433,28.4183
117.6636,28.4048
117.6875,28.4000
117.8125,28.4000
Z" /> 
<path style="fill:#D864FF; fill-opacity:0.4000; stroke:none;fill-rule:evenodd;"
d="M 118.3364,28.4048
118.3567,28.4183
118.3702,28.4386
118.3750,28.4625
118.3750,29.0125
118.3702,29.0364
118.3567,29.0567
118.3364,29.0702
118.3125,29.0750
118.1875,29.0750
118.1636,29.0702
118.1433,29.0567
118.1298,29.0364
118.1250,29.0125
118.1250,28.4625
118.1298,28.4386
118.1433,28.4183
118.1636,28.4048
118.1875,28.4000
118.3125,28.4000
Z" /> 
<path style="fill:#D864FF; fill-opacity:0.4000; stroke:none;fill-rule:evenodd;"
d="M 118.8364,28.4048
118.8567,28.4183
118.8702,28.4386
118.8750,28.4625
118.8750,29.0125
118.8702,29.0364
118.8567,29.0567
118.8364,29.0702
118.8125,29.0750
118.6875,29.0750
118.6636,29.0702
118.6433,29.0567
118.6298,29.0364
118.6250,29.0125
118.6250,28.4625
118.6298,28.4386
118.6433,28.4183
118.6636,28.4048
118.6875,28.4000
118.8125,28.4000
Z" /> 
<path style="fill:#D864FF; fill-opacity:0.4000; stroke:none;fill-rule:evenodd;"
d="M 127.4500,28.2000
126.5500,28.2000
126.5500,27.0000
127.4500,27.0000
Z" /> 
<path style="fill:#D864FF; fill-opacity:0.4000; stroke:none;fill-rule:evenodd;"
d="M 143.4500,28.2000
142.5500,28.2000
142.5500,27.0000
143.4500,27.0000
Z" /> 
<path style="fill:#D864FF; fill-opacity:0.4000; stroke:none;fill-rule:evenodd;"
d="M 28.2467,25.0366
28.4007,25.1004
28.5392,25.1929
28.6571,25.3108
28.7496,25.4493
28.8134,25.6033
28.8459,25.7667
28.8500,25.8500
28.8500,26.1500
28.8459,26.2333
28.8134,26.3967
28.7496,26.5507
28.6571,26.6892
28.5392,26.8071
28.4007,26.8996
28.2467,26.9634
28.0833,26.9959
27.9167,26.9959
27.7533,26.9634
27.5993,26.8996
27.4608,26.8071
27.3429,26.6892
27.2504,26.5507
27.1866,26.3967
27.1541,26.2333
27.1500,26.1500
27.1500,25.8500
27.1541,25.7667
27.1866,25.6033
27.2504,25.4493
27.3429,25.3108
27.4608,25.1929
27.5993,25.1004
27.7533,25.0366
27.9167,25.0041
28.0833,25.0041
Z" /> 
<path style="fill:#D864FF; fill-opacity:0.4000; stroke:none;fill-rule:evenodd;"
d="M 127.4500,26.6000
126.5500,26.6000
126.5500,25.4000
127.4500,25.4000
Z" /> 
<path style="fill:#D864FF; fill-opacity:0.4000; stroke:none;fill-rule:evenodd;"
d="M 143.4500,26.6000
142.5500,26.6000
142.5500,25.4000
143.4500,25.4000
Z" /> 
<path style="fill:#D864FF; fill-opacity:0.4000; stroke:none;fill-rule:evenodd;"
d="M 117.5361,25.5421
117.6091,25.5909
117.6579,25.6639
117.6750,25.7500
117.6750,26.2500
117.6579,26.3361
117.6091,26.4091
117.5361,26.4579
117.4500,26.4750
117.0000,26.4750
116.9139,26.4579
116.8409,26.4091
116.7921,26.3361
116.7750,26.2500
116.7750,25.7500
116.7921,25.6639
116.8409,25.5909
116.9139,25.5421
117.0000,25.5250
117.4500,25.5250
Z" /> 
<path style="fill:#D864FF; fill-opacity:0.4000; stroke:none;fill-rule:evenodd;"
d="M 119.0861,25.5421
119.1591,25.5909
119.2079,25.6639
119.2250,25.7500
119.2250,26.2500
119.2079,26.3361
119.1591,26.4091
119.0861,26.4579
119.0000,26.4750
118.5500,26.4750
118.4639,26.4579
118.3909,26.4091
118.3421,26.3361
118.3250,26.2500
118.3250,25.7500
118.3421,25.6639
118.3909,25.5909
118.4639,25.5421
118.5500,25.5250
119.0000,25.5250
Z" /> 
<path style="fill:#D864FF; fill-opacity:0.4000; stroke:none;fill-rule:evenodd;"
d="M 10.9540,23.8008
11.0054,23.8068
11.0230,23.8145
11.0457,23.8190
11.0700,23.8353
11.0908,23.8445
11.1050,23.8587
11.1268,23.8732
11.1413,23.8950
11.1555,23.9092
11.1647,23.9300
11.1810,23.9543
11.1855,23.9770
11.1932,23.9946
11.1992,24.0460
11.2000,24.0500
11.2000,24.0529
11.2000,24.0529
11.2000,25.0041
11.2000,25.9500
11.1992,25.9540
11.1932,26.0054
11.1855,26.0229
11.1810,26.0457
11.1647,26.0700
11.1555,26.0908
11.1413,26.1050
11.1268,26.1268
11.1050,26.1413
11.0908,26.1555
11.0700,26.1647
11.0457,26.1810
11.0229,26.1855
11.0054,26.1932
10.9540,26.1992
10.9500,26.2000
10.9471,26.2000
10.9471,26.2000
9.0529,26.2000
9.0529,26.2000
9.0500,26.2000
9.0460,26.1992
8.9946,26.1932
8.9770,26.1855
8.9543,26.1810
8.9300,26.1647
8.9092,26.1555
8.8950,26.1413
8.8732,26.1268
8.8587,26.1050
8.8445,26.0908
8.8353,26.0700
8.8190,26.0457
8.8145,26.0230
8.8068,26.0054
8.8008,25.9540
8.8000,25.9500
8.8000,25.9471
8.8000,25.9471
8.8000,24.0529
8.8000,24.0529
8.8000,24.0500
8.8008,24.0460
8.8068,23.9946
8.8145,23.9770
8.8190,23.9543
8.8353,23.9300
8.8445,23.9092
8.8587,23.8950
8.8732,23.8732
8.8950,23.8587
8.9092,23.8445
8.9300,23.8353
8.9543,23.8190
8.9770,23.8145
8.9946,23.8068
9.0460,23.8008
9.0500,23.8000
9.0529,23.8000
9.0529,23.8000
10.9471,23.8000
10.9500,23.8000
Z" /> 
<path style="fill:#D864FF; fill-opacity:0.4000; stroke:none;fill-rule:evenodd;"
d="M 13.7801,23.8332
13.9592,23.8913
14.1270,23.9768
14.2793,24.0875
14.4125,24.2207
14.5232,24.3730
14.6087,24.5408
14.6668,24.7199
14.6963,24.9058
14.6963,25.0942
14.6668,25.2801
14.6087,25.4592
14.5232,25.6270
14.4125,25.7793
14.2793,25.9125
14.1270,26.0232
13.9592,26.1087
13.7801,26.1668
13.5942,26.1963
13.4058,26.1963
13.2199,26.1668
13.0408,26.1087
12.8730,26.0232
12.7207,25.9125
12.5875,25.7793
12.4768,25.6270
12.3913,25.4592
12.3332,25.2801
12.3037,25.0942
12.3037,24.9058
12.3332,24.7199
12.3913,24.5408
12.4768,24.3730
12.5875,24.2207
12.7207,24.0875
12.8730,23.9768
13.0408,23.8913
13.2199,23.8332
13.4058,23.8037
13.5942,23.8037
Z" /> 
<path style="fill:#D864FF; fill-opacity:0.4000; stroke:none;fill-rule:evenodd;"
d="M 127.4500,25.0000
126.5500,25.0000
126.5500,23.8000
127.4500,23.8000
Z" /> 
<path style="fill:#D864FF; fill-opacity:0.4000; stroke:none;fill-rule:evenodd;"
d="M 143.4500,25.0000
142.5500,25.0000
142.5500,23.8000
143.4500,23.8000
Z" /> 
<path style="fill:#D864FF; fill-opacity:0.4000; stroke:none;fill-rule:evenodd;"
d="M 127.4500,23.4000
126.5500,23.4000
126.5500,22.2000
127.4500,22.2000
Z" /> 
<path style="fill:#D864FF; fill-opacity:0.4000; stroke:none;fill-rule:evenodd;"
d="M 143.4500,23.4000
142.5500,23.4000
142.5500,22.2000
143.4500,22.2000
Z" /> 
<path style="fill:#D864FF; fill-opacity:0.4000; stroke:none;fill-rule:evenodd;"
d="M 122.5361,21.5421
122.6091,21.5909
122.6579,21.6639
122.6750,21.7500
122.6750,22.2500
122.6579,22.3361
122.6091,22.4091
122.5361,22.4579
122.4500,22.4750
122.0000,22.4750
121.9139,22.4579
121.8409,22.4091
121.7921,22.3361
121.7750,22.2500
121.7750,21.7500
121.7921,21.6639
121.8409,21.5909
121.9139,21.5421
122.0000,21.5250
122.4500,21.5250
Z" /> 
<path style="fill:#D864FF; fill-opacity:0.4000; stroke:none;fill-rule:evenodd;"
d="M 124.0861,21.5421
124.1591,21.5909
124.2079,21.6639
124.2250,21.7500
124.2250,22.2500
124.2079,22.3361
124.1591,22.4091
124.0861,22.4579
124.0000,22.4750
123.5500,22.4750
123.4639,22.4579
123.3909,22.4091
123.3421,22.3361
123.3250,22.2500
123.3250,21.7500
123.3421,21.6639
123.3909,21.5909
123.4639,21.5421
123.5500,21.5250
124.0000,21.5250
Z" /> 
<path style="fill:#D864FF; fill-opacity:0.4000; stroke:none;fill-rule:evenodd;"
d="M 127.4500,21.8000
126.5500,21.8000
126.5500,20.6000
127.4500,20.6000
Z" /> 
<path style="fill:#D864FF; fill-opacity:0.4000; stroke:none;fill-rule:evenodd;"
d="M 143.4500,21.8000
142.5500,21.8000
142.5500,20.6000
143.4500,20.6000
Z" /> 
<path style="fill:#D864FF; fill-opacity:0.4000; stroke:none;fill-rule:evenodd;"
d="M 28.6040,19.0008
28.6554,19.0068
28.6730,19.0145
28.6957,19.0190
28.7200,19.0353
28.7408,19.0445
28.7550,19.0587
28.7768,19.0732
28.7913,19.0950
28.8055,19.1092
28.8147,19.1300
28.8310,19.1543
28.8355,19.1770
28.8432,19.1946
28.8492,19.2459
28.8500,19.2500
28.8500,20.7500
28.8492,20.7541
28.8432,20.8054
28.8355,20.8229
28.8310,20.8457
28.8147,20.8700
28.8055,20.8908
28.7913,20.9050
28.7768,20.9268
28.7550,20.9413
28.7408,20.9555
28.7200,20.9647
28.6957,20.9810
28.6730,20.9855
28.6554,20.9932
28.6041,20.9992
28.6000,21.0000
27.4000,21.0000
27.3959,20.9992
27.3446,20.9932
27.3270,20.9855
27.3043,20.9810
27.2800,20.9647
27.2592,20.9555
27.2450,20.9413
27.2232,20.9268
27.2087,20.9050
27.1945,20.8908
27.1853,20.8700
27.1690,20.8457
27.1645,20.8230
27.1568,20.8054
27.1508,20.7540
27.1500,20.7500
27.1500,19.2500
27.1508,19.2460
27.1568,19.1946
27.1645,19.1770
27.1690,19.1543
27.1853,19.1300
27.1945,19.1092
27.2087,19.0950
27.2232,19.0732
27.2450,19.0587
27.2592,19.0445
27.2800,19.0353
27.3043,19.0190
27.3270,19.0145
27.3446,19.0068
27.3960,19.0008
27.4000,19.0000
28.6000,19.0000
Z" /> 
<path style="fill:#D864FF; fill-opacity:0.4000; stroke:none;fill-rule:evenodd;"
d="M 73.5361,19.5421
73.6091,19.5909
73.6579,19.6639
73.6750,19.7500
73.6750,20.2500
73.6579,20.3361
73.6091,20.4091
73.5361,20.4579
73.4500,20.4750
73.0000,20.4750
72.9139,20.4579
72.8409,20.4091
72.7921,20.3361
72.7750,20.2500
72.7750,19.7500
72.7921,19.6639
72.8409,19.5909
72.9139,19.5421
73.0000,19.5250
73.4500,19.5250
Z" /> 
<path style="fill:#D864FF; fill-opacity:0.4000; stroke:none;fill-rule:evenodd;"
d="M 75.0861,19.5421
75.1591,19.5909
75.2079,19.6639
75.2250,19.7500
75.2250,20.2500
75.2079,20.3361
75.1591,20.4091
75.0861,20.4579
75.0000,20.4750
74.5500,20.4750
74.4639,20.4579
74.3909,20.4091
74.3421,20.3361
74.3250,20.2500
74.3250,19.7500
74.3421,19.6639
74.3909,19.5909
74.4639,19.5421
74.5500,19.5250
75.0000,19.5250
Z" /> 
<path style="fill:#D864FF; fill-opacity:0.4000; stroke:none;fill-rule:evenodd;"
d="M 127.4500,20.2000
126.5500,20.2000
126.5500,19.0000
127.4500,19.0000
Z" /> 
<path style="fill:#D864FF; fill-opacity:0.4000; stroke:none;fill-rule:evenodd;"
d="M 143.4500,20.2000
142.5500,20.2000
142.5500,19.0000
143.4500,19.0000
Z" /> 
<path style="fill:#D864FF; fill-opacity:0.4000; stroke:none;fill-rule:evenodd;"
d="M 149.7226,17.4461
149.8905,17.5006
150.0478,17.5808
150.1906,17.6845
150.3155,17.8094
150.4192,17.9522
150.4994,18.1095
150.5539,18.2774
150.5815,18.4517
150.5815,18.6283
150.5539,18.8026
150.4994,18.9705
150.4192,19.1278
150.3155,19.2706
150.1906,19.3955
150.0478,19.4992
149.8905,19.5794
149.7226,19.6339
149.5483,19.6615
149.3717,19.6615
149.1974,19.6339
149.0295,19.5794
148.8722,19.4992
148.7294,19.3955
148.6045,19.2706
148.5008,19.1278
148.4206,18.9705
148.3661,18.8026
148.3385,18.6283
148.3385,18.4517
148.3661,18.2774
148.4206,18.1095
148.5008,17.9522
148.6045,17.8094
148.7294,17.6845
148.8722,17.5808
149.0295,17.5006
149.1974,17.4461
149.3717,17.4185
149.5483,17.4185
Z" /> 
<path style="fill:#D864FF; fill-opacity:0.4000; stroke:none;fill-rule:evenodd;"
d="M 154.8026,17.4461
154.9705,17.5006
155.1278,17.5808
155.2706,17.6845
155.3955,17.8094
155.4992,17.9522
155.5794,18.1095
155.6339,18.2774
155.6615,18.4517
155.6615,18.6283
155.6339,18.8026
155.5794,18.9705
155.4992,19.1278
155.3955,19.2706
155.2706,19.3955
155.1278,19.4992
154.9705,19.5794
154.8026,19.6339
154.6283,19.6615
154.4517,19.6615
154.2774,19.6339
154.1095,19.5794
153.9522,19.4992
153.8094,19.3955
153.6845,19.2706
153.5808,19.1278
153.5006,18.9705
153.4461,18.8026
153.4185,18.6283
153.4185,18.4517
153.4461,18.2774
153.5006,18.1095
153.5808,17.9522
153.6845,17.8094
153.8094,17.6845
153.9522,17.5808
154.1095,17.5006
154.2774,17.4461
154.4517,17.4185
154.6283,17.4185
Z" /> 
<path style="fill:#D864FF; fill-opacity:0.4000; stroke:none;fill-rule:evenodd;"
d="M 127.4500,18.6000
126.5500,18.6000
126.5500,17.4000
127.4500,17.4000
Z" /> 
<path style="fill:#D864FF; fill-opacity:0.4000; stroke:none;fill-rule:evenodd;"
d="M 143.4500,18.6000
142.5500,18.6000
142.5500,17.4000
143.4500,17.4000
Z" /> 
<path style="fill:#D864FF; fill-opacity:0.4000; stroke:none;fill-rule:evenodd;"
d="M 81.5361,17.5421
81.6091,17.5909
81.6579,17.6639
81.6750,17.7500
81.6750,18.2500
81.6579,18.3361
81.6091,18.4091
81.5361,18.4579
81.4500,18.4750
81.0000,18.4750
80.9139,18.4579
80.8409,18.4091
80.7921,18.3361
80.7750,18.2500
80.7750,17.7500
80.7921,17.6639
80.8409,17.5909
80.9139,17.5421
81.0000,17.5250
81.4500,17.5250
Z" /> 
<path style="fill:#D864FF; fill-opacity:0.4000; stroke:none;fill-rule:evenodd;"
d="M 83.0861,17.5421
83.1591,17.5909
83.2079,17.6639
83.2250,17.7500
83.2250,18.2500
83.2079,18.3361
83.1591,18.4091
83.0861,18.4579
83.0000,18.4750
82.5500,18.4750
82.4639,18.4579
82.3909,18.4091
82.3421,18.3361
82.3250,18.2500
82.3250,17.7500
82.3421,17.6639
82.3909,17.5909
82.4639,17.5421
82.5500,17.5250
83.0000,17.5250
Z" /> 
<path style="fill:#D864FF; fill-opacity:0.4000; stroke:none;fill-rule:evenodd;"
d="M 152.0907,14.9799
152.1005,14.9799
152.1388,14.9876
152.2392,15.0035
152.2715,15.0140
152.2975,15.0191
152.3342,15.0343
152.3922,15.0532
152.4465,15.0808
152.4832,15.0960
152.5052,15.1108
152.5355,15.1262
152.6177,15.1859
152.6503,15.2077
152.6572,15.2146
152.6656,15.2207
152.7793,15.3344
152.7854,15.3428
152.7923,15.3497
152.8141,15.3823
152.8738,15.4645
152.8892,15.4948
152.9040,15.5168
152.9192,15.5535
152.9468,15.6078
152.9657,15.6658
152.9809,15.7025
152.9860,15.7285
152.9965,15.7608
153.0124,15.8612
153.0201,15.8995
153.0201,15.9093
153.0217,15.9196
153.0217,16.0804
153.0201,16.0907
153.0201,16.1005
153.0124,16.1388
152.9965,16.2392
152.9860,16.2715
152.9809,16.2975
152.9657,16.3342
152.9468,16.3922
152.9192,16.4465
152.9040,16.4832
152.8892,16.5052
152.8738,16.5355
152.8141,16.6177
152.7923,16.6503
152.7854,16.6572
152.7793,16.6656
152.6656,16.7793
152.6572,16.7854
152.6503,16.7923
152.6177,16.8141
152.5355,16.8738
152.5052,16.8892
152.4832,16.9040
152.4465,16.9192
152.3922,16.9468
152.3342,16.9657
152.2975,16.9809
152.2715,16.9860
152.2392,16.9965
152.1388,17.0124
152.1005,17.0201
152.0907,17.0201
152.0804,17.0217
151.9196,17.0217
151.9093,17.0201
151.8995,17.0201
151.8612,17.0124
151.7608,16.9965
151.7285,16.9860
151.7025,16.9809
151.6658,16.9657
151.6078,16.9468
151.5535,16.9192
151.5168,16.9040
151.4948,16.8892
151.4645,16.8738
151.3823,16.8141
151.3497,16.7923
151.3428,16.7854
151.3344,16.7793
151.2207,16.6656
151.2146,16.6572
151.2077,16.6503
151.1859,16.6177
151.1262,16.5355
151.1108,16.5052
151.0960,16.4832
151.0808,16.4465
151.0532,16.3922
151.0343,16.3342
151.0191,16.2975
151.0140,16.2715
151.0035,16.2392
150.9876,16.1388
150.9799,16.1005
150.9799,16.0907
150.9783,16.0804
150.9783,15.9196
150.9799,15.9093
150.9799,15.8995
150.9876,15.8612
151.0035,15.7608
151.0140,15.7285
151.0191,15.7025
151.0343,15.6658
151.0532,15.6078
151.0808,15.5535
151.0960,15.5168
151.1108,15.4948
151.1262,15.4645
151.1859,15.3823
151.2077,15.3497
151.2146,15.3428
151.2207,15.3344
151.3344,15.2207
151.3428,15.2146
151.3497,15.2077
151.3823,15.1859
151.4645,15.1262
151.4948,15.1108
151.5168,15.0960
151.5535,15.0808
151.6078,15.0532
151.6658,15.0343
151.7025,15.0191
151.7285,15.0140
151.7608,15.0035
151.8612,14.9876
151.8995,14.9799
151.9093,14.9799
151.9196,14.9783
152.0804,14.9783
Z" /> 
<path style="fill:#D864FF; fill-opacity:0.4000; stroke:none;fill-rule:evenodd;"
d="M 127.4500,17.0000
126.5500,17.0000
126.5500,15.8000
127.4500,15.8000
Z" /> 
<path style="fill:#D864FF; fill-opacity:0.4000; stroke:none;fill-rule:evenodd;"
d="M 143.4500,17.0000
142.5500,17.0000
142.5500,15.8000
143.4500,15.8000
Z" /> 
<path style="fill:#D864FF; fill-opacity:0.4000; stroke:none;fill-rule:evenodd;"
d="M 70.4074,15.6164
70.4561,15.6489
70.4886,15.6976
70.5000,15.7550
70.5000,16.0550
70.4886,16.1124
70.4561,16.1611
70.4074,16.1936
70.3500,16.2050
68.7000,16.2050
68.6426,16.1936
68.5939,16.1611
68.5614,16.1124
68.5500,16.0550
68.5500,15.7550
68.5614,15.6976
68.5939,15.6489
68.6426,15.6164
68.7000,15.6050
70.3500,15.6050
Z" /> 
<path style="fill:#D864FF; fill-opacity:0.4000; stroke:none;fill-rule:evenodd;"
d="M 75.3574,15.6164
75.4061,15.6489
75.4386,15.6976
75.4500,15.7550
75.4500,16.0550
75.4386,16.1124
75.4061,16.1611
75.3574,16.1936
75.3000,16.2050
73.6500,16.2050
73.5926,16.1936
73.5439,16.1611
73.5114,16.1124
73.5000,16.0550
73.5000,15.7550
73.5114,15.6976
73.5439,15.6489
73.5926,15.6164
73.6500,15.6050
75.3000,15.6050
Z" /> 
<path style="fill:#D864FF; fill-opacity:0.4000; stroke:none;fill-rule:evenodd;"
d="M 127.4500,15.4000
126.5500,15.4000
126.5500,14.2000
127.4500,14.2000
Z" /> 
<path style="fill:#D864FF; fill-opacity:0.4000; stroke:none;fill-rule:evenodd;"
d="M 143.4500,15.4000
142.5500,15.4000
142.5500,14.2000
143.4500,14.2000
Z" /> 
<path style="fill:#D864FF; fill-opacity:0.4000; stroke:none;fill-rule:evenodd;"
d="M 81.4324,14.6614
81.4811,14.6939
81.5136,14.7426
81.5250,14.8000
81.5250,15.1000
81.5136,15.1574
81.4811,15.2061
81.4324,15.2386
81.3750,15.2500
80.3500,15.2500
80.2926,15.2386
80.2439,15.2061
80.2114,15.1574
80.2000,15.1000
80.2000,14.8000
80.2114,14.7426
80.2439,14.6939
80.2926,14.6614
80.3500,14.6500
81.3750,14.6500
Z" /> 
<path style="fill:#D864FF; fill-opacity:0.4000; stroke:none;fill-rule:evenodd;"
d="M 83.7074,14.6614
83.7561,14.6939
83.7886,14.7426
83.8000,14.8000
83.8000,15.1000
83.7886,15.1574
83.7561,15.2061
83.7074,15.2386
83.6500,15.2500
82.6250,15.2500
82.5676,15.2386
82.5189,15.2061
82.4864,15.1574
82.4750,15.1000
82.4750,14.8000
82.4864,14.7426
82.5189,14.6939
82.5676,14.6614
82.6250,14.6500
83.6500,14.6500
Z" /> 
<path style="fill:#D864FF; fill-opacity:0.4000; stroke:none;fill-rule:evenodd;"
d="M 61.8467,13.0366
62.0007,13.1004
62.1392,13.1929
62.2571,13.3108
62.3496,13.4493
62.4134,13.6033
62.4459,13.7667
62.4500,13.8500
62.4500,14.1500
62.4459,14.2333
62.4134,14.3967
62.3496,14.5507
62.2571,14.6892
62.1392,14.8071
62.0007,14.8996
61.8467,14.9634
61.6833,14.9959
61.5167,14.9959
61.3533,14.9634
61.1993,14.8996
61.0608,14.8071
60.9429,14.6892
60.8504,14.5507
60.7866,14.3967
60.7541,14.2333
60.7500,14.1500
60.7500,13.8500
60.7541,13.7667
60.7866,13.6033
60.8504,13.4493
60.9429,13.3108
61.0608,13.1929
61.1993,13.1004
61.3533,13.0366
61.5167,13.0041
61.6833,13.0041
Z" /> 
<path style="fill:#D864FF; fill-opacity:0.4000; stroke:none;fill-rule:evenodd;"
d="M 70.4074,14.3464
70.4561,14.3789
70.4886,14.4276
70.5000,14.4850
70.5000,14.7850
70.4886,14.8424
70.4561,14.8911
70.4074,14.9236
70.3500,14.9350
68.7000,14.9350
68.6426,14.9236
68.5939,14.8911
68.5614,14.8424
68.5500,14.7850
68.5500,14.4850
68.5614,14.4276
68.5939,14.3789
68.6426,14.3464
68.7000,14.3350
70.3500,14.3350
Z" /> 
<path style="fill:#D864FF; fill-opacity:0.4000; stroke:none;fill-rule:evenodd;"
d="M 75.3574,14.3464
75.4061,14.3789
75.4386,14.4276
75.4500,14.4850
75.4500,14.7850
75.4386,14.8424
75.4061,14.8911
75.3574,14.9236
75.3000,14.9350
73.6500,14.9350
73.5926,14.9236
73.5439,14.8911
73.5114,14.8424
73.5000,14.7850
73.5000,14.4850
73.5114,14.4276
73.5439,14.3789
73.5926,14.3464
73.6500,14.3350
75.3000,14.3350
Z" /> 
<path style="fill:#D864FF; fill-opacity:0.4000; stroke:none;fill-rule:evenodd;"
d="M 149.7226,12.3661
149.8905,12.4206
150.0478,12.5008
150.1906,12.6045
150.3155,12.7294
150.4192,12.8722
150.4994,13.0295
150.5539,13.1974
150.5815,13.3717
150.5815,13.5483
150.5539,13.7226
150.4994,13.8905
150.4192,14.0478
150.3155,14.1906
150.1906,14.3155
150.0478,14.4192
149.8905,14.4994
149.7226,14.5539
149.5483,14.5815
149.3717,14.5815
149.1974,14.5539
149.0295,14.4994
148.8722,14.4192
148.7294,14.3155
148.6045,14.1906
148.5008,14.0478
148.4206,13.8905
148.3661,13.7226
148.3385,13.5483
148.3385,13.3717
148.3661,13.1974
148.4206,13.0295
148.5008,12.8722
148.6045,12.7294
148.7294,12.6045
148.8722,12.5008
149.0295,12.4206
149.1974,12.3661
149.3717,12.3385
149.5483,12.3385
Z" /> 
<path style="fill:#D864FF; fill-opacity:0.4000; stroke:none;fill-rule:evenodd;"
d="M 154.8026,12.3661
154.9705,12.4206
155.1278,12.5008
155.2706,12.6045
155.3955,12.7294
155.4992,12.8722
155.5794,13.0295
155.6339,13.1974
155.6615,13.3717
155.6615,13.5483
155.6339,13.7226
155.5794,13.8905
155.4992,14.0478
155.3955,14.1906
155.2706,14.3155
155.1278,14.4192
154.9705,14.4994
154.8026,14.5539
154.6283,14.5815
154.4517,14.5815
154.2774,14.5539
154.1095,14.4994
153.9522,14.4192
153.8094,14.3155
153.6845,14.1906
153.5808,14.0478
153.5006,13.8905
153.4461,13.7226
153.4185,13.5483
153.4185,13.3717
153.4461,13.1974
153.5006,13.0295
153.5808,12.8722
153.6845,12.7294
153.8094,12.6045
153.9522,12.5008
154.1095,12.4206
154.2774,12.3661
154.4517,12.3385
154.6283,12.3385
Z" /> 
<path style="fill:#D864FF; fill-opacity:0.4000; stroke:none;fill-rule:evenodd;"
d="M 81.4324,13.7114
81.4811,13.7439
81.5136,13.7926
81.5250,13.8500
81.5250,14.1500
81.5136,14.2074
81.4811,14.2561
81.4324,14.2886
81.3750,14.3000
80.3500,14.3000
80.2926,14.2886
80.2439,14.2561
80.2114,14.2074
80.2000,14.1500
80.2000,13.8500
80.2114,13.7926
80.2439,13.7439
80.2926,13.7114
80.3500,13.7000
81.3750,13.7000
Z" /> 
<path style="fill:#D864FF; fill-opacity:0.4000; stroke:none;fill-rule:evenodd;"
d="M 127.4500,13.8000
126.5500,13.8000
126.5500,12.6000
127.4500,12.6000
Z" /> 
<path style="fill:#D864FF; fill-opacity:0.4000; stroke:none;fill-rule:evenodd;"
d="M 143.4500,13.8000
142.5500,13.8000
142.5500,12.6000
143.4500,12.6000
Z" /> 
<path style="fill:#D864FF; fill-opacity:0.4000; stroke:none;fill-rule:evenodd;"
d="M 70.4074,13.0764
70.4561,13.1089
70.4886,13.1576
70.5000,13.2150
70.5000,13.5150
70.4886,13.5724
70.4561,13.6211
70.4074,13.6536
70.3500,13.6650
68.7000,13.6650
68.6426,13.6536
68.5939,13.6211
68.5614,13.5724
68.5500,13.5150
68.5500,13.2150
68.5614,13.1576
68.5939,13.1089
68.6426,13.0764
68.7000,13.0650
70.3500,13.0650
Z" /> 
<path style="fill:#D864FF; fill-opacity:0.4000; stroke:none;fill-rule:evenodd;"
d="M 75.3574,13.0764
75.4061,13.1089
75.4386,13.1576
75.4500,13.2150
75.4500,13.5150
75.4386,13.5724
75.4061,13.6211
75.3574,13.6536
75.3000,13.6650
73.6500,13.6650
73.5926,13.6536
73.5439,13.6211
73.5114,13.5724
73.5000,13.5150
73.5000,13.2150
73.5114,13.1576
73.5439,13.1089
73.5926,13.0764
73.6500,13.0650
75.3000,13.0650
Z" /> 
<path style="fill:#D864FF; fill-opacity:0.4000; stroke:none;fill-rule:evenodd;"
d="M 81.4324,12.7614
81.4811,12.7939
81.5136,12.8426
81.5250,12.9000
81.5250,13.2000
81.5136,13.2574
81.4811,13.3061
81.4324,13.3386
81.3750,13.3500
80.3500,13.3500
80.2926,13.3386
80.2439,13.3061
80.2114,13.2574
80.2000,13.2000
80.2000,12.9000
80.2114,12.8426
80.2439,12.7939
80.2926,12.7614
80.3500,12.7500
81.3750,12.7500
Z" /> 
<path style="fill:#D864FF; fill-opacity:0.4000; stroke:none;fill-rule:evenodd;"
d="M 83.7074,12.7614
83.7561,12.7939
83.7886,12.8426
83.8000,12.9000
83.8000,13.2000
83.7886,13.2574
83.7561,13.3061
83.7074,13.3386
83.6500,13.3500
82.6250,13.3500
82.5676,13.3386
82.5189,13.3061
82.4864,13.2574
82.4750,13.2000
82.4750,12.9000
82.4864,12.8426
82.5189,12.7939
82.5676,12.7614
82.6250,12.7500
83.6500,12.7500
Z" /> 
<path style="fill:#D864FF; fill-opacity:0.4000; stroke:none;fill-rule:evenodd;"
d="M 18.9790,11.1258
19.0304,11.1318
19.0480,11.1395
19.0707,11.1440
19.0950,11.1603
19.1158,11.1695
19.1300,11.1837
19.1518,11.1982
19.1663,11.2200
19.1805,11.2342
19.1897,11.2550
19.2060,11.2793
19.2105,11.3020
19.2182,11.3196
19.2242,11.3709
19.2250,11.3750
19.2250,12.6250
19.2242,12.6291
19.2182,12.6804
19.2105,12.6979
19.2060,12.7207
19.1897,12.7450
19.1805,12.7658
19.1663,12.7800
19.1518,12.8018
19.1300,12.8163
19.1158,12.8305
19.0950,12.8397
19.0707,12.8560
19.0480,12.8605
19.0304,12.8682
18.9791,12.8742
18.9750,12.8750
18.2250,12.8750
18.2209,12.8742
18.1696,12.8682
18.1520,12.8605
18.1293,12.8560
18.1050,12.8397
18.0842,12.8305
18.0700,12.8163
18.0482,12.8018
18.0337,12.7800
18.0195,12.7658
18.0103,12.7450
17.9940,12.7207
17.9895,12.6980
17.9818,12.6804
17.9758,12.6290
17.9750,12.6250
17.9750,11.3750
17.9758,11.3710
17.9818,11.3196
17.9895,11.3020
17.9940,11.2793
18.0103,11.2550
18.0195,11.2342
18.0337,11.2200
18.0482,11.1982
18.0700,11.1837
18.0842,11.1695
18.1050,11.1603
18.1293,11.1440
18.1520,11.1395
18.1696,11.1318
18.2210,11.1258
18.2250,11.1250
18.9750,11.1250
Z" /> 
<path style="fill:#D864FF; fill-opacity:0.4000; stroke:none;fill-rule:evenodd;"
d="M 21.7790,11.1258
21.8304,11.1318
21.8480,11.1395
21.8707,11.1440
21.8950,11.1603
21.9158,11.1695
21.9300,11.1837
21.9518,11.1982
21.9663,11.2200
21.9805,11.2342
21.9897,11.2550
22.0060,11.2793
22.0105,11.3020
22.0182,11.3196
22.0242,11.3709
22.0250,11.3750
22.0250,12.6250
22.0242,12.6291
22.0182,12.6804
22.0105,12.6979
22.0060,12.7207
21.9897,12.7450
21.9805,12.7658
21.9663,12.7800
21.9518,12.8018
21.9300,12.8163
21.9158,12.8305
21.8950,12.8397
21.8707,12.8560
21.8479,12.8605
21.8304,12.8682
21.7791,12.8742
21.7750,12.8750
21.0250,12.8750
21.0209,12.8742
20.9696,12.8682
20.9520,12.8605
20.9293,12.8560
20.9050,12.8397
20.8842,12.8305
20.8700,12.8163
20.8482,12.8018
20.8337,12.7800
20.8195,12.7658
20.8103,12.7450
20.7940,12.7207
20.7895,12.6980
20.7818,12.6804
20.7758,12.6290
20.7750,12.6250
20.7750,11.3750
20.7758,11.3710
20.7818,11.3196
20.7895,11.3020
20.7940,11.2793
20.8103,11.2550
20.8195,11.2342
20.8337,11.2200
20.8482,11.1982
20.8700,11.1837
20.8842,11.1695
20.9050,11.1603
20.9293,11.1440
20.9520,11.1395
20.9696,11.1318
21.0210,11.1258
21.0250,11.1250
21.7750,11.1250
Z" /> 
<path style="fill:#D864FF; fill-opacity:0.4000; stroke:none;fill-rule:evenodd;"
d="M 70.4074,11.8064
70.4561,11.8389
70.4886,11.8876
70.5000,11.9450
70.5000,12.2450
70.4886,12.3024
70.4561,12.3511
70.4074,12.3836
70.3500,12.3950
68.7000,12.3950
68.6426,12.3836
68.5939,12.3511
68.5614,12.3024
68.5500,12.2450
68.5500,11.9450
68.5614,11.8876
68.5939,11.8389
68.6426,11.8064
68.7000,11.7950
70.3500,11.7950
Z" /> 
<path style="fill:#D864FF; fill-opacity:0.4000; stroke:none;fill-rule:evenodd;"
d="M 75.3574,11.8064
75.4061,11.8389
75.4386,11.8876
75.4500,11.9450
75.4500,12.2450
75.4386,12.3024
75.4061,12.3511
75.3574,12.3836
75.3000,12.3950
73.6500,12.3950
73.5926,12.3836
73.5439,12.3511
73.5114,12.3024
73.5000,12.2450
73.5000,11.9450
73.5114,11.8876
73.5439,11.8389
73.5926,11.8064
73.6500,11.7950
75.3000,11.7950
Z" /> 
<path style="fill:#D864FF; fill-opacity:0.4000; stroke:none;fill-rule:evenodd;"
d="M 127.4500,12.2000
126.5500,12.2000
126.5500,11.0000
127.4500,11.0000
Z" /> 
<path style="fill:#D864FF; fill-opacity:0.4000; stroke:none;fill-rule:evenodd;"
d="M 143.4500,12.2000
142.5500,12.2000
142.5500,11.0000
143.4500,11.0000
Z" /> 
<path style="fill:#D864FF; fill-opacity:0.4000; stroke:none;fill-rule:evenodd;"
d="M 81.5361,9.5421
81.6091,9.5909
81.6579,9.6639
81.6750,9.7500
81.6750,10.2500
81.6579,10.3361
81.6091,10.4091
81.5361,10.4579
81.4500,10.4750
81.0000,10.4750
80.9139,10.4579
80.8409,10.4091
80.7921,10.3361
80.7750,10.2500
80.7750,9.7500
80.7921,9.6639
80.8409,9.5909
80.9139,9.5421
81.0000,9.5250
81.4500,9.5250
Z" /> 
<path style="fill:#D864FF; fill-opacity:0.4000; stroke:none;fill-rule:evenodd;"
d="M 83.0861,9.5421
83.1591,9.5909
83.2079,9.6639
83.2250,9.7500
83.2250,10.2500
83.2079,10.3361
83.1591,10.4091
83.0861,10.4579
83.0000,10.4750
82.5500,10.4750
82.4639,10.4579
82.3909,10.4091
82.3421,10.3361
82.3250,10.2500
82.3250,9.7500
82.3421,9.6639
82.3909,9.5909
82.4639,9.5421
82.5500,9.5250
83.0000,9.5250
Z" /> 
<path style="fill:#D864FF; fill-opacity:0.4000; stroke:none;fill-rule:evenodd;"
d="M 67.5361,7.5421
67.6091,7.5909
67.6579,7.6639
67.6750,7.7500
67.6750,8.2500
67.6579,8.3361
67.6091,8.4091
67.5361,8.4579
67.4500,8.4750
67.0000,8.4750
66.9139,8.4579
66.8409,8.4091
66.7921,8.3361
66.7750,8.2500
66.7750,7.7500
66.7921,7.6639
66.8409,7.5909
66.9139,7.5421
67.0000,7.5250
67.4500,7.5250
Z" /> 
<path style="fill:#D864FF; fill-opacity:0.4000; stroke:none;fill-rule:evenodd;"
d="M 69.0861,7.5421
69.1591,7.5909
69.2079,7.6639
69.2250,7.7500
69.2250,8.2500
69.2079,8.3361
69.1591,8.4091
69.0861,8.4579
69.0000,8.4750
68.5500,8.4750
68.4639,8.4579
68.3909,8.4091
68.3421,8.3361
68.3250,8.2500
68.3250,7.7500
68.3421,7.6639
68.3909,7.5909
68.4639,7.5421
68.5500,7.5250
69.0000,7.5250
Z" /> 
</g>
<g style="fill:#FFFFFF; fill-opacity:1.0000; stroke:none;">
<circle cx="32.0000" cy="39.0000" r="0.4000" /> 
</g>
<g style="fill:#FFFFFF; fill-opacity:1.0000; stroke:none;">
<circle cx="39.5000" cy="41.0000" r="0.4000" /> 
</g>
<g style="fill:#FFFFFF; fill-opacity:1.0000; stroke:none;">
<circle cx="28.0000" cy="20.0000" r="0.5000" /> 
</g>
<g style="fill:#FFFFFF; fill-opacity:1.0000; stroke:none;">
<circle cx="28.0000" cy="26.0000" r="0.5000" /> 
</g>
<g style="fill:#FFFFFF; fill-opacity:1.0000; stroke:none;">
<circle cx="61.6000" cy="14.0000" r="0.5000" /> 
</g>
<g style="fill:#FFFFFF; fill-opacity:1.0000; stroke:none;">
<circle cx="61.6000" cy="32.0000" r="0.5000" /> 
</g>
<g style="fill:#FFFFFF; fill-opacity:1.0000; stroke:none;">
<circle cx="91.1000" cy="63.7600" r="0.1000" /> 
</g>
<g style="fill:#FFFFFF; fill-opacity:1.0000; stroke:none;">
<circle cx="91.1000" cy="65.1600" r="0.1000" /> 
</g>
<g style="fill:#FFFFFF; fill-opacity:1.0000; stroke:none;">
<circle cx="91.8000" cy="63.0600" r="0.1000" /> 
</g>
<g style="fill:#FFFFFF; fill-opacity:1.0000; stroke:none;">
<circle cx="91.8000" cy="64.4600" r="0.1000" /> 
</g>
<g style="fill:#FFFFFF; fill-opacity:1.0000; stroke:none;">
<circle cx="91.8000" cy="65.8600" r="0.1000" /> 
</g>
<g style="fill:#FFFFFF; fill-opacity:1.0000; stroke:none;">
<circle cx="92.5000" cy="63.7600" r="0.1000" /> 
</g>
<g style="fill:#FFFFFF; fill-opacity:1.0000; stroke:none;">
<circle cx="92.5000" cy="65.1600" r="0.1000" /> 
</g>
<g style="fill:#FFFFFF; fill-opacity:1.0000; stroke:none;">
<circle cx="93.2000" cy="63.0600" r="0.1000" /> 
</g>
<g style="fill:#FFFFFF; fill-opacity:1.0000; stroke:none;">
<circle cx="93.2000" cy="64.4600" r="0.1000" /> 
</g>
<g style="fill:#FFFFFF; fill-opacity:1.0000; stroke:none;">
<circle cx="93.2000" cy="65.8600" r="0.1000" /> 
</g>
<g style="fill:#FFFFFF; fill-opacity:1.0000; stroke:none;">
<circle cx="93.9000" cy="63.7600" r="0.1000" /> 
</g>
<g style="fill:#FFFFFF; fill-opacity:1.0000; stroke:none;">
<circle cx="93.9000" cy="65.1600" r="0.1000" /> 
</g>
<g style="fill:#FFFFFF; fill-opacity:1.0000; stroke:none;">
<circle cx="25.0000" cy="76.0000" r="0.6500" /> 
</g>
<g style="fill:#FFFFFF; fill-opacity:1.0000; stroke:none;">
<circle cx="35.1600" cy="76.0000" r="0.6500" /> 
</g>
<g style="fill:#FFFFFF; fill-opacity:1.0000; stroke:none;">
<circle cx="42.7800" cy="76.0000" r="0.6500" /> 
</g>
<g style="fill:#FFFFFF; fill-opacity:1.0000; stroke:none;">
<circle cx="40.2400" cy="68.3800" r="0.6500" /> 
</g>
<g style="fill:#FFFFFF; fill-opacity:1.0000; stroke:none;">
<circle cx="25.0000" cy="68.3800" r="0.6500" /> 
</g>
<g style="fill:#FFFFFF; fill-opacity:1.0000; stroke:none;">
<circle cx="10.0000" cy="25.0000" r="0.6000" /> 
</g>
<g style="fill:#FFFFFF; fill-opacity:1.0000; stroke:none;">
<circle cx="13.5000" cy="25.0000" r="0.6000" /> 
</g>
<g style="fill:#FFFFFF; fill-opacity:1.0000; stroke:none;">
<circle cx="152.0000" cy="16.0000" r="0.7500" /> 
</g>
<g style="fill:#FFFFFF; fill-opacity:1.0000; stroke:none;">
<circle cx="149.4600" cy="13.4600" r="0.8500" /> 
</g>
<g style="fill:#FFFFFF; fill-opacity:1.0000; stroke:none;">
<circle cx="149.4600" cy="18.5400" r="0.8500" /> 
</g>
<g style="fill:#FFFFFF; fill-opacity:1.0000; stroke:none;">
<circle cx="154.5400" cy="13.4600" r="0.8500" /> 
</g>
<g style="fill:#FFFFFF; fill-opacity:1.0000; stroke:none;">
<circle cx="154.5400" cy="18.5400" r="0.8500" /> 
</g>
<g style="fill:#FFFFFF; fill-opacity:1.0000; stroke:none;">
<circle cx="67.0000" cy="88.0000" r="0.6500" /> 
</g>
<g style="fill:#FFFFFF; fill-opacity:1.0000; stroke:none;">
<circle cx="77.1600" cy="88.0000" r="0.6500" /> 
</g>
<g style="fill:#FFFFFF; fill-opacity:1.0000; stroke:none;">
<circle cx="84.7800" cy="88.0000" r="0.6500" /> 
</g>
<g style="fill:#FFFFFF; fill-opacity:1.0000; stroke:none;">
<circle cx="82.2400" cy="80.3800" r="0.6500" /> 
</g>
<g style="fill:#FFFFFF; fill-opacity:1.0000; stroke:none;">
<circle cx="67.0000" cy="80.3800" r="0.6500" /> 
</g> 
</svg>
