<?xml version="1.0" standalone="no"?>
 <!DOCTYPE svg PUBLIC "-//W3C//DTD SVG 1.1//EN" 
 "http://www.w3.org/Graphics/SVG/1.1/DTD/svg11.dtd"> 
<svg
  xmlns:svg="http://www.w3.org/2000/svg"
  xmlns="http://www.w3.org/2000/svg"
  xmlns:xlink="http://www.w3.org/1999/xlink"
  xmlns:inkscape="http://www.inkscape.org/namespaces/inkscape"
  version="1.1"
  width="159.9946mm" height="99.9998mm" viewBox="0.0000 0.0000 159.9946 99.9998">
<title>SVG Image created as esp32_s3_dwm3000_uwb_anchor_with_relay_outputs-F_Cu.svg date 2026-05-27T16:36:03 </title>
  <desc>Image generated by PCBNEW </desc>
<g style="fill:#000000; fill-opacity:1.0000;stroke:#000000; stroke-opacity:1.0000;
stroke-linecap:round; stroke-linejoin:round;"
 transform="translate(0 0) scale(1 1)">
<path style="fill:#C83434; fill-opacity:1.0000; stroke:none;fill-rule:evenodd;"
d="M 116.4000,29.4375
116.4048,29.4136
116.4183,29.3933
116.4386,29.3798
116.4625,29.3750
117.0125,29.3750
117.0364,29.3798
117.0567,29.3933
117.0702,29.4136
117.0750,29.4375
117.0750,29.5625
117.0702,29.5864
117.0567,29.6067
117.0364,29.6202
117.0125,29.6250
116.4625,29.6250
116.4386,29.6202
116.4183,29.6067
116.4048,29.5864
116.4000,29.5625
Z" /> 
<path style="fill:#C83434; fill-opacity:1.0000; stroke:none;fill-rule:evenodd;"
d="M 116.4000,29.9375
116.4048,29.9136
116.4183,29.8933
116.4386,29.8798
116.4625,29.8750
117.0125,29.8750
117.0364,29.8798
117.0567,29.8933
117.0702,29.9136
117.0750,29.9375
117.0750,30.0625
117.0702,30.0864
117.0567,30.1067
117.0364,30.1202
117.0125,30.1250
116.4625,30.1250
116.4386,30.1202
116.4183,30.1067
116.4048,30.0864
116.4000,30.0625
Z" /> 
<path style="fill:#C83434; fill-opacity:1.0000; stroke:none;fill-rule:evenodd;"
d="M 116.4000,30.4375
116.4048,30.4136
116.4183,30.3933
116.4386,30.3798
116.4625,30.3750
117.0125,30.3750
117.0364,30.3798
117.0567,30.3933
117.0702,30.4136
117.0750,30.4375
117.0750,30.5625
117.0702,30.5864
117.0567,30.6067
117.0364,30.6202
117.0125,30.6250
116.4625,30.6250
116.4386,30.6202
116.4183,30.6067
116.4048,30.5864
116.4000,30.5625
Z" /> 
<path style="fill:#C83434; fill-opacity:1.0000; stroke:none;fill-rule:evenodd;"
d="M 117.1250,30.9875
117.1298,30.9636
117.1433,30.9433
117.1636,30.9298
117.1875,30.9250
117.3125,30.9250
117.3364,30.9298
117.3567,30.9433
117.3702,30.9636
117.3750,30.9875
117.3750,31.5375
117.3702,31.5614
117.3567,31.5817
117.3364,31.5952
117.3125,31.6000
117.1875,31.6000
117.1636,31.5952
117.1433,31.5817
117.1298,31.5614
117.1250,31.5375
Z" /> 
<path style="fill:#C83434; fill-opacity:1.0000; stroke:none;fill-rule:evenodd;"
d="M 117.6250,30.9875
117.6298,30.9636
117.6433,30.9433
117.6636,30.9298
117.6875,30.9250
117.8125,30.9250
117.8364,30.9298
117.8567,30.9433
117.8702,30.9636
117.8750,30.9875
117.8750,31.5375
117.8702,31.5614
117.8567,31.5817
117.8364,31.5952
117.8125,31.6000
117.6875,31.6000
117.6636,31.5952
117.6433,31.5817
117.6298,31.5614
117.6250,31.5375
Z" /> 
<path style="fill:#C83434; fill-opacity:1.0000; stroke:none;fill-rule:evenodd;"
d="M 118.1250,30.9875
118.1298,30.9636
118.1433,30.9433
118.1636,30.9298
118.1875,30.9250
118.3125,30.9250
118.3364,30.9298
118.3567,30.9433
118.3702,30.9636
118.3750,30.9875
118.3750,31.5375
118.3702,31.5614
118.3567,31.5817
118.3364,31.5952
118.3125,31.6000
118.1875,31.6000
118.1636,31.5952
118.1433,31.5817
118.1298,31.5614
118.1250,31.5375
Z" /> 
<path style="fill:#C83434; fill-opacity:1.0000; stroke:none;fill-rule:evenodd;"
d="M 118.6250,30.9875
118.6298,30.9636
118.6433,30.9433
118.6636,30.9298
118.6875,30.9250
118.8125,30.9250
118.8364,30.9298
118.8567,30.9433
118.8702,30.9636
118.8750,30.9875
118.8750,31.5375
118.8702,31.5614
118.8567,31.5817
118.8364,31.5952
118.8125,31.6000
118.6875,31.6000
118.6636,31.5952
118.6433,31.5817
118.6298,31.5614
118.6250,31.5375
Z" /> 
<path style="fill:#C83434; fill-opacity:1.0000; stroke:none;fill-rule:evenodd;"
d="M 118.9250,30.4375
118.9298,30.4136
118.9433,30.3933
118.9636,30.3798
118.9875,30.3750
119.5375,30.3750
119.5614,30.3798
119.5817,30.3933
119.5952,30.4136
119.6000,30.4375
119.6000,30.5625
119.5952,30.5864
119.5817,30.6067
119.5614,30.6202
119.5375,30.6250
118.9875,30.6250
118.9636,30.6202
118.9433,30.6067
118.9298,30.5864
118.9250,30.5625
Z" /> 
<path style="fill:#C83434; fill-opacity:1.0000; stroke:none;fill-rule:evenodd;"
d="M 118.9250,29.9375
118.9298,29.9136
118.9433,29.8933
118.9636,29.8798
118.9875,29.8750
119.5375,29.8750
119.5614,29.8798
119.5817,29.8933
119.5952,29.9136
119.6000,29.9375
119.6000,30.0625
119.5952,30.0864
119.5817,30.1067
119.5614,30.1202
119.5375,30.1250
118.9875,30.1250
118.9636,30.1202
118.9433,30.1067
118.9298,30.0864
118.9250,30.0625
Z" /> 
<path style="fill:#C83434; fill-opacity:1.0000; stroke:none;fill-rule:evenodd;"
d="M 118.9250,29.4375
118.9298,29.4136
118.9433,29.3933
118.9636,29.3798
118.9875,29.3750
119.5375,29.3750
119.5614,29.3798
119.5817,29.3933
119.5952,29.4136
119.6000,29.4375
119.6000,29.5625
119.5952,29.5864
119.5817,29.6067
119.5614,29.6202
119.5375,29.6250
118.9875,29.6250
118.9636,29.6202
118.9433,29.6067
118.9298,29.5864
118.9250,29.5625
Z" /> 
<path style="fill:#C83434; fill-opacity:1.0000; stroke:none;fill-rule:evenodd;"
d="M 118.6250,28.4625
118.6298,28.4386
118.6433,28.4183
118.6636,28.4048
118.6875,28.4000
118.8125,28.4000
118.8364,28.4048
118.8567,28.4183
118.8702,28.4386
118.8750,28.4625
118.8750,29.0125
118.8702,29.0364
118.8567,29.0567
118.8364,29.0702
118.8125,29.0750
118.6875,29.0750
118.6636,29.0702
118.6433,29.0567
118.6298,29.0364
118.6250,29.0125
Z" /> 
<path style="fill:#C83434; fill-opacity:1.0000; stroke:none;fill-rule:evenodd;"
d="M 118.1250,28.4625
118.1298,28.4386
118.1433,28.4183
118.1636,28.4048
118.1875,28.4000
118.3125,28.4000
118.3364,28.4048
118.3567,28.4183
118.3702,28.4386
118.3750,28.4625
118.3750,29.0125
118.3702,29.0364
118.3567,29.0567
118.3364,29.0702
118.3125,29.0750
118.1875,29.0750
118.1636,29.0702
118.1433,29.0567
118.1298,29.0364
118.1250,29.0125
Z" /> 
<path style="fill:#C83434; fill-opacity:1.0000; stroke:none;fill-rule:evenodd;"
d="M 117.6250,28.4625
117.6298,28.4386
117.6433,28.4183
117.6636,28.4048
117.6875,28.4000
117.8125,28.4000
117.8364,28.4048
117.8567,28.4183
117.8702,28.4386
117.8750,28.4625
117.8750,29.0125
117.8702,29.0364
117.8567,29.0567
117.8364,29.0702
117.8125,29.0750
117.6875,29.0750
117.6636,29.0702
117.6433,29.0567
117.6298,29.0364
117.6250,29.0125
Z" /> 
<path style="fill:#C83434; fill-opacity:1.0000; stroke:none;fill-rule:evenodd;"
d="M 117.1250,28.4625
117.1298,28.4386
117.1433,28.4183
117.1636,28.4048
117.1875,28.4000
117.3125,28.4000
117.3364,28.4048
117.3567,28.4183
117.3702,28.4386
117.3750,28.4625
117.3750,29.0125
117.3702,29.0364
117.3567,29.0567
117.3364,29.0702
117.3125,29.0750
117.1875,29.0750
117.1636,29.0702
117.1433,29.0567
117.1298,29.0364
117.1250,29.0125
Z" /> 
<path style="fill:#C83434; fill-opacity:1.0000; stroke:none;fill-rule:evenodd;"
d="M 117.2750,30.7250
117.2750,29.2750
118.7250,29.2750
118.7250,30.7250
Z" /> 
<path style="fill:#C83434; fill-opacity:1.0000; stroke:none;fill-rule:evenodd;"
d="M 88.7750,91.7250
88.7902,91.6485
88.8336,91.5836
88.8985,91.5402
88.9750,91.5250
89.3750,91.5250
89.4515,91.5402
89.5164,91.5836
89.5598,91.6485
89.5750,91.7250
89.5750,92.2750
89.5598,92.3515
89.5164,92.4164
89.4515,92.4598
89.3750,92.4750
88.9750,92.4750
88.8985,92.4598
88.8336,92.4164
88.7902,92.3515
88.7750,92.2750
Z" /> 
<path style="fill:#C83434; fill-opacity:1.0000; stroke:none;fill-rule:evenodd;"
d="M 90.4250,91.7250
90.4402,91.6485
90.4836,91.5836
90.5485,91.5402
90.6250,91.5250
91.0250,91.5250
91.1015,91.5402
91.1664,91.5836
91.2098,91.6485
91.2250,91.7250
91.2250,92.2750
91.2098,92.3515
91.1664,92.4164
91.1015,92.4598
91.0250,92.4750
90.6250,92.4750
90.5485,92.4598
90.4836,92.4164
90.4402,92.3515
90.4250,92.2750
Z" /> 
<path style="fill:#C83434; fill-opacity:1.0000; stroke:none;fill-rule:evenodd;"
d="M 100.7750,95.7250
100.7902,95.6485
100.8336,95.5836
100.8985,95.5402
100.9750,95.5250
101.3750,95.5250
101.4515,95.5402
101.5164,95.5836
101.5598,95.6485
101.5750,95.7250
101.5750,96.2750
101.5598,96.3515
101.5164,96.4164
101.4515,96.4598
101.3750,96.4750
100.9750,96.4750
100.8985,96.4598
100.8336,96.4164
100.7902,96.3515
100.7750,96.2750
Z" /> 
<path style="fill:#C83434; fill-opacity:1.0000; stroke:none;fill-rule:evenodd;"
d="M 102.4250,95.7250
102.4402,95.6485
102.4836,95.5836
102.5485,95.5402
102.6250,95.5250
103.0250,95.5250
103.1015,95.5402
103.1664,95.5836
103.2098,95.6485
103.2250,95.7250
103.2250,96.2750
103.2098,96.3515
103.1664,96.4164
103.1015,96.4598
103.0250,96.4750
102.6250,96.4750
102.5485,96.4598
102.4836,96.4164
102.4402,96.3515
102.4250,96.2750
Z" /> 
</g>
<g style="fill:#C83434; fill-opacity:1.0000; stroke:none;">
<circle cx="32.0000" cy="39.0000" r="0.9000" /> 
<circle cx="39.5000" cy="41.0000" r="0.9000" /> 
<path style="fill:#C83434; fill-opacity:1.0000; stroke:none;fill-rule:evenodd;"
d="M 94.7750,77.3550
94.7902,77.2785
94.8336,77.2136
94.8985,77.1702
94.9750,77.1550
95.3750,77.1550
95.4515,77.1702
95.5164,77.2136
95.5598,77.2785
95.5750,77.3550
95.5750,77.9050
95.5598,77.9815
95.5164,78.0464
95.4515,78.0898
95.3750,78.1050
94.9750,78.1050
94.8985,78.0898
94.8336,78.0464
94.7902,77.9815
94.7750,77.9050
Z" /> 
<path style="fill:#C83434; fill-opacity:1.0000; stroke:none;fill-rule:evenodd;"
d="M 96.4250,77.3550
96.4402,77.2785
96.4836,77.2136
96.5485,77.1702
96.6250,77.1550
97.0250,77.1550
97.1015,77.1702
97.1664,77.2136
97.2098,77.2785
97.2250,77.3550
97.2250,77.9050
97.2098,77.9815
97.1664,78.0464
97.1015,78.0898
97.0250,78.1050
96.6250,78.1050
96.5485,78.0898
96.4836,78.0464
96.4402,77.9815
96.4250,77.9050
Z" /> 
<path style="fill:#C83434; fill-opacity:1.0000; stroke:none;fill-rule:evenodd;"
d="M 17.9750,11.3750
17.9940,11.2793
18.0482,11.1982
18.1293,11.1440
18.2250,11.1250
18.9750,11.1250
19.0707,11.1440
19.1518,11.1982
19.2060,11.2793
19.2250,11.3750
19.2250,12.6250
19.2060,12.7207
19.1518,12.8018
19.0707,12.8560
18.9750,12.8750
18.2250,12.8750
18.1293,12.8560
18.0482,12.8018
17.9940,12.7207
17.9750,12.6250
Z" /> 
<path style="fill:#C83434; fill-opacity:1.0000; stroke:none;fill-rule:evenodd;"
d="M 20.7750,11.3750
20.7940,11.2793
20.8482,11.1982
20.9293,11.1440
21.0250,11.1250
21.7750,11.1250
21.8707,11.1440
21.9518,11.1982
22.0060,11.2793
22.0250,11.3750
22.0250,12.6250
22.0060,12.7207
21.9518,12.8018
21.8707,12.8560
21.7750,12.8750
21.0250,12.8750
20.9293,12.8560
20.8482,12.8018
20.7940,12.7207
20.7750,12.6250
Z" /> 
<path style="fill:#C83434; fill-opacity:1.0000; stroke:none;fill-rule:evenodd;"
d="M 72.7750,19.7500
72.7921,19.6639
72.8409,19.5909
72.9139,19.5421
73.0000,19.5250
73.4500,19.5250
73.5361,19.5421
73.6091,19.5909
73.6579,19.6639
73.6750,19.7500
73.6750,20.2500
73.6579,20.3361
73.6091,20.4091
73.5361,20.4579
73.4500,20.4750
73.0000,20.4750
72.9139,20.4579
72.8409,20.4091
72.7921,20.3361
72.7750,20.2500
Z" /> 
<path style="fill:#C83434; fill-opacity:1.0000; stroke:none;fill-rule:evenodd;"
d="M 74.3250,19.7500
74.3421,19.6639
74.3909,19.5909
74.4639,19.5421
74.5500,19.5250
75.0000,19.5250
75.0861,19.5421
75.1591,19.5909
75.2079,19.6639
75.2250,19.7500
75.2250,20.2500
75.2079,20.3361
75.1591,20.4091
75.0861,20.4579
75.0000,20.4750
74.5500,20.4750
74.4639,20.4579
74.3909,20.4091
74.3421,20.3361
74.3250,20.2500
Z" /> 
<path style="fill:#C83434; fill-opacity:1.0000; stroke:none;fill-rule:evenodd;"
d="M 46.7750,87.7250
46.7902,87.6485
46.8336,87.5836
46.8985,87.5402
46.9750,87.5250
47.3750,87.5250
47.4515,87.5402
47.5164,87.5836
47.5598,87.6485
47.5750,87.7250
47.5750,88.2750
47.5598,88.3515
47.5164,88.4164
47.4515,88.4598
47.3750,88.4750
46.9750,88.4750
46.8985,88.4598
46.8336,88.4164
46.7902,88.3515
46.7750,88.2750
Z" /> 
<path style="fill:#C83434; fill-opacity:1.0000; stroke:none;fill-rule:evenodd;"
d="M 48.4250,87.7250
48.4402,87.6485
48.4836,87.5836
48.5485,87.5402
48.6250,87.5250
49.0250,87.5250
49.1015,87.5402
49.1664,87.5836
49.2098,87.6485
49.2250,87.7250
49.2250,88.2750
49.2098,88.3515
49.1664,88.4164
49.1015,88.4598
49.0250,88.4750
48.6250,88.4750
48.5485,88.4598
48.4836,88.4164
48.4402,88.3515
48.4250,88.2750
Z" /> 
<path style="fill:#C83434; fill-opacity:1.0000; stroke:none;fill-rule:evenodd;"
d="M 80.7750,17.7500
80.7921,17.6639
80.8409,17.5909
80.9139,17.5421
81.0000,17.5250
81.4500,17.5250
81.5361,17.5421
81.6091,17.5909
81.6579,17.6639
81.6750,17.7500
81.6750,18.2500
81.6579,18.3361
81.6091,18.4091
81.5361,18.4579
81.4500,18.4750
81.0000,18.4750
80.9139,18.4579
80.8409,18.4091
80.7921,18.3361
80.7750,18.2500
Z" /> 
<path style="fill:#C83434; fill-opacity:1.0000; stroke:none;fill-rule:evenodd;"
d="M 82.3250,17.7500
82.3421,17.6639
82.3909,17.5909
82.4639,17.5421
82.5500,17.5250
83.0000,17.5250
83.0861,17.5421
83.1591,17.5909
83.2079,17.6639
83.2250,17.7500
83.2250,18.2500
83.2079,18.3361
83.1591,18.4091
83.0861,18.4579
83.0000,18.4750
82.5500,18.4750
82.4639,18.4579
82.3909,18.4091
82.3421,18.3361
82.3250,18.2500
Z" /> 
<path style="fill:#C83434; fill-opacity:1.0000; stroke:none;fill-rule:evenodd;"
d="M 60.7750,87.7250
60.7902,87.6485
60.8336,87.5836
60.8985,87.5402
60.9750,87.5250
61.3750,87.5250
61.4515,87.5402
61.5164,87.5836
61.5598,87.6485
61.5750,87.7250
61.5750,88.2750
61.5598,88.3515
61.5164,88.4164
61.4515,88.4598
61.3750,88.4750
60.9750,88.4750
60.8985,88.4598
60.8336,88.4164
60.7902,88.3515
60.7750,88.2750
Z" /> 
<path style="fill:#C83434; fill-opacity:1.0000; stroke:none;fill-rule:evenodd;"
d="M 62.4250,87.7250
62.4402,87.6485
62.4836,87.5836
62.5485,87.5402
62.6250,87.5250
63.0250,87.5250
63.1015,87.5402
63.1664,87.5836
63.2098,87.6485
63.2250,87.7250
63.2250,88.2750
63.2098,88.3515
63.1664,88.4164
63.1015,88.4598
63.0250,88.4750
62.6250,88.4750
62.5485,88.4598
62.4836,88.4164
62.4402,88.3515
62.4250,88.2750
Z" /> 
<path style="fill:#C83434; fill-opacity:1.0000; stroke:none;fill-rule:evenodd;"
d="M 46.7750,95.7250
46.7902,95.6485
46.8336,95.5836
46.8985,95.5402
46.9750,95.5250
47.3750,95.5250
47.4515,95.5402
47.5164,95.5836
47.5598,95.6485
47.5750,95.7250
47.5750,96.2750
47.5598,96.3515
47.5164,96.4164
47.4515,96.4598
47.3750,96.4750
46.9750,96.4750
46.8985,96.4598
46.8336,96.4164
46.7902,96.3515
46.7750,96.2750
Z" /> 
<path style="fill:#C83434; fill-opacity:1.0000; stroke:none;fill-rule:evenodd;"
d="M 48.4250,95.7250
48.4402,95.6485
48.4836,95.5836
48.5485,95.5402
48.6250,95.5250
49.0250,95.5250
49.1015,95.5402
49.1664,95.5836
49.2098,95.6485
49.2250,95.7250
49.2250,96.2750
49.2098,96.3515
49.1664,96.4164
49.1015,96.4598
49.0250,96.4750
48.6250,96.4750
48.5485,96.4598
48.4836,96.4164
48.4402,96.3515
48.4250,96.2750
Z" /> 
<path style="fill:#C83434; fill-opacity:1.0000; stroke:none;fill-rule:evenodd;"
d="M 66.7750,7.7500
66.7921,7.6639
66.8409,7.5909
66.9139,7.5421
67.0000,7.5250
67.4500,7.5250
67.5361,7.5421
67.6091,7.5909
67.6579,7.6639
67.6750,7.7500
67.6750,8.2500
67.6579,8.3361
67.6091,8.4091
67.5361,8.4579
67.4500,8.4750
67.0000,8.4750
66.9139,8.4579
66.8409,8.4091
66.7921,8.3361
66.7750,8.2500
Z" /> 
<path style="fill:#C83434; fill-opacity:1.0000; stroke:none;fill-rule:evenodd;"
d="M 68.3250,7.7500
68.3421,7.6639
68.3909,7.5909
68.4639,7.5421
68.5500,7.5250
69.0000,7.5250
69.0861,7.5421
69.1591,7.5909
69.2079,7.6639
69.2250,7.7500
69.2250,8.2500
69.2079,8.3361
69.1591,8.4091
69.0861,8.4579
69.0000,8.4750
68.5500,8.4750
68.4639,8.4579
68.3909,8.4091
68.3421,8.3361
68.3250,8.2500
Z" /> 
<path style="fill:#C83434; fill-opacity:1.0000; stroke:none;fill-rule:evenodd;"
d="M 136.7750,91.7250
136.7902,91.6485
136.8336,91.5836
136.8985,91.5402
136.9750,91.5250
137.3750,91.5250
137.4515,91.5402
137.5164,91.5836
137.5598,91.6485
137.5750,91.7250
137.5750,92.2750
137.5598,92.3515
137.5164,92.4164
137.4515,92.4598
137.3750,92.4750
136.9750,92.4750
136.8985,92.4598
136.8336,92.4164
136.7902,92.3515
136.7750,92.2750
Z" /> 
<path style="fill:#C83434; fill-opacity:1.0000; stroke:none;fill-rule:evenodd;"
d="M 138.4250,91.7250
138.4402,91.6485
138.4836,91.5836
138.5485,91.5402
138.6250,91.5250
139.0250,91.5250
139.1015,91.5402
139.1664,91.5836
139.2098,91.6485
139.2250,91.7250
139.2250,92.2750
139.2098,92.3515
139.1664,92.4164
139.1015,92.4598
139.0250,92.4750
138.6250,92.4750
138.5485,92.4598
138.4836,92.4164
138.4402,92.3515
138.4250,92.2750
Z" /> 
<path style="fill:#C83434; fill-opacity:1.0000; stroke:none;fill-rule:evenodd;"
d="M 46.7750,91.7250
46.7902,91.6485
46.8336,91.5836
46.8985,91.5402
46.9750,91.5250
47.3750,91.5250
47.4515,91.5402
47.5164,91.5836
47.5598,91.6485
47.5750,91.7250
47.5750,92.2750
47.5598,92.3515
47.5164,92.4164
47.4515,92.4598
47.3750,92.4750
46.9750,92.4750
46.8985,92.4598
46.8336,92.4164
46.7902,92.3515
46.7750,92.2750
Z" /> 
<path style="fill:#C83434; fill-opacity:1.0000; stroke:none;fill-rule:evenodd;"
d="M 48.4250,91.7250
48.4402,91.6485
48.4836,91.5836
48.5485,91.5402
48.6250,91.5250
49.0250,91.5250
49.1015,91.5402
49.1664,91.5836
49.2098,91.6485
49.2250,91.7250
49.2250,92.2750
49.2098,92.3515
49.1664,92.4164
49.1015,92.4598
49.0250,92.4750
48.6250,92.4750
48.5485,92.4598
48.4836,92.4164
48.4402,92.3515
48.4250,92.2750
Z" /> 
<path style="fill:#C83434; fill-opacity:1.0000; stroke:none;fill-rule:evenodd;"
d="M 121.7750,21.7500
121.7921,21.6639
121.8409,21.5909
121.9139,21.5421
122.0000,21.5250
122.4500,21.5250
122.5361,21.5421
122.6091,21.5909
122.6579,21.6639
122.6750,21.7500
122.6750,22.2500
122.6579,22.3361
122.6091,22.4091
122.5361,22.4579
122.4500,22.4750
122.0000,22.4750
121.9139,22.4579
121.8409,22.4091
121.7921,22.3361
121.7750,22.2500
Z" /> 
<path style="fill:#C83434; fill-opacity:1.0000; stroke:none;fill-rule:evenodd;"
d="M 123.3250,21.7500
123.3421,21.6639
123.3909,21.5909
123.4639,21.5421
123.5500,21.5250
124.0000,21.5250
124.0861,21.5421
124.1591,21.5909
124.2079,21.6639
124.2250,21.7500
124.2250,22.2500
124.2079,22.3361
124.1591,22.4091
124.0861,22.4579
124.0000,22.4750
123.5500,22.4750
123.4639,22.4579
123.3909,22.4091
123.3421,22.3361
123.3250,22.2500
Z" /> 
<path style="fill:#C83434; fill-opacity:1.0000; stroke:none;fill-rule:evenodd;"
d="M 92.7750,81.7500
92.7921,81.6639
92.8409,81.5909
92.9139,81.5421
93.0000,81.5250
93.4500,81.5250
93.5361,81.5421
93.6091,81.5909
93.6579,81.6639
93.6750,81.7500
93.6750,82.2500
93.6579,82.3361
93.6091,82.4091
93.5361,82.4579
93.4500,82.4750
93.0000,82.4750
92.9139,82.4579
92.8409,82.4091
92.7921,82.3361
92.7750,82.2500
Z" /> 
<path style="fill:#C83434; fill-opacity:1.0000; stroke:none;fill-rule:evenodd;"
d="M 94.3250,81.7500
94.3421,81.6639
94.3909,81.5909
94.4639,81.5421
94.5500,81.5250
95.0000,81.5250
95.0861,81.5421
95.1591,81.5909
95.2079,81.6639
95.2250,81.7500
95.2250,82.2500
95.2079,82.3361
95.1591,82.4091
95.0861,82.4579
95.0000,82.4750
94.5500,82.4750
94.4639,82.4579
94.3909,82.4091
94.3421,82.3361
94.3250,82.2500
Z" /> 
<path style="fill:#C83434; fill-opacity:1.0000; stroke:none;fill-rule:evenodd;"
d="M 118.7750,95.7250
118.7902,95.6485
118.8336,95.5836
118.8985,95.5402
118.9750,95.5250
119.3750,95.5250
119.4515,95.5402
119.5164,95.5836
119.5598,95.6485
119.5750,95.7250
119.5750,96.2750
119.5598,96.3515
119.5164,96.4164
119.4515,96.4598
119.3750,96.4750
118.9750,96.4750
118.8985,96.4598
118.8336,96.4164
118.7902,96.3515
118.7750,96.2750
Z" /> 
<path style="fill:#C83434; fill-opacity:1.0000; stroke:none;fill-rule:evenodd;"
d="M 120.4250,95.7250
120.4402,95.6485
120.4836,95.5836
120.5485,95.5402
120.6250,95.5250
121.0250,95.5250
121.1015,95.5402
121.1664,95.5836
121.2098,95.6485
121.2250,95.7250
121.2250,96.2750
121.2098,96.3515
121.1664,96.4164
121.1015,96.4598
121.0250,96.4750
120.6250,96.4750
120.5485,96.4598
120.4836,96.4164
120.4402,96.3515
120.4250,96.2750
Z" /> 
<path style="fill:#C83434; fill-opacity:1.0000; stroke:none;fill-rule:evenodd;"
d="M 126.7750,35.7500
126.7921,35.6639
126.8409,35.5909
126.9139,35.5421
127.0000,35.5250
127.4500,35.5250
127.5361,35.5421
127.6091,35.5909
127.6579,35.6639
127.6750,35.7500
127.6750,36.2500
127.6579,36.3361
127.6091,36.4091
127.5361,36.4579
127.4500,36.4750
127.0000,36.4750
126.9139,36.4579
126.8409,36.4091
126.7921,36.3361
126.7750,36.2500
Z" /> 
<path style="fill:#C83434; fill-opacity:1.0000; stroke:none;fill-rule:evenodd;"
d="M 128.3250,35.7500
128.3421,35.6639
128.3909,35.5909
128.4639,35.5421
128.5500,35.5250
129.0000,35.5250
129.0861,35.5421
129.1591,35.5909
129.2079,35.6639
129.2250,35.7500
129.2250,36.2500
129.2079,36.3361
129.1591,36.4091
129.0861,36.4579
129.0000,36.4750
128.5500,36.4750
128.4639,36.4579
128.3909,36.4091
128.3421,36.3361
128.3250,36.2500
Z" /> 
<path style="fill:#C83434; fill-opacity:1.0000; stroke:none;fill-rule:evenodd;"
d="M 27.1500,19.2500
27.1690,19.1543
27.2232,19.0732
27.3043,19.0190
27.4000,19.0000
28.6000,19.0000
28.6957,19.0190
28.7768,19.0732
28.8310,19.1543
28.8500,19.2500
28.8500,20.7500
28.8310,20.8457
28.7768,20.9268
28.6957,20.9810
28.6000,21.0000
27.4000,21.0000
27.3043,20.9810
27.2232,20.9268
27.1690,20.8457
27.1500,20.7500
Z" /> 
</g>
<g style="fill:none; 
stroke:#C83434; stroke-width:1.7000; stroke-opacity:1; 
stroke-linecap:round; stroke-linejoin:round;">
<path d="M28.0000 25.8500
L28.0000 26.1500
" />
<path d="M61.6000 13.8500
L61.6000 14.1500
" />
<path d="M61.6000 31.8500
L61.6000 32.1500
" />
<path style="fill:#C83434; fill-opacity:1.0000; stroke:none;fill-rule:evenodd;"
d="M 120.7750,76.8150
120.7902,76.7385
120.8336,76.6736
120.8985,76.6302
120.9750,76.6150
121.3750,76.6150
121.4515,76.6302
121.5164,76.6736
121.5598,76.7385
121.5750,76.8150
121.5750,77.3650
121.5598,77.4415
121.5164,77.5064
121.4515,77.5498
121.3750,77.5650
120.9750,77.5650
120.8985,77.5498
120.8336,77.5064
120.7902,77.4415
120.7750,77.3650
Z" /> 
<path style="fill:#C83434; fill-opacity:1.0000; stroke:none;fill-rule:evenodd;"
d="M 122.4250,76.8150
122.4402,76.7385
122.4836,76.6736
122.5485,76.6302
122.6250,76.6150
123.0250,76.6150
123.1015,76.6302
123.1664,76.6736
123.2098,76.7385
123.2250,76.8150
123.2250,77.3650
123.2098,77.4415
123.1664,77.5064
123.1015,77.5498
123.0250,77.5650
122.6250,77.5650
122.5485,77.5498
122.4836,77.5064
122.4402,77.4415
122.4250,77.3650
Z" /> 
<path style="fill:#C83434; fill-opacity:1.0000; stroke:none;fill-rule:evenodd;"
d="M 64.7750,95.7250
64.7902,95.6485
64.8336,95.5836
64.8985,95.5402
64.9750,95.5250
65.3750,95.5250
65.4515,95.5402
65.5164,95.5836
65.5598,95.6485
65.5750,95.7250
65.5750,96.2750
65.5598,96.3515
65.5164,96.4164
65.4515,96.4598
65.3750,96.4750
64.9750,96.4750
64.8985,96.4598
64.8336,96.4164
64.7902,96.3515
64.7750,96.2750
Z" /> 
<path style="fill:#C83434; fill-opacity:1.0000; stroke:none;fill-rule:evenodd;"
d="M 66.4250,95.7250
66.4402,95.6485
66.4836,95.5836
66.5485,95.5402
66.6250,95.5250
67.0250,95.5250
67.1015,95.5402
67.1664,95.5836
67.2098,95.6485
67.2250,95.7250
67.2250,96.2750
67.2098,96.3515
67.1664,96.4164
67.1015,96.4598
67.0250,96.4750
66.6250,96.4750
66.5485,96.4598
66.4836,96.4164
66.4402,96.3515
66.4250,96.2750
Z" /> 
<path style="fill:#C83434; fill-opacity:1.0000; stroke:none;fill-rule:evenodd;"
d="M 84.5000,57.1900
84.5000,56.2900
86.0000,56.2900
86.0000,57.1900
Z" /> 
<path style="fill:#C83434; fill-opacity:1.0000; stroke:none;fill-rule:evenodd;"
d="M 84.5000,58.4600
84.5000,57.5600
86.0000,57.5600
86.0000,58.4600
Z" /> 
<path style="fill:#C83434; fill-opacity:1.0000; stroke:none;fill-rule:evenodd;"
d="M 84.5000,59.7300
84.5000,58.8300
86.0000,58.8300
86.0000,59.7300
Z" /> 
<path style="fill:#C83434; fill-opacity:1.0000; stroke:none;fill-rule:evenodd;"
d="M 84.5000,61.0000
84.5000,60.1000
86.0000,60.1000
86.0000,61.0000
Z" /> 
<path style="fill:#C83434; fill-opacity:1.0000; stroke:none;fill-rule:evenodd;"
d="M 84.5000,62.2700
84.5000,61.3700
86.0000,61.3700
86.0000,62.2700
Z" /> 
<path style="fill:#C83434; fill-opacity:1.0000; stroke:none;fill-rule:evenodd;"
d="M 84.5000,63.5400
84.5000,62.6400
86.0000,62.6400
86.0000,63.5400
Z" /> 
<path style="fill:#C83434; fill-opacity:1.0000; stroke:none;fill-rule:evenodd;"
d="M 84.5000,64.8100
84.5000,63.9100
86.0000,63.9100
86.0000,64.8100
Z" /> 
<path style="fill:#C83434; fill-opacity:1.0000; stroke:none;fill-rule:evenodd;"
d="M 84.5000,66.0800
84.5000,65.1800
86.0000,65.1800
86.0000,66.0800
Z" /> 
<path style="fill:#C83434; fill-opacity:1.0000; stroke:none;fill-rule:evenodd;"
d="M 84.5000,67.3500
84.5000,66.4500
86.0000,66.4500
86.0000,67.3500
Z" /> 
<path style="fill:#C83434; fill-opacity:1.0000; stroke:none;fill-rule:evenodd;"
d="M 84.5000,68.6200
84.5000,67.7200
86.0000,67.7200
86.0000,68.6200
Z" /> 
<path style="fill:#C83434; fill-opacity:1.0000; stroke:none;fill-rule:evenodd;"
d="M 84.5000,69.8900
84.5000,68.9900
86.0000,68.9900
86.0000,69.8900
Z" /> 
<path style="fill:#C83434; fill-opacity:1.0000; stroke:none;fill-rule:evenodd;"
d="M 84.5000,71.1600
84.5000,70.2600
86.0000,70.2600
86.0000,71.1600
Z" /> 
<path style="fill:#C83434; fill-opacity:1.0000; stroke:none;fill-rule:evenodd;"
d="M 84.5000,72.4300
84.5000,71.5300
86.0000,71.5300
86.0000,72.4300
Z" /> 
<path style="fill:#C83434; fill-opacity:1.0000; stroke:none;fill-rule:evenodd;"
d="M 86.0000,72.8000
86.0000,73.7000
84.5000,73.7000
84.5000,72.8000
Z" /> 
<path style="fill:#C83434; fill-opacity:1.0000; stroke:none;fill-rule:evenodd;"
d="M 86.5650,73.7500
87.4650,73.7500
87.4650,75.2500
86.5650,75.2500
Z" /> 
<path style="fill:#C83434; fill-opacity:1.0000; stroke:none;fill-rule:evenodd;"
d="M 87.8350,73.7500
88.7350,73.7500
88.7350,75.2500
87.8350,75.2500
Z" /> 
<path style="fill:#C83434; fill-opacity:1.0000; stroke:none;fill-rule:evenodd;"
d="M 89.1050,73.7500
90.0050,73.7500
90.0050,75.2500
89.1050,75.2500
Z" /> 
<path style="fill:#C83434; fill-opacity:1.0000; stroke:none;fill-rule:evenodd;"
d="M 90.3750,73.7500
91.2750,73.7500
91.2750,75.2500
90.3750,75.2500
Z" /> 
<path style="fill:#C83434; fill-opacity:1.0000; stroke:none;fill-rule:evenodd;"
d="M 91.6450,73.7500
92.5450,73.7500
92.5450,75.2500
91.6450,75.2500
Z" /> 
<path style="fill:#C83434; fill-opacity:1.0000; stroke:none;fill-rule:evenodd;"
d="M 92.9150,73.7500
93.8150,73.7500
93.8150,75.2500
92.9150,75.2500
Z" /> 
<path style="fill:#C83434; fill-opacity:1.0000; stroke:none;fill-rule:evenodd;"
d="M 94.1850,73.7500
95.0850,73.7500
95.0850,75.2500
94.1850,75.2500
Z" /> 
<path style="fill:#C83434; fill-opacity:1.0000; stroke:none;fill-rule:evenodd;"
d="M 95.4550,73.7500
96.3550,73.7500
96.3550,75.2500
95.4550,75.2500
Z" /> 
<path style="fill:#C83434; fill-opacity:1.0000; stroke:none;fill-rule:evenodd;"
d="M 96.7250,73.7500
97.6250,73.7500
97.6250,75.2500
96.7250,75.2500
Z" /> 
<path style="fill:#C83434; fill-opacity:1.0000; stroke:none;fill-rule:evenodd;"
d="M 97.9950,73.7500
98.8950,73.7500
98.8950,75.2500
97.9950,75.2500
Z" /> 
<path style="fill:#C83434; fill-opacity:1.0000; stroke:none;fill-rule:evenodd;"
d="M 99.2650,73.7500
100.1650,73.7500
100.1650,75.2500
99.2650,75.2500
Z" /> 
<path style="fill:#C83434; fill-opacity:1.0000; stroke:none;fill-rule:evenodd;"
d="M 100.5350,73.7500
101.4350,73.7500
101.4350,75.2500
100.5350,75.2500
Z" /> 
<path style="fill:#C83434; fill-opacity:1.0000; stroke:none;fill-rule:evenodd;"
d="M 102.0000,73.7000
102.0000,72.8000
103.5000,72.8000
103.5000,73.7000
Z" /> 
<path style="fill:#C83434; fill-opacity:1.0000; stroke:none;fill-rule:evenodd;"
d="M 102.0000,72.4300
102.0000,71.5300
103.5000,71.5300
103.5000,72.4300
Z" /> 
<path style="fill:#C83434; fill-opacity:1.0000; stroke:none;fill-rule:evenodd;"
d="M 102.0000,71.1600
102.0000,70.2600
103.5000,70.2600
103.5000,71.1600
Z" /> 
<path style="fill:#C83434; fill-opacity:1.0000; stroke:none;fill-rule:evenodd;"
d="M 102.0000,69.8900
102.0000,68.9900
103.5000,68.9900
103.5000,69.8900
Z" /> 
<path style="fill:#C83434; fill-opacity:1.0000; stroke:none;fill-rule:evenodd;"
d="M 102.0000,68.6200
102.0000,67.7200
103.5000,67.7200
103.5000,68.6200
Z" /> 
<path style="fill:#C83434; fill-opacity:1.0000; stroke:none;fill-rule:evenodd;"
d="M 102.0000,67.3500
102.0000,66.4500
103.5000,66.4500
103.5000,67.3500
Z" /> 
<path style="fill:#C83434; fill-opacity:1.0000; stroke:none;fill-rule:evenodd;"
d="M 102.0000,66.0800
102.0000,65.1800
103.5000,65.1800
103.5000,66.0800
Z" /> 
<path style="fill:#C83434; fill-opacity:1.0000; stroke:none;fill-rule:evenodd;"
d="M 102.0000,64.8100
102.0000,63.9100
103.5000,63.9100
103.5000,64.8100
Z" /> 
<path style="fill:#C83434; fill-opacity:1.0000; stroke:none;fill-rule:evenodd;"
d="M 102.0000,63.5400
102.0000,62.6400
103.5000,62.6400
103.5000,63.5400
Z" /> 
<path style="fill:#C83434; fill-opacity:1.0000; stroke:none;fill-rule:evenodd;"
d="M 102.0000,62.2700
102.0000,61.3700
103.5000,61.3700
103.5000,62.2700
Z" /> 
<path style="fill:#C83434; fill-opacity:1.0000; stroke:none;fill-rule:evenodd;"
d="M 102.0000,61.0000
102.0000,60.1000
103.5000,60.1000
103.5000,61.0000
Z" /> 
<path style="fill:#C83434; fill-opacity:1.0000; stroke:none;fill-rule:evenodd;"
d="M 102.0000,59.7300
102.0000,58.8300
103.5000,58.8300
103.5000,59.7300
Z" /> 
<path style="fill:#C83434; fill-opacity:1.0000; stroke:none;fill-rule:evenodd;"
d="M 102.0000,58.4600
102.0000,57.5600
103.5000,57.5600
103.5000,58.4600
Z" /> 
<path style="fill:#C83434; fill-opacity:1.0000; stroke:none;fill-rule:evenodd;"
d="M 102.0000,57.1900
102.0000,56.2900
103.5000,56.2900
103.5000,57.1900
Z" /> 
</g>
<g style="fill:#C83434; fill-opacity:1.0000; stroke:none;">
<circle cx="91.1000" cy="63.7600" r="0.3000" /> 
<circle cx="91.1000" cy="65.1600" r="0.3000" /> 
<circle cx="91.8000" cy="63.0600" r="0.3000" /> 
<circle cx="91.8000" cy="64.4600" r="0.3000" /> 
<circle cx="91.8000" cy="65.8600" r="0.3000" /> 
<circle cx="92.5000" cy="63.7600" r="0.3000" /> 
<path style="fill:#C83434; fill-opacity:1.0000; stroke:none;fill-rule:evenodd;"
d="M 90.5500,62.5100
94.4500,62.5100
94.4500,66.4100
90.5500,66.4100
Z" /> 
<circle cx="92.5000" cy="65.1600" r="0.3000" /> 
<circle cx="93.2000" cy="63.0600" r="0.3000" /> 
<circle cx="93.2000" cy="64.4600" r="0.3000" /> 
<circle cx="93.2000" cy="65.8600" r="0.3000" /> 
<circle cx="93.9000" cy="63.7600" r="0.3000" /> 
<circle cx="93.9000" cy="65.1600" r="0.3000" /> 
<path style="fill:#C83434; fill-opacity:1.0000; stroke:none;fill-rule:evenodd;"
d="M 106.7750,78.0850
106.7902,78.0085
106.8336,77.9436
106.8985,77.9002
106.9750,77.8850
107.3750,77.8850
107.4515,77.9002
107.5164,77.9436
107.5598,78.0085
107.5750,78.0850
107.5750,78.6350
107.5598,78.7115
107.5164,78.7764
107.4515,78.8198
107.3750,78.8350
106.9750,78.8350
106.8985,78.8198
106.8336,78.7764
106.7902,78.7115
106.7750,78.6350
Z" /> 
<path style="fill:#C83434; fill-opacity:1.0000; stroke:none;fill-rule:evenodd;"
d="M 108.4250,78.0850
108.4402,78.0085
108.4836,77.9436
108.5485,77.9002
108.6250,77.8850
109.0250,77.8850
109.1015,77.9002
109.1664,77.9436
109.2098,78.0085
109.2250,78.0850
109.2250,78.6350
109.2098,78.7115
109.1664,78.7764
109.1015,78.8198
109.0250,78.8350
108.6250,78.8350
108.5485,78.8198
108.4836,78.7764
108.4402,78.7115
108.4250,78.6350
Z" /> 
<path style="fill:#C83434; fill-opacity:1.0000; stroke:none;fill-rule:evenodd;"
d="M 145.7750,33.7500
145.7921,33.6639
145.8409,33.5909
145.9139,33.5421
146.0000,33.5250
146.4500,33.5250
146.5361,33.5421
146.6091,33.5909
146.6579,33.6639
146.6750,33.7500
146.6750,34.2500
146.6579,34.3361
146.6091,34.4091
146.5361,34.4579
146.4500,34.4750
146.0000,34.4750
145.9139,34.4579
145.8409,34.4091
145.7921,34.3361
145.7750,34.2500
Z" /> 
<path style="fill:#C83434; fill-opacity:1.0000; stroke:none;fill-rule:evenodd;"
d="M 147.3250,33.7500
147.3421,33.6639
147.3909,33.5909
147.4639,33.5421
147.5500,33.5250
148.0000,33.5250
148.0861,33.5421
148.1591,33.5909
148.2079,33.6639
148.2250,33.7500
148.2250,34.2500
148.2079,34.3361
148.1591,34.4091
148.0861,34.4579
148.0000,34.4750
147.5500,34.4750
147.4639,34.4579
147.3909,34.4091
147.3421,34.3361
147.3250,34.2500
Z" /> 
<path style="fill:#C83434; fill-opacity:1.0000; stroke:none;fill-rule:evenodd;"
d="M 100.7750,91.7250
100.7902,91.6485
100.8336,91.5836
100.8985,91.5402
100.9750,91.5250
101.3750,91.5250
101.4515,91.5402
101.5164,91.5836
101.5598,91.6485
101.5750,91.7250
101.5750,92.2750
101.5598,92.3515
101.5164,92.4164
101.4515,92.4598
101.3750,92.4750
100.9750,92.4750
100.8985,92.4598
100.8336,92.4164
100.7902,92.3515
100.7750,92.2750
Z" /> 
<path style="fill:#C83434; fill-opacity:1.0000; stroke:none;fill-rule:evenodd;"
d="M 102.4250,91.7250
102.4402,91.6485
102.4836,91.5836
102.5485,91.5402
102.6250,91.5250
103.0250,91.5250
103.1015,91.5402
103.1664,91.5836
103.2098,91.6485
103.2250,91.7250
103.2250,92.2750
103.2098,92.3515
103.1664,92.4164
103.1015,92.4598
103.0250,92.4750
102.6250,92.4750
102.5485,92.4598
102.4836,92.4164
102.4402,92.3515
102.4250,92.2750
Z" /> 
<path style="fill:#C83434; fill-opacity:1.0000; stroke:none;fill-rule:evenodd;"
d="M 34.7750,91.7250
34.7902,91.6485
34.8336,91.5836
34.8985,91.5402
34.9750,91.5250
35.3750,91.5250
35.4515,91.5402
35.5164,91.5836
35.5598,91.6485
35.5750,91.7250
35.5750,92.2750
35.5598,92.3515
35.5164,92.4164
35.4515,92.4598
35.3750,92.4750
34.9750,92.4750
34.8985,92.4598
34.8336,92.4164
34.7902,92.3515
34.7750,92.2750
Z" /> 
<path style="fill:#C83434; fill-opacity:1.0000; stroke:none;fill-rule:evenodd;"
d="M 36.4250,91.7250
36.4402,91.6485
36.4836,91.5836
36.5485,91.5402
36.6250,91.5250
37.0250,91.5250
37.1015,91.5402
37.1664,91.5836
37.2098,91.6485
37.2250,91.7250
37.2250,92.2750
37.2098,92.3515
37.1664,92.4164
37.1015,92.4598
37.0250,92.4750
36.6250,92.4750
36.5485,92.4598
36.4836,92.4164
36.4402,92.3515
36.4250,92.2750
Z" /> 
<path style="fill:#C83434; fill-opacity:1.0000; stroke:none;fill-rule:evenodd;"
d="M 26.1500,74.8500
26.1500,77.1500
23.8500,77.1500
23.8500,74.8500
Z" /> 
<circle cx="35.1600" cy="76.0000" r="1.1500" /> 
<circle cx="42.7800" cy="76.0000" r="1.1500" /> 
<circle cx="40.2400" cy="68.3800" r="1.1500" /> 
<circle cx="25.0000" cy="68.3800" r="1.1500" /> 
<path style="fill:#C83434; fill-opacity:1.0000; stroke:none;fill-rule:evenodd;"
d="M 120.7750,43.7500
120.7921,43.6639
120.8409,43.5909
120.9139,43.5421
121.0000,43.5250
121.4500,43.5250
121.5361,43.5421
121.6091,43.5909
121.6579,43.6639
121.6750,43.7500
121.6750,44.2500
121.6579,44.3361
121.6091,44.4091
121.5361,44.4579
121.4500,44.4750
121.0000,44.4750
120.9139,44.4579
120.8409,44.4091
120.7921,44.3361
120.7750,44.2500
Z" /> 
<path style="fill:#C83434; fill-opacity:1.0000; stroke:none;fill-rule:evenodd;"
d="M 122.3250,43.7500
122.3421,43.6639
122.3909,43.5909
122.4639,43.5421
122.5500,43.5250
123.0000,43.5250
123.0861,43.5421
123.1591,43.5909
123.2079,43.6639
123.2250,43.7500
123.2250,44.2500
123.2079,44.3361
123.1591,44.4091
123.0861,44.4579
123.0000,44.4750
122.5500,44.4750
122.4639,44.4579
122.3909,44.4091
122.3421,44.3361
122.3250,44.2500
Z" /> 
<path style="fill:#C83434; fill-opacity:1.0000; stroke:none;fill-rule:evenodd;"
d="M 136.7750,95.7250
136.7902,95.6485
136.8336,95.5836
136.8985,95.5402
136.9750,95.5250
137.3750,95.5250
137.4515,95.5402
137.5164,95.5836
137.5598,95.6485
137.5750,95.7250
137.5750,96.2750
137.5598,96.3515
137.5164,96.4164
137.4515,96.4598
137.3750,96.4750
136.9750,96.4750
136.8985,96.4598
136.8336,96.4164
136.7902,96.3515
136.7750,96.2750
Z" /> 
<path style="fill:#C83434; fill-opacity:1.0000; stroke:none;fill-rule:evenodd;"
d="M 138.4250,95.7250
138.4402,95.6485
138.4836,95.5836
138.5485,95.5402
138.6250,95.5250
139.0250,95.5250
139.1015,95.5402
139.1664,95.5836
139.2098,95.6485
139.2250,95.7250
139.2250,96.2750
139.2098,96.3515
139.1664,96.4164
139.1015,96.4598
139.0250,96.4750
138.6250,96.4750
138.5485,96.4598
138.4836,96.4164
138.4402,96.3515
138.4250,96.2750
Z" /> 
<path style="fill:#C83434; fill-opacity:1.0000; stroke:none;fill-rule:evenodd;"
d="M 124.7750,47.7500
124.7921,47.6639
124.8409,47.5909
124.9139,47.5421
125.0000,47.5250
125.4500,47.5250
125.5361,47.5421
125.6091,47.5909
125.6579,47.6639
125.6750,47.7500
125.6750,48.2500
125.6579,48.3361
125.6091,48.4091
125.5361,48.4579
125.4500,48.4750
125.0000,48.4750
124.9139,48.4579
124.8409,48.4091
124.7921,48.3361
124.7750,48.2500
Z" /> 
<path style="fill:#C83434; fill-opacity:1.0000; stroke:none;fill-rule:evenodd;"
d="M 126.3250,47.7500
126.3421,47.6639
126.3909,47.5909
126.4639,47.5421
126.5500,47.5250
127.0000,47.5250
127.0861,47.5421
127.1591,47.5909
127.2079,47.6639
127.2250,47.7500
127.2250,48.2500
127.2079,48.3361
127.1591,48.4091
127.0861,48.4579
127.0000,48.4750
126.5500,48.4750
126.4639,48.4579
126.3909,48.4091
126.3421,48.3361
126.3250,48.2500
Z" /> 
<path style="fill:#C83434; fill-opacity:1.0000; stroke:none;fill-rule:evenodd;"
d="M 28.7750,87.7250
28.7902,87.6485
28.8336,87.5836
28.8985,87.5402
28.9750,87.5250
29.3750,87.5250
29.4515,87.5402
29.5164,87.5836
29.5598,87.6485
29.5750,87.7250
29.5750,88.2750
29.5598,88.3515
29.5164,88.4164
29.4515,88.4598
29.3750,88.4750
28.9750,88.4750
28.8985,88.4598
28.8336,88.4164
28.7902,88.3515
28.7750,88.2750
Z" /> 
<path style="fill:#C83434; fill-opacity:1.0000; stroke:none;fill-rule:evenodd;"
d="M 30.4250,87.7250
30.4402,87.6485
30.4836,87.5836
30.5485,87.5402
30.6250,87.5250
31.0250,87.5250
31.1015,87.5402
31.1664,87.5836
31.2098,87.6485
31.2250,87.7250
31.2250,88.2750
31.2098,88.3515
31.1664,88.4164
31.1015,88.4598
31.0250,88.4750
30.6250,88.4750
30.5485,88.4598
30.4836,88.4164
30.4402,88.3515
30.4250,88.2750
Z" /> 
<path style="fill:#C83434; fill-opacity:1.0000; stroke:none;fill-rule:evenodd;"
d="M 28.7750,95.7250
28.7902,95.6485
28.8336,95.5836
28.8985,95.5402
28.9750,95.5250
29.3750,95.5250
29.4515,95.5402
29.5164,95.5836
29.5598,95.6485
29.5750,95.7250
29.5750,96.2750
29.5598,96.3515
29.5164,96.4164
29.4515,96.4598
29.3750,96.4750
28.9750,96.4750
28.8985,96.4598
28.8336,96.4164
28.7902,96.3515
28.7750,96.2750
Z" /> 
<path style="fill:#C83434; fill-opacity:1.0000; stroke:none;fill-rule:evenodd;"
d="M 30.4250,95.7250
30.4402,95.6485
30.4836,95.5836
30.5485,95.5402
30.6250,95.5250
31.0250,95.5250
31.1015,95.5402
31.1664,95.5836
31.2098,95.6485
31.2250,95.7250
31.2250,96.2750
31.2098,96.3515
31.1664,96.4164
31.1015,96.4598
31.0250,96.4750
30.6250,96.4750
30.5485,96.4598
30.4836,96.4164
30.4402,96.3515
30.4250,96.2750
Z" /> 
<path style="fill:#C83434; fill-opacity:1.0000; stroke:none;fill-rule:evenodd;"
d="M 80.2000,12.9000
80.2114,12.8426
80.2439,12.7939
80.2926,12.7614
80.3500,12.7500
81.3750,12.7500
81.4324,12.7614
81.4811,12.7939
81.5136,12.8426
81.5250,12.9000
81.5250,13.2000
81.5136,13.2574
81.4811,13.3061
81.4324,13.3386
81.3750,13.3500
80.3500,13.3500
80.2926,13.3386
80.2439,13.3061
80.2114,13.2574
80.2000,13.2000
Z" /> 
<path style="fill:#C83434; fill-opacity:1.0000; stroke:none;fill-rule:evenodd;"
d="M 80.2000,13.8500
80.2114,13.7926
80.2439,13.7439
80.2926,13.7114
80.3500,13.7000
81.3750,13.7000
81.4324,13.7114
81.4811,13.7439
81.5136,13.7926
81.5250,13.8500
81.5250,14.1500
81.5136,14.2074
81.4811,14.2561
81.4324,14.2886
81.3750,14.3000
80.3500,14.3000
80.2926,14.2886
80.2439,14.2561
80.2114,14.2074
80.2000,14.1500
Z" /> 
<path style="fill:#C83434; fill-opacity:1.0000; stroke:none;fill-rule:evenodd;"
d="M 80.2000,14.8000
80.2114,14.7426
80.2439,14.6939
80.2926,14.6614
80.3500,14.6500
81.3750,14.6500
81.4324,14.6614
81.4811,14.6939
81.5136,14.7426
81.5250,14.8000
81.5250,15.1000
81.5136,15.1574
81.4811,15.2061
81.4324,15.2386
81.3750,15.2500
80.3500,15.2500
80.2926,15.2386
80.2439,15.2061
80.2114,15.1574
80.2000,15.1000
Z" /> 
<path style="fill:#C83434; fill-opacity:1.0000; stroke:none;fill-rule:evenodd;"
d="M 82.4750,14.8000
82.4864,14.7426
82.5189,14.6939
82.5676,14.6614
82.6250,14.6500
83.6500,14.6500
83.7074,14.6614
83.7561,14.6939
83.7886,14.7426
83.8000,14.8000
83.8000,15.1000
83.7886,15.1574
83.7561,15.2061
83.7074,15.2386
83.6500,15.2500
82.6250,15.2500
82.5676,15.2386
82.5189,15.2061
82.4864,15.1574
82.4750,15.1000
Z" /> 
<path style="fill:#C83434; fill-opacity:1.0000; stroke:none;fill-rule:evenodd;"
d="M 82.4750,12.9000
82.4864,12.8426
82.5189,12.7939
82.5676,12.7614
82.6250,12.7500
83.6500,12.7500
83.7074,12.7614
83.7561,12.7939
83.7886,12.8426
83.8000,12.9000
83.8000,13.2000
83.7886,13.2574
83.7561,13.3061
83.7074,13.3386
83.6500,13.3500
82.6250,13.3500
82.5676,13.3386
82.5189,13.3061
82.4864,13.2574
82.4750,13.2000
Z" /> 
<path style="fill:#C83434; fill-opacity:1.0000; stroke:none;fill-rule:evenodd;"
d="M 126.6500,39.2625
126.6567,39.2290
126.6756,39.2006
126.7040,39.1817
126.7375,39.1750
127.5875,39.1750
127.6210,39.1817
127.6494,39.2006
127.6683,39.2290
127.6750,39.2625
127.6750,39.4375
127.6683,39.4710
127.6494,39.4994
127.6210,39.5183
127.5875,39.5250
126.7375,39.5250
126.7040,39.5183
126.6756,39.4994
126.6567,39.4710
126.6500,39.4375
Z" /> 
<path style="fill:#C83434; fill-opacity:1.0000; stroke:none;fill-rule:evenodd;"
d="M 126.6500,39.9125
126.6567,39.8790
126.6756,39.8506
126.7040,39.8317
126.7375,39.8250
127.5875,39.8250
127.6210,39.8317
127.6494,39.8506
127.6683,39.8790
127.6750,39.9125
127.6750,40.0875
127.6683,40.1210
127.6494,40.1494
127.6210,40.1683
127.5875,40.1750
126.7375,40.1750
126.7040,40.1683
126.6756,40.1494
126.6567,40.1210
126.6500,40.0875
Z" /> 
<path style="fill:#C83434; fill-opacity:1.0000; stroke:none;fill-rule:evenodd;"
d="M 126.6500,40.5625
126.6567,40.5290
126.6756,40.5006
126.7040,40.4817
126.7375,40.4750
127.5875,40.4750
127.6210,40.4817
127.6494,40.5006
127.6683,40.5290
127.6750,40.5625
127.6750,40.7375
127.6683,40.7710
127.6494,40.7994
127.6210,40.8183
127.5875,40.8250
126.7375,40.8250
126.7040,40.8183
126.6756,40.7994
126.6567,40.7710
126.6500,40.7375
Z" /> 
<path style="fill:#C83434; fill-opacity:1.0000; stroke:none;fill-rule:evenodd;"
d="M 128.3250,40.5625
128.3317,40.5290
128.3506,40.5006
128.3790,40.4817
128.4125,40.4750
129.2625,40.4750
129.2960,40.4817
129.3244,40.5006
129.3433,40.5290
129.3500,40.5625
129.3500,40.7375
129.3433,40.7710
129.3244,40.7994
129.2960,40.8183
129.2625,40.8250
128.4125,40.8250
128.3790,40.8183
128.3506,40.7994
128.3317,40.7710
128.3250,40.7375
Z" /> 
<path style="fill:#C83434; fill-opacity:1.0000; stroke:none;fill-rule:evenodd;"
d="M 128.3250,39.9125
128.3317,39.8790
128.3506,39.8506
128.3790,39.8317
128.4125,39.8250
129.2625,39.8250
129.2960,39.8317
129.3244,39.8506
129.3433,39.8790
129.3500,39.9125
129.3500,40.0875
129.3433,40.1210
129.3244,40.1494
129.2960,40.1683
129.2625,40.1750
128.4125,40.1750
128.3790,40.1683
128.3506,40.1494
128.3317,40.1210
128.3250,40.0875
Z" /> 
<path style="fill:#C83434; fill-opacity:1.0000; stroke:none;fill-rule:evenodd;"
d="M 128.3250,39.2625
128.3317,39.2290
128.3506,39.2006
128.3790,39.1817
128.4125,39.1750
129.2625,39.1750
129.2960,39.1817
129.3244,39.2006
129.3433,39.2290
129.3500,39.2625
129.3500,39.4375
129.3433,39.4710
129.3244,39.4994
129.2960,39.5183
129.2625,39.5250
128.4125,39.5250
128.3790,39.5183
128.3506,39.4994
128.3317,39.4710
128.3250,39.4375
Z" /> 
<path style="fill:#C83434; fill-opacity:1.0000; stroke:none;fill-rule:evenodd;"
d="M 52.7750,91.7250
52.7902,91.6485
52.8336,91.5836
52.8985,91.5402
52.9750,91.5250
53.3750,91.5250
53.4515,91.5402
53.5164,91.5836
53.5598,91.6485
53.5750,91.7250
53.5750,92.2750
53.5598,92.3515
53.5164,92.4164
53.4515,92.4598
53.3750,92.4750
52.9750,92.4750
52.8985,92.4598
52.8336,92.4164
52.7902,92.3515
52.7750,92.2750
Z" /> 
<path style="fill:#C83434; fill-opacity:1.0000; stroke:none;fill-rule:evenodd;"
d="M 54.4250,91.7250
54.4402,91.6485
54.4836,91.5836
54.5485,91.5402
54.6250,91.5250
55.0250,91.5250
55.1015,91.5402
55.1664,91.5836
55.2098,91.6485
55.2250,91.7250
55.2250,92.2750
55.2098,92.3515
55.1664,92.4164
55.1015,92.4598
55.0250,92.4750
54.6250,92.4750
54.5485,92.4598
54.4836,92.4164
54.4402,92.3515
54.4250,92.2750
Z" /> 
<path style="fill:#C83434; fill-opacity:1.0000; stroke:none;fill-rule:evenodd;"
d="M 8.8000,24.0500
8.8190,23.9543
8.8732,23.8732
8.9543,23.8190
9.0500,23.8000
10.9500,23.8000
11.0457,23.8190
11.1268,23.8732
11.1810,23.9543
11.2000,24.0500
11.2000,25.9500
11.1810,26.0457
11.1268,26.1268
11.0457,26.1810
10.9500,26.2000
9.0500,26.2000
8.9543,26.1810
8.8732,26.1268
8.8190,26.0457
8.8000,25.9500
Z" /> 
<circle cx="13.5000" cy="25.0000" r="1.2000" /> 
<path style="fill:#C83434; fill-opacity:1.0000; stroke:none;fill-rule:evenodd;"
d="M 126.5500,12.2000
126.5500,11.0000
127.4500,11.0000
127.4500,12.2000
Z" /> 
<path style="fill:#C83434; fill-opacity:1.0000; stroke:none;fill-rule:evenodd;"
d="M 126.5500,13.8000
126.5500,12.6000
127.4500,12.6000
127.4500,13.8000
Z" /> 
<path style="fill:#C83434; fill-opacity:1.0000; stroke:none;fill-rule:evenodd;"
d="M 126.5500,15.4000
126.5500,14.2000
127.4500,14.2000
127.4500,15.4000
Z" /> 
<path style="fill:#C83434; fill-opacity:1.0000; stroke:none;fill-rule:evenodd;"
d="M 126.5500,17.0000
126.5500,15.8000
127.4500,15.8000
127.4500,17.0000
Z" /> 
<path style="fill:#C83434; fill-opacity:1.0000; stroke:none;fill-rule:evenodd;"
d="M 126.5500,18.6000
126.5500,17.4000
127.4500,17.4000
127.4500,18.6000
Z" /> 
<path style="fill:#C83434; fill-opacity:1.0000; stroke:none;fill-rule:evenodd;"
d="M 126.5500,20.2000
126.5500,19.0000
127.4500,19.0000
127.4500,20.2000
Z" /> 
<path style="fill:#C83434; fill-opacity:1.0000; stroke:none;fill-rule:evenodd;"
d="M 126.5500,21.8000
126.5500,20.6000
127.4500,20.6000
127.4500,21.8000
Z" /> 
<path style="fill:#C83434; fill-opacity:1.0000; stroke:none;fill-rule:evenodd;"
d="M 126.5500,23.4000
126.5500,22.2000
127.4500,22.2000
127.4500,23.4000
Z" /> 
<path style="fill:#C83434; fill-opacity:1.0000; stroke:none;fill-rule:evenodd;"
d="M 126.5500,25.0000
126.5500,23.8000
127.4500,23.8000
127.4500,25.0000
Z" /> 
<path style="fill:#C83434; fill-opacity:1.0000; stroke:none;fill-rule:evenodd;"
d="M 126.5500,26.6000
126.5500,25.4000
127.4500,25.4000
127.4500,26.6000
Z" /> 
<path style="fill:#C83434; fill-opacity:1.0000; stroke:none;fill-rule:evenodd;"
d="M 126.5500,28.2000
126.5500,27.0000
127.4500,27.0000
127.4500,28.2000
Z" /> 
<path style="fill:#C83434; fill-opacity:1.0000; stroke:none;fill-rule:evenodd;"
d="M 126.5500,29.8000
126.5500,28.6000
127.4500,28.6000
127.4500,29.8000
Z" /> 
<path style="fill:#C83434; fill-opacity:1.0000; stroke:none;fill-rule:evenodd;"
d="M 126.5500,31.4000
126.5500,30.2000
127.4500,30.2000
127.4500,31.4000
Z" /> 
<path style="fill:#C83434; fill-opacity:1.0000; stroke:none;fill-rule:evenodd;"
d="M 126.5500,33.0000
126.5500,31.8000
127.4500,31.8000
127.4500,33.0000
Z" /> 
<path style="fill:#C83434; fill-opacity:1.0000; stroke:none;fill-rule:evenodd;"
d="M 142.5500,12.2000
142.5500,11.0000
143.4500,11.0000
143.4500,12.2000
Z" /> 
<path style="fill:#C83434; fill-opacity:1.0000; stroke:none;fill-rule:evenodd;"
d="M 142.5500,13.8000
142.5500,12.6000
143.4500,12.6000
143.4500,13.8000
Z" /> 
<path style="fill:#C83434; fill-opacity:1.0000; stroke:none;fill-rule:evenodd;"
d="M 142.5500,15.4000
142.5500,14.2000
143.4500,14.2000
143.4500,15.4000
Z" /> 
<path style="fill:#C83434; fill-opacity:1.0000; stroke:none;fill-rule:evenodd;"
d="M 142.5500,17.0000
142.5500,15.8000
143.4500,15.8000
143.4500,17.0000
Z" /> 
<path style="fill:#C83434; fill-opacity:1.0000; stroke:none;fill-rule:evenodd;"
d="M 142.5500,18.6000
142.5500,17.4000
143.4500,17.4000
143.4500,18.6000
Z" /> 
<path style="fill:#C83434; fill-opacity:1.0000; stroke:none;fill-rule:evenodd;"
d="M 142.5500,20.2000
142.5500,19.0000
143.4500,19.0000
143.4500,20.2000
Z" /> 
<path style="fill:#C83434; fill-opacity:1.0000; stroke:none;fill-rule:evenodd;"
d="M 142.5500,21.8000
142.5500,20.6000
143.4500,20.6000
143.4500,21.8000
Z" /> 
<path style="fill:#C83434; fill-opacity:1.0000; stroke:none;fill-rule:evenodd;"
d="M 142.5500,23.4000
142.5500,22.2000
143.4500,22.2000
143.4500,23.4000
Z" /> 
<path style="fill:#C83434; fill-opacity:1.0000; stroke:none;fill-rule:evenodd;"
d="M 142.5500,25.0000
142.5500,23.8000
143.4500,23.8000
143.4500,25.0000
Z" /> 
<path style="fill:#C83434; fill-opacity:1.0000; stroke:none;fill-rule:evenodd;"
d="M 142.5500,26.6000
142.5500,25.4000
143.4500,25.4000
143.4500,26.6000
Z" /> 
<path style="fill:#C83434; fill-opacity:1.0000; stroke:none;fill-rule:evenodd;"
d="M 142.5500,28.2000
142.5500,27.0000
143.4500,27.0000
143.4500,28.2000
Z" /> 
<path style="fill:#C83434; fill-opacity:1.0000; stroke:none;fill-rule:evenodd;"
d="M 142.5500,29.8000
142.5500,28.6000
143.4500,28.6000
143.4500,29.8000
Z" /> 
<path style="fill:#C83434; fill-opacity:1.0000; stroke:none;fill-rule:evenodd;"
d="M 142.5500,31.4000
142.5500,30.2000
143.4500,30.2000
143.4500,31.4000
Z" /> 
<path style="fill:#C83434; fill-opacity:1.0000; stroke:none;fill-rule:evenodd;"
d="M 142.5500,33.0000
142.5500,31.8000
143.4500,31.8000
143.4500,33.0000
Z" /> 
<path style="fill:#C83434; fill-opacity:1.0000; stroke:none;fill-rule:evenodd;"
d="M 120.7750,33.7500
120.7921,33.6639
120.8409,33.5909
120.9139,33.5421
121.0000,33.5250
121.4500,33.5250
121.5361,33.5421
121.6091,33.5909
121.6579,33.6639
121.6750,33.7500
121.6750,34.2500
121.6579,34.3361
121.6091,34.4091
121.5361,34.4579
121.4500,34.4750
121.0000,34.4750
120.9139,34.4579
120.8409,34.4091
120.7921,34.3361
120.7750,34.2500
Z" /> 
<path style="fill:#C83434; fill-opacity:1.0000; stroke:none;fill-rule:evenodd;"
d="M 122.3250,33.7500
122.3421,33.6639
122.3909,33.5909
122.4639,33.5421
122.5500,33.5250
123.0000,33.5250
123.0861,33.5421
123.1591,33.5909
123.2079,33.6639
123.2250,33.7500
123.2250,34.2500
123.2079,34.3361
123.1591,34.4091
123.0861,34.4579
123.0000,34.4750
122.5500,34.4750
122.4639,34.4579
122.3909,34.4091
122.3421,34.3361
122.3250,34.2500
Z" /> 
<circle cx="152.0000" cy="16.0000" r="1.0250" /> 
<circle cx="149.4600" cy="13.4600" r="1.1250" /> 
<circle cx="149.4600" cy="18.5400" r="1.1250" /> 
<circle cx="154.5400" cy="13.4600" r="1.1250" /> 
<circle cx="154.5400" cy="18.5400" r="1.1250" /> 
<path style="fill:#C83434; fill-opacity:1.0000; stroke:none;fill-rule:evenodd;"
d="M 120.6500,39.2625
120.6567,39.2290
120.6756,39.2006
120.7040,39.1817
120.7375,39.1750
121.5875,39.1750
121.6210,39.1817
121.6494,39.2006
121.6683,39.2290
121.6750,39.2625
121.6750,39.4375
121.6683,39.4710
121.6494,39.4994
121.6210,39.5183
121.5875,39.5250
120.7375,39.5250
120.7040,39.5183
120.6756,39.4994
120.6567,39.4710
120.6500,39.4375
Z" /> 
<path style="fill:#C83434; fill-opacity:1.0000; stroke:none;fill-rule:evenodd;"
d="M 120.6500,39.9125
120.6567,39.8790
120.6756,39.8506
120.7040,39.8317
120.7375,39.8250
121.5875,39.8250
121.6210,39.8317
121.6494,39.8506
121.6683,39.8790
121.6750,39.9125
121.6750,40.0875
121.6683,40.1210
121.6494,40.1494
121.6210,40.1683
121.5875,40.1750
120.7375,40.1750
120.7040,40.1683
120.6756,40.1494
120.6567,40.1210
120.6500,40.0875
Z" /> 
<path style="fill:#C83434; fill-opacity:1.0000; stroke:none;fill-rule:evenodd;"
d="M 120.6500,40.5625
120.6567,40.5290
120.6756,40.5006
120.7040,40.4817
120.7375,40.4750
121.5875,40.4750
121.6210,40.4817
121.6494,40.5006
121.6683,40.5290
121.6750,40.5625
121.6750,40.7375
121.6683,40.7710
121.6494,40.7994
121.6210,40.8183
121.5875,40.8250
120.7375,40.8250
120.7040,40.8183
120.6756,40.7994
120.6567,40.7710
120.6500,40.7375
Z" /> 
<path style="fill:#C83434; fill-opacity:1.0000; stroke:none;fill-rule:evenodd;"
d="M 122.3250,40.5625
122.3317,40.5290
122.3506,40.5006
122.3790,40.4817
122.4125,40.4750
123.2625,40.4750
123.2960,40.4817
123.3244,40.5006
123.3433,40.5290
123.3500,40.5625
123.3500,40.7375
123.3433,40.7710
123.3244,40.7994
123.2960,40.8183
123.2625,40.8250
122.4125,40.8250
122.3790,40.8183
122.3506,40.7994
122.3317,40.7710
122.3250,40.7375
Z" /> 
<path style="fill:#C83434; fill-opacity:1.0000; stroke:none;fill-rule:evenodd;"
d="M 122.3250,39.9125
122.3317,39.8790
122.3506,39.8506
122.3790,39.8317
122.4125,39.8250
123.2625,39.8250
123.2960,39.8317
123.3244,39.8506
123.3433,39.8790
123.3500,39.9125
123.3500,40.0875
123.3433,40.1210
123.3244,40.1494
123.2960,40.1683
123.2625,40.1750
122.4125,40.1750
122.3790,40.1683
122.3506,40.1494
122.3317,40.1210
122.3250,40.0875
Z" /> 
<path style="fill:#C83434; fill-opacity:1.0000; stroke:none;fill-rule:evenodd;"
d="M 122.3250,39.2625
122.3317,39.2290
122.3506,39.2006
122.3790,39.1817
122.4125,39.1750
123.2625,39.1750
123.2960,39.1817
123.3244,39.2006
123.3433,39.2290
123.3500,39.2625
123.3500,39.4375
123.3433,39.4710
123.3244,39.4994
123.2960,39.5183
123.2625,39.5250
122.4125,39.5250
122.3790,39.5183
122.3506,39.4994
122.3317,39.4710
122.3250,39.4375
Z" /> 
<path style="fill:#C83434; fill-opacity:1.0000; stroke:none;fill-rule:evenodd;"
d="M 28.7750,91.7250
28.7902,91.6485
28.8336,91.5836
28.8985,91.5402
28.9750,91.5250
29.3750,91.5250
29.4515,91.5402
29.5164,91.5836
29.5598,91.6485
29.5750,91.7250
29.5750,92.2750
29.5598,92.3515
29.5164,92.4164
29.4515,92.4598
29.3750,92.4750
28.9750,92.4750
28.8985,92.4598
28.8336,92.4164
28.7902,92.3515
28.7750,92.2750
Z" /> 
<path style="fill:#C83434; fill-opacity:1.0000; stroke:none;fill-rule:evenodd;"
d="M 30.4250,91.7250
30.4402,91.6485
30.4836,91.5836
30.5485,91.5402
30.6250,91.5250
31.0250,91.5250
31.1015,91.5402
31.1664,91.5836
31.2098,91.6485
31.2250,91.7250
31.2250,92.2750
31.2098,92.3515
31.1664,92.4164
31.1015,92.4598
31.0250,92.4750
30.6250,92.4750
30.5485,92.4598
30.4836,92.4164
30.4402,92.3515
30.4250,92.2750
Z" /> 
<path style="fill:#C83434; fill-opacity:1.0000; stroke:none;fill-rule:evenodd;"
d="M 80.7750,9.7500
80.7921,9.6639
80.8409,9.5909
80.9139,9.5421
81.0000,9.5250
81.4500,9.5250
81.5361,9.5421
81.6091,9.5909
81.6579,9.6639
81.6750,9.7500
81.6750,10.2500
81.6579,10.3361
81.6091,10.4091
81.5361,10.4579
81.4500,10.4750
81.0000,10.4750
80.9139,10.4579
80.8409,10.4091
80.7921,10.3361
80.7750,10.2500
Z" /> 
<path style="fill:#C83434; fill-opacity:1.0000; stroke:none;fill-rule:evenodd;"
d="M 82.3250,9.7500
82.3421,9.6639
82.3909,9.5909
82.4639,9.5421
82.5500,9.5250
83.0000,9.5250
83.0861,9.5421
83.1591,9.5909
83.2079,9.6639
83.2250,9.7500
83.2250,10.2500
83.2079,10.3361
83.1591,10.4091
83.0861,10.4579
83.0000,10.4750
82.5500,10.4750
82.4639,10.4579
82.3909,10.4091
82.3421,10.3361
82.3250,10.2500
Z" /> 
<path style="fill:#C83434; fill-opacity:1.0000; stroke:none;fill-rule:evenodd;"
d="M 10.7750,87.7250
10.7902,87.6485
10.8336,87.5836
10.8985,87.5402
10.9750,87.5250
11.3750,87.5250
11.4515,87.5402
11.5164,87.5836
11.5598,87.6485
11.5750,87.7250
11.5750,88.2750
11.5598,88.3515
11.5164,88.4164
11.4515,88.4598
11.3750,88.4750
10.9750,88.4750
10.8985,88.4598
10.8336,88.4164
10.7902,88.3515
10.7750,88.2750
Z" /> 
<path style="fill:#C83434; fill-opacity:1.0000; stroke:none;fill-rule:evenodd;"
d="M 12.4250,87.7250
12.4402,87.6485
12.4836,87.5836
12.5485,87.5402
12.6250,87.5250
13.0250,87.5250
13.1015,87.5402
13.1664,87.5836
13.2098,87.6485
13.2250,87.7250
13.2250,88.2750
13.2098,88.3515
13.1664,88.4164
13.1015,88.4598
13.0250,88.4750
12.6250,88.4750
12.5485,88.4598
12.4836,88.4164
12.4402,88.3515
12.4250,88.2750
Z" /> 
<path style="fill:#C83434; fill-opacity:1.0000; stroke:none;fill-rule:evenodd;"
d="M 116.7750,25.7500
116.7921,25.6639
116.8409,25.5909
116.9139,25.5421
117.0000,25.5250
117.4500,25.5250
117.5361,25.5421
117.6091,25.5909
117.6579,25.6639
117.6750,25.7500
117.6750,26.2500
117.6579,26.3361
117.6091,26.4091
117.5361,26.4579
117.4500,26.4750
117.0000,26.4750
116.9139,26.4579
116.8409,26.4091
116.7921,26.3361
116.7750,26.2500
Z" /> 
<path style="fill:#C83434; fill-opacity:1.0000; stroke:none;fill-rule:evenodd;"
d="M 118.3250,25.7500
118.3421,25.6639
118.3909,25.5909
118.4639,25.5421
118.5500,25.5250
119.0000,25.5250
119.0861,25.5421
119.1591,25.5909
119.2079,25.6639
119.2250,25.7500
119.2250,26.2500
119.2079,26.3361
119.1591,26.4091
119.0861,26.4579
119.0000,26.4750
118.5500,26.4750
118.4639,26.4579
118.3909,26.4091
118.3421,26.3361
118.3250,26.2500
Z" /> 
<path style="fill:#C83434; fill-opacity:1.0000; stroke:none;fill-rule:evenodd;"
d="M 126.7750,43.7500
126.7921,43.6639
126.8409,43.5909
126.9139,43.5421
127.0000,43.5250
127.4500,43.5250
127.5361,43.5421
127.6091,43.5909
127.6579,43.6639
127.6750,43.7500
127.6750,44.2500
127.6579,44.3361
127.6091,44.4091
127.5361,44.4579
127.4500,44.4750
127.0000,44.4750
126.9139,44.4579
126.8409,44.4091
126.7921,44.3361
126.7750,44.2500
Z" /> 
<path style="fill:#C83434; fill-opacity:1.0000; stroke:none;fill-rule:evenodd;"
d="M 128.3250,43.7500
128.3421,43.6639
128.3909,43.5909
128.4639,43.5421
128.5500,43.5250
129.0000,43.5250
129.0861,43.5421
129.1591,43.5909
129.2079,43.6639
129.2250,43.7500
129.2250,44.2500
129.2079,44.3361
129.1591,44.4091
129.0861,44.4579
129.0000,44.4750
128.5500,44.4750
128.4639,44.4579
128.3909,44.4091
128.3421,44.3361
128.3250,44.2500
Z" /> 
<path style="fill:#C83434; fill-opacity:1.0000; stroke:none;fill-rule:evenodd;"
d="M 10.7750,91.7250
10.7902,91.6485
10.8336,91.5836
10.8985,91.5402
10.9750,91.5250
11.3750,91.5250
11.4515,91.5402
11.5164,91.5836
11.5598,91.6485
11.5750,91.7250
11.5750,92.2750
11.5598,92.3515
11.5164,92.4164
11.4515,92.4598
11.3750,92.4750
10.9750,92.4750
10.8985,92.4598
10.8336,92.4164
10.7902,92.3515
10.7750,92.2750
Z" /> 
<path style="fill:#C83434; fill-opacity:1.0000; stroke:none;fill-rule:evenodd;"
d="M 12.4250,91.7250
12.4402,91.6485
12.4836,91.5836
12.5485,91.5402
12.6250,91.5250
13.0250,91.5250
13.1015,91.5402
13.1664,91.5836
13.2098,91.6485
13.2250,91.7250
13.2250,92.2750
13.2098,92.3515
13.1664,92.4164
13.1015,92.4598
13.0250,92.4750
12.6250,92.4750
12.5485,92.4598
12.4836,92.4164
12.4402,92.3515
12.4250,92.2750
Z" /> 
<path style="fill:#C83434; fill-opacity:1.0000; stroke:none;fill-rule:evenodd;"
d="M 100.7750,86.7250
100.7902,86.6485
100.8336,86.5836
100.8985,86.5402
100.9750,86.5250
101.3750,86.5250
101.4515,86.5402
101.5164,86.5836
101.5598,86.6485
101.5750,86.7250
101.5750,87.2750
101.5598,87.3515
101.5164,87.4164
101.4515,87.4598
101.3750,87.4750
100.9750,87.4750
100.8985,87.4598
100.8336,87.4164
100.7902,87.3515
100.7750,87.2750
Z" /> 
<path style="fill:#C83434; fill-opacity:1.0000; stroke:none;fill-rule:evenodd;"
d="M 102.4250,86.7250
102.4402,86.6485
102.4836,86.5836
102.5485,86.5402
102.6250,86.5250
103.0250,86.5250
103.1015,86.5402
103.1664,86.5836
103.2098,86.6485
103.2250,86.7250
103.2250,87.2750
103.2098,87.3515
103.1664,87.4164
103.1015,87.4598
103.0250,87.4750
102.6250,87.4750
102.5485,87.4598
102.4836,87.4164
102.4402,87.3515
102.4250,87.2750
Z" /> 
<path style="fill:#C83434; fill-opacity:1.0000; stroke:none;fill-rule:evenodd;"
d="M 118.7750,86.7250
118.7902,86.6485
118.8336,86.5836
118.8985,86.5402
118.9750,86.5250
119.3750,86.5250
119.4515,86.5402
119.5164,86.5836
119.5598,86.6485
119.5750,86.7250
119.5750,87.2750
119.5598,87.3515
119.5164,87.4164
119.4515,87.4598
119.3750,87.4750
118.9750,87.4750
118.8985,87.4598
118.8336,87.4164
118.7902,87.3515
118.7750,87.2750
Z" /> 
<path style="fill:#C83434; fill-opacity:1.0000; stroke:none;fill-rule:evenodd;"
d="M 120.4250,86.7250
120.4402,86.6485
120.4836,86.5836
120.5485,86.5402
120.6250,86.5250
121.0250,86.5250
121.1015,86.5402
121.1664,86.5836
121.2098,86.6485
121.2250,86.7250
121.2250,87.2750
121.2098,87.3515
121.1664,87.4164
121.1015,87.4598
121.0250,87.4750
120.6250,87.4750
120.5485,87.4598
120.4836,87.4164
120.4402,87.3515
120.4250,87.2750
Z" /> 
<path style="fill:#C83434; fill-opacity:1.0000; stroke:none;fill-rule:evenodd;"
d="M 82.7750,91.7250
82.7902,91.6485
82.8336,91.5836
82.8985,91.5402
82.9750,91.5250
83.3750,91.5250
83.4515,91.5402
83.5164,91.5836
83.5598,91.6485
83.5750,91.7250
83.5750,92.2750
83.5598,92.3515
83.5164,92.4164
83.4515,92.4598
83.3750,92.4750
82.9750,92.4750
82.8985,92.4598
82.8336,92.4164
82.7902,92.3515
82.7750,92.2750
Z" /> 
<path style="fill:#C83434; fill-opacity:1.0000; stroke:none;fill-rule:evenodd;"
d="M 84.4250,91.7250
84.4402,91.6485
84.4836,91.5836
84.5485,91.5402
84.6250,91.5250
85.0250,91.5250
85.1015,91.5402
85.1664,91.5836
85.2098,91.6485
85.2250,91.7250
85.2250,92.2750
85.2098,92.3515
85.1664,92.4164
85.1015,92.4598
85.0250,92.4750
84.6250,92.4750
84.5485,92.4598
84.4836,92.4164
84.4402,92.3515
84.4250,92.2750
Z" /> 
<path style="fill:#C83434; fill-opacity:1.0000; stroke:none;fill-rule:evenodd;"
d="M 68.5500,11.9450
68.5614,11.8876
68.5939,11.8389
68.6426,11.8064
68.7000,11.7950
70.3500,11.7950
70.4074,11.8064
70.4561,11.8389
70.4886,11.8876
70.5000,11.9450
70.5000,12.2450
70.4886,12.3024
70.4561,12.3511
70.4074,12.3836
70.3500,12.3950
68.7000,12.3950
68.6426,12.3836
68.5939,12.3511
68.5614,12.3024
68.5500,12.2450
Z" /> 
<path style="fill:#C83434; fill-opacity:1.0000; stroke:none;fill-rule:evenodd;"
d="M 68.5500,13.2150
68.5614,13.1576
68.5939,13.1089
68.6426,13.0764
68.7000,13.0650
70.3500,13.0650
70.4074,13.0764
70.4561,13.1089
70.4886,13.1576
70.5000,13.2150
70.5000,13.5150
70.4886,13.5724
70.4561,13.6211
70.4074,13.6536
70.3500,13.6650
68.7000,13.6650
68.6426,13.6536
68.5939,13.6211
68.5614,13.5724
68.5500,13.5150
Z" /> 
<path style="fill:#C83434; fill-opacity:1.0000; stroke:none;fill-rule:evenodd;"
d="M 68.5500,14.4850
68.5614,14.4276
68.5939,14.3789
68.6426,14.3464
68.7000,14.3350
70.3500,14.3350
70.4074,14.3464
70.4561,14.3789
70.4886,14.4276
70.5000,14.4850
70.5000,14.7850
70.4886,14.8424
70.4561,14.8911
70.4074,14.9236
70.3500,14.9350
68.7000,14.9350
68.6426,14.9236
68.5939,14.8911
68.5614,14.8424
68.5500,14.7850
Z" /> 
<path style="fill:#C83434; fill-opacity:1.0000; stroke:none;fill-rule:evenodd;"
d="M 68.5500,15.7550
68.5614,15.6976
68.5939,15.6489
68.6426,15.6164
68.7000,15.6050
70.3500,15.6050
70.4074,15.6164
70.4561,15.6489
70.4886,15.6976
70.5000,15.7550
70.5000,16.0550
70.4886,16.1124
70.4561,16.1611
70.4074,16.1936
70.3500,16.2050
68.7000,16.2050
68.6426,16.1936
68.5939,16.1611
68.5614,16.1124
68.5500,16.0550
Z" /> 
<path style="fill:#C83434; fill-opacity:1.0000; stroke:none;fill-rule:evenodd;"
d="M 73.5000,15.7550
73.5114,15.6976
73.5439,15.6489
73.5926,15.6164
73.6500,15.6050
75.3000,15.6050
75.3574,15.6164
75.4061,15.6489
75.4386,15.6976
75.4500,15.7550
75.4500,16.0550
75.4386,16.1124
75.4061,16.1611
75.3574,16.1936
75.3000,16.2050
73.6500,16.2050
73.5926,16.1936
73.5439,16.1611
73.5114,16.1124
73.5000,16.0550
Z" /> 
<path style="fill:#C83434; fill-opacity:1.0000; stroke:none;fill-rule:evenodd;"
d="M 73.5000,14.4850
73.5114,14.4276
73.5439,14.3789
73.5926,14.3464
73.6500,14.3350
75.3000,14.3350
75.3574,14.3464
75.4061,14.3789
75.4386,14.4276
75.4500,14.4850
75.4500,14.7850
75.4386,14.8424
75.4061,14.8911
75.3574,14.9236
75.3000,14.9350
73.6500,14.9350
73.5926,14.9236
73.5439,14.8911
73.5114,14.8424
73.5000,14.7850
Z" /> 
<path style="fill:#C83434; fill-opacity:1.0000; stroke:none;fill-rule:evenodd;"
d="M 73.5000,13.2150
73.5114,13.1576
73.5439,13.1089
73.5926,13.0764
73.6500,13.0650
75.3000,13.0650
75.3574,13.0764
75.4061,13.1089
75.4386,13.1576
75.4500,13.2150
75.4500,13.5150
75.4386,13.5724
75.4061,13.6211
75.3574,13.6536
75.3000,13.6650
73.6500,13.6650
73.5926,13.6536
73.5439,13.6211
73.5114,13.5724
73.5000,13.5150
Z" /> 
<path style="fill:#C83434; fill-opacity:1.0000; stroke:none;fill-rule:evenodd;"
d="M 73.5000,11.9450
73.5114,11.8876
73.5439,11.8389
73.5926,11.8064
73.6500,11.7950
75.3000,11.7950
75.3574,11.8064
75.4061,11.8389
75.4386,11.8876
75.4500,11.9450
75.4500,12.2450
75.4386,12.3024
75.4061,12.3511
75.3574,12.3836
75.3000,12.3950
73.6500,12.3950
73.5926,12.3836
73.5439,12.3511
73.5114,12.3024
73.5000,12.2450
Z" /> 
<path style="fill:#C83434; fill-opacity:1.0000; stroke:none;fill-rule:evenodd;"
d="M 118.7750,91.7250
118.7902,91.6485
118.8336,91.5836
118.8985,91.5402
118.9750,91.5250
119.3750,91.5250
119.4515,91.5402
119.5164,91.5836
119.5598,91.6485
119.5750,91.7250
119.5750,92.2750
119.5598,92.3515
119.5164,92.4164
119.4515,92.4598
119.3750,92.4750
118.9750,92.4750
118.8985,92.4598
118.8336,92.4164
118.7902,92.3515
118.7750,92.2750
Z" /> 
<path style="fill:#C83434; fill-opacity:1.0000; stroke:none;fill-rule:evenodd;"
d="M 120.4250,91.7250
120.4402,91.6485
120.4836,91.5836
120.5485,91.5402
120.6250,91.5250
121.0250,91.5250
121.1015,91.5402
121.1664,91.5836
121.2098,91.6485
121.2250,91.7250
121.2250,92.2750
121.2098,92.3515
121.1664,92.4164
121.1015,92.4598
121.0250,92.4750
120.6250,92.4750
120.5485,92.4598
120.4836,92.4164
120.4402,92.3515
120.4250,92.2750
Z" /> 
<path style="fill:#C83434; fill-opacity:1.0000; stroke:none;fill-rule:evenodd;"
d="M 64.7750,91.7250
64.7902,91.6485
64.8336,91.5836
64.8985,91.5402
64.9750,91.5250
65.3750,91.5250
65.4515,91.5402
65.5164,91.5836
65.5598,91.6485
65.5750,91.7250
65.5750,92.2750
65.5598,92.3515
65.5164,92.4164
65.4515,92.4598
65.3750,92.4750
64.9750,92.4750
64.8985,92.4598
64.8336,92.4164
64.7902,92.3515
64.7750,92.2750
Z" /> 
<path style="fill:#C83434; fill-opacity:1.0000; stroke:none;fill-rule:evenodd;"
d="M 66.4250,91.7250
66.4402,91.6485
66.4836,91.5836
66.5485,91.5402
66.6250,91.5250
67.0250,91.5250
67.1015,91.5402
67.1664,91.5836
67.2098,91.6485
67.2250,91.7250
67.2250,92.2750
67.2098,92.3515
67.1664,92.4164
67.1015,92.4598
67.0250,92.4750
66.6250,92.4750
66.5485,92.4598
66.4836,92.4164
66.4402,92.3515
66.4250,92.2750
Z" /> 
<path style="fill:#C83434; fill-opacity:1.0000; stroke:none;fill-rule:evenodd;"
d="M 68.1500,86.8500
68.1500,89.1500
65.8500,89.1500
65.8500,86.8500
Z" /> 
<circle cx="77.1600" cy="88.0000" r="1.1500" /> 
<circle cx="84.7800" cy="88.0000" r="1.1500" /> 
<circle cx="82.2400" cy="80.3800" r="1.1500" /> 
<circle cx="67.0000" cy="80.3800" r="1.1500" /> 
<path style="fill:#C83434; fill-opacity:1.0000; stroke:none;fill-rule:evenodd;"
d="M 120.7750,61.5450
120.7902,61.4685
120.8336,61.4036
120.8985,61.3602
120.9750,61.3450
121.3750,61.3450
121.4515,61.3602
121.5164,61.4036
121.5598,61.4685
121.5750,61.5450
121.5750,62.0950
121.5598,62.1715
121.5164,62.2364
121.4515,62.2798
121.3750,62.2950
120.9750,62.2950
120.8985,62.2798
120.8336,62.2364
120.7902,62.1715
120.7750,62.0950
Z" /> 
<path style="fill:#C83434; fill-opacity:1.0000; stroke:none;fill-rule:evenodd;"
d="M 122.4250,61.5450
122.4402,61.4685
122.4836,61.4036
122.5485,61.3602
122.6250,61.3450
123.0250,61.3450
123.1015,61.3602
123.1664,61.4036
123.2098,61.4685
123.2250,61.5450
123.2250,62.0950
123.2098,62.1715
123.1664,62.2364
123.1015,62.2798
123.0250,62.2950
122.6250,62.2950
122.5485,62.2798
122.4836,62.2364
122.4402,62.1715
122.4250,62.0950
Z" /> 
<path style="fill:#C83434; fill-opacity:1.0000; stroke:none;fill-rule:evenodd;"
d="M 82.7750,95.7250
82.7902,95.6485
82.8336,95.5836
82.8985,95.5402
82.9750,95.5250
83.3750,95.5250
83.4515,95.5402
83.5164,95.5836
83.5598,95.6485
83.5750,95.7250
83.5750,96.2750
83.5598,96.3515
83.5164,96.4164
83.4515,96.4598
83.3750,96.4750
82.9750,96.4750
82.8985,96.4598
82.8336,96.4164
82.7902,96.3515
82.7750,96.2750
Z" /> 
<path style="fill:#C83434; fill-opacity:1.0000; stroke:none;fill-rule:evenodd;"
d="M 84.4250,95.7250
84.4402,95.6485
84.4836,95.5836
84.5485,95.5402
84.6250,95.5250
85.0250,95.5250
85.1015,95.5402
85.1664,95.5836
85.2098,95.6485
85.2250,95.7250
85.2250,96.2750
85.2098,96.3515
85.1664,96.4164
85.1015,96.4598
85.0250,96.4750
84.6250,96.4750
84.5485,96.4598
84.4836,96.4164
84.4402,96.3515
84.4250,96.2750
Z" /> 
<path style="fill:#C83434; fill-opacity:1.0000; stroke:none;fill-rule:evenodd;"
d="M 88.7750,86.7250
88.7902,86.6485
88.8336,86.5836
88.8985,86.5402
88.9750,86.5250
89.3750,86.5250
89.4515,86.5402
89.5164,86.5836
89.5598,86.6485
89.5750,86.7250
89.5750,87.2750
89.5598,87.3515
89.5164,87.4164
89.4515,87.4598
89.3750,87.4750
88.9750,87.4750
88.8985,87.4598
88.8336,87.4164
88.7902,87.3515
88.7750,87.2750
Z" /> 
<path style="fill:#C83434; fill-opacity:1.0000; stroke:none;fill-rule:evenodd;"
d="M 90.4250,86.7250
90.4402,86.6485
90.4836,86.5836
90.5485,86.5402
90.6250,86.5250
91.0250,86.5250
91.1015,86.5402
91.1664,86.5836
91.2098,86.6485
91.2250,86.7250
91.2250,87.2750
91.2098,87.3515
91.1664,87.4164
91.1015,87.4598
91.0250,87.4750
90.6250,87.4750
90.5485,87.4598
90.4836,87.4164
90.4402,87.3515
90.4250,87.2750
Z" /> 
<path style="fill:#C83434; fill-opacity:1.0000; stroke:none;fill-rule:evenodd;"
d="M 136.7750,86.7250
136.7902,86.6485
136.8336,86.5836
136.8985,86.5402
136.9750,86.5250
137.3750,86.5250
137.4515,86.5402
137.5164,86.5836
137.5598,86.6485
137.5750,86.7250
137.5750,87.2750
137.5598,87.3515
137.5164,87.4164
137.4515,87.4598
137.3750,87.4750
136.9750,87.4750
136.8985,87.4598
136.8336,87.4164
136.7902,87.3515
136.7750,87.2750
Z" /> 
<path style="fill:#C83434; fill-opacity:1.0000; stroke:none;fill-rule:evenodd;"
d="M 138.4250,86.7250
138.4402,86.6485
138.4836,86.5836
138.5485,86.5402
138.6250,86.5250
139.0250,86.5250
139.1015,86.5402
139.1664,86.5836
139.2098,86.6485
139.2250,86.7250
139.2250,87.2750
139.2098,87.3515
139.1664,87.4164
139.1015,87.4598
139.0250,87.4750
138.6250,87.4750
138.5485,87.4598
138.4836,87.4164
138.4402,87.3515
138.4250,87.2750
Z" /> 
<path style="fill:#C83434; fill-opacity:1.0000; stroke:none;fill-rule:evenodd;"
d="M 70.7750,91.7250
70.7902,91.6485
70.8336,91.5836
70.8985,91.5402
70.9750,91.5250
71.3750,91.5250
71.4515,91.5402
71.5164,91.5836
71.5598,91.6485
71.5750,91.7250
71.5750,92.2750
71.5598,92.3515
71.5164,92.4164
71.4515,92.4598
71.3750,92.4750
70.9750,92.4750
70.8985,92.4598
70.8336,92.4164
70.7902,92.3515
70.7750,92.2750
Z" /> 
<path style="fill:#C83434; fill-opacity:1.0000; stroke:none;fill-rule:evenodd;"
d="M 72.4250,91.7250
72.4402,91.6485
72.4836,91.5836
72.5485,91.5402
72.6250,91.5250
73.0250,91.5250
73.1015,91.5402
73.1664,91.5836
73.2098,91.6485
73.2250,91.7250
73.2250,92.2750
73.2098,92.3515
73.1664,92.4164
73.1015,92.4598
73.0250,92.4750
72.6250,92.4750
72.5485,92.4598
72.4836,92.4164
72.4402,92.3515
72.4250,92.2750
Z" /> 
<path style="fill:#C83434; fill-opacity:1.0000; stroke:none;fill-rule:evenodd;"
d="M 10.7750,95.7250
10.7902,95.6485
10.8336,95.5836
10.8985,95.5402
10.9750,95.5250
11.3750,95.5250
11.4515,95.5402
11.5164,95.5836
11.5598,95.6485
11.5750,95.7250
11.5750,96.2750
11.5598,96.3515
11.5164,96.4164
11.4515,96.4598
11.3750,96.4750
10.9750,96.4750
10.8985,96.4598
10.8336,96.4164
10.7902,96.3515
10.7750,96.2750
Z" /> 
<path style="fill:#C83434; fill-opacity:1.0000; stroke:none;fill-rule:evenodd;"
d="M 12.4250,95.7250
12.4402,95.6485
12.4836,95.5836
12.5485,95.5402
12.6250,95.5250
13.0250,95.5250
13.1015,95.5402
13.1664,95.5836
13.2098,95.6485
13.2250,95.7250
13.2250,96.2750
13.2098,96.3515
13.1664,96.4164
13.1015,96.4598
13.0250,96.4750
12.6250,96.4750
12.5485,96.4598
12.4836,96.4164
12.4402,96.3515
12.4250,96.2750
Z" /> 
<circle cx="85.2500" cy="59.2800" r="0.2250" /> 
<circle cx="121.2000" cy="38.8000" r="0.2250" /> 
<circle cx="82.6000" cy="12.4000" r="0.2250" /> 
<circle cx="124.0000" cy="38.4000" r="0.2250" /> 
<circle cx="121.2000" cy="43.2000" r="0.2250" /> 
<circle cx="117.2250" cy="26.0000" r="0.2250" /> 
<circle cx="81.4000" cy="12.4000" r="0.2250" /> 
<circle cx="93.2250" cy="82.0000" r="0.2250" /> 
<circle cx="81.2250" cy="18.0000" r="0.2250" /> 
<circle cx="80.8625" cy="13.0500" r="0.2250" /> 
<circle cx="85.2500" cy="58.0100" r="0.2250" /> 
<circle cx="127.2250" cy="44.0000" r="0.2250" /> 
<circle cx="124.6000" cy="42.8000" r="0.2250" /> 
<circle cx="121.2250" cy="44.0000" r="0.2250" /> 
<circle cx="122.0000" cy="42.0000" r="0.2250" /> 
<circle cx="119.8000" cy="33.2000" r="0.2250" /> 
<circle cx="125.4000" cy="30.8000" r="0.2250" /> 
<circle cx="144.6000" cy="27.6000" r="0.2250" /> 
<circle cx="80.8625" cy="14.0000" r="0.2250" /> 
<circle cx="74.4750" cy="13.3650" r="0.2250" /> 
<circle cx="122.7750" cy="44.0000" r="0.2250" /> 
<circle cx="144.0000" cy="32.4000" r="0.2250" /> 
<circle cx="144.0000" cy="26.0000" r="0.2250" /> 
<circle cx="120.4625" cy="40.0000" r="0.2250" /> 
<circle cx="122.7750" cy="34.0000" r="0.2250" /> 
<circle cx="92.5000" cy="64.4600" r="0.2250" /> 
<circle cx="144.0000" cy="13.2000" r="0.2250" /> 
<circle cx="144.6000" cy="21.2000" r="0.2250" /> 
<circle cx="74.7750" cy="20.0000" r="0.2250" /> 
<circle cx="125.4000" cy="11.6000" r="0.2250" /> 
<circle cx="147.7750" cy="34.0000" r="0.2250" /> 
<circle cx="126.0000" cy="19.6000" r="0.2250" /> 
<circle cx="82.7750" cy="10.0000" r="0.2250" /> 
<circle cx="85.2500" cy="56.7400" r="0.2250" /> 
<circle cx="128.7750" cy="36.0000" r="0.2250" /> 
<circle cx="144.0000" cy="22.8000" r="0.2250" /> 
<circle cx="126.0000" cy="32.4000" r="0.2250" /> 
<circle cx="126.7750" cy="48.0000" r="0.2250" /> 
<circle cx="118.7750" cy="26.0000" r="0.2250" /> 
<circle cx="144.6000" cy="14.8000" r="0.2250" /> 
<circle cx="118.7500" cy="32.4625" r="0.2250" /> 
<circle cx="68.7750" cy="8.0000" r="0.2250" /> 
<circle cx="125.4000" cy="27.6000" r="0.2250" /> 
<circle cx="144.6000" cy="18.0000" r="0.2250" /> 
<circle cx="144.0000" cy="19.6000" r="0.2250" /> 
<circle cx="130.0375" cy="40.0000" r="0.2250" /> 
<circle cx="144.6000" cy="11.6000" r="0.2250" /> 
<circle cx="144.6000" cy="30.8000" r="0.2250" /> 
<circle cx="144.0000" cy="16.4000" r="0.2250" /> 
<circle cx="126.4625" cy="40.0000" r="0.2250" /> 
<circle cx="124.0375" cy="40.0000" r="0.2250" /> 
<circle cx="82.7750" cy="18.0000" r="0.2250" /> 
<circle cx="102.7500" cy="58.0100" r="0.2250" /> 
<circle cx="125.4000" cy="18.0000" r="0.2250" /> 
<circle cx="125.4000" cy="24.4000" r="0.2250" /> 
<circle cx="126.0000" cy="29.2000" r="0.2250" /> 
<circle cx="118.0000" cy="30.0000" r="0.2250" /> 
<circle cx="123.7750" cy="22.0000" r="0.2250" /> 
<circle cx="94.7750" cy="82.0000" r="0.2250" /> 
<circle cx="144.0000" cy="29.2000" r="0.2250" /> 
<circle cx="102.7500" cy="56.7400" r="0.2250" /> 
<circle cx="128.7750" cy="44.0000" r="0.2250" /> 
<circle cx="126.0000" cy="26.0000" r="0.2250" /> 
<circle cx="126.0000" cy="16.4000" r="0.2250" /> 
<circle cx="117.7500" cy="27.5375" r="0.2250" /> 
<circle cx="125.4000" cy="14.8000" r="0.2250" /> 
<circle cx="128.6000" cy="38.8000" r="0.2250" /> 
<circle cx="127.2250" cy="36.0000" r="0.2250" /> 
<circle cx="146.2250" cy="34.0000" r="0.2250" /> 
<circle cx="125.0000" cy="39.2000" r="0.2250" /> 
<circle cx="121.2250" cy="34.0000" r="0.2250" /> 
<circle cx="117.2500" cy="28.0375" r="0.2250" /> 
<circle cx="145.4000" cy="34.0000" r="0.2250" /> 
<circle cx="121.4000" cy="32.6000" r="0.2250" /> 
<circle cx="126.0000" cy="13.2000" r="0.2250" /> 
<circle cx="116.8000" cy="28.6000" r="0.2250" /> 
<circle cx="124.6000" cy="20.2000" r="0.2250" /> 
<circle cx="126.8000" cy="35.2000" r="0.2250" /> 
<circle cx="125.2000" cy="47.2000" r="0.2250" /> 
<circle cx="95.6000" cy="75.8000" r="0.2250" /> 
<circle cx="101.4000" cy="66.0000" r="0.2250" /> 
<circle cx="69.5250" cy="14.6350" r="0.2250" /> 
<circle cx="67.2250" cy="8.0000" r="0.2250" /> 
<circle cx="69.5250" cy="13.3650" r="0.2250" /> 
<circle cx="101.6000" cy="63.4000" r="0.2250" /> 
<circle cx="104.6000" cy="63.4000" r="0.2250" /> 
<circle cx="119.2000" cy="40.8000" r="0.2250" /> 
<circle cx="119.2000" cy="42.0000" r="0.2250" /> 
<circle cx="104.6000" cy="64.6000" r="0.2250" /> 
<circle cx="101.6000" cy="64.6000" r="0.2250" /> 
<circle cx="101.6000" cy="61.8000" r="0.2250" /> 
<circle cx="104.6000" cy="61.8000" r="0.2250" /> 
</g>
<g style="fill:none; 
stroke:#C83434; stroke-width:0.2000; stroke-opacity:1; 
stroke-linecap:round; stroke-linejoin:round;">
<path d="M122.0000 78.0000
L109.6000 78.0000
" />
<path d="M126.8000 42.8000
L126.8000 43.6000
" />
<path d="M119.0000 34.0000
L120.4000 34.0000
" />
<path d="M121.2000 43.2000
L121.2000 43.6000
" />
<path d="M117.6000 26.4000
L118.0000 26.4000
" />
<path d="M74.4000 18.4000
L74.4000 16.2000
" />
<path d="M118.0000 26.4000
L118.0000 26.8000
" />
<path d="M124.0000 38.4000
L126.6000 38.4000
" />
<path d="M115.6000 31.4000
L116.4000 31.4000
" />
<path d="M85.2500 58.0100
L85.2000 58.4000
" />
<path d="M122.0000 61.0000
L122.0000 78.0000
" />
<path d="M85.2000 58.8000
L85.2500 59.2800
" />
<path d="M119.2000 26.8000
L119.2000 29.0000
" />
<path d="M120.0000 30.6000
L119.6000 30.6000
" />
<path d="M80.8625 13.0500
L81.4000 12.8000
" />
<path d="M116.4000 31.4000
L116.4000 32.4000
" />
<path d="M115.6000 30.8000
L115.6000 31.4000
" />
<path d="M85.2000 58.4000
L85.2000 58.8000
" />
<path d="M84.0000 74.0000
L84.0000 58.4000
" />
<path d="M117.6000 33.6000
L119.0000 33.6000
" />
</g>
<g style="fill:none; 
stroke:#C83434; stroke-width:0.2500; stroke-opacity:1; 
stroke-linecap:round; stroke-linejoin:round;">
<path d="M119.2625 30.5000
L119.9625 30.5000
" />
</g>
<g style="fill:none; 
stroke:#C83434; stroke-width:0.2000; stroke-opacity:1; 
stroke-linecap:round; stroke-linejoin:round;">
<path d="M81.2250 18.0000
L80.8000 18.4000
" />
<path d="M82.0000 18.4000
L82.0000 18.8000
" />
<path d="M116.4000 32.4000
L117.6000 32.4000
" />
<path d="M116.8000 26.0000
L117.2250 26.0000
" />
<path d="M126.6000 38.4000
L126.6000 39.2000
" />
<path d="M115.2000 26.0000
L116.8000 26.0000
" />
<path d="M118.0000 26.8000
L119.2000 26.8000
" />
<path d="M120.4000 34.0000
L120.4000 34.8000
" />
<path d="M121.8000 22.0000
L122.2250 22.0000
" />
<path d="M124.6000 42.8000
L126.8000 42.8000
" />
<path d="M121.6000 44.4000
L121.6000 61.0000
" />
<path d="M120.4000 34.8000
L121.2000 34.8000
" />
<path d="M80.8000 18.4000
L73.6000 18.4000
" />
<path d="M115.2000 18.8000
L115.2000 30.8000
" />
<path d="M109.6000 79.2000
L93.6000 79.2000
" />
<path d="M115.2000 29.4000
L116.4000 29.4000
" />
<path d="M82.6000 12.4000
L82.6000 12.8000
" />
<path d="M84.0000 58.4000
L84.4000 58.4000
" />
<path d="M86.2000 74.0000
L84.0000 74.0000
" />
<path d="M93.6000 79.2000
L93.6000 75.6000
" />
<path d="M120.0000 29.0000
L120.0000 30.6000
" />
<path d="M93.6000 75.6000
L86.2000 75.6000
" />
<path d="M117.2250 26.0000
L117.6000 26.4000
" />
<path d="M93.6000 81.6000
L93.2250 82.0000
" />
<path d="M121.2250 44.0000
L121.6000 44.4000
" />
<path d="M121.2000 38.8000
L121.2000 39.2000
" />
<path d="M73.6000 19.6000
L73.2250 20.0000
" />
<path d="M79.8000 18.4000
L79.8000 13.2000
" />
<path d="M79.8000 13.2000
L80.2000 13.2000
" />
<path d="M121.2000 34.8000
L121.2000 38.8000
" />
<path d="M81.6000 18.4000
L82.0000 18.4000
" />
<path d="M119.0000 33.6000
L119.0000 34.0000
" />
<path d="M117.6000 32.4000
L117.6000 33.6000
" />
<path d="M109.6000 78.0000
L109.6000 79.2000
" />
<path d="M80.2000 13.2000
L80.8625 13.0500
" />
<path d="M93.6000 79.2000
L93.6000 81.6000
" />
<path d="M82.0000 18.8000
L115.2000 18.8000
" />
<path d="M126.6000 39.2000
L127.1625 39.3500
" />
<path d="M121.6000 61.0000
L122.0000 61.0000
" />
<path d="M82.6000 12.8000
L83.1375 13.0500
" />
<path d="M115.2000 30.8000
L115.6000 30.8000
" />
<path d="M86.2000 75.6000
L86.2000 74.0000
" />
<path d="M119.2000 29.0000
L120.0000 29.0000
" />
<path d="M74.4000 16.2000
L74.4750 15.9050
" />
<path d="M81.2250 18.0000
L81.6000 18.4000
" />
<path d="M73.6000 18.4000
L73.6000 19.6000
" />
<path d="M116.4000 29.4000
L116.7375 29.5000
" />
<path d="M126.8000 43.6000
L127.2250 44.0000
" />
<path d="M81.4000 12.8000
L81.4000 12.4000
" />
<path d="M84.4000 58.4000
L85.2500 58.0100
" />
<path d="M121.2000 43.6000
L121.2250 44.0000
" />
<path d="M115.2000 22.0000
L121.8000 22.0000
" />
<path d="M119.6000 30.6000
L119.2625 30.5000
" />
<path d="M121.2000 39.2000
L121.1625 39.3500
" />
<path d="M119.8000 33.2000
L118.0000 33.2000
" />
<path d="M122.4000 44.8000
L122.0000 44.8000
" />
<path d="M116.8000 31.0000
L116.0000 31.0000
" />
<path d="M122.4000 61.4000
L122.4000 44.8000
" />
<path d="M116.0000 30.0000
L116.4000 30.0000
" />
<path d="M118.0000 33.2000
L118.0000 32.0000
" />
<path d="M116.8000 32.0000
L116.8000 31.0000
" />
<path d="M122.0000 44.8000
L122.0000 42.0000
" />
<path d="M116.0000 31.0000
L116.0000 30.0000
" />
</g>
<g style="fill:none; 
stroke:#C83434; stroke-width:0.2500; stroke-opacity:1; 
stroke-linecap:round; stroke-linejoin:round;">
<path d="M116.7375 30.0000
L116.0375 30.0000
" />
</g>
<g style="fill:none; 
stroke:#C83434; stroke-width:0.2000; stroke-opacity:1; 
stroke-linecap:round; stroke-linejoin:round;">
<path d="M116.4000 30.0000
L116.7375 30.0000
" />
<path d="M118.0000 32.0000
L116.8000 32.0000
" />
<path d="M122.8250 61.8200
L122.4000 61.4000
" />
</g>
<g style="fill:none; 
stroke:#C83434; stroke-width:0.2500; stroke-opacity:1; 
stroke-linecap:round; stroke-linejoin:round;">
<path d="M127.0000 24.4000
L125.4000 24.4000
" />
<path d="M143.0000 30.8000
L144.6000 30.8000
" />
<path d="M143.0000 11.6000
L144.6000 11.6000
" />
<path d="M143.0000 22.8000
L144.0000 22.8000
" />
<path d="M143.0000 27.6000
L144.6000 27.6000
" />
<path d="M143.0000 19.6000
L144.0000 19.6000
" />
<path d="M127.0000 29.2000
L126.0000 29.2000
" />
<path d="M143.0000 14.8000
L144.6000 14.8000
" />
<path d="M127.0000 26.0000
L126.0000 26.0000
" />
<path d="M122.8375 40.0000
L124.0375 40.0000
" />
<path d="M121.1625 40.0000
L120.4625 40.0000
" />
<path d="M127.0000 18.0000
L125.4000 18.0000
" />
<path d="M128.8375 40.0000
L130.0375 40.0000
" />
<path d="M127.0000 19.6000
L126.0000 19.6000
" />
<path d="M143.0000 32.4000
L144.0000 32.4000
" />
<path d="M143.0000 21.2000
L144.6000 21.2000
" />
<path d="M143.0000 16.4000
L144.0000 16.4000
" />
<path d="M127.0000 30.8000
L125.4000 30.8000
" />
<path d="M118.7500 31.2625
L118.7500 32.4625
" />
<path d="M143.0000 29.2000
L144.0000 29.2000
" />
<path d="M127.0000 11.6000
L125.4000 11.6000
" />
<path d="M143.0000 18.0000
L144.6000 18.0000
" />
<path d="M143.0000 13.2000
L144.0000 13.2000
" />
<path d="M127.0000 27.6000
L125.4000 27.6000
" />
<path d="M127.0000 32.4000
L126.0000 32.4000
" />
<path d="M127.1625 40.0000
L126.4625 40.0000
" />
<path d="M143.0000 26.0000
L144.0000 26.0000
" />
<path d="M127.0000 16.4000
L126.0000 16.4000
" />
<path d="M117.7500 28.7375
L117.7500 27.5375
" />
<path d="M127.0000 14.8000
L125.4000 14.8000
" />
</g>
<g style="fill:none; 
stroke:#C83434; stroke-width:0.2000; stroke-opacity:1; 
stroke-linecap:round; stroke-linejoin:round;">
<path d="M116.8000 28.6000
L117.2000 28.6000
" />
<path d="M145.8000 34.0000
L146.2250 34.0000
" />
<path d="M82.0000 10.8000
L82.0000 14.8000
" />
<path d="M123.4000 39.2000
L122.8375 39.3500
" />
<path d="M121.4000 33.6000
L121.2250 34.0000
" />
<path d="M82.0000 14.8000
L81.6000 14.8000
" />
<path d="M126.6000 13.2000
L127.0000 13.2000
" />
<path d="M128.6000 39.2000
L128.8375 39.3500
" />
<path d="M81.6000 10.4000
L82.0000 10.4000
" />
</g>
<g style="fill:none; 
stroke:#C83434; stroke-width:0.2500; stroke-opacity:1; 
stroke-linecap:round; stroke-linejoin:round;">
<path d="M117.2500 28.7375
L117.2500 28.0375
" />
</g>
<g style="fill:none; 
stroke:#C83434; stroke-width:0.2000; stroke-opacity:1; 
stroke-linecap:round; stroke-linejoin:round;">
<path d="M125.2000 47.2000
L125.2000 47.6000
" />
<path d="M121.4000 32.6000
L121.4000 33.6000
" />
<path d="M125.0000 39.2000
L123.4000 39.2000
" />
<path d="M126.8000 35.2000
L126.8000 35.6000
" />
<path d="M125.2000 47.6000
L125.2250 48.0000
" />
<path d="M81.2250 10.0000
L81.6000 10.4000
" />
<path d="M126.8000 35.6000
L127.2250 36.0000
" />
<path d="M124.6000 13.2000
L126.6000 13.2000
" />
<path d="M128.6000 38.8000
L128.6000 39.2000
" />
<path d="M82.0000 10.4000
L82.0000 10.8000
" />
<path d="M81.6000 14.8000
L80.8625 14.9500
" />
<path d="M124.6000 10.8000
L124.6000 20.2000
" />
<path d="M117.2000 28.6000
L117.2500 28.7375
" />
</g>
<g style="fill:none; 
stroke:#C83434; stroke-width:0.2500; stroke-opacity:1; 
stroke-linecap:round; stroke-linejoin:round;">
<path d="M127.0000 13.2000
L126.0000 13.2000
" />
</g>
<g style="fill:none; 
stroke:#C83434; stroke-width:0.2000; stroke-opacity:1; 
stroke-linecap:round; stroke-linejoin:round;">
<path d="M82.0000 10.8000
L124.6000 10.8000
" />
<path d="M145.4000 34.0000
L145.8000 34.0000
" />
</g>
<g style="fill:none; 
stroke:#C83434; stroke-width:1.2000; stroke-opacity:1; 
stroke-linecap:round; stroke-linejoin:round;">
<path d="M10.0000 25.0000
L11.2000 23.8000
" />
<path d="M31.2000 38.0000
L32.0000 39.0000
" />
<path d="M11.2000 21.0000
L27.2000 21.0000
" />
<path d="M31.2000 21.0000
L31.2000 38.0000
" />
<path d="M28.0000 20.0000
L28.8000 21.0000
" />
<path d="M18.6000 12.8000
L18.6000 12.0000
" />
<path d="M11.2000 23.8000
L11.2000 21.0000
" />
<path d="M28.8000 21.0000
L31.2000 21.0000
" />
<path d="M18.6000 21.0000
L18.6000 12.8000
" />
<path d="M27.2000 21.0000
L28.0000 20.0000
" />
</g>
<g style="fill:none; 
stroke:#C83434; stroke-width:0.2000; stroke-opacity:1; 
stroke-linecap:round; stroke-linejoin:round;">
<path d="M101.4000 66.0000
L102.0000 66.0000
" />
<path d="M95.1750 77.6300
L95.6000 77.2000
" />
<path d="M95.6000 77.2000
L95.6000 75.8000
" />
<path d="M102.0000 66.0000
L102.7500 65.6300
" />
</g>
<g style="fill:none; 
stroke:#C83434; stroke-width:0.2500; stroke-opacity:1; 
stroke-linecap:round; stroke-linejoin:round;">
<path d="M67.6000 13.2000
L68.6000 13.2000
" />
<path d="M68.6000 82.0000
L68.2000 82.0000
" />
<path d="M62.4000 14.0000
L61.6000 14.0000
" />
<path d="M67.6000 74.4000
L26.2000 74.4000
" />
<path d="M67.2250 8.0000
L67.6000 8.4000
" />
<path d="M68.2000 86.8000
L67.0000 88.0000
" />
<path d="M26.2000 74.4000
L26.2000 74.8000
" />
<path d="M68.2000 82.0000
L68.2000 86.8000
" />
<path d="M26.2000 74.8000
L25.0000 76.0000
" />
<path d="M69.4000 14.4000
L69.5250 14.6350
" />
<path d="M69.4000 13.6000
L69.4000 14.4000
" />
<path d="M68.6000 78.8000
L68.6000 82.0000
" />
<path d="M67.6000 8.4000
L67.6000 78.8000
" />
<path d="M67.6000 14.0000
L62.4000 14.0000
" />
<path d="M67.6000 78.8000
L68.6000 78.8000
" />
<path d="M69.5250 13.3650
L69.4000 13.6000
" />
<path d="M68.6000 13.2000
L69.5250 13.3650
" />
</g>
<g style="fill:none; 
stroke:#C83434; stroke-width:0.2000; stroke-opacity:1; 
stroke-linecap:round; stroke-linejoin:round;">
<path d="M120.8000 63.4000
L104.6000 63.4000
" />
<path d="M121.1750 77.0900
L120.8000 76.6000
" />
<path d="M101.6000 63.4000
L102.0000 63.4000
" />
<path d="M120.8000 76.6000
L120.8000 63.4000
" />
<path d="M102.0000 63.4000
L102.7500 63.0900
" />
<path d="M118.6000 41.4000
L118.6000 55.8000
" />
<path d="M86.0000 65.2000
L85.2500 65.6300
" />
<path d="M118.6000 55.8000
L86.4000 55.8000
" />
<path d="M86.4000 65.2000
L86.0000 65.2000
" />
<path d="M124.4000 41.4000
L118.6000 41.4000
" />
<path d="M86.4000 55.8000
L86.4000 65.2000
" />
<path d="M124.4000 40.8000
L124.4000 41.4000
" />
<path d="M126.6000 40.8000
L124.4000 40.8000
" />
<path d="M127.1625 40.6500
L126.6000 40.8000
" />
<path d="M104.0000 56.2000
L104.0000 66.4000
" />
<path d="M104.0000 66.4000
L103.6000 66.4000
" />
<path d="M121.1625 40.6500
L120.6000 40.8000
" />
<path d="M119.0000 56.2000
L104.0000 56.2000
" />
<path d="M103.6000 66.4000
L102.7500 66.9000
" />
<path d="M120.6000 40.8000
L119.2000 40.8000
" />
<path d="M119.2000 42.0000
L119.0000 42.0000
" />
<path d="M119.0000 42.0000
L119.0000 56.2000
" />
<path d="M101.6000 64.6000
L102.0000 64.6000
" />
<path d="M107.1750 78.3600
L106.8000 77.8000
" />
<path d="M106.8000 64.6000
L104.6000 64.6000
" />
<path d="M106.8000 77.8000
L106.8000 64.6000
" />
<path d="M102.0000 64.6000
L102.7500 64.3600
" />
<path d="M120.8000 61.8000
L104.6000 61.8000
" />
<path d="M102.0000 61.8000
L102.7500 61.8200
" />
<path d="M121.1750 61.8200
L120.8000 61.8000
" />
<path d="M101.6000 61.8000
L102.0000 61.8000
" />
<path d="M128.4000 40.6000
L128.0000 40.6000
" />
<path d="M128.8375 40.6500
L128.4000 40.6000
" />
<path d="M128.0000 40.6000
L128.0000 23.4000
" />
<path d="M128.0000 23.4000
L127.4000 23.4000
" />
<path d="M127.4000 23.4000
L127.0000 22.8000
" />
<path d="M122.0000 40.6000
L122.0000 22.8000
" />
<path d="M122.8375 40.6500
L122.4000 40.6000
" />
<path d="M126.6000 21.8000
L127.0000 21.2000
" />
<path d="M124.6000 21.8000
L126.6000 21.8000
" />
<path d="M122.0000 22.8000
L124.6000 22.8000
" />
<path d="M122.4000 40.6000
L122.0000 40.6000
" />
<path d="M124.6000 22.8000
L124.6000 21.8000
" />
<path d="M144.8000 23.6000
L143.8000 23.6000
" />
<path d="M143.4000 23.8000
L143.0000 24.4000
" />
<path d="M145.4000 17.0000
L145.4000 22.0000
" />
<path d="M145.4000 22.0000
L144.8000 22.0000
" />
<path d="M143.8000 23.6000
L143.8000 23.8000
" />
<path d="M144.8000 22.0000
L144.8000 23.6000
" />
<path d="M152.0000 16.0000
L151.0000 17.0000
" />
<path d="M151.0000 17.0000
L145.4000 17.0000
" />
<path d="M143.8000 23.8000
L143.4000 23.8000
" />
</g>
<g style="fill:#FFFFFF; fill-opacity:1.0000; stroke:none;">
<circle cx="85.2500" cy="59.2800" r="0.1000" /> 
<circle cx="121.2000" cy="38.8000" r="0.1000" /> 
<circle cx="82.6000" cy="12.4000" r="0.1000" /> 
<circle cx="124.0000" cy="38.4000" r="0.1000" /> 
<circle cx="121.2000" cy="43.2000" r="0.1000" /> 
<circle cx="117.2250" cy="26.0000" r="0.1000" /> 
<circle cx="81.4000" cy="12.4000" r="0.1000" /> 
<circle cx="93.2250" cy="82.0000" r="0.1000" /> 
<circle cx="81.2250" cy="18.0000" r="0.1000" /> 
<circle cx="80.8625" cy="13.0500" r="0.1000" /> 
<circle cx="85.2500" cy="58.0100" r="0.1000" /> 
<circle cx="127.2250" cy="44.0000" r="0.1000" /> 
<circle cx="124.6000" cy="42.8000" r="0.1000" /> 
<circle cx="121.2250" cy="44.0000" r="0.1000" /> 
<circle cx="122.0000" cy="42.0000" r="0.1000" /> 
<circle cx="119.8000" cy="33.2000" r="0.1000" /> 
<circle cx="125.4000" cy="30.8000" r="0.1000" /> 
<circle cx="144.6000" cy="27.6000" r="0.1000" /> 
<circle cx="80.8625" cy="14.0000" r="0.1000" /> 
<circle cx="74.4750" cy="13.3650" r="0.1000" /> 
<circle cx="122.7750" cy="44.0000" r="0.1000" /> 
<circle cx="144.0000" cy="32.4000" r="0.1000" /> 
<circle cx="144.0000" cy="26.0000" r="0.1000" /> 
<circle cx="120.4625" cy="40.0000" r="0.1000" /> 
<circle cx="122.7750" cy="34.0000" r="0.1000" /> 
<circle cx="92.5000" cy="64.4600" r="0.1000" /> 
<circle cx="144.0000" cy="13.2000" r="0.1000" /> 
<circle cx="144.6000" cy="21.2000" r="0.1000" /> 
<circle cx="74.7750" cy="20.0000" r="0.1000" /> 
<circle cx="125.4000" cy="11.6000" r="0.1000" /> 
<circle cx="147.7750" cy="34.0000" r="0.1000" /> 
<circle cx="126.0000" cy="19.6000" r="0.1000" /> 
<circle cx="82.7750" cy="10.0000" r="0.1000" /> 
<circle cx="85.2500" cy="56.7400" r="0.1000" /> 
<circle cx="128.7750" cy="36.0000" r="0.1000" /> 
<circle cx="144.0000" cy="22.8000" r="0.1000" /> 
<circle cx="126.0000" cy="32.4000" r="0.1000" /> 
<circle cx="126.7750" cy="48.0000" r="0.1000" /> 
<circle cx="118.7750" cy="26.0000" r="0.1000" /> 
<circle cx="144.6000" cy="14.8000" r="0.1000" /> 
<circle cx="118.7500" cy="32.4625" r="0.1000" /> 
<circle cx="68.7750" cy="8.0000" r="0.1000" /> 
<circle cx="125.4000" cy="27.6000" r="0.1000" /> 
<circle cx="144.6000" cy="18.0000" r="0.1000" /> 
<circle cx="144.0000" cy="19.6000" r="0.1000" /> 
<circle cx="130.0375" cy="40.0000" r="0.1000" /> 
<circle cx="144.6000" cy="11.6000" r="0.1000" /> 
<circle cx="144.6000" cy="30.8000" r="0.1000" /> 
<circle cx="144.0000" cy="16.4000" r="0.1000" /> 
<circle cx="126.4625" cy="40.0000" r="0.1000" /> 
<circle cx="124.0375" cy="40.0000" r="0.1000" /> 
<circle cx="82.7750" cy="18.0000" r="0.1000" /> 
<circle cx="102.7500" cy="58.0100" r="0.1000" /> 
<circle cx="125.4000" cy="18.0000" r="0.1000" /> 
<circle cx="125.4000" cy="24.4000" r="0.1000" /> 
<circle cx="126.0000" cy="29.2000" r="0.1000" /> 
<circle cx="118.0000" cy="30.0000" r="0.1000" /> 
<circle cx="123.7750" cy="22.0000" r="0.1000" /> 
<circle cx="94.7750" cy="82.0000" r="0.1000" /> 
<circle cx="144.0000" cy="29.2000" r="0.1000" /> 
<circle cx="102.7500" cy="56.7400" r="0.1000" /> 
<circle cx="128.7750" cy="44.0000" r="0.1000" /> 
<circle cx="126.0000" cy="26.0000" r="0.1000" /> 
<circle cx="126.0000" cy="16.4000" r="0.1000" /> 
<circle cx="117.7500" cy="27.5375" r="0.1000" /> 
<circle cx="125.4000" cy="14.8000" r="0.1000" /> 
<circle cx="128.6000" cy="38.8000" r="0.1000" /> 
<circle cx="127.2250" cy="36.0000" r="0.1000" /> 
<circle cx="146.2250" cy="34.0000" r="0.1000" /> 
<circle cx="125.0000" cy="39.2000" r="0.1000" /> 
<circle cx="121.2250" cy="34.0000" r="0.1000" /> 
<circle cx="117.2500" cy="28.0375" r="0.1000" /> 
<circle cx="145.4000" cy="34.0000" r="0.1000" /> 
<circle cx="121.4000" cy="32.6000" r="0.1000" /> 
<circle cx="126.0000" cy="13.2000" r="0.1000" /> 
<circle cx="116.8000" cy="28.6000" r="0.1000" /> 
<circle cx="124.6000" cy="20.2000" r="0.1000" /> 
<circle cx="126.8000" cy="35.2000" r="0.1000" /> 
<circle cx="125.2000" cy="47.2000" r="0.1000" /> 
<circle cx="95.6000" cy="75.8000" r="0.1000" /> 
<circle cx="101.4000" cy="66.0000" r="0.1000" /> 
<circle cx="69.5250" cy="14.6350" r="0.1000" /> 
<circle cx="67.2250" cy="8.0000" r="0.1000" /> 
<circle cx="69.5250" cy="13.3650" r="0.1000" /> 
<circle cx="101.6000" cy="63.4000" r="0.1000" /> 
<circle cx="104.6000" cy="63.4000" r="0.1000" /> 
<circle cx="119.2000" cy="40.8000" r="0.1000" /> 
<circle cx="119.2000" cy="42.0000" r="0.1000" /> 
<circle cx="104.6000" cy="64.6000" r="0.1000" /> 
<circle cx="101.6000" cy="64.6000" r="0.1000" /> 
<circle cx="101.6000" cy="61.8000" r="0.1000" /> 
<circle cx="104.6000" cy="61.8000" r="0.1000" /> 
</g>
<g style="fill:#FFFFFF; fill-opacity:1.0000; stroke:none;">
<circle cx="32.0000" cy="39.0000" r="0.4000" /> 
</g>
<g style="fill:#FFFFFF; fill-opacity:1.0000; stroke:none;">
<circle cx="39.5000" cy="41.0000" r="0.4000" /> 
</g>
<g style="fill:#FFFFFF; fill-opacity:1.0000; stroke:none;">
<circle cx="28.0000" cy="20.0000" r="0.5000" /> 
</g>
<g style="fill:#FFFFFF; fill-opacity:1.0000; stroke:none;">
<circle cx="28.0000" cy="26.0000" r="0.5000" /> 
</g>
<g style="fill:#FFFFFF; fill-opacity:1.0000; stroke:none;">
<circle cx="61.6000" cy="14.0000" r="0.5000" /> 
</g>
<g style="fill:#FFFFFF; fill-opacity:1.0000; stroke:none;">
<circle cx="61.6000" cy="32.0000" r="0.5000" /> 
</g>
<g style="fill:#FFFFFF; fill-opacity:1.0000; stroke:none;">
<circle cx="91.1000" cy="63.7600" r="0.1000" /> 
</g>
<g style="fill:#FFFFFF; fill-opacity:1.0000; stroke:none;">
<circle cx="91.1000" cy="65.1600" r="0.1000" /> 
</g>
<g style="fill:#FFFFFF; fill-opacity:1.0000; stroke:none;">
<circle cx="91.8000" cy="63.0600" r="0.1000" /> 
</g>
<g style="fill:#FFFFFF; fill-opacity:1.0000; stroke:none;">
<circle cx="91.8000" cy="64.4600" r="0.1000" /> 
</g>
<g style="fill:#FFFFFF; fill-opacity:1.0000; stroke:none;">
<circle cx="91.8000" cy="65.8600" r="0.1000" /> 
</g>
<g style="fill:#FFFFFF; fill-opacity:1.0000; stroke:none;">
<circle cx="92.5000" cy="63.7600" r="0.1000" /> 
</g>
<g style="fill:#FFFFFF; fill-opacity:1.0000; stroke:none;">
<circle cx="92.5000" cy="65.1600" r="0.1000" /> 
</g>
<g style="fill:#FFFFFF; fill-opacity:1.0000; stroke:none;">
<circle cx="93.2000" cy="63.0600" r="0.1000" /> 
</g>
<g style="fill:#FFFFFF; fill-opacity:1.0000; stroke:none;">
<circle cx="93.2000" cy="64.4600" r="0.1000" /> 
</g>
<g style="fill:#FFFFFF; fill-opacity:1.0000; stroke:none;">
<circle cx="93.2000" cy="65.8600" r="0.1000" /> 
</g>
<g style="fill:#FFFFFF; fill-opacity:1.0000; stroke:none;">
<circle cx="93.9000" cy="63.7600" r="0.1000" /> 
</g>
<g style="fill:#FFFFFF; fill-opacity:1.0000; stroke:none;">
<circle cx="93.9000" cy="65.1600" r="0.1000" /> 
</g>
<g style="fill:#FFFFFF; fill-opacity:1.0000; stroke:none;">
<circle cx="25.0000" cy="76.0000" r="0.6500" /> 
</g>
<g style="fill:#FFFFFF; fill-opacity:1.0000; stroke:none;">
<circle cx="35.1600" cy="76.0000" r="0.6500" /> 
</g>
<g style="fill:#FFFFFF; fill-opacity:1.0000; stroke:none;">
<circle cx="42.7800" cy="76.0000" r="0.6500" /> 
</g>
<g style="fill:#FFFFFF; fill-opacity:1.0000; stroke:none;">
<circle cx="40.2400" cy="68.3800" r="0.6500" /> 
</g>
<g style="fill:#FFFFFF; fill-opacity:1.0000; stroke:none;">
<circle cx="25.0000" cy="68.3800" r="0.6500" /> 
</g>
<g style="fill:#FFFFFF; fill-opacity:1.0000; stroke:none;">
<circle cx="10.0000" cy="25.0000" r="0.6000" /> 
</g>
<g style="fill:#FFFFFF; fill-opacity:1.0000; stroke:none;">
<circle cx="13.5000" cy="25.0000" r="0.6000" /> 
</g>
<g style="fill:#FFFFFF; fill-opacity:1.0000; stroke:none;">
<circle cx="152.0000" cy="16.0000" r="0.7500" /> 
</g>
<g style="fill:#FFFFFF; fill-opacity:1.0000; stroke:none;">
<circle cx="149.4600" cy="13.4600" r="0.8500" /> 
</g>
<g style="fill:#FFFFFF; fill-opacity:1.0000; stroke:none;">
<circle cx="149.4600" cy="18.5400" r="0.8500" /> 
</g>
<g style="fill:#FFFFFF; fill-opacity:1.0000; stroke:none;">
<circle cx="154.5400" cy="13.4600" r="0.8500" /> 
</g>
<g style="fill:#FFFFFF; fill-opacity:1.0000; stroke:none;">
<circle cx="154.5400" cy="18.5400" r="0.8500" /> 
</g>
<g style="fill:#FFFFFF; fill-opacity:1.0000; stroke:none;">
<circle cx="67.0000" cy="88.0000" r="0.6500" /> 
</g>
<g style="fill:#FFFFFF; fill-opacity:1.0000; stroke:none;">
<circle cx="77.1600" cy="88.0000" r="0.6500" /> 
</g>
<g style="fill:#FFFFFF; fill-opacity:1.0000; stroke:none;">
<circle cx="84.7800" cy="88.0000" r="0.6500" /> 
</g>
<g style="fill:#FFFFFF; fill-opacity:1.0000; stroke:none;">
<circle cx="82.2400" cy="80.3800" r="0.6500" /> 
</g>
<g style="fill:#FFFFFF; fill-opacity:1.0000; stroke:none;">
<circle cx="67.0000" cy="80.3800" r="0.6500" /> 
</g> 
</svg>
