<?xml version="1.0" standalone="no"?>
 <!DOCTYPE svg PUBLIC "-//W3C//DTD SVG 1.1//EN" 
 "http://www.w3.org/Graphics/SVG/1.1/DTD/svg11.dtd"> 
<svg
  xmlns:svg="http://www.w3.org/2000/svg"
  xmlns="http://www.w3.org/2000/svg"
  xmlns:xlink="http://www.w3.org/1999/xlink"
  xmlns:inkscape="http://www.inkscape.org/namespaces/inkscape"
  version="1.1"
  width="159.9946mm" height="99.9998mm" viewBox="0.0000 0.0000 159.9946 99.9998">
<title>SVG Image created as pcb_bottom.svg date 2026-05-27T16:36:07 </title>
  <desc>Image generated by PCBNEW </desc>
<g style="fill:#000000; fill-opacity:1.0000;stroke:#000000; stroke-opacity:1.0000;
stroke-linecap:round; stroke-linejoin:round;"
 transform="translate(0 0) scale(1 1)">
</g>
<g style="fill:#4D7FC4; fill-opacity:1.0000; stroke:none;">
<circle cx="127.9946" cy="39.0000" r="0.9000" /> 
<circle cx="120.4946" cy="41.0000" r="0.9000" /> 
<path style="fill:#4D7FC4; fill-opacity:1.0000; stroke:none;fill-rule:evenodd;"
d="M 132.8446,19.2500
132.8256,19.1543
132.7714,19.0732
132.6903,19.0190
132.5946,19.0000
131.3946,19.0000
131.2989,19.0190
131.2178,19.0732
131.1636,19.1543
131.1446,19.2500
131.1446,20.7500
131.1636,20.8457
131.2178,20.9268
131.2989,20.9810
131.3946,21.0000
132.5946,21.0000
132.6903,20.9810
132.7714,20.9268
132.8256,20.8457
132.8446,20.7500
Z" /> 
</g>
<g style="fill:none; 
stroke:#4D7FC4; stroke-width:1.7000; stroke-opacity:1; 
stroke-linecap:round; stroke-linejoin:round;">
<path d="M131.9946 25.8500
L131.9946 26.1500
" />
<path d="M98.3946 13.8500
L98.3946 14.1500
" />
<path d="M98.3946 31.8500
L98.3946 32.1500
" />
</g>
<g style="fill:#4D7FC4; fill-opacity:1.0000; stroke:none;">
<circle cx="68.8946" cy="63.7600" r="0.3000" /> 
<circle cx="68.8946" cy="65.1600" r="0.3000" /> 
<circle cx="68.1946" cy="63.0600" r="0.3000" /> 
<circle cx="68.1946" cy="64.4600" r="0.3000" /> 
<circle cx="68.1946" cy="65.8600" r="0.3000" /> 
<circle cx="67.4946" cy="63.7600" r="0.3000" /> 
<circle cx="67.4946" cy="65.1600" r="0.3000" /> 
<circle cx="66.7946" cy="63.0600" r="0.3000" /> 
<circle cx="66.7946" cy="64.4600" r="0.3000" /> 
<circle cx="66.7946" cy="65.8600" r="0.3000" /> 
<circle cx="66.0946" cy="63.7600" r="0.3000" /> 
<circle cx="66.0946" cy="65.1600" r="0.3000" /> 
<path style="fill:#4D7FC4; fill-opacity:1.0000; stroke:none;fill-rule:evenodd;"
d="M 133.8446,74.8500
133.8446,77.1500
136.1446,77.1500
136.1446,74.8500
Z" /> 
<circle cx="124.8346" cy="76.0000" r="1.1500" /> 
<circle cx="117.2146" cy="76.0000" r="1.1500" /> 
<circle cx="119.7546" cy="68.3800" r="1.1500" /> 
<circle cx="134.9946" cy="68.3800" r="1.1500" /> 
<path style="fill:#4D7FC4; fill-opacity:1.0000; stroke:none;fill-rule:evenodd;"
d="M 151.1946,24.0500
151.1756,23.9543
151.1214,23.8732
151.0403,23.8190
150.9446,23.8000
149.0446,23.8000
148.9489,23.8190
148.8678,23.8732
148.8136,23.9543
148.7946,24.0500
148.7946,25.9500
148.8136,26.0457
148.8678,26.1268
148.9489,26.1810
149.0446,26.2000
150.9446,26.2000
151.0403,26.1810
151.1214,26.1268
151.1756,26.0457
151.1946,25.9500
Z" /> 
<circle cx="146.4946" cy="25.0000" r="1.2000" /> 
<circle cx="7.9946" cy="16.0000" r="1.0250" /> 
<circle cx="10.5346" cy="13.4600" r="1.1250" /> 
<circle cx="10.5346" cy="18.5400" r="1.1250" /> 
<circle cx="5.4546" cy="13.4600" r="1.1250" /> 
<circle cx="5.4546" cy="18.5400" r="1.1250" /> 
<path style="fill:#4D7FC4; fill-opacity:1.0000; stroke:none;fill-rule:evenodd;"
d="M 91.8446,86.8500
91.8446,89.1500
94.1446,89.1500
94.1446,86.8500
Z" /> 
<circle cx="82.8346" cy="88.0000" r="1.1500" /> 
<circle cx="75.2146" cy="88.0000" r="1.1500" /> 
<circle cx="77.7546" cy="80.3800" r="1.1500" /> 
<circle cx="92.9946" cy="80.3800" r="1.1500" /> 
<circle cx="74.7446" cy="59.2800" r="0.2250" /> 
<circle cx="38.7946" cy="38.8000" r="0.2250" /> 
<circle cx="77.3946" cy="12.4000" r="0.2250" /> 
<circle cx="35.9946" cy="38.4000" r="0.2250" /> 
<circle cx="38.7946" cy="43.2000" r="0.2250" /> 
<circle cx="42.7696" cy="26.0000" r="0.2250" /> 
<circle cx="78.5946" cy="12.4000" r="0.2250" /> 
<circle cx="66.7696" cy="82.0000" r="0.2250" /> 
<circle cx="78.7696" cy="18.0000" r="0.2250" /> 
<circle cx="79.1321" cy="13.0500" r="0.2250" /> 
<circle cx="74.7446" cy="58.0100" r="0.2250" /> 
<circle cx="32.7696" cy="44.0000" r="0.2250" /> 
<circle cx="35.3946" cy="42.8000" r="0.2250" /> 
<circle cx="38.7696" cy="44.0000" r="0.2250" /> 
<circle cx="37.9946" cy="42.0000" r="0.2250" /> 
<circle cx="40.1946" cy="33.2000" r="0.2250" /> 
<circle cx="34.5946" cy="30.8000" r="0.2250" /> 
<circle cx="15.3946" cy="27.6000" r="0.2250" /> 
<circle cx="79.1321" cy="14.0000" r="0.2250" /> 
<circle cx="85.5196" cy="13.3650" r="0.2250" /> 
<circle cx="37.2196" cy="44.0000" r="0.2250" /> 
<circle cx="15.9946" cy="32.4000" r="0.2250" /> 
<circle cx="15.9946" cy="26.0000" r="0.2250" /> 
<circle cx="39.5321" cy="40.0000" r="0.2250" /> 
<circle cx="37.2196" cy="34.0000" r="0.2250" /> 
<circle cx="67.4946" cy="64.4600" r="0.2250" /> 
<circle cx="15.9946" cy="13.2000" r="0.2250" /> 
<circle cx="15.3946" cy="21.2000" r="0.2250" /> 
<circle cx="85.2196" cy="20.0000" r="0.2250" /> 
<circle cx="34.5946" cy="11.6000" r="0.2250" /> 
<circle cx="12.2196" cy="34.0000" r="0.2250" /> 
<circle cx="33.9946" cy="19.6000" r="0.2250" /> 
<circle cx="77.2196" cy="10.0000" r="0.2250" /> 
<circle cx="74.7446" cy="56.7400" r="0.2250" /> 
<circle cx="31.2196" cy="36.0000" r="0.2250" /> 
<circle cx="15.9946" cy="22.8000" r="0.2250" /> 
<circle cx="33.9946" cy="32.4000" r="0.2250" /> 
<circle cx="33.2196" cy="48.0000" r="0.2250" /> 
<circle cx="41.2196" cy="26.0000" r="0.2250" /> 
<circle cx="15.3946" cy="14.8000" r="0.2250" /> 
<circle cx="41.2446" cy="32.4625" r="0.2250" /> 
<circle cx="91.2196" cy="8.0000" r="0.2250" /> 
<circle cx="34.5946" cy="27.6000" r="0.2250" /> 
<circle cx="15.3946" cy="18.0000" r="0.2250" /> 
<circle cx="15.9946" cy="19.6000" r="0.2250" /> 
<circle cx="29.9571" cy="40.0000" r="0.2250" /> 
<circle cx="15.3946" cy="11.6000" r="0.2250" /> 
<circle cx="15.3946" cy="30.8000" r="0.2250" /> 
<circle cx="15.9946" cy="16.4000" r="0.2250" /> 
<circle cx="33.5321" cy="40.0000" r="0.2250" /> 
<circle cx="35.9571" cy="40.0000" r="0.2250" /> 
<circle cx="77.2196" cy="18.0000" r="0.2250" /> 
<circle cx="57.2446" cy="58.0100" r="0.2250" /> 
<circle cx="34.5946" cy="18.0000" r="0.2250" /> 
<circle cx="34.5946" cy="24.4000" r="0.2250" /> 
<circle cx="33.9946" cy="29.2000" r="0.2250" /> 
<circle cx="41.9946" cy="30.0000" r="0.2250" /> 
<circle cx="36.2196" cy="22.0000" r="0.2250" /> 
<circle cx="65.2196" cy="82.0000" r="0.2250" /> 
<circle cx="15.9946" cy="29.2000" r="0.2250" /> 
<circle cx="57.2446" cy="56.7400" r="0.2250" /> 
<circle cx="31.2196" cy="44.0000" r="0.2250" /> 
<circle cx="33.9946" cy="26.0000" r="0.2250" /> 
<circle cx="33.9946" cy="16.4000" r="0.2250" /> 
<circle cx="42.2446" cy="27.5375" r="0.2250" /> 
<circle cx="34.5946" cy="14.8000" r="0.2250" /> 
<circle cx="31.3946" cy="38.8000" r="0.2250" /> 
<circle cx="32.7696" cy="36.0000" r="0.2250" /> 
<circle cx="13.7696" cy="34.0000" r="0.2250" /> 
<circle cx="34.9946" cy="39.2000" r="0.2250" /> 
<circle cx="38.7696" cy="34.0000" r="0.2250" /> 
<circle cx="42.7446" cy="28.0375" r="0.2250" /> 
<circle cx="14.5946" cy="34.0000" r="0.2250" /> 
<circle cx="38.5946" cy="32.6000" r="0.2250" /> 
<circle cx="33.9946" cy="13.2000" r="0.2250" /> 
<circle cx="43.1946" cy="28.6000" r="0.2250" /> 
<circle cx="35.3946" cy="20.2000" r="0.2250" /> 
<circle cx="33.1946" cy="35.2000" r="0.2250" /> 
<circle cx="34.7946" cy="47.2000" r="0.2250" /> 
<circle cx="64.3946" cy="75.8000" r="0.2250" /> 
<circle cx="58.5946" cy="66.0000" r="0.2250" /> 
<circle cx="90.4696" cy="14.6350" r="0.2250" /> 
<circle cx="92.7696" cy="8.0000" r="0.2250" /> 
<circle cx="90.4696" cy="13.3650" r="0.2250" /> 
<circle cx="58.3946" cy="63.4000" r="0.2250" /> 
<circle cx="55.3946" cy="63.4000" r="0.2250" /> 
<circle cx="40.7946" cy="40.8000" r="0.2250" /> 
<circle cx="40.7946" cy="42.0000" r="0.2250" /> 
<circle cx="55.3946" cy="64.6000" r="0.2250" /> 
<circle cx="58.3946" cy="64.6000" r="0.2250" /> 
<circle cx="58.3946" cy="61.8000" r="0.2250" /> 
<circle cx="55.3946" cy="61.8000" r="0.2250" /> 
</g>
<g style="fill:none; 
stroke:#4D7FC4; stroke-width:0.2000; stroke-opacity:1; 
stroke-linecap:round; stroke-linejoin:round;">
<path d="M37.1946 38.6000
L35.9946 38.6000
" />
<path d="M38.7946 42.8000
L35.3946 42.8000
" />
<path d="M38.7946 42.8000
L38.7946 43.2000
" />
<path d="M38.7946 38.8000
L38.7946 42.8000
" />
<path d="M37.1946 42.8000
L37.1946 38.6000
" />
<path d="M35.9946 38.6000
L35.9946 38.4000
" />
<path d="M78.5946 12.4000
L77.3946 12.4000
" />
<path d="M37.9946 33.2000
L40.1946 33.2000
" />
<path d="M37.9946 42.0000
L37.9946 33.2000
" />
<path d="M44.2446 27.5375
L44.2446 12.8000
" />
<path d="M44.2446 12.8000
L34.5946 12.8000
" />
<path d="M42.2446 27.5375
L44.2446 27.5375
" />
<path d="M34.5946 12.8000
L34.5946 14.8000
" />
<path d="M34.7946 32.6000
L38.5946 32.6000
" />
<path d="M34.7946 38.6000
L31.3946 38.6000
" />
<path d="M34.7946 39.2000
L34.9946 39.2000
" />
<path d="M35.3946 20.2000
L35.3946 31.6000
" />
<path d="M31.3946 38.6000
L31.3946 38.8000
" />
<path d="M33.7946 33.4000
L33.1946 33.4000
" />
<path d="M35.3946 28.6000
L43.1946 28.6000
" />
<path d="M34.7946 35.2000
L34.7946 47.2000
" />
<path d="M35.3946 31.6000
L34.7946 31.6000
" />
<path d="M33.7946 33.2000
L33.7946 33.4000
" />
<path d="M33.1946 35.2000
L34.7946 35.2000
" />
<path d="M33.1946 34.0000
L14.5946 34.0000
" />
<path d="M33.1946 33.4000
L33.1946 35.2000
" />
<path d="M34.7946 31.6000
L34.7946 33.2000
" />
<path d="M34.7946 33.2000
L33.7946 33.2000
" />
<path d="M64.3946 66.0000
L58.5946 66.0000
" />
<path d="M64.3946 75.8000
L64.3946 66.0000
" />
<path d="M55.3946 63.4000
L58.3946 63.4000
" />
<path d="M40.7946 40.8000
L40.7946 42.0000
" />
<path d="M55.3946 64.6000
L58.3946 64.6000
" />
<path d="M55.3946 61.8000
L58.3946 61.8000
" />
<path style="fill:#02FFEE; fill-opacity:0.4000; stroke:none;fill-rule:evenodd;"
d="M 91.8446,89.1500
94.1446,89.1500
94.1446,86.8500
91.8446,86.8500
Z" /> 
<path style="fill:#02FFEE; fill-opacity:0.4000; stroke:none;fill-rule:evenodd;"
d="M 82.5661,86.8818
82.3945,86.9375
82.2337,87.0195
82.0877,87.1255
81.9601,87.2531
81.8541,87.3991
81.7721,87.5599
81.7164,87.7315
81.6881,87.9098
81.6881,88.0902
81.7164,88.2685
81.7721,88.4401
81.8541,88.6009
81.9601,88.7469
82.0877,88.8745
82.2337,88.9805
82.3945,89.0625
82.5661,89.1182
82.7444,89.1465
82.9248,89.1465
83.1031,89.1182
83.2747,89.0625
83.4355,88.9805
83.5815,88.8745
83.7091,88.7469
83.8151,88.6009
83.8971,88.4401
83.9528,88.2685
83.9811,88.0902
83.9811,87.9098
83.9528,87.7315
83.8971,87.5599
83.8151,87.3991
83.7091,87.2531
83.5815,87.1255
83.4355,87.0195
83.2747,86.9375
83.1031,86.8818
82.9248,86.8535
82.7444,86.8535
Z" /> 
<path style="fill:#02FFEE; fill-opacity:0.4000; stroke:none;fill-rule:evenodd;"
d="M 74.9461,86.8818
74.7745,86.9375
74.6137,87.0195
74.4677,87.1255
74.3401,87.2531
74.2341,87.3991
74.1521,87.5599
74.0964,87.7315
74.0681,87.9098
74.0681,88.0902
74.0964,88.2685
74.1521,88.4401
74.2341,88.6009
74.3401,88.7469
74.4677,88.8745
74.6137,88.9805
74.7745,89.0625
74.9461,89.1182
75.1244,89.1465
75.3048,89.1465
75.4831,89.1182
75.6547,89.0625
75.8155,88.9805
75.9615,88.8745
76.0891,88.7469
76.1951,88.6009
76.2771,88.4401
76.3328,88.2685
76.3611,88.0902
76.3611,87.9098
76.3328,87.7315
76.2771,87.5599
76.1951,87.3991
76.0891,87.2531
75.9615,87.1255
75.8155,87.0195
75.6547,86.9375
75.4831,86.8818
75.3048,86.8535
75.1244,86.8535
Z" /> 
<path style="fill:#02FFEE; fill-opacity:0.4000; stroke:none;fill-rule:evenodd;"
d="M 92.7261,79.2618
92.5545,79.3175
92.3937,79.3995
92.2477,79.5055
92.1201,79.6331
92.0141,79.7791
91.9321,79.9399
91.8764,80.1115
91.8481,80.2898
91.8481,80.4702
91.8764,80.6485
91.9321,80.8201
92.0141,80.9809
92.1201,81.1269
92.2477,81.2545
92.3937,81.3605
92.5545,81.4425
92.7261,81.4982
92.9044,81.5265
93.0848,81.5265
93.2631,81.4982
93.4347,81.4425
93.5955,81.3605
93.7415,81.2545
93.8691,81.1269
93.9751,80.9809
94.0571,80.8201
94.1128,80.6485
94.1411,80.4702
94.1411,80.2898
94.1128,80.1115
94.0571,79.9399
93.9751,79.7791
93.8691,79.6331
93.7415,79.5055
93.5955,79.3995
93.4347,79.3175
93.2631,79.2618
93.0848,79.2335
92.9044,79.2335
Z" /> 
<path style="fill:#02FFEE; fill-opacity:0.4000; stroke:none;fill-rule:evenodd;"
d="M 77.4861,79.2618
77.3145,79.3175
77.1537,79.3995
77.0077,79.5055
76.8801,79.6331
76.7741,79.7791
76.6921,79.9399
76.6364,80.1115
76.6081,80.2898
76.6081,80.4702
76.6364,80.6485
76.6921,80.8201
76.7741,80.9809
76.8801,81.1269
77.0077,81.2545
77.1537,81.3605
77.3145,81.4425
77.4861,81.4982
77.6644,81.5265
77.8448,81.5265
78.0231,81.4982
78.1947,81.4425
78.3555,81.3605
78.5015,81.2545
78.6291,81.1269
78.7351,80.9809
78.8171,80.8201
78.8728,80.6485
78.9011,80.4702
78.9011,80.2898
78.8728,80.1115
78.8171,79.9399
78.7351,79.7791
78.6291,79.6331
78.5015,79.5055
78.3555,79.3995
78.1947,79.3175
78.0231,79.2618
77.8448,79.2335
77.6644,79.2335
Z" /> 
<path style="fill:#02FFEE; fill-opacity:0.4000; stroke:none;fill-rule:evenodd;"
d="M 133.8446,77.1500
136.1446,77.1500
136.1446,74.8500
133.8446,74.8500
Z" /> 
<path style="fill:#02FFEE; fill-opacity:0.4000; stroke:none;fill-rule:evenodd;"
d="M 124.5661,74.8818
124.3945,74.9375
124.2337,75.0195
124.0877,75.1255
123.9601,75.2531
123.8541,75.3991
123.7721,75.5599
123.7164,75.7315
123.6881,75.9098
123.6881,76.0902
123.7164,76.2685
123.7721,76.4401
123.8541,76.6009
123.9601,76.7469
124.0877,76.8745
124.2337,76.9805
124.3945,77.0625
124.5661,77.1182
124.7444,77.1465
124.9248,77.1465
125.1031,77.1182
125.2747,77.0625
125.4355,76.9805
125.5815,76.8745
125.7091,76.7469
125.8151,76.6009
125.8971,76.4401
125.9528,76.2685
125.9811,76.0902
125.9811,75.9098
125.9528,75.7315
125.8971,75.5599
125.8151,75.3991
125.7091,75.2531
125.5815,75.1255
125.4355,75.0195
125.2747,74.9375
125.1031,74.8818
124.9248,74.8535
124.7444,74.8535
Z" /> 
<path style="fill:#02FFEE; fill-opacity:0.4000; stroke:none;fill-rule:evenodd;"
d="M 116.9461,74.8818
116.7745,74.9375
116.6137,75.0195
116.4677,75.1255
116.3401,75.2531
116.2341,75.3991
116.1521,75.5599
116.0964,75.7315
116.0681,75.9098
116.0681,76.0902
116.0964,76.2685
116.1521,76.4401
116.2341,76.6009
116.3401,76.7469
116.4677,76.8745
116.6137,76.9805
116.7745,77.0625
116.9461,77.1182
117.1244,77.1465
117.3048,77.1465
117.4831,77.1182
117.6547,77.0625
117.8155,76.9805
117.9615,76.8745
118.0891,76.7469
118.1951,76.6009
118.2771,76.4401
118.3328,76.2685
118.3611,76.0902
118.3611,75.9098
118.3328,75.7315
118.2771,75.5599
118.1951,75.3991
118.0891,75.2531
117.9615,75.1255
117.8155,75.0195
117.6547,74.9375
117.4831,74.8818
117.3048,74.8535
117.1244,74.8535
Z" /> 
<path style="fill:#02FFEE; fill-opacity:0.4000; stroke:none;fill-rule:evenodd;"
d="M 134.7261,67.2618
134.5545,67.3175
134.3937,67.3995
134.2477,67.5055
134.1201,67.6331
134.0141,67.7791
133.9321,67.9399
133.8764,68.1115
133.8481,68.2898
133.8481,68.4702
133.8764,68.6485
133.9321,68.8201
134.0141,68.9809
134.1201,69.1269
134.2477,69.2545
134.3937,69.3605
134.5545,69.4425
134.7261,69.4982
134.9044,69.5265
135.0848,69.5265
135.2631,69.4982
135.4347,69.4425
135.5955,69.3605
135.7415,69.2545
135.8691,69.1269
135.9751,68.9809
136.0571,68.8201
136.1128,68.6485
136.1411,68.4702
136.1411,68.2898
136.1128,68.1115
136.0571,67.9399
135.9751,67.7791
135.8691,67.6331
135.7415,67.5055
135.5955,67.3995
135.4347,67.3175
135.2631,67.2618
135.0848,67.2335
134.9044,67.2335
Z" /> 
<path style="fill:#02FFEE; fill-opacity:0.4000; stroke:none;fill-rule:evenodd;"
d="M 119.4861,67.2618
119.3145,67.3175
119.1537,67.3995
119.0077,67.5055
118.8801,67.6331
118.7741,67.7791
118.6921,67.9399
118.6364,68.1115
118.6081,68.2898
118.6081,68.4702
118.6364,68.6485
118.6921,68.8201
118.7741,68.9809
118.8801,69.1269
119.0077,69.2545
119.1537,69.3605
119.3145,69.4425
119.4861,69.4982
119.6644,69.5265
119.8448,69.5265
120.0231,69.4982
120.1947,69.4425
120.3555,69.3605
120.5015,69.2545
120.6291,69.1269
120.7351,68.9809
120.8171,68.8201
120.8728,68.6485
120.9011,68.4702
120.9011,68.2898
120.8728,68.1115
120.8171,67.9399
120.7351,67.7791
120.6291,67.6331
120.5015,67.5055
120.3555,67.3995
120.1947,67.3175
120.0231,67.2618
119.8448,67.2335
119.6644,67.2335
Z" /> 
<path style="fill:#02FFEE; fill-opacity:0.4000; stroke:none;fill-rule:evenodd;"
d="M 120.2333,40.1388
120.0703,40.2063
119.9236,40.3043
119.7989,40.4290
119.7009,40.5757
119.6334,40.7387
119.5989,40.9118
119.5989,41.0882
119.6334,41.2613
119.7009,41.4243
119.7989,41.5710
119.9236,41.6957
120.0703,41.7937
120.2333,41.8612
120.4064,41.8957
120.5828,41.8957
120.7559,41.8612
120.9189,41.7937
121.0656,41.6957
121.1903,41.5710
121.2883,41.4243
121.3558,41.2613
121.3903,41.0882
121.3903,40.9118
121.3558,40.7387
121.2883,40.5757
121.1903,40.4290
121.0656,40.3043
120.9189,40.2063
120.7559,40.1388
120.5828,40.1043
120.4064,40.1043
Z" /> 
<path style="fill:#02FFEE; fill-opacity:0.4000; stroke:none;fill-rule:evenodd;"
d="M 127.7333,38.1388
127.5703,38.2063
127.4236,38.3043
127.2989,38.4290
127.2009,38.5757
127.1334,38.7387
127.0989,38.9118
127.0989,39.0882
127.1334,39.2613
127.2009,39.4243
127.2989,39.5710
127.4236,39.6957
127.5703,39.7937
127.7333,39.8612
127.9064,39.8957
128.0828,39.8957
128.2559,39.8612
128.4189,39.7937
128.5656,39.6957
128.6903,39.5710
128.7883,39.4243
128.8558,39.2613
128.8903,39.0882
128.8903,38.9118
128.8558,38.7387
128.7883,38.5757
128.6903,38.4290
128.5656,38.3043
128.4189,38.2063
128.2559,38.1388
128.0828,38.1043
127.9064,38.1043
Z" /> 
<path style="fill:#02FFEE; fill-opacity:0.4000; stroke:none;fill-rule:evenodd;"
d="M 98.1479,31.0366
97.9939,31.1004
97.8554,31.1929
97.7375,31.3108
97.6450,31.4493
97.5812,31.6033
97.5487,31.7667
97.5446,31.8500
97.5446,32.1500
97.5487,32.2333
97.5812,32.3967
97.6450,32.5507
97.7375,32.6892
97.8554,32.8071
97.9939,32.8996
98.1479,32.9634
98.3113,32.9959
98.4779,32.9959
98.6413,32.9634
98.7953,32.8996
98.9338,32.8071
99.0517,32.6892
99.1442,32.5507
99.2080,32.3967
99.2405,32.2333
99.2446,32.1500
99.2446,31.8500
99.2405,31.7667
99.2080,31.6033
99.1442,31.4493
99.0517,31.3108
98.9338,31.1929
98.7953,31.1004
98.6413,31.0366
98.4779,31.0041
98.3113,31.0041
Z" /> 
<path style="fill:#02FFEE; fill-opacity:0.4000; stroke:none;fill-rule:evenodd;"
d="M 131.7479,25.0366
131.5939,25.1004
131.4554,25.1929
131.3375,25.3108
131.2450,25.4493
131.1812,25.6033
131.1487,25.7667
131.1446,25.8500
131.1446,26.1500
131.1487,26.2333
131.1812,26.3967
131.2450,26.5507
131.3375,26.6892
131.4554,26.8071
131.5939,26.8996
131.7479,26.9634
131.9113,26.9959
132.0779,26.9959
132.2413,26.9634
132.3953,26.8996
132.5338,26.8071
132.6517,26.6892
132.7442,26.5507
132.8080,26.3967
132.8405,26.2333
132.8446,26.1500
132.8446,25.8500
132.8405,25.7667
132.8080,25.6033
132.7442,25.4493
132.6517,25.3108
132.5338,25.1929
132.3953,25.1004
132.2413,25.0366
132.0779,25.0041
131.9113,25.0041
Z" /> 
<path style="fill:#02FFEE; fill-opacity:0.4000; stroke:none;fill-rule:evenodd;"
d="M 149.0406,23.8008
148.9892,23.8068
148.9716,23.8145
148.9489,23.8190
148.9246,23.8353
148.9038,23.8445
148.8896,23.8587
148.8678,23.8732
148.8533,23.8950
148.8391,23.9092
148.8299,23.9300
148.8136,23.9543
148.8091,23.9770
148.8014,23.9946
148.7954,24.0460
148.7946,24.0500
148.7946,24.0529
148.7946,24.0529
148.7946,25.0041
148.7946,25.9500
148.7954,25.9540
148.8014,26.0054
148.8091,26.0229
148.8136,26.0457
148.8299,26.0700
148.8391,26.0908
148.8533,26.1050
148.8678,26.1268
148.8896,26.1413
148.9038,26.1555
148.9246,26.1647
148.9489,26.1810
148.9716,26.1855
148.9892,26.1932
149.0406,26.1992
149.0446,26.2000
149.0475,26.2000
149.0475,26.2000
150.9417,26.2000
150.9417,26.2000
150.9446,26.2000
150.9486,26.1992
151.0000,26.1932
151.0176,26.1855
151.0403,26.1810
151.0646,26.1647
151.0854,26.1555
151.0996,26.1413
151.1214,26.1268
151.1359,26.1050
151.1501,26.0908
151.1593,26.0700
151.1756,26.0457
151.1801,26.0230
151.1878,26.0054
151.1938,25.9540
151.1946,25.9500
151.1946,25.9471
151.1946,25.9471
151.1946,24.0529
151.1946,24.0529
151.1946,24.0500
151.1938,24.0460
151.1878,23.9946
151.1801,23.9770
151.1756,23.9543
151.1593,23.9300
151.1501,23.9092
151.1359,23.8950
151.1214,23.8732
151.0996,23.8587
151.0854,23.8445
151.0646,23.8353
151.0403,23.8190
151.0176,23.8145
151.0000,23.8068
150.9486,23.8008
150.9446,23.8000
150.9417,23.8000
150.9417,23.8000
149.0475,23.8000
149.0446,23.8000
Z" /> 
<path style="fill:#02FFEE; fill-opacity:0.4000; stroke:none;fill-rule:evenodd;"
d="M 146.2145,23.8332
146.0354,23.8913
145.8676,23.9768
145.7153,24.0875
145.5821,24.2207
145.4714,24.3730
145.3859,24.5408
145.3278,24.7199
145.2983,24.9058
145.2983,25.0942
145.3278,25.2801
145.3859,25.4592
145.4714,25.6270
145.5821,25.7793
145.7153,25.9125
145.8676,26.0232
146.0354,26.1087
146.2145,26.1668
146.4004,26.1963
146.5888,26.1963
146.7747,26.1668
146.9538,26.1087
147.1216,26.0232
147.2739,25.9125
147.4071,25.7793
147.5178,25.6270
147.6033,25.4592
147.6614,25.2801
147.6909,25.0942
147.6909,24.9058
147.6614,24.7199
147.6033,24.5408
147.5178,24.3730
147.4071,24.2207
147.2739,24.0875
147.1216,23.9768
146.9538,23.8913
146.7747,23.8332
146.5888,23.8037
146.4004,23.8037
Z" /> 
<path style="fill:#02FFEE; fill-opacity:0.4000; stroke:none;fill-rule:evenodd;"
d="M 131.3906,19.0008
131.3392,19.0068
131.3216,19.0145
131.2989,19.0190
131.2746,19.0353
131.2538,19.0445
131.2396,19.0587
131.2178,19.0732
131.2033,19.0950
131.1891,19.1092
131.1799,19.1300
131.1636,19.1543
131.1591,19.1770
131.1514,19.1946
131.1454,19.2459
131.1446,19.2500
131.1446,20.7500
131.1454,20.7541
131.1514,20.8054
131.1591,20.8229
131.1636,20.8457
131.1799,20.8700
131.1891,20.8908
131.2033,20.9050
131.2178,20.9268
131.2396,20.9413
131.2538,20.9555
131.2746,20.9647
131.2989,20.9810
131.3217,20.9855
131.3392,20.9932
131.3905,20.9992
131.3946,21.0000
132.5946,21.0000
132.5987,20.9992
132.6500,20.9932
132.6676,20.9855
132.6903,20.9810
132.7146,20.9647
132.7354,20.9555
132.7496,20.9413
132.7714,20.9268
132.7859,20.9050
132.8001,20.8908
132.8093,20.8700
132.8256,20.8457
132.8301,20.8230
132.8378,20.8054
132.8438,20.7540
132.8446,20.7500
132.8446,19.2500
132.8438,19.2460
132.8378,19.1946
132.8301,19.1770
132.8256,19.1543
132.8093,19.1300
132.8001,19.1092
132.7859,19.0950
132.7714,19.0732
132.7496,19.0587
132.7354,19.0445
132.7146,19.0353
132.6903,19.0190
132.6676,19.0145
132.6500,19.0068
132.5986,19.0008
132.5946,19.0000
131.3946,19.0000
Z" /> 
<path style="fill:#02FFEE; fill-opacity:0.4000; stroke:none;fill-rule:evenodd;"
d="M 10.2720,17.4461
10.1041,17.5006
9.9468,17.5808
9.8040,17.6845
9.6791,17.8094
9.5754,17.9522
9.4952,18.1095
9.4407,18.2774
9.4131,18.4517
9.4131,18.6283
9.4407,18.8026
9.4952,18.9705
9.5754,19.1278
9.6791,19.2706
9.8040,19.3955
9.9468,19.4992
10.1041,19.5794
10.2720,19.6339
10.4463,19.6615
10.6229,19.6615
10.7972,19.6339
10.9651,19.5794
11.1224,19.4992
11.2652,19.3955
11.3901,19.2706
11.4938,19.1278
11.5740,18.9705
11.6285,18.8026
11.6561,18.6283
11.6561,18.4517
11.6285,18.2774
11.5740,18.1095
11.4938,17.9522
11.3901,17.8094
11.2652,17.6845
11.1224,17.5808
10.9651,17.5006
10.7972,17.4461
10.6229,17.4185
10.4463,17.4185
Z" /> 
<path style="fill:#02FFEE; fill-opacity:0.4000; stroke:none;fill-rule:evenodd;"
d="M 5.1920,17.4461
5.0241,17.5006
4.8668,17.5808
4.7240,17.6845
4.5991,17.8094
4.4954,17.9522
4.4152,18.1095
4.3607,18.2774
4.3331,18.4517
4.3331,18.6283
4.3607,18.8026
4.4152,18.9705
4.4954,19.1278
4.5991,19.2706
4.7240,19.3955
4.8668,19.4992
5.0241,19.5794
5.1920,19.6339
5.3663,19.6615
5.5429,19.6615
5.7172,19.6339
5.8851,19.5794
6.0424,19.4992
6.1852,19.3955
6.3101,19.2706
6.4138,19.1278
6.4940,18.9705
6.5485,18.8026
6.5761,18.6283
6.5761,18.4517
6.5485,18.2774
6.4940,18.1095
6.4138,17.9522
6.3101,17.8094
6.1852,17.6845
6.0424,17.5808
5.8851,17.5006
5.7172,17.4461
5.5429,17.4185
5.3663,17.4185
Z" /> 
<path style="fill:#02FFEE; fill-opacity:0.4000; stroke:none;fill-rule:evenodd;"
d="M 7.9039,14.9799
7.8941,14.9799
7.8558,14.9876
7.7554,15.0035
7.7231,15.0140
7.6971,15.0191
7.6604,15.0343
7.6024,15.0532
7.5481,15.0808
7.5114,15.0960
7.4894,15.1108
7.4591,15.1262
7.3769,15.1859
7.3443,15.2077
7.3374,15.2146
7.3290,15.2207
7.2153,15.3344
7.2092,15.3428
7.2023,15.3497
7.1805,15.3823
7.1208,15.4645
7.1054,15.4948
7.0906,15.5168
7.0754,15.5535
7.0478,15.6078
7.0289,15.6658
7.0137,15.7025
7.0086,15.7285
6.9981,15.7608
6.9822,15.8612
6.9745,15.8995
6.9745,15.9093
6.9729,15.9196
6.9729,16.0804
6.9745,16.0907
6.9745,16.1005
6.9822,16.1388
6.9981,16.2392
7.0086,16.2715
7.0137,16.2975
7.0289,16.3342
7.0478,16.3922
7.0754,16.4465
7.0906,16.4832
7.1054,16.5052
7.1208,16.5355
7.1805,16.6177
7.2023,16.6503
7.2092,16.6572
7.2153,16.6656
7.3290,16.7793
7.3374,16.7854
7.3443,16.7923
7.3769,16.8141
7.4591,16.8738
7.4894,16.8892
7.5114,16.9040
7.5481,16.9192
7.6024,16.9468
7.6604,16.9657
7.6971,16.9809
7.7231,16.9860
7.7554,16.9965
7.8558,17.0124
7.8941,17.0201
7.9039,17.0201
7.9142,17.0217
8.0750,17.0217
8.0853,17.0201
8.0951,17.0201
8.1334,17.0124
8.2338,16.9965
8.2661,16.9860
8.2921,16.9809
8.3288,16.9657
8.3868,16.9468
8.4411,16.9192
8.4778,16.9040
8.4998,16.8892
8.5301,16.8738
8.6123,16.8141
8.6449,16.7923
8.6518,16.7854
8.6602,16.7793
8.7739,16.6656
8.7800,16.6572
8.7869,16.6503
8.8087,16.6177
8.8684,16.5355
8.8838,16.5052
8.8986,16.4832
8.9138,16.4465
8.9414,16.3922
8.9603,16.3342
8.9755,16.2975
8.9806,16.2715
8.9911,16.2392
9.0070,16.1388
9.0147,16.1005
9.0147,16.0907
9.0163,16.0804
9.0163,15.9196
9.0147,15.9093
9.0147,15.8995
9.0070,15.8612
8.9911,15.7608
8.9806,15.7285
8.9755,15.7025
8.9603,15.6658
8.9414,15.6078
8.9138,15.5535
8.8986,15.5168
8.8838,15.4948
8.8684,15.4645
8.8087,15.3823
8.7869,15.3497
8.7800,15.3428
8.7739,15.3344
8.6602,15.2207
8.6518,15.2146
8.6449,15.2077
8.6123,15.1859
8.5301,15.1262
8.4998,15.1108
8.4778,15.0960
8.4411,15.0808
8.3868,15.0532
8.3288,15.0343
8.2921,15.0191
8.2661,15.0140
8.2338,15.0035
8.1334,14.9876
8.0951,14.9799
8.0853,14.9799
8.0750,14.9783
7.9142,14.9783
Z" /> 
<path style="fill:#02FFEE; fill-opacity:0.4000; stroke:none;fill-rule:evenodd;"
d="M 98.1479,13.0366
97.9939,13.1004
97.8554,13.1929
97.7375,13.3108
97.6450,13.4493
97.5812,13.6033
97.5487,13.7667
97.5446,13.8500
97.5446,14.1500
97.5487,14.2333
97.5812,14.3967
97.6450,14.5507
97.7375,14.6892
97.8554,14.8071
97.9939,14.8996
98.1479,14.9634
98.3113,14.9959
98.4779,14.9959
98.6413,14.9634
98.7953,14.8996
98.9338,14.8071
99.0517,14.6892
99.1442,14.5507
99.2080,14.3967
99.2405,14.2333
99.2446,14.1500
99.2446,13.8500
99.2405,13.7667
99.2080,13.6033
99.1442,13.4493
99.0517,13.3108
98.9338,13.1929
98.7953,13.1004
98.6413,13.0366
98.4779,13.0041
98.3113,13.0041
Z" /> 
<path style="fill:#02FFEE; fill-opacity:0.4000; stroke:none;fill-rule:evenodd;"
d="M 10.2720,12.3661
10.1041,12.4206
9.9468,12.5008
9.8040,12.6045
9.6791,12.7294
9.5754,12.8722
9.4952,13.0295
9.4407,13.1974
9.4131,13.3717
9.4131,13.5483
9.4407,13.7226
9.4952,13.8905
9.5754,14.0478
9.6791,14.1906
9.8040,14.3155
9.9468,14.4192
10.1041,14.4994
10.2720,14.5539
10.4463,14.5815
10.6229,14.5815
10.7972,14.5539
10.9651,14.4994
11.1224,14.4192
11.2652,14.3155
11.3901,14.1906
11.4938,14.0478
11.5740,13.8905
11.6285,13.7226
11.6561,13.5483
11.6561,13.3717
11.6285,13.1974
11.5740,13.0295
11.4938,12.8722
11.3901,12.7294
11.2652,12.6045
11.1224,12.5008
10.9651,12.4206
10.7972,12.3661
10.6229,12.3385
10.4463,12.3385
Z" /> 
<path style="fill:#02FFEE; fill-opacity:0.4000; stroke:none;fill-rule:evenodd;"
d="M 5.1920,12.3661
5.0241,12.4206
4.8668,12.5008
4.7240,12.6045
4.5991,12.7294
4.4954,12.8722
4.4152,13.0295
4.3607,13.1974
4.3331,13.3717
4.3331,13.5483
4.3607,13.7226
4.4152,13.8905
4.4954,14.0478
4.5991,14.1906
4.7240,14.3155
4.8668,14.4192
5.0241,14.4994
5.1920,14.5539
5.3663,14.5815
5.5429,14.5815
5.7172,14.5539
5.8851,14.4994
6.0424,14.4192
6.1852,14.3155
6.3101,14.1906
6.4138,14.0478
6.4940,13.8905
6.5485,13.7226
6.5761,13.5483
6.5761,13.3717
6.5485,13.1974
6.4940,13.0295
6.4138,12.8722
6.3101,12.7294
6.1852,12.6045
6.0424,12.5008
5.8851,12.4206
5.7172,12.3661
5.5429,12.3385
5.3663,12.3385
Z" /> 
</g>
<g style="fill:none; 
stroke:#D0D2CD; stroke-width:0.1000; stroke-opacity:1; 
stroke-linecap:round; stroke-linejoin:round;">
<path d="M159.9946 0.0000
L-0.0054 0.0000
" />
<path d="M159.9946 100.0000
L159.9946 0.0000
" />
<circle cx="156.9946" cy="3.0000" r="1.6000" /> 
<circle cx="156.9946" cy="97.0000" r="1.6000" /> 
<circle cx="2.9946" cy="3.0000" r="1.6000" /> 
<circle cx="2.9946" cy="97.0000" r="1.6000" /> 
<path d="M-0.0054 0.0000
L-0.0054 100.0000
" />
<path d="M-0.0054 100.0000
L159.9946 100.0000
" />
</g>
<g style="fill:#FFFFFF; fill-opacity:1.0000; stroke:none;">
<circle cx="74.7446" cy="59.2800" r="0.1000" /> 
<circle cx="38.7946" cy="38.8000" r="0.1000" /> 
<circle cx="77.3946" cy="12.4000" r="0.1000" /> 
<circle cx="35.9946" cy="38.4000" r="0.1000" /> 
<circle cx="38.7946" cy="43.2000" r="0.1000" /> 
<circle cx="42.7696" cy="26.0000" r="0.1000" /> 
<circle cx="78.5946" cy="12.4000" r="0.1000" /> 
<circle cx="66.7696" cy="82.0000" r="0.1000" /> 
<circle cx="78.7696" cy="18.0000" r="0.1000" /> 
<circle cx="79.1321" cy="13.0500" r="0.1000" /> 
<circle cx="74.7446" cy="58.0100" r="0.1000" /> 
<circle cx="32.7696" cy="44.0000" r="0.1000" /> 
<circle cx="35.3946" cy="42.8000" r="0.1000" /> 
<circle cx="38.7696" cy="44.0000" r="0.1000" /> 
<circle cx="37.9946" cy="42.0000" r="0.1000" /> 
<circle cx="40.1946" cy="33.2000" r="0.1000" /> 
<circle cx="34.5946" cy="30.8000" r="0.1000" /> 
<circle cx="15.3946" cy="27.6000" r="0.1000" /> 
<circle cx="79.1321" cy="14.0000" r="0.1000" /> 
<circle cx="85.5196" cy="13.3650" r="0.1000" /> 
<circle cx="37.2196" cy="44.0000" r="0.1000" /> 
<circle cx="15.9946" cy="32.4000" r="0.1000" /> 
<circle cx="15.9946" cy="26.0000" r="0.1000" /> 
<circle cx="39.5321" cy="40.0000" r="0.1000" /> 
<circle cx="37.2196" cy="34.0000" r="0.1000" /> 
<circle cx="67.4946" cy="64.4600" r="0.1000" /> 
<circle cx="15.9946" cy="13.2000" r="0.1000" /> 
<circle cx="15.3946" cy="21.2000" r="0.1000" /> 
<circle cx="85.2196" cy="20.0000" r="0.1000" /> 
<circle cx="34.5946" cy="11.6000" r="0.1000" /> 
<circle cx="12.2196" cy="34.0000" r="0.1000" /> 
<circle cx="33.9946" cy="19.6000" r="0.1000" /> 
<circle cx="77.2196" cy="10.0000" r="0.1000" /> 
<circle cx="74.7446" cy="56.7400" r="0.1000" /> 
<circle cx="31.2196" cy="36.0000" r="0.1000" /> 
<circle cx="15.9946" cy="22.8000" r="0.1000" /> 
<circle cx="33.9946" cy="32.4000" r="0.1000" /> 
<circle cx="33.2196" cy="48.0000" r="0.1000" /> 
<circle cx="41.2196" cy="26.0000" r="0.1000" /> 
<circle cx="15.3946" cy="14.8000" r="0.1000" /> 
<circle cx="41.2446" cy="32.4625" r="0.1000" /> 
<circle cx="91.2196" cy="8.0000" r="0.1000" /> 
<circle cx="34.5946" cy="27.6000" r="0.1000" /> 
<circle cx="15.3946" cy="18.0000" r="0.1000" /> 
<circle cx="15.9946" cy="19.6000" r="0.1000" /> 
<circle cx="29.9571" cy="40.0000" r="0.1000" /> 
<circle cx="15.3946" cy="11.6000" r="0.1000" /> 
<circle cx="15.3946" cy="30.8000" r="0.1000" /> 
<circle cx="15.9946" cy="16.4000" r="0.1000" /> 
<circle cx="33.5321" cy="40.0000" r="0.1000" /> 
<circle cx="35.9571" cy="40.0000" r="0.1000" /> 
<circle cx="77.2196" cy="18.0000" r="0.1000" /> 
<circle cx="57.2446" cy="58.0100" r="0.1000" /> 
<circle cx="34.5946" cy="18.0000" r="0.1000" /> 
<circle cx="34.5946" cy="24.4000" r="0.1000" /> 
<circle cx="33.9946" cy="29.2000" r="0.1000" /> 
<circle cx="41.9946" cy="30.0000" r="0.1000" /> 
<circle cx="36.2196" cy="22.0000" r="0.1000" /> 
<circle cx="65.2196" cy="82.0000" r="0.1000" /> 
<circle cx="15.9946" cy="29.2000" r="0.1000" /> 
<circle cx="57.2446" cy="56.7400" r="0.1000" /> 
<circle cx="31.2196" cy="44.0000" r="0.1000" /> 
<circle cx="33.9946" cy="26.0000" r="0.1000" /> 
<circle cx="33.9946" cy="16.4000" r="0.1000" /> 
<circle cx="42.2446" cy="27.5375" r="0.1000" /> 
<circle cx="34.5946" cy="14.8000" r="0.1000" /> 
<circle cx="31.3946" cy="38.8000" r="0.1000" /> 
<circle cx="32.7696" cy="36.0000" r="0.1000" /> 
<circle cx="13.7696" cy="34.0000" r="0.1000" /> 
<circle cx="34.9946" cy="39.2000" r="0.1000" /> 
<circle cx="38.7696" cy="34.0000" r="0.1000" /> 
<circle cx="42.7446" cy="28.0375" r="0.1000" /> 
<circle cx="14.5946" cy="34.0000" r="0.1000" /> 
<circle cx="38.5946" cy="32.6000" r="0.1000" /> 
<circle cx="33.9946" cy="13.2000" r="0.1000" /> 
<circle cx="43.1946" cy="28.6000" r="0.1000" /> 
<circle cx="35.3946" cy="20.2000" r="0.1000" /> 
<circle cx="33.1946" cy="35.2000" r="0.1000" /> 
<circle cx="34.7946" cy="47.2000" r="0.1000" /> 
<circle cx="64.3946" cy="75.8000" r="0.1000" /> 
<circle cx="58.5946" cy="66.0000" r="0.1000" /> 
<circle cx="90.4696" cy="14.6350" r="0.1000" /> 
<circle cx="92.7696" cy="8.0000" r="0.1000" /> 
<circle cx="90.4696" cy="13.3650" r="0.1000" /> 
<circle cx="58.3946" cy="63.4000" r="0.1000" /> 
<circle cx="55.3946" cy="63.4000" r="0.1000" /> 
<circle cx="40.7946" cy="40.8000" r="0.1000" /> 
<circle cx="40.7946" cy="42.0000" r="0.1000" /> 
<circle cx="55.3946" cy="64.6000" r="0.1000" /> 
<circle cx="58.3946" cy="64.6000" r="0.1000" /> 
<circle cx="58.3946" cy="61.8000" r="0.1000" /> 
<circle cx="55.3946" cy="61.8000" r="0.1000" /> 
</g>
<g style="fill:#FFFFFF; fill-opacity:1.0000; stroke:none;">
<circle cx="127.9946" cy="39.0000" r="0.4000" /> 
</g>
<g style="fill:#FFFFFF; fill-opacity:1.0000; stroke:none;">
<circle cx="120.4946" cy="41.0000" r="0.4000" /> 
</g>
<g style="fill:#FFFFFF; fill-opacity:1.0000; stroke:none;">
<circle cx="131.9946" cy="20.0000" r="0.5000" /> 
</g>
<g style="fill:#FFFFFF; fill-opacity:1.0000; stroke:none;">
<circle cx="131.9946" cy="26.0000" r="0.5000" /> 
</g>
<g style="fill:#FFFFFF; fill-opacity:1.0000; stroke:none;">
<circle cx="98.3946" cy="14.0000" r="0.5000" /> 
</g>
<g style="fill:#FFFFFF; fill-opacity:1.0000; stroke:none;">
<circle cx="98.3946" cy="32.0000" r="0.5000" /> 
</g>
<g style="fill:#FFFFFF; fill-opacity:1.0000; stroke:none;">
<circle cx="68.8946" cy="63.7600" r="0.1000" /> 
</g>
<g style="fill:#FFFFFF; fill-opacity:1.0000; stroke:none;">
<circle cx="68.8946" cy="65.1600" r="0.1000" /> 
</g>
<g style="fill:#FFFFFF; fill-opacity:1.0000; stroke:none;">
<circle cx="68.1946" cy="63.0600" r="0.1000" /> 
</g>
<g style="fill:#FFFFFF; fill-opacity:1.0000; stroke:none;">
<circle cx="68.1946" cy="64.4600" r="0.1000" /> 
</g>
<g style="fill:#FFFFFF; fill-opacity:1.0000; stroke:none;">
<circle cx="68.1946" cy="65.8600" r="0.1000" /> 
</g>
<g style="fill:#FFFFFF; fill-opacity:1.0000; stroke:none;">
<circle cx="67.4946" cy="63.7600" r="0.1000" /> 
</g>
<g style="fill:#FFFFFF; fill-opacity:1.0000; stroke:none;">
<circle cx="67.4946" cy="65.1600" r="0.1000" /> 
</g>
<g style="fill:#FFFFFF; fill-opacity:1.0000; stroke:none;">
<circle cx="66.7946" cy="63.0600" r="0.1000" /> 
</g>
<g style="fill:#FFFFFF; fill-opacity:1.0000; stroke:none;">
<circle cx="66.7946" cy="64.4600" r="0.1000" /> 
</g>
<g style="fill:#FFFFFF; fill-opacity:1.0000; stroke:none;">
<circle cx="66.7946" cy="65.8600" r="0.1000" /> 
</g>
<g style="fill:#FFFFFF; fill-opacity:1.0000; stroke:none;">
<circle cx="66.0946" cy="63.7600" r="0.1000" /> 
</g>
<g style="fill:#FFFFFF; fill-opacity:1.0000; stroke:none;">
<circle cx="66.0946" cy="65.1600" r="0.1000" /> 
</g>
<g style="fill:#FFFFFF; fill-opacity:1.0000; stroke:none;">
<circle cx="134.9946" cy="76.0000" r="0.6500" /> 
</g>
<g style="fill:#FFFFFF; fill-opacity:1.0000; stroke:none;">
<circle cx="124.8346" cy="76.0000" r="0.6500" /> 
</g>
<g style="fill:#FFFFFF; fill-opacity:1.0000; stroke:none;">
<circle cx="117.2146" cy="76.0000" r="0.6500" /> 
</g>
<g style="fill:#FFFFFF; fill-opacity:1.0000; stroke:none;">
<circle cx="119.7546" cy="68.3800" r="0.6500" /> 
</g>
<g style="fill:#FFFFFF; fill-opacity:1.0000; stroke:none;">
<circle cx="134.9946" cy="68.3800" r="0.6500" /> 
</g>
<g style="fill:#FFFFFF; fill-opacity:1.0000; stroke:none;">
<circle cx="149.9946" cy="25.0000" r="0.6000" /> 
</g>
<g style="fill:#FFFFFF; fill-opacity:1.0000; stroke:none;">
<circle cx="146.4946" cy="25.0000" r="0.6000" /> 
</g>
<g style="fill:#FFFFFF; fill-opacity:1.0000; stroke:none;">
<circle cx="7.9946" cy="16.0000" r="0.7500" /> 
</g>
<g style="fill:#FFFFFF; fill-opacity:1.0000; stroke:none;">
<circle cx="10.5346" cy="13.4600" r="0.8500" /> 
</g>
<g style="fill:#FFFFFF; fill-opacity:1.0000; stroke:none;">
<circle cx="10.5346" cy="18.5400" r="0.8500" /> 
</g>
<g style="fill:#FFFFFF; fill-opacity:1.0000; stroke:none;">
<circle cx="5.4546" cy="13.4600" r="0.8500" /> 
</g>
<g style="fill:#FFFFFF; fill-opacity:1.0000; stroke:none;">
<circle cx="5.4546" cy="18.5400" r="0.8500" /> 
</g>
<g style="fill:#FFFFFF; fill-opacity:1.0000; stroke:none;">
<circle cx="92.9946" cy="88.0000" r="0.6500" /> 
</g>
<g style="fill:#FFFFFF; fill-opacity:1.0000; stroke:none;">
<circle cx="82.8346" cy="88.0000" r="0.6500" /> 
</g>
<g style="fill:#FFFFFF; fill-opacity:1.0000; stroke:none;">
<circle cx="75.2146" cy="88.0000" r="0.6500" /> 
</g>
<g style="fill:#FFFFFF; fill-opacity:1.0000; stroke:none;">
<circle cx="77.7546" cy="80.3800" r="0.6500" /> 
</g>
<g style="fill:#FFFFFF; fill-opacity:1.0000; stroke:none;">
<circle cx="92.9946" cy="80.3800" r="0.6500" /> 
</g> 
</svg>
