<?xml version="1.0" standalone="no"?>
 <!DOCTYPE svg PUBLIC "-//W3C//DTD SVG 1.1//EN" 
 "http://www.w3.org/Graphics/SVG/1.1/DTD/svg11.dtd"> 
<svg
  xmlns:svg="http://www.w3.org/2000/svg"
  xmlns="http://www.w3.org/2000/svg"
  xmlns:xlink="http://www.w3.org/1999/xlink"
  xmlns:inkscape="http://www.inkscape.org/namespaces/inkscape"
  version="1.1"
  width="159.9946mm" height="99.9998mm" viewBox="0.0000 0.0000 159.9946 99.9998">
<title>SVG Image created as pcb_bottom.svg date 2026-06-04T07:39:04 </title>
  <desc>Image generated by PCBNEW </desc>
<g style="fill:#000000; fill-opacity:1.0000;stroke:#000000; stroke-opacity:1.0000;
stroke-linecap:round; stroke-linejoin:round;"
 transform="translate(0 0) scale(1 1)">
</g>
<g style="fill:#4D7FC4; fill-opacity:1.0000; stroke:none;">
<circle cx="34.9946" cy="43.0000" r="1.0250" /> 
<circle cx="37.5346" cy="40.4600" r="1.1250" /> 
<circle cx="37.5346" cy="45.5400" r="1.1250" /> 
<circle cx="32.4546" cy="40.4600" r="1.1250" /> 
<circle cx="32.4546" cy="45.5400" r="1.1250" /> 
<path style="fill:#4D7FC4; fill-opacity:1.0000; stroke:none;fill-rule:evenodd;"
d="M 151.1946,24.0500
151.1756,23.9543
151.1214,23.8732
151.0403,23.8190
150.9446,23.8000
149.0446,23.8000
148.9489,23.8190
148.8678,23.8732
148.8136,23.9543
148.7946,24.0500
148.7946,25.9500
148.8136,26.0457
148.8678,26.1268
148.9489,26.1810
149.0446,26.2000
150.9446,26.2000
151.0403,26.1810
151.1214,26.1268
151.1756,26.0457
151.1946,25.9500
Z" /> 
<circle cx="146.4946" cy="25.0000" r="1.2000" /> 
<circle cx="127.9946" cy="43.0000" r="0.9000" /> 
<circle cx="120.4946" cy="45.0000" r="0.9000" /> 
<path style="fill:#4D7FC4; fill-opacity:1.0000; stroke:none;fill-rule:evenodd;"
d="M 132.8446,19.2500
132.8256,19.1543
132.7714,19.0732
132.6903,19.0190
132.5946,19.0000
131.3946,19.0000
131.2989,19.0190
131.2178,19.0732
131.1636,19.1543
131.1446,19.2500
131.1446,20.7500
131.1636,20.8457
131.2178,20.9268
131.2989,20.9810
131.3946,21.0000
132.5946,21.0000
132.6903,20.9810
132.7714,20.9268
132.8256,20.8457
132.8446,20.7500
Z" /> 
</g>
<g style="fill:none; 
stroke:#4D7FC4; stroke-width:1.7000; stroke-opacity:1; 
stroke-linecap:round; stroke-linejoin:round;">
<path d="M131.9946 25.8500
L131.9946 26.1500
" />
<path d="M98.3946 13.8500
L98.3946 14.1500
" />
<path d="M98.3946 31.8500
L98.3946 32.1500
" />
<path style="fill:#4D7FC4; fill-opacity:1.0000; stroke:none;fill-rule:evenodd;"
d="M 133.8446,74.8500
133.8446,77.1500
136.1446,77.1500
136.1446,74.8500
Z" /> 
</g>
<g style="fill:#4D7FC4; fill-opacity:1.0000; stroke:none;">
<circle cx="124.8346" cy="76.0000" r="1.1500" /> 
<circle cx="117.2146" cy="76.0000" r="1.1500" /> 
<circle cx="119.7546" cy="68.3800" r="1.1500" /> 
<circle cx="134.9946" cy="68.3800" r="1.1500" /> 
<path style="fill:#4D7FC4; fill-opacity:1.0000; stroke:none;fill-rule:evenodd;"
d="M 91.8446,74.8500
91.8446,77.1500
94.1446,77.1500
94.1446,74.8500
Z" /> 
<circle cx="82.8346" cy="76.0000" r="1.1500" /> 
<circle cx="75.2146" cy="76.0000" r="1.1500" /> 
<circle cx="77.7546" cy="68.3800" r="1.1500" /> 
<circle cx="92.9946" cy="68.3800" r="1.1500" /> 
<circle cx="40.0321" cy="30.5000" r="0.2250" /> 
<circle cx="74.3946" cy="12.4000" r="0.2250" /> 
<circle cx="43.3946" cy="29.0000" r="0.2250" /> 
<circle cx="83.5196" cy="15.9050" r="0.2250" /> 
<circle cx="48.7696" cy="24.0000" r="0.2250" /> 
<circle cx="48.7946" cy="38.0000" r="0.2250" /> 
<circle cx="44.4571" cy="29.5000" r="0.2250" /> 
<circle cx="76.1321" cy="13.0500" r="0.2250" /> 
<circle cx="47.0321" cy="39.3500" r="0.2250" /> 
<circle cx="72.7696" cy="20.0000" r="0.2250" /> 
<circle cx="77.7696" cy="29.0000" r="0.2250" /> 
<circle cx="28.0321" cy="39.3500" r="0.2250" /> 
<circle cx="48.7946" cy="24.8000" r="0.2250" /> 
<circle cx="10.7696" cy="22.0000" r="0.2250" /> 
<circle cx="75.5946" cy="12.4000" r="0.2250" /> 
<circle cx="52.7946" cy="29.8000" r="0.2250" /> 
<circle cx="21.7946" cy="33.4000" r="0.2250" /> 
<circle cx="27.1946" cy="45.2000" r="0.2250" /> 
<circle cx="83.5196" cy="12.0950" r="0.2250" /> 
<circle cx="73.8571" cy="13.0500" r="0.2250" /> 
<circle cx="48.7696" cy="46.0000" r="0.2250" /> 
<circle cx="26.7696" cy="46.0000" r="0.2250" /> 
<circle cx="28.5946" cy="39.2000" r="0.2250" /> 
<circle cx="15.9946" cy="29.2000" r="0.2250" /> 
<circle cx="15.3946" cy="18.0000" r="0.2250" /> 
<circle cx="131.9321" cy="59.9500" r="0.2250" /> 
<circle cx="47.2196" cy="46.0000" r="0.2250" /> 
<circle cx="15.9946" cy="16.4000" r="0.2250" /> 
<circle cx="15.3946" cy="27.6000" r="0.2250" /> 
<circle cx="15.9946" cy="32.4000" r="0.2250" /> 
<circle cx="15.3946" cy="30.8000" r="0.2250" /> 
<circle cx="82.2196" cy="23.0000" r="0.2250" /> 
<circle cx="76.1321" cy="14.0000" r="0.2250" /> 
<circle cx="9.2196" cy="22.0000" r="0.2250" /> 
<circle cx="23.9571" cy="40.0000" r="0.2250" /> 
<circle cx="71.2196" cy="8.0000" r="0.2250" /> 
<circle cx="50.2196" cy="40.0000" r="0.2250" /> 
<circle cx="33.9946" cy="26.0000" r="0.2250" /> 
<circle cx="41.9946" cy="30.0000" r="0.2250" /> 
<circle cx="34.5946" cy="30.8000" r="0.2250" /> 
<circle cx="15.3946" cy="11.6000" r="0.2250" /> 
<circle cx="83.5196" cy="13.3650" r="0.2250" /> 
<circle cx="46.5321" cy="40.0000" r="0.2250" /> 
<circle cx="71.2196" cy="20.0000" r="0.2250" /> 
<circle cx="15.9946" cy="19.6000" r="0.2250" /> 
<circle cx="15.9946" cy="26.0000" r="0.2250" /> 
<circle cx="76.2196" cy="29.0000" r="0.2250" /> 
<circle cx="47.2196" cy="24.0000" r="0.2250" /> 
<circle cx="15.9946" cy="22.8000" r="0.2250" /> 
<circle cx="15.3946" cy="21.2000" r="0.2250" /> 
<circle cx="50.2196" cy="30.0000" r="0.2250" /> 
<circle cx="34.5946" cy="27.6000" r="0.2250" /> 
<circle cx="41.2446" cy="32.4625" r="0.2250" /> 
<circle cx="15.3946" cy="14.8000" r="0.2250" /> 
<circle cx="25.2196" cy="46.0000" r="0.2250" /> 
<circle cx="15.9946" cy="13.2000" r="0.2250" /> 
<circle cx="33.9946" cy="32.4000" r="0.2250" /> 
<circle cx="34.5946" cy="11.6000" r="0.2250" /> 
<circle cx="33.9946" cy="29.2000" r="0.2250" /> 
<circle cx="19.2196" cy="40.0000" r="0.2250" /> 
<circle cx="27.5321" cy="40.0000" r="0.2250" /> 
<circle cx="34.5946" cy="24.4000" r="0.2250" /> 
<circle cx="42.9571" cy="40.0000" r="0.2250" /> 
<circle cx="39.2196" cy="22.0000" r="0.2250" /> 
<circle cx="121.9946" cy="59.0000" r="0.2250" /> 
<circle cx="124.1946" cy="60.0000" r="0.2250" /> 
<circle cx="40.3946" cy="23.4000" r="0.2250" /> 
<circle cx="33.9946" cy="18.6000" r="0.2250" /> 
<circle cx="33.9946" cy="16.4000" r="0.2250" /> 
<circle cx="41.7446" cy="28.0375" r="0.2250" /> 
<circle cx="42.2446" cy="27.5375" r="0.2250" /> 
<circle cx="34.5946" cy="14.8000" r="0.2250" /> 
<circle cx="23.7946" cy="39.0000" r="0.2250" /> 
<circle cx="76.1321" cy="14.9500" r="0.2250" /> 
<circle cx="42.7446" cy="28.0375" r="0.2250" /> 
<circle cx="49.9946" cy="38.6000" r="0.2250" /> 
<circle cx="33.9946" cy="13.2000" r="0.2250" /> 
<circle cx="21.1946" cy="39.2000" r="0.2250" /> 
<circle cx="40.7696" cy="22.0000" r="0.2250" /> 
<circle cx="44.3946" cy="38.8000" r="0.2250" /> 
<circle cx="21.1946" cy="24.4000" r="0.2250" /> 
<circle cx="72.7696" cy="8.0000" r="0.2250" /> 
</g>
<g style="fill:none; 
stroke:#4D7FC4; stroke-width:0.2000; stroke-opacity:1; 
stroke-linecap:round; stroke-linejoin:round;">
<path d="M28.7696 46.0000
L28.7696 31.4000
" />
<path d="M48.7946 30.8000
L48.7946 24.8000
" />
<path d="M83.5196 15.9050
L85.5196 15.9050
" />
<path d="M48.7696 22.0000
L48.7696 24.0000
" />
<path d="M48.7946 24.8000
L50.7946 24.8000
" />
<path d="M75.8571 13.0500
L75.8571 11.0500
" />
<path d="M48.7946 22.8000
L48.7946 38.0000
" />
<path d="M48.7946 30.8000
L48.7946 38.0000
" />
<path d="M52.5946 29.8000
L52.5946 30.8000
" />
<path d="M43.3946 27.0000
L43.3946 29.0000
" />
<path d="M44.4571 27.5000
L44.4571 29.5000
" />
<path d="M54.7946 29.8000
L54.7946 22.8000
" />
<path d="M52.7946 18.0000
L52.7946 29.8000
" />
<path d="M46.4571 27.0000
L43.3946 27.0000
" />
<path d="M50.7696 22.0000
L48.7696 22.0000
" />
<path d="M73.8571 13.0500
L75.8571 13.0500
" />
<path d="M74.7696 20.0000
L74.7696 18.0000
" />
<path d="M52.7946 29.8000
L52.5946 29.8000
" />
<path d="M54.7946 22.8000
L48.7946 22.8000
" />
<path d="M77.5946 12.4000
L77.5946 10.4000
" />
<path d="M79.7696 29.0000
L79.7696 11.0500
" />
<path d="M30.5946 39.2000
L30.5946 37.2000
" />
<path d="M50.7946 24.8000
L50.7946 22.8000
" />
<path d="M29.1946 45.2000
L29.1946 43.2000
" />
<path d="M85.5196 10.0950
L83.5196 10.0950
" />
<path d="M77.7696 29.0000
L79.7696 29.0000
" />
<path d="M35.3946 31.2000
L35.3946 31.6000
" />
<path d="M52.7946 29.8000
L54.7946 29.8000
" />
<path d="M33.7946 33.4000
L28.7946 33.4000
" />
<path d="M75.8571 11.0500
L72.7696 11.0500
" />
<path d="M28.7946 41.4000
L27.1946 41.4000
" />
<path d="M28.0321 39.3500
L30.0321 39.3500
" />
<path d="M49.0321 39.3500
L49.0321 27.5000
" />
<path d="M34.7946 31.6000
L34.7946 33.2000
" />
<path d="M21.7946 33.4000
L23.7946 33.4000
" />
<path d="M76.3946 10.4000
L73.8571 10.4000
" />
<path d="M50.7696 37.3500
L47.0321 37.3500
" />
<path d="M52.5946 30.8000
L45.1946 30.8000
" />
<path d="M50.7696 46.0000
L50.7696 37.3500
" />
<path d="M73.8571 10.4000
L73.8571 13.0500
" />
<path d="M79.7696 11.0500
L76.1321 11.0500
" />
<path d="M85.5196 12.0950
L85.5196 10.0950
" />
<path d="M30.0321 39.3500
L30.0321 37.3500
" />
<path d="M26.7696 43.2000
L26.7696 46.0000
" />
<path d="M45.1946 31.2000
L35.3946 31.2000
" />
<path d="M29.1946 43.2000
L26.7696 43.2000
" />
<path d="M35.3946 31.6000
L34.7946 31.6000
" />
<path d="M44.4571 29.5000
L46.4571 29.5000
" />
<path d="M72.7696 20.0000
L74.7696 20.0000
" />
<path d="M45.1946 30.8000
L45.1946 31.2000
" />
<path d="M45.3946 27.0000
L40.0321 27.0000
" />
<path d="M23.7946 20.0000
L10.7696 20.0000
" />
<path d="M42.0321 28.5000
L28.5946 28.5000
" />
<path d="M78.1321 13.0500
L78.1321 10.4000
" />
<path d="M42.0321 30.5000
L42.0321 28.5000
" />
<path d="M85.5196 13.9050
L77.7696 13.9050
" />
<path d="M50.7946 22.8000
L48.7946 22.8000
" />
<path d="M76.1321 13.0500
L78.1321 13.0500
" />
<path d="M50.7946 38.0000
L50.7946 22.0000
" />
<path d="M43.3946 29.0000
L45.3946 29.0000
" />
<path d="M28.5946 28.5000
L28.5946 39.2000
" />
<path d="M75.5946 12.4000
L74.3946 12.4000
" />
<path d="M40.0321 27.0000
L40.0321 30.5000
" />
<path d="M74.7696 18.0000
L52.7946 18.0000
" />
<path d="M77.5946 10.4000
L74.3946 10.4000
" />
<path d="M43.1946 29.2000
L43.3946 29.2000
" />
<path d="M28.7696 31.4000
L21.7946 31.4000
" />
<path d="M75.5946 10.4000
L75.5946 12.4000
" />
<path d="M27.1946 37.3500
L27.1946 45.2000
" />
<path d="M43.1946 31.2000
L43.1946 29.2000
" />
<path d="M27.1946 45.2000
L29.1946 45.2000
" />
<path d="M10.7696 20.0000
L10.7696 22.0000
" />
<path d="M28.7946 33.4000
L28.7946 41.4000
" />
<path d="M49.0321 27.5000
L44.4571 27.5000
" />
<path d="M48.7946 38.0000
L50.7946 38.0000
" />
<path d="M50.7946 22.0000
L48.7696 22.0000
" />
<path d="M27.1946 41.4000
L27.1946 45.2000
" />
<path d="M34.7946 33.2000
L33.7946 33.2000
" />
<path d="M28.7946 33.4000
L21.7946 33.4000
" />
<path d="M75.5946 12.4000
L77.5946 12.4000
" />
<path d="M23.7946 33.4000
L23.7946 20.0000
" />
<path d="M28.7946 39.2000
L28.5946 39.2000
" />
<path d="M48.7696 24.0000
L50.7696 24.0000
" />
<path d="M21.7946 31.4000
L21.7946 33.4000
" />
<path d="M47.0321 37.3500
L47.0321 39.3500
" />
<path d="M50.7696 24.0000
L50.7696 22.0000
" />
<path d="M45.3946 29.0000
L45.3946 27.0000
" />
<path d="M28.5946 39.2000
L30.5946 39.2000
" />
<path d="M83.5196 10.0950
L83.5196 15.9050
" />
<path d="M74.3946 12.4000
L76.3946 12.4000
" />
<path d="M77.7696 13.9050
L77.7696 29.0000
" />
<path d="M48.7696 22.0000
L48.7696 46.0000
" />
<path d="M72.7696 11.0500
L72.7696 20.0000
" />
<path d="M48.7696 46.0000
L50.7696 46.0000
" />
<path d="M30.0321 37.3500
L27.1946 37.3500
" />
<path d="M28.0321 37.2000
L28.0321 39.3500
" />
<path d="M76.1321 11.0500
L76.1321 13.0500
" />
<path d="M78.1321 10.4000
L75.5946 10.4000
" />
<path d="M74.3946 10.4000
L74.3946 12.4000
" />
<path d="M46.4571 29.5000
L46.4571 27.0000
" />
<path d="M43.3946 29.2000
L43.3946 29.0000
" />
<path d="M48.7946 22.8000
L48.7946 24.8000
" />
<path d="M47.0321 39.3500
L49.0321 39.3500
" />
<path d="M85.5196 15.9050
L85.5196 13.9050
" />
<path d="M33.7946 33.2000
L33.7946 33.4000
" />
<path d="M30.5946 37.2000
L28.0321 37.2000
" />
<path d="M76.3946 12.4000
L76.3946 10.4000
" />
<path d="M40.0321 30.5000
L42.0321 30.5000
" />
<path d="M83.5196 12.0950
L85.5196 12.0950
" />
<path d="M26.7696 46.0000
L28.7696 46.0000
" />
</g>
<g style="fill:none; 
stroke:#4D7FC4; stroke-width:0.2500; stroke-opacity:1; 
stroke-linecap:round; stroke-linejoin:round;">
<path d="M130.7946 60.0000
L130.7946 60.6000
" />
<path d="M124.1946 60.0000
L130.7946 60.0000
" />
<path d="M130.7946 60.6000
L131.1946 60.6000
" />
<path d="M133.7946 70.0000
L133.7946 74.8000
" />
<path d="M133.3946 60.8000
L133.3946 70.0000
" />
<path d="M131.1946 60.6000
L131.1946 60.8000
" />
<path d="M133.3946 70.0000
L133.7946 70.0000
" />
<path d="M133.7946 74.8000
L134.9946 76.0000
" />
<path d="M131.1946 60.8000
L133.3946 60.8000
" />
</g>
<g style="fill:none; 
stroke:#4D7FC4; stroke-width:0.2000; stroke-opacity:1; 
stroke-linecap:round; stroke-linejoin:round;">
<path d="M40.3946 23.4000
L40.3946 22.8000
" />
<path d="M40.3946 22.8000
L39.9946 22.8000
" />
<path d="M39.9946 18.6000
L33.9946 18.6000
" />
<path d="M39.9946 22.8000
L39.9946 18.6000
" />
<path d="M41.7446 28.0375
L43.7446 28.0375
" />
<path d="M43.7446 14.4000
L33.9946 14.4000
" />
<path d="M43.7446 28.0375
L43.7446 14.4000
" />
<path d="M33.9946 14.4000
L33.9946 16.4000
" />
<path d="M44.2446 12.8000
L34.5946 12.8000
" />
<path d="M42.2446 27.5375
L44.2446 27.5375
" />
<path d="M34.5946 12.8000
L34.5946 14.8000
" />
<path d="M44.2446 27.5375
L44.2446 12.8000
" />
<path d="M44.3946 38.6000
L44.3946 38.8000
" />
<path d="M21.1946 39.0000
L23.7946 39.0000
" />
<path d="M49.9946 38.6000
L44.3946 38.6000
" />
<path d="M21.1946 24.4000
L21.1946 39.2000
" />
</g>
<g style="fill:none; 
stroke:#4D7FC4; stroke-width:1.2000; stroke-opacity:1; 
stroke-linecap:round; stroke-linejoin:round;">
<path d="M131.9946 26.0000
L131.1946 27.0000
" />
<path d="M121.3946 27.0000
L121.3946 44.0000
" />
<path d="M131.1946 27.0000
L121.3946 27.0000
" />
<path d="M121.3946 44.0000
L120.4946 45.0000
" />
<path style="fill:#02FFEE; fill-opacity:0.4000; stroke:none;fill-rule:evenodd;"
d="M 133.8446,77.1500
136.1446,77.1500
136.1446,74.8500
133.8446,74.8500
Z" /> 
<path style="fill:#02FFEE; fill-opacity:0.4000; stroke:none;fill-rule:evenodd;"
d="M 91.8446,77.1500
94.1446,77.1500
94.1446,74.8500
91.8446,74.8500
Z" /> 
<path style="fill:#02FFEE; fill-opacity:0.4000; stroke:none;fill-rule:evenodd;"
d="M 124.5661,74.8818
124.3945,74.9375
124.2337,75.0195
124.0877,75.1255
123.9601,75.2531
123.8541,75.3991
123.7721,75.5599
123.7164,75.7315
123.6881,75.9098
123.6881,76.0902
123.7164,76.2685
123.7721,76.4401
123.8541,76.6009
123.9601,76.7469
124.0877,76.8745
124.2337,76.9805
124.3945,77.0625
124.5661,77.1182
124.7444,77.1465
124.9248,77.1465
125.1031,77.1182
125.2747,77.0625
125.4355,76.9805
125.5815,76.8745
125.7091,76.7469
125.8151,76.6009
125.8971,76.4401
125.9528,76.2685
125.9811,76.0902
125.9811,75.9098
125.9528,75.7315
125.8971,75.5599
125.8151,75.3991
125.7091,75.2531
125.5815,75.1255
125.4355,75.0195
125.2747,74.9375
125.1031,74.8818
124.9248,74.8535
124.7444,74.8535
Z" /> 
<path style="fill:#02FFEE; fill-opacity:0.4000; stroke:none;fill-rule:evenodd;"
d="M 116.9461,74.8818
116.7745,74.9375
116.6137,75.0195
116.4677,75.1255
116.3401,75.2531
116.2341,75.3991
116.1521,75.5599
116.0964,75.7315
116.0681,75.9098
116.0681,76.0902
116.0964,76.2685
116.1521,76.4401
116.2341,76.6009
116.3401,76.7469
116.4677,76.8745
116.6137,76.9805
116.7745,77.0625
116.9461,77.1182
117.1244,77.1465
117.3048,77.1465
117.4831,77.1182
117.6547,77.0625
117.8155,76.9805
117.9615,76.8745
118.0891,76.7469
118.1951,76.6009
118.2771,76.4401
118.3328,76.2685
118.3611,76.0902
118.3611,75.9098
118.3328,75.7315
118.2771,75.5599
118.1951,75.3991
118.0891,75.2531
117.9615,75.1255
117.8155,75.0195
117.6547,74.9375
117.4831,74.8818
117.3048,74.8535
117.1244,74.8535
Z" /> 
<path style="fill:#02FFEE; fill-opacity:0.4000; stroke:none;fill-rule:evenodd;"
d="M 82.5661,74.8818
82.3945,74.9375
82.2337,75.0195
82.0877,75.1255
81.9601,75.2531
81.8541,75.3991
81.7721,75.5599
81.7164,75.7315
81.6881,75.9098
81.6881,76.0902
81.7164,76.2685
81.7721,76.4401
81.8541,76.6009
81.9601,76.7469
82.0877,76.8745
82.2337,76.9805
82.3945,77.0625
82.5661,77.1182
82.7444,77.1465
82.9248,77.1465
83.1031,77.1182
83.2747,77.0625
83.4355,76.9805
83.5815,76.8745
83.7091,76.7469
83.8151,76.6009
83.8971,76.4401
83.9528,76.2685
83.9811,76.0902
83.9811,75.9098
83.9528,75.7315
83.8971,75.5599
83.8151,75.3991
83.7091,75.2531
83.5815,75.1255
83.4355,75.0195
83.2747,74.9375
83.1031,74.8818
82.9248,74.8535
82.7444,74.8535
Z" /> 
<path style="fill:#02FFEE; fill-opacity:0.4000; stroke:none;fill-rule:evenodd;"
d="M 74.9461,74.8818
74.7745,74.9375
74.6137,75.0195
74.4677,75.1255
74.3401,75.2531
74.2341,75.3991
74.1521,75.5599
74.0964,75.7315
74.0681,75.9098
74.0681,76.0902
74.0964,76.2685
74.1521,76.4401
74.2341,76.6009
74.3401,76.7469
74.4677,76.8745
74.6137,76.9805
74.7745,77.0625
74.9461,77.1182
75.1244,77.1465
75.3048,77.1465
75.4831,77.1182
75.6547,77.0625
75.8155,76.9805
75.9615,76.8745
76.0891,76.7469
76.1951,76.6009
76.2771,76.4401
76.3328,76.2685
76.3611,76.0902
76.3611,75.9098
76.3328,75.7315
76.2771,75.5599
76.1951,75.3991
76.0891,75.2531
75.9615,75.1255
75.8155,75.0195
75.6547,74.9375
75.4831,74.8818
75.3048,74.8535
75.1244,74.8535
Z" /> 
<path style="fill:#02FFEE; fill-opacity:0.4000; stroke:none;fill-rule:evenodd;"
d="M 134.7261,67.2618
134.5545,67.3175
134.3937,67.3995
134.2477,67.5055
134.1201,67.6331
134.0141,67.7791
133.9321,67.9399
133.8764,68.1115
133.8481,68.2898
133.8481,68.4702
133.8764,68.6485
133.9321,68.8201
134.0141,68.9809
134.1201,69.1269
134.2477,69.2545
134.3937,69.3605
134.5545,69.4425
134.7261,69.4982
134.9044,69.5265
135.0848,69.5265
135.2631,69.4982
135.4347,69.4425
135.5955,69.3605
135.7415,69.2545
135.8691,69.1269
135.9751,68.9809
136.0571,68.8201
136.1128,68.6485
136.1411,68.4702
136.1411,68.2898
136.1128,68.1115
136.0571,67.9399
135.9751,67.7791
135.8691,67.6331
135.7415,67.5055
135.5955,67.3995
135.4347,67.3175
135.2631,67.2618
135.0848,67.2335
134.9044,67.2335
Z" /> 
<path style="fill:#02FFEE; fill-opacity:0.4000; stroke:none;fill-rule:evenodd;"
d="M 119.4861,67.2618
119.3145,67.3175
119.1537,67.3995
119.0077,67.5055
118.8801,67.6331
118.7741,67.7791
118.6921,67.9399
118.6364,68.1115
118.6081,68.2898
118.6081,68.4702
118.6364,68.6485
118.6921,68.8201
118.7741,68.9809
118.8801,69.1269
119.0077,69.2545
119.1537,69.3605
119.3145,69.4425
119.4861,69.4982
119.6644,69.5265
119.8448,69.5265
120.0231,69.4982
120.1947,69.4425
120.3555,69.3605
120.5015,69.2545
120.6291,69.1269
120.7351,68.9809
120.8171,68.8201
120.8728,68.6485
120.9011,68.4702
120.9011,68.2898
120.8728,68.1115
120.8171,67.9399
120.7351,67.7791
120.6291,67.6331
120.5015,67.5055
120.3555,67.3995
120.1947,67.3175
120.0231,67.2618
119.8448,67.2335
119.6644,67.2335
Z" /> 
<path style="fill:#02FFEE; fill-opacity:0.4000; stroke:none;fill-rule:evenodd;"
d="M 92.7261,67.2618
92.5545,67.3175
92.3937,67.3995
92.2477,67.5055
92.1201,67.6331
92.0141,67.7791
91.9321,67.9399
91.8764,68.1115
91.8481,68.2898
91.8481,68.4702
91.8764,68.6485
91.9321,68.8201
92.0141,68.9809
92.1201,69.1269
92.2477,69.2545
92.3937,69.3605
92.5545,69.4425
92.7261,69.4982
92.9044,69.5265
93.0848,69.5265
93.2631,69.4982
93.4347,69.4425
93.5955,69.3605
93.7415,69.2545
93.8691,69.1269
93.9751,68.9809
94.0571,68.8201
94.1128,68.6485
94.1411,68.4702
94.1411,68.2898
94.1128,68.1115
94.0571,67.9399
93.9751,67.7791
93.8691,67.6331
93.7415,67.5055
93.5955,67.3995
93.4347,67.3175
93.2631,67.2618
93.0848,67.2335
92.9044,67.2335
Z" /> 
<path style="fill:#02FFEE; fill-opacity:0.4000; stroke:none;fill-rule:evenodd;"
d="M 77.4861,67.2618
77.3145,67.3175
77.1537,67.3995
77.0077,67.5055
76.8801,67.6331
76.7741,67.7791
76.6921,67.9399
76.6364,68.1115
76.6081,68.2898
76.6081,68.4702
76.6364,68.6485
76.6921,68.8201
76.7741,68.9809
76.8801,69.1269
77.0077,69.2545
77.1537,69.3605
77.3145,69.4425
77.4861,69.4982
77.6644,69.5265
77.8448,69.5265
78.0231,69.4982
78.1947,69.4425
78.3555,69.3605
78.5015,69.2545
78.6291,69.1269
78.7351,68.9809
78.8171,68.8201
78.8728,68.6485
78.9011,68.4702
78.9011,68.2898
78.8728,68.1115
78.8171,67.9399
78.7351,67.7791
78.6291,67.6331
78.5015,67.5055
78.3555,67.3995
78.1947,67.3175
78.0231,67.2618
77.8448,67.2335
77.6644,67.2335
Z" /> 
<path style="fill:#02FFEE; fill-opacity:0.4000; stroke:none;fill-rule:evenodd;"
d="M 37.2720,44.4461
37.1041,44.5006
36.9468,44.5808
36.8040,44.6845
36.6791,44.8094
36.5754,44.9522
36.4952,45.1095
36.4407,45.2774
36.4131,45.4517
36.4131,45.6283
36.4407,45.8026
36.4952,45.9705
36.5754,46.1278
36.6791,46.2706
36.8040,46.3955
36.9468,46.4992
37.1041,46.5794
37.2720,46.6339
37.4463,46.6615
37.6229,46.6615
37.7972,46.6339
37.9651,46.5794
38.1224,46.4992
38.2652,46.3955
38.3901,46.2706
38.4938,46.1278
38.5740,45.9705
38.6285,45.8026
38.6561,45.6283
38.6561,45.4517
38.6285,45.2774
38.5740,45.1095
38.4938,44.9522
38.3901,44.8094
38.2652,44.6845
38.1224,44.5808
37.9651,44.5006
37.7972,44.4461
37.6229,44.4185
37.4463,44.4185
Z" /> 
<path style="fill:#02FFEE; fill-opacity:0.4000; stroke:none;fill-rule:evenodd;"
d="M 32.1920,44.4461
32.0241,44.5006
31.8668,44.5808
31.7240,44.6845
31.5991,44.8094
31.4954,44.9522
31.4152,45.1095
31.3607,45.2774
31.3331,45.4517
31.3331,45.6283
31.3607,45.8026
31.4152,45.9705
31.4954,46.1278
31.5991,46.2706
31.7240,46.3955
31.8668,46.4992
32.0241,46.5794
32.1920,46.6339
32.3663,46.6615
32.5429,46.6615
32.7172,46.6339
32.8851,46.5794
33.0424,46.4992
33.1852,46.3955
33.3101,46.2706
33.4138,46.1278
33.4940,45.9705
33.5485,45.8026
33.5761,45.6283
33.5761,45.4517
33.5485,45.2774
33.4940,45.1095
33.4138,44.9522
33.3101,44.8094
33.1852,44.6845
33.0424,44.5808
32.8851,44.5006
32.7172,44.4461
32.5429,44.4185
32.3663,44.4185
Z" /> 
<path style="fill:#02FFEE; fill-opacity:0.4000; stroke:none;fill-rule:evenodd;"
d="M 120.2333,44.1388
120.0703,44.2063
119.9236,44.3043
119.7989,44.4290
119.7009,44.5757
119.6334,44.7387
119.5989,44.9118
119.5989,45.0882
119.6334,45.2613
119.7009,45.4243
119.7989,45.5710
119.9236,45.6957
120.0703,45.7937
120.2333,45.8612
120.4064,45.8957
120.5828,45.8957
120.7559,45.8612
120.9189,45.7937
121.0656,45.6957
121.1903,45.5710
121.2883,45.4243
121.3558,45.2613
121.3903,45.0882
121.3903,44.9118
121.3558,44.7387
121.2883,44.5757
121.1903,44.4290
121.0656,44.3043
120.9189,44.2063
120.7559,44.1388
120.5828,44.1043
120.4064,44.1043
Z" /> 
<path style="fill:#02FFEE; fill-opacity:0.4000; stroke:none;fill-rule:evenodd;"
d="M 34.9039,41.9799
34.8941,41.9799
34.8558,41.9876
34.7554,42.0035
34.7231,42.0140
34.6971,42.0191
34.6604,42.0343
34.6024,42.0532
34.5481,42.0808
34.5114,42.0960
34.4894,42.1108
34.4591,42.1262
34.3769,42.1859
34.3443,42.2077
34.3374,42.2146
34.3290,42.2207
34.2153,42.3344
34.2092,42.3428
34.2023,42.3497
34.1805,42.3823
34.1208,42.4645
34.1054,42.4948
34.0906,42.5168
34.0754,42.5535
34.0478,42.6078
34.0289,42.6658
34.0137,42.7025
34.0086,42.7285
33.9981,42.7608
33.9822,42.8612
33.9745,42.8995
33.9745,42.9093
33.9729,42.9196
33.9729,43.0804
33.9745,43.0907
33.9745,43.1005
33.9822,43.1388
33.9981,43.2392
34.0086,43.2715
34.0137,43.2975
34.0289,43.3342
34.0478,43.3922
34.0754,43.4465
34.0906,43.4832
34.1054,43.5052
34.1208,43.5355
34.1805,43.6177
34.2023,43.6503
34.2092,43.6572
34.2153,43.6656
34.3290,43.7793
34.3374,43.7854
34.3443,43.7923
34.3769,43.8141
34.4591,43.8738
34.4894,43.8892
34.5114,43.9040
34.5481,43.9192
34.6024,43.9468
34.6604,43.9657
34.6971,43.9809
34.7231,43.9860
34.7554,43.9965
34.8558,44.0124
34.8941,44.0201
34.9039,44.0201
34.9142,44.0217
35.0750,44.0217
35.0853,44.0201
35.0951,44.0201
35.1334,44.0124
35.2338,43.9965
35.2661,43.9860
35.2921,43.9809
35.3288,43.9657
35.3868,43.9468
35.4411,43.9192
35.4778,43.9040
35.4998,43.8892
35.5301,43.8738
35.6123,43.8141
35.6449,43.7923
35.6518,43.7854
35.6602,43.7793
35.7739,43.6656
35.7800,43.6572
35.7869,43.6503
35.8087,43.6177
35.8684,43.5355
35.8838,43.5052
35.8986,43.4832
35.9138,43.4465
35.9414,43.3922
35.9603,43.3342
35.9755,43.2975
35.9806,43.2715
35.9911,43.2392
36.0070,43.1388
36.0147,43.1005
36.0147,43.0907
36.0163,43.0804
36.0163,42.9196
36.0147,42.9093
36.0147,42.8995
36.0070,42.8612
35.9911,42.7608
35.9806,42.7285
35.9755,42.7025
35.9603,42.6658
35.9414,42.6078
35.9138,42.5535
35.8986,42.5168
35.8838,42.4948
35.8684,42.4645
35.8087,42.3823
35.7869,42.3497
35.7800,42.3428
35.7739,42.3344
35.6602,42.2207
35.6518,42.2146
35.6449,42.2077
35.6123,42.1859
35.5301,42.1262
35.4998,42.1108
35.4778,42.0960
35.4411,42.0808
35.3868,42.0532
35.3288,42.0343
35.2921,42.0191
35.2661,42.0140
35.2338,42.0035
35.1334,41.9876
35.0951,41.9799
35.0853,41.9799
35.0750,41.9783
34.9142,41.9783
Z" /> 
<path style="fill:#02FFEE; fill-opacity:0.4000; stroke:none;fill-rule:evenodd;"
d="M 127.7333,42.1388
127.5703,42.2063
127.4236,42.3043
127.2989,42.4290
127.2009,42.5757
127.1334,42.7387
127.0989,42.9118
127.0989,43.0882
127.1334,43.2613
127.2009,43.4243
127.2989,43.5710
127.4236,43.6957
127.5703,43.7937
127.7333,43.8612
127.9064,43.8957
128.0828,43.8957
128.2559,43.8612
128.4189,43.7937
128.5656,43.6957
128.6903,43.5710
128.7883,43.4243
128.8558,43.2613
128.8903,43.0882
128.8903,42.9118
128.8558,42.7387
128.7883,42.5757
128.6903,42.4290
128.5656,42.3043
128.4189,42.2063
128.2559,42.1388
128.0828,42.1043
127.9064,42.1043
Z" /> 
<path style="fill:#02FFEE; fill-opacity:0.4000; stroke:none;fill-rule:evenodd;"
d="M 37.2720,39.3661
37.1041,39.4206
36.9468,39.5008
36.8040,39.6045
36.6791,39.7294
36.5754,39.8722
36.4952,40.0295
36.4407,40.1974
36.4131,40.3717
36.4131,40.5483
36.4407,40.7226
36.4952,40.8905
36.5754,41.0478
36.6791,41.1906
36.8040,41.3155
36.9468,41.4192
37.1041,41.4994
37.2720,41.5539
37.4463,41.5815
37.6229,41.5815
37.7972,41.5539
37.9651,41.4994
38.1224,41.4192
38.2652,41.3155
38.3901,41.1906
38.4938,41.0478
38.5740,40.8905
38.6285,40.7226
38.6561,40.5483
38.6561,40.3717
38.6285,40.1974
38.5740,40.0295
38.4938,39.8722
38.3901,39.7294
38.2652,39.6045
38.1224,39.5008
37.9651,39.4206
37.7972,39.3661
37.6229,39.3385
37.4463,39.3385
Z" /> 
<path style="fill:#02FFEE; fill-opacity:0.4000; stroke:none;fill-rule:evenodd;"
d="M 32.1920,39.3661
32.0241,39.4206
31.8668,39.5008
31.7240,39.6045
31.5991,39.7294
31.4954,39.8722
31.4152,40.0295
31.3607,40.1974
31.3331,40.3717
31.3331,40.5483
31.3607,40.7226
31.4152,40.8905
31.4954,41.0478
31.5991,41.1906
31.7240,41.3155
31.8668,41.4192
32.0241,41.4994
32.1920,41.5539
32.3663,41.5815
32.5429,41.5815
32.7172,41.5539
32.8851,41.4994
33.0424,41.4192
33.1852,41.3155
33.3101,41.1906
33.4138,41.0478
33.4940,40.8905
33.5485,40.7226
33.5761,40.5483
33.5761,40.3717
33.5485,40.1974
33.4940,40.0295
33.4138,39.8722
33.3101,39.7294
33.1852,39.6045
33.0424,39.5008
32.8851,39.4206
32.7172,39.3661
32.5429,39.3385
32.3663,39.3385
Z" /> 
<path style="fill:#02FFEE; fill-opacity:0.4000; stroke:none;fill-rule:evenodd;"
d="M 98.1479,31.0366
97.9939,31.1004
97.8554,31.1929
97.7375,31.3108
97.6450,31.4493
97.5812,31.6033
97.5487,31.7667
97.5446,31.8500
97.5446,32.1500
97.5487,32.2333
97.5812,32.3967
97.6450,32.5507
97.7375,32.6892
97.8554,32.8071
97.9939,32.8996
98.1479,32.9634
98.3113,32.9959
98.4779,32.9959
98.6413,32.9634
98.7953,32.8996
98.9338,32.8071
99.0517,32.6892
99.1442,32.5507
99.2080,32.3967
99.2405,32.2333
99.2446,32.1500
99.2446,31.8500
99.2405,31.7667
99.2080,31.6033
99.1442,31.4493
99.0517,31.3108
98.9338,31.1929
98.7953,31.1004
98.6413,31.0366
98.4779,31.0041
98.3113,31.0041
Z" /> 
<path style="fill:#02FFEE; fill-opacity:0.4000; stroke:none;fill-rule:evenodd;"
d="M 131.7479,25.0366
131.5939,25.1004
131.4554,25.1929
131.3375,25.3108
131.2450,25.4493
131.1812,25.6033
131.1487,25.7667
131.1446,25.8500
131.1446,26.1500
131.1487,26.2333
131.1812,26.3967
131.2450,26.5507
131.3375,26.6892
131.4554,26.8071
131.5939,26.8996
131.7479,26.9634
131.9113,26.9959
132.0779,26.9959
132.2413,26.9634
132.3953,26.8996
132.5338,26.8071
132.6517,26.6892
132.7442,26.5507
132.8080,26.3967
132.8405,26.2333
132.8446,26.1500
132.8446,25.8500
132.8405,25.7667
132.8080,25.6033
132.7442,25.4493
132.6517,25.3108
132.5338,25.1929
132.3953,25.1004
132.2413,25.0366
132.0779,25.0041
131.9113,25.0041
Z" /> 
<path style="fill:#02FFEE; fill-opacity:0.4000; stroke:none;fill-rule:evenodd;"
d="M 149.0406,23.8008
148.9892,23.8068
148.9716,23.8145
148.9489,23.8190
148.9246,23.8353
148.9038,23.8445
148.8896,23.8587
148.8678,23.8732
148.8533,23.8950
148.8391,23.9092
148.8299,23.9300
148.8136,23.9543
148.8091,23.9770
148.8014,23.9946
148.7954,24.0460
148.7946,24.0500
148.7946,24.0529
148.7946,24.0529
148.7946,25.0041
148.7946,25.9500
148.7954,25.9540
148.8014,26.0054
148.8091,26.0229
148.8136,26.0457
148.8299,26.0700
148.8391,26.0908
148.8533,26.1050
148.8678,26.1268
148.8896,26.1413
148.9038,26.1555
148.9246,26.1647
148.9489,26.1810
148.9716,26.1855
148.9892,26.1932
149.0406,26.1992
149.0446,26.2000
149.0475,26.2000
149.0475,26.2000
150.9417,26.2000
150.9417,26.2000
150.9446,26.2000
150.9486,26.1992
151.0000,26.1932
151.0176,26.1855
151.0403,26.1810
151.0646,26.1647
151.0854,26.1555
151.0996,26.1413
151.1214,26.1268
151.1359,26.1050
151.1501,26.0908
151.1593,26.0700
151.1756,26.0457
151.1801,26.0230
151.1878,26.0054
151.1938,25.9540
151.1946,25.9500
151.1946,25.9471
151.1946,25.9471
151.1946,24.0529
151.1946,24.0529
151.1946,24.0500
151.1938,24.0460
151.1878,23.9946
151.1801,23.9770
151.1756,23.9543
151.1593,23.9300
151.1501,23.9092
151.1359,23.8950
151.1214,23.8732
151.0996,23.8587
151.0854,23.8445
151.0646,23.8353
151.0403,23.8190
151.0176,23.8145
151.0000,23.8068
150.9486,23.8008
150.9446,23.8000
150.9417,23.8000
150.9417,23.8000
149.0475,23.8000
149.0446,23.8000
Z" /> 
<path style="fill:#02FFEE; fill-opacity:0.4000; stroke:none;fill-rule:evenodd;"
d="M 146.2145,23.8332
146.0354,23.8913
145.8676,23.9768
145.7153,24.0875
145.5821,24.2207
145.4714,24.3730
145.3859,24.5408
145.3278,24.7199
145.2983,24.9058
145.2983,25.0942
145.3278,25.2801
145.3859,25.4592
145.4714,25.6270
145.5821,25.7793
145.7153,25.9125
145.8676,26.0232
146.0354,26.1087
146.2145,26.1668
146.4004,26.1963
146.5888,26.1963
146.7747,26.1668
146.9538,26.1087
147.1216,26.0232
147.2739,25.9125
147.4071,25.7793
147.5178,25.6270
147.6033,25.4592
147.6614,25.2801
147.6909,25.0942
147.6909,24.9058
147.6614,24.7199
147.6033,24.5408
147.5178,24.3730
147.4071,24.2207
147.2739,24.0875
147.1216,23.9768
146.9538,23.8913
146.7747,23.8332
146.5888,23.8037
146.4004,23.8037
Z" /> 
<path style="fill:#02FFEE; fill-opacity:0.4000; stroke:none;fill-rule:evenodd;"
d="M 131.3906,19.0008
131.3392,19.0068
131.3216,19.0145
131.2989,19.0190
131.2746,19.0353
131.2538,19.0445
131.2396,19.0587
131.2178,19.0732
131.2033,19.0950
131.1891,19.1092
131.1799,19.1300
131.1636,19.1543
131.1591,19.1770
131.1514,19.1946
131.1454,19.2459
131.1446,19.2500
131.1446,20.7500
131.1454,20.7541
131.1514,20.8054
131.1591,20.8229
131.1636,20.8457
131.1799,20.8700
131.1891,20.8908
131.2033,20.9050
131.2178,20.9268
131.2396,20.9413
131.2538,20.9555
131.2746,20.9647
131.2989,20.9810
131.3217,20.9855
131.3392,20.9932
131.3905,20.9992
131.3946,21.0000
132.5946,21.0000
132.5987,20.9992
132.6500,20.9932
132.6676,20.9855
132.6903,20.9810
132.7146,20.9647
132.7354,20.9555
132.7496,20.9413
132.7714,20.9268
132.7859,20.9050
132.8001,20.8908
132.8093,20.8700
132.8256,20.8457
132.8301,20.8230
132.8378,20.8054
132.8438,20.7540
132.8446,20.7500
132.8446,19.2500
132.8438,19.2460
132.8378,19.1946
132.8301,19.1770
132.8256,19.1543
132.8093,19.1300
132.8001,19.1092
132.7859,19.0950
132.7714,19.0732
132.7496,19.0587
132.7354,19.0445
132.7146,19.0353
132.6903,19.0190
132.6676,19.0145
132.6500,19.0068
132.5986,19.0008
132.5946,19.0000
131.3946,19.0000
Z" /> 
<path style="fill:#02FFEE; fill-opacity:0.4000; stroke:none;fill-rule:evenodd;"
d="M 98.1479,13.0366
97.9939,13.1004
97.8554,13.1929
97.7375,13.3108
97.6450,13.4493
97.5812,13.6033
97.5487,13.7667
97.5446,13.8500
97.5446,14.1500
97.5487,14.2333
97.5812,14.3967
97.6450,14.5507
97.7375,14.6892
97.8554,14.8071
97.9939,14.8996
98.1479,14.9634
98.3113,14.9959
98.4779,14.9959
98.6413,14.9634
98.7953,14.8996
98.9338,14.8071
99.0517,14.6892
99.1442,14.5507
99.2080,14.3967
99.2405,14.2333
99.2446,14.1500
99.2446,13.8500
99.2405,13.7667
99.2080,13.6033
99.1442,13.4493
99.0517,13.3108
98.9338,13.1929
98.7953,13.1004
98.6413,13.0366
98.4779,13.0041
98.3113,13.0041
Z" /> 
</g>
<g style="fill:none; 
stroke:#D0D2CD; stroke-width:0.1000; stroke-opacity:1; 
stroke-linecap:round; stroke-linejoin:round;">
<path d="M159.9946 0.0000
L-0.0054 0.0000
" />
<path d="M159.9946 100.0000
L159.9946 0.0000
" />
<circle cx="156.9946" cy="3.0000" r="1.6000" /> 
<circle cx="156.9946" cy="97.0000" r="1.6000" /> 
<circle cx="2.9946" cy="3.0000" r="1.6000" /> 
<circle cx="2.9946" cy="97.0000" r="1.6000" /> 
<path d="M-0.0054 0.0000
L-0.0054 100.0000
" />
<path d="M-0.0054 100.0000
L159.9946 100.0000
" />
</g>
<g style="fill:#FFFFFF; fill-opacity:1.0000; stroke:none;">
<circle cx="40.0321" cy="30.5000" r="0.1000" /> 
<circle cx="74.3946" cy="12.4000" r="0.1000" /> 
<circle cx="43.3946" cy="29.0000" r="0.1000" /> 
<circle cx="83.5196" cy="15.9050" r="0.1000" /> 
<circle cx="48.7696" cy="24.0000" r="0.1000" /> 
<circle cx="48.7946" cy="38.0000" r="0.1000" /> 
<circle cx="44.4571" cy="29.5000" r="0.1000" /> 
<circle cx="76.1321" cy="13.0500" r="0.1000" /> 
<circle cx="47.0321" cy="39.3500" r="0.1000" /> 
<circle cx="72.7696" cy="20.0000" r="0.1000" /> 
<circle cx="77.7696" cy="29.0000" r="0.1000" /> 
<circle cx="28.0321" cy="39.3500" r="0.1000" /> 
<circle cx="48.7946" cy="24.8000" r="0.1000" /> 
<circle cx="10.7696" cy="22.0000" r="0.1000" /> 
<circle cx="75.5946" cy="12.4000" r="0.1000" /> 
<circle cx="52.7946" cy="29.8000" r="0.1000" /> 
<circle cx="21.7946" cy="33.4000" r="0.1000" /> 
<circle cx="27.1946" cy="45.2000" r="0.1000" /> 
<circle cx="83.5196" cy="12.0950" r="0.1000" /> 
<circle cx="73.8571" cy="13.0500" r="0.1000" /> 
<circle cx="48.7696" cy="46.0000" r="0.1000" /> 
<circle cx="26.7696" cy="46.0000" r="0.1000" /> 
<circle cx="28.5946" cy="39.2000" r="0.1000" /> 
<circle cx="15.9946" cy="29.2000" r="0.1000" /> 
<circle cx="15.3946" cy="18.0000" r="0.1000" /> 
<circle cx="131.9321" cy="59.9500" r="0.1000" /> 
<circle cx="47.2196" cy="46.0000" r="0.1000" /> 
<circle cx="15.9946" cy="16.4000" r="0.1000" /> 
<circle cx="15.3946" cy="27.6000" r="0.1000" /> 
<circle cx="15.9946" cy="32.4000" r="0.1000" /> 
<circle cx="15.3946" cy="30.8000" r="0.1000" /> 
<circle cx="82.2196" cy="23.0000" r="0.1000" /> 
<circle cx="76.1321" cy="14.0000" r="0.1000" /> 
<circle cx="9.2196" cy="22.0000" r="0.1000" /> 
<circle cx="23.9571" cy="40.0000" r="0.1000" /> 
<circle cx="71.2196" cy="8.0000" r="0.1000" /> 
<circle cx="50.2196" cy="40.0000" r="0.1000" /> 
<circle cx="33.9946" cy="26.0000" r="0.1000" /> 
<circle cx="41.9946" cy="30.0000" r="0.1000" /> 
<circle cx="34.5946" cy="30.8000" r="0.1000" /> 
<circle cx="15.3946" cy="11.6000" r="0.1000" /> 
<circle cx="83.5196" cy="13.3650" r="0.1000" /> 
<circle cx="46.5321" cy="40.0000" r="0.1000" /> 
<circle cx="71.2196" cy="20.0000" r="0.1000" /> 
<circle cx="15.9946" cy="19.6000" r="0.1000" /> 
<circle cx="15.9946" cy="26.0000" r="0.1000" /> 
<circle cx="76.2196" cy="29.0000" r="0.1000" /> 
<circle cx="47.2196" cy="24.0000" r="0.1000" /> 
<circle cx="15.9946" cy="22.8000" r="0.1000" /> 
<circle cx="15.3946" cy="21.2000" r="0.1000" /> 
<circle cx="50.2196" cy="30.0000" r="0.1000" /> 
<circle cx="34.5946" cy="27.6000" r="0.1000" /> 
<circle cx="41.2446" cy="32.4625" r="0.1000" /> 
<circle cx="15.3946" cy="14.8000" r="0.1000" /> 
<circle cx="25.2196" cy="46.0000" r="0.1000" /> 
<circle cx="15.9946" cy="13.2000" r="0.1000" /> 
<circle cx="33.9946" cy="32.4000" r="0.1000" /> 
<circle cx="34.5946" cy="11.6000" r="0.1000" /> 
<circle cx="33.9946" cy="29.2000" r="0.1000" /> 
<circle cx="19.2196" cy="40.0000" r="0.1000" /> 
<circle cx="27.5321" cy="40.0000" r="0.1000" /> 
<circle cx="34.5946" cy="24.4000" r="0.1000" /> 
<circle cx="42.9571" cy="40.0000" r="0.1000" /> 
<circle cx="39.2196" cy="22.0000" r="0.1000" /> 
<circle cx="121.9946" cy="59.0000" r="0.1000" /> 
<circle cx="124.1946" cy="60.0000" r="0.1000" /> 
<circle cx="40.3946" cy="23.4000" r="0.1000" /> 
<circle cx="33.9946" cy="18.6000" r="0.1000" /> 
<circle cx="33.9946" cy="16.4000" r="0.1000" /> 
<circle cx="41.7446" cy="28.0375" r="0.1000" /> 
<circle cx="42.2446" cy="27.5375" r="0.1000" /> 
<circle cx="34.5946" cy="14.8000" r="0.1000" /> 
<circle cx="23.7946" cy="39.0000" r="0.1000" /> 
<circle cx="76.1321" cy="14.9500" r="0.1000" /> 
<circle cx="42.7446" cy="28.0375" r="0.1000" /> 
<circle cx="49.9946" cy="38.6000" r="0.1000" /> 
<circle cx="33.9946" cy="13.2000" r="0.1000" /> 
<circle cx="21.1946" cy="39.2000" r="0.1000" /> 
<circle cx="40.7696" cy="22.0000" r="0.1000" /> 
<circle cx="44.3946" cy="38.8000" r="0.1000" /> 
<circle cx="21.1946" cy="24.4000" r="0.1000" /> 
<circle cx="72.7696" cy="8.0000" r="0.1000" /> 
</g>
<g style="fill:#FFFFFF; fill-opacity:1.0000; stroke:none;">
<circle cx="34.9946" cy="43.0000" r="0.7500" /> 
</g>
<g style="fill:#FFFFFF; fill-opacity:1.0000; stroke:none;">
<circle cx="37.5346" cy="40.4600" r="0.8500" /> 
</g>
<g style="fill:#FFFFFF; fill-opacity:1.0000; stroke:none;">
<circle cx="37.5346" cy="45.5400" r="0.8500" /> 
</g>
<g style="fill:#FFFFFF; fill-opacity:1.0000; stroke:none;">
<circle cx="32.4546" cy="40.4600" r="0.8500" /> 
</g>
<g style="fill:#FFFFFF; fill-opacity:1.0000; stroke:none;">
<circle cx="32.4546" cy="45.5400" r="0.8500" /> 
</g>
<g style="fill:#FFFFFF; fill-opacity:1.0000; stroke:none;">
<circle cx="149.9946" cy="25.0000" r="0.6000" /> 
</g>
<g style="fill:#FFFFFF; fill-opacity:1.0000; stroke:none;">
<circle cx="146.4946" cy="25.0000" r="0.6000" /> 
</g>
<g style="fill:#FFFFFF; fill-opacity:1.0000; stroke:none;">
<circle cx="127.9946" cy="43.0000" r="0.4000" /> 
</g>
<g style="fill:#FFFFFF; fill-opacity:1.0000; stroke:none;">
<circle cx="120.4946" cy="45.0000" r="0.4000" /> 
</g>
<g style="fill:#FFFFFF; fill-opacity:1.0000; stroke:none;">
<circle cx="131.9946" cy="20.0000" r="0.5000" /> 
</g>
<g style="fill:#FFFFFF; fill-opacity:1.0000; stroke:none;">
<circle cx="131.9946" cy="26.0000" r="0.5000" /> 
</g>
<g style="fill:#FFFFFF; fill-opacity:1.0000; stroke:none;">
<circle cx="98.3946" cy="14.0000" r="0.5000" /> 
</g>
<g style="fill:#FFFFFF; fill-opacity:1.0000; stroke:none;">
<circle cx="98.3946" cy="32.0000" r="0.5000" /> 
</g>
<g style="fill:#FFFFFF; fill-opacity:1.0000; stroke:none;">
<circle cx="134.9946" cy="76.0000" r="0.6500" /> 
</g>
<g style="fill:#FFFFFF; fill-opacity:1.0000; stroke:none;">
<circle cx="124.8346" cy="76.0000" r="0.6500" /> 
</g>
<g style="fill:#FFFFFF; fill-opacity:1.0000; stroke:none;">
<circle cx="117.2146" cy="76.0000" r="0.6500" /> 
</g>
<g style="fill:#FFFFFF; fill-opacity:1.0000; stroke:none;">
<circle cx="119.7546" cy="68.3800" r="0.6500" /> 
</g>
<g style="fill:#FFFFFF; fill-opacity:1.0000; stroke:none;">
<circle cx="134.9946" cy="68.3800" r="0.6500" /> 
</g>
<g style="fill:#FFFFFF; fill-opacity:1.0000; stroke:none;">
<circle cx="92.9946" cy="76.0000" r="0.6500" /> 
</g>
<g style="fill:#FFFFFF; fill-opacity:1.0000; stroke:none;">
<circle cx="82.8346" cy="76.0000" r="0.6500" /> 
</g>
<g style="fill:#FFFFFF; fill-opacity:1.0000; stroke:none;">
<circle cx="75.2146" cy="76.0000" r="0.6500" /> 
</g>
<g style="fill:#FFFFFF; fill-opacity:1.0000; stroke:none;">
<circle cx="77.7546" cy="68.3800" r="0.6500" /> 
</g>
<g style="fill:#FFFFFF; fill-opacity:1.0000; stroke:none;">
<circle cx="92.9946" cy="68.3800" r="0.6500" /> 
</g> 
</svg>
